<?xml version="1.0" encoding="utf-8" standalone="no"?>
<!DOCTYPE svg PUBLIC "-//W3C//DTD SVG 1.1//EN"
  "http://www.w3.org/Graphics/SVG/1.1/DTD/svg11.dtd">
<svg xmlns:xlink="http://www.w3.org/1999/xlink" width="460.8pt" height="345.6pt" viewBox="0 0 460.8 345.6" xmlns="http://www.w3.org/2000/svg" version="1.1">
 <metadata>
  <rdf:RDF xmlns:dc="http://purl.org/dc/elements/1.1/" xmlns:cc="http://creativecommons.org/ns#" xmlns:rdf="http://www.w3.org/1999/02/22-rdf-syntax-ns#">
   <cc:Work>
    <dc:type rdf:resource="http://purl.org/dc/dcmitype/StillImage"/>
    <dc:date>2023-10-10T11:09:44.266402</dc:date>
    <dc:format>image/svg+xml</dc:format>
    <dc:creator>
     <cc:Agent>
      <dc:title>Matplotlib v3.7.1, https://matplotlib.org/</dc:title>
     </cc:Agent>
    </dc:creator>
   </cc:Work>
  </rdf:RDF>
 </metadata>
 <defs>
  <style type="text/css">*{stroke-linejoin: round; stroke-linecap: butt}</style>
 </defs>
 <g id="figure_1">
  <g id="patch_1">
   <path d="M 0 345.6 
L 460.8 345.6 
L 460.8 0 
L 0 0 
z
" style="fill: #ffffff"/>
  </g>
  <g id="axes_1">
   <g id="patch_2">
    <path d="M 57.6 307.584 
L 414.72 307.584 
L 414.72 41.472 
L 57.6 41.472 
z
" style="fill: #eaeaf2"/>
   </g>
   <g id="matplotlib.axis_1">
    <g id="xtick_1">
     <g id="text_1">
      <!-- Salmonella enterica -->
      <g style="fill: #262626" transform="translate(92.129219 325.442281) scale(0.11 -0.11)">
       <defs>
        <path id="DejaVuSans-53" d="M 3425 4513 
L 3425 3897 
Q 3066 4069 2747 4153 
Q 2428 4238 2131 4238 
Q 1616 4238 1336 4038 
Q 1056 3838 1056 3469 
Q 1056 3159 1242 3001 
Q 1428 2844 1947 2747 
L 2328 2669 
Q 3034 2534 3370 2195 
Q 3706 1856 3706 1288 
Q 3706 609 3251 259 
Q 2797 -91 1919 -91 
Q 1588 -91 1214 -16 
Q 841 59 441 206 
L 441 856 
Q 825 641 1194 531 
Q 1563 422 1919 422 
Q 2459 422 2753 634 
Q 3047 847 3047 1241 
Q 3047 1584 2836 1778 
Q 2625 1972 2144 2069 
L 1759 2144 
Q 1053 2284 737 2584 
Q 422 2884 422 3419 
Q 422 4038 858 4394 
Q 1294 4750 2059 4750 
Q 2388 4750 2728 4690 
Q 3069 4631 3425 4513 
z
" transform="scale(0.015625)"/>
        <path id="DejaVuSans-61" d="M 2194 1759 
Q 1497 1759 1228 1600 
Q 959 1441 959 1056 
Q 959 750 1161 570 
Q 1363 391 1709 391 
Q 2188 391 2477 730 
Q 2766 1069 2766 1631 
L 2766 1759 
L 2194 1759 
z
M 3341 1997 
L 3341 0 
L 2766 0 
L 2766 531 
Q 2569 213 2275 61 
Q 1981 -91 1556 -91 
Q 1019 -91 701 211 
Q 384 513 384 1019 
Q 384 1609 779 1909 
Q 1175 2209 1959 2209 
L 2766 2209 
L 2766 2266 
Q 2766 2663 2505 2880 
Q 2244 3097 1772 3097 
Q 1472 3097 1187 3025 
Q 903 2953 641 2809 
L 641 3341 
Q 956 3463 1253 3523 
Q 1550 3584 1831 3584 
Q 2591 3584 2966 3190 
Q 3341 2797 3341 1997 
z
" transform="scale(0.015625)"/>
        <path id="DejaVuSans-6c" d="M 603 4863 
L 1178 4863 
L 1178 0 
L 603 0 
L 603 4863 
z
" transform="scale(0.015625)"/>
        <path id="DejaVuSans-6d" d="M 3328 2828 
Q 3544 3216 3844 3400 
Q 4144 3584 4550 3584 
Q 5097 3584 5394 3201 
Q 5691 2819 5691 2113 
L 5691 0 
L 5113 0 
L 5113 2094 
Q 5113 2597 4934 2840 
Q 4756 3084 4391 3084 
Q 3944 3084 3684 2787 
Q 3425 2491 3425 1978 
L 3425 0 
L 2847 0 
L 2847 2094 
Q 2847 2600 2669 2842 
Q 2491 3084 2119 3084 
Q 1678 3084 1418 2786 
Q 1159 2488 1159 1978 
L 1159 0 
L 581 0 
L 581 3500 
L 1159 3500 
L 1159 2956 
Q 1356 3278 1631 3431 
Q 1906 3584 2284 3584 
Q 2666 3584 2933 3390 
Q 3200 3197 3328 2828 
z
" transform="scale(0.015625)"/>
        <path id="DejaVuSans-6f" d="M 1959 3097 
Q 1497 3097 1228 2736 
Q 959 2375 959 1747 
Q 959 1119 1226 758 
Q 1494 397 1959 397 
Q 2419 397 2687 759 
Q 2956 1122 2956 1747 
Q 2956 2369 2687 2733 
Q 2419 3097 1959 3097 
z
M 1959 3584 
Q 2709 3584 3137 3096 
Q 3566 2609 3566 1747 
Q 3566 888 3137 398 
Q 2709 -91 1959 -91 
Q 1206 -91 779 398 
Q 353 888 353 1747 
Q 353 2609 779 3096 
Q 1206 3584 1959 3584 
z
" transform="scale(0.015625)"/>
        <path id="DejaVuSans-6e" d="M 3513 2113 
L 3513 0 
L 2938 0 
L 2938 2094 
Q 2938 2591 2744 2837 
Q 2550 3084 2163 3084 
Q 1697 3084 1428 2787 
Q 1159 2491 1159 1978 
L 1159 0 
L 581 0 
L 581 3500 
L 1159 3500 
L 1159 2956 
Q 1366 3272 1645 3428 
Q 1925 3584 2291 3584 
Q 2894 3584 3203 3211 
Q 3513 2838 3513 2113 
z
" transform="scale(0.015625)"/>
        <path id="DejaVuSans-65" d="M 3597 1894 
L 3597 1613 
L 953 1613 
Q 991 1019 1311 708 
Q 1631 397 2203 397 
Q 2534 397 2845 478 
Q 3156 559 3463 722 
L 3463 178 
Q 3153 47 2828 -22 
Q 2503 -91 2169 -91 
Q 1331 -91 842 396 
Q 353 884 353 1716 
Q 353 2575 817 3079 
Q 1281 3584 2069 3584 
Q 2775 3584 3186 3129 
Q 3597 2675 3597 1894 
z
M 3022 2063 
Q 3016 2534 2758 2815 
Q 2500 3097 2075 3097 
Q 1594 3097 1305 2825 
Q 1016 2553 972 2059 
L 3022 2063 
z
" transform="scale(0.015625)"/>
        <path id="DejaVuSans-20" transform="scale(0.015625)"/>
        <path id="DejaVuSans-74" d="M 1172 4494 
L 1172 3500 
L 2356 3500 
L 2356 3053 
L 1172 3053 
L 1172 1153 
Q 1172 725 1289 603 
Q 1406 481 1766 481 
L 2356 481 
L 2356 0 
L 1766 0 
Q 1100 0 847 248 
Q 594 497 594 1153 
L 594 3053 
L 172 3053 
L 172 3500 
L 594 3500 
L 594 4494 
L 1172 4494 
z
" transform="scale(0.015625)"/>
        <path id="DejaVuSans-72" d="M 2631 2963 
Q 2534 3019 2420 3045 
Q 2306 3072 2169 3072 
Q 1681 3072 1420 2755 
Q 1159 2438 1159 1844 
L 1159 0 
L 581 0 
L 581 3500 
L 1159 3500 
L 1159 2956 
Q 1341 3275 1631 3429 
Q 1922 3584 2338 3584 
Q 2397 3584 2469 3576 
Q 2541 3569 2628 3553 
L 2631 2963 
z
" transform="scale(0.015625)"/>
        <path id="DejaVuSans-69" d="M 603 3500 
L 1178 3500 
L 1178 0 
L 603 0 
L 603 3500 
z
M 603 4863 
L 1178 4863 
L 1178 4134 
L 603 4134 
L 603 4863 
z
" transform="scale(0.015625)"/>
        <path id="DejaVuSans-63" d="M 3122 3366 
L 3122 2828 
Q 2878 2963 2633 3030 
Q 2388 3097 2138 3097 
Q 1578 3097 1268 2742 
Q 959 2388 959 1747 
Q 959 1106 1268 751 
Q 1578 397 2138 397 
Q 2388 397 2633 464 
Q 2878 531 3122 666 
L 3122 134 
Q 2881 22 2623 -34 
Q 2366 -91 2075 -91 
Q 1284 -91 818 406 
Q 353 903 353 1747 
Q 353 2603 823 3093 
Q 1294 3584 2113 3584 
Q 2378 3584 2631 3529 
Q 2884 3475 3122 3366 
z
" transform="scale(0.015625)"/>
       </defs>
       <use xlink:href="#DejaVuSans-53"/>
       <use xlink:href="#DejaVuSans-61" x="63.476562"/>
       <use xlink:href="#DejaVuSans-6c" x="124.755859"/>
       <use xlink:href="#DejaVuSans-6d" x="152.539062"/>
       <use xlink:href="#DejaVuSans-6f" x="249.951172"/>
       <use xlink:href="#DejaVuSans-6e" x="311.132812"/>
       <use xlink:href="#DejaVuSans-65" x="374.511719"/>
       <use xlink:href="#DejaVuSans-6c" x="436.035156"/>
       <use xlink:href="#DejaVuSans-6c" x="463.818359"/>
       <use xlink:href="#DejaVuSans-61" x="491.601562"/>
       <use xlink:href="#DejaVuSans-20" x="552.880859"/>
       <use xlink:href="#DejaVuSans-65" x="584.667969"/>
       <use xlink:href="#DejaVuSans-6e" x="646.191406"/>
       <use xlink:href="#DejaVuSans-74" x="709.570312"/>
       <use xlink:href="#DejaVuSans-65" x="748.779297"/>
       <use xlink:href="#DejaVuSans-72" x="810.302734"/>
       <use xlink:href="#DejaVuSans-69" x="851.416016"/>
       <use xlink:href="#DejaVuSans-63" x="879.199219"/>
       <use xlink:href="#DejaVuSans-61" x="934.179688"/>
      </g>
     </g>
    </g>
    <g id="xtick_2">
     <g id="text_2">
      <!-- Campylobacter jejuni -->
      <g style="fill: #262626" transform="translate(266.856406 325.442281) scale(0.11 -0.11)">
       <defs>
        <path id="DejaVuSans-43" d="M 4122 4306 
L 4122 3641 
Q 3803 3938 3442 4084 
Q 3081 4231 2675 4231 
Q 1875 4231 1450 3742 
Q 1025 3253 1025 2328 
Q 1025 1406 1450 917 
Q 1875 428 2675 428 
Q 3081 428 3442 575 
Q 3803 722 4122 1019 
L 4122 359 
Q 3791 134 3420 21 
Q 3050 -91 2638 -91 
Q 1578 -91 968 557 
Q 359 1206 359 2328 
Q 359 3453 968 4101 
Q 1578 4750 2638 4750 
Q 3056 4750 3426 4639 
Q 3797 4528 4122 4306 
z
" transform="scale(0.015625)"/>
        <path id="DejaVuSans-70" d="M 1159 525 
L 1159 -1331 
L 581 -1331 
L 581 3500 
L 1159 3500 
L 1159 2969 
Q 1341 3281 1617 3432 
Q 1894 3584 2278 3584 
Q 2916 3584 3314 3078 
Q 3713 2572 3713 1747 
Q 3713 922 3314 415 
Q 2916 -91 2278 -91 
Q 1894 -91 1617 61 
Q 1341 213 1159 525 
z
M 3116 1747 
Q 3116 2381 2855 2742 
Q 2594 3103 2138 3103 
Q 1681 3103 1420 2742 
Q 1159 2381 1159 1747 
Q 1159 1113 1420 752 
Q 1681 391 2138 391 
Q 2594 391 2855 752 
Q 3116 1113 3116 1747 
z
" transform="scale(0.015625)"/>
        <path id="DejaVuSans-79" d="M 2059 -325 
Q 1816 -950 1584 -1140 
Q 1353 -1331 966 -1331 
L 506 -1331 
L 506 -850 
L 844 -850 
Q 1081 -850 1212 -737 
Q 1344 -625 1503 -206 
L 1606 56 
L 191 3500 
L 800 3500 
L 1894 763 
L 2988 3500 
L 3597 3500 
L 2059 -325 
z
" transform="scale(0.015625)"/>
        <path id="DejaVuSans-62" d="M 3116 1747 
Q 3116 2381 2855 2742 
Q 2594 3103 2138 3103 
Q 1681 3103 1420 2742 
Q 1159 2381 1159 1747 
Q 1159 1113 1420 752 
Q 1681 391 2138 391 
Q 2594 391 2855 752 
Q 3116 1113 3116 1747 
z
M 1159 2969 
Q 1341 3281 1617 3432 
Q 1894 3584 2278 3584 
Q 2916 3584 3314 3078 
Q 3713 2572 3713 1747 
Q 3713 922 3314 415 
Q 2916 -91 2278 -91 
Q 1894 -91 1617 61 
Q 1341 213 1159 525 
L 1159 0 
L 581 0 
L 581 4863 
L 1159 4863 
L 1159 2969 
z
" transform="scale(0.015625)"/>
        <path id="DejaVuSans-6a" d="M 603 3500 
L 1178 3500 
L 1178 -63 
Q 1178 -731 923 -1031 
Q 669 -1331 103 -1331 
L -116 -1331 
L -116 -844 
L 38 -844 
Q 366 -844 484 -692 
Q 603 -541 603 -63 
L 603 3500 
z
M 603 4863 
L 1178 4863 
L 1178 4134 
L 603 4134 
L 603 4863 
z
" transform="scale(0.015625)"/>
        <path id="DejaVuSans-75" d="M 544 1381 
L 544 3500 
L 1119 3500 
L 1119 1403 
Q 1119 906 1312 657 
Q 1506 409 1894 409 
Q 2359 409 2629 706 
Q 2900 1003 2900 1516 
L 2900 3500 
L 3475 3500 
L 3475 0 
L 2900 0 
L 2900 538 
Q 2691 219 2414 64 
Q 2138 -91 1772 -91 
Q 1169 -91 856 284 
Q 544 659 544 1381 
z
M 1991 3584 
L 1991 3584 
z
" transform="scale(0.015625)"/>
       </defs>
       <use xlink:href="#DejaVuSans-43"/>
       <use xlink:href="#DejaVuSans-61" x="69.824219"/>
       <use xlink:href="#DejaVuSans-6d" x="131.103516"/>
       <use xlink:href="#DejaVuSans-70" x="228.515625"/>
       <use xlink:href="#DejaVuSans-79" x="291.992188"/>
       <use xlink:href="#DejaVuSans-6c" x="351.171875"/>
       <use xlink:href="#DejaVuSans-6f" x="378.955078"/>
       <use xlink:href="#DejaVuSans-62" x="440.136719"/>
       <use xlink:href="#DejaVuSans-61" x="503.613281"/>
       <use xlink:href="#DejaVuSans-63" x="564.892578"/>
       <use xlink:href="#DejaVuSans-74" x="619.873047"/>
       <use xlink:href="#DejaVuSans-65" x="659.082031"/>
       <use xlink:href="#DejaVuSans-72" x="720.605469"/>
       <use xlink:href="#DejaVuSans-20" x="761.71875"/>
       <use xlink:href="#DejaVuSans-6a" x="793.505859"/>
       <use xlink:href="#DejaVuSans-65" x="821.289062"/>
       <use xlink:href="#DejaVuSans-6a" x="882.8125"/>
       <use xlink:href="#DejaVuSans-75" x="910.595703"/>
       <use xlink:href="#DejaVuSans-6e" x="973.974609"/>
       <use xlink:href="#DejaVuSans-69" x="1037.353516"/>
      </g>
     </g>
    </g>
   </g>
   <g id="matplotlib.axis_2">
    <g id="ytick_1">
     <g id="line2d_1">
      <path d="M 57.6 295.488 
L 414.72 295.488 
" clip-path="url(#p61686d6fb4)" style="fill: none; stroke: #ffffff; stroke-linecap: round"/>
     </g>
     <g id="text_3">
      <!-- 2 -->
      <g style="fill: #262626" transform="translate(41.10125 299.667141) scale(0.11 -0.11)">
       <defs>
        <path id="DejaVuSans-32" d="M 1228 531 
L 3431 531 
L 3431 0 
L 469 0 
L 469 531 
Q 828 903 1448 1529 
Q 2069 2156 2228 2338 
Q 2531 2678 2651 2914 
Q 2772 3150 2772 3378 
Q 2772 3750 2511 3984 
Q 2250 4219 1831 4219 
Q 1534 4219 1204 4116 
Q 875 4013 500 3803 
L 500 4441 
Q 881 4594 1212 4672 
Q 1544 4750 1819 4750 
Q 2544 4750 2975 4387 
Q 3406 4025 3406 3419 
Q 3406 3131 3298 2873 
Q 3191 2616 2906 2266 
Q 2828 2175 2409 1742 
Q 1991 1309 1228 531 
z
" transform="scale(0.015625)"/>
       </defs>
       <use xlink:href="#DejaVuSans-32"/>
      </g>
     </g>
    </g>
    <g id="ytick_2">
     <g id="line2d_2">
      <path d="M 57.6 251.502545 
L 414.72 251.502545 
" clip-path="url(#p61686d6fb4)" style="fill: none; stroke: #ffffff; stroke-linecap: round"/>
     </g>
     <g id="text_4">
      <!-- 4 -->
      <g style="fill: #262626" transform="translate(41.10125 255.681686) scale(0.11 -0.11)">
       <defs>
        <path id="DejaVuSans-34" d="M 2419 4116 
L 825 1625 
L 2419 1625 
L 2419 4116 
z
M 2253 4666 
L 3047 4666 
L 3047 1625 
L 3713 1625 
L 3713 1100 
L 3047 1100 
L 3047 0 
L 2419 0 
L 2419 1100 
L 313 1100 
L 313 1709 
L 2253 4666 
z
" transform="scale(0.015625)"/>
       </defs>
       <use xlink:href="#DejaVuSans-34"/>
      </g>
     </g>
    </g>
    <g id="ytick_3">
     <g id="line2d_3">
      <path d="M 57.6 207.517091 
L 414.72 207.517091 
" clip-path="url(#p61686d6fb4)" style="fill: none; stroke: #ffffff; stroke-linecap: round"/>
     </g>
     <g id="text_5">
      <!-- 6 -->
      <g style="fill: #262626" transform="translate(41.10125 211.696232) scale(0.11 -0.11)">
       <defs>
        <path id="DejaVuSans-36" d="M 2113 2584 
Q 1688 2584 1439 2293 
Q 1191 2003 1191 1497 
Q 1191 994 1439 701 
Q 1688 409 2113 409 
Q 2538 409 2786 701 
Q 3034 994 3034 1497 
Q 3034 2003 2786 2293 
Q 2538 2584 2113 2584 
z
M 3366 4563 
L 3366 3988 
Q 3128 4100 2886 4159 
Q 2644 4219 2406 4219 
Q 1781 4219 1451 3797 
Q 1122 3375 1075 2522 
Q 1259 2794 1537 2939 
Q 1816 3084 2150 3084 
Q 2853 3084 3261 2657 
Q 3669 2231 3669 1497 
Q 3669 778 3244 343 
Q 2819 -91 2113 -91 
Q 1303 -91 875 529 
Q 447 1150 447 2328 
Q 447 3434 972 4092 
Q 1497 4750 2381 4750 
Q 2619 4750 2861 4703 
Q 3103 4656 3366 4563 
z
" transform="scale(0.015625)"/>
       </defs>
       <use xlink:href="#DejaVuSans-36"/>
      </g>
     </g>
    </g>
    <g id="ytick_4">
     <g id="line2d_4">
      <path d="M 57.6 163.531636 
L 414.72 163.531636 
" clip-path="url(#p61686d6fb4)" style="fill: none; stroke: #ffffff; stroke-linecap: round"/>
     </g>
     <g id="text_6">
      <!-- 8 -->
      <g style="fill: #262626" transform="translate(41.10125 167.710777) scale(0.11 -0.11)">
       <defs>
        <path id="DejaVuSans-38" d="M 2034 2216 
Q 1584 2216 1326 1975 
Q 1069 1734 1069 1313 
Q 1069 891 1326 650 
Q 1584 409 2034 409 
Q 2484 409 2743 651 
Q 3003 894 3003 1313 
Q 3003 1734 2745 1975 
Q 2488 2216 2034 2216 
z
M 1403 2484 
Q 997 2584 770 2862 
Q 544 3141 544 3541 
Q 544 4100 942 4425 
Q 1341 4750 2034 4750 
Q 2731 4750 3128 4425 
Q 3525 4100 3525 3541 
Q 3525 3141 3298 2862 
Q 3072 2584 2669 2484 
Q 3125 2378 3379 2068 
Q 3634 1759 3634 1313 
Q 3634 634 3220 271 
Q 2806 -91 2034 -91 
Q 1263 -91 848 271 
Q 434 634 434 1313 
Q 434 1759 690 2068 
Q 947 2378 1403 2484 
z
M 1172 3481 
Q 1172 3119 1398 2916 
Q 1625 2713 2034 2713 
Q 2441 2713 2670 2916 
Q 2900 3119 2900 3481 
Q 2900 3844 2670 4047 
Q 2441 4250 2034 4250 
Q 1625 4250 1398 4047 
Q 1172 3844 1172 3481 
z
" transform="scale(0.015625)"/>
       </defs>
       <use xlink:href="#DejaVuSans-38"/>
      </g>
     </g>
    </g>
    <g id="ytick_5">
     <g id="line2d_5">
      <path d="M 57.6 119.546182 
L 414.72 119.546182 
" clip-path="url(#p61686d6fb4)" style="fill: none; stroke: #ffffff; stroke-linecap: round"/>
     </g>
     <g id="text_7">
      <!-- 10 -->
      <g style="fill: #262626" transform="translate(34.1025 123.725322) scale(0.11 -0.11)">
       <defs>
        <path id="DejaVuSans-31" d="M 794 531 
L 1825 531 
L 1825 4091 
L 703 3866 
L 703 4441 
L 1819 4666 
L 2450 4666 
L 2450 531 
L 3481 531 
L 3481 0 
L 794 0 
L 794 531 
z
" transform="scale(0.015625)"/>
        <path id="DejaVuSans-30" d="M 2034 4250 
Q 1547 4250 1301 3770 
Q 1056 3291 1056 2328 
Q 1056 1369 1301 889 
Q 1547 409 2034 409 
Q 2525 409 2770 889 
Q 3016 1369 3016 2328 
Q 3016 3291 2770 3770 
Q 2525 4250 2034 4250 
z
M 2034 4750 
Q 2819 4750 3233 4129 
Q 3647 3509 3647 2328 
Q 3647 1150 3233 529 
Q 2819 -91 2034 -91 
Q 1250 -91 836 529 
Q 422 1150 422 2328 
Q 422 3509 836 4129 
Q 1250 4750 2034 4750 
z
" transform="scale(0.015625)"/>
       </defs>
       <use xlink:href="#DejaVuSans-31"/>
       <use xlink:href="#DejaVuSans-30" x="63.623047"/>
      </g>
     </g>
    </g>
    <g id="ytick_6">
     <g id="line2d_6">
      <path d="M 57.6 75.560727 
L 414.72 75.560727 
" clip-path="url(#p61686d6fb4)" style="fill: none; stroke: #ffffff; stroke-linecap: round"/>
     </g>
     <g id="text_8">
      <!-- 12 -->
      <g style="fill: #262626" transform="translate(34.1025 79.739868) scale(0.11 -0.11)">
       <use xlink:href="#DejaVuSans-31"/>
       <use xlink:href="#DejaVuSans-32" x="63.623047"/>
      </g>
     </g>
    </g>
    <g id="text_9">
     <!-- Number of Identified AMR Genes -->
     <g style="fill: #262626" transform="translate(27.606875 272.825812) rotate(-90) scale(0.12 -0.12)">
      <defs>
       <path id="DejaVuSans-4e" d="M 628 4666 
L 1478 4666 
L 3547 763 
L 3547 4666 
L 4159 4666 
L 4159 0 
L 3309 0 
L 1241 3903 
L 1241 0 
L 628 0 
L 628 4666 
z
" transform="scale(0.015625)"/>
       <path id="DejaVuSans-66" d="M 2375 4863 
L 2375 4384 
L 1825 4384 
Q 1516 4384 1395 4259 
Q 1275 4134 1275 3809 
L 1275 3500 
L 2222 3500 
L 2222 3053 
L 1275 3053 
L 1275 0 
L 697 0 
L 697 3053 
L 147 3053 
L 147 3500 
L 697 3500 
L 697 3744 
Q 697 4328 969 4595 
Q 1241 4863 1831 4863 
L 2375 4863 
z
" transform="scale(0.015625)"/>
       <path id="DejaVuSans-49" d="M 628 4666 
L 1259 4666 
L 1259 0 
L 628 0 
L 628 4666 
z
" transform="scale(0.015625)"/>
       <path id="DejaVuSans-64" d="M 2906 2969 
L 2906 4863 
L 3481 4863 
L 3481 0 
L 2906 0 
L 2906 525 
Q 2725 213 2448 61 
Q 2172 -91 1784 -91 
Q 1150 -91 751 415 
Q 353 922 353 1747 
Q 353 2572 751 3078 
Q 1150 3584 1784 3584 
Q 2172 3584 2448 3432 
Q 2725 3281 2906 2969 
z
M 947 1747 
Q 947 1113 1208 752 
Q 1469 391 1925 391 
Q 2381 391 2643 752 
Q 2906 1113 2906 1747 
Q 2906 2381 2643 2742 
Q 2381 3103 1925 3103 
Q 1469 3103 1208 2742 
Q 947 2381 947 1747 
z
" transform="scale(0.015625)"/>
       <path id="DejaVuSans-41" d="M 2188 4044 
L 1331 1722 
L 3047 1722 
L 2188 4044 
z
M 1831 4666 
L 2547 4666 
L 4325 0 
L 3669 0 
L 3244 1197 
L 1141 1197 
L 716 0 
L 50 0 
L 1831 4666 
z
" transform="scale(0.015625)"/>
       <path id="DejaVuSans-4d" d="M 628 4666 
L 1569 4666 
L 2759 1491 
L 3956 4666 
L 4897 4666 
L 4897 0 
L 4281 0 
L 4281 4097 
L 3078 897 
L 2444 897 
L 1241 4097 
L 1241 0 
L 628 0 
L 628 4666 
z
" transform="scale(0.015625)"/>
       <path id="DejaVuSans-52" d="M 2841 2188 
Q 3044 2119 3236 1894 
Q 3428 1669 3622 1275 
L 4263 0 
L 3584 0 
L 2988 1197 
Q 2756 1666 2539 1819 
Q 2322 1972 1947 1972 
L 1259 1972 
L 1259 0 
L 628 0 
L 628 4666 
L 2053 4666 
Q 2853 4666 3247 4331 
Q 3641 3997 3641 3322 
Q 3641 2881 3436 2590 
Q 3231 2300 2841 2188 
z
M 1259 4147 
L 1259 2491 
L 2053 2491 
Q 2509 2491 2742 2702 
Q 2975 2913 2975 3322 
Q 2975 3731 2742 3939 
Q 2509 4147 2053 4147 
L 1259 4147 
z
" transform="scale(0.015625)"/>
       <path id="DejaVuSans-47" d="M 3809 666 
L 3809 1919 
L 2778 1919 
L 2778 2438 
L 4434 2438 
L 4434 434 
Q 4069 175 3628 42 
Q 3188 -91 2688 -91 
Q 1594 -91 976 548 
Q 359 1188 359 2328 
Q 359 3472 976 4111 
Q 1594 4750 2688 4750 
Q 3144 4750 3555 4637 
Q 3966 4525 4313 4306 
L 4313 3634 
Q 3963 3931 3569 4081 
Q 3175 4231 2741 4231 
Q 1884 4231 1454 3753 
Q 1025 3275 1025 2328 
Q 1025 1384 1454 906 
Q 1884 428 2741 428 
Q 3075 428 3337 486 
Q 3600 544 3809 666 
z
" transform="scale(0.015625)"/>
       <path id="DejaVuSans-73" d="M 2834 3397 
L 2834 2853 
Q 2591 2978 2328 3040 
Q 2066 3103 1784 3103 
Q 1356 3103 1142 2972 
Q 928 2841 928 2578 
Q 928 2378 1081 2264 
Q 1234 2150 1697 2047 
L 1894 2003 
Q 2506 1872 2764 1633 
Q 3022 1394 3022 966 
Q 3022 478 2636 193 
Q 2250 -91 1575 -91 
Q 1294 -91 989 -36 
Q 684 19 347 128 
L 347 722 
Q 666 556 975 473 
Q 1284 391 1588 391 
Q 1994 391 2212 530 
Q 2431 669 2431 922 
Q 2431 1156 2273 1281 
Q 2116 1406 1581 1522 
L 1381 1569 
Q 847 1681 609 1914 
Q 372 2147 372 2553 
Q 372 3047 722 3315 
Q 1072 3584 1716 3584 
Q 2034 3584 2315 3537 
Q 2597 3491 2834 3397 
z
" transform="scale(0.015625)"/>
      </defs>
      <use xlink:href="#DejaVuSans-4e"/>
      <use xlink:href="#DejaVuSans-75" x="74.804688"/>
      <use xlink:href="#DejaVuSans-6d" x="138.183594"/>
      <use xlink:href="#DejaVuSans-62" x="235.595703"/>
      <use xlink:href="#DejaVuSans-65" x="299.072266"/>
      <use xlink:href="#DejaVuSans-72" x="360.595703"/>
      <use xlink:href="#DejaVuSans-20" x="401.708984"/>
      <use xlink:href="#DejaVuSans-6f" x="433.496094"/>
      <use xlink:href="#DejaVuSans-66" x="494.677734"/>
      <use xlink:href="#DejaVuSans-20" x="529.882812"/>
      <use xlink:href="#DejaVuSans-49" x="561.669922"/>
      <use xlink:href="#DejaVuSans-64" x="591.162109"/>
      <use xlink:href="#DejaVuSans-65" x="654.638672"/>
      <use xlink:href="#DejaVuSans-6e" x="716.162109"/>
      <use xlink:href="#DejaVuSans-74" x="779.541016"/>
      <use xlink:href="#DejaVuSans-69" x="818.75"/>
      <use xlink:href="#DejaVuSans-66" x="846.533203"/>
      <use xlink:href="#DejaVuSans-69" x="881.738281"/>
      <use xlink:href="#DejaVuSans-65" x="909.521484"/>
      <use xlink:href="#DejaVuSans-64" x="971.044922"/>
      <use xlink:href="#DejaVuSans-20" x="1034.521484"/>
      <use xlink:href="#DejaVuSans-41" x="1066.308594"/>
      <use xlink:href="#DejaVuSans-4d" x="1134.716797"/>
      <use xlink:href="#DejaVuSans-52" x="1220.996094"/>
      <use xlink:href="#DejaVuSans-20" x="1290.478516"/>
      <use xlink:href="#DejaVuSans-47" x="1322.265625"/>
      <use xlink:href="#DejaVuSans-65" x="1399.755859"/>
      <use xlink:href="#DejaVuSans-6e" x="1461.279297"/>
      <use xlink:href="#DejaVuSans-65" x="1524.658203"/>
      <use xlink:href="#DejaVuSans-73" x="1586.181641"/>
     </g>
    </g>
   </g>
   <g id="PolyCollection_1">
    <path d="M 149.225906 367.517045 
L 144.534094 367.517045 
L 143.982794 363.618277 
L 143.343169 359.719508 
L 142.611926 355.820739 
L 141.7884 351.921971 
L 140.87505 348.023202 
L 139.877806 344.124434 
L 138.806237 340.225665 
L 137.673461 336.326896 
L 136.495758 332.428128 
L 135.291875 328.529359 
L 134.081989 324.630591 
L 132.886395 320.731822 
L 131.723941 316.833054 
L 130.610333 312.934285 
L 129.556411 309.035516 
L 128.566537 305.136748 
L 127.637265 301.237979 
L 126.756424 297.339211 
L 125.902759 293.440442 
L 125.046254 289.541673 
L 124.149173 285.642905 
L 123.167865 281.744136 
L 122.055269 277.845368 
L 120.764017 273.946599 
L 119.249964 270.04783 
L 117.475924 266.149062 
L 115.415349 262.250293 
L 113.055664 258.351525 
L 110.400976 254.452756 
L 107.473883 250.553987 
L 104.31619 246.655219 
L 100.988363 242.75645 
L 97.567686 238.857682 
L 94.145162 234.958913 
L 90.821298 231.060145 
L 87.701046 227.161376 
L 84.888211 223.262607 
L 82.479726 219.363839 
L 80.560202 215.46507 
L 79.19717 211.566302 
L 78.437342 207.667533 
L 78.304192 203.768764 
L 78.797009 199.869996 
L 79.891464 195.971227 
L 81.541619 192.072459 
L 83.683175 188.17369 
L 86.237668 184.274921 
L 89.117261 180.376153 
L 92.22975 176.477384 
L 95.483401 172.578616 
L 98.791298 168.679847 
L 102.074927 164.781079 
L 105.266827 160.88231 
L 108.312231 156.983541 
L 111.1697 153.084773 
L 113.810868 149.186004 
L 116.219424 145.287236 
L 118.389571 141.388467 
L 120.324137 137.489698 
L 122.03258 133.59093 
L 123.529051 129.692161 
L 124.83067 125.793393 
L 125.956105 121.894624 
L 126.924504 117.995855 
L 127.754792 114.097087 
L 128.465275 110.198318 
L 129.073513 106.29955 
L 129.59636 102.400781 
L 130.050096 98.502013 
L 130.45057 94.603244 
L 130.813289 90.704475 
L 131.153405 86.805707 
L 131.485579 82.906938 
L 131.823733 79.00817 
L 132.180688 75.109401 
L 132.567754 71.210632 
L 132.994295 67.311864 
L 133.46733 63.413095 
L 133.991223 59.514327 
L 134.567483 55.615558 
L 135.194728 51.716789 
L 135.868793 47.818021 
L 136.583004 43.919252 
L 137.328589 40.020484 
L 138.095194 36.121715 
L 138.87147 32.222946 
L 139.645681 28.324178 
L 140.406306 24.425409 
L 141.142575 20.526641 
L 141.844925 16.627872 
L 142.505342 12.729104 
L 143.117589 8.830335 
L 143.677307 4.931566 
L 144.182004 1.032798 
L 144.630944 -2.865971 
L 145.02496 -6.764739 
L 145.36621 -10.663508 
L 145.657902 -14.562277 
L 145.904006 -18.461045 
L 147.855994 -18.461045 
L 147.855994 -18.461045 
L 148.102098 -14.562277 
L 148.39379 -10.663508 
L 148.73504 -6.764739 
L 149.129056 -2.865971 
L 149.577996 1.032798 
L 150.082693 4.931566 
L 150.642411 8.830335 
L 151.254658 12.729104 
L 151.915075 16.627872 
L 152.617425 20.526641 
L 153.353694 24.425409 
L 154.114319 28.324178 
L 154.88853 32.222946 
L 155.664806 36.121715 
L 156.431411 40.020484 
L 157.176996 43.919252 
L 157.891207 47.818021 
L 158.565272 51.716789 
L 159.192517 55.615558 
L 159.768777 59.514327 
L 160.29267 63.413095 
L 160.765705 67.311864 
L 161.192246 71.210632 
L 161.579312 75.109401 
L 161.936267 79.00817 
L 162.274421 82.906938 
L 162.606595 86.805707 
L 162.946711 90.704475 
L 163.30943 94.603244 
L 163.709904 98.502013 
L 164.16364 102.400781 
L 164.686487 106.29955 
L 165.294725 110.198318 
L 166.005208 114.097087 
L 166.835496 117.995855 
L 167.803895 121.894624 
L 168.92933 125.793393 
L 170.230949 129.692161 
L 171.72742 133.59093 
L 173.435863 137.489698 
L 175.370429 141.388467 
L 177.540576 145.287236 
L 179.949132 149.186004 
L 182.5903 153.084773 
L 185.447769 156.983541 
L 188.493173 160.88231 
L 191.685073 164.781079 
L 194.968702 168.679847 
L 198.276599 172.578616 
L 201.53025 176.477384 
L 204.642739 180.376153 
L 207.522332 184.274921 
L 210.076825 188.17369 
L 212.218381 192.072459 
L 213.868536 195.971227 
L 214.962991 199.869996 
L 215.455808 203.768764 
L 215.322658 207.667533 
L 214.56283 211.566302 
L 213.199798 215.46507 
L 211.280274 219.363839 
L 208.871789 223.262607 
L 206.058954 227.161376 
L 202.938702 231.060145 
L 199.614838 234.958913 
L 196.192314 238.857682 
L 192.771637 242.75645 
L 189.44381 246.655219 
L 186.286117 250.553987 
L 183.359024 254.452756 
L 180.704336 258.351525 
L 178.344651 262.250293 
L 176.284076 266.149062 
L 174.510036 270.04783 
L 172.995983 273.946599 
L 171.704731 277.845368 
L 170.592135 281.744136 
L 169.610827 285.642905 
L 168.713746 289.541673 
L 167.857241 293.440442 
L 167.003576 297.339211 
L 166.122735 301.237979 
L 165.193463 305.136748 
L 164.203589 309.035516 
L 163.149667 312.934285 
L 162.036059 316.833054 
L 160.873605 320.731822 
L 159.678011 324.630591 
L 158.468125 328.529359 
L 157.264242 332.428128 
L 156.086539 336.326896 
L 154.953763 340.225665 
L 153.882194 344.124434 
L 152.88495 348.023202 
L 151.9716 351.921971 
L 151.148074 355.820739 
L 150.416831 359.719508 
L 149.777206 363.618277 
L 149.225906 367.517045 
z
" clip-path="url(#p61686d6fb4)" style="fill: #5875a4; stroke: #4c4c4c; stroke-width: 1.5"/>
   </g>
   <g id="PolyCollection_2">
    <path d="M 328.60701 378.549307 
L 322.27299 378.549307 
L 321.596628 374.427665 
L 320.821532 370.306022 
L 319.944516 366.184379 
L 318.965049 362.062737 
L 317.885781 357.941094 
L 316.712996 353.819452 
L 315.456949 349.697809 
L 314.132048 345.576167 
L 312.75685 341.454524 
L 311.353833 337.332881 
L 309.948943 333.211239 
L 308.570904 329.089596 
L 307.250318 324.967954 
L 306.018583 320.846311 
L 304.906675 316.724669 
L 303.943875 312.603026 
L 303.156488 308.481383 
L 302.566655 304.359741 
L 302.191318 300.238098 
L 302.04141 296.116456 
L 302.121326 291.994813 
L 302.428708 287.873171 
L 302.954556 283.751528 
L 303.683661 279.629885 
L 304.595334 275.508243 
L 305.664366 271.3866 
L 306.862173 267.264958 
L 308.158043 263.143315 
L 309.520405 259.021673 
L 310.918048 254.90003 
L 312.321215 250.778388 
L 313.702531 246.656745 
L 315.037698 242.535102 
L 316.305959 238.41346 
L 317.490301 234.291817 
L 318.577419 230.170175 
L 319.557458 226.048532 
L 320.423559 221.92689 
L 321.171254 217.805247 
L 321.797757 213.683604 
L 322.30118 209.561962 
L 322.679746 205.440319 
L 322.931005 201.318677 
L 323.051134 197.197034 
L 323.034327 193.075392 
L 322.872329 188.953749 
L 322.554135 184.832106 
L 322.0659 180.710464 
L 321.391066 176.588821 
L 320.510748 172.467179 
L 319.404377 168.345536 
L 318.050619 164.223894 
L 316.428548 160.102251 
L 314.51906 155.980608 
L 312.306479 151.858966 
L 309.780288 147.737323 
L 306.93691 143.615681 
L 303.781424 139.494038 
L 300.329108 135.372396 
L 296.606681 131.250753 
L 292.653108 127.12911 
L 288.519879 123.007468 
L 284.270636 118.885825 
L 279.980123 114.764183 
L 275.732416 110.64254 
L 271.618469 106.520898 
L 267.733071 102.399255 
L 264.17133 98.277612 
L 261.024868 94.15597 
L 258.377941 90.034327 
L 256.303701 85.912685 
L 254.860842 81.791042 
L 254.090847 77.6694 
L 254.016 73.547757 
L 254.638322 69.426115 
L 255.939478 65.304472 
L 257.881673 61.182829 
L 260.409478 57.061187 
L 263.45246 52.939544 
L 266.928433 48.817902 
L 270.747139 44.696259 
L 274.814117 40.574617 
L 279.034526 36.452974 
L 283.316731 32.331331 
L 287.575443 28.209689 
L 291.734292 24.088046 
L 295.727743 19.966404 
L 299.502302 15.844761 
L 303.017045 11.723119 
L 306.2435 7.601476 
L 309.16499 3.479833 
L 311.775528 -0.641809 
L 314.078406 -4.763452 
L 316.084586 -8.885094 
L 317.811015 -13.006737 
L 319.27897 -17.128379 
L 320.512512 -21.250022 
L 321.537109 -25.371665 
L 322.378465 -29.493307 
L 328.501535 -29.493307 
L 328.501535 -29.493307 
L 329.342891 -25.371665 
L 330.367488 -21.250022 
L 331.60103 -17.128379 
L 333.068985 -13.006737 
L 334.795414 -8.885094 
L 336.801594 -4.763452 
L 339.104472 -0.641809 
L 341.71501 3.479833 
L 344.6365 7.601476 
L 347.862955 11.723119 
L 351.377698 15.844761 
L 355.152257 19.966404 
L 359.145708 24.088046 
L 363.304557 28.209689 
L 367.563269 32.331331 
L 371.845474 36.452974 
L 376.065883 40.574617 
L 380.132861 44.696259 
L 383.951567 48.817902 
L 387.42754 52.939544 
L 390.470522 57.061187 
L 392.998327 61.182829 
L 394.940522 65.304472 
L 396.241678 69.426115 
L 396.864 73.547757 
L 396.789153 77.6694 
L 396.019158 81.791042 
L 394.576299 85.912685 
L 392.502059 90.034327 
L 389.855132 94.15597 
L 386.70867 98.277612 
L 383.146929 102.399255 
L 379.261531 106.520898 
L 375.147584 110.64254 
L 370.899877 114.764183 
L 366.609364 118.885825 
L 362.360121 123.007468 
L 358.226892 127.12911 
L 354.273319 131.250753 
L 350.550892 135.372396 
L 347.098576 139.494038 
L 343.94309 143.615681 
L 341.099712 147.737323 
L 338.573521 151.858966 
L 336.36094 155.980608 
L 334.451452 160.102251 
L 332.829381 164.223894 
L 331.475623 168.345536 
L 330.369252 172.467179 
L 329.488934 176.588821 
L 328.8141 180.710464 
L 328.325865 184.832106 
L 328.007671 188.953749 
L 327.845673 193.075392 
L 327.828866 197.197034 
L 327.948995 201.318677 
L 328.200254 205.440319 
L 328.57882 209.561962 
L 329.082243 213.683604 
L 329.708746 217.805247 
L 330.456441 221.92689 
L 331.322542 226.048532 
L 332.302581 230.170175 
L 333.389699 234.291817 
L 334.574041 238.41346 
L 335.842302 242.535102 
L 337.177469 246.656745 
L 338.558785 250.778388 
L 339.961952 254.90003 
L 341.359595 259.021673 
L 342.721957 263.143315 
L 344.017827 267.264958 
L 345.215634 271.3866 
L 346.284666 275.508243 
L 347.196339 279.629885 
L 347.925444 283.751528 
L 348.451292 287.873171 
L 348.758674 291.994813 
L 348.83859 296.116456 
L 348.688682 300.238098 
L 348.313345 304.359741 
L 347.723512 308.481383 
L 346.936125 312.603026 
L 345.973325 316.724669 
L 344.861417 320.846311 
L 343.629682 324.967954 
L 342.309096 329.089596 
L 340.931057 333.211239 
L 339.526167 337.332881 
L 338.12315 341.454524 
L 336.747952 345.576167 
L 335.423051 349.697809 
L 334.167004 353.819452 
L 332.994219 357.941094 
L 331.914951 362.062737 
L 330.935484 366.184379 
L 330.058468 370.306022 
L 329.283372 374.427665 
L 328.60701 378.549307 
z
" clip-path="url(#p61686d6fb4)" style="fill: #cc8963; stroke: #4c4c4c; stroke-width: 1.5"/>
   </g>
   <g id="line2d_7">
    <path d="M 146.88 207.517091 
L 146.88 163.531636 
" clip-path="url(#p61686d6fb4)" style="fill: none; stroke: #4c4c4c; stroke-width: 1.5; stroke-linecap: round"/>
   </g>
   <g id="line2d_8">
    <path d="M 146.88 207.517091 
L 146.88 185.524364 
" clip-path="url(#p61686d6fb4)" style="fill: none; stroke: #4c4c4c; stroke-width: 4.5; stroke-linecap: round"/>
   </g>
   <g id="line2d_9">
    <path d="M 325.44 75.560727 
L 325.44 75.560727 
" clip-path="url(#p61686d6fb4)" style="fill: none; stroke: #4c4c4c; stroke-width: 1.5; stroke-linecap: round"/>
   </g>
   <g id="line2d_10">
    <path d="M 325.44 75.560727 
L 325.44 75.560727 
" clip-path="url(#p61686d6fb4)" style="fill: none; stroke: #4c4c4c; stroke-width: 4.5; stroke-linecap: round"/>
   </g>
   <g id="patch_3">
    <path d="M 57.6 307.584 
L 57.6 41.472 
" style="fill: none; stroke: #ffffff; stroke-width: 1.25; stroke-linejoin: miter; stroke-linecap: square"/>
   </g>
   <g id="patch_4">
    <path d="M 414.72 307.584 
L 414.72 41.472 
" style="fill: none; stroke: #ffffff; stroke-width: 1.25; stroke-linejoin: miter; stroke-linecap: square"/>
   </g>
   <g id="patch_5">
    <path d="M 57.6 307.584 
L 414.72 307.584 
" style="fill: none; stroke: #ffffff; stroke-width: 1.25; stroke-linejoin: miter; stroke-linecap: square"/>
   </g>
   <g id="patch_6">
    <path d="M 57.6 41.472 
L 414.72 41.472 
" style="fill: none; stroke: #ffffff; stroke-width: 1.25; stroke-linejoin: miter; stroke-linecap: square"/>
   </g>
   <g id="PathCollection_1">
    <defs>
     <path id="me14393c3d4" d="M 0 1.5 
C 0.397805 1.5 0.77937 1.341951 1.06066 1.06066 
C 1.341951 0.77937 1.5 0.397805 1.5 0 
C 1.5 -0.397805 1.341951 -0.77937 1.06066 -1.06066 
C 0.77937 -1.341951 0.397805 -1.5 0 -1.5 
C -0.397805 -1.5 -0.77937 -1.341951 -1.06066 -1.06066 
C -1.341951 -0.77937 -1.5 -0.397805 -1.5 0 
C -1.5 0.397805 -1.341951 0.77937 -1.06066 1.06066 
C -0.77937 1.341951 -0.397805 1.5 0 1.5 
z
" style="stroke: #4c4c4c"/>
    </defs>
    <g clip-path="url(#p61686d6fb4)">
     <use xlink:href="#me14393c3d4" x="146.88" y="207.517091" style="fill: #ffffff; stroke: #4c4c4c"/>
    </g>
   </g>
   <g id="PathCollection_2">
    <g clip-path="url(#p61686d6fb4)">
     <use xlink:href="#me14393c3d4" x="325.44" y="75.560727" style="fill: #ffffff; stroke: #4c4c4c"/>
    </g>
   </g>
   <g id="PathCollection_3">
    <defs>
     <path id="mb01bc0f4a7" d="M 0 2.5 
C 0.663008 2.5 1.29895 2.236584 1.767767 1.767767 
C 2.236584 1.29895 2.5 0.663008 2.5 0 
C 2.5 -0.663008 2.236584 -1.29895 1.767767 -1.767767 
C 1.29895 -2.236584 0.663008 -2.5 0 -2.5 
C -0.663008 -2.5 -1.29895 -2.236584 -1.767767 -1.767767 
C -2.236584 -1.29895 -2.5 -0.663008 -2.5 0 
C -2.5 0.663008 -2.236584 1.29895 -1.767767 1.767767 
C -1.29895 2.236584 -0.663008 2.5 0 2.5 
z
"/>
    </defs>
    <g clip-path="url(#p61686d6fb4)">
     <use xlink:href="#mb01bc0f4a7" x="131.13" y="207.517091" style="fill: #ffffff"/>
     <use xlink:href="#mb01bc0f4a7" x="146.88" y="163.531636" style="fill: #ffffff"/>
     <use xlink:href="#mb01bc0f4a7" x="146.88" y="75.560727" style="fill: #ffffff"/>
     <use xlink:href="#mb01bc0f4a7" x="146.88" y="53.568" style="fill: #ffffff"/>
     <use xlink:href="#mb01bc0f4a7" x="120.63" y="207.517091" style="fill: #ffffff"/>
     <use xlink:href="#mb01bc0f4a7" x="167.88" y="207.517091" style="fill: #ffffff"/>
     <use xlink:href="#mb01bc0f4a7" x="125.88" y="207.517091" style="fill: #ffffff"/>
     <use xlink:href="#mb01bc0f4a7" x="162.63" y="207.517091" style="fill: #ffffff"/>
     <use xlink:href="#mb01bc0f4a7" x="146.88" y="141.538909" style="fill: #ffffff"/>
     <use xlink:href="#mb01bc0f4a7" x="173.13" y="207.517091" style="fill: #ffffff"/>
     <use xlink:href="#mb01bc0f4a7" x="146.88" y="119.546182" style="fill: #ffffff"/>
     <use xlink:href="#mb01bc0f4a7" x="157.38" y="207.517091" style="fill: #ffffff"/>
     <use xlink:href="#mb01bc0f4a7" x="136.38" y="207.517091" style="fill: #ffffff"/>
     <use xlink:href="#mb01bc0f4a7" x="152.13" y="207.517091" style="fill: #ffffff"/>
     <use xlink:href="#mb01bc0f4a7" x="141.63" y="207.517091" style="fill: #ffffff"/>
     <use xlink:href="#mb01bc0f4a7" x="146.88" y="207.517091" style="fill: #ffffff"/>
     <use xlink:href="#mb01bc0f4a7" x="141.63" y="295.488" style="fill: #ffffff"/>
     <use xlink:href="#mb01bc0f4a7" x="152.13" y="295.488" style="fill: #ffffff"/>
     <use xlink:href="#mb01bc0f4a7" x="146.88" y="295.488" style="fill: #ffffff"/>
    </g>
   </g>
   <g id="PathCollection_4">
    <g clip-path="url(#p61686d6fb4)">
     <use xlink:href="#mb01bc0f4a7" x="283.44" y="75.560727" style="fill: #ffffff"/>
     <use xlink:href="#mb01bc0f4a7" x="278.19" y="75.560727" style="fill: #ffffff"/>
     <use xlink:href="#mb01bc0f4a7" x="372.69" y="75.560727" style="fill: #ffffff"/>
     <use xlink:href="#mb01bc0f4a7" x="272.94" y="75.560727" style="fill: #ffffff"/>
     <use xlink:href="#mb01bc0f4a7" x="377.94" y="75.560727" style="fill: #ffffff"/>
     <use xlink:href="#mb01bc0f4a7" x="267.69" y="75.560727" style="fill: #ffffff"/>
     <use xlink:href="#mb01bc0f4a7" x="383.19" y="75.560727" style="fill: #ffffff"/>
     <use xlink:href="#mb01bc0f4a7" x="262.44" y="75.560727" style="fill: #ffffff"/>
     <use xlink:href="#mb01bc0f4a7" x="388.44" y="75.560727" style="fill: #ffffff"/>
     <use xlink:href="#mb01bc0f4a7" x="257.19" y="75.560727" style="fill: #ffffff"/>
     <use xlink:href="#mb01bc0f4a7" x="393.69" y="75.560727" style="fill: #ffffff"/>
     <use xlink:href="#mb01bc0f4a7" x="254.016" y="75.560727" style="fill: #ffffff"/>
     <use xlink:href="#mb01bc0f4a7" x="396.864" y="75.560727" style="fill: #ffffff"/>
     <use xlink:href="#mb01bc0f4a7" x="254.016" y="75.560727" style="fill: #ffffff"/>
     <use xlink:href="#mb01bc0f4a7" x="396.864" y="75.560727" style="fill: #ffffff"/>
     <use xlink:href="#mb01bc0f4a7" x="396.864" y="75.560727" style="fill: #ffffff"/>
     <use xlink:href="#mb01bc0f4a7" x="396.864" y="75.560727" style="fill: #ffffff"/>
     <use xlink:href="#mb01bc0f4a7" x="254.016" y="75.560727" style="fill: #ffffff"/>
     <use xlink:href="#mb01bc0f4a7" x="396.864" y="75.560727" style="fill: #ffffff"/>
     <use xlink:href="#mb01bc0f4a7" x="254.016" y="75.560727" style="fill: #ffffff"/>
     <use xlink:href="#mb01bc0f4a7" x="396.864" y="75.560727" style="fill: #ffffff"/>
     <use xlink:href="#mb01bc0f4a7" x="254.016" y="75.560727" style="fill: #ffffff"/>
     <use xlink:href="#mb01bc0f4a7" x="396.864" y="75.560727" style="fill: #ffffff"/>
     <use xlink:href="#mb01bc0f4a7" x="254.016" y="75.560727" style="fill: #ffffff"/>
     <use xlink:href="#mb01bc0f4a7" x="396.864" y="75.560727" style="fill: #ffffff"/>
     <use xlink:href="#mb01bc0f4a7" x="254.016" y="75.560727" style="fill: #ffffff"/>
     <use xlink:href="#mb01bc0f4a7" x="396.864" y="75.560727" style="fill: #ffffff"/>
     <use xlink:href="#mb01bc0f4a7" x="254.016" y="75.560727" style="fill: #ffffff"/>
     <use xlink:href="#mb01bc0f4a7" x="396.864" y="75.560727" style="fill: #ffffff"/>
     <use xlink:href="#mb01bc0f4a7" x="254.016" y="75.560727" style="fill: #ffffff"/>
     <use xlink:href="#mb01bc0f4a7" x="367.44" y="75.560727" style="fill: #ffffff"/>
     <use xlink:href="#mb01bc0f4a7" x="254.016" y="75.560727" style="fill: #ffffff"/>
     <use xlink:href="#mb01bc0f4a7" x="254.016" y="75.560727" style="fill: #ffffff"/>
     <use xlink:href="#mb01bc0f4a7" x="356.94" y="75.560727" style="fill: #ffffff"/>
     <use xlink:href="#mb01bc0f4a7" x="325.44" y="75.560727" style="fill: #ffffff"/>
     <use xlink:href="#mb01bc0f4a7" x="320.19" y="75.560727" style="fill: #ffffff"/>
     <use xlink:href="#mb01bc0f4a7" x="330.69" y="75.560727" style="fill: #ffffff"/>
     <use xlink:href="#mb01bc0f4a7" x="314.94" y="75.560727" style="fill: #ffffff"/>
     <use xlink:href="#mb01bc0f4a7" x="335.94" y="75.560727" style="fill: #ffffff"/>
     <use xlink:href="#mb01bc0f4a7" x="309.69" y="75.560727" style="fill: #ffffff"/>
     <use xlink:href="#mb01bc0f4a7" x="288.69" y="75.560727" style="fill: #ffffff"/>
     <use xlink:href="#mb01bc0f4a7" x="304.44" y="75.560727" style="fill: #ffffff"/>
     <use xlink:href="#mb01bc0f4a7" x="325.44" y="53.568" style="fill: #ffffff"/>
     <use xlink:href="#mb01bc0f4a7" x="346.44" y="75.560727" style="fill: #ffffff"/>
     <use xlink:href="#mb01bc0f4a7" x="341.19" y="75.560727" style="fill: #ffffff"/>
     <use xlink:href="#mb01bc0f4a7" x="299.19" y="75.560727" style="fill: #ffffff"/>
     <use xlink:href="#mb01bc0f4a7" x="351.69" y="75.560727" style="fill: #ffffff"/>
     <use xlink:href="#mb01bc0f4a7" x="293.94" y="75.560727" style="fill: #ffffff"/>
     <use xlink:href="#mb01bc0f4a7" x="362.19" y="75.560727" style="fill: #ffffff"/>
     <use xlink:href="#mb01bc0f4a7" x="320.19" y="295.488" style="fill: #ffffff"/>
     <use xlink:href="#mb01bc0f4a7" x="330.69" y="295.488" style="fill: #ffffff"/>
     <use xlink:href="#mb01bc0f4a7" x="314.94" y="295.488" style="fill: #ffffff"/>
     <use xlink:href="#mb01bc0f4a7" x="335.94" y="295.488" style="fill: #ffffff"/>
     <use xlink:href="#mb01bc0f4a7" x="309.69" y="295.488" style="fill: #ffffff"/>
     <use xlink:href="#mb01bc0f4a7" x="341.19" y="295.488" style="fill: #ffffff"/>
     <use xlink:href="#mb01bc0f4a7" x="304.44" y="295.488" style="fill: #ffffff"/>
     <use xlink:href="#mb01bc0f4a7" x="283.44" y="295.488" style="fill: #ffffff"/>
     <use xlink:href="#mb01bc0f4a7" x="299.19" y="295.488" style="fill: #ffffff"/>
     <use xlink:href="#mb01bc0f4a7" x="351.69" y="295.488" style="fill: #ffffff"/>
     <use xlink:href="#mb01bc0f4a7" x="293.94" y="295.488" style="fill: #ffffff"/>
     <use xlink:href="#mb01bc0f4a7" x="356.94" y="295.488" style="fill: #ffffff"/>
     <use xlink:href="#mb01bc0f4a7" x="288.69" y="295.488" style="fill: #ffffff"/>
     <use xlink:href="#mb01bc0f4a7" x="362.19" y="295.488" style="fill: #ffffff"/>
     <use xlink:href="#mb01bc0f4a7" x="346.44" y="295.488" style="fill: #ffffff"/>
     <use xlink:href="#mb01bc0f4a7" x="325.44" y="295.488" style="fill: #ffffff"/>
    </g>
   </g>
   <g id="text_10">
    <!-- Identified AMR Gene counts per Samples' species -->
    <g style="fill: #262626" transform="translate(87.357188 35.472) scale(0.12 -0.12)">
     <defs>
      <path id="DejaVuSans-27" d="M 1147 4666 
L 1147 2931 
L 616 2931 
L 616 4666 
L 1147 4666 
z
" transform="scale(0.015625)"/>
     </defs>
     <use xlink:href="#DejaVuSans-49"/>
     <use xlink:href="#DejaVuSans-64" x="29.492188"/>
     <use xlink:href="#DejaVuSans-65" x="92.96875"/>
     <use xlink:href="#DejaVuSans-6e" x="154.492188"/>
     <use xlink:href="#DejaVuSans-74" x="217.871094"/>
     <use xlink:href="#DejaVuSans-69" x="257.080078"/>
     <use xlink:href="#DejaVuSans-66" x="284.863281"/>
     <use xlink:href="#DejaVuSans-69" x="320.068359"/>
     <use xlink:href="#DejaVuSans-65" x="347.851562"/>
     <use xlink:href="#DejaVuSans-64" x="409.375"/>
     <use xlink:href="#DejaVuSans-20" x="472.851562"/>
     <use xlink:href="#DejaVuSans-41" x="504.638672"/>
     <use xlink:href="#DejaVuSans-4d" x="573.046875"/>
     <use xlink:href="#DejaVuSans-52" x="659.326172"/>
     <use xlink:href="#DejaVuSans-20" x="728.808594"/>
     <use xlink:href="#DejaVuSans-47" x="760.595703"/>
     <use xlink:href="#DejaVuSans-65" x="838.085938"/>
     <use xlink:href="#DejaVuSans-6e" x="899.609375"/>
     <use xlink:href="#DejaVuSans-65" x="962.988281"/>
     <use xlink:href="#DejaVuSans-20" x="1024.511719"/>
     <use xlink:href="#DejaVuSans-63" x="1056.298828"/>
     <use xlink:href="#DejaVuSans-6f" x="1111.279297"/>
     <use xlink:href="#DejaVuSans-75" x="1172.460938"/>
     <use xlink:href="#DejaVuSans-6e" x="1235.839844"/>
     <use xlink:href="#DejaVuSans-74" x="1299.21875"/>
     <use xlink:href="#DejaVuSans-73" x="1338.427734"/>
     <use xlink:href="#DejaVuSans-20" x="1390.527344"/>
     <use xlink:href="#DejaVuSans-70" x="1422.314453"/>
     <use xlink:href="#DejaVuSans-65" x="1485.791016"/>
     <use xlink:href="#DejaVuSans-72" x="1547.314453"/>
     <use xlink:href="#DejaVuSans-20" x="1588.427734"/>
     <use xlink:href="#DejaVuSans-53" x="1620.214844"/>
     <use xlink:href="#DejaVuSans-61" x="1683.691406"/>
     <use xlink:href="#DejaVuSans-6d" x="1744.970703"/>
     <use xlink:href="#DejaVuSans-70" x="1842.382812"/>
     <use xlink:href="#DejaVuSans-6c" x="1905.859375"/>
     <use xlink:href="#DejaVuSans-65" x="1933.642578"/>
     <use xlink:href="#DejaVuSans-73" x="1995.166016"/>
     <use xlink:href="#DejaVuSans-27" x="2047.265625"/>
     <use xlink:href="#DejaVuSans-20" x="2074.755859"/>
     <use xlink:href="#DejaVuSans-73" x="2106.542969"/>
     <use xlink:href="#DejaVuSans-70" x="2158.642578"/>
     <use xlink:href="#DejaVuSans-65" x="2222.119141"/>
     <use xlink:href="#DejaVuSans-63" x="2283.642578"/>
     <use xlink:href="#DejaVuSans-69" x="2338.623047"/>
     <use xlink:href="#DejaVuSans-65" x="2366.40625"/>
     <use xlink:href="#DejaVuSans-73" x="2427.929688"/>
    </g>
   </g>
  </g>
 </g>
 <defs>
  <clipPath id="p61686d6fb4">
   <rect x="57.6" y="41.472" width="357.12" height="266.112"/>
  </clipPath>
 </defs>
</svg>
