<?xml version="1.0" encoding="utf-8" standalone="no"?>
<!DOCTYPE svg PUBLIC "-//W3C//DTD SVG 1.1//EN"
  "http://www.w3.org/Graphics/SVG/1.1/DTD/svg11.dtd">
<svg xmlns:xlink="http://www.w3.org/1999/xlink" width="460.8pt" height="345.6pt" viewBox="0 0 460.8 345.6" xmlns="http://www.w3.org/2000/svg" version="1.1">
 <metadata>
  <rdf:RDF xmlns:dc="http://purl.org/dc/elements/1.1/" xmlns:cc="http://creativecommons.org/ns#" xmlns:rdf="http://www.w3.org/1999/02/22-rdf-syntax-ns#">
   <cc:Work>
    <dc:type rdf:resource="http://purl.org/dc/dcmitype/StillImage"/>
    <dc:date>2023-10-11T20:51:23.545812</dc:date>
    <dc:format>image/svg+xml</dc:format>
    <dc:creator>
     <cc:Agent>
      <dc:title>Matplotlib v3.7.1, https://matplotlib.org/</dc:title>
     </cc:Agent>
    </dc:creator>
   </cc:Work>
  </rdf:RDF>
 </metadata>
 <defs>
  <style type="text/css">*{stroke-linejoin: round; stroke-linecap: butt}</style>
 </defs>
 <g id="figure_1">
  <g id="patch_1">
   <path d="M 0 345.6 
L 460.8 345.6 
L 460.8 0 
L 0 0 
z
" style="fill: #ffffff"/>
  </g>
  <g id="axes_1">
   <g id="patch_2">
    <path d="M 57.6 307.584 
L 414.72 307.584 
L 414.72 41.472 
L 57.6 41.472 
z
" style="fill: #ffffff"/>
   </g>
   <g id="PolyCollection_1">
    <defs>
     <path id="m8a447e5bec" d="M 156.551627 -91.941538 
L 137.208373 -91.941538 
L 134.416585 -92.684034 
L 131.0926 -93.42653 
L 127.222866 -94.169026 
L 122.821653 -94.911523 
L 117.936744 -95.654019 
L 112.653302 -96.396515 
L 107.095067 -97.139011 
L 101.422215 -97.881507 
L 95.825512 -98.624003 
L 90.516806 -99.3665 
L 85.716365 -100.108996 
L 81.638042 -100.851492 
L 78.473606 -101.593988 
L 76.377839 -102.336484 
L 75.456 -103.07898 
L 75.755058 -103.821477 
L 77.259731 -104.563973 
L 79.893779 -105.306469 
L 83.526403 -106.048965 
L 87.983011 -106.791461 
L 93.059105 -107.533957 
L 98.535758 -108.276454 
L 104.195066 -109.01895 
L 109.834072 -109.761446 
L 115.275977 -110.503942 
L 120.377902 -111.246438 
L 125.034893 -111.988934 
L 129.180374 -112.731431 
L 132.783541 -113.473927 
L 135.844501 -114.216423 
L 138.388 -114.958919 
L 140.456615 -115.701415 
L 142.104114 -116.443911 
L 143.389562 -117.186407 
L 144.372494 -117.928904 
L 145.10932 -118.6714 
L 145.650937 -119.413896 
L 146.041421 -120.156392 
L 146.317594 -120.898888 
L 146.50924 -121.641384 
L 146.639746 -122.383881 
L 146.726966 -123.126377 
L 146.784183 -123.868873 
L 146.821027 -124.611369 
L 146.844319 -125.353865 
L 146.858771 -126.096361 
L 146.867571 -126.838858 
L 146.872821 -127.581354 
L 146.875875 -128.32385 
L 146.877584 -129.066346 
L 146.878457 -129.808842 
L 146.878783 -130.551338 
L 146.878691 -131.293835 
L 146.8782 -132.036331 
L 146.877229 -132.778827 
L 146.875599 -133.521323 
L 146.873022 -134.263819 
L 146.869069 -135.006315 
L 146.863142 -135.748812 
L 146.854434 -136.491308 
L 146.841882 -137.233804 
L 146.824133 -137.9763 
L 146.799514 -138.718796 
L 146.766022 -139.461292 
L 146.721344 -140.203789 
L 146.662914 -140.946285 
L 146.588028 -141.688781 
L 146.494 -142.431277 
L 146.378386 -143.173773 
L 146.239252 -143.916269 
L 146.075472 -144.658766 
L 145.887041 -145.401262 
L 145.675359 -146.143758 
L 145.443454 -146.886254 
L 145.196094 -147.62875 
L 144.939776 -148.371246 
L 144.682534 -149.113742 
L 144.433596 -149.856239 
L 144.202864 -150.598735 
L 144.000291 -151.341231 
L 143.835172 -152.083727 
L 143.715442 -152.826223 
L 143.647048 -153.568719 
L 143.633455 -154.311216 
L 143.675356 -155.053712 
L 143.770618 -155.796208 
L 143.914456 -156.538704 
L 144.099835 -157.2812 
L 144.318037 -158.023696 
L 144.559341 -158.766193 
L 144.813737 -159.508689 
L 145.071594 -160.251185 
L 145.324241 -160.993681 
L 145.564397 -161.736177 
L 145.786439 -162.478673 
L 145.986494 -163.22117 
L 146.162391 -163.963666 
L 146.313481 -164.706162 
L 146.440381 -165.448658 
L 147.319619 -165.448658 
L 147.319619 -165.448658 
L 147.446519 -164.706162 
L 147.597609 -163.963666 
L 147.773506 -163.22117 
L 147.973561 -162.478673 
L 148.195603 -161.736177 
L 148.435759 -160.993681 
L 148.688406 -160.251185 
L 148.946263 -159.508689 
L 149.200659 -158.766193 
L 149.441963 -158.023696 
L 149.660165 -157.2812 
L 149.845544 -156.538704 
L 149.989382 -155.796208 
L 150.084644 -155.053712 
L 150.126545 -154.311216 
L 150.112952 -153.568719 
L 150.044558 -152.826223 
L 149.924828 -152.083727 
L 149.759709 -151.341231 
L 149.557136 -150.598735 
L 149.326404 -149.856239 
L 149.077466 -149.113742 
L 148.820224 -148.371246 
L 148.563906 -147.62875 
L 148.316546 -146.886254 
L 148.084641 -146.143758 
L 147.872959 -145.401262 
L 147.684528 -144.658766 
L 147.520748 -143.916269 
L 147.381614 -143.173773 
L 147.266 -142.431277 
L 147.171972 -141.688781 
L 147.097086 -140.946285 
L 147.038656 -140.203789 
L 146.993978 -139.461292 
L 146.960486 -138.718796 
L 146.935867 -137.9763 
L 146.918118 -137.233804 
L 146.905566 -136.491308 
L 146.896858 -135.748812 
L 146.890931 -135.006315 
L 146.886978 -134.263819 
L 146.884401 -133.521323 
L 146.882771 -132.778827 
L 146.8818 -132.036331 
L 146.881309 -131.293835 
L 146.881217 -130.551338 
L 146.881543 -129.808842 
L 146.882416 -129.066346 
L 146.884125 -128.32385 
L 146.887179 -127.581354 
L 146.892429 -126.838858 
L 146.901229 -126.096361 
L 146.915681 -125.353865 
L 146.938973 -124.611369 
L 146.975817 -123.868873 
L 147.033034 -123.126377 
L 147.120254 -122.383881 
L 147.25076 -121.641384 
L 147.442406 -120.898888 
L 147.718579 -120.156392 
L 148.109063 -119.413896 
L 148.65068 -118.6714 
L 149.387506 -117.928904 
L 150.370438 -117.186407 
L 151.655886 -116.443911 
L 153.303385 -115.701415 
L 155.372 -114.958919 
L 157.915499 -114.216423 
L 160.976459 -113.473927 
L 164.579626 -112.731431 
L 168.725107 -111.988934 
L 173.382098 -111.246438 
L 178.484023 -110.503942 
L 183.925928 -109.761446 
L 189.564934 -109.01895 
L 195.224242 -108.276454 
L 200.700895 -107.533957 
L 205.776989 -106.791461 
L 210.233597 -106.048965 
L 213.866221 -105.306469 
L 216.500269 -104.563973 
L 218.004942 -103.821477 
L 218.304 -103.07898 
L 217.382161 -102.336484 
L 215.286394 -101.593988 
L 212.121958 -100.851492 
L 208.043635 -100.108996 
L 203.243194 -99.3665 
L 197.934488 -98.624003 
L 192.337785 -97.881507 
L 186.664933 -97.139011 
L 181.106698 -96.396515 
L 175.823256 -95.654019 
L 170.938347 -94.911523 
L 166.537134 -94.169026 
L 162.6674 -93.42653 
L 159.343415 -92.684034 
L 156.551627 -91.941538 
z
" style="stroke: #3f3f3f; stroke-width: 1.5"/>
    </defs>
    <g clip-path="url(#pb8578b5506)">
     <use xlink:href="#m8a447e5bec" x="0" y="345.6" style="fill: #3274a1; stroke: #3f3f3f; stroke-width: 1.5"/>
    </g>
   </g>
   <g id="PolyCollection_2">
    <defs>
     <path id="m08d1cf1bda" d="M 325.907724 -50.112 
L 324.972276 -50.112 
L 324.868622 -52.555636 
L 324.747066 -54.999273 
L 324.605706 -57.442909 
L 324.442691 -59.886545 
L 324.256283 -62.330182 
L 324.044918 -64.773818 
L 323.807285 -67.217455 
L 323.542398 -69.661091 
L 323.24967 -72.104727 
L 322.928989 -74.548364 
L 322.580784 -76.992 
L 322.206084 -79.435636 
L 321.806566 -81.879273 
L 321.384585 -84.322909 
L 320.943194 -86.766545 
L 320.48613 -89.210182 
L 320.017797 -91.653818 
L 319.543209 -94.097455 
L 319.067917 -96.541091 
L 318.597915 -98.984727 
L 318.139519 -101.428364 
L 317.699234 -103.872 
L 317.28359 -106.315636 
L 316.898986 -108.759273 
L 316.551509 -111.202909 
L 316.24676 -113.646545 
L 315.989684 -116.090182 
L 315.784404 -118.533818 
L 315.634087 -120.977455 
L 315.540817 -123.421091 
L 315.505512 -125.864727 
L 315.527871 -128.308364 
L 315.606357 -130.752 
L 315.738233 -133.195636 
L 315.919626 -135.639273 
L 316.145648 -138.082909 
L 316.410538 -140.526545 
L 316.707853 -142.970182 
L 317.030669 -145.413818 
L 317.37181 -147.857455 
L 317.724077 -150.301091 
L 318.080472 -152.744727 
L 318.434414 -155.188364 
L 318.779922 -157.632 
L 319.111778 -160.075636 
L 319.425638 -162.519273 
L 319.718109 -164.962909 
L 319.986784 -167.406545 
L 320.230223 -169.850182 
L 320.447907 -172.293818 
L 320.64015 -174.737455 
L 320.807986 -177.181091 
L 320.953037 -179.624727 
L 321.077377 -182.068364 
L 321.183383 -184.512 
L 321.273608 -186.955636 
L 321.350658 -189.399273 
L 321.417091 -191.842909 
L 321.47534 -194.286545 
L 321.527658 -196.730182 
L 321.576085 -199.173818 
L 321.622435 -201.617455 
L 321.668304 -204.061091 
L 321.715085 -206.504727 
L 321.763989 -208.948364 
L 321.816077 -211.392 
L 321.872279 -213.835636 
L 321.933416 -216.279273 
L 322.00021 -218.722909 
L 322.073286 -221.166545 
L 322.153172 -223.610182 
L 322.240278 -226.053818 
L 322.334883 -228.497455 
L 322.437116 -230.941091 
L 322.546933 -233.384727 
L 322.664105 -235.828364 
L 322.788201 -238.272 
L 322.918595 -240.715636 
L 323.054463 -243.159273 
L 323.194807 -245.602909 
L 323.338476 -248.046545 
L 323.484201 -250.490182 
L 323.630632 -252.933818 
L 323.776384 -255.377455 
L 323.920081 -257.821091 
L 324.060397 -260.264727 
L 324.1961 -262.708364 
L 324.326084 -265.152 
L 324.4494 -267.595636 
L 324.565273 -270.039273 
L 324.673118 -272.482909 
L 324.772542 -274.926545 
L 324.863336 -277.370182 
L 324.945474 -279.813818 
L 325.019087 -282.257455 
L 325.084446 -284.701091 
L 325.141941 -287.144727 
L 325.192053 -289.588364 
L 325.235329 -292.032 
L 325.644671 -292.032 
L 325.644671 -292.032 
L 325.687947 -289.588364 
L 325.738059 -287.144727 
L 325.795554 -284.701091 
L 325.860913 -282.257455 
L 325.934526 -279.813818 
L 326.016664 -277.370182 
L 326.107458 -274.926545 
L 326.206882 -272.482909 
L 326.314727 -270.039273 
L 326.4306 -267.595636 
L 326.553916 -265.152 
L 326.6839 -262.708364 
L 326.819603 -260.264727 
L 326.959919 -257.821091 
L 327.103616 -255.377455 
L 327.249368 -252.933818 
L 327.395799 -250.490182 
L 327.541524 -248.046545 
L 327.685193 -245.602909 
L 327.825537 -243.159273 
L 327.961405 -240.715636 
L 328.091799 -238.272 
L 328.215895 -235.828364 
L 328.333067 -233.384727 
L 328.442884 -230.941091 
L 328.545117 -228.497455 
L 328.639722 -226.053818 
L 328.726828 -223.610182 
L 328.806714 -221.166545 
L 328.87979 -218.722909 
L 328.946584 -216.279273 
L 329.007721 -213.835636 
L 329.063923 -211.392 
L 329.116011 -208.948364 
L 329.164915 -206.504727 
L 329.211696 -204.061091 
L 329.257565 -201.617455 
L 329.303915 -199.173818 
L 329.352342 -196.730182 
L 329.40466 -194.286545 
L 329.462909 -191.842909 
L 329.529342 -189.399273 
L 329.606392 -186.955636 
L 329.696617 -184.512 
L 329.802623 -182.068364 
L 329.926963 -179.624727 
L 330.072014 -177.181091 
L 330.23985 -174.737455 
L 330.432093 -172.293818 
L 330.649777 -169.850182 
L 330.893216 -167.406545 
L 331.161891 -164.962909 
L 331.454362 -162.519273 
L 331.768222 -160.075636 
L 332.100078 -157.632 
L 332.445586 -155.188364 
L 332.799528 -152.744727 
L 333.155923 -150.301091 
L 333.50819 -147.857455 
L 333.849331 -145.413818 
L 334.172147 -142.970182 
L 334.469462 -140.526545 
L 334.734352 -138.082909 
L 334.960374 -135.639273 
L 335.141767 -133.195636 
L 335.273643 -130.752 
L 335.352129 -128.308364 
L 335.374488 -125.864727 
L 335.339183 -123.421091 
L 335.245913 -120.977455 
L 335.095596 -118.533818 
L 334.890316 -116.090182 
L 334.63324 -113.646545 
L 334.328491 -111.202909 
L 333.981014 -108.759273 
L 333.59641 -106.315636 
L 333.180766 -103.872 
L 332.740481 -101.428364 
L 332.282085 -98.984727 
L 331.812083 -96.541091 
L 331.336791 -94.097455 
L 330.862203 -91.653818 
L 330.39387 -89.210182 
L 329.936806 -86.766545 
L 329.495415 -84.322909 
L 329.073434 -81.879273 
L 328.673916 -79.435636 
L 328.299216 -76.992 
L 327.951011 -74.548364 
L 327.63033 -72.104727 
L 327.337602 -69.661091 
L 327.072715 -67.217455 
L 326.835082 -64.773818 
L 326.623717 -62.330182 
L 326.437309 -59.886545 
L 326.274294 -57.442909 
L 326.132934 -54.999273 
L 326.011378 -52.555636 
L 325.907724 -50.112 
z
" style="stroke: #3f3f3f; stroke-width: 1.5"/>
    </defs>
    <g clip-path="url(#pb8578b5506)">
     <use xlink:href="#m08d1cf1bda" x="0" y="345.6" style="fill: #e1812c; stroke: #3f3f3f; stroke-width: 1.5"/>
    </g>
   </g>
   <g id="matplotlib.axis_1">
    <g id="xtick_1">
     <g id="line2d_1">
      <defs>
       <path id="maf37a63147" d="M 0 0 
L 0 3.5 
" style="stroke: #000000; stroke-width: 0.8"/>
      </defs>
      <g>
       <use xlink:href="#maf37a63147" x="146.88" y="307.584" style="stroke: #000000; stroke-width: 0.8"/>
      </g>
     </g>
     <g id="text_1">
      <!-- No -->
      <g transform="translate(140.08 322.182437) scale(0.1 -0.1)">
       <defs>
        <path id="DejaVuSans-4e" d="M 628 4666 
L 1478 4666 
L 3547 763 
L 3547 4666 
L 4159 4666 
L 4159 0 
L 3309 0 
L 1241 3903 
L 1241 0 
L 628 0 
L 628 4666 
z
" transform="scale(0.015625)"/>
        <path id="DejaVuSans-6f" d="M 1959 3097 
Q 1497 3097 1228 2736 
Q 959 2375 959 1747 
Q 959 1119 1226 758 
Q 1494 397 1959 397 
Q 2419 397 2687 759 
Q 2956 1122 2956 1747 
Q 2956 2369 2687 2733 
Q 2419 3097 1959 3097 
z
M 1959 3584 
Q 2709 3584 3137 3096 
Q 3566 2609 3566 1747 
Q 3566 888 3137 398 
Q 2709 -91 1959 -91 
Q 1206 -91 779 398 
Q 353 888 353 1747 
Q 353 2609 779 3096 
Q 1206 3584 1959 3584 
z
" transform="scale(0.015625)"/>
       </defs>
       <use xlink:href="#DejaVuSans-4e"/>
       <use xlink:href="#DejaVuSans-6f" x="74.804688"/>
      </g>
     </g>
    </g>
    <g id="xtick_2">
     <g id="line2d_2">
      <g>
       <use xlink:href="#maf37a63147" x="325.44" y="307.584" style="stroke: #000000; stroke-width: 0.8"/>
      </g>
     </g>
     <g id="text_2">
      <!-- Yes -->
      <g transform="translate(317.367344 322.182437) scale(0.1 -0.1)">
       <defs>
        <path id="DejaVuSans-59" d="M -13 4666 
L 666 4666 
L 1959 2747 
L 3244 4666 
L 3922 4666 
L 2272 2222 
L 2272 0 
L 1638 0 
L 1638 2222 
L -13 4666 
z
" transform="scale(0.015625)"/>
        <path id="DejaVuSans-65" d="M 3597 1894 
L 3597 1613 
L 953 1613 
Q 991 1019 1311 708 
Q 1631 397 2203 397 
Q 2534 397 2845 478 
Q 3156 559 3463 722 
L 3463 178 
Q 3153 47 2828 -22 
Q 2503 -91 2169 -91 
Q 1331 -91 842 396 
Q 353 884 353 1716 
Q 353 2575 817 3079 
Q 1281 3584 2069 3584 
Q 2775 3584 3186 3129 
Q 3597 2675 3597 1894 
z
M 3022 2063 
Q 3016 2534 2758 2815 
Q 2500 3097 2075 3097 
Q 1594 3097 1305 2825 
Q 1016 2553 972 2059 
L 3022 2063 
z
" transform="scale(0.015625)"/>
        <path id="DejaVuSans-73" d="M 2834 3397 
L 2834 2853 
Q 2591 2978 2328 3040 
Q 2066 3103 1784 3103 
Q 1356 3103 1142 2972 
Q 928 2841 928 2578 
Q 928 2378 1081 2264 
Q 1234 2150 1697 2047 
L 1894 2003 
Q 2506 1872 2764 1633 
Q 3022 1394 3022 966 
Q 3022 478 2636 193 
Q 2250 -91 1575 -91 
Q 1294 -91 989 -36 
Q 684 19 347 128 
L 347 722 
Q 666 556 975 473 
Q 1284 391 1588 391 
Q 1994 391 2212 530 
Q 2431 669 2431 922 
Q 2431 1156 2273 1281 
Q 2116 1406 1581 1522 
L 1381 1569 
Q 847 1681 609 1914 
Q 372 2147 372 2553 
Q 372 3047 722 3315 
Q 1072 3584 1716 3584 
Q 2034 3584 2315 3537 
Q 2597 3491 2834 3397 
z
" transform="scale(0.015625)"/>
       </defs>
       <use xlink:href="#DejaVuSans-59"/>
       <use xlink:href="#DejaVuSans-65" x="47.833984"/>
       <use xlink:href="#DejaVuSans-73" x="109.357422"/>
      </g>
     </g>
    </g>
    <g id="text_3">
     <!-- Enrichment -->
     <g transform="translate(207.393594 335.860562) scale(0.1 -0.1)">
      <defs>
       <path id="DejaVuSans-45" d="M 628 4666 
L 3578 4666 
L 3578 4134 
L 1259 4134 
L 1259 2753 
L 3481 2753 
L 3481 2222 
L 1259 2222 
L 1259 531 
L 3634 531 
L 3634 0 
L 628 0 
L 628 4666 
z
" transform="scale(0.015625)"/>
       <path id="DejaVuSans-6e" d="M 3513 2113 
L 3513 0 
L 2938 0 
L 2938 2094 
Q 2938 2591 2744 2837 
Q 2550 3084 2163 3084 
Q 1697 3084 1428 2787 
Q 1159 2491 1159 1978 
L 1159 0 
L 581 0 
L 581 3500 
L 1159 3500 
L 1159 2956 
Q 1366 3272 1645 3428 
Q 1925 3584 2291 3584 
Q 2894 3584 3203 3211 
Q 3513 2838 3513 2113 
z
" transform="scale(0.015625)"/>
       <path id="DejaVuSans-72" d="M 2631 2963 
Q 2534 3019 2420 3045 
Q 2306 3072 2169 3072 
Q 1681 3072 1420 2755 
Q 1159 2438 1159 1844 
L 1159 0 
L 581 0 
L 581 3500 
L 1159 3500 
L 1159 2956 
Q 1341 3275 1631 3429 
Q 1922 3584 2338 3584 
Q 2397 3584 2469 3576 
Q 2541 3569 2628 3553 
L 2631 2963 
z
" transform="scale(0.015625)"/>
       <path id="DejaVuSans-69" d="M 603 3500 
L 1178 3500 
L 1178 0 
L 603 0 
L 603 3500 
z
M 603 4863 
L 1178 4863 
L 1178 4134 
L 603 4134 
L 603 4863 
z
" transform="scale(0.015625)"/>
       <path id="DejaVuSans-63" d="M 3122 3366 
L 3122 2828 
Q 2878 2963 2633 3030 
Q 2388 3097 2138 3097 
Q 1578 3097 1268 2742 
Q 959 2388 959 1747 
Q 959 1106 1268 751 
Q 1578 397 2138 397 
Q 2388 397 2633 464 
Q 2878 531 3122 666 
L 3122 134 
Q 2881 22 2623 -34 
Q 2366 -91 2075 -91 
Q 1284 -91 818 406 
Q 353 903 353 1747 
Q 353 2603 823 3093 
Q 1294 3584 2113 3584 
Q 2378 3584 2631 3529 
Q 2884 3475 3122 3366 
z
" transform="scale(0.015625)"/>
       <path id="DejaVuSans-68" d="M 3513 2113 
L 3513 0 
L 2938 0 
L 2938 2094 
Q 2938 2591 2744 2837 
Q 2550 3084 2163 3084 
Q 1697 3084 1428 2787 
Q 1159 2491 1159 1978 
L 1159 0 
L 581 0 
L 581 4863 
L 1159 4863 
L 1159 2956 
Q 1366 3272 1645 3428 
Q 1925 3584 2291 3584 
Q 2894 3584 3203 3211 
Q 3513 2838 3513 2113 
z
" transform="scale(0.015625)"/>
       <path id="DejaVuSans-6d" d="M 3328 2828 
Q 3544 3216 3844 3400 
Q 4144 3584 4550 3584 
Q 5097 3584 5394 3201 
Q 5691 2819 5691 2113 
L 5691 0 
L 5113 0 
L 5113 2094 
Q 5113 2597 4934 2840 
Q 4756 3084 4391 3084 
Q 3944 3084 3684 2787 
Q 3425 2491 3425 1978 
L 3425 0 
L 2847 0 
L 2847 2094 
Q 2847 2600 2669 2842 
Q 2491 3084 2119 3084 
Q 1678 3084 1418 2786 
Q 1159 2488 1159 1978 
L 1159 0 
L 581 0 
L 581 3500 
L 1159 3500 
L 1159 2956 
Q 1356 3278 1631 3431 
Q 1906 3584 2284 3584 
Q 2666 3584 2933 3390 
Q 3200 3197 3328 2828 
z
" transform="scale(0.015625)"/>
       <path id="DejaVuSans-74" d="M 1172 4494 
L 1172 3500 
L 2356 3500 
L 2356 3053 
L 1172 3053 
L 1172 1153 
Q 1172 725 1289 603 
Q 1406 481 1766 481 
L 2356 481 
L 2356 0 
L 1766 0 
Q 1100 0 847 248 
Q 594 497 594 1153 
L 594 3053 
L 172 3053 
L 172 3500 
L 594 3500 
L 594 4494 
L 1172 4494 
z
" transform="scale(0.015625)"/>
      </defs>
      <use xlink:href="#DejaVuSans-45"/>
      <use xlink:href="#DejaVuSans-6e" x="63.183594"/>
      <use xlink:href="#DejaVuSans-72" x="126.5625"/>
      <use xlink:href="#DejaVuSans-69" x="167.675781"/>
      <use xlink:href="#DejaVuSans-63" x="195.458984"/>
      <use xlink:href="#DejaVuSans-68" x="250.439453"/>
      <use xlink:href="#DejaVuSans-6d" x="313.818359"/>
      <use xlink:href="#DejaVuSans-65" x="411.230469"/>
      <use xlink:href="#DejaVuSans-6e" x="472.753906"/>
      <use xlink:href="#DejaVuSans-74" x="536.132812"/>
     </g>
    </g>
   </g>
   <g id="matplotlib.axis_2">
    <g id="ytick_1">
     <g id="line2d_3">
      <defs>
       <path id="m2eefdc7072" d="M 0 0 
L -3.5 0 
" style="stroke: #000000; stroke-width: 0.8"/>
      </defs>
      <g>
       <use xlink:href="#m2eefdc7072" x="57.6" y="276.232565" style="stroke: #000000; stroke-width: 0.8"/>
      </g>
     </g>
     <g id="text_4">
      <!-- −2 -->
      <g transform="translate(35.857813 280.031784) scale(0.1 -0.1)">
       <defs>
        <path id="DejaVuSans-2212" d="M 678 2272 
L 4684 2272 
L 4684 1741 
L 678 1741 
L 678 2272 
z
" transform="scale(0.015625)"/>
        <path id="DejaVuSans-32" d="M 1228 531 
L 3431 531 
L 3431 0 
L 469 0 
L 469 531 
Q 828 903 1448 1529 
Q 2069 2156 2228 2338 
Q 2531 2678 2651 2914 
Q 2772 3150 2772 3378 
Q 2772 3750 2511 3984 
Q 2250 4219 1831 4219 
Q 1534 4219 1204 4116 
Q 875 4013 500 3803 
L 500 4441 
Q 881 4594 1212 4672 
Q 1544 4750 1819 4750 
Q 2544 4750 2975 4387 
Q 3406 4025 3406 3419 
Q 3406 3131 3298 2873 
Q 3191 2616 2906 2266 
Q 2828 2175 2409 1742 
Q 1991 1309 1228 531 
z
" transform="scale(0.015625)"/>
       </defs>
       <use xlink:href="#DejaVuSans-2212"/>
       <use xlink:href="#DejaVuSans-32" x="83.789062"/>
      </g>
     </g>
    </g>
    <g id="ytick_2">
     <g id="line2d_4">
      <g>
       <use xlink:href="#m2eefdc7072" x="57.6" y="242.331043" style="stroke: #000000; stroke-width: 0.8"/>
      </g>
     </g>
     <g id="text_5">
      <!-- 0 -->
      <g transform="translate(44.2375 246.130262) scale(0.1 -0.1)">
       <defs>
        <path id="DejaVuSans-30" d="M 2034 4250 
Q 1547 4250 1301 3770 
Q 1056 3291 1056 2328 
Q 1056 1369 1301 889 
Q 1547 409 2034 409 
Q 2525 409 2770 889 
Q 3016 1369 3016 2328 
Q 3016 3291 2770 3770 
Q 2525 4250 2034 4250 
z
M 2034 4750 
Q 2819 4750 3233 4129 
Q 3647 3509 3647 2328 
Q 3647 1150 3233 529 
Q 2819 -91 2034 -91 
Q 1250 -91 836 529 
Q 422 1150 422 2328 
Q 422 3509 836 4129 
Q 1250 4750 2034 4750 
z
" transform="scale(0.015625)"/>
       </defs>
       <use xlink:href="#DejaVuSans-30"/>
      </g>
     </g>
    </g>
    <g id="ytick_3">
     <g id="line2d_5">
      <g>
       <use xlink:href="#m2eefdc7072" x="57.6" y="208.429522" style="stroke: #000000; stroke-width: 0.8"/>
      </g>
     </g>
     <g id="text_6">
      <!-- 2 -->
      <g transform="translate(44.2375 212.22874) scale(0.1 -0.1)">
       <use xlink:href="#DejaVuSans-32"/>
      </g>
     </g>
    </g>
    <g id="ytick_4">
     <g id="line2d_6">
      <g>
       <use xlink:href="#m2eefdc7072" x="57.6" y="174.528" style="stroke: #000000; stroke-width: 0.8"/>
      </g>
     </g>
     <g id="text_7">
      <!-- 4 -->
      <g transform="translate(44.2375 178.327219) scale(0.1 -0.1)">
       <defs>
        <path id="DejaVuSans-34" d="M 2419 4116 
L 825 1625 
L 2419 1625 
L 2419 4116 
z
M 2253 4666 
L 3047 4666 
L 3047 1625 
L 3713 1625 
L 3713 1100 
L 3047 1100 
L 3047 0 
L 2419 0 
L 2419 1100 
L 313 1100 
L 313 1709 
L 2253 4666 
z
" transform="scale(0.015625)"/>
       </defs>
       <use xlink:href="#DejaVuSans-34"/>
      </g>
     </g>
    </g>
    <g id="ytick_5">
     <g id="line2d_7">
      <g>
       <use xlink:href="#m2eefdc7072" x="57.6" y="140.626478" style="stroke: #000000; stroke-width: 0.8"/>
      </g>
     </g>
     <g id="text_8">
      <!-- 6 -->
      <g transform="translate(44.2375 144.425697) scale(0.1 -0.1)">
       <defs>
        <path id="DejaVuSans-36" d="M 2113 2584 
Q 1688 2584 1439 2293 
Q 1191 2003 1191 1497 
Q 1191 994 1439 701 
Q 1688 409 2113 409 
Q 2538 409 2786 701 
Q 3034 994 3034 1497 
Q 3034 2003 2786 2293 
Q 2538 2584 2113 2584 
z
M 3366 4563 
L 3366 3988 
Q 3128 4100 2886 4159 
Q 2644 4219 2406 4219 
Q 1781 4219 1451 3797 
Q 1122 3375 1075 2522 
Q 1259 2794 1537 2939 
Q 1816 3084 2150 3084 
Q 2853 3084 3261 2657 
Q 3669 2231 3669 1497 
Q 3669 778 3244 343 
Q 2819 -91 2113 -91 
Q 1303 -91 875 529 
Q 447 1150 447 2328 
Q 447 3434 972 4092 
Q 1497 4750 2381 4750 
Q 2619 4750 2861 4703 
Q 3103 4656 3366 4563 
z
" transform="scale(0.015625)"/>
       </defs>
       <use xlink:href="#DejaVuSans-36"/>
      </g>
     </g>
    </g>
    <g id="ytick_6">
     <g id="line2d_8">
      <g>
       <use xlink:href="#m2eefdc7072" x="57.6" y="106.724957" style="stroke: #000000; stroke-width: 0.8"/>
      </g>
     </g>
     <g id="text_9">
      <!-- 8 -->
      <g transform="translate(44.2375 110.524176) scale(0.1 -0.1)">
       <defs>
        <path id="DejaVuSans-38" d="M 2034 2216 
Q 1584 2216 1326 1975 
Q 1069 1734 1069 1313 
Q 1069 891 1326 650 
Q 1584 409 2034 409 
Q 2484 409 2743 651 
Q 3003 894 3003 1313 
Q 3003 1734 2745 1975 
Q 2488 2216 2034 2216 
z
M 1403 2484 
Q 997 2584 770 2862 
Q 544 3141 544 3541 
Q 544 4100 942 4425 
Q 1341 4750 2034 4750 
Q 2731 4750 3128 4425 
Q 3525 4100 3525 3541 
Q 3525 3141 3298 2862 
Q 3072 2584 2669 2484 
Q 3125 2378 3379 2068 
Q 3634 1759 3634 1313 
Q 3634 634 3220 271 
Q 2806 -91 2034 -91 
Q 1263 -91 848 271 
Q 434 634 434 1313 
Q 434 1759 690 2068 
Q 947 2378 1403 2484 
z
M 1172 3481 
Q 1172 3119 1398 2916 
Q 1625 2713 2034 2713 
Q 2441 2713 2670 2916 
Q 2900 3119 2900 3481 
Q 2900 3844 2670 4047 
Q 2441 4250 2034 4250 
Q 1625 4250 1398 4047 
Q 1172 3844 1172 3481 
z
" transform="scale(0.015625)"/>
       </defs>
       <use xlink:href="#DejaVuSans-38"/>
      </g>
     </g>
    </g>
    <g id="ytick_7">
     <g id="line2d_9">
      <g>
       <use xlink:href="#m2eefdc7072" x="57.6" y="72.823435" style="stroke: #000000; stroke-width: 0.8"/>
      </g>
     </g>
     <g id="text_10">
      <!-- 10 -->
      <g transform="translate(37.875 76.622654) scale(0.1 -0.1)">
       <defs>
        <path id="DejaVuSans-31" d="M 794 531 
L 1825 531 
L 1825 4091 
L 703 3866 
L 703 4441 
L 1819 4666 
L 2450 4666 
L 2450 531 
L 3481 531 
L 3481 0 
L 794 0 
L 794 531 
z
" transform="scale(0.015625)"/>
       </defs>
       <use xlink:href="#DejaVuSans-31"/>
       <use xlink:href="#DejaVuSans-30" x="63.623047"/>
      </g>
     </g>
    </g>
    <g id="text_11">
     <!-- AMRs Count -->
     <g transform="translate(29.778125 204.778781) rotate(-90) scale(0.1 -0.1)">
      <defs>
       <path id="DejaVuSans-41" d="M 2188 4044 
L 1331 1722 
L 3047 1722 
L 2188 4044 
z
M 1831 4666 
L 2547 4666 
L 4325 0 
L 3669 0 
L 3244 1197 
L 1141 1197 
L 716 0 
L 50 0 
L 1831 4666 
z
" transform="scale(0.015625)"/>
       <path id="DejaVuSans-4d" d="M 628 4666 
L 1569 4666 
L 2759 1491 
L 3956 4666 
L 4897 4666 
L 4897 0 
L 4281 0 
L 4281 4097 
L 3078 897 
L 2444 897 
L 1241 4097 
L 1241 0 
L 628 0 
L 628 4666 
z
" transform="scale(0.015625)"/>
       <path id="DejaVuSans-52" d="M 2841 2188 
Q 3044 2119 3236 1894 
Q 3428 1669 3622 1275 
L 4263 0 
L 3584 0 
L 2988 1197 
Q 2756 1666 2539 1819 
Q 2322 1972 1947 1972 
L 1259 1972 
L 1259 0 
L 628 0 
L 628 4666 
L 2053 4666 
Q 2853 4666 3247 4331 
Q 3641 3997 3641 3322 
Q 3641 2881 3436 2590 
Q 3231 2300 2841 2188 
z
M 1259 4147 
L 1259 2491 
L 2053 2491 
Q 2509 2491 2742 2702 
Q 2975 2913 2975 3322 
Q 2975 3731 2742 3939 
Q 2509 4147 2053 4147 
L 1259 4147 
z
" transform="scale(0.015625)"/>
       <path id="DejaVuSans-20" transform="scale(0.015625)"/>
       <path id="DejaVuSans-43" d="M 4122 4306 
L 4122 3641 
Q 3803 3938 3442 4084 
Q 3081 4231 2675 4231 
Q 1875 4231 1450 3742 
Q 1025 3253 1025 2328 
Q 1025 1406 1450 917 
Q 1875 428 2675 428 
Q 3081 428 3442 575 
Q 3803 722 4122 1019 
L 4122 359 
Q 3791 134 3420 21 
Q 3050 -91 2638 -91 
Q 1578 -91 968 557 
Q 359 1206 359 2328 
Q 359 3453 968 4101 
Q 1578 4750 2638 4750 
Q 3056 4750 3426 4639 
Q 3797 4528 4122 4306 
z
" transform="scale(0.015625)"/>
       <path id="DejaVuSans-75" d="M 544 1381 
L 544 3500 
L 1119 3500 
L 1119 1403 
Q 1119 906 1312 657 
Q 1506 409 1894 409 
Q 2359 409 2629 706 
Q 2900 1003 2900 1516 
L 2900 3500 
L 3475 3500 
L 3475 0 
L 2900 0 
L 2900 538 
Q 2691 219 2414 64 
Q 2138 -91 1772 -91 
Q 1169 -91 856 284 
Q 544 659 544 1381 
z
M 1991 3584 
L 1991 3584 
z
" transform="scale(0.015625)"/>
      </defs>
      <use xlink:href="#DejaVuSans-41"/>
      <use xlink:href="#DejaVuSans-4d" x="68.408203"/>
      <use xlink:href="#DejaVuSans-52" x="154.6875"/>
      <use xlink:href="#DejaVuSans-73" x="224.169922"/>
      <use xlink:href="#DejaVuSans-20" x="276.269531"/>
      <use xlink:href="#DejaVuSans-43" x="308.056641"/>
      <use xlink:href="#DejaVuSans-6f" x="377.880859"/>
      <use xlink:href="#DejaVuSans-75" x="439.0625"/>
      <use xlink:href="#DejaVuSans-6e" x="502.441406"/>
      <use xlink:href="#DejaVuSans-74" x="565.820312"/>
     </g>
    </g>
   </g>
   <g id="line2d_10">
    <path d="M 146.88 242.331043 
L 146.88 242.331043 
" clip-path="url(#pb8578b5506)" style="fill: none; stroke: #3f3f3f; stroke-width: 1.5; stroke-linecap: square"/>
   </g>
   <g id="line2d_11">
    <path d="M 146.88 242.331043 
L 146.88 242.331043 
" clip-path="url(#pb8578b5506)" style="fill: none; stroke: #3f3f3f; stroke-width: 4.5; stroke-linecap: square"/>
   </g>
   <g id="line2d_12">
    <path d="M 325.44 242.331043 
L 325.44 106.724957 
" clip-path="url(#pb8578b5506)" style="fill: none; stroke: #3f3f3f; stroke-width: 1.5; stroke-linecap: square"/>
   </g>
   <g id="line2d_13">
    <path d="M 325.44 225.380282 
L 325.44 157.577239 
" clip-path="url(#pb8578b5506)" style="fill: none; stroke: #3f3f3f; stroke-width: 4.5; stroke-linecap: square"/>
   </g>
   <g id="patch_3">
    <path d="M 57.6 307.584 
L 57.6 41.472 
" style="fill: none; stroke: #000000; stroke-width: 0.8; stroke-linejoin: miter; stroke-linecap: square"/>
   </g>
   <g id="patch_4">
    <path d="M 414.72 307.584 
L 414.72 41.472 
" style="fill: none; stroke: #000000; stroke-width: 0.8; stroke-linejoin: miter; stroke-linecap: square"/>
   </g>
   <g id="patch_5">
    <path d="M 57.6 307.584 
L 414.72 307.584 
" style="fill: none; stroke: #000000; stroke-width: 0.8; stroke-linejoin: miter; stroke-linecap: square"/>
   </g>
   <g id="patch_6">
    <path d="M 57.6 41.472 
L 414.72 41.472 
" style="fill: none; stroke: #000000; stroke-width: 0.8; stroke-linejoin: miter; stroke-linecap: square"/>
   </g>
   <g id="PathCollection_1">
    <defs>
     <path id="m1ab7220192" d="M 0 1.5 
C 0.397805 1.5 0.77937 1.341951 1.06066 1.06066 
C 1.341951 0.77937 1.5 0.397805 1.5 0 
C 1.5 -0.397805 1.341951 -0.77937 1.06066 -1.06066 
C 0.77937 -1.341951 0.397805 -1.5 0 -1.5 
C -0.397805 -1.5 -0.77937 -1.341951 -1.06066 -1.06066 
C -1.341951 -0.77937 -1.5 -0.397805 -1.5 0 
C -1.5 0.397805 -1.341951 0.77937 -1.06066 1.06066 
C -0.77937 1.341951 -0.397805 1.5 0 1.5 
z
" style="stroke: #3f3f3f"/>
    </defs>
    <g clip-path="url(#pb8578b5506)">
     <use xlink:href="#m1ab7220192" x="146.88" y="242.331043" style="fill: #ffffff; stroke: #3f3f3f"/>
    </g>
   </g>
   <g id="PathCollection_2">
    <g clip-path="url(#pb8578b5506)">
     <use xlink:href="#m1ab7220192" x="325.44" y="208.429522" style="fill: #ffffff; stroke: #3f3f3f"/>
    </g>
   </g>
   <g id="text_12">
    <!-- AMRs count vs Pathogen Enrichment -->
    <g transform="translate(125.678438 35.472) scale(0.12 -0.12)">
     <defs>
      <path id="DejaVuSans-76" d="M 191 3500 
L 800 3500 
L 1894 563 
L 2988 3500 
L 3597 3500 
L 2284 0 
L 1503 0 
L 191 3500 
z
" transform="scale(0.015625)"/>
      <path id="DejaVuSans-50" d="M 1259 4147 
L 1259 2394 
L 2053 2394 
Q 2494 2394 2734 2622 
Q 2975 2850 2975 3272 
Q 2975 3691 2734 3919 
Q 2494 4147 2053 4147 
L 1259 4147 
z
M 628 4666 
L 2053 4666 
Q 2838 4666 3239 4311 
Q 3641 3956 3641 3272 
Q 3641 2581 3239 2228 
Q 2838 1875 2053 1875 
L 1259 1875 
L 1259 0 
L 628 0 
L 628 4666 
z
" transform="scale(0.015625)"/>
      <path id="DejaVuSans-61" d="M 2194 1759 
Q 1497 1759 1228 1600 
Q 959 1441 959 1056 
Q 959 750 1161 570 
Q 1363 391 1709 391 
Q 2188 391 2477 730 
Q 2766 1069 2766 1631 
L 2766 1759 
L 2194 1759 
z
M 3341 1997 
L 3341 0 
L 2766 0 
L 2766 531 
Q 2569 213 2275 61 
Q 1981 -91 1556 -91 
Q 1019 -91 701 211 
Q 384 513 384 1019 
Q 384 1609 779 1909 
Q 1175 2209 1959 2209 
L 2766 2209 
L 2766 2266 
Q 2766 2663 2505 2880 
Q 2244 3097 1772 3097 
Q 1472 3097 1187 3025 
Q 903 2953 641 2809 
L 641 3341 
Q 956 3463 1253 3523 
Q 1550 3584 1831 3584 
Q 2591 3584 2966 3190 
Q 3341 2797 3341 1997 
z
" transform="scale(0.015625)"/>
      <path id="DejaVuSans-67" d="M 2906 1791 
Q 2906 2416 2648 2759 
Q 2391 3103 1925 3103 
Q 1463 3103 1205 2759 
Q 947 2416 947 1791 
Q 947 1169 1205 825 
Q 1463 481 1925 481 
Q 2391 481 2648 825 
Q 2906 1169 2906 1791 
z
M 3481 434 
Q 3481 -459 3084 -895 
Q 2688 -1331 1869 -1331 
Q 1566 -1331 1297 -1286 
Q 1028 -1241 775 -1147 
L 775 -588 
Q 1028 -725 1275 -790 
Q 1522 -856 1778 -856 
Q 2344 -856 2625 -561 
Q 2906 -266 2906 331 
L 2906 616 
Q 2728 306 2450 153 
Q 2172 0 1784 0 
Q 1141 0 747 490 
Q 353 981 353 1791 
Q 353 2603 747 3093 
Q 1141 3584 1784 3584 
Q 2172 3584 2450 3431 
Q 2728 3278 2906 2969 
L 2906 3500 
L 3481 3500 
L 3481 434 
z
" transform="scale(0.015625)"/>
     </defs>
     <use xlink:href="#DejaVuSans-41"/>
     <use xlink:href="#DejaVuSans-4d" x="68.408203"/>
     <use xlink:href="#DejaVuSans-52" x="154.6875"/>
     <use xlink:href="#DejaVuSans-73" x="224.169922"/>
     <use xlink:href="#DejaVuSans-20" x="276.269531"/>
     <use xlink:href="#DejaVuSans-63" x="308.056641"/>
     <use xlink:href="#DejaVuSans-6f" x="363.037109"/>
     <use xlink:href="#DejaVuSans-75" x="424.21875"/>
     <use xlink:href="#DejaVuSans-6e" x="487.597656"/>
     <use xlink:href="#DejaVuSans-74" x="550.976562"/>
     <use xlink:href="#DejaVuSans-20" x="590.185547"/>
     <use xlink:href="#DejaVuSans-76" x="621.972656"/>
     <use xlink:href="#DejaVuSans-73" x="681.152344"/>
     <use xlink:href="#DejaVuSans-20" x="733.251953"/>
     <use xlink:href="#DejaVuSans-50" x="765.039062"/>
     <use xlink:href="#DejaVuSans-61" x="820.841797"/>
     <use xlink:href="#DejaVuSans-74" x="882.121094"/>
     <use xlink:href="#DejaVuSans-68" x="921.330078"/>
     <use xlink:href="#DejaVuSans-6f" x="984.708984"/>
     <use xlink:href="#DejaVuSans-67" x="1045.890625"/>
     <use xlink:href="#DejaVuSans-65" x="1109.367188"/>
     <use xlink:href="#DejaVuSans-6e" x="1170.890625"/>
     <use xlink:href="#DejaVuSans-20" x="1234.269531"/>
     <use xlink:href="#DejaVuSans-45" x="1266.056641"/>
     <use xlink:href="#DejaVuSans-6e" x="1329.240234"/>
     <use xlink:href="#DejaVuSans-72" x="1392.619141"/>
     <use xlink:href="#DejaVuSans-69" x="1433.732422"/>
     <use xlink:href="#DejaVuSans-63" x="1461.515625"/>
     <use xlink:href="#DejaVuSans-68" x="1516.496094"/>
     <use xlink:href="#DejaVuSans-6d" x="1579.875"/>
     <use xlink:href="#DejaVuSans-65" x="1677.287109"/>
     <use xlink:href="#DejaVuSans-6e" x="1738.810547"/>
     <use xlink:href="#DejaVuSans-74" x="1802.189453"/>
    </g>
   </g>
  </g>
 </g>
 <defs>
  <clipPath id="pb8578b5506">
   <rect x="57.6" y="41.472" width="357.12" height="266.112"/>
  </clipPath>
 </defs>
</svg>
