<?xml version="1.0" encoding="utf-8" standalone="no"?>
<!DOCTYPE svg PUBLIC "-//W3C//DTD SVG 1.1//EN"
  "http://www.w3.org/Graphics/SVG/1.1/DTD/svg11.dtd">
<svg xmlns:xlink="http://www.w3.org/1999/xlink" width="460.8pt" height="345.6pt" viewBox="0 0 460.8 345.6" xmlns="http://www.w3.org/2000/svg" version="1.1">
 <metadata>
  <rdf:RDF xmlns:dc="http://purl.org/dc/elements/1.1/" xmlns:cc="http://creativecommons.org/ns#" xmlns:rdf="http://www.w3.org/1999/02/22-rdf-syntax-ns#">
   <cc:Work>
    <dc:type rdf:resource="http://purl.org/dc/dcmitype/StillImage"/>
    <dc:date>2023-09-26T17:59:42.738359</dc:date>
    <dc:format>image/svg+xml</dc:format>
    <dc:creator>
     <cc:Agent>
      <dc:title>Matplotlib v3.7.1, https://matplotlib.org/</dc:title>
     </cc:Agent>
    </dc:creator>
   </cc:Work>
  </rdf:RDF>
 </metadata>
 <defs>
  <style type="text/css">*{stroke-linejoin: round; stroke-linecap: butt}</style>
 </defs>
 <g id="figure_1">
  <g id="patch_1">
   <path d="M 0 345.6 
L 460.8 345.6 
L 460.8 0 
L 0 0 
z
" style="fill: #ffffff"/>
  </g>
  <g id="axes_1">
   <g id="patch_2">
    <path d="M 57.6 307.584 
L 414.72 307.584 
L 414.72 41.472 
L 57.6 41.472 
z
" style="fill: #eaeaf2"/>
   </g>
   <g id="matplotlib.axis_1">
    <g id="xtick_1">
     <g id="text_1">
      <!-- No -->
      <g style="fill: #262626" transform="translate(139.4 325.442281) scale(0.11 -0.11)">
       <defs>
        <path id="DejaVuSans-4e" d="M 628 4666 
L 1478 4666 
L 3547 763 
L 3547 4666 
L 4159 4666 
L 4159 0 
L 3309 0 
L 1241 3903 
L 1241 0 
L 628 0 
L 628 4666 
z
" transform="scale(0.015625)"/>
        <path id="DejaVuSans-6f" d="M 1959 3097 
Q 1497 3097 1228 2736 
Q 959 2375 959 1747 
Q 959 1119 1226 758 
Q 1494 397 1959 397 
Q 2419 397 2687 759 
Q 2956 1122 2956 1747 
Q 2956 2369 2687 2733 
Q 2419 3097 1959 3097 
z
M 1959 3584 
Q 2709 3584 3137 3096 
Q 3566 2609 3566 1747 
Q 3566 888 3137 398 
Q 2709 -91 1959 -91 
Q 1206 -91 779 398 
Q 353 888 353 1747 
Q 353 2609 779 3096 
Q 1206 3584 1959 3584 
z
" transform="scale(0.015625)"/>
       </defs>
       <use xlink:href="#DejaVuSans-4e"/>
       <use xlink:href="#DejaVuSans-6f" x="74.804688"/>
      </g>
     </g>
    </g>
    <g id="xtick_2">
     <g id="text_2">
      <!-- Yes -->
      <g style="fill: #262626" transform="translate(316.560078 325.442281) scale(0.11 -0.11)">
       <defs>
        <path id="DejaVuSans-59" d="M -13 4666 
L 666 4666 
L 1959 2747 
L 3244 4666 
L 3922 4666 
L 2272 2222 
L 2272 0 
L 1638 0 
L 1638 2222 
L -13 4666 
z
" transform="scale(0.015625)"/>
        <path id="DejaVuSans-65" d="M 3597 1894 
L 3597 1613 
L 953 1613 
Q 991 1019 1311 708 
Q 1631 397 2203 397 
Q 2534 397 2845 478 
Q 3156 559 3463 722 
L 3463 178 
Q 3153 47 2828 -22 
Q 2503 -91 2169 -91 
Q 1331 -91 842 396 
Q 353 884 353 1716 
Q 353 2575 817 3079 
Q 1281 3584 2069 3584 
Q 2775 3584 3186 3129 
Q 3597 2675 3597 1894 
z
M 3022 2063 
Q 3016 2534 2758 2815 
Q 2500 3097 2075 3097 
Q 1594 3097 1305 2825 
Q 1016 2553 972 2059 
L 3022 2063 
z
" transform="scale(0.015625)"/>
        <path id="DejaVuSans-73" d="M 2834 3397 
L 2834 2853 
Q 2591 2978 2328 3040 
Q 2066 3103 1784 3103 
Q 1356 3103 1142 2972 
Q 928 2841 928 2578 
Q 928 2378 1081 2264 
Q 1234 2150 1697 2047 
L 1894 2003 
Q 2506 1872 2764 1633 
Q 3022 1394 3022 966 
Q 3022 478 2636 193 
Q 2250 -91 1575 -91 
Q 1294 -91 989 -36 
Q 684 19 347 128 
L 347 722 
Q 666 556 975 473 
Q 1284 391 1588 391 
Q 1994 391 2212 530 
Q 2431 669 2431 922 
Q 2431 1156 2273 1281 
Q 2116 1406 1581 1522 
L 1381 1569 
Q 847 1681 609 1914 
Q 372 2147 372 2553 
Q 372 3047 722 3315 
Q 1072 3584 1716 3584 
Q 2034 3584 2315 3537 
Q 2597 3491 2834 3397 
z
" transform="scale(0.015625)"/>
       </defs>
       <use xlink:href="#DejaVuSans-59"/>
       <use xlink:href="#DejaVuSans-65" x="47.833984"/>
       <use xlink:href="#DejaVuSans-73" x="109.357422"/>
      </g>
     </g>
    </g>
    <g id="text_3">
     <!-- Deplition -->
     <g style="fill: #262626" transform="translate(209.2125 340.848062) scale(0.12 -0.12)">
      <defs>
       <path id="DejaVuSans-44" d="M 1259 4147 
L 1259 519 
L 2022 519 
Q 2988 519 3436 956 
Q 3884 1394 3884 2338 
Q 3884 3275 3436 3711 
Q 2988 4147 2022 4147 
L 1259 4147 
z
M 628 4666 
L 1925 4666 
Q 3281 4666 3915 4102 
Q 4550 3538 4550 2338 
Q 4550 1131 3912 565 
Q 3275 0 1925 0 
L 628 0 
L 628 4666 
z
" transform="scale(0.015625)"/>
       <path id="DejaVuSans-70" d="M 1159 525 
L 1159 -1331 
L 581 -1331 
L 581 3500 
L 1159 3500 
L 1159 2969 
Q 1341 3281 1617 3432 
Q 1894 3584 2278 3584 
Q 2916 3584 3314 3078 
Q 3713 2572 3713 1747 
Q 3713 922 3314 415 
Q 2916 -91 2278 -91 
Q 1894 -91 1617 61 
Q 1341 213 1159 525 
z
M 3116 1747 
Q 3116 2381 2855 2742 
Q 2594 3103 2138 3103 
Q 1681 3103 1420 2742 
Q 1159 2381 1159 1747 
Q 1159 1113 1420 752 
Q 1681 391 2138 391 
Q 2594 391 2855 752 
Q 3116 1113 3116 1747 
z
" transform="scale(0.015625)"/>
       <path id="DejaVuSans-6c" d="M 603 4863 
L 1178 4863 
L 1178 0 
L 603 0 
L 603 4863 
z
" transform="scale(0.015625)"/>
       <path id="DejaVuSans-69" d="M 603 3500 
L 1178 3500 
L 1178 0 
L 603 0 
L 603 3500 
z
M 603 4863 
L 1178 4863 
L 1178 4134 
L 603 4134 
L 603 4863 
z
" transform="scale(0.015625)"/>
       <path id="DejaVuSans-74" d="M 1172 4494 
L 1172 3500 
L 2356 3500 
L 2356 3053 
L 1172 3053 
L 1172 1153 
Q 1172 725 1289 603 
Q 1406 481 1766 481 
L 2356 481 
L 2356 0 
L 1766 0 
Q 1100 0 847 248 
Q 594 497 594 1153 
L 594 3053 
L 172 3053 
L 172 3500 
L 594 3500 
L 594 4494 
L 1172 4494 
z
" transform="scale(0.015625)"/>
       <path id="DejaVuSans-6e" d="M 3513 2113 
L 3513 0 
L 2938 0 
L 2938 2094 
Q 2938 2591 2744 2837 
Q 2550 3084 2163 3084 
Q 1697 3084 1428 2787 
Q 1159 2491 1159 1978 
L 1159 0 
L 581 0 
L 581 3500 
L 1159 3500 
L 1159 2956 
Q 1366 3272 1645 3428 
Q 1925 3584 2291 3584 
Q 2894 3584 3203 3211 
Q 3513 2838 3513 2113 
z
" transform="scale(0.015625)"/>
      </defs>
      <use xlink:href="#DejaVuSans-44"/>
      <use xlink:href="#DejaVuSans-65" x="77.001953"/>
      <use xlink:href="#DejaVuSans-70" x="138.525391"/>
      <use xlink:href="#DejaVuSans-6c" x="202.001953"/>
      <use xlink:href="#DejaVuSans-69" x="229.785156"/>
      <use xlink:href="#DejaVuSans-74" x="257.568359"/>
      <use xlink:href="#DejaVuSans-69" x="296.777344"/>
      <use xlink:href="#DejaVuSans-6f" x="324.560547"/>
      <use xlink:href="#DejaVuSans-6e" x="385.742188"/>
     </g>
    </g>
   </g>
   <g id="matplotlib.axis_2">
    <g id="ytick_1">
     <g id="line2d_1">
      <path d="M 57.6 288.237402 
L 414.72 288.237402 
" clip-path="url(#pc5d19e975b)" style="fill: none; stroke: #ffffff; stroke-linecap: round"/>
     </g>
     <g id="text_4">
      <!-- 40 -->
      <g style="fill: #262626" transform="translate(34.1025 292.416542) scale(0.11 -0.11)">
       <defs>
        <path id="DejaVuSans-34" d="M 2419 4116 
L 825 1625 
L 2419 1625 
L 2419 4116 
z
M 2253 4666 
L 3047 4666 
L 3047 1625 
L 3713 1625 
L 3713 1100 
L 3047 1100 
L 3047 0 
L 2419 0 
L 2419 1100 
L 313 1100 
L 313 1709 
L 2253 4666 
z
" transform="scale(0.015625)"/>
        <path id="DejaVuSans-30" d="M 2034 4250 
Q 1547 4250 1301 3770 
Q 1056 3291 1056 2328 
Q 1056 1369 1301 889 
Q 1547 409 2034 409 
Q 2525 409 2770 889 
Q 3016 1369 3016 2328 
Q 3016 3291 2770 3770 
Q 2525 4250 2034 4250 
z
M 2034 4750 
Q 2819 4750 3233 4129 
Q 3647 3509 3647 2328 
Q 3647 1150 3233 529 
Q 2819 -91 2034 -91 
Q 1250 -91 836 529 
Q 422 1150 422 2328 
Q 422 3509 836 4129 
Q 1250 4750 2034 4750 
z
" transform="scale(0.015625)"/>
       </defs>
       <use xlink:href="#DejaVuSans-34"/>
       <use xlink:href="#DejaVuSans-30" x="63.623047"/>
      </g>
     </g>
    </g>
    <g id="ytick_2">
     <g id="line2d_2">
      <path d="M 57.6 230.926692 
L 414.72 230.926692 
" clip-path="url(#pc5d19e975b)" style="fill: none; stroke: #ffffff; stroke-linecap: round"/>
     </g>
     <g id="text_5">
      <!-- 60 -->
      <g style="fill: #262626" transform="translate(34.1025 235.105833) scale(0.11 -0.11)">
       <defs>
        <path id="DejaVuSans-36" d="M 2113 2584 
Q 1688 2584 1439 2293 
Q 1191 2003 1191 1497 
Q 1191 994 1439 701 
Q 1688 409 2113 409 
Q 2538 409 2786 701 
Q 3034 994 3034 1497 
Q 3034 2003 2786 2293 
Q 2538 2584 2113 2584 
z
M 3366 4563 
L 3366 3988 
Q 3128 4100 2886 4159 
Q 2644 4219 2406 4219 
Q 1781 4219 1451 3797 
Q 1122 3375 1075 2522 
Q 1259 2794 1537 2939 
Q 1816 3084 2150 3084 
Q 2853 3084 3261 2657 
Q 3669 2231 3669 1497 
Q 3669 778 3244 343 
Q 2819 -91 2113 -91 
Q 1303 -91 875 529 
Q 447 1150 447 2328 
Q 447 3434 972 4092 
Q 1497 4750 2381 4750 
Q 2619 4750 2861 4703 
Q 3103 4656 3366 4563 
z
" transform="scale(0.015625)"/>
       </defs>
       <use xlink:href="#DejaVuSans-36"/>
       <use xlink:href="#DejaVuSans-30" x="63.623047"/>
      </g>
     </g>
    </g>
    <g id="ytick_3">
     <g id="line2d_3">
      <path d="M 57.6 173.615983 
L 414.72 173.615983 
" clip-path="url(#pc5d19e975b)" style="fill: none; stroke: #ffffff; stroke-linecap: round"/>
     </g>
     <g id="text_6">
      <!-- 80 -->
      <g style="fill: #262626" transform="translate(34.1025 177.795123) scale(0.11 -0.11)">
       <defs>
        <path id="DejaVuSans-38" d="M 2034 2216 
Q 1584 2216 1326 1975 
Q 1069 1734 1069 1313 
Q 1069 891 1326 650 
Q 1584 409 2034 409 
Q 2484 409 2743 651 
Q 3003 894 3003 1313 
Q 3003 1734 2745 1975 
Q 2488 2216 2034 2216 
z
M 1403 2484 
Q 997 2584 770 2862 
Q 544 3141 544 3541 
Q 544 4100 942 4425 
Q 1341 4750 2034 4750 
Q 2731 4750 3128 4425 
Q 3525 4100 3525 3541 
Q 3525 3141 3298 2862 
Q 3072 2584 2669 2484 
Q 3125 2378 3379 2068 
Q 3634 1759 3634 1313 
Q 3634 634 3220 271 
Q 2806 -91 2034 -91 
Q 1263 -91 848 271 
Q 434 634 434 1313 
Q 434 1759 690 2068 
Q 947 2378 1403 2484 
z
M 1172 3481 
Q 1172 3119 1398 2916 
Q 1625 2713 2034 2713 
Q 2441 2713 2670 2916 
Q 2900 3119 2900 3481 
Q 2900 3844 2670 4047 
Q 2441 4250 2034 4250 
Q 1625 4250 1398 4047 
Q 1172 3844 1172 3481 
z
" transform="scale(0.015625)"/>
       </defs>
       <use xlink:href="#DejaVuSans-38"/>
       <use xlink:href="#DejaVuSans-30" x="63.623047"/>
      </g>
     </g>
    </g>
    <g id="ytick_4">
     <g id="line2d_4">
      <path d="M 57.6 116.305273 
L 414.72 116.305273 
" clip-path="url(#pc5d19e975b)" style="fill: none; stroke: #ffffff; stroke-linecap: round"/>
     </g>
     <g id="text_7">
      <!-- 100 -->
      <g style="fill: #262626" transform="translate(27.10375 120.484414) scale(0.11 -0.11)">
       <defs>
        <path id="DejaVuSans-31" d="M 794 531 
L 1825 531 
L 1825 4091 
L 703 3866 
L 703 4441 
L 1819 4666 
L 2450 4666 
L 2450 531 
L 3481 531 
L 3481 0 
L 794 0 
L 794 531 
z
" transform="scale(0.015625)"/>
       </defs>
       <use xlink:href="#DejaVuSans-31"/>
       <use xlink:href="#DejaVuSans-30" x="63.623047"/>
       <use xlink:href="#DejaVuSans-30" x="127.246094"/>
      </g>
     </g>
    </g>
    <g id="ytick_5">
     <g id="line2d_5">
      <path d="M 57.6 58.994564 
L 414.72 58.994564 
" clip-path="url(#pc5d19e975b)" style="fill: none; stroke: #ffffff; stroke-linecap: round"/>
     </g>
     <g id="text_8">
      <!-- 120 -->
      <g style="fill: #262626" transform="translate(27.10375 63.173705) scale(0.11 -0.11)">
       <defs>
        <path id="DejaVuSans-32" d="M 1228 531 
L 3431 531 
L 3431 0 
L 469 0 
L 469 531 
Q 828 903 1448 1529 
Q 2069 2156 2228 2338 
Q 2531 2678 2651 2914 
Q 2772 3150 2772 3378 
Q 2772 3750 2511 3984 
Q 2250 4219 1831 4219 
Q 1534 4219 1204 4116 
Q 875 4013 500 3803 
L 500 4441 
Q 881 4594 1212 4672 
Q 1544 4750 1819 4750 
Q 2544 4750 2975 4387 
Q 3406 4025 3406 3419 
Q 3406 3131 3298 2873 
Q 3191 2616 2906 2266 
Q 2828 2175 2409 1742 
Q 1991 1309 1228 531 
z
" transform="scale(0.015625)"/>
       </defs>
       <use xlink:href="#DejaVuSans-31"/>
       <use xlink:href="#DejaVuSans-32" x="63.623047"/>
       <use xlink:href="#DejaVuSans-30" x="127.246094"/>
      </g>
     </g>
    </g>
    <g id="text_9">
     <!-- Percentage of QC Hosts Reads -->
     <g style="fill: #262626" transform="translate(20.608125 265.588312) rotate(-90) scale(0.12 -0.12)">
      <defs>
       <path id="DejaVuSans-50" d="M 1259 4147 
L 1259 2394 
L 2053 2394 
Q 2494 2394 2734 2622 
Q 2975 2850 2975 3272 
Q 2975 3691 2734 3919 
Q 2494 4147 2053 4147 
L 1259 4147 
z
M 628 4666 
L 2053 4666 
Q 2838 4666 3239 4311 
Q 3641 3956 3641 3272 
Q 3641 2581 3239 2228 
Q 2838 1875 2053 1875 
L 1259 1875 
L 1259 0 
L 628 0 
L 628 4666 
z
" transform="scale(0.015625)"/>
       <path id="DejaVuSans-72" d="M 2631 2963 
Q 2534 3019 2420 3045 
Q 2306 3072 2169 3072 
Q 1681 3072 1420 2755 
Q 1159 2438 1159 1844 
L 1159 0 
L 581 0 
L 581 3500 
L 1159 3500 
L 1159 2956 
Q 1341 3275 1631 3429 
Q 1922 3584 2338 3584 
Q 2397 3584 2469 3576 
Q 2541 3569 2628 3553 
L 2631 2963 
z
" transform="scale(0.015625)"/>
       <path id="DejaVuSans-63" d="M 3122 3366 
L 3122 2828 
Q 2878 2963 2633 3030 
Q 2388 3097 2138 3097 
Q 1578 3097 1268 2742 
Q 959 2388 959 1747 
Q 959 1106 1268 751 
Q 1578 397 2138 397 
Q 2388 397 2633 464 
Q 2878 531 3122 666 
L 3122 134 
Q 2881 22 2623 -34 
Q 2366 -91 2075 -91 
Q 1284 -91 818 406 
Q 353 903 353 1747 
Q 353 2603 823 3093 
Q 1294 3584 2113 3584 
Q 2378 3584 2631 3529 
Q 2884 3475 3122 3366 
z
" transform="scale(0.015625)"/>
       <path id="DejaVuSans-61" d="M 2194 1759 
Q 1497 1759 1228 1600 
Q 959 1441 959 1056 
Q 959 750 1161 570 
Q 1363 391 1709 391 
Q 2188 391 2477 730 
Q 2766 1069 2766 1631 
L 2766 1759 
L 2194 1759 
z
M 3341 1997 
L 3341 0 
L 2766 0 
L 2766 531 
Q 2569 213 2275 61 
Q 1981 -91 1556 -91 
Q 1019 -91 701 211 
Q 384 513 384 1019 
Q 384 1609 779 1909 
Q 1175 2209 1959 2209 
L 2766 2209 
L 2766 2266 
Q 2766 2663 2505 2880 
Q 2244 3097 1772 3097 
Q 1472 3097 1187 3025 
Q 903 2953 641 2809 
L 641 3341 
Q 956 3463 1253 3523 
Q 1550 3584 1831 3584 
Q 2591 3584 2966 3190 
Q 3341 2797 3341 1997 
z
" transform="scale(0.015625)"/>
       <path id="DejaVuSans-67" d="M 2906 1791 
Q 2906 2416 2648 2759 
Q 2391 3103 1925 3103 
Q 1463 3103 1205 2759 
Q 947 2416 947 1791 
Q 947 1169 1205 825 
Q 1463 481 1925 481 
Q 2391 481 2648 825 
Q 2906 1169 2906 1791 
z
M 3481 434 
Q 3481 -459 3084 -895 
Q 2688 -1331 1869 -1331 
Q 1566 -1331 1297 -1286 
Q 1028 -1241 775 -1147 
L 775 -588 
Q 1028 -725 1275 -790 
Q 1522 -856 1778 -856 
Q 2344 -856 2625 -561 
Q 2906 -266 2906 331 
L 2906 616 
Q 2728 306 2450 153 
Q 2172 0 1784 0 
Q 1141 0 747 490 
Q 353 981 353 1791 
Q 353 2603 747 3093 
Q 1141 3584 1784 3584 
Q 2172 3584 2450 3431 
Q 2728 3278 2906 2969 
L 2906 3500 
L 3481 3500 
L 3481 434 
z
" transform="scale(0.015625)"/>
       <path id="DejaVuSans-20" transform="scale(0.015625)"/>
       <path id="DejaVuSans-66" d="M 2375 4863 
L 2375 4384 
L 1825 4384 
Q 1516 4384 1395 4259 
Q 1275 4134 1275 3809 
L 1275 3500 
L 2222 3500 
L 2222 3053 
L 1275 3053 
L 1275 0 
L 697 0 
L 697 3053 
L 147 3053 
L 147 3500 
L 697 3500 
L 697 3744 
Q 697 4328 969 4595 
Q 1241 4863 1831 4863 
L 2375 4863 
z
" transform="scale(0.015625)"/>
       <path id="DejaVuSans-51" d="M 2522 4238 
Q 1834 4238 1429 3725 
Q 1025 3213 1025 2328 
Q 1025 1447 1429 934 
Q 1834 422 2522 422 
Q 3209 422 3611 934 
Q 4013 1447 4013 2328 
Q 4013 3213 3611 3725 
Q 3209 4238 2522 4238 
z
M 3406 84 
L 4238 -825 
L 3475 -825 
L 2784 -78 
Q 2681 -84 2626 -87 
Q 2572 -91 2522 -91 
Q 1538 -91 948 567 
Q 359 1225 359 2328 
Q 359 3434 948 4092 
Q 1538 4750 2522 4750 
Q 3503 4750 4090 4092 
Q 4678 3434 4678 2328 
Q 4678 1516 4351 937 
Q 4025 359 3406 84 
z
" transform="scale(0.015625)"/>
       <path id="DejaVuSans-43" d="M 4122 4306 
L 4122 3641 
Q 3803 3938 3442 4084 
Q 3081 4231 2675 4231 
Q 1875 4231 1450 3742 
Q 1025 3253 1025 2328 
Q 1025 1406 1450 917 
Q 1875 428 2675 428 
Q 3081 428 3442 575 
Q 3803 722 4122 1019 
L 4122 359 
Q 3791 134 3420 21 
Q 3050 -91 2638 -91 
Q 1578 -91 968 557 
Q 359 1206 359 2328 
Q 359 3453 968 4101 
Q 1578 4750 2638 4750 
Q 3056 4750 3426 4639 
Q 3797 4528 4122 4306 
z
" transform="scale(0.015625)"/>
       <path id="DejaVuSans-48" d="M 628 4666 
L 1259 4666 
L 1259 2753 
L 3553 2753 
L 3553 4666 
L 4184 4666 
L 4184 0 
L 3553 0 
L 3553 2222 
L 1259 2222 
L 1259 0 
L 628 0 
L 628 4666 
z
" transform="scale(0.015625)"/>
       <path id="DejaVuSans-52" d="M 2841 2188 
Q 3044 2119 3236 1894 
Q 3428 1669 3622 1275 
L 4263 0 
L 3584 0 
L 2988 1197 
Q 2756 1666 2539 1819 
Q 2322 1972 1947 1972 
L 1259 1972 
L 1259 0 
L 628 0 
L 628 4666 
L 2053 4666 
Q 2853 4666 3247 4331 
Q 3641 3997 3641 3322 
Q 3641 2881 3436 2590 
Q 3231 2300 2841 2188 
z
M 1259 4147 
L 1259 2491 
L 2053 2491 
Q 2509 2491 2742 2702 
Q 2975 2913 2975 3322 
Q 2975 3731 2742 3939 
Q 2509 4147 2053 4147 
L 1259 4147 
z
" transform="scale(0.015625)"/>
       <path id="DejaVuSans-64" d="M 2906 2969 
L 2906 4863 
L 3481 4863 
L 3481 0 
L 2906 0 
L 2906 525 
Q 2725 213 2448 61 
Q 2172 -91 1784 -91 
Q 1150 -91 751 415 
Q 353 922 353 1747 
Q 353 2572 751 3078 
Q 1150 3584 1784 3584 
Q 2172 3584 2448 3432 
Q 2725 3281 2906 2969 
z
M 947 1747 
Q 947 1113 1208 752 
Q 1469 391 1925 391 
Q 2381 391 2643 752 
Q 2906 1113 2906 1747 
Q 2906 2381 2643 2742 
Q 2381 3103 1925 3103 
Q 1469 3103 1208 2742 
Q 947 2381 947 1747 
z
" transform="scale(0.015625)"/>
      </defs>
      <use xlink:href="#DejaVuSans-50"/>
      <use xlink:href="#DejaVuSans-65" x="56.677734"/>
      <use xlink:href="#DejaVuSans-72" x="118.201172"/>
      <use xlink:href="#DejaVuSans-63" x="157.064453"/>
      <use xlink:href="#DejaVuSans-65" x="212.044922"/>
      <use xlink:href="#DejaVuSans-6e" x="273.568359"/>
      <use xlink:href="#DejaVuSans-74" x="336.947266"/>
      <use xlink:href="#DejaVuSans-61" x="376.15625"/>
      <use xlink:href="#DejaVuSans-67" x="437.435547"/>
      <use xlink:href="#DejaVuSans-65" x="500.912109"/>
      <use xlink:href="#DejaVuSans-20" x="562.435547"/>
      <use xlink:href="#DejaVuSans-6f" x="594.222656"/>
      <use xlink:href="#DejaVuSans-66" x="655.404297"/>
      <use xlink:href="#DejaVuSans-20" x="690.609375"/>
      <use xlink:href="#DejaVuSans-51" x="722.396484"/>
      <use xlink:href="#DejaVuSans-43" x="801.107422"/>
      <use xlink:href="#DejaVuSans-20" x="870.931641"/>
      <use xlink:href="#DejaVuSans-48" x="902.71875"/>
      <use xlink:href="#DejaVuSans-6f" x="977.914062"/>
      <use xlink:href="#DejaVuSans-73" x="1039.095703"/>
      <use xlink:href="#DejaVuSans-74" x="1091.195312"/>
      <use xlink:href="#DejaVuSans-73" x="1130.404297"/>
      <use xlink:href="#DejaVuSans-20" x="1182.503906"/>
      <use xlink:href="#DejaVuSans-52" x="1214.291016"/>
      <use xlink:href="#DejaVuSans-65" x="1279.273438"/>
      <use xlink:href="#DejaVuSans-61" x="1340.796875"/>
      <use xlink:href="#DejaVuSans-64" x="1402.076172"/>
      <use xlink:href="#DejaVuSans-73" x="1465.552734"/>
     </g>
    </g>
   </g>
   <g id="PolyCollection_1">
    <defs>
     <path id="m77ae4c272e" d="M 147.578588 -61.790336 
L 146.181412 -61.790336 
L 145.992201 -63.851308 
L 145.762665 -65.91228 
L 145.487356 -67.973253 
L 145.160923 -70.034225 
L 144.778349 -72.095198 
L 144.33524 -74.15617 
L 143.828141 -76.217143 
L 143.25487 -78.278115 
L 142.614848 -80.339088 
L 141.909418 -82.40006 
L 141.142114 -84.461033 
L 140.318867 -86.522005 
L 139.448124 -88.582978 
L 138.540848 -90.64395 
L 137.610407 -92.704923 
L 136.672314 -94.765895 
L 135.743841 -96.826868 
L 134.843503 -98.88784 
L 133.990435 -100.948812 
L 133.203683 -103.009785 
L 132.501449 -105.070757 
L 131.900327 -107.13173 
L 131.414571 -109.192702 
L 131.055436 -111.253675 
L 130.830636 -113.314647 
L 130.74394 -115.37562 
L 130.794933 -117.436592 
L 130.978963 -119.497565 
L 131.28726 -121.558537 
L 131.707224 -123.61951 
L 132.222868 -125.680482 
L 132.815385 -127.741455 
L 133.463804 -129.802427 
L 134.145712 -131.863399 
L 134.837996 -133.924372 
L 135.51758 -135.985344 
L 136.162129 -138.046317 
L 136.750692 -140.107289 
L 137.264261 -142.168262 
L 137.686237 -144.229234 
L 138.00278 -146.290207 
L 138.203035 -148.351179 
L 138.279231 -150.412152 
L 138.226624 -152.473124 
L 138.043313 -154.534097 
L 137.729889 -156.595069 
L 137.28895 -158.656042 
L 136.724488 -160.717014 
L 136.041153 -162.777986 
L 135.243456 -164.838959 
L 134.334926 -166.899931 
L 133.317307 -168.960904 
L 132.189844 -171.021876 
L 130.948735 -173.082849 
L 129.586835 -175.143821 
L 128.093674 -177.204794 
L 126.455843 -179.265766 
L 124.657802 -181.326739 
L 122.683095 -183.387711 
L 120.515966 -185.448684 
L 118.143297 -187.509656 
L 115.556766 -189.570629 
L 112.755092 -191.631601 
L 109.746181 -193.692573 
L 106.548994 -195.753546 
L 103.194949 -197.814518 
L 99.72866 -199.875491 
L 96.207894 -201.936463 
L 92.702614 -203.997436 
L 89.293112 -206.058408 
L 86.06724 -208.119381 
L 83.116864 -210.180353 
L 80.533743 -212.241326 
L 78.405051 -214.302298 
L 76.808873 -216.363271 
L 75.809949 -218.424243 
L 75.456 -220.485216 
L 75.774897 -222.546188 
L 76.77288 -224.607161 
L 78.433975 -226.668133 
L 80.720642 -228.729105 
L 83.575608 -230.790078 
L 86.924753 -232.85105 
L 90.680816 -234.912023 
L 94.74767 -236.972995 
L 99.024857 -239.033968 
L 103.41208 -241.09494 
L 107.813373 -243.155913 
L 112.140711 -245.216885 
L 116.316887 -247.277858 
L 120.27754 -249.33883 
L 123.97231 -251.399803 
L 127.365145 -253.460775 
L 130.433841 -255.521748 
L 133.168957 -257.58272 
L 135.572255 -259.643692 
L 137.654827 -261.704665 
L 139.435076 -263.765637 
L 140.936696 -265.82661 
L 152.823304 -265.82661 
L 152.823304 -265.82661 
L 154.324924 -263.765637 
L 156.105173 -261.704665 
L 158.187745 -259.643692 
L 160.591043 -257.58272 
L 163.326159 -255.521748 
L 166.394855 -253.460775 
L 169.78769 -251.399803 
L 173.48246 -249.33883 
L 177.443113 -247.277858 
L 181.619289 -245.216885 
L 185.946627 -243.155913 
L 190.34792 -241.09494 
L 194.735143 -239.033968 
L 199.01233 -236.972995 
L 203.079184 -234.912023 
L 206.835247 -232.85105 
L 210.184392 -230.790078 
L 213.039358 -228.729105 
L 215.326025 -226.668133 
L 216.98712 -224.607161 
L 217.985103 -222.546188 
L 218.304 -220.485216 
L 217.950051 -218.424243 
L 216.951127 -216.363271 
L 215.354949 -214.302298 
L 213.226257 -212.241326 
L 210.643136 -210.180353 
L 207.69276 -208.119381 
L 204.466888 -206.058408 
L 201.057386 -203.997436 
L 197.552106 -201.936463 
L 194.03134 -199.875491 
L 190.565051 -197.814518 
L 187.211006 -195.753546 
L 184.013819 -193.692573 
L 181.004908 -191.631601 
L 178.203234 -189.570629 
L 175.616703 -187.509656 
L 173.244034 -185.448684 
L 171.076905 -183.387711 
L 169.102198 -181.326739 
L 167.304157 -179.265766 
L 165.666326 -177.204794 
L 164.173165 -175.143821 
L 162.811265 -173.082849 
L 161.570156 -171.021876 
L 160.442693 -168.960904 
L 159.425074 -166.899931 
L 158.516544 -164.838959 
L 157.718847 -162.777986 
L 157.035512 -160.717014 
L 156.47105 -158.656042 
L 156.030111 -156.595069 
L 155.716687 -154.534097 
L 155.533376 -152.473124 
L 155.480769 -150.412152 
L 155.556965 -148.351179 
L 155.75722 -146.290207 
L 156.073763 -144.229234 
L 156.495739 -142.168262 
L 157.009308 -140.107289 
L 157.597871 -138.046317 
L 158.24242 -135.985344 
L 158.922004 -133.924372 
L 159.614288 -131.863399 
L 160.296196 -129.802427 
L 160.944615 -127.741455 
L 161.537132 -125.680482 
L 162.052776 -123.61951 
L 162.47274 -121.558537 
L 162.781037 -119.497565 
L 162.965067 -117.436592 
L 163.01606 -115.37562 
L 162.929364 -113.314647 
L 162.704564 -111.253675 
L 162.345429 -109.192702 
L 161.859673 -107.13173 
L 161.258551 -105.070757 
L 160.556317 -103.009785 
L 159.769565 -100.948812 
L 158.916497 -98.88784 
L 158.016159 -96.826868 
L 157.087686 -94.765895 
L 156.149593 -92.704923 
L 155.219152 -90.64395 
L 154.311876 -88.582978 
L 153.441133 -86.522005 
L 152.617886 -84.461033 
L 151.850582 -82.40006 
L 151.145152 -80.339088 
L 150.50513 -78.278115 
L 149.931859 -76.217143 
L 149.42476 -74.15617 
L 148.981651 -72.095198 
L 148.599077 -70.034225 
L 148.272644 -67.973253 
L 147.997335 -65.91228 
L 147.767799 -63.851308 
L 147.578588 -61.790336 
z
" style="stroke: #4c4c4c; stroke-width: 1.5"/>
    </defs>
    <g clip-path="url(#pc5d19e975b)">
     <use xlink:href="#m77ae4c272e" x="0" y="345.6" style="fill: #5875a4; stroke: #4c4c4c; stroke-width: 1.5"/>
    </g>
   </g>
   <g id="PolyCollection_2">
    <defs>
     <path id="m6661a601df" d="M 327.190948 -50.112 
L 323.689052 -50.112 
L 323.400998 -52.555636 
L 323.077263 -54.999273 
L 322.715591 -57.442909 
L 322.313957 -59.886545 
L 321.870639 -62.330182 
L 321.384293 -64.773818 
L 320.854029 -67.217455 
L 320.279478 -69.661091 
L 319.66086 -72.104727 
L 318.99904 -74.548364 
L 318.295576 -76.992 
L 317.552747 -79.435636 
L 316.773576 -81.879273 
L 315.961821 -84.322909 
L 315.121957 -86.766545 
L 314.259129 -89.210182 
L 313.379092 -91.653818 
L 312.488116 -94.097455 
L 311.592887 -96.541091 
L 310.700379 -98.984727 
L 309.817711 -101.428364 
L 308.951996 -103.872 
L 308.110183 -106.315636 
L 307.298887 -108.759273 
L 306.524232 -111.202909 
L 305.79169 -113.646545 
L 305.105941 -116.090182 
L 304.470741 -118.533818 
L 303.888816 -120.977455 
L 303.361781 -123.421091 
L 302.890079 -125.864727 
L 302.472961 -128.308364 
L 302.108487 -130.752 
L 301.793561 -133.195636 
L 301.523999 -135.639273 
L 301.294622 -138.082909 
L 301.099375 -140.526545 
L 300.931476 -142.970182 
L 300.783574 -145.413818 
L 300.647931 -147.857455 
L 300.516615 -150.301091 
L 300.381695 -152.744727 
L 300.235442 -155.188364 
L 300.070533 -157.632 
L 299.880241 -160.075636 
L 299.658624 -162.519273 
L 299.400695 -164.962909 
L 299.102578 -167.406545 
L 298.761648 -169.850182 
L 298.376639 -172.293818 
L 297.947737 -174.737455 
L 297.476634 -177.181091 
L 296.966562 -179.624727 
L 296.422285 -182.068364 
L 295.85006 -184.512 
L 295.257564 -186.955636 
L 294.653779 -189.399273 
L 294.048848 -191.842909 
L 293.453891 -194.286545 
L 292.880792 -196.730182 
L 292.341956 -199.173818 
L 291.850042 -201.617455 
L 291.417679 -204.061091 
L 291.057169 -206.504727 
L 290.780193 -208.948364 
L 290.597513 -211.392 
L 290.518697 -213.835636 
L 290.55186 -216.279273 
L 290.703444 -218.722909 
L 290.978031 -221.166545 
L 291.378205 -223.610182 
L 291.904466 -226.053818 
L 292.555193 -228.497455 
L 293.326672 -230.941091 
L 294.213174 -233.384727 
L 295.207084 -235.828364 
L 296.299083 -238.272 
L 297.478375 -240.715636 
L 298.73294 -243.159273 
L 300.049819 -245.602909 
L 301.415417 -248.046545 
L 302.815808 -250.490182 
L 304.237036 -252.933818 
L 305.665412 -255.377455 
L 307.087779 -257.821091 
L 308.491753 -260.264727 
L 309.865934 -262.708364 
L 311.200075 -265.152 
L 312.485204 -267.595636 
L 313.713717 -270.039273 
L 314.879419 -272.482909 
L 315.97753 -274.926545 
L 317.004654 -277.370182 
L 317.958715 -279.813818 
L 318.838873 -282.257455 
L 319.645405 -284.701091 
L 320.379586 -287.144727 
L 321.043547 -289.588364 
L 321.640135 -292.032 
L 329.239865 -292.032 
L 329.239865 -292.032 
L 329.836453 -289.588364 
L 330.500414 -287.144727 
L 331.234595 -284.701091 
L 332.041127 -282.257455 
L 332.921285 -279.813818 
L 333.875346 -277.370182 
L 334.90247 -274.926545 
L 336.000581 -272.482909 
L 337.166283 -270.039273 
L 338.394796 -267.595636 
L 339.679925 -265.152 
L 341.014066 -262.708364 
L 342.388247 -260.264727 
L 343.792221 -257.821091 
L 345.214588 -255.377455 
L 346.642964 -252.933818 
L 348.064192 -250.490182 
L 349.464583 -248.046545 
L 350.830181 -245.602909 
L 352.14706 -243.159273 
L 353.401625 -240.715636 
L 354.580917 -238.272 
L 355.672916 -235.828364 
L 356.666826 -233.384727 
L 357.553328 -230.941091 
L 358.324807 -228.497455 
L 358.975534 -226.053818 
L 359.501795 -223.610182 
L 359.901969 -221.166545 
L 360.176556 -218.722909 
L 360.32814 -216.279273 
L 360.361303 -213.835636 
L 360.282487 -211.392 
L 360.099807 -208.948364 
L 359.822831 -206.504727 
L 359.462321 -204.061091 
L 359.029958 -201.617455 
L 358.538044 -199.173818 
L 357.999208 -196.730182 
L 357.426109 -194.286545 
L 356.831152 -191.842909 
L 356.226221 -189.399273 
L 355.622436 -186.955636 
L 355.02994 -184.512 
L 354.457715 -182.068364 
L 353.913438 -179.624727 
L 353.403366 -177.181091 
L 352.932263 -174.737455 
L 352.503361 -172.293818 
L 352.118352 -169.850182 
L 351.777422 -167.406545 
L 351.479305 -164.962909 
L 351.221376 -162.519273 
L 350.999759 -160.075636 
L 350.809467 -157.632 
L 350.644558 -155.188364 
L 350.498305 -152.744727 
L 350.363385 -150.301091 
L 350.232069 -147.857455 
L 350.096426 -145.413818 
L 349.948524 -142.970182 
L 349.780625 -140.526545 
L 349.585378 -138.082909 
L 349.356001 -135.639273 
L 349.086439 -133.195636 
L 348.771513 -130.752 
L 348.407039 -128.308364 
L 347.989921 -125.864727 
L 347.518219 -123.421091 
L 346.991184 -120.977455 
L 346.409259 -118.533818 
L 345.774059 -116.090182 
L 345.08831 -113.646545 
L 344.355768 -111.202909 
L 343.581113 -108.759273 
L 342.769817 -106.315636 
L 341.928004 -103.872 
L 341.062289 -101.428364 
L 340.179621 -98.984727 
L 339.287113 -96.541091 
L 338.391884 -94.097455 
L 337.500908 -91.653818 
L 336.620871 -89.210182 
L 335.758043 -86.766545 
L 334.918179 -84.322909 
L 334.106424 -81.879273 
L 333.327253 -79.435636 
L 332.584424 -76.992 
L 331.88096 -74.548364 
L 331.21914 -72.104727 
L 330.600522 -69.661091 
L 330.025971 -67.217455 
L 329.495707 -64.773818 
L 329.009361 -62.330182 
L 328.566043 -59.886545 
L 328.164409 -57.442909 
L 327.802737 -54.999273 
L 327.479002 -52.555636 
L 327.190948 -50.112 
z
" style="stroke: #4c4c4c; stroke-width: 1.5"/>
    </defs>
    <g clip-path="url(#pc5d19e975b)">
     <use xlink:href="#m6661a601df" x="0" y="345.6" style="fill: #cc8963; stroke: #4c4c4c; stroke-width: 1.5"/>
    </g>
   </g>
   <g id="line2d_6">
    <path d="M 146.88 211.339618 
L 146.88 118.9086 
" clip-path="url(#pc5d19e975b)" style="fill: none; stroke: #4c4c4c; stroke-width: 1.5; stroke-linecap: round"/>
   </g>
   <g id="line2d_7">
    <path d="M 146.88 159.906972 
L 146.88 121.995699 
" clip-path="url(#pc5d19e975b)" style="fill: none; stroke: #4c4c4c; stroke-width: 4.5; stroke-linecap: round"/>
   </g>
   <g id="line2d_8">
    <path d="M 325.44 228.24618 
L 325.44 120.80982 
" clip-path="url(#pc5d19e975b)" style="fill: none; stroke: #4c4c4c; stroke-width: 1.5; stroke-linecap: round"/>
   </g>
   <g id="line2d_9">
    <path d="M 325.44 199.652319 
L 325.44 121.822423 
" clip-path="url(#pc5d19e975b)" style="fill: none; stroke: #4c4c4c; stroke-width: 4.5; stroke-linecap: round"/>
   </g>
   <g id="patch_3">
    <path d="M 57.6 307.584 
L 57.6 41.472 
" style="fill: none; stroke: #ffffff; stroke-width: 1.25; stroke-linejoin: miter; stroke-linecap: square"/>
   </g>
   <g id="patch_4">
    <path d="M 414.72 307.584 
L 414.72 41.472 
" style="fill: none; stroke: #ffffff; stroke-width: 1.25; stroke-linejoin: miter; stroke-linecap: square"/>
   </g>
   <g id="patch_5">
    <path d="M 57.6 307.584 
L 414.72 307.584 
" style="fill: none; stroke: #ffffff; stroke-width: 1.25; stroke-linejoin: miter; stroke-linecap: square"/>
   </g>
   <g id="patch_6">
    <path d="M 57.6 41.472 
L 414.72 41.472 
" style="fill: none; stroke: #ffffff; stroke-width: 1.25; stroke-linejoin: miter; stroke-linecap: square"/>
   </g>
   <g id="PathCollection_1">
    <defs>
     <path id="mb19bf703bf" d="M 0 1.5 
C 0.397805 1.5 0.77937 1.341951 1.06066 1.06066 
C 1.341951 0.77937 1.5 0.397805 1.5 0 
C 1.5 -0.397805 1.341951 -0.77937 1.06066 -1.06066 
C 0.77937 -1.341951 0.397805 -1.5 0 -1.5 
C -0.397805 -1.5 -0.77937 -1.341951 -1.06066 -1.06066 
C -1.341951 -0.77937 -1.5 -0.397805 -1.5 0 
C -1.5 0.397805 -1.341951 0.77937 -1.06066 1.06066 
C -0.77937 1.341951 -0.397805 1.5 0 1.5 
z
" style="stroke: #4c4c4c"/>
    </defs>
    <g clip-path="url(#pc5d19e975b)">
     <use xlink:href="#mb19bf703bf" x="146.88" y="124.693951" style="fill: #ffffff; stroke: #4c4c4c"/>
    </g>
   </g>
   <g id="PathCollection_2">
    <g clip-path="url(#pc5d19e975b)">
     <use xlink:href="#mb19bf703bf" x="325.44" y="145.754091" style="fill: #ffffff; stroke: #4c4c4c"/>
    </g>
   </g>
   <g id="text_10">
    <!-- Percentage of QC Hosts Reads vs Chicken Deplition -->
    <g style="fill: #262626" transform="translate(82.045312 35.472) scale(0.12 -0.12)">
     <defs>
      <path id="DejaVuSans-76" d="M 191 3500 
L 800 3500 
L 1894 563 
L 2988 3500 
L 3597 3500 
L 2284 0 
L 1503 0 
L 191 3500 
z
" transform="scale(0.015625)"/>
      <path id="DejaVuSans-68" d="M 3513 2113 
L 3513 0 
L 2938 0 
L 2938 2094 
Q 2938 2591 2744 2837 
Q 2550 3084 2163 3084 
Q 1697 3084 1428 2787 
Q 1159 2491 1159 1978 
L 1159 0 
L 581 0 
L 581 4863 
L 1159 4863 
L 1159 2956 
Q 1366 3272 1645 3428 
Q 1925 3584 2291 3584 
Q 2894 3584 3203 3211 
Q 3513 2838 3513 2113 
z
" transform="scale(0.015625)"/>
      <path id="DejaVuSans-6b" d="M 581 4863 
L 1159 4863 
L 1159 1991 
L 2875 3500 
L 3609 3500 
L 1753 1863 
L 3688 0 
L 2938 0 
L 1159 1709 
L 1159 0 
L 581 0 
L 581 4863 
z
" transform="scale(0.015625)"/>
     </defs>
     <use xlink:href="#DejaVuSans-50"/>
     <use xlink:href="#DejaVuSans-65" x="56.677734"/>
     <use xlink:href="#DejaVuSans-72" x="118.201172"/>
     <use xlink:href="#DejaVuSans-63" x="157.064453"/>
     <use xlink:href="#DejaVuSans-65" x="212.044922"/>
     <use xlink:href="#DejaVuSans-6e" x="273.568359"/>
     <use xlink:href="#DejaVuSans-74" x="336.947266"/>
     <use xlink:href="#DejaVuSans-61" x="376.15625"/>
     <use xlink:href="#DejaVuSans-67" x="437.435547"/>
     <use xlink:href="#DejaVuSans-65" x="500.912109"/>
     <use xlink:href="#DejaVuSans-20" x="562.435547"/>
     <use xlink:href="#DejaVuSans-6f" x="594.222656"/>
     <use xlink:href="#DejaVuSans-66" x="655.404297"/>
     <use xlink:href="#DejaVuSans-20" x="690.609375"/>
     <use xlink:href="#DejaVuSans-51" x="722.396484"/>
     <use xlink:href="#DejaVuSans-43" x="801.107422"/>
     <use xlink:href="#DejaVuSans-20" x="870.931641"/>
     <use xlink:href="#DejaVuSans-48" x="902.71875"/>
     <use xlink:href="#DejaVuSans-6f" x="977.914062"/>
     <use xlink:href="#DejaVuSans-73" x="1039.095703"/>
     <use xlink:href="#DejaVuSans-74" x="1091.195312"/>
     <use xlink:href="#DejaVuSans-73" x="1130.404297"/>
     <use xlink:href="#DejaVuSans-20" x="1182.503906"/>
     <use xlink:href="#DejaVuSans-52" x="1214.291016"/>
     <use xlink:href="#DejaVuSans-65" x="1279.273438"/>
     <use xlink:href="#DejaVuSans-61" x="1340.796875"/>
     <use xlink:href="#DejaVuSans-64" x="1402.076172"/>
     <use xlink:href="#DejaVuSans-73" x="1465.552734"/>
     <use xlink:href="#DejaVuSans-20" x="1517.652344"/>
     <use xlink:href="#DejaVuSans-76" x="1549.439453"/>
     <use xlink:href="#DejaVuSans-73" x="1608.619141"/>
     <use xlink:href="#DejaVuSans-20" x="1660.71875"/>
     <use xlink:href="#DejaVuSans-43" x="1692.505859"/>
     <use xlink:href="#DejaVuSans-68" x="1762.330078"/>
     <use xlink:href="#DejaVuSans-69" x="1825.708984"/>
     <use xlink:href="#DejaVuSans-63" x="1853.492188"/>
     <use xlink:href="#DejaVuSans-6b" x="1908.472656"/>
     <use xlink:href="#DejaVuSans-65" x="1962.757812"/>
     <use xlink:href="#DejaVuSans-6e" x="2024.28125"/>
     <use xlink:href="#DejaVuSans-20" x="2087.660156"/>
     <use xlink:href="#DejaVuSans-44" x="2119.447266"/>
     <use xlink:href="#DejaVuSans-65" x="2196.449219"/>
     <use xlink:href="#DejaVuSans-70" x="2257.972656"/>
     <use xlink:href="#DejaVuSans-6c" x="2321.449219"/>
     <use xlink:href="#DejaVuSans-69" x="2349.232422"/>
     <use xlink:href="#DejaVuSans-74" x="2377.015625"/>
     <use xlink:href="#DejaVuSans-69" x="2416.224609"/>
     <use xlink:href="#DejaVuSans-6f" x="2444.007812"/>
     <use xlink:href="#DejaVuSans-6e" x="2505.189453"/>
    </g>
   </g>
  </g>
 </g>
 <defs>
  <clipPath id="pc5d19e975b">
   <rect x="57.6" y="41.472" width="357.12" height="266.112"/>
  </clipPath>
 </defs>
</svg>
