<?xml version="1.0" encoding="utf-8" standalone="no"?>
<!DOCTYPE svg PUBLIC "-//W3C//DTD SVG 1.1//EN"
  "http://www.w3.org/Graphics/SVG/1.1/DTD/svg11.dtd">
<svg xmlns:xlink="http://www.w3.org/1999/xlink" width="460.8pt" height="345.6pt" viewBox="0 0 460.8 345.6" xmlns="http://www.w3.org/2000/svg" version="1.1">
 <metadata>
  <rdf:RDF xmlns:dc="http://purl.org/dc/elements/1.1/" xmlns:cc="http://creativecommons.org/ns#" xmlns:rdf="http://www.w3.org/1999/02/22-rdf-syntax-ns#">
   <cc:Work>
    <dc:type rdf:resource="http://purl.org/dc/dcmitype/StillImage"/>
    <dc:date>2023-09-26T16:21:45.229236</dc:date>
    <dc:format>image/svg+xml</dc:format>
    <dc:creator>
     <cc:Agent>
      <dc:title>Matplotlib v3.7.1, https://matplotlib.org/</dc:title>
     </cc:Agent>
    </dc:creator>
   </cc:Work>
  </rdf:RDF>
 </metadata>
 <defs>
  <style type="text/css">*{stroke-linejoin: round; stroke-linecap: butt}</style>
 </defs>
 <g id="figure_1">
  <g id="patch_1">
   <path d="M 0 345.6 
L 460.8 345.6 
L 460.8 0 
L 0 0 
z
" style="fill: #ffffff"/>
  </g>
  <g id="axes_1">
   <g id="patch_2">
    <path d="M 57.6 307.584 
L 414.72 307.584 
L 414.72 41.472 
L 57.6 41.472 
z
" style="fill: #eaeaf2"/>
   </g>
   <g id="matplotlib.axis_1">
    <g id="xtick_1">
     <g id="text_1">
      <!-- Salmonella enterica -->
      <g style="fill: #262626" transform="translate(92.129219 325.442281) scale(0.11 -0.11)">
       <defs>
        <path id="DejaVuSans-53" d="M 3425 4513 
L 3425 3897 
Q 3066 4069 2747 4153 
Q 2428 4238 2131 4238 
Q 1616 4238 1336 4038 
Q 1056 3838 1056 3469 
Q 1056 3159 1242 3001 
Q 1428 2844 1947 2747 
L 2328 2669 
Q 3034 2534 3370 2195 
Q 3706 1856 3706 1288 
Q 3706 609 3251 259 
Q 2797 -91 1919 -91 
Q 1588 -91 1214 -16 
Q 841 59 441 206 
L 441 856 
Q 825 641 1194 531 
Q 1563 422 1919 422 
Q 2459 422 2753 634 
Q 3047 847 3047 1241 
Q 3047 1584 2836 1778 
Q 2625 1972 2144 2069 
L 1759 2144 
Q 1053 2284 737 2584 
Q 422 2884 422 3419 
Q 422 4038 858 4394 
Q 1294 4750 2059 4750 
Q 2388 4750 2728 4690 
Q 3069 4631 3425 4513 
z
" transform="scale(0.015625)"/>
        <path id="DejaVuSans-61" d="M 2194 1759 
Q 1497 1759 1228 1600 
Q 959 1441 959 1056 
Q 959 750 1161 570 
Q 1363 391 1709 391 
Q 2188 391 2477 730 
Q 2766 1069 2766 1631 
L 2766 1759 
L 2194 1759 
z
M 3341 1997 
L 3341 0 
L 2766 0 
L 2766 531 
Q 2569 213 2275 61 
Q 1981 -91 1556 -91 
Q 1019 -91 701 211 
Q 384 513 384 1019 
Q 384 1609 779 1909 
Q 1175 2209 1959 2209 
L 2766 2209 
L 2766 2266 
Q 2766 2663 2505 2880 
Q 2244 3097 1772 3097 
Q 1472 3097 1187 3025 
Q 903 2953 641 2809 
L 641 3341 
Q 956 3463 1253 3523 
Q 1550 3584 1831 3584 
Q 2591 3584 2966 3190 
Q 3341 2797 3341 1997 
z
" transform="scale(0.015625)"/>
        <path id="DejaVuSans-6c" d="M 603 4863 
L 1178 4863 
L 1178 0 
L 603 0 
L 603 4863 
z
" transform="scale(0.015625)"/>
        <path id="DejaVuSans-6d" d="M 3328 2828 
Q 3544 3216 3844 3400 
Q 4144 3584 4550 3584 
Q 5097 3584 5394 3201 
Q 5691 2819 5691 2113 
L 5691 0 
L 5113 0 
L 5113 2094 
Q 5113 2597 4934 2840 
Q 4756 3084 4391 3084 
Q 3944 3084 3684 2787 
Q 3425 2491 3425 1978 
L 3425 0 
L 2847 0 
L 2847 2094 
Q 2847 2600 2669 2842 
Q 2491 3084 2119 3084 
Q 1678 3084 1418 2786 
Q 1159 2488 1159 1978 
L 1159 0 
L 581 0 
L 581 3500 
L 1159 3500 
L 1159 2956 
Q 1356 3278 1631 3431 
Q 1906 3584 2284 3584 
Q 2666 3584 2933 3390 
Q 3200 3197 3328 2828 
z
" transform="scale(0.015625)"/>
        <path id="DejaVuSans-6f" d="M 1959 3097 
Q 1497 3097 1228 2736 
Q 959 2375 959 1747 
Q 959 1119 1226 758 
Q 1494 397 1959 397 
Q 2419 397 2687 759 
Q 2956 1122 2956 1747 
Q 2956 2369 2687 2733 
Q 2419 3097 1959 3097 
z
M 1959 3584 
Q 2709 3584 3137 3096 
Q 3566 2609 3566 1747 
Q 3566 888 3137 398 
Q 2709 -91 1959 -91 
Q 1206 -91 779 398 
Q 353 888 353 1747 
Q 353 2609 779 3096 
Q 1206 3584 1959 3584 
z
" transform="scale(0.015625)"/>
        <path id="DejaVuSans-6e" d="M 3513 2113 
L 3513 0 
L 2938 0 
L 2938 2094 
Q 2938 2591 2744 2837 
Q 2550 3084 2163 3084 
Q 1697 3084 1428 2787 
Q 1159 2491 1159 1978 
L 1159 0 
L 581 0 
L 581 3500 
L 1159 3500 
L 1159 2956 
Q 1366 3272 1645 3428 
Q 1925 3584 2291 3584 
Q 2894 3584 3203 3211 
Q 3513 2838 3513 2113 
z
" transform="scale(0.015625)"/>
        <path id="DejaVuSans-65" d="M 3597 1894 
L 3597 1613 
L 953 1613 
Q 991 1019 1311 708 
Q 1631 397 2203 397 
Q 2534 397 2845 478 
Q 3156 559 3463 722 
L 3463 178 
Q 3153 47 2828 -22 
Q 2503 -91 2169 -91 
Q 1331 -91 842 396 
Q 353 884 353 1716 
Q 353 2575 817 3079 
Q 1281 3584 2069 3584 
Q 2775 3584 3186 3129 
Q 3597 2675 3597 1894 
z
M 3022 2063 
Q 3016 2534 2758 2815 
Q 2500 3097 2075 3097 
Q 1594 3097 1305 2825 
Q 1016 2553 972 2059 
L 3022 2063 
z
" transform="scale(0.015625)"/>
        <path id="DejaVuSans-20" transform="scale(0.015625)"/>
        <path id="DejaVuSans-74" d="M 1172 4494 
L 1172 3500 
L 2356 3500 
L 2356 3053 
L 1172 3053 
L 1172 1153 
Q 1172 725 1289 603 
Q 1406 481 1766 481 
L 2356 481 
L 2356 0 
L 1766 0 
Q 1100 0 847 248 
Q 594 497 594 1153 
L 594 3053 
L 172 3053 
L 172 3500 
L 594 3500 
L 594 4494 
L 1172 4494 
z
" transform="scale(0.015625)"/>
        <path id="DejaVuSans-72" d="M 2631 2963 
Q 2534 3019 2420 3045 
Q 2306 3072 2169 3072 
Q 1681 3072 1420 2755 
Q 1159 2438 1159 1844 
L 1159 0 
L 581 0 
L 581 3500 
L 1159 3500 
L 1159 2956 
Q 1341 3275 1631 3429 
Q 1922 3584 2338 3584 
Q 2397 3584 2469 3576 
Q 2541 3569 2628 3553 
L 2631 2963 
z
" transform="scale(0.015625)"/>
        <path id="DejaVuSans-69" d="M 603 3500 
L 1178 3500 
L 1178 0 
L 603 0 
L 603 3500 
z
M 603 4863 
L 1178 4863 
L 1178 4134 
L 603 4134 
L 603 4863 
z
" transform="scale(0.015625)"/>
        <path id="DejaVuSans-63" d="M 3122 3366 
L 3122 2828 
Q 2878 2963 2633 3030 
Q 2388 3097 2138 3097 
Q 1578 3097 1268 2742 
Q 959 2388 959 1747 
Q 959 1106 1268 751 
Q 1578 397 2138 397 
Q 2388 397 2633 464 
Q 2878 531 3122 666 
L 3122 134 
Q 2881 22 2623 -34 
Q 2366 -91 2075 -91 
Q 1284 -91 818 406 
Q 353 903 353 1747 
Q 353 2603 823 3093 
Q 1294 3584 2113 3584 
Q 2378 3584 2631 3529 
Q 2884 3475 3122 3366 
z
" transform="scale(0.015625)"/>
       </defs>
       <use xlink:href="#DejaVuSans-53"/>
       <use xlink:href="#DejaVuSans-61" x="63.476562"/>
       <use xlink:href="#DejaVuSans-6c" x="124.755859"/>
       <use xlink:href="#DejaVuSans-6d" x="152.539062"/>
       <use xlink:href="#DejaVuSans-6f" x="249.951172"/>
       <use xlink:href="#DejaVuSans-6e" x="311.132812"/>
       <use xlink:href="#DejaVuSans-65" x="374.511719"/>
       <use xlink:href="#DejaVuSans-6c" x="436.035156"/>
       <use xlink:href="#DejaVuSans-6c" x="463.818359"/>
       <use xlink:href="#DejaVuSans-61" x="491.601562"/>
       <use xlink:href="#DejaVuSans-20" x="552.880859"/>
       <use xlink:href="#DejaVuSans-65" x="584.667969"/>
       <use xlink:href="#DejaVuSans-6e" x="646.191406"/>
       <use xlink:href="#DejaVuSans-74" x="709.570312"/>
       <use xlink:href="#DejaVuSans-65" x="748.779297"/>
       <use xlink:href="#DejaVuSans-72" x="810.302734"/>
       <use xlink:href="#DejaVuSans-69" x="851.416016"/>
       <use xlink:href="#DejaVuSans-63" x="879.199219"/>
       <use xlink:href="#DejaVuSans-61" x="934.179688"/>
      </g>
     </g>
    </g>
    <g id="xtick_2">
     <g id="text_2">
      <!-- Campylobacter jejuni -->
      <g style="fill: #262626" transform="translate(266.856406 325.442281) scale(0.11 -0.11)">
       <defs>
        <path id="DejaVuSans-43" d="M 4122 4306 
L 4122 3641 
Q 3803 3938 3442 4084 
Q 3081 4231 2675 4231 
Q 1875 4231 1450 3742 
Q 1025 3253 1025 2328 
Q 1025 1406 1450 917 
Q 1875 428 2675 428 
Q 3081 428 3442 575 
Q 3803 722 4122 1019 
L 4122 359 
Q 3791 134 3420 21 
Q 3050 -91 2638 -91 
Q 1578 -91 968 557 
Q 359 1206 359 2328 
Q 359 3453 968 4101 
Q 1578 4750 2638 4750 
Q 3056 4750 3426 4639 
Q 3797 4528 4122 4306 
z
" transform="scale(0.015625)"/>
        <path id="DejaVuSans-70" d="M 1159 525 
L 1159 -1331 
L 581 -1331 
L 581 3500 
L 1159 3500 
L 1159 2969 
Q 1341 3281 1617 3432 
Q 1894 3584 2278 3584 
Q 2916 3584 3314 3078 
Q 3713 2572 3713 1747 
Q 3713 922 3314 415 
Q 2916 -91 2278 -91 
Q 1894 -91 1617 61 
Q 1341 213 1159 525 
z
M 3116 1747 
Q 3116 2381 2855 2742 
Q 2594 3103 2138 3103 
Q 1681 3103 1420 2742 
Q 1159 2381 1159 1747 
Q 1159 1113 1420 752 
Q 1681 391 2138 391 
Q 2594 391 2855 752 
Q 3116 1113 3116 1747 
z
" transform="scale(0.015625)"/>
        <path id="DejaVuSans-79" d="M 2059 -325 
Q 1816 -950 1584 -1140 
Q 1353 -1331 966 -1331 
L 506 -1331 
L 506 -850 
L 844 -850 
Q 1081 -850 1212 -737 
Q 1344 -625 1503 -206 
L 1606 56 
L 191 3500 
L 800 3500 
L 1894 763 
L 2988 3500 
L 3597 3500 
L 2059 -325 
z
" transform="scale(0.015625)"/>
        <path id="DejaVuSans-62" d="M 3116 1747 
Q 3116 2381 2855 2742 
Q 2594 3103 2138 3103 
Q 1681 3103 1420 2742 
Q 1159 2381 1159 1747 
Q 1159 1113 1420 752 
Q 1681 391 2138 391 
Q 2594 391 2855 752 
Q 3116 1113 3116 1747 
z
M 1159 2969 
Q 1341 3281 1617 3432 
Q 1894 3584 2278 3584 
Q 2916 3584 3314 3078 
Q 3713 2572 3713 1747 
Q 3713 922 3314 415 
Q 2916 -91 2278 -91 
Q 1894 -91 1617 61 
Q 1341 213 1159 525 
L 1159 0 
L 581 0 
L 581 4863 
L 1159 4863 
L 1159 2969 
z
" transform="scale(0.015625)"/>
        <path id="DejaVuSans-6a" d="M 603 3500 
L 1178 3500 
L 1178 -63 
Q 1178 -731 923 -1031 
Q 669 -1331 103 -1331 
L -116 -1331 
L -116 -844 
L 38 -844 
Q 366 -844 484 -692 
Q 603 -541 603 -63 
L 603 3500 
z
M 603 4863 
L 1178 4863 
L 1178 4134 
L 603 4134 
L 603 4863 
z
" transform="scale(0.015625)"/>
        <path id="DejaVuSans-75" d="M 544 1381 
L 544 3500 
L 1119 3500 
L 1119 1403 
Q 1119 906 1312 657 
Q 1506 409 1894 409 
Q 2359 409 2629 706 
Q 2900 1003 2900 1516 
L 2900 3500 
L 3475 3500 
L 3475 0 
L 2900 0 
L 2900 538 
Q 2691 219 2414 64 
Q 2138 -91 1772 -91 
Q 1169 -91 856 284 
Q 544 659 544 1381 
z
M 1991 3584 
L 1991 3584 
z
" transform="scale(0.015625)"/>
       </defs>
       <use xlink:href="#DejaVuSans-43"/>
       <use xlink:href="#DejaVuSans-61" x="69.824219"/>
       <use xlink:href="#DejaVuSans-6d" x="131.103516"/>
       <use xlink:href="#DejaVuSans-70" x="228.515625"/>
       <use xlink:href="#DejaVuSans-79" x="291.992188"/>
       <use xlink:href="#DejaVuSans-6c" x="351.171875"/>
       <use xlink:href="#DejaVuSans-6f" x="378.955078"/>
       <use xlink:href="#DejaVuSans-62" x="440.136719"/>
       <use xlink:href="#DejaVuSans-61" x="503.613281"/>
       <use xlink:href="#DejaVuSans-63" x="564.892578"/>
       <use xlink:href="#DejaVuSans-74" x="619.873047"/>
       <use xlink:href="#DejaVuSans-65" x="659.082031"/>
       <use xlink:href="#DejaVuSans-72" x="720.605469"/>
       <use xlink:href="#DejaVuSans-20" x="761.71875"/>
       <use xlink:href="#DejaVuSans-6a" x="793.505859"/>
       <use xlink:href="#DejaVuSans-65" x="821.289062"/>
       <use xlink:href="#DejaVuSans-6a" x="882.8125"/>
       <use xlink:href="#DejaVuSans-75" x="910.595703"/>
       <use xlink:href="#DejaVuSans-6e" x="973.974609"/>
       <use xlink:href="#DejaVuSans-69" x="1037.353516"/>
      </g>
     </g>
    </g>
    <g id="text_3">
     <!-- Information -->
     <g style="fill: #262626" transform="translate(201.428438 340.848062) scale(0.12 -0.12)">
      <defs>
       <path id="DejaVuSans-49" d="M 628 4666 
L 1259 4666 
L 1259 0 
L 628 0 
L 628 4666 
z
" transform="scale(0.015625)"/>
       <path id="DejaVuSans-66" d="M 2375 4863 
L 2375 4384 
L 1825 4384 
Q 1516 4384 1395 4259 
Q 1275 4134 1275 3809 
L 1275 3500 
L 2222 3500 
L 2222 3053 
L 1275 3053 
L 1275 0 
L 697 0 
L 697 3053 
L 147 3053 
L 147 3500 
L 697 3500 
L 697 3744 
Q 697 4328 969 4595 
Q 1241 4863 1831 4863 
L 2375 4863 
z
" transform="scale(0.015625)"/>
      </defs>
      <use xlink:href="#DejaVuSans-49"/>
      <use xlink:href="#DejaVuSans-6e" x="29.492188"/>
      <use xlink:href="#DejaVuSans-66" x="92.871094"/>
      <use xlink:href="#DejaVuSans-6f" x="128.076172"/>
      <use xlink:href="#DejaVuSans-72" x="189.257812"/>
      <use xlink:href="#DejaVuSans-6d" x="228.621094"/>
      <use xlink:href="#DejaVuSans-61" x="326.033203"/>
      <use xlink:href="#DejaVuSans-74" x="387.3125"/>
      <use xlink:href="#DejaVuSans-69" x="426.521484"/>
      <use xlink:href="#DejaVuSans-6f" x="454.304688"/>
      <use xlink:href="#DejaVuSans-6e" x="515.486328"/>
     </g>
    </g>
   </g>
   <g id="matplotlib.axis_2">
    <g id="ytick_1">
     <g id="line2d_1">
      <path d="M 57.6 278.898734 
L 414.72 278.898734 
" clip-path="url(#p9eebcfc4b2)" style="fill: none; stroke: #ffffff; stroke-linecap: round"/>
     </g>
     <g id="text_4">
      <!-- 100 -->
      <g style="fill: #262626" transform="translate(27.10375 283.077874) scale(0.11 -0.11)">
       <defs>
        <path id="DejaVuSans-31" d="M 794 531 
L 1825 531 
L 1825 4091 
L 703 3866 
L 703 4441 
L 1819 4666 
L 2450 4666 
L 2450 531 
L 3481 531 
L 3481 0 
L 794 0 
L 794 531 
z
" transform="scale(0.015625)"/>
        <path id="DejaVuSans-30" d="M 2034 4250 
Q 1547 4250 1301 3770 
Q 1056 3291 1056 2328 
Q 1056 1369 1301 889 
Q 1547 409 2034 409 
Q 2525 409 2770 889 
Q 3016 1369 3016 2328 
Q 3016 3291 2770 3770 
Q 2525 4250 2034 4250 
z
M 2034 4750 
Q 2819 4750 3233 4129 
Q 3647 3509 3647 2328 
Q 3647 1150 3233 529 
Q 2819 -91 2034 -91 
Q 1250 -91 836 529 
Q 422 1150 422 2328 
Q 422 3509 836 4129 
Q 1250 4750 2034 4750 
z
" transform="scale(0.015625)"/>
       </defs>
       <use xlink:href="#DejaVuSans-31"/>
       <use xlink:href="#DejaVuSans-30" x="63.623047"/>
       <use xlink:href="#DejaVuSans-30" x="127.246094"/>
      </g>
     </g>
    </g>
    <g id="ytick_2">
     <g id="line2d_2">
      <path d="M 57.6 240.803798 
L 414.72 240.803798 
" clip-path="url(#p9eebcfc4b2)" style="fill: none; stroke: #ffffff; stroke-linecap: round"/>
     </g>
     <g id="text_5">
      <!-- 120 -->
      <g style="fill: #262626" transform="translate(27.10375 244.982939) scale(0.11 -0.11)">
       <defs>
        <path id="DejaVuSans-32" d="M 1228 531 
L 3431 531 
L 3431 0 
L 469 0 
L 469 531 
Q 828 903 1448 1529 
Q 2069 2156 2228 2338 
Q 2531 2678 2651 2914 
Q 2772 3150 2772 3378 
Q 2772 3750 2511 3984 
Q 2250 4219 1831 4219 
Q 1534 4219 1204 4116 
Q 875 4013 500 3803 
L 500 4441 
Q 881 4594 1212 4672 
Q 1544 4750 1819 4750 
Q 2544 4750 2975 4387 
Q 3406 4025 3406 3419 
Q 3406 3131 3298 2873 
Q 3191 2616 2906 2266 
Q 2828 2175 2409 1742 
Q 1991 1309 1228 531 
z
" transform="scale(0.015625)"/>
       </defs>
       <use xlink:href="#DejaVuSans-31"/>
       <use xlink:href="#DejaVuSans-32" x="63.623047"/>
       <use xlink:href="#DejaVuSans-30" x="127.246094"/>
      </g>
     </g>
    </g>
    <g id="ytick_3">
     <g id="line2d_3">
      <path d="M 57.6 202.708863 
L 414.72 202.708863 
" clip-path="url(#p9eebcfc4b2)" style="fill: none; stroke: #ffffff; stroke-linecap: round"/>
     </g>
     <g id="text_6">
      <!-- 140 -->
      <g style="fill: #262626" transform="translate(27.10375 206.888003) scale(0.11 -0.11)">
       <defs>
        <path id="DejaVuSans-34" d="M 2419 4116 
L 825 1625 
L 2419 1625 
L 2419 4116 
z
M 2253 4666 
L 3047 4666 
L 3047 1625 
L 3713 1625 
L 3713 1100 
L 3047 1100 
L 3047 0 
L 2419 0 
L 2419 1100 
L 313 1100 
L 313 1709 
L 2253 4666 
z
" transform="scale(0.015625)"/>
       </defs>
       <use xlink:href="#DejaVuSans-31"/>
       <use xlink:href="#DejaVuSans-34" x="63.623047"/>
       <use xlink:href="#DejaVuSans-30" x="127.246094"/>
      </g>
     </g>
    </g>
    <g id="ytick_4">
     <g id="line2d_4">
      <path d="M 57.6 164.613927 
L 414.72 164.613927 
" clip-path="url(#p9eebcfc4b2)" style="fill: none; stroke: #ffffff; stroke-linecap: round"/>
     </g>
     <g id="text_7">
      <!-- 160 -->
      <g style="fill: #262626" transform="translate(27.10375 168.793068) scale(0.11 -0.11)">
       <defs>
        <path id="DejaVuSans-36" d="M 2113 2584 
Q 1688 2584 1439 2293 
Q 1191 2003 1191 1497 
Q 1191 994 1439 701 
Q 1688 409 2113 409 
Q 2538 409 2786 701 
Q 3034 994 3034 1497 
Q 3034 2003 2786 2293 
Q 2538 2584 2113 2584 
z
M 3366 4563 
L 3366 3988 
Q 3128 4100 2886 4159 
Q 2644 4219 2406 4219 
Q 1781 4219 1451 3797 
Q 1122 3375 1075 2522 
Q 1259 2794 1537 2939 
Q 1816 3084 2150 3084 
Q 2853 3084 3261 2657 
Q 3669 2231 3669 1497 
Q 3669 778 3244 343 
Q 2819 -91 2113 -91 
Q 1303 -91 875 529 
Q 447 1150 447 2328 
Q 447 3434 972 4092 
Q 1497 4750 2381 4750 
Q 2619 4750 2861 4703 
Q 3103 4656 3366 4563 
z
" transform="scale(0.015625)"/>
       </defs>
       <use xlink:href="#DejaVuSans-31"/>
       <use xlink:href="#DejaVuSans-36" x="63.623047"/>
       <use xlink:href="#DejaVuSans-30" x="127.246094"/>
      </g>
     </g>
    </g>
    <g id="ytick_5">
     <g id="line2d_5">
      <path d="M 57.6 126.518991 
L 414.72 126.518991 
" clip-path="url(#p9eebcfc4b2)" style="fill: none; stroke: #ffffff; stroke-linecap: round"/>
     </g>
     <g id="text_8">
      <!-- 180 -->
      <g style="fill: #262626" transform="translate(27.10375 130.698132) scale(0.11 -0.11)">
       <defs>
        <path id="DejaVuSans-38" d="M 2034 2216 
Q 1584 2216 1326 1975 
Q 1069 1734 1069 1313 
Q 1069 891 1326 650 
Q 1584 409 2034 409 
Q 2484 409 2743 651 
Q 3003 894 3003 1313 
Q 3003 1734 2745 1975 
Q 2488 2216 2034 2216 
z
M 1403 2484 
Q 997 2584 770 2862 
Q 544 3141 544 3541 
Q 544 4100 942 4425 
Q 1341 4750 2034 4750 
Q 2731 4750 3128 4425 
Q 3525 4100 3525 3541 
Q 3525 3141 3298 2862 
Q 3072 2584 2669 2484 
Q 3125 2378 3379 2068 
Q 3634 1759 3634 1313 
Q 3634 634 3220 271 
Q 2806 -91 2034 -91 
Q 1263 -91 848 271 
Q 434 634 434 1313 
Q 434 1759 690 2068 
Q 947 2378 1403 2484 
z
M 1172 3481 
Q 1172 3119 1398 2916 
Q 1625 2713 2034 2713 
Q 2441 2713 2670 2916 
Q 2900 3119 2900 3481 
Q 2900 3844 2670 4047 
Q 2441 4250 2034 4250 
Q 1625 4250 1398 4047 
Q 1172 3844 1172 3481 
z
" transform="scale(0.015625)"/>
       </defs>
       <use xlink:href="#DejaVuSans-31"/>
       <use xlink:href="#DejaVuSans-38" x="63.623047"/>
       <use xlink:href="#DejaVuSans-30" x="127.246094"/>
      </g>
     </g>
    </g>
    <g id="ytick_6">
     <g id="line2d_6">
      <path d="M 57.6 88.424056 
L 414.72 88.424056 
" clip-path="url(#p9eebcfc4b2)" style="fill: none; stroke: #ffffff; stroke-linecap: round"/>
     </g>
     <g id="text_9">
      <!-- 200 -->
      <g style="fill: #262626" transform="translate(27.10375 92.603196) scale(0.11 -0.11)">
       <use xlink:href="#DejaVuSans-32"/>
       <use xlink:href="#DejaVuSans-30" x="63.623047"/>
       <use xlink:href="#DejaVuSans-30" x="127.246094"/>
      </g>
     </g>
    </g>
    <g id="ytick_7">
     <g id="line2d_7">
      <path d="M 57.6 50.32912 
L 414.72 50.32912 
" clip-path="url(#p9eebcfc4b2)" style="fill: none; stroke: #ffffff; stroke-linecap: round"/>
     </g>
     <g id="text_10">
      <!-- 220 -->
      <g style="fill: #262626" transform="translate(27.10375 54.508261) scale(0.11 -0.11)">
       <use xlink:href="#DejaVuSans-32"/>
       <use xlink:href="#DejaVuSans-32" x="63.623047"/>
       <use xlink:href="#DejaVuSans-30" x="127.246094"/>
      </g>
     </g>
    </g>
    <g id="text_11">
     <!-- Reomoved QC Hosts Reads % -->
     <g style="fill: #262626" transform="translate(20.608125 263.588625) rotate(-90) scale(0.12 -0.12)">
      <defs>
       <path id="DejaVuSans-52" d="M 2841 2188 
Q 3044 2119 3236 1894 
Q 3428 1669 3622 1275 
L 4263 0 
L 3584 0 
L 2988 1197 
Q 2756 1666 2539 1819 
Q 2322 1972 1947 1972 
L 1259 1972 
L 1259 0 
L 628 0 
L 628 4666 
L 2053 4666 
Q 2853 4666 3247 4331 
Q 3641 3997 3641 3322 
Q 3641 2881 3436 2590 
Q 3231 2300 2841 2188 
z
M 1259 4147 
L 1259 2491 
L 2053 2491 
Q 2509 2491 2742 2702 
Q 2975 2913 2975 3322 
Q 2975 3731 2742 3939 
Q 2509 4147 2053 4147 
L 1259 4147 
z
" transform="scale(0.015625)"/>
       <path id="DejaVuSans-76" d="M 191 3500 
L 800 3500 
L 1894 563 
L 2988 3500 
L 3597 3500 
L 2284 0 
L 1503 0 
L 191 3500 
z
" transform="scale(0.015625)"/>
       <path id="DejaVuSans-64" d="M 2906 2969 
L 2906 4863 
L 3481 4863 
L 3481 0 
L 2906 0 
L 2906 525 
Q 2725 213 2448 61 
Q 2172 -91 1784 -91 
Q 1150 -91 751 415 
Q 353 922 353 1747 
Q 353 2572 751 3078 
Q 1150 3584 1784 3584 
Q 2172 3584 2448 3432 
Q 2725 3281 2906 2969 
z
M 947 1747 
Q 947 1113 1208 752 
Q 1469 391 1925 391 
Q 2381 391 2643 752 
Q 2906 1113 2906 1747 
Q 2906 2381 2643 2742 
Q 2381 3103 1925 3103 
Q 1469 3103 1208 2742 
Q 947 2381 947 1747 
z
" transform="scale(0.015625)"/>
       <path id="DejaVuSans-51" d="M 2522 4238 
Q 1834 4238 1429 3725 
Q 1025 3213 1025 2328 
Q 1025 1447 1429 934 
Q 1834 422 2522 422 
Q 3209 422 3611 934 
Q 4013 1447 4013 2328 
Q 4013 3213 3611 3725 
Q 3209 4238 2522 4238 
z
M 3406 84 
L 4238 -825 
L 3475 -825 
L 2784 -78 
Q 2681 -84 2626 -87 
Q 2572 -91 2522 -91 
Q 1538 -91 948 567 
Q 359 1225 359 2328 
Q 359 3434 948 4092 
Q 1538 4750 2522 4750 
Q 3503 4750 4090 4092 
Q 4678 3434 4678 2328 
Q 4678 1516 4351 937 
Q 4025 359 3406 84 
z
" transform="scale(0.015625)"/>
       <path id="DejaVuSans-48" d="M 628 4666 
L 1259 4666 
L 1259 2753 
L 3553 2753 
L 3553 4666 
L 4184 4666 
L 4184 0 
L 3553 0 
L 3553 2222 
L 1259 2222 
L 1259 0 
L 628 0 
L 628 4666 
z
" transform="scale(0.015625)"/>
       <path id="DejaVuSans-73" d="M 2834 3397 
L 2834 2853 
Q 2591 2978 2328 3040 
Q 2066 3103 1784 3103 
Q 1356 3103 1142 2972 
Q 928 2841 928 2578 
Q 928 2378 1081 2264 
Q 1234 2150 1697 2047 
L 1894 2003 
Q 2506 1872 2764 1633 
Q 3022 1394 3022 966 
Q 3022 478 2636 193 
Q 2250 -91 1575 -91 
Q 1294 -91 989 -36 
Q 684 19 347 128 
L 347 722 
Q 666 556 975 473 
Q 1284 391 1588 391 
Q 1994 391 2212 530 
Q 2431 669 2431 922 
Q 2431 1156 2273 1281 
Q 2116 1406 1581 1522 
L 1381 1569 
Q 847 1681 609 1914 
Q 372 2147 372 2553 
Q 372 3047 722 3315 
Q 1072 3584 1716 3584 
Q 2034 3584 2315 3537 
Q 2597 3491 2834 3397 
z
" transform="scale(0.015625)"/>
       <path id="DejaVuSans-25" d="M 4653 2053 
Q 4381 2053 4226 1822 
Q 4072 1591 4072 1178 
Q 4072 772 4226 539 
Q 4381 306 4653 306 
Q 4919 306 5073 539 
Q 5228 772 5228 1178 
Q 5228 1588 5073 1820 
Q 4919 2053 4653 2053 
z
M 4653 2450 
Q 5147 2450 5437 2106 
Q 5728 1763 5728 1178 
Q 5728 594 5436 251 
Q 5144 -91 4653 -91 
Q 4153 -91 3862 251 
Q 3572 594 3572 1178 
Q 3572 1766 3864 2108 
Q 4156 2450 4653 2450 
z
M 1428 4353 
Q 1159 4353 1004 4120 
Q 850 3888 850 3481 
Q 850 3069 1003 2837 
Q 1156 2606 1428 2606 
Q 1700 2606 1854 2837 
Q 2009 3069 2009 3481 
Q 2009 3884 1853 4118 
Q 1697 4353 1428 4353 
z
M 4250 4750 
L 4750 4750 
L 1831 -91 
L 1331 -91 
L 4250 4750 
z
M 1428 4750 
Q 1922 4750 2215 4408 
Q 2509 4066 2509 3481 
Q 2509 2891 2217 2550 
Q 1925 2209 1428 2209 
Q 931 2209 642 2551 
Q 353 2894 353 3481 
Q 353 4063 643 4406 
Q 934 4750 1428 4750 
z
" transform="scale(0.015625)"/>
      </defs>
      <use xlink:href="#DejaVuSans-52"/>
      <use xlink:href="#DejaVuSans-65" x="64.982422"/>
      <use xlink:href="#DejaVuSans-6f" x="126.505859"/>
      <use xlink:href="#DejaVuSans-6d" x="187.6875"/>
      <use xlink:href="#DejaVuSans-6f" x="285.099609"/>
      <use xlink:href="#DejaVuSans-76" x="346.28125"/>
      <use xlink:href="#DejaVuSans-65" x="405.460938"/>
      <use xlink:href="#DejaVuSans-64" x="466.984375"/>
      <use xlink:href="#DejaVuSans-20" x="530.460938"/>
      <use xlink:href="#DejaVuSans-51" x="562.248047"/>
      <use xlink:href="#DejaVuSans-43" x="640.958984"/>
      <use xlink:href="#DejaVuSans-20" x="710.783203"/>
      <use xlink:href="#DejaVuSans-48" x="742.570312"/>
      <use xlink:href="#DejaVuSans-6f" x="817.765625"/>
      <use xlink:href="#DejaVuSans-73" x="878.947266"/>
      <use xlink:href="#DejaVuSans-74" x="931.046875"/>
      <use xlink:href="#DejaVuSans-73" x="970.255859"/>
      <use xlink:href="#DejaVuSans-20" x="1022.355469"/>
      <use xlink:href="#DejaVuSans-52" x="1054.142578"/>
      <use xlink:href="#DejaVuSans-65" x="1119.125"/>
      <use xlink:href="#DejaVuSans-61" x="1180.648438"/>
      <use xlink:href="#DejaVuSans-64" x="1241.927734"/>
      <use xlink:href="#DejaVuSans-73" x="1305.404297"/>
      <use xlink:href="#DejaVuSans-20" x="1357.503906"/>
      <use xlink:href="#DejaVuSans-25" x="1389.291016"/>
     </g>
    </g>
   </g>
   <g id="PolyCollection_1">
    <defs>
     <path id="m9988a110c9" d="M 147.443804 -182.320206 
L 146.316196 -182.320206 
L 146.190915 -183.428406 
L 146.046681 -184.536606 
L 145.882886 -185.644806 
L 145.699481 -186.753006 
L 145.497083 -187.861206 
L 145.277069 -188.969406 
L 145.041648 -190.077606 
L 144.793883 -191.185806 
L 144.537686 -192.294006 
L 144.277749 -193.402206 
L 144.019432 -194.510406 
L 143.7686 -195.618605 
L 143.531402 -196.726805 
L 143.314033 -197.835005 
L 143.122454 -198.943205 
L 142.962114 -200.051405 
L 142.837679 -201.159605 
L 142.752785 -202.267805 
L 142.709834 -203.376005 
L 142.709849 -204.484205 
L 142.752392 -205.592405 
L 142.835554 -206.700605 
L 142.95602 -207.808805 
L 143.109189 -208.917005 
L 143.289364 -210.025205 
L 143.48998 -211.133405 
L 143.703852 -212.241605 
L 143.923453 -213.349804 
L 144.141171 -214.458004 
L 144.349558 -215.566204 
L 144.541551 -216.674404 
L 144.710653 -217.782604 
L 144.851073 -218.890804 
L 144.957828 -219.999004 
L 145.026799 -221.107204 
L 145.054748 -222.215404 
L 145.039299 -223.323604 
L 144.978887 -224.431804 
L 144.872676 -225.540004 
L 144.720446 -226.648204 
L 144.522459 -227.756404 
L 144.279293 -228.864604 
L 143.991661 -229.972804 
L 143.660205 -231.081003 
L 143.285283 -232.189203 
L 142.866751 -233.297403 
L 142.403763 -234.405603 
L 141.894591 -235.513803 
L 141.33651 -236.622003 
L 140.725748 -237.730203 
L 140.05753 -238.838403 
L 139.326249 -239.946603 
L 138.525754 -241.054803 
L 137.649777 -242.163003 
L 136.692499 -243.271203 
L 135.649213 -244.379403 
L 134.517075 -245.487603 
L 133.295896 -246.595803 
L 131.988898 -247.704003 
L 130.603408 -248.812202 
L 129.151379 -249.920402 
L 127.649714 -251.028602 
L 126.120309 -252.136802 
L 124.589793 -253.245002 
L 123.088929 -254.353202 
L 121.651692 -255.461402 
L 120.314055 -256.569602 
L 119.112527 -257.677802 
L 118.082535 -258.786002 
L 117.256746 -259.894202 
L 116.663431 -261.002402 
L 116.324987 -262.110602 
L 116.256721 -263.218802 
L 116.465977 -264.327002 
L 116.951669 -265.435202 
L 117.704264 -266.543401 
L 118.706201 -267.651601 
L 119.932718 -268.759801 
L 121.353041 -269.868001 
L 122.931831 -270.976201 
L 124.630804 -272.084401 
L 126.410407 -273.192601 
L 128.231463 -274.300801 
L 130.056665 -275.409001 
L 131.851867 -276.517201 
L 133.587099 -277.625401 
L 135.237274 -278.733601 
L 136.782595 -279.841801 
L 138.20865 -280.950001 
L 139.506251 -282.058201 
L 140.671042 -283.166401 
L 141.702945 -284.2746 
L 142.605489 -285.3828 
L 143.38509 -286.491 
L 144.050313 -287.5992 
L 144.611174 -288.7074 
L 145.078509 -289.8156 
L 145.463427 -290.9238 
L 145.776862 -292.032 
L 147.983138 -292.032 
L 147.983138 -292.032 
L 148.296573 -290.9238 
L 148.681491 -289.8156 
L 149.148826 -288.7074 
L 149.709687 -287.5992 
L 150.37491 -286.491 
L 151.154511 -285.3828 
L 152.057055 -284.2746 
L 153.088958 -283.166401 
L 154.253749 -282.058201 
L 155.55135 -280.950001 
L 156.977405 -279.841801 
L 158.522726 -278.733601 
L 160.172901 -277.625401 
L 161.908133 -276.517201 
L 163.703335 -275.409001 
L 165.528537 -274.300801 
L 167.349593 -273.192601 
L 169.129196 -272.084401 
L 170.828169 -270.976201 
L 172.406959 -269.868001 
L 173.827282 -268.759801 
L 175.053799 -267.651601 
L 176.055736 -266.543401 
L 176.808331 -265.435202 
L 177.294023 -264.327002 
L 177.503279 -263.218802 
L 177.435013 -262.110602 
L 177.096569 -261.002402 
L 176.503254 -259.894202 
L 175.677465 -258.786002 
L 174.647473 -257.677802 
L 173.445945 -256.569602 
L 172.108308 -255.461402 
L 170.671071 -254.353202 
L 169.170207 -253.245002 
L 167.639691 -252.136802 
L 166.110286 -251.028602 
L 164.608621 -249.920402 
L 163.156592 -248.812202 
L 161.771102 -247.704003 
L 160.464104 -246.595803 
L 159.242925 -245.487603 
L 158.110787 -244.379403 
L 157.067501 -243.271203 
L 156.110223 -242.163003 
L 155.234246 -241.054803 
L 154.433751 -239.946603 
L 153.70247 -238.838403 
L 153.034252 -237.730203 
L 152.42349 -236.622003 
L 151.865409 -235.513803 
L 151.356237 -234.405603 
L 150.893249 -233.297403 
L 150.474717 -232.189203 
L 150.099795 -231.081003 
L 149.768339 -229.972804 
L 149.480707 -228.864604 
L 149.237541 -227.756404 
L 149.039554 -226.648204 
L 148.887324 -225.540004 
L 148.781113 -224.431804 
L 148.720701 -223.323604 
L 148.705252 -222.215404 
L 148.733201 -221.107204 
L 148.802172 -219.999004 
L 148.908927 -218.890804 
L 149.049347 -217.782604 
L 149.218449 -216.674404 
L 149.410442 -215.566204 
L 149.618829 -214.458004 
L 149.836547 -213.349804 
L 150.056148 -212.241605 
L 150.27002 -211.133405 
L 150.470636 -210.025205 
L 150.650811 -208.917005 
L 150.80398 -207.808805 
L 150.924446 -206.700605 
L 151.007608 -205.592405 
L 151.050151 -204.484205 
L 151.050166 -203.376005 
L 151.007215 -202.267805 
L 150.922321 -201.159605 
L 150.797886 -200.051405 
L 150.637546 -198.943205 
L 150.445967 -197.835005 
L 150.228598 -196.726805 
L 149.9914 -195.618605 
L 149.740568 -194.510406 
L 149.482251 -193.402206 
L 149.222314 -192.294006 
L 148.966117 -191.185806 
L 148.718352 -190.077606 
L 148.482931 -188.969406 
L 148.262917 -187.861206 
L 148.060519 -186.753006 
L 147.877114 -185.644806 
L 147.713319 -184.536606 
L 147.569085 -183.428406 
L 147.443804 -182.320206 
z
" style="stroke: #4c4c4c; stroke-width: 1.5"/>
    </defs>
    <g clip-path="url(#p9eebcfc4b2)">
     <use xlink:href="#m9988a110c9" x="0" y="345.6" style="fill: #5875a4; stroke: #4c4c4c; stroke-width: 1.5"/>
    </g>
   </g>
   <g id="PolyCollection_2">
    <defs>
     <path id="mcd2bef9a3a" d="M 335.007401 -50.112 
L 315.872599 -50.112 
L 313.510724 -50.620295 
L 310.755308 -51.128591 
L 307.593764 -51.636886 
L 304.027869 -52.145182 
L 300.07674 -52.653477 
L 295.779216 -53.161773 
L 291.195325 -53.670068 
L 286.406556 -54.178364 
L 281.514711 -54.686659 
L 276.639207 -55.194955 
L 271.912838 -55.70325 
L 267.476145 -56.211546 
L 263.470689 -56.719841 
L 260.031662 -57.228137 
L 257.280356 -57.736432 
L 255.317075 -58.244728 
L 254.215071 -58.753023 
L 254.016 -59.261319 
L 254.727312 -59.769614 
L 256.321781 -60.27791 
L 258.739234 -60.786205 
L 261.890307 -61.294501 
L 265.661922 -61.802796 
L 269.92399 -62.311092 
L 274.536805 -62.819387 
L 279.358533 -63.327683 
L 284.252232 -63.835978 
L 289.091951 -64.344274 
L 293.767518 -64.852569 
L 298.187839 -65.360865 
L 302.282616 -65.86916 
L 306.002567 -66.377456 
L 309.318337 -66.885751 
L 312.218359 -67.394047 
L 314.705968 -67.902342 
L 316.796115 -68.410638 
L 318.511953 -68.918933 
L 319.881573 -69.427229 
L 320.935099 -69.935524 
L 321.702277 -70.44382 
L 322.210653 -70.952115 
L 322.48437 -71.460411 
L 322.543576 -71.968706 
L 322.404397 -72.477001 
L 322.079396 -72.985297 
L 321.578442 -73.493592 
L 320.909872 -74.001888 
L 320.081831 -74.510183 
L 319.103685 -75.018479 
L 317.987373 -75.526774 
L 316.748577 -76.03507 
L 315.407617 -76.543365 
L 313.989946 -77.051661 
L 312.5262 -77.559956 
L 311.051747 -78.068252 
L 309.605735 -78.576547 
L 308.22968 -79.084843 
L 306.965681 -79.593138 
L 305.854375 -80.101434 
L 304.932795 -80.609729 
L 304.232299 -81.118025 
L 303.776745 -81.62632 
L 303.581061 -82.134616 
L 303.650358 -82.642911 
L 303.979638 -83.151207 
L 304.554161 -83.659502 
L 305.350404 -84.167798 
L 306.337565 -84.676093 
L 307.479454 -85.184389 
L 308.73664 -85.692684 
L 310.068658 -86.20098 
L 311.436121 -86.709275 
L 312.802589 -87.217571 
L 314.136066 -87.725866 
L 315.410064 -88.234162 
L 316.604186 -88.742457 
L 317.704265 -89.250753 
L 318.702081 -89.759048 
L 319.594754 -90.267344 
L 320.383899 -90.775639 
L 321.07465 -91.283935 
L 321.674636 -91.79223 
L 322.193013 -92.300526 
L 322.639594 -92.808821 
L 323.024144 -93.317116 
L 323.355843 -93.825412 
L 323.642925 -94.333707 
L 323.89249 -94.842003 
L 324.110445 -95.350298 
L 324.301561 -95.858594 
L 324.4696 -96.366889 
L 324.617481 -96.875185 
L 324.747472 -97.38348 
L 324.86136 -97.891776 
L 324.960611 -98.400071 
L 325.046493 -98.908367 
L 325.120164 -99.416662 
L 325.182736 -99.924958 
L 325.235304 -100.433253 
L 325.644696 -100.433253 
L 325.644696 -100.433253 
L 325.697264 -99.924958 
L 325.759836 -99.416662 
L 325.833507 -98.908367 
L 325.919389 -98.400071 
L 326.01864 -97.891776 
L 326.132528 -97.38348 
L 326.262519 -96.875185 
L 326.4104 -96.366889 
L 326.578439 -95.858594 
L 326.769555 -95.350298 
L 326.98751 -94.842003 
L 327.237075 -94.333707 
L 327.524157 -93.825412 
L 327.855856 -93.317116 
L 328.240406 -92.808821 
L 328.686987 -92.300526 
L 329.205364 -91.79223 
L 329.80535 -91.283935 
L 330.496101 -90.775639 
L 331.285246 -90.267344 
L 332.177919 -89.759048 
L 333.175735 -89.250753 
L 334.275814 -88.742457 
L 335.469936 -88.234162 
L 336.743934 -87.725866 
L 338.077411 -87.217571 
L 339.443879 -86.709275 
L 340.811342 -86.20098 
L 342.14336 -85.692684 
L 343.400546 -85.184389 
L 344.542435 -84.676093 
L 345.529596 -84.167798 
L 346.325839 -83.659502 
L 346.900362 -83.151207 
L 347.229642 -82.642911 
L 347.298939 -82.134616 
L 347.103255 -81.62632 
L 346.647701 -81.118025 
L 345.947205 -80.609729 
L 345.025625 -80.101434 
L 343.914319 -79.593138 
L 342.65032 -79.084843 
L 341.274265 -78.576547 
L 339.828253 -78.068252 
L 338.3538 -77.559956 
L 336.890054 -77.051661 
L 335.472383 -76.543365 
L 334.131423 -76.03507 
L 332.892627 -75.526774 
L 331.776315 -75.018479 
L 330.798169 -74.510183 
L 329.970128 -74.001888 
L 329.301558 -73.493592 
L 328.800604 -72.985297 
L 328.475603 -72.477001 
L 328.336424 -71.968706 
L 328.39563 -71.460411 
L 328.669347 -70.952115 
L 329.177723 -70.44382 
L 329.944901 -69.935524 
L 330.998427 -69.427229 
L 332.368047 -68.918933 
L 334.083885 -68.410638 
L 336.174032 -67.902342 
L 338.661641 -67.394047 
L 341.561663 -66.885751 
L 344.877433 -66.377456 
L 348.597384 -65.86916 
L 352.692161 -65.360865 
L 357.112482 -64.852569 
L 361.788049 -64.344274 
L 366.627768 -63.835978 
L 371.521467 -63.327683 
L 376.343195 -62.819387 
L 380.95601 -62.311092 
L 385.218078 -61.802796 
L 388.989693 -61.294501 
L 392.140766 -60.786205 
L 394.558219 -60.27791 
L 396.152688 -59.769614 
L 396.864 -59.261319 
L 396.664929 -58.753023 
L 395.562925 -58.244728 
L 393.599644 -57.736432 
L 390.848338 -57.228137 
L 387.409311 -56.719841 
L 383.403855 -56.211546 
L 378.967162 -55.70325 
L 374.240793 -55.194955 
L 369.365289 -54.686659 
L 364.473444 -54.178364 
L 359.684675 -53.670068 
L 355.100784 -53.161773 
L 350.80326 -52.653477 
L 346.852131 -52.145182 
L 343.286236 -51.636886 
L 340.124692 -51.128591 
L 337.369276 -50.620295 
L 335.007401 -50.112 
z
" style="stroke: #4c4c4c; stroke-width: 1.5"/>
    </defs>
    <g clip-path="url(#p9eebcfc4b2)">
     <use xlink:href="#mcd2bef9a3a" x="0" y="345.6" style="fill: #cc8963; stroke: #4c4c4c; stroke-width: 1.5"/>
    </g>
   </g>
   <g id="line2d_8">
    <path d="M 146.88 92.233549 
L 146.88 75.090828 
" clip-path="url(#p9eebcfc4b2)" style="fill: none; stroke: #4c4c4c; stroke-width: 1.5; stroke-linecap: round"/>
   </g>
   <g id="line2d_9">
    <path d="M 146.88 87.471682 
L 146.88 81.757442 
" clip-path="url(#p9eebcfc4b2)" style="fill: none; stroke: #4c4c4c; stroke-width: 4.5; stroke-linecap: round"/>
   </g>
   <g id="line2d_10">
    <path d="M 325.44 286.517721 
L 325.44 284.612974 
" clip-path="url(#p9eebcfc4b2)" style="fill: none; stroke: #4c4c4c; stroke-width: 1.5; stroke-linecap: round"/>
   </g>
   <g id="line2d_11">
    <path d="M 325.44 286.517721 
L 325.44 284.612974 
" clip-path="url(#p9eebcfc4b2)" style="fill: none; stroke: #4c4c4c; stroke-width: 4.5; stroke-linecap: round"/>
   </g>
   <g id="patch_3">
    <path d="M 57.6 307.584 
L 57.6 41.472 
" style="fill: none; stroke: #ffffff; stroke-width: 1.25; stroke-linejoin: miter; stroke-linecap: square"/>
   </g>
   <g id="patch_4">
    <path d="M 414.72 307.584 
L 414.72 41.472 
" style="fill: none; stroke: #ffffff; stroke-width: 1.25; stroke-linejoin: miter; stroke-linecap: square"/>
   </g>
   <g id="patch_5">
    <path d="M 57.6 307.584 
L 414.72 307.584 
" style="fill: none; stroke: #ffffff; stroke-width: 1.25; stroke-linejoin: miter; stroke-linecap: square"/>
   </g>
   <g id="patch_6">
    <path d="M 57.6 41.472 
L 414.72 41.472 
" style="fill: none; stroke: #ffffff; stroke-width: 1.25; stroke-linejoin: miter; stroke-linecap: square"/>
   </g>
   <g id="PathCollection_1">
    <defs>
     <path id="m147036126b" d="M 0 1.5 
C 0.397805 1.5 0.77937 1.341951 1.06066 1.06066 
C 1.341951 0.77937 1.5 0.397805 1.5 0 
C 1.5 -0.397805 1.341951 -0.77937 1.06066 -1.06066 
C 0.77937 -1.341951 0.397805 -1.5 0 -1.5 
C -0.397805 -1.5 -0.77937 -1.341951 -1.06066 -1.06066 
C -1.341951 -0.77937 -1.5 -0.397805 -1.5 0 
C -1.5 0.397805 -1.341951 0.77937 -1.06066 1.06066 
C -0.77937 1.341951 -0.397805 1.5 0 1.5 
z
" style="stroke: #4c4c4c"/>
    </defs>
    <g clip-path="url(#p9eebcfc4b2)">
     <use xlink:href="#m147036126b" x="146.88" y="82.709815" style="fill: #ffffff; stroke: #4c4c4c"/>
    </g>
   </g>
   <g id="PathCollection_2">
    <g clip-path="url(#p9eebcfc4b2)">
     <use xlink:href="#m147036126b" x="325.44" y="286.517721" style="fill: #ffffff; stroke: #4c4c4c"/>
    </g>
   </g>
   <g id="text_12">
    <!-- Reomoved QC Hosts Reads Percentages vs Chicken Deplition -->
    <g style="fill: #262626" transform="translate(52.873125 35.472) scale(0.12 -0.12)">
     <defs>
      <path id="DejaVuSans-50" d="M 1259 4147 
L 1259 2394 
L 2053 2394 
Q 2494 2394 2734 2622 
Q 2975 2850 2975 3272 
Q 2975 3691 2734 3919 
Q 2494 4147 2053 4147 
L 1259 4147 
z
M 628 4666 
L 2053 4666 
Q 2838 4666 3239 4311 
Q 3641 3956 3641 3272 
Q 3641 2581 3239 2228 
Q 2838 1875 2053 1875 
L 1259 1875 
L 1259 0 
L 628 0 
L 628 4666 
z
" transform="scale(0.015625)"/>
      <path id="DejaVuSans-67" d="M 2906 1791 
Q 2906 2416 2648 2759 
Q 2391 3103 1925 3103 
Q 1463 3103 1205 2759 
Q 947 2416 947 1791 
Q 947 1169 1205 825 
Q 1463 481 1925 481 
Q 2391 481 2648 825 
Q 2906 1169 2906 1791 
z
M 3481 434 
Q 3481 -459 3084 -895 
Q 2688 -1331 1869 -1331 
Q 1566 -1331 1297 -1286 
Q 1028 -1241 775 -1147 
L 775 -588 
Q 1028 -725 1275 -790 
Q 1522 -856 1778 -856 
Q 2344 -856 2625 -561 
Q 2906 -266 2906 331 
L 2906 616 
Q 2728 306 2450 153 
Q 2172 0 1784 0 
Q 1141 0 747 490 
Q 353 981 353 1791 
Q 353 2603 747 3093 
Q 1141 3584 1784 3584 
Q 2172 3584 2450 3431 
Q 2728 3278 2906 2969 
L 2906 3500 
L 3481 3500 
L 3481 434 
z
" transform="scale(0.015625)"/>
      <path id="DejaVuSans-68" d="M 3513 2113 
L 3513 0 
L 2938 0 
L 2938 2094 
Q 2938 2591 2744 2837 
Q 2550 3084 2163 3084 
Q 1697 3084 1428 2787 
Q 1159 2491 1159 1978 
L 1159 0 
L 581 0 
L 581 4863 
L 1159 4863 
L 1159 2956 
Q 1366 3272 1645 3428 
Q 1925 3584 2291 3584 
Q 2894 3584 3203 3211 
Q 3513 2838 3513 2113 
z
" transform="scale(0.015625)"/>
      <path id="DejaVuSans-6b" d="M 581 4863 
L 1159 4863 
L 1159 1991 
L 2875 3500 
L 3609 3500 
L 1753 1863 
L 3688 0 
L 2938 0 
L 1159 1709 
L 1159 0 
L 581 0 
L 581 4863 
z
" transform="scale(0.015625)"/>
      <path id="DejaVuSans-44" d="M 1259 4147 
L 1259 519 
L 2022 519 
Q 2988 519 3436 956 
Q 3884 1394 3884 2338 
Q 3884 3275 3436 3711 
Q 2988 4147 2022 4147 
L 1259 4147 
z
M 628 4666 
L 1925 4666 
Q 3281 4666 3915 4102 
Q 4550 3538 4550 2338 
Q 4550 1131 3912 565 
Q 3275 0 1925 0 
L 628 0 
L 628 4666 
z
" transform="scale(0.015625)"/>
     </defs>
     <use xlink:href="#DejaVuSans-52"/>
     <use xlink:href="#DejaVuSans-65" x="64.982422"/>
     <use xlink:href="#DejaVuSans-6f" x="126.505859"/>
     <use xlink:href="#DejaVuSans-6d" x="187.6875"/>
     <use xlink:href="#DejaVuSans-6f" x="285.099609"/>
     <use xlink:href="#DejaVuSans-76" x="346.28125"/>
     <use xlink:href="#DejaVuSans-65" x="405.460938"/>
     <use xlink:href="#DejaVuSans-64" x="466.984375"/>
     <use xlink:href="#DejaVuSans-20" x="530.460938"/>
     <use xlink:href="#DejaVuSans-51" x="562.248047"/>
     <use xlink:href="#DejaVuSans-43" x="640.958984"/>
     <use xlink:href="#DejaVuSans-20" x="710.783203"/>
     <use xlink:href="#DejaVuSans-48" x="742.570312"/>
     <use xlink:href="#DejaVuSans-6f" x="817.765625"/>
     <use xlink:href="#DejaVuSans-73" x="878.947266"/>
     <use xlink:href="#DejaVuSans-74" x="931.046875"/>
     <use xlink:href="#DejaVuSans-73" x="970.255859"/>
     <use xlink:href="#DejaVuSans-20" x="1022.355469"/>
     <use xlink:href="#DejaVuSans-52" x="1054.142578"/>
     <use xlink:href="#DejaVuSans-65" x="1119.125"/>
     <use xlink:href="#DejaVuSans-61" x="1180.648438"/>
     <use xlink:href="#DejaVuSans-64" x="1241.927734"/>
     <use xlink:href="#DejaVuSans-73" x="1305.404297"/>
     <use xlink:href="#DejaVuSans-20" x="1357.503906"/>
     <use xlink:href="#DejaVuSans-50" x="1389.291016"/>
     <use xlink:href="#DejaVuSans-65" x="1445.96875"/>
     <use xlink:href="#DejaVuSans-72" x="1507.492188"/>
     <use xlink:href="#DejaVuSans-63" x="1546.355469"/>
     <use xlink:href="#DejaVuSans-65" x="1601.335938"/>
     <use xlink:href="#DejaVuSans-6e" x="1662.859375"/>
     <use xlink:href="#DejaVuSans-74" x="1726.238281"/>
     <use xlink:href="#DejaVuSans-61" x="1765.447266"/>
     <use xlink:href="#DejaVuSans-67" x="1826.726562"/>
     <use xlink:href="#DejaVuSans-65" x="1890.203125"/>
     <use xlink:href="#DejaVuSans-73" x="1951.726562"/>
     <use xlink:href="#DejaVuSans-20" x="2003.826172"/>
     <use xlink:href="#DejaVuSans-76" x="2035.613281"/>
     <use xlink:href="#DejaVuSans-73" x="2094.792969"/>
     <use xlink:href="#DejaVuSans-20" x="2146.892578"/>
     <use xlink:href="#DejaVuSans-43" x="2178.679688"/>
     <use xlink:href="#DejaVuSans-68" x="2248.503906"/>
     <use xlink:href="#DejaVuSans-69" x="2311.882812"/>
     <use xlink:href="#DejaVuSans-63" x="2339.666016"/>
     <use xlink:href="#DejaVuSans-6b" x="2394.646484"/>
     <use xlink:href="#DejaVuSans-65" x="2448.931641"/>
     <use xlink:href="#DejaVuSans-6e" x="2510.455078"/>
     <use xlink:href="#DejaVuSans-20" x="2573.833984"/>
     <use xlink:href="#DejaVuSans-44" x="2605.621094"/>
     <use xlink:href="#DejaVuSans-65" x="2682.623047"/>
     <use xlink:href="#DejaVuSans-70" x="2744.146484"/>
     <use xlink:href="#DejaVuSans-6c" x="2807.623047"/>
     <use xlink:href="#DejaVuSans-69" x="2835.40625"/>
     <use xlink:href="#DejaVuSans-74" x="2863.189453"/>
     <use xlink:href="#DejaVuSans-69" x="2902.398438"/>
     <use xlink:href="#DejaVuSans-6f" x="2930.181641"/>
     <use xlink:href="#DejaVuSans-6e" x="2991.363281"/>
    </g>
   </g>
  </g>
 </g>
 <defs>
  <clipPath id="p9eebcfc4b2">
   <rect x="57.6" y="41.472" width="357.12" height="266.112"/>
  </clipPath>
 </defs>
</svg>
