<?xml version="1.0" encoding="utf-8" standalone="no"?>
<!DOCTYPE svg PUBLIC "-//W3C//DTD SVG 1.1//EN"
  "http://www.w3.org/Graphics/SVG/1.1/DTD/svg11.dtd">
<svg xmlns:xlink="http://www.w3.org/1999/xlink" width="460.8pt" height="345.6pt" viewBox="0 0 460.8 345.6" xmlns="http://www.w3.org/2000/svg" version="1.1">
 <metadata>
  <rdf:RDF xmlns:dc="http://purl.org/dc/elements/1.1/" xmlns:cc="http://creativecommons.org/ns#" xmlns:rdf="http://www.w3.org/1999/02/22-rdf-syntax-ns#">
   <cc:Work>
    <dc:type rdf:resource="http://purl.org/dc/dcmitype/StillImage"/>
    <dc:date>2024-03-07T14:12:17.758190</dc:date>
    <dc:format>image/svg+xml</dc:format>
    <dc:creator>
     <cc:Agent>
      <dc:title>Matplotlib v3.7.1, https://matplotlib.org/</dc:title>
     </cc:Agent>
    </dc:creator>
   </cc:Work>
  </rdf:RDF>
 </metadata>
 <defs>
  <style type="text/css">*{stroke-linejoin: round; stroke-linecap: butt}</style>
 </defs>
 <g id="figure_1">
  <g id="patch_1">
   <path d="M 0 345.6 
L 460.8 345.6 
L 460.8 0 
L 0 0 
z
" style="fill: #ffffff"/>
  </g>
  <g id="axes_1">
   <g id="patch_2">
    <path d="M 57.6 307.584 
L 414.72 307.584 
L 414.72 41.472 
L 57.6 41.472 
z
" style="fill: #ffffff"/>
   </g>
   <g id="PolyCollection_1">
    <defs>
     <path id="m3b70431570" d="M 156.222165 -97.857173 
L 137.537835 -97.857173 
L 134.826639 -98.373881 
L 131.592245 -98.890589 
L 127.818429 -99.407298 
L 123.515414 -99.924006 
L 118.725523 -100.440714 
L 113.527137 -100.957423 
L 108.036164 -101.474131 
L 102.404347 -101.990839 
L 96.814032 -102.507547 
L 91.469396 -103.024256 
L 86.584595 -103.540964 
L 82.369711 -104.057672 
L 79.015751 -104.574381 
L 76.68021 -105.091089 
L 75.474695 -105.607797 
L 75.456 -106.124506 
L 76.621621 -106.641214 
L 78.910214 -107.157922 
L 82.206917 -107.674631 
L 86.352898 -108.191339 
L 91.158021 -108.708047 
L 96.415227 -109.224756 
L 101.915132 -109.741464 
L 107.459415 -110.258172 
L 112.871877 -110.774881 
L 118.006403 -111.291589 
L 122.751506 -111.808297 
L 127.031542 -112.325005 
L 130.805029 -112.841714 
L 134.060726 -113.358422 
L 136.81225 -113.87513 
L 139.092009 -114.391839 
L 140.945109 -114.908547 
L 142.423791 -115.425255 
L 143.582725 -115.941964 
L 144.475348 -116.458672 
L 145.15128 -116.97538 
L 145.654714 -117.492089 
L 146.02365 -118.008797 
L 146.289773 -118.525505 
L 146.478774 -119.042214 
L 146.610972 -119.558922 
L 146.702059 -120.07563 
L 146.763896 -120.592339 
L 146.805263 -121.109047 
L 146.832535 -121.625755 
L 146.85025 -122.142463 
L 146.861582 -122.659172 
L 146.868708 -123.17588 
L 146.87309 -123.692588 
L 146.875686 -124.209297 
L 146.877098 -124.726005 
L 146.877678 -125.242713 
L 146.877588 -125.759422 
L 146.876846 -126.27613 
L 146.875333 -126.792838 
L 146.872794 -127.309547 
L 146.868819 -127.826255 
L 146.862815 -128.342963 
L 146.853969 -128.859672 
L 146.841206 -129.37638 
L 146.823152 -129.893088 
L 146.798107 -130.409797 
L 146.764034 -130.926505 
L 146.718581 -131.443213 
L 146.65914 -131.959921 
L 146.582958 -132.47663 
L 146.487306 -132.993338 
L 146.369698 -133.510046 
L 146.228167 -134.026755 
L 146.061568 -134.543463 
L 145.869898 -135.060171 
L 145.654583 -135.57688 
L 145.418701 -136.093588 
L 145.167105 -136.610296 
L 144.906402 -137.127005 
L 144.644765 -137.643713 
L 144.391579 -138.160421 
L 144.156916 -138.67713 
L 143.950896 -139.193838 
L 143.782975 -139.710546 
L 143.661221 -140.227255 
L 143.591681 -140.743963 
L 143.577878 -141.260671 
L 143.620517 -141.77738 
L 143.717425 -142.294088 
L 143.863737 -142.810796 
L 144.052296 -143.327504 
L 144.274235 -143.844213 
L 144.51967 -144.360921 
L 144.778416 -144.877629 
L 145.04068 -145.394338 
L 145.297645 -145.911046 
L 145.541904 -146.427754 
L 145.767739 -146.944463 
L 145.971211 -147.461171 
L 146.150114 -147.977879 
L 146.303786 -148.494588 
L 146.432854 -149.011296 
L 147.327146 -149.011296 
L 147.327146 -149.011296 
L 147.456214 -148.494588 
L 147.609886 -147.977879 
L 147.788789 -147.461171 
L 147.992261 -146.944463 
L 148.218096 -146.427754 
L 148.462355 -145.911046 
L 148.71932 -145.394338 
L 148.981584 -144.877629 
L 149.24033 -144.360921 
L 149.485765 -143.844213 
L 149.707704 -143.327504 
L 149.896263 -142.810796 
L 150.042575 -142.294088 
L 150.139483 -141.77738 
L 150.182122 -141.260671 
L 150.168319 -140.743963 
L 150.098779 -140.227255 
L 149.977025 -139.710546 
L 149.809104 -139.193838 
L 149.603084 -138.67713 
L 149.368421 -138.160421 
L 149.115235 -137.643713 
L 148.853598 -137.127005 
L 148.592895 -136.610296 
L 148.341299 -136.093588 
L 148.105417 -135.57688 
L 147.890102 -135.060171 
L 147.698432 -134.543463 
L 147.531833 -134.026755 
L 147.390302 -133.510046 
L 147.272694 -132.993338 
L 147.177042 -132.47663 
L 147.10086 -131.959921 
L 147.041419 -131.443213 
L 146.995966 -130.926505 
L 146.961893 -130.409797 
L 146.936848 -129.893088 
L 146.918794 -129.37638 
L 146.906031 -128.859672 
L 146.897185 -128.342963 
L 146.891181 -127.826255 
L 146.887206 -127.309547 
L 146.884667 -126.792838 
L 146.883154 -126.27613 
L 146.882412 -125.759422 
L 146.882322 -125.242713 
L 146.882902 -124.726005 
L 146.884314 -124.209297 
L 146.88691 -123.692588 
L 146.891292 -123.17588 
L 146.898418 -122.659172 
L 146.90975 -122.142463 
L 146.927465 -121.625755 
L 146.954737 -121.109047 
L 146.996104 -120.592339 
L 147.057941 -120.07563 
L 147.149028 -119.558922 
L 147.281226 -119.042214 
L 147.470227 -118.525505 
L 147.73635 -118.008797 
L 148.105286 -117.492089 
L 148.60872 -116.97538 
L 149.284652 -116.458672 
L 150.177275 -115.941964 
L 151.336209 -115.425255 
L 152.814891 -114.908547 
L 154.667991 -114.391839 
L 156.94775 -113.87513 
L 159.699274 -113.358422 
L 162.954971 -112.841714 
L 166.728458 -112.325005 
L 171.008494 -111.808297 
L 175.753597 -111.291589 
L 180.888123 -110.774881 
L 186.300585 -110.258172 
L 191.844868 -109.741464 
L 197.344773 -109.224756 
L 202.601979 -108.708047 
L 207.407102 -108.191339 
L 211.553083 -107.674631 
L 214.849786 -107.157922 
L 217.138379 -106.641214 
L 218.304 -106.124506 
L 218.285305 -105.607797 
L 217.07979 -105.091089 
L 214.744249 -104.574381 
L 211.390289 -104.057672 
L 207.175405 -103.540964 
L 202.290604 -103.024256 
L 196.945968 -102.507547 
L 191.355653 -101.990839 
L 185.723836 -101.474131 
L 180.232863 -100.957423 
L 175.034477 -100.440714 
L 170.244586 -99.924006 
L 165.941571 -99.407298 
L 162.167755 -98.890589 
L 158.933361 -98.373881 
L 156.222165 -97.857173 
z
" style="stroke: #3f3f3f; stroke-width: 1.5"/>
    </defs>
    <g clip-path="url(#p863c9a5f0f)">
     <use xlink:href="#m3b70431570" x="0" y="345.6" style="fill: #3274a1; stroke: #3f3f3f; stroke-width: 1.5"/>
    </g>
   </g>
   <g id="PolyCollection_2">
    <defs>
     <path id="md79dc7b5ec" d="M 325.735448 -50.112 
L 325.144552 -50.112 
L 325.087323 -52.555636 
L 325.022197 -54.999273 
L 324.948789 -57.442909 
L 324.866844 -59.886545 
L 324.776264 -62.330182 
L 324.677144 -64.773818 
L 324.569784 -67.217455 
L 324.454717 -69.661091 
L 324.332715 -72.104727 
L 324.204787 -74.548364 
L 324.072177 -76.992 
L 323.936338 -79.435636 
L 323.798903 -81.879273 
L 323.661638 -84.322909 
L 323.526391 -86.766545 
L 323.395027 -89.210182 
L 323.26936 -91.653818 
L 323.151081 -94.097455 
L 323.04168 -96.541091 
L 322.942385 -98.984727 
L 322.854093 -101.428364 
L 322.77732 -103.872 
L 322.712167 -106.315636 
L 322.658297 -108.759273 
L 322.614932 -111.202909 
L 322.58087 -113.646545 
L 322.554521 -116.090182 
L 322.533961 -118.533818 
L 322.516997 -120.977455 
L 322.501254 -123.421091 
L 322.484258 -125.864727 
L 322.463539 -128.308364 
L 322.436718 -130.752 
L 322.401607 -133.195636 
L 322.356286 -135.639273 
L 322.29918 -138.082909 
L 322.229119 -140.526545 
L 322.145378 -142.970182 
L 322.047704 -145.413818 
L 321.936325 -147.857455 
L 321.811937 -150.301091 
L 321.675683 -152.744727 
L 321.529112 -155.188364 
L 321.374122 -157.632 
L 321.212902 -160.075636 
L 321.047862 -162.519273 
L 320.881555 -164.962909 
L 320.716606 -167.406545 
L 320.555635 -169.850182 
L 320.401188 -172.293818 
L 320.255671 -174.737455 
L 320.121295 -177.181091 
L 320.000025 -179.624727 
L 319.893551 -182.068364 
L 319.803254 -184.512 
L 319.730203 -186.955636 
L 319.675145 -189.399273 
L 319.638521 -191.842909 
L 319.620484 -194.286545 
L 319.620928 -196.730182 
L 319.639523 -199.173818 
L 319.675753 -201.617455 
L 319.728957 -204.061091 
L 319.798374 -206.504727 
L 319.883172 -208.948364 
L 319.982488 -211.392 
L 320.095449 -213.835636 
L 320.221193 -216.279273 
L 320.358876 -218.722909 
L 320.507674 -221.166545 
L 320.666776 -223.610182 
L 320.835376 -226.053818 
L 321.01265 -228.497455 
L 321.197742 -230.941091 
L 321.389745 -233.384727 
L 321.587682 -235.828364 
L 321.790498 -238.272 
L 321.99705 -240.715636 
L 322.206113 -243.159273 
L 322.416382 -245.602909 
L 322.626494 -248.046545 
L 322.835046 -250.490182 
L 323.040624 -252.933818 
L 323.241836 -255.377455 
L 323.437342 -257.821091 
L 323.62589 -260.264727 
L 323.806346 -262.708364 
L 323.977723 -265.152 
L 324.139198 -267.595636 
L 324.290134 -270.039273 
L 324.430085 -272.482909 
L 324.558798 -274.926545 
L 324.67621 -277.370182 
L 324.782433 -279.813818 
L 324.877741 -282.257455 
L 324.962548 -284.701091 
L 325.037387 -287.144727 
L 325.102881 -289.588364 
L 325.159721 -292.032 
L 325.720279 -292.032 
L 325.720279 -292.032 
L 325.777119 -289.588364 
L 325.842613 -287.144727 
L 325.917452 -284.701091 
L 326.002259 -282.257455 
L 326.097567 -279.813818 
L 326.20379 -277.370182 
L 326.321202 -274.926545 
L 326.449915 -272.482909 
L 326.589866 -270.039273 
L 326.740802 -267.595636 
L 326.902277 -265.152 
L 327.073654 -262.708364 
L 327.25411 -260.264727 
L 327.442658 -257.821091 
L 327.638164 -255.377455 
L 327.839376 -252.933818 
L 328.044954 -250.490182 
L 328.253506 -248.046545 
L 328.463618 -245.602909 
L 328.673887 -243.159273 
L 328.88295 -240.715636 
L 329.089502 -238.272 
L 329.292318 -235.828364 
L 329.490255 -233.384727 
L 329.682258 -230.941091 
L 329.86735 -228.497455 
L 330.044624 -226.053818 
L 330.213224 -223.610182 
L 330.372326 -221.166545 
L 330.521124 -218.722909 
L 330.658807 -216.279273 
L 330.784551 -213.835636 
L 330.897512 -211.392 
L 330.996828 -208.948364 
L 331.081626 -206.504727 
L 331.151043 -204.061091 
L 331.204247 -201.617455 
L 331.240477 -199.173818 
L 331.259072 -196.730182 
L 331.259516 -194.286545 
L 331.241479 -191.842909 
L 331.204855 -189.399273 
L 331.149797 -186.955636 
L 331.076746 -184.512 
L 330.986449 -182.068364 
L 330.879975 -179.624727 
L 330.758705 -177.181091 
L 330.624329 -174.737455 
L 330.478812 -172.293818 
L 330.324365 -169.850182 
L 330.163394 -167.406545 
L 329.998445 -164.962909 
L 329.832138 -162.519273 
L 329.667098 -160.075636 
L 329.505878 -157.632 
L 329.350888 -155.188364 
L 329.204317 -152.744727 
L 329.068063 -150.301091 
L 328.943675 -147.857455 
L 328.832296 -145.413818 
L 328.734622 -142.970182 
L 328.650881 -140.526545 
L 328.58082 -138.082909 
L 328.523714 -135.639273 
L 328.478393 -133.195636 
L 328.443282 -130.752 
L 328.416461 -128.308364 
L 328.395742 -125.864727 
L 328.378746 -123.421091 
L 328.363003 -120.977455 
L 328.346039 -118.533818 
L 328.325479 -116.090182 
L 328.29913 -113.646545 
L 328.265068 -111.202909 
L 328.221703 -108.759273 
L 328.167833 -106.315636 
L 328.10268 -103.872 
L 328.025907 -101.428364 
L 327.937615 -98.984727 
L 327.83832 -96.541091 
L 327.728919 -94.097455 
L 327.61064 -91.653818 
L 327.484973 -89.210182 
L 327.353609 -86.766545 
L 327.218362 -84.322909 
L 327.081097 -81.879273 
L 326.943662 -79.435636 
L 326.807823 -76.992 
L 326.675213 -74.548364 
L 326.547285 -72.104727 
L 326.425283 -69.661091 
L 326.310216 -67.217455 
L 326.202856 -64.773818 
L 326.103736 -62.330182 
L 326.013156 -59.886545 
L 325.931211 -57.442909 
L 325.857803 -54.999273 
L 325.792677 -52.555636 
L 325.735448 -50.112 
z
" style="stroke: #3f3f3f; stroke-width: 1.5"/>
    </defs>
    <g clip-path="url(#p863c9a5f0f)">
     <use xlink:href="#md79dc7b5ec" x="0" y="345.6" style="fill: #e1812c; stroke: #3f3f3f; stroke-width: 1.5"/>
    </g>
   </g>
   <g id="matplotlib.axis_1">
    <g id="xtick_1">
     <g id="line2d_1">
      <defs>
       <path id="m5f94af65e8" d="M 0 0 
L 0 3.5 
" style="stroke: #000000; stroke-width: 0.8"/>
      </defs>
      <g>
       <use xlink:href="#m5f94af65e8" x="146.88" y="307.584" style="stroke: #000000; stroke-width: 0.8"/>
      </g>
     </g>
     <g id="text_1">
      <!-- 1 hour -->
      <g transform="translate(130.657344 322.182437) scale(0.1 -0.1)">
       <defs>
        <path id="DejaVuSans-31" d="M 794 531 
L 1825 531 
L 1825 4091 
L 703 3866 
L 703 4441 
L 1819 4666 
L 2450 4666 
L 2450 531 
L 3481 531 
L 3481 0 
L 794 0 
L 794 531 
z
" transform="scale(0.015625)"/>
        <path id="DejaVuSans-20" transform="scale(0.015625)"/>
        <path id="DejaVuSans-68" d="M 3513 2113 
L 3513 0 
L 2938 0 
L 2938 2094 
Q 2938 2591 2744 2837 
Q 2550 3084 2163 3084 
Q 1697 3084 1428 2787 
Q 1159 2491 1159 1978 
L 1159 0 
L 581 0 
L 581 4863 
L 1159 4863 
L 1159 2956 
Q 1366 3272 1645 3428 
Q 1925 3584 2291 3584 
Q 2894 3584 3203 3211 
Q 3513 2838 3513 2113 
z
" transform="scale(0.015625)"/>
        <path id="DejaVuSans-6f" d="M 1959 3097 
Q 1497 3097 1228 2736 
Q 959 2375 959 1747 
Q 959 1119 1226 758 
Q 1494 397 1959 397 
Q 2419 397 2687 759 
Q 2956 1122 2956 1747 
Q 2956 2369 2687 2733 
Q 2419 3097 1959 3097 
z
M 1959 3584 
Q 2709 3584 3137 3096 
Q 3566 2609 3566 1747 
Q 3566 888 3137 398 
Q 2709 -91 1959 -91 
Q 1206 -91 779 398 
Q 353 888 353 1747 
Q 353 2609 779 3096 
Q 1206 3584 1959 3584 
z
" transform="scale(0.015625)"/>
        <path id="DejaVuSans-75" d="M 544 1381 
L 544 3500 
L 1119 3500 
L 1119 1403 
Q 1119 906 1312 657 
Q 1506 409 1894 409 
Q 2359 409 2629 706 
Q 2900 1003 2900 1516 
L 2900 3500 
L 3475 3500 
L 3475 0 
L 2900 0 
L 2900 538 
Q 2691 219 2414 64 
Q 2138 -91 1772 -91 
Q 1169 -91 856 284 
Q 544 659 544 1381 
z
M 1991 3584 
L 1991 3584 
z
" transform="scale(0.015625)"/>
        <path id="DejaVuSans-72" d="M 2631 2963 
Q 2534 3019 2420 3045 
Q 2306 3072 2169 3072 
Q 1681 3072 1420 2755 
Q 1159 2438 1159 1844 
L 1159 0 
L 581 0 
L 581 3500 
L 1159 3500 
L 1159 2956 
Q 1341 3275 1631 3429 
Q 1922 3584 2338 3584 
Q 2397 3584 2469 3576 
Q 2541 3569 2628 3553 
L 2631 2963 
z
" transform="scale(0.015625)"/>
       </defs>
       <use xlink:href="#DejaVuSans-31"/>
       <use xlink:href="#DejaVuSans-20" x="63.623047"/>
       <use xlink:href="#DejaVuSans-68" x="95.410156"/>
       <use xlink:href="#DejaVuSans-6f" x="158.789062"/>
       <use xlink:href="#DejaVuSans-75" x="219.970703"/>
       <use xlink:href="#DejaVuSans-72" x="283.349609"/>
      </g>
     </g>
    </g>
    <g id="xtick_2">
     <g id="line2d_2">
      <g>
       <use xlink:href="#m5f94af65e8" x="325.44" y="307.584" style="stroke: #000000; stroke-width: 0.8"/>
      </g>
     </g>
     <g id="text_2">
      <!-- 24 hours -->
      <g transform="translate(303.431406 322.182437) scale(0.1 -0.1)">
       <defs>
        <path id="DejaVuSans-32" d="M 1228 531 
L 3431 531 
L 3431 0 
L 469 0 
L 469 531 
Q 828 903 1448 1529 
Q 2069 2156 2228 2338 
Q 2531 2678 2651 2914 
Q 2772 3150 2772 3378 
Q 2772 3750 2511 3984 
Q 2250 4219 1831 4219 
Q 1534 4219 1204 4116 
Q 875 4013 500 3803 
L 500 4441 
Q 881 4594 1212 4672 
Q 1544 4750 1819 4750 
Q 2544 4750 2975 4387 
Q 3406 4025 3406 3419 
Q 3406 3131 3298 2873 
Q 3191 2616 2906 2266 
Q 2828 2175 2409 1742 
Q 1991 1309 1228 531 
z
" transform="scale(0.015625)"/>
        <path id="DejaVuSans-34" d="M 2419 4116 
L 825 1625 
L 2419 1625 
L 2419 4116 
z
M 2253 4666 
L 3047 4666 
L 3047 1625 
L 3713 1625 
L 3713 1100 
L 3047 1100 
L 3047 0 
L 2419 0 
L 2419 1100 
L 313 1100 
L 313 1709 
L 2253 4666 
z
" transform="scale(0.015625)"/>
        <path id="DejaVuSans-73" d="M 2834 3397 
L 2834 2853 
Q 2591 2978 2328 3040 
Q 2066 3103 1784 3103 
Q 1356 3103 1142 2972 
Q 928 2841 928 2578 
Q 928 2378 1081 2264 
Q 1234 2150 1697 2047 
L 1894 2003 
Q 2506 1872 2764 1633 
Q 3022 1394 3022 966 
Q 3022 478 2636 193 
Q 2250 -91 1575 -91 
Q 1294 -91 989 -36 
Q 684 19 347 128 
L 347 722 
Q 666 556 975 473 
Q 1284 391 1588 391 
Q 1994 391 2212 530 
Q 2431 669 2431 922 
Q 2431 1156 2273 1281 
Q 2116 1406 1581 1522 
L 1381 1569 
Q 847 1681 609 1914 
Q 372 2147 372 2553 
Q 372 3047 722 3315 
Q 1072 3584 1716 3584 
Q 2034 3584 2315 3537 
Q 2597 3491 2834 3397 
z
" transform="scale(0.015625)"/>
       </defs>
       <use xlink:href="#DejaVuSans-32"/>
       <use xlink:href="#DejaVuSans-34" x="63.623047"/>
       <use xlink:href="#DejaVuSans-20" x="127.246094"/>
       <use xlink:href="#DejaVuSans-68" x="159.033203"/>
       <use xlink:href="#DejaVuSans-6f" x="222.412109"/>
       <use xlink:href="#DejaVuSans-75" x="283.59375"/>
       <use xlink:href="#DejaVuSans-72" x="346.972656"/>
       <use xlink:href="#DejaVuSans-73" x="388.085938"/>
      </g>
     </g>
    </g>
    <g id="text_3">
     <!-- Incubation before DNA isolation -->
     <g transform="translate(156.831094 335.860562) scale(0.1 -0.1)">
      <defs>
       <path id="DejaVuSans-49" d="M 628 4666 
L 1259 4666 
L 1259 0 
L 628 0 
L 628 4666 
z
" transform="scale(0.015625)"/>
       <path id="DejaVuSans-6e" d="M 3513 2113 
L 3513 0 
L 2938 0 
L 2938 2094 
Q 2938 2591 2744 2837 
Q 2550 3084 2163 3084 
Q 1697 3084 1428 2787 
Q 1159 2491 1159 1978 
L 1159 0 
L 581 0 
L 581 3500 
L 1159 3500 
L 1159 2956 
Q 1366 3272 1645 3428 
Q 1925 3584 2291 3584 
Q 2894 3584 3203 3211 
Q 3513 2838 3513 2113 
z
" transform="scale(0.015625)"/>
       <path id="DejaVuSans-63" d="M 3122 3366 
L 3122 2828 
Q 2878 2963 2633 3030 
Q 2388 3097 2138 3097 
Q 1578 3097 1268 2742 
Q 959 2388 959 1747 
Q 959 1106 1268 751 
Q 1578 397 2138 397 
Q 2388 397 2633 464 
Q 2878 531 3122 666 
L 3122 134 
Q 2881 22 2623 -34 
Q 2366 -91 2075 -91 
Q 1284 -91 818 406 
Q 353 903 353 1747 
Q 353 2603 823 3093 
Q 1294 3584 2113 3584 
Q 2378 3584 2631 3529 
Q 2884 3475 3122 3366 
z
" transform="scale(0.015625)"/>
       <path id="DejaVuSans-62" d="M 3116 1747 
Q 3116 2381 2855 2742 
Q 2594 3103 2138 3103 
Q 1681 3103 1420 2742 
Q 1159 2381 1159 1747 
Q 1159 1113 1420 752 
Q 1681 391 2138 391 
Q 2594 391 2855 752 
Q 3116 1113 3116 1747 
z
M 1159 2969 
Q 1341 3281 1617 3432 
Q 1894 3584 2278 3584 
Q 2916 3584 3314 3078 
Q 3713 2572 3713 1747 
Q 3713 922 3314 415 
Q 2916 -91 2278 -91 
Q 1894 -91 1617 61 
Q 1341 213 1159 525 
L 1159 0 
L 581 0 
L 581 4863 
L 1159 4863 
L 1159 2969 
z
" transform="scale(0.015625)"/>
       <path id="DejaVuSans-61" d="M 2194 1759 
Q 1497 1759 1228 1600 
Q 959 1441 959 1056 
Q 959 750 1161 570 
Q 1363 391 1709 391 
Q 2188 391 2477 730 
Q 2766 1069 2766 1631 
L 2766 1759 
L 2194 1759 
z
M 3341 1997 
L 3341 0 
L 2766 0 
L 2766 531 
Q 2569 213 2275 61 
Q 1981 -91 1556 -91 
Q 1019 -91 701 211 
Q 384 513 384 1019 
Q 384 1609 779 1909 
Q 1175 2209 1959 2209 
L 2766 2209 
L 2766 2266 
Q 2766 2663 2505 2880 
Q 2244 3097 1772 3097 
Q 1472 3097 1187 3025 
Q 903 2953 641 2809 
L 641 3341 
Q 956 3463 1253 3523 
Q 1550 3584 1831 3584 
Q 2591 3584 2966 3190 
Q 3341 2797 3341 1997 
z
" transform="scale(0.015625)"/>
       <path id="DejaVuSans-74" d="M 1172 4494 
L 1172 3500 
L 2356 3500 
L 2356 3053 
L 1172 3053 
L 1172 1153 
Q 1172 725 1289 603 
Q 1406 481 1766 481 
L 2356 481 
L 2356 0 
L 1766 0 
Q 1100 0 847 248 
Q 594 497 594 1153 
L 594 3053 
L 172 3053 
L 172 3500 
L 594 3500 
L 594 4494 
L 1172 4494 
z
" transform="scale(0.015625)"/>
       <path id="DejaVuSans-69" d="M 603 3500 
L 1178 3500 
L 1178 0 
L 603 0 
L 603 3500 
z
M 603 4863 
L 1178 4863 
L 1178 4134 
L 603 4134 
L 603 4863 
z
" transform="scale(0.015625)"/>
       <path id="DejaVuSans-65" d="M 3597 1894 
L 3597 1613 
L 953 1613 
Q 991 1019 1311 708 
Q 1631 397 2203 397 
Q 2534 397 2845 478 
Q 3156 559 3463 722 
L 3463 178 
Q 3153 47 2828 -22 
Q 2503 -91 2169 -91 
Q 1331 -91 842 396 
Q 353 884 353 1716 
Q 353 2575 817 3079 
Q 1281 3584 2069 3584 
Q 2775 3584 3186 3129 
Q 3597 2675 3597 1894 
z
M 3022 2063 
Q 3016 2534 2758 2815 
Q 2500 3097 2075 3097 
Q 1594 3097 1305 2825 
Q 1016 2553 972 2059 
L 3022 2063 
z
" transform="scale(0.015625)"/>
       <path id="DejaVuSans-66" d="M 2375 4863 
L 2375 4384 
L 1825 4384 
Q 1516 4384 1395 4259 
Q 1275 4134 1275 3809 
L 1275 3500 
L 2222 3500 
L 2222 3053 
L 1275 3053 
L 1275 0 
L 697 0 
L 697 3053 
L 147 3053 
L 147 3500 
L 697 3500 
L 697 3744 
Q 697 4328 969 4595 
Q 1241 4863 1831 4863 
L 2375 4863 
z
" transform="scale(0.015625)"/>
       <path id="DejaVuSans-44" d="M 1259 4147 
L 1259 519 
L 2022 519 
Q 2988 519 3436 956 
Q 3884 1394 3884 2338 
Q 3884 3275 3436 3711 
Q 2988 4147 2022 4147 
L 1259 4147 
z
M 628 4666 
L 1925 4666 
Q 3281 4666 3915 4102 
Q 4550 3538 4550 2338 
Q 4550 1131 3912 565 
Q 3275 0 1925 0 
L 628 0 
L 628 4666 
z
" transform="scale(0.015625)"/>
       <path id="DejaVuSans-4e" d="M 628 4666 
L 1478 4666 
L 3547 763 
L 3547 4666 
L 4159 4666 
L 4159 0 
L 3309 0 
L 1241 3903 
L 1241 0 
L 628 0 
L 628 4666 
z
" transform="scale(0.015625)"/>
       <path id="DejaVuSans-41" d="M 2188 4044 
L 1331 1722 
L 3047 1722 
L 2188 4044 
z
M 1831 4666 
L 2547 4666 
L 4325 0 
L 3669 0 
L 3244 1197 
L 1141 1197 
L 716 0 
L 50 0 
L 1831 4666 
z
" transform="scale(0.015625)"/>
       <path id="DejaVuSans-6c" d="M 603 4863 
L 1178 4863 
L 1178 0 
L 603 0 
L 603 4863 
z
" transform="scale(0.015625)"/>
      </defs>
      <use xlink:href="#DejaVuSans-49"/>
      <use xlink:href="#DejaVuSans-6e" x="29.492188"/>
      <use xlink:href="#DejaVuSans-63" x="92.871094"/>
      <use xlink:href="#DejaVuSans-75" x="147.851562"/>
      <use xlink:href="#DejaVuSans-62" x="211.230469"/>
      <use xlink:href="#DejaVuSans-61" x="274.707031"/>
      <use xlink:href="#DejaVuSans-74" x="335.986328"/>
      <use xlink:href="#DejaVuSans-69" x="375.195312"/>
      <use xlink:href="#DejaVuSans-6f" x="402.978516"/>
      <use xlink:href="#DejaVuSans-6e" x="464.160156"/>
      <use xlink:href="#DejaVuSans-20" x="527.539062"/>
      <use xlink:href="#DejaVuSans-62" x="559.326172"/>
      <use xlink:href="#DejaVuSans-65" x="622.802734"/>
      <use xlink:href="#DejaVuSans-66" x="684.326172"/>
      <use xlink:href="#DejaVuSans-6f" x="719.53125"/>
      <use xlink:href="#DejaVuSans-72" x="780.712891"/>
      <use xlink:href="#DejaVuSans-65" x="819.576172"/>
      <use xlink:href="#DejaVuSans-20" x="881.099609"/>
      <use xlink:href="#DejaVuSans-44" x="912.886719"/>
      <use xlink:href="#DejaVuSans-4e" x="989.888672"/>
      <use xlink:href="#DejaVuSans-41" x="1064.693359"/>
      <use xlink:href="#DejaVuSans-20" x="1133.101562"/>
      <use xlink:href="#DejaVuSans-69" x="1164.888672"/>
      <use xlink:href="#DejaVuSans-73" x="1192.671875"/>
      <use xlink:href="#DejaVuSans-6f" x="1244.771484"/>
      <use xlink:href="#DejaVuSans-6c" x="1305.953125"/>
      <use xlink:href="#DejaVuSans-61" x="1333.736328"/>
      <use xlink:href="#DejaVuSans-74" x="1395.015625"/>
      <use xlink:href="#DejaVuSans-69" x="1434.224609"/>
      <use xlink:href="#DejaVuSans-6f" x="1462.007812"/>
      <use xlink:href="#DejaVuSans-6e" x="1523.189453"/>
     </g>
    </g>
   </g>
   <g id="matplotlib.axis_2">
    <g id="ytick_1">
     <g id="line2d_3">
      <defs>
       <path id="mb08cb9d273" d="M 0 0 
L -3.5 0 
" style="stroke: #000000; stroke-width: 0.8"/>
      </defs>
      <g>
       <use xlink:href="#mb08cb9d273" x="57.6" y="285.229094" style="stroke: #000000; stroke-width: 0.8"/>
      </g>
     </g>
     <g id="text_4">
      <!-- −100 -->
      <g transform="translate(23.132812 289.028312) scale(0.1 -0.1)">
       <defs>
        <path id="DejaVuSans-2212" d="M 678 2272 
L 4684 2272 
L 4684 1741 
L 678 1741 
L 678 2272 
z
" transform="scale(0.015625)"/>
        <path id="DejaVuSans-30" d="M 2034 4250 
Q 1547 4250 1301 3770 
Q 1056 3291 1056 2328 
Q 1056 1369 1301 889 
Q 1547 409 2034 409 
Q 2525 409 2770 889 
Q 3016 1369 3016 2328 
Q 3016 3291 2770 3770 
Q 2525 4250 2034 4250 
z
M 2034 4750 
Q 2819 4750 3233 4129 
Q 3647 3509 3647 2328 
Q 3647 1150 3233 529 
Q 2819 -91 2034 -91 
Q 1250 -91 836 529 
Q 422 1150 422 2328 
Q 422 3509 836 4129 
Q 1250 4750 2034 4750 
z
" transform="scale(0.015625)"/>
       </defs>
       <use xlink:href="#DejaVuSans-2212"/>
       <use xlink:href="#DejaVuSans-31" x="83.789062"/>
       <use xlink:href="#DejaVuSans-30" x="147.412109"/>
       <use xlink:href="#DejaVuSans-30" x="211.035156"/>
      </g>
     </g>
    </g>
    <g id="ytick_2">
     <g id="line2d_4">
      <g>
       <use xlink:href="#mb08cb9d273" x="57.6" y="239.859793" style="stroke: #000000; stroke-width: 0.8"/>
      </g>
     </g>
     <g id="text_5">
      <!-- 0 -->
      <g transform="translate(44.2375 243.659012) scale(0.1 -0.1)">
       <use xlink:href="#DejaVuSans-30"/>
      </g>
     </g>
    </g>
    <g id="ytick_3">
     <g id="line2d_5">
      <g>
       <use xlink:href="#mb08cb9d273" x="57.6" y="194.490492" style="stroke: #000000; stroke-width: 0.8"/>
      </g>
     </g>
     <g id="text_6">
      <!-- 100 -->
      <g transform="translate(31.5125 198.289711) scale(0.1 -0.1)">
       <use xlink:href="#DejaVuSans-31"/>
       <use xlink:href="#DejaVuSans-30" x="63.623047"/>
       <use xlink:href="#DejaVuSans-30" x="127.246094"/>
      </g>
     </g>
    </g>
    <g id="ytick_4">
     <g id="line2d_6">
      <g>
       <use xlink:href="#mb08cb9d273" x="57.6" y="149.121192" style="stroke: #000000; stroke-width: 0.8"/>
      </g>
     </g>
     <g id="text_7">
      <!-- 200 -->
      <g transform="translate(31.5125 152.92041) scale(0.1 -0.1)">
       <use xlink:href="#DejaVuSans-32"/>
       <use xlink:href="#DejaVuSans-30" x="63.623047"/>
       <use xlink:href="#DejaVuSans-30" x="127.246094"/>
      </g>
     </g>
    </g>
    <g id="ytick_5">
     <g id="line2d_7">
      <g>
       <use xlink:href="#mb08cb9d273" x="57.6" y="103.751891" style="stroke: #000000; stroke-width: 0.8"/>
      </g>
     </g>
     <g id="text_8">
      <!-- 300 -->
      <g transform="translate(31.5125 107.55111) scale(0.1 -0.1)">
       <defs>
        <path id="DejaVuSans-33" d="M 2597 2516 
Q 3050 2419 3304 2112 
Q 3559 1806 3559 1356 
Q 3559 666 3084 287 
Q 2609 -91 1734 -91 
Q 1441 -91 1130 -33 
Q 819 25 488 141 
L 488 750 
Q 750 597 1062 519 
Q 1375 441 1716 441 
Q 2309 441 2620 675 
Q 2931 909 2931 1356 
Q 2931 1769 2642 2001 
Q 2353 2234 1838 2234 
L 1294 2234 
L 1294 2753 
L 1863 2753 
Q 2328 2753 2575 2939 
Q 2822 3125 2822 3475 
Q 2822 3834 2567 4026 
Q 2313 4219 1838 4219 
Q 1578 4219 1281 4162 
Q 984 4106 628 3988 
L 628 4550 
Q 988 4650 1302 4700 
Q 1616 4750 1894 4750 
Q 2613 4750 3031 4423 
Q 3450 4097 3450 3541 
Q 3450 3153 3228 2886 
Q 3006 2619 2597 2516 
z
" transform="scale(0.015625)"/>
       </defs>
       <use xlink:href="#DejaVuSans-33"/>
       <use xlink:href="#DejaVuSans-30" x="63.623047"/>
       <use xlink:href="#DejaVuSans-30" x="127.246094"/>
      </g>
     </g>
    </g>
    <g id="ytick_6">
     <g id="line2d_8">
      <g>
       <use xlink:href="#mb08cb9d273" x="57.6" y="58.38259" style="stroke: #000000; stroke-width: 0.8"/>
      </g>
     </g>
     <g id="text_9">
      <!-- 400 -->
      <g transform="translate(31.5125 62.181809) scale(0.1 -0.1)">
       <use xlink:href="#DejaVuSans-34"/>
       <use xlink:href="#DejaVuSans-30" x="63.623047"/>
       <use xlink:href="#DejaVuSans-30" x="127.246094"/>
      </g>
     </g>
    </g>
    <g id="text_10">
     <!-- VFs Count -->
     <g transform="translate(17.053125 199.866281) rotate(-90) scale(0.1 -0.1)">
      <defs>
       <path id="DejaVuSans-56" d="M 1831 0 
L 50 4666 
L 709 4666 
L 2188 738 
L 3669 4666 
L 4325 4666 
L 2547 0 
L 1831 0 
z
" transform="scale(0.015625)"/>
       <path id="DejaVuSans-46" d="M 628 4666 
L 3309 4666 
L 3309 4134 
L 1259 4134 
L 1259 2759 
L 3109 2759 
L 3109 2228 
L 1259 2228 
L 1259 0 
L 628 0 
L 628 4666 
z
" transform="scale(0.015625)"/>
       <path id="DejaVuSans-43" d="M 4122 4306 
L 4122 3641 
Q 3803 3938 3442 4084 
Q 3081 4231 2675 4231 
Q 1875 4231 1450 3742 
Q 1025 3253 1025 2328 
Q 1025 1406 1450 917 
Q 1875 428 2675 428 
Q 3081 428 3442 575 
Q 3803 722 4122 1019 
L 4122 359 
Q 3791 134 3420 21 
Q 3050 -91 2638 -91 
Q 1578 -91 968 557 
Q 359 1206 359 2328 
Q 359 3453 968 4101 
Q 1578 4750 2638 4750 
Q 3056 4750 3426 4639 
Q 3797 4528 4122 4306 
z
" transform="scale(0.015625)"/>
      </defs>
      <use xlink:href="#DejaVuSans-56"/>
      <use xlink:href="#DejaVuSans-46" x="68.408203"/>
      <use xlink:href="#DejaVuSans-73" x="125.927734"/>
      <use xlink:href="#DejaVuSans-20" x="178.027344"/>
      <use xlink:href="#DejaVuSans-43" x="209.814453"/>
      <use xlink:href="#DejaVuSans-6f" x="279.638672"/>
      <use xlink:href="#DejaVuSans-75" x="340.820312"/>
      <use xlink:href="#DejaVuSans-6e" x="404.199219"/>
      <use xlink:href="#DejaVuSans-74" x="467.578125"/>
     </g>
    </g>
   </g>
   <g id="line2d_9">
    <path d="M 146.88 239.859793 
L 146.88 239.859793 
" clip-path="url(#p863c9a5f0f)" style="fill: none; stroke: #3f3f3f; stroke-width: 1.5; stroke-linecap: square"/>
   </g>
   <g id="line2d_10">
    <path d="M 146.88 239.859793 
L 146.88 239.859793 
" clip-path="url(#p863c9a5f0f)" style="fill: none; stroke: #3f3f3f; stroke-width: 4.5; stroke-linecap: square"/>
   </g>
   <g id="line2d_11">
    <path d="M 325.44 239.859793 
L 325.44 109.196207 
" clip-path="url(#p863c9a5f0f)" style="fill: none; stroke: #3f3f3f; stroke-width: 1.5; stroke-linecap: square"/>
   </g>
   <g id="line2d_12">
    <path d="M 325.44 185.416632 
L 325.44 141.862104 
" clip-path="url(#p863c9a5f0f)" style="fill: none; stroke: #3f3f3f; stroke-width: 4.5; stroke-linecap: square"/>
   </g>
   <g id="patch_3">
    <path d="M 57.6 307.584 
L 57.6 41.472 
" style="fill: none; stroke: #000000; stroke-width: 0.8; stroke-linejoin: miter; stroke-linecap: square"/>
   </g>
   <g id="patch_4">
    <path d="M 414.72 307.584 
L 414.72 41.472 
" style="fill: none; stroke: #000000; stroke-width: 0.8; stroke-linejoin: miter; stroke-linecap: square"/>
   </g>
   <g id="patch_5">
    <path d="M 57.6 307.584 
L 414.72 307.584 
" style="fill: none; stroke: #000000; stroke-width: 0.8; stroke-linejoin: miter; stroke-linecap: square"/>
   </g>
   <g id="patch_6">
    <path d="M 57.6 41.472 
L 414.72 41.472 
" style="fill: none; stroke: #000000; stroke-width: 0.8; stroke-linejoin: miter; stroke-linecap: square"/>
   </g>
   <g id="PathCollection_1">
    <defs>
     <path id="m065a2711fa" d="M 0 1.5 
C 0.397805 1.5 0.77937 1.341951 1.06066 1.06066 
C 1.341951 0.77937 1.5 0.397805 1.5 0 
C 1.5 -0.397805 1.341951 -0.77937 1.06066 -1.06066 
C 0.77937 -1.341951 0.397805 -1.5 0 -1.5 
C -0.397805 -1.5 -0.77937 -1.341951 -1.06066 -1.06066 
C -1.341951 -0.77937 -1.5 -0.397805 -1.5 0 
C -1.5 0.397805 -1.341951 0.77937 -1.06066 1.06066 
C -0.77937 1.341951 -0.397805 1.5 0 1.5 
z
" style="stroke: #3f3f3f"/>
    </defs>
    <g clip-path="url(#p863c9a5f0f)">
     <use xlink:href="#m065a2711fa" x="146.88" y="239.859793" style="fill: #ffffff; stroke: #3f3f3f"/>
    </g>
   </g>
   <g id="PathCollection_2">
    <g clip-path="url(#p863c9a5f0f)">
     <use xlink:href="#m065a2711fa" x="325.44" y="160.91721" style="fill: #ffffff; stroke: #3f3f3f"/>
    </g>
   </g>
   <g id="text_11">
    <!-- VFs count vs Pathogen Incubation before DNA isolation duration -->
    <g transform="translate(43.74375 35.472) scale(0.12 -0.12)">
     <defs>
      <path id="DejaVuSans-76" d="M 191 3500 
L 800 3500 
L 1894 563 
L 2988 3500 
L 3597 3500 
L 2284 0 
L 1503 0 
L 191 3500 
z
" transform="scale(0.015625)"/>
      <path id="DejaVuSans-50" d="M 1259 4147 
L 1259 2394 
L 2053 2394 
Q 2494 2394 2734 2622 
Q 2975 2850 2975 3272 
Q 2975 3691 2734 3919 
Q 2494 4147 2053 4147 
L 1259 4147 
z
M 628 4666 
L 2053 4666 
Q 2838 4666 3239 4311 
Q 3641 3956 3641 3272 
Q 3641 2581 3239 2228 
Q 2838 1875 2053 1875 
L 1259 1875 
L 1259 0 
L 628 0 
L 628 4666 
z
" transform="scale(0.015625)"/>
      <path id="DejaVuSans-67" d="M 2906 1791 
Q 2906 2416 2648 2759 
Q 2391 3103 1925 3103 
Q 1463 3103 1205 2759 
Q 947 2416 947 1791 
Q 947 1169 1205 825 
Q 1463 481 1925 481 
Q 2391 481 2648 825 
Q 2906 1169 2906 1791 
z
M 3481 434 
Q 3481 -459 3084 -895 
Q 2688 -1331 1869 -1331 
Q 1566 -1331 1297 -1286 
Q 1028 -1241 775 -1147 
L 775 -588 
Q 1028 -725 1275 -790 
Q 1522 -856 1778 -856 
Q 2344 -856 2625 -561 
Q 2906 -266 2906 331 
L 2906 616 
Q 2728 306 2450 153 
Q 2172 0 1784 0 
Q 1141 0 747 490 
Q 353 981 353 1791 
Q 353 2603 747 3093 
Q 1141 3584 1784 3584 
Q 2172 3584 2450 3431 
Q 2728 3278 2906 2969 
L 2906 3500 
L 3481 3500 
L 3481 434 
z
" transform="scale(0.015625)"/>
      <path id="DejaVuSans-64" d="M 2906 2969 
L 2906 4863 
L 3481 4863 
L 3481 0 
L 2906 0 
L 2906 525 
Q 2725 213 2448 61 
Q 2172 -91 1784 -91 
Q 1150 -91 751 415 
Q 353 922 353 1747 
Q 353 2572 751 3078 
Q 1150 3584 1784 3584 
Q 2172 3584 2448 3432 
Q 2725 3281 2906 2969 
z
M 947 1747 
Q 947 1113 1208 752 
Q 1469 391 1925 391 
Q 2381 391 2643 752 
Q 2906 1113 2906 1747 
Q 2906 2381 2643 2742 
Q 2381 3103 1925 3103 
Q 1469 3103 1208 2742 
Q 947 2381 947 1747 
z
" transform="scale(0.015625)"/>
     </defs>
     <use xlink:href="#DejaVuSans-56"/>
     <use xlink:href="#DejaVuSans-46" x="68.408203"/>
     <use xlink:href="#DejaVuSans-73" x="125.927734"/>
     <use xlink:href="#DejaVuSans-20" x="178.027344"/>
     <use xlink:href="#DejaVuSans-63" x="209.814453"/>
     <use xlink:href="#DejaVuSans-6f" x="264.794922"/>
     <use xlink:href="#DejaVuSans-75" x="325.976562"/>
     <use xlink:href="#DejaVuSans-6e" x="389.355469"/>
     <use xlink:href="#DejaVuSans-74" x="452.734375"/>
     <use xlink:href="#DejaVuSans-20" x="491.943359"/>
     <use xlink:href="#DejaVuSans-76" x="523.730469"/>
     <use xlink:href="#DejaVuSans-73" x="582.910156"/>
     <use xlink:href="#DejaVuSans-20" x="635.009766"/>
     <use xlink:href="#DejaVuSans-50" x="666.796875"/>
     <use xlink:href="#DejaVuSans-61" x="722.599609"/>
     <use xlink:href="#DejaVuSans-74" x="783.878906"/>
     <use xlink:href="#DejaVuSans-68" x="823.087891"/>
     <use xlink:href="#DejaVuSans-6f" x="886.466797"/>
     <use xlink:href="#DejaVuSans-67" x="947.648438"/>
     <use xlink:href="#DejaVuSans-65" x="1011.125"/>
     <use xlink:href="#DejaVuSans-6e" x="1072.648438"/>
     <use xlink:href="#DejaVuSans-20" x="1136.027344"/>
     <use xlink:href="#DejaVuSans-49" x="1167.814453"/>
     <use xlink:href="#DejaVuSans-6e" x="1197.306641"/>
     <use xlink:href="#DejaVuSans-63" x="1260.685547"/>
     <use xlink:href="#DejaVuSans-75" x="1315.666016"/>
     <use xlink:href="#DejaVuSans-62" x="1379.044922"/>
     <use xlink:href="#DejaVuSans-61" x="1442.521484"/>
     <use xlink:href="#DejaVuSans-74" x="1503.800781"/>
     <use xlink:href="#DejaVuSans-69" x="1543.009766"/>
     <use xlink:href="#DejaVuSans-6f" x="1570.792969"/>
     <use xlink:href="#DejaVuSans-6e" x="1631.974609"/>
     <use xlink:href="#DejaVuSans-20" x="1695.353516"/>
     <use xlink:href="#DejaVuSans-62" x="1727.140625"/>
     <use xlink:href="#DejaVuSans-65" x="1790.617188"/>
     <use xlink:href="#DejaVuSans-66" x="1852.140625"/>
     <use xlink:href="#DejaVuSans-6f" x="1887.345703"/>
     <use xlink:href="#DejaVuSans-72" x="1948.527344"/>
     <use xlink:href="#DejaVuSans-65" x="1987.390625"/>
     <use xlink:href="#DejaVuSans-20" x="2048.914062"/>
     <use xlink:href="#DejaVuSans-44" x="2080.701172"/>
     <use xlink:href="#DejaVuSans-4e" x="2157.703125"/>
     <use xlink:href="#DejaVuSans-41" x="2232.507812"/>
     <use xlink:href="#DejaVuSans-20" x="2300.916016"/>
     <use xlink:href="#DejaVuSans-69" x="2332.703125"/>
     <use xlink:href="#DejaVuSans-73" x="2360.486328"/>
     <use xlink:href="#DejaVuSans-6f" x="2412.585938"/>
     <use xlink:href="#DejaVuSans-6c" x="2473.767578"/>
     <use xlink:href="#DejaVuSans-61" x="2501.550781"/>
     <use xlink:href="#DejaVuSans-74" x="2562.830078"/>
     <use xlink:href="#DejaVuSans-69" x="2602.039062"/>
     <use xlink:href="#DejaVuSans-6f" x="2629.822266"/>
     <use xlink:href="#DejaVuSans-6e" x="2691.003906"/>
     <use xlink:href="#DejaVuSans-20" x="2754.382812"/>
     <use xlink:href="#DejaVuSans-64" x="2786.169922"/>
     <use xlink:href="#DejaVuSans-75" x="2849.646484"/>
     <use xlink:href="#DejaVuSans-72" x="2913.025391"/>
     <use xlink:href="#DejaVuSans-61" x="2954.138672"/>
     <use xlink:href="#DejaVuSans-74" x="3015.417969"/>
     <use xlink:href="#DejaVuSans-69" x="3054.626953"/>
     <use xlink:href="#DejaVuSans-6f" x="3082.410156"/>
     <use xlink:href="#DejaVuSans-6e" x="3143.591797"/>
    </g>
   </g>
  </g>
 </g>
 <defs>
  <clipPath id="p863c9a5f0f">
   <rect x="57.6" y="41.472" width="357.12" height="266.112"/>
  </clipPath>
 </defs>
</svg>
