<?xml version="1.0" encoding="utf-8" standalone="no"?>
<!DOCTYPE svg PUBLIC "-//W3C//DTD SVG 1.1//EN"
  "http://www.w3.org/Graphics/SVG/1.1/DTD/svg11.dtd">
<svg xmlns:xlink="http://www.w3.org/1999/xlink" width="460.8pt" height="345.6pt" viewBox="0 0 460.8 345.6" xmlns="http://www.w3.org/2000/svg" version="1.1">
 <metadata>
  <rdf:RDF xmlns:dc="http://purl.org/dc/elements/1.1/" xmlns:cc="http://creativecommons.org/ns#" xmlns:rdf="http://www.w3.org/1999/02/22-rdf-syntax-ns#">
   <cc:Work>
    <dc:type rdf:resource="http://purl.org/dc/dcmitype/StillImage"/>
    <dc:date>2025-01-20T14:46:18.771394</dc:date>
    <dc:format>image/svg+xml</dc:format>
    <dc:creator>
     <cc:Agent>
      <dc:title>Matplotlib v3.10.0, https://matplotlib.org/</dc:title>
     </cc:Agent>
    </dc:creator>
   </cc:Work>
  </rdf:RDF>
 </metadata>
 <defs>
  <style type="text/css">*{stroke-linejoin: round; stroke-linecap: butt}</style>
 </defs>
 <g id="figure_1">
  <g id="patch_1">
   <path d="M 0 345.6 
L 460.8 345.6 
L 460.8 0 
L 0 0 
z
" style="fill: #ffffff"/>
  </g>
  <g id="axes_1">
   <g id="patch_2">
    <path d="M 57.6 307.584 
L 414.72 307.584 
L 414.72 41.472 
L 57.6 41.472 
z
" style="fill: #eaeaf2"/>
   </g>
   <g id="matplotlib.axis_1">
    <g id="xtick_1">
     <g id="text_1">
      <!-- Salmonella enterica -->
      <g style="fill: #262626" transform="translate(98.577969 324.957594) scale(0.11 -0.11)">
       <defs>
        <path id="ArialMT-53" d="M 288 1472 
L 859 1522 
Q 900 1178 1048 958 
Q 1197 738 1509 602 
Q 1822 466 2213 466 
Q 2559 466 2825 569 
Q 3091 672 3220 851 
Q 3350 1031 3350 1244 
Q 3350 1459 3225 1620 
Q 3100 1781 2813 1891 
Q 2628 1963 1997 2114 
Q 1366 2266 1113 2400 
Q 784 2572 623 2826 
Q 463 3081 463 3397 
Q 463 3744 659 4045 
Q 856 4347 1234 4503 
Q 1613 4659 2075 4659 
Q 2584 4659 2973 4495 
Q 3363 4331 3572 4012 
Q 3781 3694 3797 3291 
L 3216 3247 
Q 3169 3681 2898 3903 
Q 2628 4125 2100 4125 
Q 1550 4125 1298 3923 
Q 1047 3722 1047 3438 
Q 1047 3191 1225 3031 
Q 1400 2872 2139 2705 
Q 2878 2538 3153 2413 
Q 3553 2228 3743 1945 
Q 3934 1663 3934 1294 
Q 3934 928 3725 604 
Q 3516 281 3123 101 
Q 2731 -78 2241 -78 
Q 1619 -78 1198 103 
Q 778 284 539 648 
Q 300 1013 288 1472 
z
" transform="scale(0.015625)"/>
        <path id="ArialMT-61" d="M 2588 409 
Q 2275 144 1986 34 
Q 1697 -75 1366 -75 
Q 819 -75 525 192 
Q 231 459 231 875 
Q 231 1119 342 1320 
Q 453 1522 633 1644 
Q 813 1766 1038 1828 
Q 1203 1872 1538 1913 
Q 2219 1994 2541 2106 
Q 2544 2222 2544 2253 
Q 2544 2597 2384 2738 
Q 2169 2928 1744 2928 
Q 1347 2928 1158 2789 
Q 969 2650 878 2297 
L 328 2372 
Q 403 2725 575 2942 
Q 747 3159 1072 3276 
Q 1397 3394 1825 3394 
Q 2250 3394 2515 3294 
Q 2781 3194 2906 3042 
Q 3031 2891 3081 2659 
Q 3109 2516 3109 2141 
L 3109 1391 
Q 3109 606 3145 398 
Q 3181 191 3288 0 
L 2700 0 
Q 2613 175 2588 409 
z
M 2541 1666 
Q 2234 1541 1622 1453 
Q 1275 1403 1131 1340 
Q 988 1278 909 1158 
Q 831 1038 831 891 
Q 831 666 1001 516 
Q 1172 366 1500 366 
Q 1825 366 2078 508 
Q 2331 650 2450 897 
Q 2541 1088 2541 1459 
L 2541 1666 
z
" transform="scale(0.015625)"/>
        <path id="ArialMT-6c" d="M 409 0 
L 409 4581 
L 972 4581 
L 972 0 
L 409 0 
z
" transform="scale(0.015625)"/>
        <path id="ArialMT-6d" d="M 422 0 
L 422 3319 
L 925 3319 
L 925 2853 
Q 1081 3097 1340 3245 
Q 1600 3394 1931 3394 
Q 2300 3394 2536 3241 
Q 2772 3088 2869 2813 
Q 3263 3394 3894 3394 
Q 4388 3394 4653 3120 
Q 4919 2847 4919 2278 
L 4919 0 
L 4359 0 
L 4359 2091 
Q 4359 2428 4304 2576 
Q 4250 2725 4106 2815 
Q 3963 2906 3769 2906 
Q 3419 2906 3187 2673 
Q 2956 2441 2956 1928 
L 2956 0 
L 2394 0 
L 2394 2156 
Q 2394 2531 2256 2718 
Q 2119 2906 1806 2906 
Q 1569 2906 1367 2781 
Q 1166 2656 1075 2415 
Q 984 2175 984 1722 
L 984 0 
L 422 0 
z
" transform="scale(0.015625)"/>
        <path id="ArialMT-6f" d="M 213 1659 
Q 213 2581 725 3025 
Q 1153 3394 1769 3394 
Q 2453 3394 2887 2945 
Q 3322 2497 3322 1706 
Q 3322 1066 3130 698 
Q 2938 331 2570 128 
Q 2203 -75 1769 -75 
Q 1072 -75 642 372 
Q 213 819 213 1659 
z
M 791 1659 
Q 791 1022 1069 705 
Q 1347 388 1769 388 
Q 2188 388 2466 706 
Q 2744 1025 2744 1678 
Q 2744 2294 2464 2611 
Q 2184 2928 1769 2928 
Q 1347 2928 1069 2612 
Q 791 2297 791 1659 
z
" transform="scale(0.015625)"/>
        <path id="ArialMT-6e" d="M 422 0 
L 422 3319 
L 928 3319 
L 928 2847 
Q 1294 3394 1984 3394 
Q 2284 3394 2536 3286 
Q 2788 3178 2913 3003 
Q 3038 2828 3088 2588 
Q 3119 2431 3119 2041 
L 3119 0 
L 2556 0 
L 2556 2019 
Q 2556 2363 2490 2533 
Q 2425 2703 2258 2804 
Q 2091 2906 1866 2906 
Q 1506 2906 1245 2678 
Q 984 2450 984 1813 
L 984 0 
L 422 0 
z
" transform="scale(0.015625)"/>
        <path id="ArialMT-65" d="M 2694 1069 
L 3275 997 
Q 3138 488 2766 206 
Q 2394 -75 1816 -75 
Q 1088 -75 661 373 
Q 234 822 234 1631 
Q 234 2469 665 2931 
Q 1097 3394 1784 3394 
Q 2450 3394 2872 2941 
Q 3294 2488 3294 1666 
Q 3294 1616 3291 1516 
L 816 1516 
Q 847 969 1125 678 
Q 1403 388 1819 388 
Q 2128 388 2347 550 
Q 2566 713 2694 1069 
z
M 847 1978 
L 2700 1978 
Q 2663 2397 2488 2606 
Q 2219 2931 1791 2931 
Q 1403 2931 1139 2672 
Q 875 2413 847 1978 
z
" transform="scale(0.015625)"/>
        <path id="ArialMT-20" transform="scale(0.015625)"/>
        <path id="ArialMT-74" d="M 1650 503 
L 1731 6 
Q 1494 -44 1306 -44 
Q 1000 -44 831 53 
Q 663 150 594 308 
Q 525 466 525 972 
L 525 2881 
L 113 2881 
L 113 3319 
L 525 3319 
L 525 4141 
L 1084 4478 
L 1084 3319 
L 1650 3319 
L 1650 2881 
L 1084 2881 
L 1084 941 
Q 1084 700 1114 631 
Q 1144 563 1211 522 
Q 1278 481 1403 481 
Q 1497 481 1650 503 
z
" transform="scale(0.015625)"/>
        <path id="ArialMT-72" d="M 416 0 
L 416 3319 
L 922 3319 
L 922 2816 
Q 1116 3169 1280 3281 
Q 1444 3394 1641 3394 
Q 1925 3394 2219 3213 
L 2025 2691 
Q 1819 2813 1613 2813 
Q 1428 2813 1281 2702 
Q 1134 2591 1072 2394 
Q 978 2094 978 1738 
L 978 0 
L 416 0 
z
" transform="scale(0.015625)"/>
        <path id="ArialMT-69" d="M 425 3934 
L 425 4581 
L 988 4581 
L 988 3934 
L 425 3934 
z
M 425 0 
L 425 3319 
L 988 3319 
L 988 0 
L 425 0 
z
" transform="scale(0.015625)"/>
        <path id="ArialMT-63" d="M 2588 1216 
L 3141 1144 
Q 3050 572 2676 248 
Q 2303 -75 1759 -75 
Q 1078 -75 664 370 
Q 250 816 250 1647 
Q 250 2184 428 2587 
Q 606 2991 970 3192 
Q 1334 3394 1763 3394 
Q 2303 3394 2647 3120 
Q 2991 2847 3088 2344 
L 2541 2259 
Q 2463 2594 2264 2762 
Q 2066 2931 1784 2931 
Q 1359 2931 1093 2626 
Q 828 2322 828 1663 
Q 828 994 1084 691 
Q 1341 388 1753 388 
Q 2084 388 2306 591 
Q 2528 794 2588 1216 
z
" transform="scale(0.015625)"/>
       </defs>
       <use xlink:href="#ArialMT-53"/>
       <use xlink:href="#ArialMT-61" transform="translate(66.699219 0)"/>
       <use xlink:href="#ArialMT-6c" transform="translate(122.314453 0)"/>
       <use xlink:href="#ArialMT-6d" transform="translate(144.53125 0)"/>
       <use xlink:href="#ArialMT-6f" transform="translate(227.832031 0)"/>
       <use xlink:href="#ArialMT-6e" transform="translate(283.447266 0)"/>
       <use xlink:href="#ArialMT-65" transform="translate(339.0625 0)"/>
       <use xlink:href="#ArialMT-6c" transform="translate(394.677734 0)"/>
       <use xlink:href="#ArialMT-6c" transform="translate(416.894531 0)"/>
       <use xlink:href="#ArialMT-61" transform="translate(439.111328 0)"/>
       <use xlink:href="#ArialMT-20" transform="translate(494.726562 0)"/>
       <use xlink:href="#ArialMT-65" transform="translate(522.509766 0)"/>
       <use xlink:href="#ArialMT-6e" transform="translate(578.125 0)"/>
       <use xlink:href="#ArialMT-74" transform="translate(633.740234 0)"/>
       <use xlink:href="#ArialMT-65" transform="translate(661.523438 0)"/>
       <use xlink:href="#ArialMT-72" transform="translate(717.138672 0)"/>
       <use xlink:href="#ArialMT-69" transform="translate(750.439453 0)"/>
       <use xlink:href="#ArialMT-63" transform="translate(772.65625 0)"/>
       <use xlink:href="#ArialMT-61" transform="translate(822.65625 0)"/>
      </g>
     </g>
    </g>
    <g id="xtick_2">
     <g id="text_2">
      <!-- Campylobacter jejuni -->
      <g style="fill: #262626" transform="translate(274.084609 325.091656) scale(0.11 -0.11)">
       <defs>
        <path id="ArialMT-43" d="M 3763 1606 
L 4369 1453 
Q 4178 706 3683 314 
Q 3188 -78 2472 -78 
Q 1731 -78 1267 223 
Q 803 525 561 1097 
Q 319 1669 319 2325 
Q 319 3041 592 3573 
Q 866 4106 1370 4382 
Q 1875 4659 2481 4659 
Q 3169 4659 3637 4309 
Q 4106 3959 4291 3325 
L 3694 3184 
Q 3534 3684 3231 3912 
Q 2928 4141 2469 4141 
Q 1941 4141 1586 3887 
Q 1231 3634 1087 3207 
Q 944 2781 944 2328 
Q 944 1744 1114 1308 
Q 1284 872 1643 656 
Q 2003 441 2422 441 
Q 2931 441 3284 734 
Q 3638 1028 3763 1606 
z
" transform="scale(0.015625)"/>
        <path id="ArialMT-70" d="M 422 -1272 
L 422 3319 
L 934 3319 
L 934 2888 
Q 1116 3141 1344 3267 
Q 1572 3394 1897 3394 
Q 2322 3394 2647 3175 
Q 2972 2956 3137 2557 
Q 3303 2159 3303 1684 
Q 3303 1175 3120 767 
Q 2938 359 2589 142 
Q 2241 -75 1856 -75 
Q 1575 -75 1351 44 
Q 1128 163 984 344 
L 984 -1272 
L 422 -1272 
z
M 931 1641 
Q 931 1000 1190 694 
Q 1450 388 1819 388 
Q 2194 388 2461 705 
Q 2728 1022 2728 1688 
Q 2728 2322 2467 2637 
Q 2206 2953 1844 2953 
Q 1484 2953 1207 2617 
Q 931 2281 931 1641 
z
" transform="scale(0.015625)"/>
        <path id="ArialMT-79" d="M 397 -1278 
L 334 -750 
Q 519 -800 656 -800 
Q 844 -800 956 -737 
Q 1069 -675 1141 -563 
Q 1194 -478 1313 -144 
Q 1328 -97 1363 -6 
L 103 3319 
L 709 3319 
L 1400 1397 
Q 1534 1031 1641 628 
Q 1738 1016 1872 1384 
L 2581 3319 
L 3144 3319 
L 1881 -56 
Q 1678 -603 1566 -809 
Q 1416 -1088 1222 -1217 
Q 1028 -1347 759 -1347 
Q 597 -1347 397 -1278 
z
" transform="scale(0.015625)"/>
        <path id="ArialMT-62" d="M 941 0 
L 419 0 
L 419 4581 
L 981 4581 
L 981 2947 
Q 1338 3394 1891 3394 
Q 2197 3394 2470 3270 
Q 2744 3147 2920 2923 
Q 3097 2700 3197 2384 
Q 3297 2069 3297 1709 
Q 3297 856 2875 390 
Q 2453 -75 1863 -75 
Q 1275 -75 941 416 
L 941 0 
z
M 934 1684 
Q 934 1088 1097 822 
Q 1363 388 1816 388 
Q 2184 388 2453 708 
Q 2722 1028 2722 1663 
Q 2722 2313 2464 2622 
Q 2206 2931 1841 2931 
Q 1472 2931 1203 2611 
Q 934 2291 934 1684 
z
" transform="scale(0.015625)"/>
        <path id="ArialMT-6a" d="M 419 3928 
L 419 4581 
L 981 4581 
L 981 3928 
L 419 3928 
z
M -294 -1288 
L -188 -809 
Q -19 -853 78 -853 
Q 250 -853 334 -739 
Q 419 -625 419 -169 
L 419 3319 
L 981 3319 
L 981 -181 
Q 981 -794 822 -1034 
Q 619 -1347 147 -1347 
Q -81 -1347 -294 -1288 
z
" transform="scale(0.015625)"/>
        <path id="ArialMT-75" d="M 2597 0 
L 2597 488 
Q 2209 -75 1544 -75 
Q 1250 -75 995 37 
Q 741 150 617 320 
Q 494 491 444 738 
Q 409 903 409 1263 
L 409 3319 
L 972 3319 
L 972 1478 
Q 972 1038 1006 884 
Q 1059 663 1231 536 
Q 1403 409 1656 409 
Q 1909 409 2131 539 
Q 2353 669 2445 892 
Q 2538 1116 2538 1541 
L 2538 3319 
L 3100 3319 
L 3100 0 
L 2597 0 
z
" transform="scale(0.015625)"/>
       </defs>
       <use xlink:href="#ArialMT-43"/>
       <use xlink:href="#ArialMT-61" transform="translate(72.216797 0)"/>
       <use xlink:href="#ArialMT-6d" transform="translate(127.832031 0)"/>
       <use xlink:href="#ArialMT-70" transform="translate(211.132812 0)"/>
       <use xlink:href="#ArialMT-79" transform="translate(266.748047 0)"/>
       <use xlink:href="#ArialMT-6c" transform="translate(316.748047 0)"/>
       <use xlink:href="#ArialMT-6f" transform="translate(338.964844 0)"/>
       <use xlink:href="#ArialMT-62" transform="translate(394.580078 0)"/>
       <use xlink:href="#ArialMT-61" transform="translate(450.195312 0)"/>
       <use xlink:href="#ArialMT-63" transform="translate(505.810547 0)"/>
       <use xlink:href="#ArialMT-74" transform="translate(555.810547 0)"/>
       <use xlink:href="#ArialMT-65" transform="translate(583.59375 0)"/>
       <use xlink:href="#ArialMT-72" transform="translate(639.208984 0)"/>
       <use xlink:href="#ArialMT-20" transform="translate(672.509766 0)"/>
       <use xlink:href="#ArialMT-6a" transform="translate(700.292969 0)"/>
       <use xlink:href="#ArialMT-65" transform="translate(722.509766 0)"/>
       <use xlink:href="#ArialMT-6a" transform="translate(778.125 0)"/>
       <use xlink:href="#ArialMT-75" transform="translate(800.341797 0)"/>
       <use xlink:href="#ArialMT-6e" transform="translate(855.957031 0)"/>
       <use xlink:href="#ArialMT-69" transform="translate(911.572266 0)"/>
      </g>
     </g>
    </g>
   </g>
   <g id="matplotlib.axis_2">
    <g id="ytick_1">
     <g id="line2d_1">
      <path d="M 57.6 304.918317 
L 414.72 304.918317 
" clip-path="url(#p23c2feb1cb)" style="fill: none; stroke: #ffffff; stroke-linecap: round"/>
     </g>
     <g id="text_3">
      <!-- −2.5 -->
      <g style="fill: #262626" transform="translate(26.385313 308.855114) scale(0.11 -0.11)">
       <defs>
        <path id="ArialMT-2212" d="M 3381 1997 
L 356 1997 
L 356 2522 
L 3381 2522 
L 3381 1997 
z
" transform="scale(0.015625)"/>
        <path id="ArialMT-32" d="M 3222 541 
L 3222 0 
L 194 0 
Q 188 203 259 391 
Q 375 700 629 1000 
Q 884 1300 1366 1694 
Q 2113 2306 2375 2664 
Q 2638 3022 2638 3341 
Q 2638 3675 2398 3904 
Q 2159 4134 1775 4134 
Q 1369 4134 1125 3890 
Q 881 3647 878 3216 
L 300 3275 
Q 359 3922 746 4261 
Q 1134 4600 1788 4600 
Q 2447 4600 2831 4234 
Q 3216 3869 3216 3328 
Q 3216 3053 3103 2787 
Q 2991 2522 2730 2228 
Q 2469 1934 1863 1422 
Q 1356 997 1212 845 
Q 1069 694 975 541 
L 3222 541 
z
" transform="scale(0.015625)"/>
        <path id="ArialMT-2e" d="M 581 0 
L 581 641 
L 1222 641 
L 1222 0 
L 581 0 
z
" transform="scale(0.015625)"/>
        <path id="ArialMT-35" d="M 266 1200 
L 856 1250 
Q 922 819 1161 601 
Q 1400 384 1738 384 
Q 2144 384 2425 690 
Q 2706 997 2706 1503 
Q 2706 1984 2436 2262 
Q 2166 2541 1728 2541 
Q 1456 2541 1237 2417 
Q 1019 2294 894 2097 
L 366 2166 
L 809 4519 
L 3088 4519 
L 3088 3981 
L 1259 3981 
L 1013 2750 
Q 1425 3038 1878 3038 
Q 2478 3038 2890 2622 
Q 3303 2206 3303 1553 
Q 3303 931 2941 478 
Q 2500 -78 1738 -78 
Q 1113 -78 717 272 
Q 322 622 266 1200 
z
" transform="scale(0.015625)"/>
       </defs>
       <use xlink:href="#ArialMT-2212"/>
       <use xlink:href="#ArialMT-32" transform="translate(58.398438 0)"/>
       <use xlink:href="#ArialMT-2e" transform="translate(114.013672 0)"/>
       <use xlink:href="#ArialMT-35" transform="translate(141.796875 0)"/>
      </g>
     </g>
    </g>
    <g id="ytick_2">
     <g id="line2d_2">
      <path d="M 57.6 272.320738 
L 414.72 272.320738 
" clip-path="url(#p23c2feb1cb)" style="fill: none; stroke: #ffffff; stroke-linecap: round"/>
     </g>
     <g id="text_4">
      <!-- 0.0 -->
      <g style="fill: #262626" transform="translate(32.81 276.257535) scale(0.11 -0.11)">
       <defs>
        <path id="ArialMT-30" d="M 266 2259 
Q 266 3072 433 3567 
Q 600 4063 929 4331 
Q 1259 4600 1759 4600 
Q 2128 4600 2406 4451 
Q 2684 4303 2865 4023 
Q 3047 3744 3150 3342 
Q 3253 2941 3253 2259 
Q 3253 1453 3087 958 
Q 2922 463 2592 192 
Q 2263 -78 1759 -78 
Q 1097 -78 719 397 
Q 266 969 266 2259 
z
M 844 2259 
Q 844 1131 1108 757 
Q 1372 384 1759 384 
Q 2147 384 2411 759 
Q 2675 1134 2675 2259 
Q 2675 3391 2411 3762 
Q 2147 4134 1753 4134 
Q 1366 4134 1134 3806 
Q 844 3388 844 2259 
z
" transform="scale(0.015625)"/>
       </defs>
       <use xlink:href="#ArialMT-30"/>
       <use xlink:href="#ArialMT-2e" transform="translate(55.615234 0)"/>
       <use xlink:href="#ArialMT-30" transform="translate(83.398438 0)"/>
      </g>
     </g>
    </g>
    <g id="ytick_3">
     <g id="line2d_3">
      <path d="M 57.6 239.723159 
L 414.72 239.723159 
" clip-path="url(#p23c2feb1cb)" style="fill: none; stroke: #ffffff; stroke-linecap: round"/>
     </g>
     <g id="text_5">
      <!-- 2.5 -->
      <g style="fill: #262626" transform="translate(32.81 243.659955) scale(0.11 -0.11)">
       <use xlink:href="#ArialMT-32"/>
       <use xlink:href="#ArialMT-2e" transform="translate(55.615234 0)"/>
       <use xlink:href="#ArialMT-35" transform="translate(83.398438 0)"/>
      </g>
     </g>
    </g>
    <g id="ytick_4">
     <g id="line2d_4">
      <path d="M 57.6 207.125579 
L 414.72 207.125579 
" clip-path="url(#p23c2feb1cb)" style="fill: none; stroke: #ffffff; stroke-linecap: round"/>
     </g>
     <g id="text_6">
      <!-- 5.0 -->
      <g style="fill: #262626" transform="translate(32.81 211.062376) scale(0.11 -0.11)">
       <use xlink:href="#ArialMT-35"/>
       <use xlink:href="#ArialMT-2e" transform="translate(55.615234 0)"/>
       <use xlink:href="#ArialMT-30" transform="translate(83.398438 0)"/>
      </g>
     </g>
    </g>
    <g id="ytick_5">
     <g id="line2d_5">
      <path d="M 57.6 174.528 
L 414.72 174.528 
" clip-path="url(#p23c2feb1cb)" style="fill: none; stroke: #ffffff; stroke-linecap: round"/>
     </g>
     <g id="text_7">
      <!-- 7.5 -->
      <g style="fill: #262626" transform="translate(32.81 178.464797) scale(0.11 -0.11)">
       <defs>
        <path id="ArialMT-37" d="M 303 3981 
L 303 4522 
L 3269 4522 
L 3269 4084 
Q 2831 3619 2401 2847 
Q 1972 2075 1738 1259 
Q 1569 684 1522 0 
L 944 0 
Q 953 541 1156 1306 
Q 1359 2072 1739 2783 
Q 2119 3494 2547 3981 
L 303 3981 
z
" transform="scale(0.015625)"/>
       </defs>
       <use xlink:href="#ArialMT-37"/>
       <use xlink:href="#ArialMT-2e" transform="translate(55.615234 0)"/>
       <use xlink:href="#ArialMT-35" transform="translate(83.398438 0)"/>
      </g>
     </g>
    </g>
    <g id="ytick_6">
     <g id="line2d_6">
      <path d="M 57.6 141.930421 
L 414.72 141.930421 
" clip-path="url(#p23c2feb1cb)" style="fill: none; stroke: #ffffff; stroke-linecap: round"/>
     </g>
     <g id="text_8">
      <!-- 10.0 -->
      <g style="fill: #262626" transform="translate(26.692969 145.867218) scale(0.11 -0.11)">
       <defs>
        <path id="ArialMT-31" d="M 2384 0 
L 1822 0 
L 1822 3584 
Q 1619 3391 1289 3197 
Q 959 3003 697 2906 
L 697 3450 
Q 1169 3672 1522 3987 
Q 1875 4303 2022 4600 
L 2384 4600 
L 2384 0 
z
" transform="scale(0.015625)"/>
       </defs>
       <use xlink:href="#ArialMT-31"/>
       <use xlink:href="#ArialMT-30" transform="translate(55.615234 0)"/>
       <use xlink:href="#ArialMT-2e" transform="translate(111.230469 0)"/>
       <use xlink:href="#ArialMT-30" transform="translate(139.013672 0)"/>
      </g>
     </g>
    </g>
    <g id="ytick_7">
     <g id="line2d_7">
      <path d="M 57.6 109.332841 
L 414.72 109.332841 
" clip-path="url(#p23c2feb1cb)" style="fill: none; stroke: #ffffff; stroke-linecap: round"/>
     </g>
     <g id="text_9">
      <!-- 12.5 -->
      <g style="fill: #262626" transform="translate(26.692969 113.269638) scale(0.11 -0.11)">
       <use xlink:href="#ArialMT-31"/>
       <use xlink:href="#ArialMT-32" transform="translate(55.615234 0)"/>
       <use xlink:href="#ArialMT-2e" transform="translate(111.230469 0)"/>
       <use xlink:href="#ArialMT-35" transform="translate(139.013672 0)"/>
      </g>
     </g>
    </g>
    <g id="ytick_8">
     <g id="line2d_8">
      <path d="M 57.6 76.735262 
L 414.72 76.735262 
" clip-path="url(#p23c2feb1cb)" style="fill: none; stroke: #ffffff; stroke-linecap: round"/>
     </g>
     <g id="text_10">
      <!-- 15.0 -->
      <g style="fill: #262626" transform="translate(26.692969 80.672059) scale(0.11 -0.11)">
       <use xlink:href="#ArialMT-31"/>
       <use xlink:href="#ArialMT-35" transform="translate(55.615234 0)"/>
       <use xlink:href="#ArialMT-2e" transform="translate(111.230469 0)"/>
       <use xlink:href="#ArialMT-30" transform="translate(139.013672 0)"/>
      </g>
     </g>
    </g>
    <g id="ytick_9">
     <g id="line2d_9">
      <path d="M 57.6 44.137683 
L 414.72 44.137683 
" clip-path="url(#p23c2feb1cb)" style="fill: none; stroke: #ffffff; stroke-linecap: round"/>
     </g>
     <g id="text_11">
      <!-- 17.5 -->
      <g style="fill: #262626" transform="translate(26.692969 48.07448) scale(0.11 -0.11)">
       <use xlink:href="#ArialMT-31"/>
       <use xlink:href="#ArialMT-37" transform="translate(55.615234 0)"/>
       <use xlink:href="#ArialMT-2e" transform="translate(111.230469 0)"/>
       <use xlink:href="#ArialMT-35" transform="translate(139.013672 0)"/>
      </g>
     </g>
    </g>
    <g id="text_12">
     <!-- Number of Identified AMR Genes -->
     <g style="fill: #262626" transform="translate(20.000312 262.56675) rotate(-90) scale(0.12 -0.12)">
      <defs>
       <path id="ArialMT-4e" d="M 488 0 
L 488 4581 
L 1109 4581 
L 3516 984 
L 3516 4581 
L 4097 4581 
L 4097 0 
L 3475 0 
L 1069 3600 
L 1069 0 
L 488 0 
z
" transform="scale(0.015625)"/>
       <path id="ArialMT-66" d="M 556 0 
L 556 2881 
L 59 2881 
L 59 3319 
L 556 3319 
L 556 3672 
Q 556 4006 616 4169 
Q 697 4388 901 4523 
Q 1106 4659 1475 4659 
Q 1713 4659 2000 4603 
L 1916 4113 
Q 1741 4144 1584 4144 
Q 1328 4144 1222 4034 
Q 1116 3925 1116 3625 
L 1116 3319 
L 1763 3319 
L 1763 2881 
L 1116 2881 
L 1116 0 
L 556 0 
z
" transform="scale(0.015625)"/>
       <path id="ArialMT-49" d="M 597 0 
L 597 4581 
L 1203 4581 
L 1203 0 
L 597 0 
z
" transform="scale(0.015625)"/>
       <path id="ArialMT-64" d="M 2575 0 
L 2575 419 
Q 2259 -75 1647 -75 
Q 1250 -75 917 144 
Q 584 363 401 755 
Q 219 1147 219 1656 
Q 219 2153 384 2558 
Q 550 2963 881 3178 
Q 1213 3394 1622 3394 
Q 1922 3394 2156 3267 
Q 2391 3141 2538 2938 
L 2538 4581 
L 3097 4581 
L 3097 0 
L 2575 0 
z
M 797 1656 
Q 797 1019 1065 703 
Q 1334 388 1700 388 
Q 2069 388 2326 689 
Q 2584 991 2584 1609 
Q 2584 2291 2321 2609 
Q 2059 2928 1675 2928 
Q 1300 2928 1048 2622 
Q 797 2316 797 1656 
z
" transform="scale(0.015625)"/>
       <path id="ArialMT-41" d="M -9 0 
L 1750 4581 
L 2403 4581 
L 4278 0 
L 3588 0 
L 3053 1388 
L 1138 1388 
L 634 0 
L -9 0 
z
M 1313 1881 
L 2866 1881 
L 2388 3150 
Q 2169 3728 2063 4100 
Q 1975 3659 1816 3225 
L 1313 1881 
z
" transform="scale(0.015625)"/>
       <path id="ArialMT-4d" d="M 475 0 
L 475 4581 
L 1388 4581 
L 2472 1338 
Q 2622 884 2691 659 
Q 2769 909 2934 1394 
L 4031 4581 
L 4847 4581 
L 4847 0 
L 4263 0 
L 4263 3834 
L 2931 0 
L 2384 0 
L 1059 3900 
L 1059 0 
L 475 0 
z
" transform="scale(0.015625)"/>
       <path id="ArialMT-52" d="M 503 0 
L 503 4581 
L 2534 4581 
Q 3147 4581 3465 4457 
Q 3784 4334 3975 4021 
Q 4166 3709 4166 3331 
Q 4166 2844 3850 2509 
Q 3534 2175 2875 2084 
Q 3116 1969 3241 1856 
Q 3506 1613 3744 1247 
L 4541 0 
L 3778 0 
L 3172 953 
Q 2906 1366 2734 1584 
Q 2563 1803 2427 1890 
Q 2291 1978 2150 2013 
Q 2047 2034 1813 2034 
L 1109 2034 
L 1109 0 
L 503 0 
z
M 1109 2559 
L 2413 2559 
Q 2828 2559 3062 2645 
Q 3297 2731 3419 2920 
Q 3541 3109 3541 3331 
Q 3541 3656 3305 3865 
Q 3069 4075 2559 4075 
L 1109 4075 
L 1109 2559 
z
" transform="scale(0.015625)"/>
       <path id="ArialMT-47" d="M 2638 1797 
L 2638 2334 
L 4578 2338 
L 4578 638 
Q 4131 281 3656 101 
Q 3181 -78 2681 -78 
Q 2006 -78 1454 211 
Q 903 500 622 1047 
Q 341 1594 341 2269 
Q 341 2938 620 3517 
Q 900 4097 1425 4378 
Q 1950 4659 2634 4659 
Q 3131 4659 3532 4498 
Q 3934 4338 4162 4050 
Q 4391 3763 4509 3300 
L 3963 3150 
Q 3859 3500 3706 3700 
Q 3553 3900 3268 4020 
Q 2984 4141 2638 4141 
Q 2222 4141 1919 4014 
Q 1616 3888 1430 3681 
Q 1244 3475 1141 3228 
Q 966 2803 966 2306 
Q 966 1694 1177 1281 
Q 1388 869 1791 669 
Q 2194 469 2647 469 
Q 3041 469 3416 620 
Q 3791 772 3984 944 
L 3984 1797 
L 2638 1797 
z
" transform="scale(0.015625)"/>
       <path id="ArialMT-73" d="M 197 991 
L 753 1078 
Q 800 744 1014 566 
Q 1228 388 1613 388 
Q 2000 388 2187 545 
Q 2375 703 2375 916 
Q 2375 1106 2209 1216 
Q 2094 1291 1634 1406 
Q 1016 1563 777 1677 
Q 538 1791 414 1992 
Q 291 2194 291 2438 
Q 291 2659 392 2848 
Q 494 3038 669 3163 
Q 800 3259 1026 3326 
Q 1253 3394 1513 3394 
Q 1903 3394 2198 3281 
Q 2494 3169 2634 2976 
Q 2775 2784 2828 2463 
L 2278 2388 
Q 2241 2644 2061 2787 
Q 1881 2931 1553 2931 
Q 1166 2931 1000 2803 
Q 834 2675 834 2503 
Q 834 2394 903 2306 
Q 972 2216 1119 2156 
Q 1203 2125 1616 2013 
Q 2213 1853 2448 1751 
Q 2684 1650 2818 1456 
Q 2953 1263 2953 975 
Q 2953 694 2789 445 
Q 2625 197 2315 61 
Q 2006 -75 1616 -75 
Q 969 -75 630 194 
Q 291 463 197 991 
z
" transform="scale(0.015625)"/>
      </defs>
      <use xlink:href="#ArialMT-4e"/>
      <use xlink:href="#ArialMT-75" transform="translate(72.216797 0)"/>
      <use xlink:href="#ArialMT-6d" transform="translate(127.832031 0)"/>
      <use xlink:href="#ArialMT-62" transform="translate(211.132812 0)"/>
      <use xlink:href="#ArialMT-65" transform="translate(266.748047 0)"/>
      <use xlink:href="#ArialMT-72" transform="translate(322.363281 0)"/>
      <use xlink:href="#ArialMT-20" transform="translate(355.664062 0)"/>
      <use xlink:href="#ArialMT-6f" transform="translate(383.447266 0)"/>
      <use xlink:href="#ArialMT-66" transform="translate(439.0625 0)"/>
      <use xlink:href="#ArialMT-20" transform="translate(466.845703 0)"/>
      <use xlink:href="#ArialMT-49" transform="translate(494.628906 0)"/>
      <use xlink:href="#ArialMT-64" transform="translate(522.412109 0)"/>
      <use xlink:href="#ArialMT-65" transform="translate(578.027344 0)"/>
      <use xlink:href="#ArialMT-6e" transform="translate(633.642578 0)"/>
      <use xlink:href="#ArialMT-74" transform="translate(689.257812 0)"/>
      <use xlink:href="#ArialMT-69" transform="translate(717.041016 0)"/>
      <use xlink:href="#ArialMT-66" transform="translate(739.257812 0)"/>
      <use xlink:href="#ArialMT-69" transform="translate(767.041016 0)"/>
      <use xlink:href="#ArialMT-65" transform="translate(789.257812 0)"/>
      <use xlink:href="#ArialMT-64" transform="translate(844.873047 0)"/>
      <use xlink:href="#ArialMT-20" transform="translate(900.488281 0)"/>
      <use xlink:href="#ArialMT-41" transform="translate(922.771484 0)"/>
      <use xlink:href="#ArialMT-4d" transform="translate(989.470703 0)"/>
      <use xlink:href="#ArialMT-52" transform="translate(1072.771484 0)"/>
      <use xlink:href="#ArialMT-20" transform="translate(1144.988281 0)"/>
      <use xlink:href="#ArialMT-47" transform="translate(1172.771484 0)"/>
      <use xlink:href="#ArialMT-65" transform="translate(1250.554688 0)"/>
      <use xlink:href="#ArialMT-6e" transform="translate(1306.169922 0)"/>
      <use xlink:href="#ArialMT-65" transform="translate(1361.785156 0)"/>
      <use xlink:href="#ArialMT-73" transform="translate(1417.400391 0)"/>
     </g>
    </g>
   </g>
   <g id="FillBetweenPolyCollection_1">
    <defs>
     <path id="mfcd8631461" d="M 149.323339 -56.652799 
L 144.436661 -56.652799 
L 143.862463 -58.964298 
L 143.196272 -61.275797 
L 142.434658 -63.587296 
L 141.576928 -65.898795 
L 140.625643 -68.210294 
L 139.58698 -70.521793 
L 138.470906 -72.833292 
L 137.291081 -75.144791 
L 136.064465 -77.45629 
L 134.81058 -79.767789 
L 133.550443 -82.079288 
L 132.305192 -84.390787 
L 131.094457 -86.702286 
L 129.934597 -89.013785 
L 128.836902 -91.325284 
L 127.805915 -93.636783 
L 126.838048 -95.948282 
L 125.920621 -98.259781 
L 125.031502 -100.57128 
L 124.139423 -102.882779 
L 123.205083 -105.194278 
L 122.183018 -107.505777 
L 121.024212 -109.817276 
L 119.67933 -112.128775 
L 118.102393 -114.440274 
L 116.25467 -116.751773 
L 114.108512 -119.063272 
L 111.650822 -121.374771 
L 108.885875 -123.68627 
L 105.83721 -125.997769 
L 102.548367 -128.309268 
L 99.082323 -130.620767 
L 95.519574 -132.932266 
L 91.9549 -135.243765 
L 88.492985 -137.555264 
L 85.243138 -139.866763 
L 82.313477 -142.178262 
L 79.804958 -144.489761 
L 77.80571 -146.80126 
L 76.386067 -149.112759 
L 75.59468 -151.424258 
L 75.456 -153.735757 
L 75.969285 -156.047256 
L 77.109196 -158.358755 
L 78.827888 -160.670254 
L 81.058391 -162.981753 
L 83.718981 -165.293252 
L 86.718174 -167.604751 
L 89.959935 -169.91625 
L 93.348722 -172.22775 
L 96.794007 -174.539249 
L 100.214017 -176.850748 
L 103.538488 -179.162247 
L 106.710377 -181.473746 
L 109.686527 -183.785245 
L 112.437391 -186.096744 
L 114.945984 -188.408243 
L 117.206264 -190.719742 
L 119.22118 -193.031241 
L 121.00058 -195.34274 
L 122.559205 -197.654239 
L 123.914885 -199.965738 
L 125.087063 -202.277237 
L 126.095683 -204.588736 
L 126.960455 -206.900235 
L 127.700447 -209.211734 
L 128.333947 -211.523233 
L 128.87851 -213.834732 
L 129.351091 -216.146231 
L 129.768199 -218.45773 
L 130.145983 -220.769229 
L 130.500224 -223.080728 
L 130.846195 -225.392227 
L 131.198393 -227.703726 
L 131.570174 -230.015225 
L 131.973317 -232.326724 
L 132.417573 -234.638223 
L 132.910256 -236.949722 
L 133.455907 -239.261221 
L 134.056102 -241.57272 
L 134.709398 -243.884219 
L 135.411459 -246.195718 
L 136.155334 -248.507217 
L 136.931886 -250.818716 
L 137.730331 -253.130215 
L 138.538847 -255.441714 
L 139.345214 -257.753213 
L 140.137431 -260.064712 
L 140.90428 -262.376211 
L 141.635801 -264.68771 
L 142.323647 -266.999209 
L 142.961323 -269.310708 
L 143.544289 -271.622207 
L 144.069947 -273.933706 
L 144.537533 -276.245205 
L 144.947914 -278.556704 
L 145.303337 -280.868203 
L 145.607144 -283.179702 
L 145.863469 -285.491201 
L 147.896531 -285.491201 
L 147.896531 -285.491201 
L 148.152856 -283.179702 
L 148.456663 -280.868203 
L 148.812086 -278.556704 
L 149.222467 -276.245205 
L 149.690053 -273.933706 
L 150.215711 -271.622207 
L 150.798677 -269.310708 
L 151.436353 -266.999209 
L 152.124199 -264.68771 
L 152.85572 -262.376211 
L 153.622569 -260.064712 
L 154.414786 -257.753213 
L 155.221153 -255.441714 
L 156.029669 -253.130215 
L 156.828114 -250.818716 
L 157.604666 -248.507217 
L 158.348541 -246.195718 
L 159.050602 -243.884219 
L 159.703898 -241.57272 
L 160.304093 -239.261221 
L 160.849744 -236.949722 
L 161.342427 -234.638223 
L 161.786683 -232.326724 
L 162.189826 -230.015225 
L 162.561607 -227.703726 
L 162.913805 -225.392227 
L 163.259776 -223.080728 
L 163.614017 -220.769229 
L 163.991801 -218.45773 
L 164.408909 -216.146231 
L 164.88149 -213.834732 
L 165.426053 -211.523233 
L 166.059553 -209.211734 
L 166.799545 -206.900235 
L 167.664317 -204.588736 
L 168.672937 -202.277237 
L 169.845115 -199.965738 
L 171.200795 -197.654239 
L 172.75942 -195.34274 
L 174.53882 -193.031241 
L 176.553736 -190.719742 
L 178.814016 -188.408243 
L 181.322609 -186.096744 
L 184.073473 -183.785245 
L 187.049623 -181.473746 
L 190.221512 -179.162247 
L 193.545983 -176.850748 
L 196.965993 -174.539249 
L 200.411278 -172.22775 
L 203.800065 -169.91625 
L 207.041826 -167.604751 
L 210.041019 -165.293252 
L 212.701609 -162.981753 
L 214.932112 -160.670254 
L 216.650804 -158.358755 
L 217.790715 -156.047256 
L 218.304 -153.735757 
L 218.16532 -151.424258 
L 217.373933 -149.112759 
L 215.95429 -146.80126 
L 213.955042 -144.489761 
L 211.446523 -142.178262 
L 208.516862 -139.866763 
L 205.267015 -137.555264 
L 201.8051 -135.243765 
L 198.240426 -132.932266 
L 194.677677 -130.620767 
L 191.211633 -128.309268 
L 187.92279 -125.997769 
L 184.874125 -123.68627 
L 182.109178 -121.374771 
L 179.651488 -119.063272 
L 177.50533 -116.751773 
L 175.657607 -114.440274 
L 174.08067 -112.128775 
L 172.735788 -109.817276 
L 171.576982 -107.505777 
L 170.554917 -105.194278 
L 169.620577 -102.882779 
L 168.728498 -100.57128 
L 167.839379 -98.259781 
L 166.921952 -95.948282 
L 165.954085 -93.636783 
L 164.923098 -91.325284 
L 163.825403 -89.013785 
L 162.665543 -86.702286 
L 161.454808 -84.390787 
L 160.209557 -82.079288 
L 158.94942 -79.767789 
L 157.695535 -77.45629 
L 156.468919 -75.144791 
L 155.289094 -72.833292 
L 154.17302 -70.521793 
L 153.134357 -68.210294 
L 152.183072 -65.898795 
L 151.325342 -63.587296 
L 150.563728 -61.275797 
L 149.897537 -58.964298 
L 149.323339 -56.652799 
z
" style="stroke: #4c4c4c; stroke-width: 1.25"/>
    </defs>
    <g clip-path="url(#p23c2feb1cb)">
     <use xlink:href="#mfcd8631461" x="0" y="345.6" style="fill: #5875a4; stroke: #4c4c4c; stroke-width: 1.25"/>
    </g>
   </g>
   <g id="FillBetweenPolyCollection_2">
    <defs>
     <path id="macb7508171" d="M 328.60701 -50.112 
L 322.27299 -50.112 
L 321.596628 -52.555636 
L 320.821532 -54.999273 
L 319.944516 -57.442909 
L 318.965049 -59.886545 
L 317.885781 -62.330182 
L 316.712996 -64.773818 
L 315.456949 -67.217455 
L 314.132048 -69.661091 
L 312.75685 -72.104727 
L 311.353833 -74.548364 
L 309.948943 -76.992 
L 308.570904 -79.435636 
L 307.250318 -81.879273 
L 306.018583 -84.322909 
L 304.906675 -86.766545 
L 303.943875 -89.210182 
L 303.156488 -91.653818 
L 302.566655 -94.097455 
L 302.191318 -96.541091 
L 302.04141 -98.984727 
L 302.121326 -101.428364 
L 302.428708 -103.872 
L 302.954556 -106.315636 
L 303.683661 -108.759273 
L 304.595334 -111.202909 
L 305.664366 -113.646545 
L 306.862173 -116.090182 
L 308.158043 -118.533818 
L 309.520405 -120.977455 
L 310.918048 -123.421091 
L 312.321215 -125.864727 
L 313.702531 -128.308364 
L 315.037698 -130.752 
L 316.305959 -133.195636 
L 317.490301 -135.639273 
L 318.577419 -138.082909 
L 319.557458 -140.526545 
L 320.423559 -142.970182 
L 321.171254 -145.413818 
L 321.797757 -147.857455 
L 322.30118 -150.301091 
L 322.679746 -152.744727 
L 322.931005 -155.188364 
L 323.051134 -157.632 
L 323.034327 -160.075636 
L 322.872329 -162.519273 
L 322.554135 -164.962909 
L 322.0659 -167.406545 
L 321.391066 -169.850182 
L 320.510748 -172.293818 
L 319.404377 -174.737455 
L 318.050619 -177.181091 
L 316.428548 -179.624727 
L 314.51906 -182.068364 
L 312.306479 -184.512 
L 309.780288 -186.955636 
L 306.93691 -189.399273 
L 303.781424 -191.842909 
L 300.329108 -194.286545 
L 296.606681 -196.730182 
L 292.653108 -199.173818 
L 288.519879 -201.617455 
L 284.270636 -204.061091 
L 279.980123 -206.504727 
L 275.732416 -208.948364 
L 271.618469 -211.392 
L 267.733071 -213.835636 
L 264.17133 -216.279273 
L 261.024868 -218.722909 
L 258.377941 -221.166545 
L 256.303701 -223.610182 
L 254.860842 -226.053818 
L 254.090847 -228.497455 
L 254.016 -230.941091 
L 254.638322 -233.384727 
L 255.939478 -235.828364 
L 257.881673 -238.272 
L 260.409478 -240.715636 
L 263.45246 -243.159273 
L 266.928433 -245.602909 
L 270.747139 -248.046545 
L 274.814117 -250.490182 
L 279.034526 -252.933818 
L 283.316731 -255.377455 
L 287.575443 -257.821091 
L 291.734292 -260.264727 
L 295.727743 -262.708364 
L 299.502302 -265.152 
L 303.017045 -267.595636 
L 306.2435 -270.039273 
L 309.16499 -272.482909 
L 311.775528 -274.926545 
L 314.078406 -277.370182 
L 316.084586 -279.813818 
L 317.811015 -282.257455 
L 319.27897 -284.701091 
L 320.512512 -287.144727 
L 321.537109 -289.588364 
L 322.378465 -292.032 
L 328.501535 -292.032 
L 328.501535 -292.032 
L 329.342891 -289.588364 
L 330.367488 -287.144727 
L 331.60103 -284.701091 
L 333.068985 -282.257455 
L 334.795414 -279.813818 
L 336.801594 -277.370182 
L 339.104472 -274.926545 
L 341.71501 -272.482909 
L 344.6365 -270.039273 
L 347.862955 -267.595636 
L 351.377698 -265.152 
L 355.152257 -262.708364 
L 359.145708 -260.264727 
L 363.304557 -257.821091 
L 367.563269 -255.377455 
L 371.845474 -252.933818 
L 376.065883 -250.490182 
L 380.132861 -248.046545 
L 383.951567 -245.602909 
L 387.42754 -243.159273 
L 390.470522 -240.715636 
L 392.998327 -238.272 
L 394.940522 -235.828364 
L 396.241678 -233.384727 
L 396.864 -230.941091 
L 396.789153 -228.497455 
L 396.019158 -226.053818 
L 394.576299 -223.610182 
L 392.502059 -221.166545 
L 389.855132 -218.722909 
L 386.70867 -216.279273 
L 383.146929 -213.835636 
L 379.261531 -211.392 
L 375.147584 -208.948364 
L 370.899877 -206.504727 
L 366.609364 -204.061091 
L 362.360121 -201.617455 
L 358.226892 -199.173818 
L 354.273319 -196.730182 
L 350.550892 -194.286545 
L 347.098576 -191.842909 
L 343.94309 -189.399273 
L 341.099712 -186.955636 
L 338.573521 -184.512 
L 336.36094 -182.068364 
L 334.451452 -179.624727 
L 332.829381 -177.181091 
L 331.475623 -174.737455 
L 330.369252 -172.293818 
L 329.488934 -169.850182 
L 328.8141 -167.406545 
L 328.325865 -164.962909 
L 328.007671 -162.519273 
L 327.845673 -160.075636 
L 327.828866 -157.632 
L 327.948995 -155.188364 
L 328.200254 -152.744727 
L 328.57882 -150.301091 
L 329.082243 -147.857455 
L 329.708746 -145.413818 
L 330.456441 -142.970182 
L 331.322542 -140.526545 
L 332.302581 -138.082909 
L 333.389699 -135.639273 
L 334.574041 -133.195636 
L 335.842302 -130.752 
L 337.177469 -128.308364 
L 338.558785 -125.864727 
L 339.961952 -123.421091 
L 341.359595 -120.977455 
L 342.721957 -118.533818 
L 344.017827 -116.090182 
L 345.215634 -113.646545 
L 346.284666 -111.202909 
L 347.196339 -108.759273 
L 347.925444 -106.315636 
L 348.451292 -103.872 
L 348.758674 -101.428364 
L 348.83859 -98.984727 
L 348.688682 -96.541091 
L 348.313345 -94.097455 
L 347.723512 -91.653818 
L 346.936125 -89.210182 
L 345.973325 -86.766545 
L 344.861417 -84.322909 
L 343.629682 -81.879273 
L 342.309096 -79.435636 
L 340.931057 -76.992 
L 339.526167 -74.548364 
L 338.12315 -72.104727 
L 336.747952 -69.661091 
L 335.423051 -67.217455 
L 334.167004 -64.773818 
L 332.994219 -62.330182 
L 331.914951 -59.886545 
L 330.935484 -57.442909 
L 330.058468 -54.999273 
L 329.283372 -52.555636 
L 328.60701 -50.112 
z
" style="stroke: #4c4c4c; stroke-width: 1.25"/>
    </defs>
    <g clip-path="url(#p23c2feb1cb)">
     <use xlink:href="#macb7508171" x="0" y="345.6" style="fill: #cc8963; stroke: #4c4c4c; stroke-width: 1.25"/>
    </g>
   </g>
   <g id="line2d_10">
    <path d="M 146.88 194.086548 
L 146.88 168.008484 
" clip-path="url(#p23c2feb1cb)" style="fill: none; stroke: #4c4c4c; stroke-width: 1.875; stroke-linecap: round"/>
   </g>
   <g id="line2d_11">
    <path d="M 146.88 194.086548 
L 146.88 181.047516 
" clip-path="url(#p23c2feb1cb)" style="fill: none; stroke: #4c4c4c; stroke-width: 5.625; stroke-linecap: round"/>
   </g>
   <g id="line2d_12">
    <path d="M 146.88 194.086548 
" clip-path="url(#p23c2feb1cb)" style="fill: none; stroke: #4c4c4c; stroke-width: 1.5; stroke-linecap: round"/>
    <defs>
     <path id="m6928750eeb" d="M 2.34375 0 
L -2.34375 -0 
" style="stroke: #ffffff; stroke-width: 1.125"/>
    </defs>
    <g clip-path="url(#p23c2feb1cb)">
     <use xlink:href="#m6928750eeb" x="146.88" y="194.086548" style="fill: #ffffff; stroke: #ffffff; stroke-width: 1.125"/>
    </g>
   </g>
   <g id="line2d_13">
    <path d="M 325.44 115.852357 
L 325.44 115.852357 
" clip-path="url(#p23c2feb1cb)" style="fill: none; stroke: #4c4c4c; stroke-width: 1.875; stroke-linecap: round"/>
   </g>
   <g id="line2d_14">
    <path d="M 325.44 115.852357 
L 325.44 115.852357 
" clip-path="url(#p23c2feb1cb)" style="fill: none; stroke: #4c4c4c; stroke-width: 5.625; stroke-linecap: round"/>
   </g>
   <g id="line2d_15">
    <path d="M 325.44 115.852357 
" clip-path="url(#p23c2feb1cb)" style="fill: none; stroke: #4c4c4c; stroke-width: 1.5; stroke-linecap: round"/>
    <g clip-path="url(#p23c2feb1cb)">
     <use xlink:href="#m6928750eeb" x="325.44" y="115.852357" style="fill: #ffffff; stroke: #ffffff; stroke-width: 1.125"/>
    </g>
   </g>
   <g id="patch_3">
    <path d="M 57.6 307.584 
L 57.6 41.472 
" style="fill: none; stroke: #ffffff; stroke-width: 1.25; stroke-linejoin: miter; stroke-linecap: square"/>
   </g>
   <g id="patch_4">
    <path d="M 414.72 307.584 
L 414.72 41.472 
" style="fill: none; stroke: #ffffff; stroke-width: 1.25; stroke-linejoin: miter; stroke-linecap: square"/>
   </g>
   <g id="patch_5">
    <path d="M 57.6 307.584 
L 414.72 307.584 
" style="fill: none; stroke: #ffffff; stroke-width: 1.25; stroke-linejoin: miter; stroke-linecap: square"/>
   </g>
   <g id="patch_6">
    <path d="M 57.6 41.472 
L 414.72 41.472 
" style="fill: none; stroke: #ffffff; stroke-width: 1.25; stroke-linejoin: miter; stroke-linecap: square"/>
   </g>
   <g id="PathCollection_1">
    <defs>
     <path id="m9450212544" d="M 0 2.5 
C 0.663008 2.5 1.29895 2.236584 1.767767 1.767767 
C 2.236584 1.29895 2.5 0.663008 2.5 0 
C 2.5 -0.663008 2.236584 -1.29895 1.767767 -1.767767 
C 1.29895 -2.236584 0.663008 -2.5 0 -2.5 
C -0.663008 -2.5 -1.29895 -2.236584 -1.767767 -1.767767 
C -2.236584 -1.29895 -2.5 -0.663008 -2.5 0 
C -2.5 0.663008 -2.236584 1.29895 -1.767767 1.767767 
C -1.29895 2.236584 -0.663008 2.5 0 2.5 
z
"/>
    </defs>
    <g clip-path="url(#p23c2feb1cb)">
     <use xlink:href="#m9450212544" x="131.13" y="194.086548" style="fill: #ffffff"/>
     <use xlink:href="#m9450212544" x="146.88" y="168.008484" style="fill: #ffffff"/>
     <use xlink:href="#m9450212544" x="146.88" y="115.852357" style="fill: #ffffff"/>
     <use xlink:href="#m9450212544" x="146.88" y="102.813326" style="fill: #ffffff"/>
     <use xlink:href="#m9450212544" x="120.63" y="194.086548" style="fill: #ffffff"/>
     <use xlink:href="#m9450212544" x="167.88" y="194.086548" style="fill: #ffffff"/>
     <use xlink:href="#m9450212544" x="125.88" y="194.086548" style="fill: #ffffff"/>
     <use xlink:href="#m9450212544" x="162.63" y="194.086548" style="fill: #ffffff"/>
     <use xlink:href="#m9450212544" x="146.88" y="154.969452" style="fill: #ffffff"/>
     <use xlink:href="#m9450212544" x="173.13" y="194.086548" style="fill: #ffffff"/>
     <use xlink:href="#m9450212544" x="146.88" y="141.930421" style="fill: #ffffff"/>
     <use xlink:href="#m9450212544" x="157.38" y="194.086548" style="fill: #ffffff"/>
     <use xlink:href="#m9450212544" x="136.38" y="194.086548" style="fill: #ffffff"/>
     <use xlink:href="#m9450212544" x="152.13" y="194.086548" style="fill: #ffffff"/>
     <use xlink:href="#m9450212544" x="141.63" y="194.086548" style="fill: #ffffff"/>
     <use xlink:href="#m9450212544" x="146.88" y="194.086548" style="fill: #ffffff"/>
     <use xlink:href="#m9450212544" x="141.63" y="246.242674" style="fill: #ffffff"/>
     <use xlink:href="#m9450212544" x="152.13" y="246.242674" style="fill: #ffffff"/>
     <use xlink:href="#m9450212544" x="146.88" y="246.242674" style="fill: #ffffff"/>
    </g>
   </g>
   <g id="PathCollection_2">
    <g clip-path="url(#p23c2feb1cb)">
     <use xlink:href="#m9450212544" x="283.44" y="115.852357" style="fill: #ffffff"/>
     <use xlink:href="#m9450212544" x="278.19" y="115.852357" style="fill: #ffffff"/>
     <use xlink:href="#m9450212544" x="372.69" y="115.852357" style="fill: #ffffff"/>
     <use xlink:href="#m9450212544" x="272.94" y="115.852357" style="fill: #ffffff"/>
     <use xlink:href="#m9450212544" x="377.94" y="115.852357" style="fill: #ffffff"/>
     <use xlink:href="#m9450212544" x="267.69" y="115.852357" style="fill: #ffffff"/>
     <use xlink:href="#m9450212544" x="383.19" y="115.852357" style="fill: #ffffff"/>
     <use xlink:href="#m9450212544" x="262.44" y="115.852357" style="fill: #ffffff"/>
     <use xlink:href="#m9450212544" x="388.44" y="115.852357" style="fill: #ffffff"/>
     <use xlink:href="#m9450212544" x="257.19" y="115.852357" style="fill: #ffffff"/>
     <use xlink:href="#m9450212544" x="393.69" y="115.852357" style="fill: #ffffff"/>
     <use xlink:href="#m9450212544" x="254.016" y="115.852357" style="fill: #ffffff"/>
     <use xlink:href="#m9450212544" x="396.864" y="115.852357" style="fill: #ffffff"/>
     <use xlink:href="#m9450212544" x="254.016" y="115.852357" style="fill: #ffffff"/>
     <use xlink:href="#m9450212544" x="396.864" y="115.852357" style="fill: #ffffff"/>
     <use xlink:href="#m9450212544" x="396.864" y="115.852357" style="fill: #ffffff"/>
     <use xlink:href="#m9450212544" x="396.864" y="115.852357" style="fill: #ffffff"/>
     <use xlink:href="#m9450212544" x="254.016" y="115.852357" style="fill: #ffffff"/>
     <use xlink:href="#m9450212544" x="396.864" y="115.852357" style="fill: #ffffff"/>
     <use xlink:href="#m9450212544" x="254.016" y="115.852357" style="fill: #ffffff"/>
     <use xlink:href="#m9450212544" x="396.864" y="115.852357" style="fill: #ffffff"/>
     <use xlink:href="#m9450212544" x="254.016" y="115.852357" style="fill: #ffffff"/>
     <use xlink:href="#m9450212544" x="396.864" y="115.852357" style="fill: #ffffff"/>
     <use xlink:href="#m9450212544" x="254.016" y="115.852357" style="fill: #ffffff"/>
     <use xlink:href="#m9450212544" x="396.864" y="115.852357" style="fill: #ffffff"/>
     <use xlink:href="#m9450212544" x="254.016" y="115.852357" style="fill: #ffffff"/>
     <use xlink:href="#m9450212544" x="396.864" y="115.852357" style="fill: #ffffff"/>
     <use xlink:href="#m9450212544" x="254.016" y="115.852357" style="fill: #ffffff"/>
     <use xlink:href="#m9450212544" x="396.864" y="115.852357" style="fill: #ffffff"/>
     <use xlink:href="#m9450212544" x="254.016" y="115.852357" style="fill: #ffffff"/>
     <use xlink:href="#m9450212544" x="367.44" y="115.852357" style="fill: #ffffff"/>
     <use xlink:href="#m9450212544" x="254.016" y="115.852357" style="fill: #ffffff"/>
     <use xlink:href="#m9450212544" x="254.016" y="115.852357" style="fill: #ffffff"/>
     <use xlink:href="#m9450212544" x="356.94" y="115.852357" style="fill: #ffffff"/>
     <use xlink:href="#m9450212544" x="325.44" y="115.852357" style="fill: #ffffff"/>
     <use xlink:href="#m9450212544" x="320.19" y="115.852357" style="fill: #ffffff"/>
     <use xlink:href="#m9450212544" x="330.69" y="115.852357" style="fill: #ffffff"/>
     <use xlink:href="#m9450212544" x="314.94" y="115.852357" style="fill: #ffffff"/>
     <use xlink:href="#m9450212544" x="335.94" y="115.852357" style="fill: #ffffff"/>
     <use xlink:href="#m9450212544" x="309.69" y="115.852357" style="fill: #ffffff"/>
     <use xlink:href="#m9450212544" x="288.69" y="115.852357" style="fill: #ffffff"/>
     <use xlink:href="#m9450212544" x="304.44" y="115.852357" style="fill: #ffffff"/>
     <use xlink:href="#m9450212544" x="325.44" y="102.813326" style="fill: #ffffff"/>
     <use xlink:href="#m9450212544" x="346.44" y="115.852357" style="fill: #ffffff"/>
     <use xlink:href="#m9450212544" x="341.19" y="115.852357" style="fill: #ffffff"/>
     <use xlink:href="#m9450212544" x="299.19" y="115.852357" style="fill: #ffffff"/>
     <use xlink:href="#m9450212544" x="351.69" y="115.852357" style="fill: #ffffff"/>
     <use xlink:href="#m9450212544" x="293.94" y="115.852357" style="fill: #ffffff"/>
     <use xlink:href="#m9450212544" x="362.19" y="115.852357" style="fill: #ffffff"/>
     <use xlink:href="#m9450212544" x="320.19" y="246.242674" style="fill: #ffffff"/>
     <use xlink:href="#m9450212544" x="330.69" y="246.242674" style="fill: #ffffff"/>
     <use xlink:href="#m9450212544" x="314.94" y="246.242674" style="fill: #ffffff"/>
     <use xlink:href="#m9450212544" x="335.94" y="246.242674" style="fill: #ffffff"/>
     <use xlink:href="#m9450212544" x="309.69" y="246.242674" style="fill: #ffffff"/>
     <use xlink:href="#m9450212544" x="341.19" y="246.242674" style="fill: #ffffff"/>
     <use xlink:href="#m9450212544" x="304.44" y="246.242674" style="fill: #ffffff"/>
     <use xlink:href="#m9450212544" x="283.44" y="246.242674" style="fill: #ffffff"/>
     <use xlink:href="#m9450212544" x="299.19" y="246.242674" style="fill: #ffffff"/>
     <use xlink:href="#m9450212544" x="351.69" y="246.242674" style="fill: #ffffff"/>
     <use xlink:href="#m9450212544" x="293.94" y="246.242674" style="fill: #ffffff"/>
     <use xlink:href="#m9450212544" x="356.94" y="246.242674" style="fill: #ffffff"/>
     <use xlink:href="#m9450212544" x="288.69" y="246.242674" style="fill: #ffffff"/>
     <use xlink:href="#m9450212544" x="362.19" y="246.242674" style="fill: #ffffff"/>
     <use xlink:href="#m9450212544" x="346.44" y="246.242674" style="fill: #ffffff"/>
     <use xlink:href="#m9450212544" x="325.44" y="246.242674" style="fill: #ffffff"/>
    </g>
   </g>
   <g id="text_13">
    <!-- Identified AMR Gene counts per Samples' species -->
    <g style="fill: #262626" transform="translate(102.950625 35.472) scale(0.12 -0.12)">
     <defs>
      <path id="ArialMT-27" d="M 425 2959 
L 281 3816 
L 281 4581 
L 922 4581 
L 922 3816 
L 772 2959 
L 425 2959 
z
" transform="scale(0.015625)"/>
     </defs>
     <use xlink:href="#ArialMT-49"/>
     <use xlink:href="#ArialMT-64" transform="translate(27.783203 0)"/>
     <use xlink:href="#ArialMT-65" transform="translate(83.398438 0)"/>
     <use xlink:href="#ArialMT-6e" transform="translate(139.013672 0)"/>
     <use xlink:href="#ArialMT-74" transform="translate(194.628906 0)"/>
     <use xlink:href="#ArialMT-69" transform="translate(222.412109 0)"/>
     <use xlink:href="#ArialMT-66" transform="translate(244.628906 0)"/>
     <use xlink:href="#ArialMT-69" transform="translate(272.412109 0)"/>
     <use xlink:href="#ArialMT-65" transform="translate(294.628906 0)"/>
     <use xlink:href="#ArialMT-64" transform="translate(350.244141 0)"/>
     <use xlink:href="#ArialMT-20" transform="translate(405.859375 0)"/>
     <use xlink:href="#ArialMT-41" transform="translate(428.142578 0)"/>
     <use xlink:href="#ArialMT-4d" transform="translate(494.841797 0)"/>
     <use xlink:href="#ArialMT-52" transform="translate(578.142578 0)"/>
     <use xlink:href="#ArialMT-20" transform="translate(650.359375 0)"/>
     <use xlink:href="#ArialMT-47" transform="translate(678.142578 0)"/>
     <use xlink:href="#ArialMT-65" transform="translate(755.925781 0)"/>
     <use xlink:href="#ArialMT-6e" transform="translate(811.541016 0)"/>
     <use xlink:href="#ArialMT-65" transform="translate(867.15625 0)"/>
     <use xlink:href="#ArialMT-20" transform="translate(922.771484 0)"/>
     <use xlink:href="#ArialMT-63" transform="translate(950.554688 0)"/>
     <use xlink:href="#ArialMT-6f" transform="translate(1000.554688 0)"/>
     <use xlink:href="#ArialMT-75" transform="translate(1056.169922 0)"/>
     <use xlink:href="#ArialMT-6e" transform="translate(1111.785156 0)"/>
     <use xlink:href="#ArialMT-74" transform="translate(1167.400391 0)"/>
     <use xlink:href="#ArialMT-73" transform="translate(1195.183594 0)"/>
     <use xlink:href="#ArialMT-20" transform="translate(1245.183594 0)"/>
     <use xlink:href="#ArialMT-70" transform="translate(1272.966797 0)"/>
     <use xlink:href="#ArialMT-65" transform="translate(1328.582031 0)"/>
     <use xlink:href="#ArialMT-72" transform="translate(1384.197266 0)"/>
     <use xlink:href="#ArialMT-20" transform="translate(1417.498047 0)"/>
     <use xlink:href="#ArialMT-53" transform="translate(1445.28125 0)"/>
     <use xlink:href="#ArialMT-61" transform="translate(1511.980469 0)"/>
     <use xlink:href="#ArialMT-6d" transform="translate(1567.595703 0)"/>
     <use xlink:href="#ArialMT-70" transform="translate(1650.896484 0)"/>
     <use xlink:href="#ArialMT-6c" transform="translate(1706.511719 0)"/>
     <use xlink:href="#ArialMT-65" transform="translate(1728.728516 0)"/>
     <use xlink:href="#ArialMT-73" transform="translate(1784.34375 0)"/>
     <use xlink:href="#ArialMT-27" transform="translate(1834.34375 0)"/>
     <use xlink:href="#ArialMT-20" transform="translate(1853.435547 0)"/>
     <use xlink:href="#ArialMT-73" transform="translate(1881.21875 0)"/>
     <use xlink:href="#ArialMT-70" transform="translate(1931.21875 0)"/>
     <use xlink:href="#ArialMT-65" transform="translate(1986.833984 0)"/>
     <use xlink:href="#ArialMT-63" transform="translate(2042.449219 0)"/>
     <use xlink:href="#ArialMT-69" transform="translate(2092.449219 0)"/>
     <use xlink:href="#ArialMT-65" transform="translate(2114.666016 0)"/>
     <use xlink:href="#ArialMT-73" transform="translate(2170.28125 0)"/>
    </g>
   </g>
  </g>
 </g>
 <defs>
  <clipPath id="p23c2feb1cb">
   <rect x="57.6" y="41.472" width="357.12" height="266.112"/>
  </clipPath>
 </defs>
</svg>
