<?xml version="1.0" encoding="utf-8" standalone="no"?>
<!DOCTYPE svg PUBLIC "-//W3C//DTD SVG 1.1//EN"
  "http://www.w3.org/Graphics/SVG/1.1/DTD/svg11.dtd">
<svg xmlns:xlink="http://www.w3.org/1999/xlink" width="460.8pt" height="345.6pt" viewBox="0 0 460.8 345.6" xmlns="http://www.w3.org/2000/svg" version="1.1">
 <metadata>
  <rdf:RDF xmlns:dc="http://purl.org/dc/elements/1.1/" xmlns:cc="http://creativecommons.org/ns#" xmlns:rdf="http://www.w3.org/1999/02/22-rdf-syntax-ns#">
   <cc:Work>
    <dc:type rdf:resource="http://purl.org/dc/dcmitype/StillImage"/>
    <dc:date>2025-01-16T14:39:26.902067</dc:date>
    <dc:format>image/svg+xml</dc:format>
    <dc:creator>
     <cc:Agent>
      <dc:title>Matplotlib v3.10.0, https://matplotlib.org/</dc:title>
     </cc:Agent>
    </dc:creator>
   </cc:Work>
  </rdf:RDF>
 </metadata>
 <defs>
  <style type="text/css">*{stroke-linejoin: round; stroke-linecap: butt}</style>
 </defs>
 <g id="figure_1">
  <g id="patch_1">
   <path d="M 0 345.6 
L 460.8 345.6 
L 460.8 0 
L 0 0 
z
" style="fill: #ffffff"/>
  </g>
  <g id="axes_1">
   <g id="patch_2">
    <path d="M 57.6 307.584 
L 414.72 307.584 
L 414.72 41.472 
L 57.6 41.472 
z
" style="fill: #eaeaf2"/>
   </g>
   <g id="matplotlib.axis_1">
    <g id="xtick_1">
     <g id="text_1">
      <!-- Salmonella enterica -->
      <g style="fill: #262626" transform="translate(98.577969 324.957594) scale(0.11 -0.11)">
       <defs>
        <path id="ArialMT-53" d="M 288 1472 
L 859 1522 
Q 900 1178 1048 958 
Q 1197 738 1509 602 
Q 1822 466 2213 466 
Q 2559 466 2825 569 
Q 3091 672 3220 851 
Q 3350 1031 3350 1244 
Q 3350 1459 3225 1620 
Q 3100 1781 2813 1891 
Q 2628 1963 1997 2114 
Q 1366 2266 1113 2400 
Q 784 2572 623 2826 
Q 463 3081 463 3397 
Q 463 3744 659 4045 
Q 856 4347 1234 4503 
Q 1613 4659 2075 4659 
Q 2584 4659 2973 4495 
Q 3363 4331 3572 4012 
Q 3781 3694 3797 3291 
L 3216 3247 
Q 3169 3681 2898 3903 
Q 2628 4125 2100 4125 
Q 1550 4125 1298 3923 
Q 1047 3722 1047 3438 
Q 1047 3191 1225 3031 
Q 1400 2872 2139 2705 
Q 2878 2538 3153 2413 
Q 3553 2228 3743 1945 
Q 3934 1663 3934 1294 
Q 3934 928 3725 604 
Q 3516 281 3123 101 
Q 2731 -78 2241 -78 
Q 1619 -78 1198 103 
Q 778 284 539 648 
Q 300 1013 288 1472 
z
" transform="scale(0.015625)"/>
        <path id="ArialMT-61" d="M 2588 409 
Q 2275 144 1986 34 
Q 1697 -75 1366 -75 
Q 819 -75 525 192 
Q 231 459 231 875 
Q 231 1119 342 1320 
Q 453 1522 633 1644 
Q 813 1766 1038 1828 
Q 1203 1872 1538 1913 
Q 2219 1994 2541 2106 
Q 2544 2222 2544 2253 
Q 2544 2597 2384 2738 
Q 2169 2928 1744 2928 
Q 1347 2928 1158 2789 
Q 969 2650 878 2297 
L 328 2372 
Q 403 2725 575 2942 
Q 747 3159 1072 3276 
Q 1397 3394 1825 3394 
Q 2250 3394 2515 3294 
Q 2781 3194 2906 3042 
Q 3031 2891 3081 2659 
Q 3109 2516 3109 2141 
L 3109 1391 
Q 3109 606 3145 398 
Q 3181 191 3288 0 
L 2700 0 
Q 2613 175 2588 409 
z
M 2541 1666 
Q 2234 1541 1622 1453 
Q 1275 1403 1131 1340 
Q 988 1278 909 1158 
Q 831 1038 831 891 
Q 831 666 1001 516 
Q 1172 366 1500 366 
Q 1825 366 2078 508 
Q 2331 650 2450 897 
Q 2541 1088 2541 1459 
L 2541 1666 
z
" transform="scale(0.015625)"/>
        <path id="ArialMT-6c" d="M 409 0 
L 409 4581 
L 972 4581 
L 972 0 
L 409 0 
z
" transform="scale(0.015625)"/>
        <path id="ArialMT-6d" d="M 422 0 
L 422 3319 
L 925 3319 
L 925 2853 
Q 1081 3097 1340 3245 
Q 1600 3394 1931 3394 
Q 2300 3394 2536 3241 
Q 2772 3088 2869 2813 
Q 3263 3394 3894 3394 
Q 4388 3394 4653 3120 
Q 4919 2847 4919 2278 
L 4919 0 
L 4359 0 
L 4359 2091 
Q 4359 2428 4304 2576 
Q 4250 2725 4106 2815 
Q 3963 2906 3769 2906 
Q 3419 2906 3187 2673 
Q 2956 2441 2956 1928 
L 2956 0 
L 2394 0 
L 2394 2156 
Q 2394 2531 2256 2718 
Q 2119 2906 1806 2906 
Q 1569 2906 1367 2781 
Q 1166 2656 1075 2415 
Q 984 2175 984 1722 
L 984 0 
L 422 0 
z
" transform="scale(0.015625)"/>
        <path id="ArialMT-6f" d="M 213 1659 
Q 213 2581 725 3025 
Q 1153 3394 1769 3394 
Q 2453 3394 2887 2945 
Q 3322 2497 3322 1706 
Q 3322 1066 3130 698 
Q 2938 331 2570 128 
Q 2203 -75 1769 -75 
Q 1072 -75 642 372 
Q 213 819 213 1659 
z
M 791 1659 
Q 791 1022 1069 705 
Q 1347 388 1769 388 
Q 2188 388 2466 706 
Q 2744 1025 2744 1678 
Q 2744 2294 2464 2611 
Q 2184 2928 1769 2928 
Q 1347 2928 1069 2612 
Q 791 2297 791 1659 
z
" transform="scale(0.015625)"/>
        <path id="ArialMT-6e" d="M 422 0 
L 422 3319 
L 928 3319 
L 928 2847 
Q 1294 3394 1984 3394 
Q 2284 3394 2536 3286 
Q 2788 3178 2913 3003 
Q 3038 2828 3088 2588 
Q 3119 2431 3119 2041 
L 3119 0 
L 2556 0 
L 2556 2019 
Q 2556 2363 2490 2533 
Q 2425 2703 2258 2804 
Q 2091 2906 1866 2906 
Q 1506 2906 1245 2678 
Q 984 2450 984 1813 
L 984 0 
L 422 0 
z
" transform="scale(0.015625)"/>
        <path id="ArialMT-65" d="M 2694 1069 
L 3275 997 
Q 3138 488 2766 206 
Q 2394 -75 1816 -75 
Q 1088 -75 661 373 
Q 234 822 234 1631 
Q 234 2469 665 2931 
Q 1097 3394 1784 3394 
Q 2450 3394 2872 2941 
Q 3294 2488 3294 1666 
Q 3294 1616 3291 1516 
L 816 1516 
Q 847 969 1125 678 
Q 1403 388 1819 388 
Q 2128 388 2347 550 
Q 2566 713 2694 1069 
z
M 847 1978 
L 2700 1978 
Q 2663 2397 2488 2606 
Q 2219 2931 1791 2931 
Q 1403 2931 1139 2672 
Q 875 2413 847 1978 
z
" transform="scale(0.015625)"/>
        <path id="ArialMT-20" transform="scale(0.015625)"/>
        <path id="ArialMT-74" d="M 1650 503 
L 1731 6 
Q 1494 -44 1306 -44 
Q 1000 -44 831 53 
Q 663 150 594 308 
Q 525 466 525 972 
L 525 2881 
L 113 2881 
L 113 3319 
L 525 3319 
L 525 4141 
L 1084 4478 
L 1084 3319 
L 1650 3319 
L 1650 2881 
L 1084 2881 
L 1084 941 
Q 1084 700 1114 631 
Q 1144 563 1211 522 
Q 1278 481 1403 481 
Q 1497 481 1650 503 
z
" transform="scale(0.015625)"/>
        <path id="ArialMT-72" d="M 416 0 
L 416 3319 
L 922 3319 
L 922 2816 
Q 1116 3169 1280 3281 
Q 1444 3394 1641 3394 
Q 1925 3394 2219 3213 
L 2025 2691 
Q 1819 2813 1613 2813 
Q 1428 2813 1281 2702 
Q 1134 2591 1072 2394 
Q 978 2094 978 1738 
L 978 0 
L 416 0 
z
" transform="scale(0.015625)"/>
        <path id="ArialMT-69" d="M 425 3934 
L 425 4581 
L 988 4581 
L 988 3934 
L 425 3934 
z
M 425 0 
L 425 3319 
L 988 3319 
L 988 0 
L 425 0 
z
" transform="scale(0.015625)"/>
        <path id="ArialMT-63" d="M 2588 1216 
L 3141 1144 
Q 3050 572 2676 248 
Q 2303 -75 1759 -75 
Q 1078 -75 664 370 
Q 250 816 250 1647 
Q 250 2184 428 2587 
Q 606 2991 970 3192 
Q 1334 3394 1763 3394 
Q 2303 3394 2647 3120 
Q 2991 2847 3088 2344 
L 2541 2259 
Q 2463 2594 2264 2762 
Q 2066 2931 1784 2931 
Q 1359 2931 1093 2626 
Q 828 2322 828 1663 
Q 828 994 1084 691 
Q 1341 388 1753 388 
Q 2084 388 2306 591 
Q 2528 794 2588 1216 
z
" transform="scale(0.015625)"/>
       </defs>
       <use xlink:href="#ArialMT-53"/>
       <use xlink:href="#ArialMT-61" transform="translate(66.699219 0)"/>
       <use xlink:href="#ArialMT-6c" transform="translate(122.314453 0)"/>
       <use xlink:href="#ArialMT-6d" transform="translate(144.53125 0)"/>
       <use xlink:href="#ArialMT-6f" transform="translate(227.832031 0)"/>
       <use xlink:href="#ArialMT-6e" transform="translate(283.447266 0)"/>
       <use xlink:href="#ArialMT-65" transform="translate(339.0625 0)"/>
       <use xlink:href="#ArialMT-6c" transform="translate(394.677734 0)"/>
       <use xlink:href="#ArialMT-6c" transform="translate(416.894531 0)"/>
       <use xlink:href="#ArialMT-61" transform="translate(439.111328 0)"/>
       <use xlink:href="#ArialMT-20" transform="translate(494.726562 0)"/>
       <use xlink:href="#ArialMT-65" transform="translate(522.509766 0)"/>
       <use xlink:href="#ArialMT-6e" transform="translate(578.125 0)"/>
       <use xlink:href="#ArialMT-74" transform="translate(633.740234 0)"/>
       <use xlink:href="#ArialMT-65" transform="translate(661.523438 0)"/>
       <use xlink:href="#ArialMT-72" transform="translate(717.138672 0)"/>
       <use xlink:href="#ArialMT-69" transform="translate(750.439453 0)"/>
       <use xlink:href="#ArialMT-63" transform="translate(772.65625 0)"/>
       <use xlink:href="#ArialMT-61" transform="translate(822.65625 0)"/>
      </g>
     </g>
    </g>
    <g id="xtick_2">
     <g id="text_2">
      <!-- Campylobacter jejuni -->
      <g style="fill: #262626" transform="translate(274.084609 325.091656) scale(0.11 -0.11)">
       <defs>
        <path id="ArialMT-43" d="M 3763 1606 
L 4369 1453 
Q 4178 706 3683 314 
Q 3188 -78 2472 -78 
Q 1731 -78 1267 223 
Q 803 525 561 1097 
Q 319 1669 319 2325 
Q 319 3041 592 3573 
Q 866 4106 1370 4382 
Q 1875 4659 2481 4659 
Q 3169 4659 3637 4309 
Q 4106 3959 4291 3325 
L 3694 3184 
Q 3534 3684 3231 3912 
Q 2928 4141 2469 4141 
Q 1941 4141 1586 3887 
Q 1231 3634 1087 3207 
Q 944 2781 944 2328 
Q 944 1744 1114 1308 
Q 1284 872 1643 656 
Q 2003 441 2422 441 
Q 2931 441 3284 734 
Q 3638 1028 3763 1606 
z
" transform="scale(0.015625)"/>
        <path id="ArialMT-70" d="M 422 -1272 
L 422 3319 
L 934 3319 
L 934 2888 
Q 1116 3141 1344 3267 
Q 1572 3394 1897 3394 
Q 2322 3394 2647 3175 
Q 2972 2956 3137 2557 
Q 3303 2159 3303 1684 
Q 3303 1175 3120 767 
Q 2938 359 2589 142 
Q 2241 -75 1856 -75 
Q 1575 -75 1351 44 
Q 1128 163 984 344 
L 984 -1272 
L 422 -1272 
z
M 931 1641 
Q 931 1000 1190 694 
Q 1450 388 1819 388 
Q 2194 388 2461 705 
Q 2728 1022 2728 1688 
Q 2728 2322 2467 2637 
Q 2206 2953 1844 2953 
Q 1484 2953 1207 2617 
Q 931 2281 931 1641 
z
" transform="scale(0.015625)"/>
        <path id="ArialMT-79" d="M 397 -1278 
L 334 -750 
Q 519 -800 656 -800 
Q 844 -800 956 -737 
Q 1069 -675 1141 -563 
Q 1194 -478 1313 -144 
Q 1328 -97 1363 -6 
L 103 3319 
L 709 3319 
L 1400 1397 
Q 1534 1031 1641 628 
Q 1738 1016 1872 1384 
L 2581 3319 
L 3144 3319 
L 1881 -56 
Q 1678 -603 1566 -809 
Q 1416 -1088 1222 -1217 
Q 1028 -1347 759 -1347 
Q 597 -1347 397 -1278 
z
" transform="scale(0.015625)"/>
        <path id="ArialMT-62" d="M 941 0 
L 419 0 
L 419 4581 
L 981 4581 
L 981 2947 
Q 1338 3394 1891 3394 
Q 2197 3394 2470 3270 
Q 2744 3147 2920 2923 
Q 3097 2700 3197 2384 
Q 3297 2069 3297 1709 
Q 3297 856 2875 390 
Q 2453 -75 1863 -75 
Q 1275 -75 941 416 
L 941 0 
z
M 934 1684 
Q 934 1088 1097 822 
Q 1363 388 1816 388 
Q 2184 388 2453 708 
Q 2722 1028 2722 1663 
Q 2722 2313 2464 2622 
Q 2206 2931 1841 2931 
Q 1472 2931 1203 2611 
Q 934 2291 934 1684 
z
" transform="scale(0.015625)"/>
        <path id="ArialMT-6a" d="M 419 3928 
L 419 4581 
L 981 4581 
L 981 3928 
L 419 3928 
z
M -294 -1288 
L -188 -809 
Q -19 -853 78 -853 
Q 250 -853 334 -739 
Q 419 -625 419 -169 
L 419 3319 
L 981 3319 
L 981 -181 
Q 981 -794 822 -1034 
Q 619 -1347 147 -1347 
Q -81 -1347 -294 -1288 
z
" transform="scale(0.015625)"/>
        <path id="ArialMT-75" d="M 2597 0 
L 2597 488 
Q 2209 -75 1544 -75 
Q 1250 -75 995 37 
Q 741 150 617 320 
Q 494 491 444 738 
Q 409 903 409 1263 
L 409 3319 
L 972 3319 
L 972 1478 
Q 972 1038 1006 884 
Q 1059 663 1231 536 
Q 1403 409 1656 409 
Q 1909 409 2131 539 
Q 2353 669 2445 892 
Q 2538 1116 2538 1541 
L 2538 3319 
L 3100 3319 
L 3100 0 
L 2597 0 
z
" transform="scale(0.015625)"/>
       </defs>
       <use xlink:href="#ArialMT-43"/>
       <use xlink:href="#ArialMT-61" transform="translate(72.216797 0)"/>
       <use xlink:href="#ArialMT-6d" transform="translate(127.832031 0)"/>
       <use xlink:href="#ArialMT-70" transform="translate(211.132812 0)"/>
       <use xlink:href="#ArialMT-79" transform="translate(266.748047 0)"/>
       <use xlink:href="#ArialMT-6c" transform="translate(316.748047 0)"/>
       <use xlink:href="#ArialMT-6f" transform="translate(338.964844 0)"/>
       <use xlink:href="#ArialMT-62" transform="translate(394.580078 0)"/>
       <use xlink:href="#ArialMT-61" transform="translate(450.195312 0)"/>
       <use xlink:href="#ArialMT-63" transform="translate(505.810547 0)"/>
       <use xlink:href="#ArialMT-74" transform="translate(555.810547 0)"/>
       <use xlink:href="#ArialMT-65" transform="translate(583.59375 0)"/>
       <use xlink:href="#ArialMT-72" transform="translate(639.208984 0)"/>
       <use xlink:href="#ArialMT-20" transform="translate(672.509766 0)"/>
       <use xlink:href="#ArialMT-6a" transform="translate(700.292969 0)"/>
       <use xlink:href="#ArialMT-65" transform="translate(722.509766 0)"/>
       <use xlink:href="#ArialMT-6a" transform="translate(778.125 0)"/>
       <use xlink:href="#ArialMT-75" transform="translate(800.341797 0)"/>
       <use xlink:href="#ArialMT-6e" transform="translate(855.957031 0)"/>
       <use xlink:href="#ArialMT-69" transform="translate(911.572266 0)"/>
      </g>
     </g>
    </g>
   </g>
   <g id="matplotlib.axis_2">
    <g id="ytick_1">
     <g id="line2d_1">
      <path d="M 57.6 278.898734 
L 414.72 278.898734 
" clip-path="url(#p544b3dee7f)" style="fill: none; stroke: #ffffff; stroke-linecap: round"/>
     </g>
     <g id="text_3">
      <!-- 100 -->
      <g style="fill: #262626" transform="translate(29.748906 282.835531) scale(0.11 -0.11)">
       <defs>
        <path id="ArialMT-31" d="M 2384 0 
L 1822 0 
L 1822 3584 
Q 1619 3391 1289 3197 
Q 959 3003 697 2906 
L 697 3450 
Q 1169 3672 1522 3987 
Q 1875 4303 2022 4600 
L 2384 4600 
L 2384 0 
z
" transform="scale(0.015625)"/>
        <path id="ArialMT-30" d="M 266 2259 
Q 266 3072 433 3567 
Q 600 4063 929 4331 
Q 1259 4600 1759 4600 
Q 2128 4600 2406 4451 
Q 2684 4303 2865 4023 
Q 3047 3744 3150 3342 
Q 3253 2941 3253 2259 
Q 3253 1453 3087 958 
Q 2922 463 2592 192 
Q 2263 -78 1759 -78 
Q 1097 -78 719 397 
Q 266 969 266 2259 
z
M 844 2259 
Q 844 1131 1108 757 
Q 1372 384 1759 384 
Q 2147 384 2411 759 
Q 2675 1134 2675 2259 
Q 2675 3391 2411 3762 
Q 2147 4134 1753 4134 
Q 1366 4134 1134 3806 
Q 844 3388 844 2259 
z
" transform="scale(0.015625)"/>
       </defs>
       <use xlink:href="#ArialMT-31"/>
       <use xlink:href="#ArialMT-30" transform="translate(55.615234 0)"/>
       <use xlink:href="#ArialMT-30" transform="translate(111.230469 0)"/>
      </g>
     </g>
    </g>
    <g id="ytick_2">
     <g id="line2d_2">
      <path d="M 57.6 240.803798 
L 414.72 240.803798 
" clip-path="url(#p544b3dee7f)" style="fill: none; stroke: #ffffff; stroke-linecap: round"/>
     </g>
     <g id="text_4">
      <!-- 120 -->
      <g style="fill: #262626" transform="translate(29.748906 244.740595) scale(0.11 -0.11)">
       <defs>
        <path id="ArialMT-32" d="M 3222 541 
L 3222 0 
L 194 0 
Q 188 203 259 391 
Q 375 700 629 1000 
Q 884 1300 1366 1694 
Q 2113 2306 2375 2664 
Q 2638 3022 2638 3341 
Q 2638 3675 2398 3904 
Q 2159 4134 1775 4134 
Q 1369 4134 1125 3890 
Q 881 3647 878 3216 
L 300 3275 
Q 359 3922 746 4261 
Q 1134 4600 1788 4600 
Q 2447 4600 2831 4234 
Q 3216 3869 3216 3328 
Q 3216 3053 3103 2787 
Q 2991 2522 2730 2228 
Q 2469 1934 1863 1422 
Q 1356 997 1212 845 
Q 1069 694 975 541 
L 3222 541 
z
" transform="scale(0.015625)"/>
       </defs>
       <use xlink:href="#ArialMT-31"/>
       <use xlink:href="#ArialMT-32" transform="translate(55.615234 0)"/>
       <use xlink:href="#ArialMT-30" transform="translate(111.230469 0)"/>
      </g>
     </g>
    </g>
    <g id="ytick_3">
     <g id="line2d_3">
      <path d="M 57.6 202.708863 
L 414.72 202.708863 
" clip-path="url(#p544b3dee7f)" style="fill: none; stroke: #ffffff; stroke-linecap: round"/>
     </g>
     <g id="text_5">
      <!-- 140 -->
      <g style="fill: #262626" transform="translate(29.748906 206.645659) scale(0.11 -0.11)">
       <defs>
        <path id="ArialMT-34" d="M 2069 0 
L 2069 1097 
L 81 1097 
L 81 1613 
L 2172 4581 
L 2631 4581 
L 2631 1613 
L 3250 1613 
L 3250 1097 
L 2631 1097 
L 2631 0 
L 2069 0 
z
M 2069 1613 
L 2069 3678 
L 634 1613 
L 2069 1613 
z
" transform="scale(0.015625)"/>
       </defs>
       <use xlink:href="#ArialMT-31"/>
       <use xlink:href="#ArialMT-34" transform="translate(55.615234 0)"/>
       <use xlink:href="#ArialMT-30" transform="translate(111.230469 0)"/>
      </g>
     </g>
    </g>
    <g id="ytick_4">
     <g id="line2d_4">
      <path d="M 57.6 164.613927 
L 414.72 164.613927 
" clip-path="url(#p544b3dee7f)" style="fill: none; stroke: #ffffff; stroke-linecap: round"/>
     </g>
     <g id="text_6">
      <!-- 160 -->
      <g style="fill: #262626" transform="translate(29.748906 168.550724) scale(0.11 -0.11)">
       <defs>
        <path id="ArialMT-36" d="M 3184 3459 
L 2625 3416 
Q 2550 3747 2413 3897 
Q 2184 4138 1850 4138 
Q 1581 4138 1378 3988 
Q 1113 3794 959 3422 
Q 806 3050 800 2363 
Q 1003 2672 1297 2822 
Q 1591 2972 1913 2972 
Q 2475 2972 2870 2558 
Q 3266 2144 3266 1488 
Q 3266 1056 3080 686 
Q 2894 316 2569 119 
Q 2244 -78 1831 -78 
Q 1128 -78 684 439 
Q 241 956 241 2144 
Q 241 3472 731 4075 
Q 1159 4600 1884 4600 
Q 2425 4600 2770 4297 
Q 3116 3994 3184 3459 
z
M 888 1484 
Q 888 1194 1011 928 
Q 1134 663 1356 523 
Q 1578 384 1822 384 
Q 2178 384 2434 671 
Q 2691 959 2691 1453 
Q 2691 1928 2437 2201 
Q 2184 2475 1800 2475 
Q 1419 2475 1153 2201 
Q 888 1928 888 1484 
z
" transform="scale(0.015625)"/>
       </defs>
       <use xlink:href="#ArialMT-31"/>
       <use xlink:href="#ArialMT-36" transform="translate(55.615234 0)"/>
       <use xlink:href="#ArialMT-30" transform="translate(111.230469 0)"/>
      </g>
     </g>
    </g>
    <g id="ytick_5">
     <g id="line2d_5">
      <path d="M 57.6 126.518991 
L 414.72 126.518991 
" clip-path="url(#p544b3dee7f)" style="fill: none; stroke: #ffffff; stroke-linecap: round"/>
     </g>
     <g id="text_7">
      <!-- 180 -->
      <g style="fill: #262626" transform="translate(29.748906 130.455788) scale(0.11 -0.11)">
       <defs>
        <path id="ArialMT-38" d="M 1131 2484 
Q 781 2613 612 2850 
Q 444 3088 444 3419 
Q 444 3919 803 4259 
Q 1163 4600 1759 4600 
Q 2359 4600 2725 4251 
Q 3091 3903 3091 3403 
Q 3091 3084 2923 2848 
Q 2756 2613 2416 2484 
Q 2838 2347 3058 2040 
Q 3278 1734 3278 1309 
Q 3278 722 2862 322 
Q 2447 -78 1769 -78 
Q 1091 -78 675 323 
Q 259 725 259 1325 
Q 259 1772 486 2073 
Q 713 2375 1131 2484 
z
M 1019 3438 
Q 1019 3113 1228 2906 
Q 1438 2700 1772 2700 
Q 2097 2700 2305 2904 
Q 2513 3109 2513 3406 
Q 2513 3716 2298 3927 
Q 2084 4138 1766 4138 
Q 1444 4138 1231 3931 
Q 1019 3725 1019 3438 
z
M 838 1322 
Q 838 1081 952 856 
Q 1066 631 1291 507 
Q 1516 384 1775 384 
Q 2178 384 2440 643 
Q 2703 903 2703 1303 
Q 2703 1709 2433 1975 
Q 2163 2241 1756 2241 
Q 1359 2241 1098 1978 
Q 838 1716 838 1322 
z
" transform="scale(0.015625)"/>
       </defs>
       <use xlink:href="#ArialMT-31"/>
       <use xlink:href="#ArialMT-38" transform="translate(55.615234 0)"/>
       <use xlink:href="#ArialMT-30" transform="translate(111.230469 0)"/>
      </g>
     </g>
    </g>
    <g id="ytick_6">
     <g id="line2d_6">
      <path d="M 57.6 88.424056 
L 414.72 88.424056 
" clip-path="url(#p544b3dee7f)" style="fill: none; stroke: #ffffff; stroke-linecap: round"/>
     </g>
     <g id="text_8">
      <!-- 200 -->
      <g style="fill: #262626" transform="translate(29.748906 92.360853) scale(0.11 -0.11)">
       <use xlink:href="#ArialMT-32"/>
       <use xlink:href="#ArialMT-30" transform="translate(55.615234 0)"/>
       <use xlink:href="#ArialMT-30" transform="translate(111.230469 0)"/>
      </g>
     </g>
    </g>
    <g id="ytick_7">
     <g id="line2d_7">
      <path d="M 57.6 50.32912 
L 414.72 50.32912 
" clip-path="url(#p544b3dee7f)" style="fill: none; stroke: #ffffff; stroke-linecap: round"/>
     </g>
     <g id="text_9">
      <!-- 220 -->
      <g style="fill: #262626" transform="translate(29.748906 54.265917) scale(0.11 -0.11)">
       <use xlink:href="#ArialMT-32"/>
       <use xlink:href="#ArialMT-32" transform="translate(55.615234 0)"/>
       <use xlink:href="#ArialMT-30" transform="translate(111.230469 0)"/>
      </g>
     </g>
    </g>
    <g id="text_10">
     <!-- Number of Identified VF Genes -->
     <g style="fill: #262626" transform="translate(23.363906 257.2305) rotate(-90) scale(0.12 -0.12)">
      <defs>
       <path id="ArialMT-4e" d="M 488 0 
L 488 4581 
L 1109 4581 
L 3516 984 
L 3516 4581 
L 4097 4581 
L 4097 0 
L 3475 0 
L 1069 3600 
L 1069 0 
L 488 0 
z
" transform="scale(0.015625)"/>
       <path id="ArialMT-66" d="M 556 0 
L 556 2881 
L 59 2881 
L 59 3319 
L 556 3319 
L 556 3672 
Q 556 4006 616 4169 
Q 697 4388 901 4523 
Q 1106 4659 1475 4659 
Q 1713 4659 2000 4603 
L 1916 4113 
Q 1741 4144 1584 4144 
Q 1328 4144 1222 4034 
Q 1116 3925 1116 3625 
L 1116 3319 
L 1763 3319 
L 1763 2881 
L 1116 2881 
L 1116 0 
L 556 0 
z
" transform="scale(0.015625)"/>
       <path id="ArialMT-49" d="M 597 0 
L 597 4581 
L 1203 4581 
L 1203 0 
L 597 0 
z
" transform="scale(0.015625)"/>
       <path id="ArialMT-64" d="M 2575 0 
L 2575 419 
Q 2259 -75 1647 -75 
Q 1250 -75 917 144 
Q 584 363 401 755 
Q 219 1147 219 1656 
Q 219 2153 384 2558 
Q 550 2963 881 3178 
Q 1213 3394 1622 3394 
Q 1922 3394 2156 3267 
Q 2391 3141 2538 2938 
L 2538 4581 
L 3097 4581 
L 3097 0 
L 2575 0 
z
M 797 1656 
Q 797 1019 1065 703 
Q 1334 388 1700 388 
Q 2069 388 2326 689 
Q 2584 991 2584 1609 
Q 2584 2291 2321 2609 
Q 2059 2928 1675 2928 
Q 1300 2928 1048 2622 
Q 797 2316 797 1656 
z
" transform="scale(0.015625)"/>
       <path id="ArialMT-56" d="M 1803 0 
L 28 4581 
L 684 4581 
L 1875 1253 
Q 2019 853 2116 503 
Q 2222 878 2363 1253 
L 3600 4581 
L 4219 4581 
L 2425 0 
L 1803 0 
z
" transform="scale(0.015625)"/>
       <path id="ArialMT-46" d="M 525 0 
L 525 4581 
L 3616 4581 
L 3616 4041 
L 1131 4041 
L 1131 2622 
L 3281 2622 
L 3281 2081 
L 1131 2081 
L 1131 0 
L 525 0 
z
" transform="scale(0.015625)"/>
       <path id="ArialMT-47" d="M 2638 1797 
L 2638 2334 
L 4578 2338 
L 4578 638 
Q 4131 281 3656 101 
Q 3181 -78 2681 -78 
Q 2006 -78 1454 211 
Q 903 500 622 1047 
Q 341 1594 341 2269 
Q 341 2938 620 3517 
Q 900 4097 1425 4378 
Q 1950 4659 2634 4659 
Q 3131 4659 3532 4498 
Q 3934 4338 4162 4050 
Q 4391 3763 4509 3300 
L 3963 3150 
Q 3859 3500 3706 3700 
Q 3553 3900 3268 4020 
Q 2984 4141 2638 4141 
Q 2222 4141 1919 4014 
Q 1616 3888 1430 3681 
Q 1244 3475 1141 3228 
Q 966 2803 966 2306 
Q 966 1694 1177 1281 
Q 1388 869 1791 669 
Q 2194 469 2647 469 
Q 3041 469 3416 620 
Q 3791 772 3984 944 
L 3984 1797 
L 2638 1797 
z
" transform="scale(0.015625)"/>
       <path id="ArialMT-73" d="M 197 991 
L 753 1078 
Q 800 744 1014 566 
Q 1228 388 1613 388 
Q 2000 388 2187 545 
Q 2375 703 2375 916 
Q 2375 1106 2209 1216 
Q 2094 1291 1634 1406 
Q 1016 1563 777 1677 
Q 538 1791 414 1992 
Q 291 2194 291 2438 
Q 291 2659 392 2848 
Q 494 3038 669 3163 
Q 800 3259 1026 3326 
Q 1253 3394 1513 3394 
Q 1903 3394 2198 3281 
Q 2494 3169 2634 2976 
Q 2775 2784 2828 2463 
L 2278 2388 
Q 2241 2644 2061 2787 
Q 1881 2931 1553 2931 
Q 1166 2931 1000 2803 
Q 834 2675 834 2503 
Q 834 2394 903 2306 
Q 972 2216 1119 2156 
Q 1203 2125 1616 2013 
Q 2213 1853 2448 1751 
Q 2684 1650 2818 1456 
Q 2953 1263 2953 975 
Q 2953 694 2789 445 
Q 2625 197 2315 61 
Q 2006 -75 1616 -75 
Q 969 -75 630 194 
Q 291 463 197 991 
z
" transform="scale(0.015625)"/>
      </defs>
      <use xlink:href="#ArialMT-4e"/>
      <use xlink:href="#ArialMT-75" transform="translate(72.216797 0)"/>
      <use xlink:href="#ArialMT-6d" transform="translate(127.832031 0)"/>
      <use xlink:href="#ArialMT-62" transform="translate(211.132812 0)"/>
      <use xlink:href="#ArialMT-65" transform="translate(266.748047 0)"/>
      <use xlink:href="#ArialMT-72" transform="translate(322.363281 0)"/>
      <use xlink:href="#ArialMT-20" transform="translate(355.664062 0)"/>
      <use xlink:href="#ArialMT-6f" transform="translate(383.447266 0)"/>
      <use xlink:href="#ArialMT-66" transform="translate(439.0625 0)"/>
      <use xlink:href="#ArialMT-20" transform="translate(466.845703 0)"/>
      <use xlink:href="#ArialMT-49" transform="translate(494.628906 0)"/>
      <use xlink:href="#ArialMT-64" transform="translate(522.412109 0)"/>
      <use xlink:href="#ArialMT-65" transform="translate(578.027344 0)"/>
      <use xlink:href="#ArialMT-6e" transform="translate(633.642578 0)"/>
      <use xlink:href="#ArialMT-74" transform="translate(689.257812 0)"/>
      <use xlink:href="#ArialMT-69" transform="translate(717.041016 0)"/>
      <use xlink:href="#ArialMT-66" transform="translate(739.257812 0)"/>
      <use xlink:href="#ArialMT-69" transform="translate(767.041016 0)"/>
      <use xlink:href="#ArialMT-65" transform="translate(789.257812 0)"/>
      <use xlink:href="#ArialMT-64" transform="translate(844.873047 0)"/>
      <use xlink:href="#ArialMT-20" transform="translate(900.488281 0)"/>
      <use xlink:href="#ArialMT-56" transform="translate(928.271484 0)"/>
      <use xlink:href="#ArialMT-46" transform="translate(994.970703 0)"/>
      <use xlink:href="#ArialMT-20" transform="translate(1056.054688 0)"/>
      <use xlink:href="#ArialMT-47" transform="translate(1083.837891 0)"/>
      <use xlink:href="#ArialMT-65" transform="translate(1161.621094 0)"/>
      <use xlink:href="#ArialMT-6e" transform="translate(1217.236328 0)"/>
      <use xlink:href="#ArialMT-65" transform="translate(1272.851562 0)"/>
      <use xlink:href="#ArialMT-73" transform="translate(1328.466797 0)"/>
     </g>
    </g>
   </g>
   <g id="FillBetweenPolyCollection_1">
    <defs>
     <path id="m98df814126" d="M 147.443804 -182.320206 
L 146.316196 -182.320206 
L 146.190915 -183.428406 
L 146.046681 -184.536606 
L 145.882886 -185.644806 
L 145.699481 -186.753006 
L 145.497083 -187.861206 
L 145.277069 -188.969406 
L 145.041648 -190.077606 
L 144.793883 -191.185806 
L 144.537686 -192.294006 
L 144.277749 -193.402206 
L 144.019432 -194.510406 
L 143.7686 -195.618605 
L 143.531402 -196.726805 
L 143.314033 -197.835005 
L 143.122454 -198.943205 
L 142.962114 -200.051405 
L 142.837679 -201.159605 
L 142.752785 -202.267805 
L 142.709834 -203.376005 
L 142.709849 -204.484205 
L 142.752392 -205.592405 
L 142.835554 -206.700605 
L 142.95602 -207.808805 
L 143.109189 -208.917005 
L 143.289364 -210.025205 
L 143.48998 -211.133405 
L 143.703852 -212.241605 
L 143.923453 -213.349804 
L 144.141171 -214.458004 
L 144.349558 -215.566204 
L 144.541551 -216.674404 
L 144.710653 -217.782604 
L 144.851073 -218.890804 
L 144.957828 -219.999004 
L 145.026799 -221.107204 
L 145.054748 -222.215404 
L 145.039299 -223.323604 
L 144.978887 -224.431804 
L 144.872676 -225.540004 
L 144.720446 -226.648204 
L 144.522459 -227.756404 
L 144.279293 -228.864604 
L 143.991661 -229.972804 
L 143.660205 -231.081003 
L 143.285283 -232.189203 
L 142.866751 -233.297403 
L 142.403763 -234.405603 
L 141.894591 -235.513803 
L 141.33651 -236.622003 
L 140.725748 -237.730203 
L 140.05753 -238.838403 
L 139.326249 -239.946603 
L 138.525754 -241.054803 
L 137.649777 -242.163003 
L 136.692499 -243.271203 
L 135.649213 -244.379403 
L 134.517075 -245.487603 
L 133.295896 -246.595803 
L 131.988898 -247.704003 
L 130.603408 -248.812202 
L 129.151379 -249.920402 
L 127.649714 -251.028602 
L 126.120309 -252.136802 
L 124.589793 -253.245002 
L 123.088929 -254.353202 
L 121.651692 -255.461402 
L 120.314055 -256.569602 
L 119.112527 -257.677802 
L 118.082535 -258.786002 
L 117.256746 -259.894202 
L 116.663431 -261.002402 
L 116.324987 -262.110602 
L 116.256721 -263.218802 
L 116.465977 -264.327002 
L 116.951669 -265.435202 
L 117.704264 -266.543401 
L 118.706201 -267.651601 
L 119.932718 -268.759801 
L 121.353041 -269.868001 
L 122.931831 -270.976201 
L 124.630804 -272.084401 
L 126.410407 -273.192601 
L 128.231463 -274.300801 
L 130.056665 -275.409001 
L 131.851867 -276.517201 
L 133.587099 -277.625401 
L 135.237274 -278.733601 
L 136.782595 -279.841801 
L 138.20865 -280.950001 
L 139.506251 -282.058201 
L 140.671042 -283.166401 
L 141.702945 -284.2746 
L 142.605489 -285.3828 
L 143.38509 -286.491 
L 144.050313 -287.5992 
L 144.611174 -288.7074 
L 145.078509 -289.8156 
L 145.463427 -290.9238 
L 145.776862 -292.032 
L 147.983138 -292.032 
L 147.983138 -292.032 
L 148.296573 -290.9238 
L 148.681491 -289.8156 
L 149.148826 -288.7074 
L 149.709687 -287.5992 
L 150.37491 -286.491 
L 151.154511 -285.3828 
L 152.057055 -284.2746 
L 153.088958 -283.166401 
L 154.253749 -282.058201 
L 155.55135 -280.950001 
L 156.977405 -279.841801 
L 158.522726 -278.733601 
L 160.172901 -277.625401 
L 161.908133 -276.517201 
L 163.703335 -275.409001 
L 165.528537 -274.300801 
L 167.349593 -273.192601 
L 169.129196 -272.084401 
L 170.828169 -270.976201 
L 172.406959 -269.868001 
L 173.827282 -268.759801 
L 175.053799 -267.651601 
L 176.055736 -266.543401 
L 176.808331 -265.435202 
L 177.294023 -264.327002 
L 177.503279 -263.218802 
L 177.435013 -262.110602 
L 177.096569 -261.002402 
L 176.503254 -259.894202 
L 175.677465 -258.786002 
L 174.647473 -257.677802 
L 173.445945 -256.569602 
L 172.108308 -255.461402 
L 170.671071 -254.353202 
L 169.170207 -253.245002 
L 167.639691 -252.136802 
L 166.110286 -251.028602 
L 164.608621 -249.920402 
L 163.156592 -248.812202 
L 161.771102 -247.704003 
L 160.464104 -246.595803 
L 159.242925 -245.487603 
L 158.110787 -244.379403 
L 157.067501 -243.271203 
L 156.110223 -242.163003 
L 155.234246 -241.054803 
L 154.433751 -239.946603 
L 153.70247 -238.838403 
L 153.034252 -237.730203 
L 152.42349 -236.622003 
L 151.865409 -235.513803 
L 151.356237 -234.405603 
L 150.893249 -233.297403 
L 150.474717 -232.189203 
L 150.099795 -231.081003 
L 149.768339 -229.972804 
L 149.480707 -228.864604 
L 149.237541 -227.756404 
L 149.039554 -226.648204 
L 148.887324 -225.540004 
L 148.781113 -224.431804 
L 148.720701 -223.323604 
L 148.705252 -222.215404 
L 148.733201 -221.107204 
L 148.802172 -219.999004 
L 148.908927 -218.890804 
L 149.049347 -217.782604 
L 149.218449 -216.674404 
L 149.410442 -215.566204 
L 149.618829 -214.458004 
L 149.836547 -213.349804 
L 150.056148 -212.241605 
L 150.27002 -211.133405 
L 150.470636 -210.025205 
L 150.650811 -208.917005 
L 150.80398 -207.808805 
L 150.924446 -206.700605 
L 151.007608 -205.592405 
L 151.050151 -204.484205 
L 151.050166 -203.376005 
L 151.007215 -202.267805 
L 150.922321 -201.159605 
L 150.797886 -200.051405 
L 150.637546 -198.943205 
L 150.445967 -197.835005 
L 150.228598 -196.726805 
L 149.9914 -195.618605 
L 149.740568 -194.510406 
L 149.482251 -193.402206 
L 149.222314 -192.294006 
L 148.966117 -191.185806 
L 148.718352 -190.077606 
L 148.482931 -188.969406 
L 148.262917 -187.861206 
L 148.060519 -186.753006 
L 147.877114 -185.644806 
L 147.713319 -184.536606 
L 147.569085 -183.428406 
L 147.443804 -182.320206 
z
" style="stroke: #4c4c4c; stroke-width: 1.25"/>
    </defs>
    <g clip-path="url(#p544b3dee7f)">
     <use xlink:href="#m98df814126" x="0" y="345.6" style="fill: #5875a4; stroke: #4c4c4c; stroke-width: 1.25"/>
    </g>
   </g>
   <g id="FillBetweenPolyCollection_2">
    <defs>
     <path id="m4976c483ae" d="M 335.007401 -50.112 
L 315.872599 -50.112 
L 313.510724 -50.620295 
L 310.755308 -51.128591 
L 307.593764 -51.636886 
L 304.027869 -52.145182 
L 300.07674 -52.653477 
L 295.779216 -53.161773 
L 291.195325 -53.670068 
L 286.406556 -54.178364 
L 281.514711 -54.686659 
L 276.639207 -55.194955 
L 271.912838 -55.70325 
L 267.476145 -56.211546 
L 263.470689 -56.719841 
L 260.031662 -57.228137 
L 257.280356 -57.736432 
L 255.317075 -58.244728 
L 254.215071 -58.753023 
L 254.016 -59.261319 
L 254.727312 -59.769614 
L 256.321781 -60.27791 
L 258.739234 -60.786205 
L 261.890307 -61.294501 
L 265.661922 -61.802796 
L 269.92399 -62.311092 
L 274.536805 -62.819387 
L 279.358533 -63.327683 
L 284.252232 -63.835978 
L 289.091951 -64.344274 
L 293.767518 -64.852569 
L 298.187839 -65.360865 
L 302.282616 -65.86916 
L 306.002567 -66.377456 
L 309.318337 -66.885751 
L 312.218359 -67.394047 
L 314.705968 -67.902342 
L 316.796115 -68.410638 
L 318.511953 -68.918933 
L 319.881573 -69.427229 
L 320.935099 -69.935524 
L 321.702277 -70.44382 
L 322.210653 -70.952115 
L 322.48437 -71.460411 
L 322.543576 -71.968706 
L 322.404397 -72.477001 
L 322.079396 -72.985297 
L 321.578442 -73.493592 
L 320.909872 -74.001888 
L 320.081831 -74.510183 
L 319.103685 -75.018479 
L 317.987373 -75.526774 
L 316.748577 -76.03507 
L 315.407617 -76.543365 
L 313.989946 -77.051661 
L 312.5262 -77.559956 
L 311.051747 -78.068252 
L 309.605735 -78.576547 
L 308.22968 -79.084843 
L 306.965681 -79.593138 
L 305.854375 -80.101434 
L 304.932795 -80.609729 
L 304.232299 -81.118025 
L 303.776745 -81.62632 
L 303.581061 -82.134616 
L 303.650358 -82.642911 
L 303.979638 -83.151207 
L 304.554161 -83.659502 
L 305.350404 -84.167798 
L 306.337565 -84.676093 
L 307.479454 -85.184389 
L 308.73664 -85.692684 
L 310.068658 -86.20098 
L 311.436121 -86.709275 
L 312.802589 -87.217571 
L 314.136066 -87.725866 
L 315.410064 -88.234162 
L 316.604186 -88.742457 
L 317.704265 -89.250753 
L 318.702081 -89.759048 
L 319.594754 -90.267344 
L 320.383899 -90.775639 
L 321.07465 -91.283935 
L 321.674636 -91.79223 
L 322.193013 -92.300526 
L 322.639594 -92.808821 
L 323.024144 -93.317116 
L 323.355843 -93.825412 
L 323.642925 -94.333707 
L 323.89249 -94.842003 
L 324.110445 -95.350298 
L 324.301561 -95.858594 
L 324.4696 -96.366889 
L 324.617481 -96.875185 
L 324.747472 -97.38348 
L 324.86136 -97.891776 
L 324.960611 -98.400071 
L 325.046493 -98.908367 
L 325.120164 -99.416662 
L 325.182736 -99.924958 
L 325.235304 -100.433253 
L 325.644696 -100.433253 
L 325.644696 -100.433253 
L 325.697264 -99.924958 
L 325.759836 -99.416662 
L 325.833507 -98.908367 
L 325.919389 -98.400071 
L 326.01864 -97.891776 
L 326.132528 -97.38348 
L 326.262519 -96.875185 
L 326.4104 -96.366889 
L 326.578439 -95.858594 
L 326.769555 -95.350298 
L 326.98751 -94.842003 
L 327.237075 -94.333707 
L 327.524157 -93.825412 
L 327.855856 -93.317116 
L 328.240406 -92.808821 
L 328.686987 -92.300526 
L 329.205364 -91.79223 
L 329.80535 -91.283935 
L 330.496101 -90.775639 
L 331.285246 -90.267344 
L 332.177919 -89.759048 
L 333.175735 -89.250753 
L 334.275814 -88.742457 
L 335.469936 -88.234162 
L 336.743934 -87.725866 
L 338.077411 -87.217571 
L 339.443879 -86.709275 
L 340.811342 -86.20098 
L 342.14336 -85.692684 
L 343.400546 -85.184389 
L 344.542435 -84.676093 
L 345.529596 -84.167798 
L 346.325839 -83.659502 
L 346.900362 -83.151207 
L 347.229642 -82.642911 
L 347.298939 -82.134616 
L 347.103255 -81.62632 
L 346.647701 -81.118025 
L 345.947205 -80.609729 
L 345.025625 -80.101434 
L 343.914319 -79.593138 
L 342.65032 -79.084843 
L 341.274265 -78.576547 
L 339.828253 -78.068252 
L 338.3538 -77.559956 
L 336.890054 -77.051661 
L 335.472383 -76.543365 
L 334.131423 -76.03507 
L 332.892627 -75.526774 
L 331.776315 -75.018479 
L 330.798169 -74.510183 
L 329.970128 -74.001888 
L 329.301558 -73.493592 
L 328.800604 -72.985297 
L 328.475603 -72.477001 
L 328.336424 -71.968706 
L 328.39563 -71.460411 
L 328.669347 -70.952115 
L 329.177723 -70.44382 
L 329.944901 -69.935524 
L 330.998427 -69.427229 
L 332.368047 -68.918933 
L 334.083885 -68.410638 
L 336.174032 -67.902342 
L 338.661641 -67.394047 
L 341.561663 -66.885751 
L 344.877433 -66.377456 
L 348.597384 -65.86916 
L 352.692161 -65.360865 
L 357.112482 -64.852569 
L 361.788049 -64.344274 
L 366.627768 -63.835978 
L 371.521467 -63.327683 
L 376.343195 -62.819387 
L 380.95601 -62.311092 
L 385.218078 -61.802796 
L 388.989693 -61.294501 
L 392.140766 -60.786205 
L 394.558219 -60.27791 
L 396.152688 -59.769614 
L 396.864 -59.261319 
L 396.664929 -58.753023 
L 395.562925 -58.244728 
L 393.599644 -57.736432 
L 390.848338 -57.228137 
L 387.409311 -56.719841 
L 383.403855 -56.211546 
L 378.967162 -55.70325 
L 374.240793 -55.194955 
L 369.365289 -54.686659 
L 364.473444 -54.178364 
L 359.684675 -53.670068 
L 355.100784 -53.161773 
L 350.80326 -52.653477 
L 346.852131 -52.145182 
L 343.286236 -51.636886 
L 340.124692 -51.128591 
L 337.369276 -50.620295 
L 335.007401 -50.112 
z
" style="stroke: #4c4c4c; stroke-width: 1.25"/>
    </defs>
    <g clip-path="url(#p544b3dee7f)">
     <use xlink:href="#m4976c483ae" x="0" y="345.6" style="fill: #5875a4; stroke: #4c4c4c; stroke-width: 1.25"/>
    </g>
   </g>
   <g id="line2d_8">
    <path d="M 146.88 92.233549 
L 146.88 75.090828 
" clip-path="url(#p544b3dee7f)" style="fill: none; stroke: #4c4c4c; stroke-width: 1.875; stroke-linecap: round"/>
   </g>
   <g id="line2d_9">
    <path d="M 146.88 87.471682 
L 146.88 81.757442 
" clip-path="url(#p544b3dee7f)" style="fill: none; stroke: #4c4c4c; stroke-width: 5.625; stroke-linecap: round"/>
   </g>
   <g id="line2d_10">
    <path d="M 146.88 82.709815 
" clip-path="url(#p544b3dee7f)" style="fill: none; stroke: #4c4c4c; stroke-width: 1.5; stroke-linecap: round"/>
    <defs>
     <path id="m47a24d2eeb" d="M 2.34375 0 
L -2.34375 -0 
" style="stroke: #ffffff; stroke-width: 1.125"/>
    </defs>
    <g clip-path="url(#p544b3dee7f)">
     <use xlink:href="#m47a24d2eeb" x="146.88" y="82.709815" style="fill: #ffffff; stroke: #ffffff; stroke-width: 1.125"/>
    </g>
   </g>
   <g id="line2d_11">
    <path d="M 325.44 286.517721 
L 325.44 284.612974 
" clip-path="url(#p544b3dee7f)" style="fill: none; stroke: #4c4c4c; stroke-width: 1.875; stroke-linecap: round"/>
   </g>
   <g id="line2d_12">
    <path d="M 325.44 286.517721 
L 325.44 284.612974 
" clip-path="url(#p544b3dee7f)" style="fill: none; stroke: #4c4c4c; stroke-width: 5.625; stroke-linecap: round"/>
   </g>
   <g id="line2d_13">
    <path d="M 325.44 286.517721 
" clip-path="url(#p544b3dee7f)" style="fill: none; stroke: #4c4c4c; stroke-width: 1.5; stroke-linecap: round"/>
    <g clip-path="url(#p544b3dee7f)">
     <use xlink:href="#m47a24d2eeb" x="325.44" y="286.517721" style="fill: #ffffff; stroke: #ffffff; stroke-width: 1.125"/>
    </g>
   </g>
   <g id="patch_3">
    <path d="M 57.6 307.584 
L 57.6 41.472 
" style="fill: none; stroke: #ffffff; stroke-width: 1.25; stroke-linejoin: miter; stroke-linecap: square"/>
   </g>
   <g id="patch_4">
    <path d="M 414.72 307.584 
L 414.72 41.472 
" style="fill: none; stroke: #ffffff; stroke-width: 1.25; stroke-linejoin: miter; stroke-linecap: square"/>
   </g>
   <g id="patch_5">
    <path d="M 57.6 307.584 
L 414.72 307.584 
" style="fill: none; stroke: #ffffff; stroke-width: 1.25; stroke-linejoin: miter; stroke-linecap: square"/>
   </g>
   <g id="patch_6">
    <path d="M 57.6 41.472 
L 414.72 41.472 
" style="fill: none; stroke: #ffffff; stroke-width: 1.25; stroke-linejoin: miter; stroke-linecap: square"/>
   </g>
   <g id="PathCollection_1">
    <defs>
     <path id="mc8c873a940" d="M 0 2.5 
C 0.663008 2.5 1.29895 2.236584 1.767767 1.767767 
C 2.236584 1.29895 2.5 0.663008 2.5 0 
C 2.5 -0.663008 2.236584 -1.29895 1.767767 -1.767767 
C 1.29895 -2.236584 0.663008 -2.5 0 -2.5 
C -0.663008 -2.5 -1.29895 -2.236584 -1.767767 -1.767767 
C -2.236584 -1.29895 -2.5 -0.663008 -2.5 0 
C -2.5 0.663008 -2.236584 1.29895 -1.767767 1.767767 
C -1.29895 2.236584 -0.663008 2.5 0 2.5 
z
"/>
    </defs>
    <g clip-path="url(#p544b3dee7f)">
     <use xlink:href="#mc8c873a940" x="136.38" y="82.709815" style="fill: #ffffff"/>
     <use xlink:href="#mc8c873a940" x="177.984129" y="80.805069" style="fill: #ffffff"/>
     <use xlink:href="#mc8c873a940" x="146.88" y="75.090828" style="fill: #ffffff"/>
     <use xlink:href="#mc8c873a940" x="162.63" y="82.709815" style="fill: #ffffff"/>
     <use xlink:href="#mc8c873a940" x="131.13" y="82.709815" style="fill: #ffffff"/>
     <use xlink:href="#mc8c873a940" x="121.025871" y="80.805069" style="fill: #ffffff"/>
     <use xlink:href="#mc8c873a940" x="157.38" y="82.709815" style="fill: #ffffff"/>
     <use xlink:href="#mc8c873a940" x="125.88" y="82.709815" style="fill: #ffffff"/>
     <use xlink:href="#mc8c873a940" x="141.63" y="141.756966" style="fill: #ffffff"/>
     <use xlink:href="#mc8c873a940" x="167.88" y="82.709815" style="fill: #ffffff"/>
     <use xlink:href="#mc8c873a940" x="146.88" y="141.756966" style="fill: #ffffff"/>
     <use xlink:href="#mc8c873a940" x="152.13" y="82.709815" style="fill: #ffffff"/>
     <use xlink:href="#mc8c873a940" x="172.734129" y="80.805069" style="fill: #ffffff"/>
     <use xlink:href="#mc8c873a940" x="141.63" y="82.709815" style="fill: #ffffff"/>
     <use xlink:href="#mc8c873a940" x="115.775871" y="80.805069" style="fill: #ffffff"/>
     <use xlink:href="#mc8c873a940" x="146.88" y="82.709815" style="fill: #ffffff"/>
     <use xlink:href="#mc8c873a940" x="146.88" y="105.566777" style="fill: #ffffff"/>
     <use xlink:href="#mc8c873a940" x="143.479595" y="101.757283" style="fill: #ffffff"/>
     <use xlink:href="#mc8c873a940" x="146.88" y="92.233549" style="fill: #ffffff"/>
    </g>
   </g>
   <g id="PathCollection_2">
    <g clip-path="url(#p544b3dee7f)">
     <use xlink:href="#mc8c873a940" x="325.44" y="286.517721" style="fill: #ffffff"/>
     <use xlink:href="#mc8c873a940" x="393.69" y="286.517721" style="fill: #ffffff"/>
     <use xlink:href="#mc8c873a940" x="254.016" y="286.517721" style="fill: #ffffff"/>
     <use xlink:href="#mc8c873a940" x="396.864" y="286.517721" style="fill: #ffffff"/>
     <use xlink:href="#mc8c873a940" x="254.016" y="286.517721" style="fill: #ffffff"/>
     <use xlink:href="#mc8c873a940" x="396.864" y="286.517721" style="fill: #ffffff"/>
     <use xlink:href="#mc8c873a940" x="254.016" y="286.517721" style="fill: #ffffff"/>
     <use xlink:href="#mc8c873a940" x="396.864" y="286.517721" style="fill: #ffffff"/>
     <use xlink:href="#mc8c873a940" x="254.016" y="286.517721" style="fill: #ffffff"/>
     <use xlink:href="#mc8c873a940" x="396.864" y="286.517721" style="fill: #ffffff"/>
     <use xlink:href="#mc8c873a940" x="254.016" y="286.517721" style="fill: #ffffff"/>
     <use xlink:href="#mc8c873a940" x="396.864" y="286.517721" style="fill: #ffffff"/>
     <use xlink:href="#mc8c873a940" x="254.016" y="286.517721" style="fill: #ffffff"/>
     <use xlink:href="#mc8c873a940" x="396.864" y="286.517721" style="fill: #ffffff"/>
     <use xlink:href="#mc8c873a940" x="396.864" y="286.517721" style="fill: #ffffff"/>
     <use xlink:href="#mc8c873a940" x="254.016" y="286.517721" style="fill: #ffffff"/>
     <use xlink:href="#mc8c873a940" x="396.864" y="286.517721" style="fill: #ffffff"/>
     <use xlink:href="#mc8c873a940" x="254.016" y="286.517721" style="fill: #ffffff"/>
     <use xlink:href="#mc8c873a940" x="396.864" y="286.517721" style="fill: #ffffff"/>
     <use xlink:href="#mc8c873a940" x="254.016" y="286.517721" style="fill: #ffffff"/>
     <use xlink:href="#mc8c873a940" x="254.016" y="286.517721" style="fill: #ffffff"/>
     <use xlink:href="#mc8c873a940" x="396.864" y="286.517721" style="fill: #ffffff"/>
     <use xlink:href="#mc8c873a940" x="257.19" y="286.517721" style="fill: #ffffff"/>
     <use xlink:href="#mc8c873a940" x="254.016" y="286.517721" style="fill: #ffffff"/>
     <use xlink:href="#mc8c873a940" x="262.44" y="286.517721" style="fill: #ffffff"/>
     <use xlink:href="#mc8c873a940" x="383.19" y="286.517721" style="fill: #ffffff"/>
     <use xlink:href="#mc8c873a940" x="320.19" y="286.517721" style="fill: #ffffff"/>
     <use xlink:href="#mc8c873a940" x="330.69" y="286.517721" style="fill: #ffffff"/>
     <use xlink:href="#mc8c873a940" x="314.94" y="286.517721" style="fill: #ffffff"/>
     <use xlink:href="#mc8c873a940" x="335.94" y="286.517721" style="fill: #ffffff"/>
     <use xlink:href="#mc8c873a940" x="309.69" y="286.517721" style="fill: #ffffff"/>
     <use xlink:href="#mc8c873a940" x="341.19" y="286.517721" style="fill: #ffffff"/>
     <use xlink:href="#mc8c873a940" x="388.44" y="286.517721" style="fill: #ffffff"/>
     <use xlink:href="#mc8c873a940" x="304.44" y="286.517721" style="fill: #ffffff"/>
     <use xlink:href="#mc8c873a940" x="346.44" y="286.517721" style="fill: #ffffff"/>
     <use xlink:href="#mc8c873a940" x="299.19" y="286.517721" style="fill: #ffffff"/>
     <use xlink:href="#mc8c873a940" x="351.69" y="286.517721" style="fill: #ffffff"/>
     <use xlink:href="#mc8c873a940" x="293.94" y="286.517721" style="fill: #ffffff"/>
     <use xlink:href="#mc8c873a940" x="356.94" y="286.517721" style="fill: #ffffff"/>
     <use xlink:href="#mc8c873a940" x="288.69" y="286.517721" style="fill: #ffffff"/>
     <use xlink:href="#mc8c873a940" x="362.19" y="286.517721" style="fill: #ffffff"/>
     <use xlink:href="#mc8c873a940" x="283.44" y="286.517721" style="fill: #ffffff"/>
     <use xlink:href="#mc8c873a940" x="367.44" y="286.517721" style="fill: #ffffff"/>
     <use xlink:href="#mc8c873a940" x="278.19" y="286.517721" style="fill: #ffffff"/>
     <use xlink:href="#mc8c873a940" x="372.69" y="286.517721" style="fill: #ffffff"/>
     <use xlink:href="#mc8c873a940" x="272.94" y="286.517721" style="fill: #ffffff"/>
     <use xlink:href="#mc8c873a940" x="377.94" y="286.517721" style="fill: #ffffff"/>
     <use xlink:href="#mc8c873a940" x="267.69" y="286.517721" style="fill: #ffffff"/>
     <use xlink:href="#mc8c873a940" x="396.864" y="284.612974" style="fill: #ffffff"/>
     <use xlink:href="#mc8c873a940" x="351.69" y="263.66076" style="fill: #ffffff"/>
     <use xlink:href="#mc8c873a940" x="299.19" y="263.66076" style="fill: #ffffff"/>
     <use xlink:href="#mc8c873a940" x="341.19" y="263.66076" style="fill: #ffffff"/>
     <use xlink:href="#mc8c873a940" x="346.44" y="263.66076" style="fill: #ffffff"/>
     <use xlink:href="#mc8c873a940" x="304.44" y="263.66076" style="fill: #ffffff"/>
     <use xlink:href="#mc8c873a940" x="293.94" y="263.66076" style="fill: #ffffff"/>
     <use xlink:href="#mc8c873a940" x="309.69" y="263.66076" style="fill: #ffffff"/>
     <use xlink:href="#mc8c873a940" x="289.085871" y="261.756013" style="fill: #ffffff"/>
     <use xlink:href="#mc8c873a940" x="320.19" y="263.66076" style="fill: #ffffff"/>
     <use xlink:href="#mc8c873a940" x="335.94" y="263.66076" style="fill: #ffffff"/>
     <use xlink:href="#mc8c873a940" x="325.44" y="254.137026" style="fill: #ffffff"/>
     <use xlink:href="#mc8c873a940" x="314.94" y="263.66076" style="fill: #ffffff"/>
     <use xlink:href="#mc8c873a940" x="330.69" y="263.66076" style="fill: #ffffff"/>
     <use xlink:href="#mc8c873a940" x="325.44" y="263.66076" style="fill: #ffffff"/>
     <use xlink:href="#mc8c873a940" x="361.794129" y="261.756013" style="fill: #ffffff"/>
     <use xlink:href="#mc8c873a940" x="356.94" y="263.66076" style="fill: #ffffff"/>
    </g>
   </g>
   <g id="text_11">
    <!-- Identified VF Gene counts per Samples' species -->
    <g style="fill: #262626" transform="translate(108.286875 35.472) scale(0.12 -0.12)">
     <defs>
      <path id="ArialMT-27" d="M 425 2959 
L 281 3816 
L 281 4581 
L 922 4581 
L 922 3816 
L 772 2959 
L 425 2959 
z
" transform="scale(0.015625)"/>
     </defs>
     <use xlink:href="#ArialMT-49"/>
     <use xlink:href="#ArialMT-64" transform="translate(27.783203 0)"/>
     <use xlink:href="#ArialMT-65" transform="translate(83.398438 0)"/>
     <use xlink:href="#ArialMT-6e" transform="translate(139.013672 0)"/>
     <use xlink:href="#ArialMT-74" transform="translate(194.628906 0)"/>
     <use xlink:href="#ArialMT-69" transform="translate(222.412109 0)"/>
     <use xlink:href="#ArialMT-66" transform="translate(244.628906 0)"/>
     <use xlink:href="#ArialMT-69" transform="translate(272.412109 0)"/>
     <use xlink:href="#ArialMT-65" transform="translate(294.628906 0)"/>
     <use xlink:href="#ArialMT-64" transform="translate(350.244141 0)"/>
     <use xlink:href="#ArialMT-20" transform="translate(405.859375 0)"/>
     <use xlink:href="#ArialMT-56" transform="translate(433.642578 0)"/>
     <use xlink:href="#ArialMT-46" transform="translate(500.341797 0)"/>
     <use xlink:href="#ArialMT-20" transform="translate(561.425781 0)"/>
     <use xlink:href="#ArialMT-47" transform="translate(589.208984 0)"/>
     <use xlink:href="#ArialMT-65" transform="translate(666.992188 0)"/>
     <use xlink:href="#ArialMT-6e" transform="translate(722.607422 0)"/>
     <use xlink:href="#ArialMT-65" transform="translate(778.222656 0)"/>
     <use xlink:href="#ArialMT-20" transform="translate(833.837891 0)"/>
     <use xlink:href="#ArialMT-63" transform="translate(861.621094 0)"/>
     <use xlink:href="#ArialMT-6f" transform="translate(911.621094 0)"/>
     <use xlink:href="#ArialMT-75" transform="translate(967.236328 0)"/>
     <use xlink:href="#ArialMT-6e" transform="translate(1022.851562 0)"/>
     <use xlink:href="#ArialMT-74" transform="translate(1078.466797 0)"/>
     <use xlink:href="#ArialMT-73" transform="translate(1106.25 0)"/>
     <use xlink:href="#ArialMT-20" transform="translate(1156.25 0)"/>
     <use xlink:href="#ArialMT-70" transform="translate(1184.033203 0)"/>
     <use xlink:href="#ArialMT-65" transform="translate(1239.648438 0)"/>
     <use xlink:href="#ArialMT-72" transform="translate(1295.263672 0)"/>
     <use xlink:href="#ArialMT-20" transform="translate(1328.564453 0)"/>
     <use xlink:href="#ArialMT-53" transform="translate(1356.347656 0)"/>
     <use xlink:href="#ArialMT-61" transform="translate(1423.046875 0)"/>
     <use xlink:href="#ArialMT-6d" transform="translate(1478.662109 0)"/>
     <use xlink:href="#ArialMT-70" transform="translate(1561.962891 0)"/>
     <use xlink:href="#ArialMT-6c" transform="translate(1617.578125 0)"/>
     <use xlink:href="#ArialMT-65" transform="translate(1639.794922 0)"/>
     <use xlink:href="#ArialMT-73" transform="translate(1695.410156 0)"/>
     <use xlink:href="#ArialMT-27" transform="translate(1745.410156 0)"/>
     <use xlink:href="#ArialMT-20" transform="translate(1764.501953 0)"/>
     <use xlink:href="#ArialMT-73" transform="translate(1792.285156 0)"/>
     <use xlink:href="#ArialMT-70" transform="translate(1842.285156 0)"/>
     <use xlink:href="#ArialMT-65" transform="translate(1897.900391 0)"/>
     <use xlink:href="#ArialMT-63" transform="translate(1953.515625 0)"/>
     <use xlink:href="#ArialMT-69" transform="translate(2003.515625 0)"/>
     <use xlink:href="#ArialMT-65" transform="translate(2025.732422 0)"/>
     <use xlink:href="#ArialMT-73" transform="translate(2081.347656 0)"/>
    </g>
   </g>
  </g>
 </g>
 <defs>
  <clipPath id="p544b3dee7f">
   <rect x="57.6" y="41.472" width="357.12" height="266.112"/>
  </clipPath>
 </defs>
</svg>
