<?xml version="1.0" encoding="utf-8" standalone="no"?>
<!DOCTYPE svg PUBLIC "-//W3C//DTD SVG 1.1//EN"
  "http://www.w3.org/Graphics/SVG/1.1/DTD/svg11.dtd">
<svg xmlns:xlink="http://www.w3.org/1999/xlink" width="576pt" height="432pt" viewBox="0 0 576 432" xmlns="http://www.w3.org/2000/svg" version="1.1">
 <metadata>
  <rdf:RDF xmlns:dc="http://purl.org/dc/elements/1.1/" xmlns:cc="http://creativecommons.org/ns#" xmlns:rdf="http://www.w3.org/1999/02/22-rdf-syntax-ns#">
   <cc:Work>
    <dc:type rdf:resource="http://purl.org/dc/dcmitype/StillImage"/>
    <dc:date>2025-01-16T14:55:27.949697</dc:date>
    <dc:format>image/svg+xml</dc:format>
    <dc:creator>
     <cc:Agent>
      <dc:title>Matplotlib v3.10.0, https://matplotlib.org/</dc:title>
     </cc:Agent>
    </dc:creator>
   </cc:Work>
  </rdf:RDF>
 </metadata>
 <defs>
  <style type="text/css">*{stroke-linejoin: round; stroke-linecap: butt}</style>
 </defs>
 <g id="figure_1">
  <g id="patch_1">
   <path d="M 0 432 
L 576 432 
L 576 0 
L 0 0 
z
" style="fill: #ffffff"/>
  </g>
  <g id="axes_1">
   <g id="patch_2">
    <path d="M 72 384.48 
L 518.4 384.48 
L 518.4 51.84 
L 72 51.84 
z
" style="fill: #eaeaf2"/>
   </g>
   <g id="matplotlib.axis_1">
    <g id="xtick_1">
     <g id="line2d_1">
      <path d="M 92.290909 384.48 
L 92.290909 51.84 
" clip-path="url(#pd890fb5817)" style="fill: none; stroke: #ffffff; stroke-linecap: round"/>
     </g>
     <g id="text_1">
      <!-- 10 -->
      <g style="fill: #262626" transform="translate(86.173878 401.853594) scale(0.11 -0.11)">
       <defs>
        <path id="ArialMT-31" d="M 2384 0 
L 1822 0 
L 1822 3584 
Q 1619 3391 1289 3197 
Q 959 3003 697 2906 
L 697 3450 
Q 1169 3672 1522 3987 
Q 1875 4303 2022 4600 
L 2384 4600 
L 2384 0 
z
" transform="scale(0.015625)"/>
        <path id="ArialMT-30" d="M 266 2259 
Q 266 3072 433 3567 
Q 600 4063 929 4331 
Q 1259 4600 1759 4600 
Q 2128 4600 2406 4451 
Q 2684 4303 2865 4023 
Q 3047 3744 3150 3342 
Q 3253 2941 3253 2259 
Q 3253 1453 3087 958 
Q 2922 463 2592 192 
Q 2263 -78 1759 -78 
Q 1097 -78 719 397 
Q 266 969 266 2259 
z
M 844 2259 
Q 844 1131 1108 757 
Q 1372 384 1759 384 
Q 2147 384 2411 759 
Q 2675 1134 2675 2259 
Q 2675 3391 2411 3762 
Q 2147 4134 1753 4134 
Q 1366 4134 1134 3806 
Q 844 3388 844 2259 
z
" transform="scale(0.015625)"/>
       </defs>
       <use xlink:href="#ArialMT-31"/>
       <use xlink:href="#ArialMT-30" transform="translate(55.615234 0)"/>
      </g>
     </g>
    </g>
    <g id="xtick_2">
     <g id="line2d_2">
      <path d="M 147.644647 384.48 
L 147.644647 51.84 
" clip-path="url(#pd890fb5817)" style="fill: none; stroke: #ffffff; stroke-linecap: round"/>
     </g>
     <g id="text_2">
      <!-- 15 -->
      <g style="fill: #262626" transform="translate(141.527616 401.853594) scale(0.11 -0.11)">
       <defs>
        <path id="ArialMT-35" d="M 266 1200 
L 856 1250 
Q 922 819 1161 601 
Q 1400 384 1738 384 
Q 2144 384 2425 690 
Q 2706 997 2706 1503 
Q 2706 1984 2436 2262 
Q 2166 2541 1728 2541 
Q 1456 2541 1237 2417 
Q 1019 2294 894 2097 
L 366 2166 
L 809 4519 
L 3088 4519 
L 3088 3981 
L 1259 3981 
L 1013 2750 
Q 1425 3038 1878 3038 
Q 2478 3038 2890 2622 
Q 3303 2206 3303 1553 
Q 3303 931 2941 478 
Q 2500 -78 1738 -78 
Q 1113 -78 717 272 
Q 322 622 266 1200 
z
" transform="scale(0.015625)"/>
       </defs>
       <use xlink:href="#ArialMT-31"/>
       <use xlink:href="#ArialMT-35" transform="translate(55.615234 0)"/>
      </g>
     </g>
    </g>
    <g id="xtick_3">
     <g id="line2d_3">
      <path d="M 202.998385 384.48 
L 202.998385 51.84 
" clip-path="url(#pd890fb5817)" style="fill: none; stroke: #ffffff; stroke-linecap: round"/>
     </g>
     <g id="text_3">
      <!-- 20 -->
      <g style="fill: #262626" transform="translate(196.881354 401.853594) scale(0.11 -0.11)">
       <defs>
        <path id="ArialMT-32" d="M 3222 541 
L 3222 0 
L 194 0 
Q 188 203 259 391 
Q 375 700 629 1000 
Q 884 1300 1366 1694 
Q 2113 2306 2375 2664 
Q 2638 3022 2638 3341 
Q 2638 3675 2398 3904 
Q 2159 4134 1775 4134 
Q 1369 4134 1125 3890 
Q 881 3647 878 3216 
L 300 3275 
Q 359 3922 746 4261 
Q 1134 4600 1788 4600 
Q 2447 4600 2831 4234 
Q 3216 3869 3216 3328 
Q 3216 3053 3103 2787 
Q 2991 2522 2730 2228 
Q 2469 1934 1863 1422 
Q 1356 997 1212 845 
Q 1069 694 975 541 
L 3222 541 
z
" transform="scale(0.015625)"/>
       </defs>
       <use xlink:href="#ArialMT-32"/>
       <use xlink:href="#ArialMT-30" transform="translate(55.615234 0)"/>
      </g>
     </g>
    </g>
    <g id="xtick_4">
     <g id="line2d_4">
      <path d="M 258.352124 384.48 
L 258.352124 51.84 
" clip-path="url(#pd890fb5817)" style="fill: none; stroke: #ffffff; stroke-linecap: round"/>
     </g>
     <g id="text_4">
      <!-- 25 -->
      <g style="fill: #262626" transform="translate(252.235092 401.853594) scale(0.11 -0.11)">
       <use xlink:href="#ArialMT-32"/>
       <use xlink:href="#ArialMT-35" transform="translate(55.615234 0)"/>
      </g>
     </g>
    </g>
    <g id="xtick_5">
     <g id="line2d_5">
      <path d="M 313.705862 384.48 
L 313.705862 51.84 
" clip-path="url(#pd890fb5817)" style="fill: none; stroke: #ffffff; stroke-linecap: round"/>
     </g>
     <g id="text_5">
      <!-- 30 -->
      <g style="fill: #262626" transform="translate(307.58883 401.853594) scale(0.11 -0.11)">
       <defs>
        <path id="ArialMT-33" d="M 269 1209 
L 831 1284 
Q 928 806 1161 595 
Q 1394 384 1728 384 
Q 2125 384 2398 659 
Q 2672 934 2672 1341 
Q 2672 1728 2419 1979 
Q 2166 2231 1775 2231 
Q 1616 2231 1378 2169 
L 1441 2663 
Q 1497 2656 1531 2656 
Q 1891 2656 2178 2843 
Q 2466 3031 2466 3422 
Q 2466 3731 2256 3934 
Q 2047 4138 1716 4138 
Q 1388 4138 1169 3931 
Q 950 3725 888 3313 
L 325 3413 
Q 428 3978 793 4289 
Q 1159 4600 1703 4600 
Q 2078 4600 2393 4439 
Q 2709 4278 2876 4000 
Q 3044 3722 3044 3409 
Q 3044 3113 2884 2869 
Q 2725 2625 2413 2481 
Q 2819 2388 3044 2092 
Q 3269 1797 3269 1353 
Q 3269 753 2831 336 
Q 2394 -81 1725 -81 
Q 1122 -81 723 278 
Q 325 638 269 1209 
z
" transform="scale(0.015625)"/>
       </defs>
       <use xlink:href="#ArialMT-33"/>
       <use xlink:href="#ArialMT-30" transform="translate(55.615234 0)"/>
      </g>
     </g>
    </g>
    <g id="xtick_6">
     <g id="line2d_6">
      <path d="M 369.0596 384.48 
L 369.0596 51.84 
" clip-path="url(#pd890fb5817)" style="fill: none; stroke: #ffffff; stroke-linecap: round"/>
     </g>
     <g id="text_6">
      <!-- 35 -->
      <g style="fill: #262626" transform="translate(362.942569 401.853594) scale(0.11 -0.11)">
       <use xlink:href="#ArialMT-33"/>
       <use xlink:href="#ArialMT-35" transform="translate(55.615234 0)"/>
      </g>
     </g>
    </g>
    <g id="xtick_7">
     <g id="line2d_7">
      <path d="M 424.413338 384.48 
L 424.413338 51.84 
" clip-path="url(#pd890fb5817)" style="fill: none; stroke: #ffffff; stroke-linecap: round"/>
     </g>
     <g id="text_7">
      <!-- 40 -->
      <g style="fill: #262626" transform="translate(418.296307 401.853594) scale(0.11 -0.11)">
       <defs>
        <path id="ArialMT-34" d="M 2069 0 
L 2069 1097 
L 81 1097 
L 81 1613 
L 2172 4581 
L 2631 4581 
L 2631 1613 
L 3250 1613 
L 3250 1097 
L 2631 1097 
L 2631 0 
L 2069 0 
z
M 2069 1613 
L 2069 3678 
L 634 1613 
L 2069 1613 
z
" transform="scale(0.015625)"/>
       </defs>
       <use xlink:href="#ArialMT-34"/>
       <use xlink:href="#ArialMT-30" transform="translate(55.615234 0)"/>
      </g>
     </g>
    </g>
    <g id="xtick_8">
     <g id="line2d_8">
      <path d="M 479.767076 384.48 
L 479.767076 51.84 
" clip-path="url(#pd890fb5817)" style="fill: none; stroke: #ffffff; stroke-linecap: round"/>
     </g>
     <g id="text_8">
      <!-- 45 -->
      <g style="fill: #262626" transform="translate(473.650045 401.853594) scale(0.11 -0.11)">
       <use xlink:href="#ArialMT-34"/>
       <use xlink:href="#ArialMT-35" transform="translate(55.615234 0)"/>
      </g>
     </g>
    </g>
    <g id="text_9">
     <!-- Ct value -->
     <g style="fill: #262626" transform="translate(273.190313 416.629219) scale(0.12 -0.12)">
      <defs>
       <path id="ArialMT-43" d="M 3763 1606 
L 4369 1453 
Q 4178 706 3683 314 
Q 3188 -78 2472 -78 
Q 1731 -78 1267 223 
Q 803 525 561 1097 
Q 319 1669 319 2325 
Q 319 3041 592 3573 
Q 866 4106 1370 4382 
Q 1875 4659 2481 4659 
Q 3169 4659 3637 4309 
Q 4106 3959 4291 3325 
L 3694 3184 
Q 3534 3684 3231 3912 
Q 2928 4141 2469 4141 
Q 1941 4141 1586 3887 
Q 1231 3634 1087 3207 
Q 944 2781 944 2328 
Q 944 1744 1114 1308 
Q 1284 872 1643 656 
Q 2003 441 2422 441 
Q 2931 441 3284 734 
Q 3638 1028 3763 1606 
z
" transform="scale(0.015625)"/>
       <path id="ArialMT-74" d="M 1650 503 
L 1731 6 
Q 1494 -44 1306 -44 
Q 1000 -44 831 53 
Q 663 150 594 308 
Q 525 466 525 972 
L 525 2881 
L 113 2881 
L 113 3319 
L 525 3319 
L 525 4141 
L 1084 4478 
L 1084 3319 
L 1650 3319 
L 1650 2881 
L 1084 2881 
L 1084 941 
Q 1084 700 1114 631 
Q 1144 563 1211 522 
Q 1278 481 1403 481 
Q 1497 481 1650 503 
z
" transform="scale(0.015625)"/>
       <path id="ArialMT-20" transform="scale(0.015625)"/>
       <path id="ArialMT-76" d="M 1344 0 
L 81 3319 
L 675 3319 
L 1388 1331 
Q 1503 1009 1600 663 
Q 1675 925 1809 1294 
L 2547 3319 
L 3125 3319 
L 1869 0 
L 1344 0 
z
" transform="scale(0.015625)"/>
       <path id="ArialMT-61" d="M 2588 409 
Q 2275 144 1986 34 
Q 1697 -75 1366 -75 
Q 819 -75 525 192 
Q 231 459 231 875 
Q 231 1119 342 1320 
Q 453 1522 633 1644 
Q 813 1766 1038 1828 
Q 1203 1872 1538 1913 
Q 2219 1994 2541 2106 
Q 2544 2222 2544 2253 
Q 2544 2597 2384 2738 
Q 2169 2928 1744 2928 
Q 1347 2928 1158 2789 
Q 969 2650 878 2297 
L 328 2372 
Q 403 2725 575 2942 
Q 747 3159 1072 3276 
Q 1397 3394 1825 3394 
Q 2250 3394 2515 3294 
Q 2781 3194 2906 3042 
Q 3031 2891 3081 2659 
Q 3109 2516 3109 2141 
L 3109 1391 
Q 3109 606 3145 398 
Q 3181 191 3288 0 
L 2700 0 
Q 2613 175 2588 409 
z
M 2541 1666 
Q 2234 1541 1622 1453 
Q 1275 1403 1131 1340 
Q 988 1278 909 1158 
Q 831 1038 831 891 
Q 831 666 1001 516 
Q 1172 366 1500 366 
Q 1825 366 2078 508 
Q 2331 650 2450 897 
Q 2541 1088 2541 1459 
L 2541 1666 
z
" transform="scale(0.015625)"/>
       <path id="ArialMT-6c" d="M 409 0 
L 409 4581 
L 972 4581 
L 972 0 
L 409 0 
z
" transform="scale(0.015625)"/>
       <path id="ArialMT-75" d="M 2597 0 
L 2597 488 
Q 2209 -75 1544 -75 
Q 1250 -75 995 37 
Q 741 150 617 320 
Q 494 491 444 738 
Q 409 903 409 1263 
L 409 3319 
L 972 3319 
L 972 1478 
Q 972 1038 1006 884 
Q 1059 663 1231 536 
Q 1403 409 1656 409 
Q 1909 409 2131 539 
Q 2353 669 2445 892 
Q 2538 1116 2538 1541 
L 2538 3319 
L 3100 3319 
L 3100 0 
L 2597 0 
z
" transform="scale(0.015625)"/>
       <path id="ArialMT-65" d="M 2694 1069 
L 3275 997 
Q 3138 488 2766 206 
Q 2394 -75 1816 -75 
Q 1088 -75 661 373 
Q 234 822 234 1631 
Q 234 2469 665 2931 
Q 1097 3394 1784 3394 
Q 2450 3394 2872 2941 
Q 3294 2488 3294 1666 
Q 3294 1616 3291 1516 
L 816 1516 
Q 847 969 1125 678 
Q 1403 388 1819 388 
Q 2128 388 2347 550 
Q 2566 713 2694 1069 
z
M 847 1978 
L 2700 1978 
Q 2663 2397 2488 2606 
Q 2219 2931 1791 2931 
Q 1403 2931 1139 2672 
Q 875 2413 847 1978 
z
" transform="scale(0.015625)"/>
      </defs>
      <use xlink:href="#ArialMT-43"/>
      <use xlink:href="#ArialMT-74" transform="translate(72.216797 0)"/>
      <use xlink:href="#ArialMT-20" transform="translate(100 0)"/>
      <use xlink:href="#ArialMT-76" transform="translate(127.783203 0)"/>
      <use xlink:href="#ArialMT-61" transform="translate(177.783203 0)"/>
      <use xlink:href="#ArialMT-6c" transform="translate(233.398438 0)"/>
      <use xlink:href="#ArialMT-75" transform="translate(255.615234 0)"/>
      <use xlink:href="#ArialMT-65" transform="translate(311.230469 0)"/>
     </g>
    </g>
   </g>
   <g id="matplotlib.axis_2">
    <g id="ytick_1">
     <g id="line2d_9">
      <path d="M 72 369.36 
L 518.4 369.36 
" clip-path="url(#pd890fb5817)" style="fill: none; stroke: #ffffff; stroke-linecap: round"/>
     </g>
     <g id="text_10">
      <!-- 0 -->
      <g style="fill: #262626" transform="translate(56.382969 373.296797) scale(0.11 -0.11)">
       <use xlink:href="#ArialMT-30"/>
      </g>
     </g>
    </g>
    <g id="ytick_2">
     <g id="line2d_10">
      <path d="M 72 316.86 
L 518.4 316.86 
" clip-path="url(#pd890fb5817)" style="fill: none; stroke: #ffffff; stroke-linecap: round"/>
     </g>
     <g id="text_11">
      <!-- 50 -->
      <g style="fill: #262626" transform="translate(50.265937 320.796797) scale(0.11 -0.11)">
       <use xlink:href="#ArialMT-35"/>
       <use xlink:href="#ArialMT-30" transform="translate(55.615234 0)"/>
      </g>
     </g>
    </g>
    <g id="ytick_3">
     <g id="line2d_11">
      <path d="M 72 264.36 
L 518.4 264.36 
" clip-path="url(#pd890fb5817)" style="fill: none; stroke: #ffffff; stroke-linecap: round"/>
     </g>
     <g id="text_12">
      <!-- 100 -->
      <g style="fill: #262626" transform="translate(44.148906 268.296797) scale(0.11 -0.11)">
       <use xlink:href="#ArialMT-31"/>
       <use xlink:href="#ArialMT-30" transform="translate(55.615234 0)"/>
       <use xlink:href="#ArialMT-30" transform="translate(111.230469 0)"/>
      </g>
     </g>
    </g>
    <g id="ytick_4">
     <g id="line2d_12">
      <path d="M 72 211.86 
L 518.4 211.86 
" clip-path="url(#pd890fb5817)" style="fill: none; stroke: #ffffff; stroke-linecap: round"/>
     </g>
     <g id="text_13">
      <!-- 150 -->
      <g style="fill: #262626" transform="translate(44.148906 215.796797) scale(0.11 -0.11)">
       <use xlink:href="#ArialMT-31"/>
       <use xlink:href="#ArialMT-35" transform="translate(55.615234 0)"/>
       <use xlink:href="#ArialMT-30" transform="translate(111.230469 0)"/>
      </g>
     </g>
    </g>
    <g id="ytick_5">
     <g id="line2d_13">
      <path d="M 72 159.36 
L 518.4 159.36 
" clip-path="url(#pd890fb5817)" style="fill: none; stroke: #ffffff; stroke-linecap: round"/>
     </g>
     <g id="text_14">
      <!-- 200 -->
      <g style="fill: #262626" transform="translate(44.148906 163.296797) scale(0.11 -0.11)">
       <use xlink:href="#ArialMT-32"/>
       <use xlink:href="#ArialMT-30" transform="translate(55.615234 0)"/>
       <use xlink:href="#ArialMT-30" transform="translate(111.230469 0)"/>
      </g>
     </g>
    </g>
    <g id="ytick_6">
     <g id="line2d_14">
      <path d="M 72 106.86 
L 518.4 106.86 
" clip-path="url(#pd890fb5817)" style="fill: none; stroke: #ffffff; stroke-linecap: round"/>
     </g>
     <g id="text_15">
      <!-- 250 -->
      <g style="fill: #262626" transform="translate(44.148906 110.796797) scale(0.11 -0.11)">
       <use xlink:href="#ArialMT-32"/>
       <use xlink:href="#ArialMT-35" transform="translate(55.615234 0)"/>
       <use xlink:href="#ArialMT-30" transform="translate(111.230469 0)"/>
      </g>
     </g>
    </g>
    <g id="ytick_7">
     <g id="line2d_15">
      <path d="M 72 54.36 
L 518.4 54.36 
" clip-path="url(#pd890fb5817)" style="fill: none; stroke: #ffffff; stroke-linecap: round"/>
     </g>
     <g id="text_16">
      <!-- 300 -->
      <g style="fill: #262626" transform="translate(44.148906 58.296797) scale(0.11 -0.11)">
       <use xlink:href="#ArialMT-33"/>
       <use xlink:href="#ArialMT-30" transform="translate(55.615234 0)"/>
       <use xlink:href="#ArialMT-30" transform="translate(111.230469 0)"/>
      </g>
     </g>
    </g>
    <g id="text_17">
     <!-- No. of identified VF genes -->
     <g style="fill: #262626" transform="translate(37.623281 287.196562) rotate(-90) scale(0.12 -0.12)">
      <defs>
       <path id="ArialMT-4e" d="M 488 0 
L 488 4581 
L 1109 4581 
L 3516 984 
L 3516 4581 
L 4097 4581 
L 4097 0 
L 3475 0 
L 1069 3600 
L 1069 0 
L 488 0 
z
" transform="scale(0.015625)"/>
       <path id="ArialMT-6f" d="M 213 1659 
Q 213 2581 725 3025 
Q 1153 3394 1769 3394 
Q 2453 3394 2887 2945 
Q 3322 2497 3322 1706 
Q 3322 1066 3130 698 
Q 2938 331 2570 128 
Q 2203 -75 1769 -75 
Q 1072 -75 642 372 
Q 213 819 213 1659 
z
M 791 1659 
Q 791 1022 1069 705 
Q 1347 388 1769 388 
Q 2188 388 2466 706 
Q 2744 1025 2744 1678 
Q 2744 2294 2464 2611 
Q 2184 2928 1769 2928 
Q 1347 2928 1069 2612 
Q 791 2297 791 1659 
z
" transform="scale(0.015625)"/>
       <path id="ArialMT-2e" d="M 581 0 
L 581 641 
L 1222 641 
L 1222 0 
L 581 0 
z
" transform="scale(0.015625)"/>
       <path id="ArialMT-66" d="M 556 0 
L 556 2881 
L 59 2881 
L 59 3319 
L 556 3319 
L 556 3672 
Q 556 4006 616 4169 
Q 697 4388 901 4523 
Q 1106 4659 1475 4659 
Q 1713 4659 2000 4603 
L 1916 4113 
Q 1741 4144 1584 4144 
Q 1328 4144 1222 4034 
Q 1116 3925 1116 3625 
L 1116 3319 
L 1763 3319 
L 1763 2881 
L 1116 2881 
L 1116 0 
L 556 0 
z
" transform="scale(0.015625)"/>
       <path id="ArialMT-69" d="M 425 3934 
L 425 4581 
L 988 4581 
L 988 3934 
L 425 3934 
z
M 425 0 
L 425 3319 
L 988 3319 
L 988 0 
L 425 0 
z
" transform="scale(0.015625)"/>
       <path id="ArialMT-64" d="M 2575 0 
L 2575 419 
Q 2259 -75 1647 -75 
Q 1250 -75 917 144 
Q 584 363 401 755 
Q 219 1147 219 1656 
Q 219 2153 384 2558 
Q 550 2963 881 3178 
Q 1213 3394 1622 3394 
Q 1922 3394 2156 3267 
Q 2391 3141 2538 2938 
L 2538 4581 
L 3097 4581 
L 3097 0 
L 2575 0 
z
M 797 1656 
Q 797 1019 1065 703 
Q 1334 388 1700 388 
Q 2069 388 2326 689 
Q 2584 991 2584 1609 
Q 2584 2291 2321 2609 
Q 2059 2928 1675 2928 
Q 1300 2928 1048 2622 
Q 797 2316 797 1656 
z
" transform="scale(0.015625)"/>
       <path id="ArialMT-6e" d="M 422 0 
L 422 3319 
L 928 3319 
L 928 2847 
Q 1294 3394 1984 3394 
Q 2284 3394 2536 3286 
Q 2788 3178 2913 3003 
Q 3038 2828 3088 2588 
Q 3119 2431 3119 2041 
L 3119 0 
L 2556 0 
L 2556 2019 
Q 2556 2363 2490 2533 
Q 2425 2703 2258 2804 
Q 2091 2906 1866 2906 
Q 1506 2906 1245 2678 
Q 984 2450 984 1813 
L 984 0 
L 422 0 
z
" transform="scale(0.015625)"/>
       <path id="ArialMT-56" d="M 1803 0 
L 28 4581 
L 684 4581 
L 1875 1253 
Q 2019 853 2116 503 
Q 2222 878 2363 1253 
L 3600 4581 
L 4219 4581 
L 2425 0 
L 1803 0 
z
" transform="scale(0.015625)"/>
       <path id="ArialMT-46" d="M 525 0 
L 525 4581 
L 3616 4581 
L 3616 4041 
L 1131 4041 
L 1131 2622 
L 3281 2622 
L 3281 2081 
L 1131 2081 
L 1131 0 
L 525 0 
z
" transform="scale(0.015625)"/>
       <path id="ArialMT-67" d="M 319 -275 
L 866 -356 
Q 900 -609 1056 -725 
Q 1266 -881 1628 -881 
Q 2019 -881 2231 -725 
Q 2444 -569 2519 -288 
Q 2563 -116 2559 434 
Q 2191 0 1641 0 
Q 956 0 581 494 
Q 206 988 206 1678 
Q 206 2153 378 2554 
Q 550 2956 876 3175 
Q 1203 3394 1644 3394 
Q 2231 3394 2613 2919 
L 2613 3319 
L 3131 3319 
L 3131 450 
Q 3131 -325 2973 -648 
Q 2816 -972 2473 -1159 
Q 2131 -1347 1631 -1347 
Q 1038 -1347 672 -1080 
Q 306 -813 319 -275 
z
M 784 1719 
Q 784 1066 1043 766 
Q 1303 466 1694 466 
Q 2081 466 2343 764 
Q 2606 1063 2606 1700 
Q 2606 2309 2336 2618 
Q 2066 2928 1684 2928 
Q 1309 2928 1046 2623 
Q 784 2319 784 1719 
z
" transform="scale(0.015625)"/>
       <path id="ArialMT-73" d="M 197 991 
L 753 1078 
Q 800 744 1014 566 
Q 1228 388 1613 388 
Q 2000 388 2187 545 
Q 2375 703 2375 916 
Q 2375 1106 2209 1216 
Q 2094 1291 1634 1406 
Q 1016 1563 777 1677 
Q 538 1791 414 1992 
Q 291 2194 291 2438 
Q 291 2659 392 2848 
Q 494 3038 669 3163 
Q 800 3259 1026 3326 
Q 1253 3394 1513 3394 
Q 1903 3394 2198 3281 
Q 2494 3169 2634 2976 
Q 2775 2784 2828 2463 
L 2278 2388 
Q 2241 2644 2061 2787 
Q 1881 2931 1553 2931 
Q 1166 2931 1000 2803 
Q 834 2675 834 2503 
Q 834 2394 903 2306 
Q 972 2216 1119 2156 
Q 1203 2125 1616 2013 
Q 2213 1853 2448 1751 
Q 2684 1650 2818 1456 
Q 2953 1263 2953 975 
Q 2953 694 2789 445 
Q 2625 197 2315 61 
Q 2006 -75 1616 -75 
Q 969 -75 630 194 
Q 291 463 197 991 
z
" transform="scale(0.015625)"/>
      </defs>
      <use xlink:href="#ArialMT-4e"/>
      <use xlink:href="#ArialMT-6f" transform="translate(72.216797 0)"/>
      <use xlink:href="#ArialMT-2e" transform="translate(127.832031 0)"/>
      <use xlink:href="#ArialMT-20" transform="translate(155.615234 0)"/>
      <use xlink:href="#ArialMT-6f" transform="translate(183.398438 0)"/>
      <use xlink:href="#ArialMT-66" transform="translate(239.013672 0)"/>
      <use xlink:href="#ArialMT-20" transform="translate(266.796875 0)"/>
      <use xlink:href="#ArialMT-69" transform="translate(294.580078 0)"/>
      <use xlink:href="#ArialMT-64" transform="translate(316.796875 0)"/>
      <use xlink:href="#ArialMT-65" transform="translate(372.412109 0)"/>
      <use xlink:href="#ArialMT-6e" transform="translate(428.027344 0)"/>
      <use xlink:href="#ArialMT-74" transform="translate(483.642578 0)"/>
      <use xlink:href="#ArialMT-69" transform="translate(511.425781 0)"/>
      <use xlink:href="#ArialMT-66" transform="translate(533.642578 0)"/>
      <use xlink:href="#ArialMT-69" transform="translate(561.425781 0)"/>
      <use xlink:href="#ArialMT-65" transform="translate(583.642578 0)"/>
      <use xlink:href="#ArialMT-64" transform="translate(639.257812 0)"/>
      <use xlink:href="#ArialMT-20" transform="translate(694.873047 0)"/>
      <use xlink:href="#ArialMT-56" transform="translate(722.65625 0)"/>
      <use xlink:href="#ArialMT-46" transform="translate(789.355469 0)"/>
      <use xlink:href="#ArialMT-20" transform="translate(850.439453 0)"/>
      <use xlink:href="#ArialMT-67" transform="translate(878.222656 0)"/>
      <use xlink:href="#ArialMT-65" transform="translate(933.837891 0)"/>
      <use xlink:href="#ArialMT-6e" transform="translate(989.453125 0)"/>
      <use xlink:href="#ArialMT-65" transform="translate(1045.068359 0)"/>
      <use xlink:href="#ArialMT-73" transform="translate(1100.683594 0)"/>
     </g>
    </g>
   </g>
   <g id="PathCollection_1">
    <defs>
     <path id="m8c8028cfc1" d="M 0 3 
C 0.795609 3 1.55874 2.683901 2.12132 2.12132 
C 2.683901 1.55874 3 0.795609 3 0 
C 3 -0.795609 2.683901 -1.55874 2.12132 -2.12132 
C 1.55874 -2.683901 0.795609 -3 0 -3 
C -0.795609 -3 -1.55874 -2.683901 -2.12132 -2.12132 
C -2.683901 -1.55874 -3 -0.795609 -3 0 
C -3 0.795609 -2.683901 1.55874 -2.12132 2.12132 
C -1.55874 2.683901 -0.795609 3 0 3 
z
" style="stroke: #ffffff; stroke-width: 0.48"/>
    </defs>
    <g clip-path="url(#pd890fb5817)">
     <use xlink:href="#m8c8028cfc1" x="269.422871" y="360.96" style="fill: #4c72b0; stroke: #ffffff; stroke-width: 0.48"/>
     <use xlink:href="#m8c8028cfc1" x="269.422871" y="369.36" style="fill: #4c72b0; stroke: #ffffff; stroke-width: 0.48"/>
     <use xlink:href="#m8c8028cfc1" x="269.422871" y="369.36" style="fill: #4c72b0; stroke: #ffffff; stroke-width: 0.48"/>
     <use xlink:href="#m8c8028cfc1" x="269.422871" y="368.31" style="fill: #4c72b0; stroke: #ffffff; stroke-width: 0.48"/>
     <use xlink:href="#m8c8028cfc1" x="291.564366" y="369.36" style="fill: #4c72b0; stroke: #ffffff; stroke-width: 0.48"/>
     <use xlink:href="#m8c8028cfc1" x="291.564366" y="369.36" style="fill: #4c72b0; stroke: #ffffff; stroke-width: 0.48"/>
     <use xlink:href="#m8c8028cfc1" x="291.564366" y="369.36" style="fill: #4c72b0; stroke: #ffffff; stroke-width: 0.48"/>
     <use xlink:href="#m8c8028cfc1" x="291.564366" y="369.36" style="fill: #4c72b0; stroke: #ffffff; stroke-width: 0.48"/>
     <use xlink:href="#m8c8028cfc1" x="158.234797" y="287.46" style="fill: #4c72b0; stroke: #ffffff; stroke-width: 0.48"/>
     <use xlink:href="#m8c8028cfc1" x="260.616756" y="369.36" style="fill: #4c72b0; stroke: #ffffff; stroke-width: 0.48"/>
     <use xlink:href="#m8c8028cfc1" x="280.493619" y="369.36" style="fill: #4c72b0; stroke: #ffffff; stroke-width: 0.48"/>
     <use xlink:href="#m8c8028cfc1" x="291.564366" y="369.36" style="fill: #4c72b0; stroke: #ffffff; stroke-width: 0.48"/>
     <use xlink:href="#m8c8028cfc1" x="291.564366" y="369.36" style="fill: #4c72b0; stroke: #ffffff; stroke-width: 0.48"/>
     <use xlink:href="#m8c8028cfc1" x="291.564366" y="369.36" style="fill: #4c72b0; stroke: #ffffff; stroke-width: 0.48"/>
     <use xlink:href="#m8c8028cfc1" x="256.152366" y="369.36" style="fill: #4c72b0; stroke: #ffffff; stroke-width: 0.48"/>
     <use xlink:href="#m8c8028cfc1" x="337.3066" y="369.36" style="fill: #4c72b0; stroke: #ffffff; stroke-width: 0.48"/>
     <use xlink:href="#m8c8028cfc1" x="498.109091" y="369.36" style="fill: #4c72b0; stroke: #ffffff; stroke-width: 0.48"/>
     <use xlink:href="#m8c8028cfc1" x="302.635114" y="369.36" style="fill: #4c72b0; stroke: #ffffff; stroke-width: 0.48"/>
     <use xlink:href="#m8c8028cfc1" x="313.705862" y="369.36" style="fill: #4c72b0; stroke: #ffffff; stroke-width: 0.48"/>
     <use xlink:href="#m8c8028cfc1" x="313.705862" y="369.36" style="fill: #4c72b0; stroke: #ffffff; stroke-width: 0.48"/>
     <use xlink:href="#m8c8028cfc1" x="313.705862" y="369.36" style="fill: #4c72b0; stroke: #ffffff; stroke-width: 0.48"/>
     <use xlink:href="#m8c8028cfc1" x="360.258704" y="369.36" style="fill: #4c72b0; stroke: #ffffff; stroke-width: 0.48"/>
     <use xlink:href="#m8c8028cfc1" x="382.419319" y="369.36" style="fill: #4c72b0; stroke: #ffffff; stroke-width: 0.48"/>
     <use xlink:href="#m8c8028cfc1" x="125.503152" y="167.76" style="fill: #4c72b0; stroke: #ffffff; stroke-width: 0.48"/>
     <use xlink:href="#m8c8028cfc1" x="125.503152" y="142.56" style="fill: #4c72b0; stroke: #ffffff; stroke-width: 0.48"/>
     <use xlink:href="#m8c8028cfc1" x="125.503152" y="84.81" style="fill: #4c72b0; stroke: #ffffff; stroke-width: 0.48"/>
     <use xlink:href="#m8c8028cfc1" x="125.503152" y="356.76" style="fill: #4c72b0; stroke: #ffffff; stroke-width: 0.48"/>
     <use xlink:href="#m8c8028cfc1" x="247.281376" y="243.36" style="fill: #4c72b0; stroke: #ffffff; stroke-width: 0.48"/>
     <use xlink:href="#m8c8028cfc1" x="214.069133" y="66.96" style="fill: #4c72b0; stroke: #ffffff; stroke-width: 0.48"/>
     <use xlink:href="#m8c8028cfc1" x="214.069133" y="72.21" style="fill: #4c72b0; stroke: #ffffff; stroke-width: 0.48"/>
     <use xlink:href="#m8c8028cfc1" x="214.069133" y="150.96" style="fill: #4c72b0; stroke: #ffffff; stroke-width: 0.48"/>
     <use xlink:href="#m8c8028cfc1" x="191.927638" y="369.36" style="fill: #4c72b0; stroke: #ffffff; stroke-width: 0.48"/>
     <use xlink:href="#m8c8028cfc1" x="180.85689" y="187.71" style="fill: #4c72b0; stroke: #ffffff; stroke-width: 0.48"/>
     <use xlink:href="#m8c8028cfc1" x="180.85689" y="186.66" style="fill: #4c72b0; stroke: #ffffff; stroke-width: 0.48"/>
     <use xlink:href="#m8c8028cfc1" x="180.85689" y="230.76" style="fill: #4c72b0; stroke: #ffffff; stroke-width: 0.48"/>
     <use xlink:href="#m8c8028cfc1" x="214.069133" y="368.31" style="fill: #4c72b0; stroke: #ffffff; stroke-width: 0.48"/>
    </g>
   </g>
   <g id="patch_3">
    <path d="M 92.290909 384.48 
L 274.958245 384.48 
L 274.958245 51.84 
L 92.290909 51.84 
z
" clip-path="url(#pd890fb5817)" style="fill: #008000; opacity: 0.1; stroke: #008000; stroke-linejoin: miter"/>
   </g>
   <g id="patch_4">
    <path d="M 72 384.48 
L 72 51.84 
" style="fill: none; stroke: #ffffff; stroke-width: 1.25; stroke-linejoin: miter; stroke-linecap: square"/>
   </g>
   <g id="patch_5">
    <path d="M 518.4 384.48 
L 518.4 51.84 
" style="fill: none; stroke: #ffffff; stroke-width: 1.25; stroke-linejoin: miter; stroke-linecap: square"/>
   </g>
   <g id="patch_6">
    <path d="M 72 384.48 
L 518.4 384.48 
" style="fill: none; stroke: #ffffff; stroke-width: 1.25; stroke-linejoin: miter; stroke-linecap: square"/>
   </g>
   <g id="patch_7">
    <path d="M 72 51.84 
L 518.4 51.84 
" style="fill: none; stroke: #ffffff; stroke-width: 1.25; stroke-linejoin: miter; stroke-linecap: square"/>
   </g>
  </g>
 </g>
 <defs>
  <clipPath id="pd890fb5817">
   <rect x="72" y="51.84" width="446.4" height="332.64"/>
  </clipPath>
 </defs>
</svg>
