<?xml version="1.0" encoding="utf-8" standalone="no"?>
<!DOCTYPE svg PUBLIC "-//W3C//DTD SVG 1.1//EN"
  "http://www.w3.org/Graphics/SVG/1.1/DTD/svg11.dtd">
<svg xmlns:xlink="http://www.w3.org/1999/xlink" width="576pt" height="432pt" viewBox="0 0 576 432" xmlns="http://www.w3.org/2000/svg" version="1.1">
 <metadata>
  <rdf:RDF xmlns:dc="http://purl.org/dc/elements/1.1/" xmlns:cc="http://creativecommons.org/ns#" xmlns:rdf="http://www.w3.org/1999/02/22-rdf-syntax-ns#">
   <cc:Work>
    <dc:type rdf:resource="http://purl.org/dc/dcmitype/StillImage"/>
    <dc:date>2025-01-16T14:55:26.642054</dc:date>
    <dc:format>image/svg+xml</dc:format>
    <dc:creator>
     <cc:Agent>
      <dc:title>Matplotlib v3.10.0, https://matplotlib.org/</dc:title>
     </cc:Agent>
    </dc:creator>
   </cc:Work>
  </rdf:RDF>
 </metadata>
 <defs>
  <style type="text/css">*{stroke-linejoin: round; stroke-linecap: butt}</style>
 </defs>
 <g id="figure_1">
  <g id="patch_1">
   <path d="M 0 432 
L 576 432 
L 576 0 
L 0 0 
z
" style="fill: #ffffff"/>
  </g>
  <g id="axes_1">
   <g id="patch_2">
    <path d="M 72 384.48 
L 518.4 384.48 
L 518.4 51.84 
L 72 51.84 
z
" style="fill: #eaeaf2"/>
   </g>
   <g id="matplotlib.axis_1">
    <g id="xtick_1">
     <g id="text_1">
      <!-- 1 hour -->
      <g style="fill: #262626" transform="translate(168.006641 401.853594) scale(0.11 -0.11)">
       <defs>
        <path id="ArialMT-31" d="M 2384 0 
L 1822 0 
L 1822 3584 
Q 1619 3391 1289 3197 
Q 959 3003 697 2906 
L 697 3450 
Q 1169 3672 1522 3987 
Q 1875 4303 2022 4600 
L 2384 4600 
L 2384 0 
z
" transform="scale(0.015625)"/>
        <path id="ArialMT-20" transform="scale(0.015625)"/>
        <path id="ArialMT-68" d="M 422 0 
L 422 4581 
L 984 4581 
L 984 2938 
Q 1378 3394 1978 3394 
Q 2347 3394 2619 3248 
Q 2891 3103 3008 2847 
Q 3125 2591 3125 2103 
L 3125 0 
L 2563 0 
L 2563 2103 
Q 2563 2525 2380 2717 
Q 2197 2909 1863 2909 
Q 1613 2909 1392 2779 
Q 1172 2650 1078 2428 
Q 984 2206 984 1816 
L 984 0 
L 422 0 
z
" transform="scale(0.015625)"/>
        <path id="ArialMT-6f" d="M 213 1659 
Q 213 2581 725 3025 
Q 1153 3394 1769 3394 
Q 2453 3394 2887 2945 
Q 3322 2497 3322 1706 
Q 3322 1066 3130 698 
Q 2938 331 2570 128 
Q 2203 -75 1769 -75 
Q 1072 -75 642 372 
Q 213 819 213 1659 
z
M 791 1659 
Q 791 1022 1069 705 
Q 1347 388 1769 388 
Q 2188 388 2466 706 
Q 2744 1025 2744 1678 
Q 2744 2294 2464 2611 
Q 2184 2928 1769 2928 
Q 1347 2928 1069 2612 
Q 791 2297 791 1659 
z
" transform="scale(0.015625)"/>
        <path id="ArialMT-75" d="M 2597 0 
L 2597 488 
Q 2209 -75 1544 -75 
Q 1250 -75 995 37 
Q 741 150 617 320 
Q 494 491 444 738 
Q 409 903 409 1263 
L 409 3319 
L 972 3319 
L 972 1478 
Q 972 1038 1006 884 
Q 1059 663 1231 536 
Q 1403 409 1656 409 
Q 1909 409 2131 539 
Q 2353 669 2445 892 
Q 2538 1116 2538 1541 
L 2538 3319 
L 3100 3319 
L 3100 0 
L 2597 0 
z
" transform="scale(0.015625)"/>
        <path id="ArialMT-72" d="M 416 0 
L 416 3319 
L 922 3319 
L 922 2816 
Q 1116 3169 1280 3281 
Q 1444 3394 1641 3394 
Q 1925 3394 2219 3213 
L 2025 2691 
Q 1819 2813 1613 2813 
Q 1428 2813 1281 2702 
Q 1134 2591 1072 2394 
Q 978 2094 978 1738 
L 978 0 
L 416 0 
z
" transform="scale(0.015625)"/>
       </defs>
       <use xlink:href="#ArialMT-31"/>
       <use xlink:href="#ArialMT-20" transform="translate(55.615234 0)"/>
       <use xlink:href="#ArialMT-68" transform="translate(83.398438 0)"/>
       <use xlink:href="#ArialMT-6f" transform="translate(139.013672 0)"/>
       <use xlink:href="#ArialMT-75" transform="translate(194.628906 0)"/>
       <use xlink:href="#ArialMT-72" transform="translate(250.244141 0)"/>
      </g>
     </g>
    </g>
    <g id="xtick_2">
     <g id="text_2">
      <!-- 24 hours -->
      <g style="fill: #262626" transform="translate(385.398125 401.853594) scale(0.11 -0.11)">
       <defs>
        <path id="ArialMT-32" d="M 3222 541 
L 3222 0 
L 194 0 
Q 188 203 259 391 
Q 375 700 629 1000 
Q 884 1300 1366 1694 
Q 2113 2306 2375 2664 
Q 2638 3022 2638 3341 
Q 2638 3675 2398 3904 
Q 2159 4134 1775 4134 
Q 1369 4134 1125 3890 
Q 881 3647 878 3216 
L 300 3275 
Q 359 3922 746 4261 
Q 1134 4600 1788 4600 
Q 2447 4600 2831 4234 
Q 3216 3869 3216 3328 
Q 3216 3053 3103 2787 
Q 2991 2522 2730 2228 
Q 2469 1934 1863 1422 
Q 1356 997 1212 845 
Q 1069 694 975 541 
L 3222 541 
z
" transform="scale(0.015625)"/>
        <path id="ArialMT-34" d="M 2069 0 
L 2069 1097 
L 81 1097 
L 81 1613 
L 2172 4581 
L 2631 4581 
L 2631 1613 
L 3250 1613 
L 3250 1097 
L 2631 1097 
L 2631 0 
L 2069 0 
z
M 2069 1613 
L 2069 3678 
L 634 1613 
L 2069 1613 
z
" transform="scale(0.015625)"/>
        <path id="ArialMT-73" d="M 197 991 
L 753 1078 
Q 800 744 1014 566 
Q 1228 388 1613 388 
Q 2000 388 2187 545 
Q 2375 703 2375 916 
Q 2375 1106 2209 1216 
Q 2094 1291 1634 1406 
Q 1016 1563 777 1677 
Q 538 1791 414 1992 
Q 291 2194 291 2438 
Q 291 2659 392 2848 
Q 494 3038 669 3163 
Q 800 3259 1026 3326 
Q 1253 3394 1513 3394 
Q 1903 3394 2198 3281 
Q 2494 3169 2634 2976 
Q 2775 2784 2828 2463 
L 2278 2388 
Q 2241 2644 2061 2787 
Q 1881 2931 1553 2931 
Q 1166 2931 1000 2803 
Q 834 2675 834 2503 
Q 834 2394 903 2306 
Q 972 2216 1119 2156 
Q 1203 2125 1616 2013 
Q 2213 1853 2448 1751 
Q 2684 1650 2818 1456 
Q 2953 1263 2953 975 
Q 2953 694 2789 445 
Q 2625 197 2315 61 
Q 2006 -75 1616 -75 
Q 969 -75 630 194 
Q 291 463 197 991 
z
" transform="scale(0.015625)"/>
       </defs>
       <use xlink:href="#ArialMT-32"/>
       <use xlink:href="#ArialMT-34" transform="translate(55.615234 0)"/>
       <use xlink:href="#ArialMT-20" transform="translate(111.230469 0)"/>
       <use xlink:href="#ArialMT-68" transform="translate(139.013672 0)"/>
       <use xlink:href="#ArialMT-6f" transform="translate(194.628906 0)"/>
       <use xlink:href="#ArialMT-75" transform="translate(250.244141 0)"/>
       <use xlink:href="#ArialMT-72" transform="translate(305.859375 0)"/>
       <use xlink:href="#ArialMT-73" transform="translate(339.160156 0)"/>
      </g>
     </g>
    </g>
    <g id="text_3">
     <!-- Incubation before DNA isolation -->
     <g style="fill: #262626" transform="translate(211.15125 416.629219) scale(0.12 -0.12)">
      <defs>
       <path id="ArialMT-49" d="M 597 0 
L 597 4581 
L 1203 4581 
L 1203 0 
L 597 0 
z
" transform="scale(0.015625)"/>
       <path id="ArialMT-6e" d="M 422 0 
L 422 3319 
L 928 3319 
L 928 2847 
Q 1294 3394 1984 3394 
Q 2284 3394 2536 3286 
Q 2788 3178 2913 3003 
Q 3038 2828 3088 2588 
Q 3119 2431 3119 2041 
L 3119 0 
L 2556 0 
L 2556 2019 
Q 2556 2363 2490 2533 
Q 2425 2703 2258 2804 
Q 2091 2906 1866 2906 
Q 1506 2906 1245 2678 
Q 984 2450 984 1813 
L 984 0 
L 422 0 
z
" transform="scale(0.015625)"/>
       <path id="ArialMT-63" d="M 2588 1216 
L 3141 1144 
Q 3050 572 2676 248 
Q 2303 -75 1759 -75 
Q 1078 -75 664 370 
Q 250 816 250 1647 
Q 250 2184 428 2587 
Q 606 2991 970 3192 
Q 1334 3394 1763 3394 
Q 2303 3394 2647 3120 
Q 2991 2847 3088 2344 
L 2541 2259 
Q 2463 2594 2264 2762 
Q 2066 2931 1784 2931 
Q 1359 2931 1093 2626 
Q 828 2322 828 1663 
Q 828 994 1084 691 
Q 1341 388 1753 388 
Q 2084 388 2306 591 
Q 2528 794 2588 1216 
z
" transform="scale(0.015625)"/>
       <path id="ArialMT-62" d="M 941 0 
L 419 0 
L 419 4581 
L 981 4581 
L 981 2947 
Q 1338 3394 1891 3394 
Q 2197 3394 2470 3270 
Q 2744 3147 2920 2923 
Q 3097 2700 3197 2384 
Q 3297 2069 3297 1709 
Q 3297 856 2875 390 
Q 2453 -75 1863 -75 
Q 1275 -75 941 416 
L 941 0 
z
M 934 1684 
Q 934 1088 1097 822 
Q 1363 388 1816 388 
Q 2184 388 2453 708 
Q 2722 1028 2722 1663 
Q 2722 2313 2464 2622 
Q 2206 2931 1841 2931 
Q 1472 2931 1203 2611 
Q 934 2291 934 1684 
z
" transform="scale(0.015625)"/>
       <path id="ArialMT-61" d="M 2588 409 
Q 2275 144 1986 34 
Q 1697 -75 1366 -75 
Q 819 -75 525 192 
Q 231 459 231 875 
Q 231 1119 342 1320 
Q 453 1522 633 1644 
Q 813 1766 1038 1828 
Q 1203 1872 1538 1913 
Q 2219 1994 2541 2106 
Q 2544 2222 2544 2253 
Q 2544 2597 2384 2738 
Q 2169 2928 1744 2928 
Q 1347 2928 1158 2789 
Q 969 2650 878 2297 
L 328 2372 
Q 403 2725 575 2942 
Q 747 3159 1072 3276 
Q 1397 3394 1825 3394 
Q 2250 3394 2515 3294 
Q 2781 3194 2906 3042 
Q 3031 2891 3081 2659 
Q 3109 2516 3109 2141 
L 3109 1391 
Q 3109 606 3145 398 
Q 3181 191 3288 0 
L 2700 0 
Q 2613 175 2588 409 
z
M 2541 1666 
Q 2234 1541 1622 1453 
Q 1275 1403 1131 1340 
Q 988 1278 909 1158 
Q 831 1038 831 891 
Q 831 666 1001 516 
Q 1172 366 1500 366 
Q 1825 366 2078 508 
Q 2331 650 2450 897 
Q 2541 1088 2541 1459 
L 2541 1666 
z
" transform="scale(0.015625)"/>
       <path id="ArialMT-74" d="M 1650 503 
L 1731 6 
Q 1494 -44 1306 -44 
Q 1000 -44 831 53 
Q 663 150 594 308 
Q 525 466 525 972 
L 525 2881 
L 113 2881 
L 113 3319 
L 525 3319 
L 525 4141 
L 1084 4478 
L 1084 3319 
L 1650 3319 
L 1650 2881 
L 1084 2881 
L 1084 941 
Q 1084 700 1114 631 
Q 1144 563 1211 522 
Q 1278 481 1403 481 
Q 1497 481 1650 503 
z
" transform="scale(0.015625)"/>
       <path id="ArialMT-69" d="M 425 3934 
L 425 4581 
L 988 4581 
L 988 3934 
L 425 3934 
z
M 425 0 
L 425 3319 
L 988 3319 
L 988 0 
L 425 0 
z
" transform="scale(0.015625)"/>
       <path id="ArialMT-65" d="M 2694 1069 
L 3275 997 
Q 3138 488 2766 206 
Q 2394 -75 1816 -75 
Q 1088 -75 661 373 
Q 234 822 234 1631 
Q 234 2469 665 2931 
Q 1097 3394 1784 3394 
Q 2450 3394 2872 2941 
Q 3294 2488 3294 1666 
Q 3294 1616 3291 1516 
L 816 1516 
Q 847 969 1125 678 
Q 1403 388 1819 388 
Q 2128 388 2347 550 
Q 2566 713 2694 1069 
z
M 847 1978 
L 2700 1978 
Q 2663 2397 2488 2606 
Q 2219 2931 1791 2931 
Q 1403 2931 1139 2672 
Q 875 2413 847 1978 
z
" transform="scale(0.015625)"/>
       <path id="ArialMT-66" d="M 556 0 
L 556 2881 
L 59 2881 
L 59 3319 
L 556 3319 
L 556 3672 
Q 556 4006 616 4169 
Q 697 4388 901 4523 
Q 1106 4659 1475 4659 
Q 1713 4659 2000 4603 
L 1916 4113 
Q 1741 4144 1584 4144 
Q 1328 4144 1222 4034 
Q 1116 3925 1116 3625 
L 1116 3319 
L 1763 3319 
L 1763 2881 
L 1116 2881 
L 1116 0 
L 556 0 
z
" transform="scale(0.015625)"/>
       <path id="ArialMT-44" d="M 494 0 
L 494 4581 
L 2072 4581 
Q 2606 4581 2888 4516 
Q 3281 4425 3559 4188 
Q 3922 3881 4101 3404 
Q 4281 2928 4281 2316 
Q 4281 1794 4159 1391 
Q 4038 988 3847 723 
Q 3656 459 3429 307 
Q 3203 156 2883 78 
Q 2563 0 2147 0 
L 494 0 
z
M 1100 541 
L 2078 541 
Q 2531 541 2789 625 
Q 3047 709 3200 863 
Q 3416 1078 3536 1442 
Q 3656 1806 3656 2325 
Q 3656 3044 3420 3430 
Q 3184 3816 2847 3947 
Q 2603 4041 2063 4041 
L 1100 4041 
L 1100 541 
z
" transform="scale(0.015625)"/>
       <path id="ArialMT-4e" d="M 488 0 
L 488 4581 
L 1109 4581 
L 3516 984 
L 3516 4581 
L 4097 4581 
L 4097 0 
L 3475 0 
L 1069 3600 
L 1069 0 
L 488 0 
z
" transform="scale(0.015625)"/>
       <path id="ArialMT-41" d="M -9 0 
L 1750 4581 
L 2403 4581 
L 4278 0 
L 3588 0 
L 3053 1388 
L 1138 1388 
L 634 0 
L -9 0 
z
M 1313 1881 
L 2866 1881 
L 2388 3150 
Q 2169 3728 2063 4100 
Q 1975 3659 1816 3225 
L 1313 1881 
z
" transform="scale(0.015625)"/>
       <path id="ArialMT-6c" d="M 409 0 
L 409 4581 
L 972 4581 
L 972 0 
L 409 0 
z
" transform="scale(0.015625)"/>
      </defs>
      <use xlink:href="#ArialMT-49"/>
      <use xlink:href="#ArialMT-6e" transform="translate(27.783203 0)"/>
      <use xlink:href="#ArialMT-63" transform="translate(83.398438 0)"/>
      <use xlink:href="#ArialMT-75" transform="translate(133.398438 0)"/>
      <use xlink:href="#ArialMT-62" transform="translate(189.013672 0)"/>
      <use xlink:href="#ArialMT-61" transform="translate(244.628906 0)"/>
      <use xlink:href="#ArialMT-74" transform="translate(300.244141 0)"/>
      <use xlink:href="#ArialMT-69" transform="translate(328.027344 0)"/>
      <use xlink:href="#ArialMT-6f" transform="translate(350.244141 0)"/>
      <use xlink:href="#ArialMT-6e" transform="translate(405.859375 0)"/>
      <use xlink:href="#ArialMT-20" transform="translate(461.474609 0)"/>
      <use xlink:href="#ArialMT-62" transform="translate(489.257812 0)"/>
      <use xlink:href="#ArialMT-65" transform="translate(544.873047 0)"/>
      <use xlink:href="#ArialMT-66" transform="translate(600.488281 0)"/>
      <use xlink:href="#ArialMT-6f" transform="translate(628.271484 0)"/>
      <use xlink:href="#ArialMT-72" transform="translate(683.886719 0)"/>
      <use xlink:href="#ArialMT-65" transform="translate(717.1875 0)"/>
      <use xlink:href="#ArialMT-20" transform="translate(772.802734 0)"/>
      <use xlink:href="#ArialMT-44" transform="translate(800.585938 0)"/>
      <use xlink:href="#ArialMT-4e" transform="translate(872.802734 0)"/>
      <use xlink:href="#ArialMT-41" transform="translate(945.019531 0)"/>
      <use xlink:href="#ArialMT-20" transform="translate(1006.21875 0)"/>
      <use xlink:href="#ArialMT-69" transform="translate(1034.001953 0)"/>
      <use xlink:href="#ArialMT-73" transform="translate(1056.21875 0)"/>
      <use xlink:href="#ArialMT-6f" transform="translate(1106.21875 0)"/>
      <use xlink:href="#ArialMT-6c" transform="translate(1161.833984 0)"/>
      <use xlink:href="#ArialMT-61" transform="translate(1184.050781 0)"/>
      <use xlink:href="#ArialMT-74" transform="translate(1239.666016 0)"/>
      <use xlink:href="#ArialMT-69" transform="translate(1267.449219 0)"/>
      <use xlink:href="#ArialMT-6f" transform="translate(1289.666016 0)"/>
      <use xlink:href="#ArialMT-6e" transform="translate(1345.28125 0)"/>
     </g>
    </g>
   </g>
   <g id="matplotlib.axis_2">
    <g id="ytick_1">
     <g id="line2d_1">
      <path d="M 72 345.290706 
L 518.4 345.290706 
" clip-path="url(#p252612fcd9)" style="fill: none; stroke: #ffffff; stroke-linecap: round"/>
     </g>
     <g id="text_4">
      <!-- −2 -->
      <g style="fill: #262626" transform="translate(49.958281 349.227503) scale(0.11 -0.11)">
       <defs>
        <path id="ArialMT-2212" d="M 3381 1997 
L 356 1997 
L 356 2522 
L 3381 2522 
L 3381 1997 
z
" transform="scale(0.015625)"/>
       </defs>
       <use xlink:href="#ArialMT-2212"/>
       <use xlink:href="#ArialMT-32" transform="translate(58.398438 0)"/>
      </g>
     </g>
    </g>
    <g id="ytick_2">
     <g id="line2d_2">
      <path d="M 72 302.913804 
L 518.4 302.913804 
" clip-path="url(#p252612fcd9)" style="fill: none; stroke: #ffffff; stroke-linecap: round"/>
     </g>
     <g id="text_5">
      <!-- 0 -->
      <g style="fill: #262626" transform="translate(56.382969 306.850601) scale(0.11 -0.11)">
       <defs>
        <path id="ArialMT-30" d="M 266 2259 
Q 266 3072 433 3567 
Q 600 4063 929 4331 
Q 1259 4600 1759 4600 
Q 2128 4600 2406 4451 
Q 2684 4303 2865 4023 
Q 3047 3744 3150 3342 
Q 3253 2941 3253 2259 
Q 3253 1453 3087 958 
Q 2922 463 2592 192 
Q 2263 -78 1759 -78 
Q 1097 -78 719 397 
Q 266 969 266 2259 
z
M 844 2259 
Q 844 1131 1108 757 
Q 1372 384 1759 384 
Q 2147 384 2411 759 
Q 2675 1134 2675 2259 
Q 2675 3391 2411 3762 
Q 2147 4134 1753 4134 
Q 1366 4134 1134 3806 
Q 844 3388 844 2259 
z
" transform="scale(0.015625)"/>
       </defs>
       <use xlink:href="#ArialMT-30"/>
      </g>
     </g>
    </g>
    <g id="ytick_3">
     <g id="line2d_3">
      <path d="M 72 260.536902 
L 518.4 260.536902 
" clip-path="url(#p252612fcd9)" style="fill: none; stroke: #ffffff; stroke-linecap: round"/>
     </g>
     <g id="text_6">
      <!-- 2 -->
      <g style="fill: #262626" transform="translate(56.382969 264.473699) scale(0.11 -0.11)">
       <use xlink:href="#ArialMT-32"/>
      </g>
     </g>
    </g>
    <g id="ytick_4">
     <g id="line2d_4">
      <path d="M 72 218.16 
L 518.4 218.16 
" clip-path="url(#p252612fcd9)" style="fill: none; stroke: #ffffff; stroke-linecap: round"/>
     </g>
     <g id="text_7">
      <!-- 4 -->
      <g style="fill: #262626" transform="translate(56.382969 222.096797) scale(0.11 -0.11)">
       <use xlink:href="#ArialMT-34"/>
      </g>
     </g>
    </g>
    <g id="ytick_5">
     <g id="line2d_5">
      <path d="M 72 175.783098 
L 518.4 175.783098 
" clip-path="url(#p252612fcd9)" style="fill: none; stroke: #ffffff; stroke-linecap: round"/>
     </g>
     <g id="text_8">
      <!-- 6 -->
      <g style="fill: #262626" transform="translate(56.382969 179.719895) scale(0.11 -0.11)">
       <defs>
        <path id="ArialMT-36" d="M 3184 3459 
L 2625 3416 
Q 2550 3747 2413 3897 
Q 2184 4138 1850 4138 
Q 1581 4138 1378 3988 
Q 1113 3794 959 3422 
Q 806 3050 800 2363 
Q 1003 2672 1297 2822 
Q 1591 2972 1913 2972 
Q 2475 2972 2870 2558 
Q 3266 2144 3266 1488 
Q 3266 1056 3080 686 
Q 2894 316 2569 119 
Q 2244 -78 1831 -78 
Q 1128 -78 684 439 
Q 241 956 241 2144 
Q 241 3472 731 4075 
Q 1159 4600 1884 4600 
Q 2425 4600 2770 4297 
Q 3116 3994 3184 3459 
z
M 888 1484 
Q 888 1194 1011 928 
Q 1134 663 1356 523 
Q 1578 384 1822 384 
Q 2178 384 2434 671 
Q 2691 959 2691 1453 
Q 2691 1928 2437 2201 
Q 2184 2475 1800 2475 
Q 1419 2475 1153 2201 
Q 888 1928 888 1484 
z
" transform="scale(0.015625)"/>
       </defs>
       <use xlink:href="#ArialMT-36"/>
      </g>
     </g>
    </g>
    <g id="ytick_6">
     <g id="line2d_6">
      <path d="M 72 133.406196 
L 518.4 133.406196 
" clip-path="url(#p252612fcd9)" style="fill: none; stroke: #ffffff; stroke-linecap: round"/>
     </g>
     <g id="text_9">
      <!-- 8 -->
      <g style="fill: #262626" transform="translate(56.382969 137.342993) scale(0.11 -0.11)">
       <defs>
        <path id="ArialMT-38" d="M 1131 2484 
Q 781 2613 612 2850 
Q 444 3088 444 3419 
Q 444 3919 803 4259 
Q 1163 4600 1759 4600 
Q 2359 4600 2725 4251 
Q 3091 3903 3091 3403 
Q 3091 3084 2923 2848 
Q 2756 2613 2416 2484 
Q 2838 2347 3058 2040 
Q 3278 1734 3278 1309 
Q 3278 722 2862 322 
Q 2447 -78 1769 -78 
Q 1091 -78 675 323 
Q 259 725 259 1325 
Q 259 1772 486 2073 
Q 713 2375 1131 2484 
z
M 1019 3438 
Q 1019 3113 1228 2906 
Q 1438 2700 1772 2700 
Q 2097 2700 2305 2904 
Q 2513 3109 2513 3406 
Q 2513 3716 2298 3927 
Q 2084 4138 1766 4138 
Q 1444 4138 1231 3931 
Q 1019 3725 1019 3438 
z
M 838 1322 
Q 838 1081 952 856 
Q 1066 631 1291 507 
Q 1516 384 1775 384 
Q 2178 384 2440 643 
Q 2703 903 2703 1303 
Q 2703 1709 2433 1975 
Q 2163 2241 1756 2241 
Q 1359 2241 1098 1978 
Q 838 1716 838 1322 
z
" transform="scale(0.015625)"/>
       </defs>
       <use xlink:href="#ArialMT-38"/>
      </g>
     </g>
    </g>
    <g id="ytick_7">
     <g id="line2d_7">
      <path d="M 72 91.029294 
L 518.4 91.029294 
" clip-path="url(#p252612fcd9)" style="fill: none; stroke: #ffffff; stroke-linecap: round"/>
     </g>
     <g id="text_10">
      <!-- 10 -->
      <g style="fill: #262626" transform="translate(50.265937 94.966091) scale(0.11 -0.11)">
       <use xlink:href="#ArialMT-31"/>
       <use xlink:href="#ArialMT-30" transform="translate(55.615234 0)"/>
      </g>
     </g>
    </g>
    <g id="text_11">
     <!-- AMRs Count -->
     <g style="fill: #262626" transform="translate(43.573281 252.169687) rotate(-90) scale(0.12 -0.12)">
      <defs>
       <path id="ArialMT-4d" d="M 475 0 
L 475 4581 
L 1388 4581 
L 2472 1338 
Q 2622 884 2691 659 
Q 2769 909 2934 1394 
L 4031 4581 
L 4847 4581 
L 4847 0 
L 4263 0 
L 4263 3834 
L 2931 0 
L 2384 0 
L 1059 3900 
L 1059 0 
L 475 0 
z
" transform="scale(0.015625)"/>
       <path id="ArialMT-52" d="M 503 0 
L 503 4581 
L 2534 4581 
Q 3147 4581 3465 4457 
Q 3784 4334 3975 4021 
Q 4166 3709 4166 3331 
Q 4166 2844 3850 2509 
Q 3534 2175 2875 2084 
Q 3116 1969 3241 1856 
Q 3506 1613 3744 1247 
L 4541 0 
L 3778 0 
L 3172 953 
Q 2906 1366 2734 1584 
Q 2563 1803 2427 1890 
Q 2291 1978 2150 2013 
Q 2047 2034 1813 2034 
L 1109 2034 
L 1109 0 
L 503 0 
z
M 1109 2559 
L 2413 2559 
Q 2828 2559 3062 2645 
Q 3297 2731 3419 2920 
Q 3541 3109 3541 3331 
Q 3541 3656 3305 3865 
Q 3069 4075 2559 4075 
L 1109 4075 
L 1109 2559 
z
" transform="scale(0.015625)"/>
       <path id="ArialMT-43" d="M 3763 1606 
L 4369 1453 
Q 4178 706 3683 314 
Q 3188 -78 2472 -78 
Q 1731 -78 1267 223 
Q 803 525 561 1097 
Q 319 1669 319 2325 
Q 319 3041 592 3573 
Q 866 4106 1370 4382 
Q 1875 4659 2481 4659 
Q 3169 4659 3637 4309 
Q 4106 3959 4291 3325 
L 3694 3184 
Q 3534 3684 3231 3912 
Q 2928 4141 2469 4141 
Q 1941 4141 1586 3887 
Q 1231 3634 1087 3207 
Q 944 2781 944 2328 
Q 944 1744 1114 1308 
Q 1284 872 1643 656 
Q 2003 441 2422 441 
Q 2931 441 3284 734 
Q 3638 1028 3763 1606 
z
" transform="scale(0.015625)"/>
      </defs>
      <use xlink:href="#ArialMT-41"/>
      <use xlink:href="#ArialMT-4d" transform="translate(66.699219 0)"/>
      <use xlink:href="#ArialMT-52" transform="translate(150 0)"/>
      <use xlink:href="#ArialMT-73" transform="translate(222.216797 0)"/>
      <use xlink:href="#ArialMT-20" transform="translate(272.216797 0)"/>
      <use xlink:href="#ArialMT-43" transform="translate(300 0)"/>
      <use xlink:href="#ArialMT-6f" transform="translate(372.216797 0)"/>
      <use xlink:href="#ArialMT-75" transform="translate(427.832031 0)"/>
      <use xlink:href="#ArialMT-6e" transform="translate(483.447266 0)"/>
      <use xlink:href="#ArialMT-74" transform="translate(539.0625 0)"/>
     </g>
    </g>
   </g>
   <g id="FillBetweenPolyCollection_1">
    <defs>
     <path id="m46bdb64aae" d="M 195.689533 -114.926922 
L 171.510467 -114.926922 
L 168.020731 -115.855043 
L 163.86575 -116.783163 
L 159.028583 -117.711283 
L 153.527066 -118.639403 
L 147.42093 -119.567523 
L 140.816628 -120.495644 
L 133.868834 -121.423764 
L 126.777769 -122.351884 
L 119.78189 -123.280004 
L 113.146007 -124.208124 
L 107.145457 -125.136245 
L 102.047553 -126.064365 
L 98.092007 -126.992485 
L 95.472299 -127.920605 
L 94.32 -128.848725 
L 94.693823 -129.776846 
L 96.574664 -130.704966 
L 99.867223 -131.633086 
L 104.408004 -132.561206 
L 109.978764 -133.489327 
L 116.323881 -134.417447 
L 123.169697 -135.345567 
L 130.243833 -136.273687 
L 137.29259 -137.201807 
L 144.094972 -138.129928 
L 150.472377 -139.058048 
L 156.293616 -139.986168 
L 161.475467 -140.914288 
L 165.979426 -141.842408 
L 169.805626 -142.770529 
L 172.985001 -143.698649 
L 175.570769 -144.626769 
L 177.630143 -145.554889 
L 179.236952 -146.483009 
L 180.465618 -147.41113 
L 181.38665 -148.33925 
L 182.063671 -149.26737 
L 182.551776 -150.19549 
L 182.896992 -151.12361 
L 183.13655 -152.051731 
L 183.299682 -152.979851 
L 183.408708 -153.907971 
L 183.480228 -154.836091 
L 183.526284 -155.764211 
L 183.555398 -156.692332 
L 183.573464 -157.620452 
L 183.584464 -158.548572 
L 183.591026 -159.476692 
L 183.594844 -160.404812 
L 183.596979 -161.332933 
L 183.598072 -162.261053 
L 183.598478 -163.189173 
L 183.598364 -164.117293 
L 183.59775 -165.045413 
L 183.596536 -165.973534 
L 183.594499 -166.901654 
L 183.591277 -167.829774 
L 183.586336 -168.757894 
L 183.578928 -169.686014 
L 183.568042 -170.614135 
L 183.552352 -171.542255 
L 183.530166 -172.470375 
L 183.499393 -173.398495 
L 183.457528 -174.326615 
L 183.40168 -175.254736 
L 183.328643 -176.182856 
L 183.235035 -177.110976 
L 183.1175 -178.039096 
L 182.972983 -178.967216 
L 182.799065 -179.895337 
L 182.594339 -180.823457 
L 182.358801 -181.751577 
L 182.094199 -182.679697 
L 181.804317 -183.607818 
L 181.495118 -184.535938 
L 181.17472 -185.464058 
L 180.853168 -186.392178 
L 180.541995 -187.320298 
L 180.25358 -188.248419 
L 180.000364 -189.176539 
L 179.793965 -190.104659 
L 179.644303 -191.032779 
L 179.55881 -191.960899 
L 179.541818 -192.88902 
L 179.594195 -193.81714 
L 179.713273 -194.74526 
L 179.893071 -195.67338 
L 180.124793 -196.6015 
L 180.397546 -197.529621 
L 180.699177 -198.457741 
L 181.017171 -199.385861 
L 181.339492 -200.313981 
L 181.655301 -201.242101 
L 181.955497 -202.170222 
L 182.233048 -203.098342 
L 182.483117 -204.026462 
L 182.702989 -204.954582 
L 182.891851 -205.882702 
L 183.050476 -206.810823 
L 184.149524 -206.810823 
L 184.149524 -206.810823 
L 184.308149 -205.882702 
L 184.497011 -204.954582 
L 184.716883 -204.026462 
L 184.966952 -203.098342 
L 185.244503 -202.170222 
L 185.544699 -201.242101 
L 185.860508 -200.313981 
L 186.182829 -199.385861 
L 186.500823 -198.457741 
L 186.802454 -197.529621 
L 187.075207 -196.6015 
L 187.306929 -195.67338 
L 187.486727 -194.74526 
L 187.605805 -193.81714 
L 187.658182 -192.88902 
L 187.64119 -191.960899 
L 187.555697 -191.032779 
L 187.406035 -190.104659 
L 187.199636 -189.176539 
L 186.94642 -188.248419 
L 186.658005 -187.320298 
L 186.346832 -186.392178 
L 186.02528 -185.464058 
L 185.704882 -184.535938 
L 185.395683 -183.607818 
L 185.105801 -182.679697 
L 184.841199 -181.751577 
L 184.605661 -180.823457 
L 184.400935 -179.895337 
L 184.227017 -178.967216 
L 184.0825 -178.039096 
L 183.964965 -177.110976 
L 183.871357 -176.182856 
L 183.79832 -175.254736 
L 183.742472 -174.326615 
L 183.700607 -173.398495 
L 183.669834 -172.470375 
L 183.647648 -171.542255 
L 183.631958 -170.614135 
L 183.621072 -169.686014 
L 183.613664 -168.757894 
L 183.608723 -167.829774 
L 183.605501 -166.901654 
L 183.603464 -165.973534 
L 183.60225 -165.045413 
L 183.601636 -164.117293 
L 183.601522 -163.189173 
L 183.601928 -162.261053 
L 183.603021 -161.332933 
L 183.605156 -160.404812 
L 183.608974 -159.476692 
L 183.615536 -158.548572 
L 183.626536 -157.620452 
L 183.644602 -156.692332 
L 183.673716 -155.764211 
L 183.719772 -154.836091 
L 183.791292 -153.907971 
L 183.900318 -152.979851 
L 184.06345 -152.051731 
L 184.303008 -151.12361 
L 184.648224 -150.19549 
L 185.136329 -149.26737 
L 185.81335 -148.33925 
L 186.734382 -147.41113 
L 187.963048 -146.483009 
L 189.569857 -145.554889 
L 191.629231 -144.626769 
L 194.214999 -143.698649 
L 197.394374 -142.770529 
L 201.220574 -141.842408 
L 205.724533 -140.914288 
L 210.906384 -139.986168 
L 216.727623 -139.058048 
L 223.105028 -138.129928 
L 229.90741 -137.201807 
L 236.956167 -136.273687 
L 244.030303 -135.345567 
L 250.876119 -134.417447 
L 257.221236 -133.489327 
L 262.791996 -132.561206 
L 267.332777 -131.633086 
L 270.625336 -130.704966 
L 272.506177 -129.776846 
L 272.88 -128.848725 
L 271.727701 -127.920605 
L 269.107993 -126.992485 
L 265.152447 -126.064365 
L 260.054543 -125.136245 
L 254.053993 -124.208124 
L 247.41811 -123.280004 
L 240.422231 -122.351884 
L 233.331166 -121.423764 
L 226.383372 -120.495644 
L 219.77907 -119.567523 
L 213.672934 -118.639403 
L 208.171417 -117.711283 
L 203.33425 -116.783163 
L 199.179269 -115.855043 
L 195.689533 -114.926922 
z
" style="stroke: #4c4c4c; stroke-width: 1.25"/>
    </defs>
    <g clip-path="url(#p252612fcd9)">
     <use xlink:href="#m46bdb64aae" x="0" y="432" style="fill: #5875a4; stroke: #4c4c4c; stroke-width: 1.25"/>
    </g>
   </g>
   <g id="FillBetweenPolyCollection_2">
    <defs>
     <path id="m3ecfe87faf" d="M 407.384655 -62.64 
L 406.215345 -62.64 
L 406.085777 -65.694545 
L 405.933832 -68.749091 
L 405.757132 -71.803636 
L 405.553364 -74.858182 
L 405.320354 -77.912727 
L 405.056148 -80.967273 
L 404.759107 -84.021818 
L 404.427997 -87.076364 
L 404.062087 -90.130909 
L 403.661236 -93.185455 
L 403.22598 -96.24 
L 402.757605 -99.294545 
L 402.258207 -102.349091 
L 401.730732 -105.403636 
L 401.178992 -108.458182 
L 400.607663 -111.512727 
L 400.022247 -114.567273 
L 399.429011 -117.621818 
L 398.834896 -120.676364 
L 398.247393 -123.730909 
L 397.674399 -126.785455 
L 397.124042 -129.84 
L 396.604488 -132.894545 
L 396.123733 -135.949091 
L 395.689387 -139.003636 
L 395.308451 -142.058182 
L 394.987105 -145.112727 
L 394.730505 -148.167273 
L 394.542609 -151.221818 
L 394.426021 -154.276364 
L 394.381891 -157.330909 
L 394.409839 -160.385455 
L 394.507946 -163.44 
L 394.672791 -166.494545 
L 394.899533 -169.549091 
L 395.18206 -172.603636 
L 395.513173 -175.658182 
L 395.884816 -178.712727 
L 396.288336 -181.767273 
L 396.714763 -184.821818 
L 397.155096 -187.876364 
L 397.60059 -190.930909 
L 398.043017 -193.985455 
L 398.474903 -197.04 
L 398.889723 -200.094545 
L 399.282047 -203.149091 
L 399.647637 -206.203636 
L 399.98348 -209.258182 
L 400.287778 -212.312727 
L 400.559883 -215.367273 
L 400.800187 -218.421818 
L 401.009982 -221.476364 
L 401.191297 -224.530909 
L 401.346721 -227.585455 
L 401.479229 -230.64 
L 401.59201 -233.694545 
L 401.688322 -236.749091 
L 401.771363 -239.803636 
L 401.844175 -242.858182 
L 401.909573 -245.912727 
L 401.970106 -248.967273 
L 402.028044 -252.021818 
L 402.085381 -255.076364 
L 402.143856 -258.130909 
L 402.204987 -261.185455 
L 402.270097 -264.24 
L 402.340349 -267.294545 
L 402.41677 -270.349091 
L 402.500262 -273.403636 
L 402.591608 -276.458182 
L 402.691465 -279.512727 
L 402.800347 -282.567273 
L 402.918603 -285.621818 
L 403.046395 -288.676364 
L 403.183667 -291.730909 
L 403.330131 -294.785455 
L 403.485252 -297.84 
L 403.648243 -300.894545 
L 403.818079 -303.949091 
L 403.993509 -307.003636 
L 404.173095 -310.058182 
L 404.355251 -313.112727 
L 404.53829 -316.167273 
L 404.72048 -319.221818 
L 404.900101 -322.276364 
L 405.075496 -325.330909 
L 405.245125 -328.385455 
L 405.407605 -331.44 
L 405.56175 -334.494545 
L 405.706591 -337.549091 
L 405.841398 -340.603636 
L 405.965677 -343.658182 
L 406.079171 -346.712727 
L 406.181843 -349.767273 
L 406.273858 -352.821818 
L 406.355558 -355.876364 
L 406.427426 -358.930909 
L 406.490066 -361.985455 
L 406.544162 -365.04 
L 407.055838 -365.04 
L 407.055838 -365.04 
L 407.109934 -361.985455 
L 407.172574 -358.930909 
L 407.244442 -355.876364 
L 407.326142 -352.821818 
L 407.418157 -349.767273 
L 407.520829 -346.712727 
L 407.634323 -343.658182 
L 407.758602 -340.603636 
L 407.893409 -337.549091 
L 408.03825 -334.494545 
L 408.192395 -331.44 
L 408.354875 -328.385455 
L 408.524504 -325.330909 
L 408.699899 -322.276364 
L 408.87952 -319.221818 
L 409.06171 -316.167273 
L 409.244749 -313.112727 
L 409.426905 -310.058182 
L 409.606491 -307.003636 
L 409.781921 -303.949091 
L 409.951757 -300.894545 
L 410.114748 -297.84 
L 410.269869 -294.785455 
L 410.416333 -291.730909 
L 410.553605 -288.676364 
L 410.681397 -285.621818 
L 410.799653 -282.567273 
L 410.908535 -279.512727 
L 411.008392 -276.458182 
L 411.099738 -273.403636 
L 411.18323 -270.349091 
L 411.259651 -267.294545 
L 411.329903 -264.24 
L 411.395013 -261.185455 
L 411.456144 -258.130909 
L 411.514619 -255.076364 
L 411.571956 -252.021818 
L 411.629894 -248.967273 
L 411.690427 -245.912727 
L 411.755825 -242.858182 
L 411.828637 -239.803636 
L 411.911678 -236.749091 
L 412.00799 -233.694545 
L 412.120771 -230.64 
L 412.253279 -227.585455 
L 412.408703 -224.530909 
L 412.590018 -221.476364 
L 412.799813 -218.421818 
L 413.040117 -215.367273 
L 413.312222 -212.312727 
L 413.61652 -209.258182 
L 413.952363 -206.203636 
L 414.317953 -203.149091 
L 414.710277 -200.094545 
L 415.125097 -197.04 
L 415.556983 -193.985455 
L 415.99941 -190.930909 
L 416.444904 -187.876364 
L 416.885237 -184.821818 
L 417.311664 -181.767273 
L 417.715184 -178.712727 
L 418.086827 -175.658182 
L 418.41794 -172.603636 
L 418.700467 -169.549091 
L 418.927209 -166.494545 
L 419.092054 -163.44 
L 419.190161 -160.385455 
L 419.218109 -157.330909 
L 419.173979 -154.276364 
L 419.057391 -151.221818 
L 418.869495 -148.167273 
L 418.612895 -145.112727 
L 418.291549 -142.058182 
L 417.910613 -139.003636 
L 417.476267 -135.949091 
L 416.995512 -132.894545 
L 416.475958 -129.84 
L 415.925601 -126.785455 
L 415.352607 -123.730909 
L 414.765104 -120.676364 
L 414.170989 -117.621818 
L 413.577753 -114.567273 
L 412.992337 -111.512727 
L 412.421008 -108.458182 
L 411.869268 -105.403636 
L 411.341793 -102.349091 
L 410.842395 -99.294545 
L 410.37402 -96.24 
L 409.938764 -93.185455 
L 409.537913 -90.130909 
L 409.172003 -87.076364 
L 408.840893 -84.021818 
L 408.543852 -80.967273 
L 408.279646 -77.912727 
L 408.046636 -74.858182 
L 407.842868 -71.803636 
L 407.666168 -68.749091 
L 407.514223 -65.694545 
L 407.384655 -62.64 
z
" style="stroke: #4c4c4c; stroke-width: 1.25"/>
    </defs>
    <g clip-path="url(#p252612fcd9)">
     <use xlink:href="#m3ecfe87faf" x="0" y="432" style="fill: #5875a4; stroke: #4c4c4c; stroke-width: 1.25"/>
    </g>
   </g>
   <g id="line2d_8">
    <path d="M 183.6 302.913804 
L 183.6 302.913804 
" clip-path="url(#p252612fcd9)" style="fill: none; stroke: #4c4c4c; stroke-width: 1.875; stroke-linecap: round"/>
   </g>
   <g id="line2d_9">
    <path d="M 183.6 302.913804 
L 183.6 302.913804 
" clip-path="url(#p252612fcd9)" style="fill: none; stroke: #4c4c4c; stroke-width: 5.625; stroke-linecap: round"/>
   </g>
   <g id="line2d_10">
    <path d="M 183.6 302.913804 
" clip-path="url(#p252612fcd9)" style="fill: none; stroke: #4c4c4c; stroke-width: 1.5; stroke-linecap: round"/>
    <defs>
     <path id="m618946be3c" d="M 2.34375 0 
L -2.34375 -0 
" style="stroke: #ffffff; stroke-width: 1.125"/>
    </defs>
    <g clip-path="url(#p252612fcd9)">
     <use xlink:href="#m618946be3c" x="183.6" y="302.913804" style="fill: #ffffff; stroke: #ffffff; stroke-width: 1.125"/>
    </g>
   </g>
   <g id="line2d_11">
    <path d="M 406.8 302.913804 
L 406.8 133.406196 
" clip-path="url(#p252612fcd9)" style="fill: none; stroke: #4c4c4c; stroke-width: 1.875; stroke-linecap: round"/>
   </g>
   <g id="line2d_12">
    <path d="M 406.8 281.725353 
L 406.8 196.971549 
" clip-path="url(#p252612fcd9)" style="fill: none; stroke: #4c4c4c; stroke-width: 5.625; stroke-linecap: round"/>
   </g>
   <g id="line2d_13">
    <path d="M 406.8 260.536902 
" clip-path="url(#p252612fcd9)" style="fill: none; stroke: #4c4c4c; stroke-width: 1.5; stroke-linecap: round"/>
    <g clip-path="url(#p252612fcd9)">
     <use xlink:href="#m618946be3c" x="406.8" y="260.536902" style="fill: #ffffff; stroke: #ffffff; stroke-width: 1.125"/>
    </g>
   </g>
   <g id="patch_3">
    <path d="M 72 384.48 
L 72 51.84 
" style="fill: none; stroke: #ffffff; stroke-width: 1.25; stroke-linejoin: miter; stroke-linecap: square"/>
   </g>
   <g id="patch_4">
    <path d="M 518.4 384.48 
L 518.4 51.84 
" style="fill: none; stroke: #ffffff; stroke-width: 1.25; stroke-linejoin: miter; stroke-linecap: square"/>
   </g>
   <g id="patch_5">
    <path d="M 72 384.48 
L 518.4 384.48 
" style="fill: none; stroke: #ffffff; stroke-width: 1.25; stroke-linejoin: miter; stroke-linecap: square"/>
   </g>
   <g id="patch_6">
    <path d="M 72 51.84 
L 518.4 51.84 
" style="fill: none; stroke: #ffffff; stroke-width: 1.25; stroke-linejoin: miter; stroke-linecap: square"/>
   </g>
   <g id="text_12">
    <!-- AMRs count vs incubation before DNA isolation duration -->
    <g style="fill: #262626" transform="translate(146.127187 45.84) scale(0.12 -0.12)">
     <defs>
      <path id="ArialMT-76" d="M 1344 0 
L 81 3319 
L 675 3319 
L 1388 1331 
Q 1503 1009 1600 663 
Q 1675 925 1809 1294 
L 2547 3319 
L 3125 3319 
L 1869 0 
L 1344 0 
z
" transform="scale(0.015625)"/>
      <path id="ArialMT-64" d="M 2575 0 
L 2575 419 
Q 2259 -75 1647 -75 
Q 1250 -75 917 144 
Q 584 363 401 755 
Q 219 1147 219 1656 
Q 219 2153 384 2558 
Q 550 2963 881 3178 
Q 1213 3394 1622 3394 
Q 1922 3394 2156 3267 
Q 2391 3141 2538 2938 
L 2538 4581 
L 3097 4581 
L 3097 0 
L 2575 0 
z
M 797 1656 
Q 797 1019 1065 703 
Q 1334 388 1700 388 
Q 2069 388 2326 689 
Q 2584 991 2584 1609 
Q 2584 2291 2321 2609 
Q 2059 2928 1675 2928 
Q 1300 2928 1048 2622 
Q 797 2316 797 1656 
z
" transform="scale(0.015625)"/>
     </defs>
     <use xlink:href="#ArialMT-41"/>
     <use xlink:href="#ArialMT-4d" transform="translate(66.699219 0)"/>
     <use xlink:href="#ArialMT-52" transform="translate(150 0)"/>
     <use xlink:href="#ArialMT-73" transform="translate(222.216797 0)"/>
     <use xlink:href="#ArialMT-20" transform="translate(272.216797 0)"/>
     <use xlink:href="#ArialMT-63" transform="translate(300 0)"/>
     <use xlink:href="#ArialMT-6f" transform="translate(350 0)"/>
     <use xlink:href="#ArialMT-75" transform="translate(405.615234 0)"/>
     <use xlink:href="#ArialMT-6e" transform="translate(461.230469 0)"/>
     <use xlink:href="#ArialMT-74" transform="translate(516.845703 0)"/>
     <use xlink:href="#ArialMT-20" transform="translate(544.628906 0)"/>
     <use xlink:href="#ArialMT-76" transform="translate(572.412109 0)"/>
     <use xlink:href="#ArialMT-73" transform="translate(622.412109 0)"/>
     <use xlink:href="#ArialMT-20" transform="translate(672.412109 0)"/>
     <use xlink:href="#ArialMT-69" transform="translate(700.195312 0)"/>
     <use xlink:href="#ArialMT-6e" transform="translate(722.412109 0)"/>
     <use xlink:href="#ArialMT-63" transform="translate(778.027344 0)"/>
     <use xlink:href="#ArialMT-75" transform="translate(828.027344 0)"/>
     <use xlink:href="#ArialMT-62" transform="translate(883.642578 0)"/>
     <use xlink:href="#ArialMT-61" transform="translate(939.257812 0)"/>
     <use xlink:href="#ArialMT-74" transform="translate(994.873047 0)"/>
     <use xlink:href="#ArialMT-69" transform="translate(1022.65625 0)"/>
     <use xlink:href="#ArialMT-6f" transform="translate(1044.873047 0)"/>
     <use xlink:href="#ArialMT-6e" transform="translate(1100.488281 0)"/>
     <use xlink:href="#ArialMT-20" transform="translate(1156.103516 0)"/>
     <use xlink:href="#ArialMT-62" transform="translate(1183.886719 0)"/>
     <use xlink:href="#ArialMT-65" transform="translate(1239.501953 0)"/>
     <use xlink:href="#ArialMT-66" transform="translate(1295.117188 0)"/>
     <use xlink:href="#ArialMT-6f" transform="translate(1322.900391 0)"/>
     <use xlink:href="#ArialMT-72" transform="translate(1378.515625 0)"/>
     <use xlink:href="#ArialMT-65" transform="translate(1411.816406 0)"/>
     <use xlink:href="#ArialMT-20" transform="translate(1467.431641 0)"/>
     <use xlink:href="#ArialMT-44" transform="translate(1495.214844 0)"/>
     <use xlink:href="#ArialMT-4e" transform="translate(1567.431641 0)"/>
     <use xlink:href="#ArialMT-41" transform="translate(1639.648438 0)"/>
     <use xlink:href="#ArialMT-20" transform="translate(1700.847656 0)"/>
     <use xlink:href="#ArialMT-69" transform="translate(1728.630859 0)"/>
     <use xlink:href="#ArialMT-73" transform="translate(1750.847656 0)"/>
     <use xlink:href="#ArialMT-6f" transform="translate(1800.847656 0)"/>
     <use xlink:href="#ArialMT-6c" transform="translate(1856.462891 0)"/>
     <use xlink:href="#ArialMT-61" transform="translate(1878.679688 0)"/>
     <use xlink:href="#ArialMT-74" transform="translate(1934.294922 0)"/>
     <use xlink:href="#ArialMT-69" transform="translate(1962.078125 0)"/>
     <use xlink:href="#ArialMT-6f" transform="translate(1984.294922 0)"/>
     <use xlink:href="#ArialMT-6e" transform="translate(2039.910156 0)"/>
     <use xlink:href="#ArialMT-20" transform="translate(2095.525391 0)"/>
     <use xlink:href="#ArialMT-64" transform="translate(2123.308594 0)"/>
     <use xlink:href="#ArialMT-75" transform="translate(2178.923828 0)"/>
     <use xlink:href="#ArialMT-72" transform="translate(2234.539062 0)"/>
     <use xlink:href="#ArialMT-61" transform="translate(2267.839844 0)"/>
     <use xlink:href="#ArialMT-74" transform="translate(2323.455078 0)"/>
     <use xlink:href="#ArialMT-69" transform="translate(2351.238281 0)"/>
     <use xlink:href="#ArialMT-6f" transform="translate(2373.455078 0)"/>
     <use xlink:href="#ArialMT-6e" transform="translate(2429.070312 0)"/>
    </g>
   </g>
  </g>
 </g>
 <defs>
  <clipPath id="p252612fcd9">
   <rect x="72" y="51.84" width="446.4" height="332.64"/>
  </clipPath>
 </defs>
</svg>
