<?xml version="1.0" encoding="utf-8" standalone="no"?>
<!DOCTYPE svg PUBLIC "-//W3C//DTD SVG 1.1//EN"
  "http://www.w3.org/Graphics/SVG/1.1/DTD/svg11.dtd">
<svg xmlns:xlink="http://www.w3.org/1999/xlink" width="576pt" height="432pt" viewBox="0 0 576 432" xmlns="http://www.w3.org/2000/svg" version="1.1">
 <metadata>
  <rdf:RDF xmlns:dc="http://purl.org/dc/elements/1.1/" xmlns:cc="http://creativecommons.org/ns#" xmlns:rdf="http://www.w3.org/1999/02/22-rdf-syntax-ns#">
   <cc:Work>
    <dc:type rdf:resource="http://purl.org/dc/dcmitype/StillImage"/>
    <dc:date>2025-01-16T14:55:27.051792</dc:date>
    <dc:format>image/svg+xml</dc:format>
    <dc:creator>
     <cc:Agent>
      <dc:title>Matplotlib v3.10.0, https://matplotlib.org/</dc:title>
     </cc:Agent>
    </dc:creator>
   </cc:Work>
  </rdf:RDF>
 </metadata>
 <defs>
  <style type="text/css">*{stroke-linejoin: round; stroke-linecap: butt}</style>
 </defs>
 <g id="figure_1">
  <g id="patch_1">
   <path d="M 0 432 
L 576 432 
L 576 0 
L 0 0 
z
" style="fill: #ffffff"/>
  </g>
  <g id="axes_1">
   <g id="patch_2">
    <path d="M 72 384.48 
L 518.4 384.48 
L 518.4 51.84 
L 72 51.84 
z
" style="fill: #eaeaf2"/>
   </g>
   <g id="matplotlib.axis_1">
    <g id="xtick_1">
     <g id="text_1">
      <!-- No -->
      <g style="fill: #262626" transform="translate(176.569453 401.853594) scale(0.11 -0.11)">
       <defs>
        <path id="ArialMT-4e" d="M 488 0 
L 488 4581 
L 1109 4581 
L 3516 984 
L 3516 4581 
L 4097 4581 
L 4097 0 
L 3475 0 
L 1069 3600 
L 1069 0 
L 488 0 
z
" transform="scale(0.015625)"/>
        <path id="ArialMT-6f" d="M 213 1659 
Q 213 2581 725 3025 
Q 1153 3394 1769 3394 
Q 2453 3394 2887 2945 
Q 3322 2497 3322 1706 
Q 3322 1066 3130 698 
Q 2938 331 2570 128 
Q 2203 -75 1769 -75 
Q 1072 -75 642 372 
Q 213 819 213 1659 
z
M 791 1659 
Q 791 1022 1069 705 
Q 1347 388 1769 388 
Q 2188 388 2466 706 
Q 2744 1025 2744 1678 
Q 2744 2294 2464 2611 
Q 2184 2928 1769 2928 
Q 1347 2928 1069 2612 
Q 791 2297 791 1659 
z
" transform="scale(0.015625)"/>
       </defs>
       <use xlink:href="#ArialMT-4e"/>
       <use xlink:href="#ArialMT-6f" transform="translate(72.216797 0)"/>
      </g>
     </g>
    </g>
    <g id="xtick_2">
     <g id="text_2">
      <!-- Yes -->
      <g style="fill: #262626" transform="translate(397.824687 401.853594) scale(0.11 -0.11)">
       <defs>
        <path id="ArialMT-59" d="M 1784 0 
L 1784 1941 
L 19 4581 
L 756 4581 
L 1659 3200 
Q 1909 2813 2125 2425 
Q 2331 2784 2625 3234 
L 3513 4581 
L 4219 4581 
L 2391 1941 
L 2391 0 
L 1784 0 
z
" transform="scale(0.015625)"/>
        <path id="ArialMT-65" d="M 2694 1069 
L 3275 997 
Q 3138 488 2766 206 
Q 2394 -75 1816 -75 
Q 1088 -75 661 373 
Q 234 822 234 1631 
Q 234 2469 665 2931 
Q 1097 3394 1784 3394 
Q 2450 3394 2872 2941 
Q 3294 2488 3294 1666 
Q 3294 1616 3291 1516 
L 816 1516 
Q 847 969 1125 678 
Q 1403 388 1819 388 
Q 2128 388 2347 550 
Q 2566 713 2694 1069 
z
M 847 1978 
L 2700 1978 
Q 2663 2397 2488 2606 
Q 2219 2931 1791 2931 
Q 1403 2931 1139 2672 
Q 875 2413 847 1978 
z
" transform="scale(0.015625)"/>
        <path id="ArialMT-73" d="M 197 991 
L 753 1078 
Q 800 744 1014 566 
Q 1228 388 1613 388 
Q 2000 388 2187 545 
Q 2375 703 2375 916 
Q 2375 1106 2209 1216 
Q 2094 1291 1634 1406 
Q 1016 1563 777 1677 
Q 538 1791 414 1992 
Q 291 2194 291 2438 
Q 291 2659 392 2848 
Q 494 3038 669 3163 
Q 800 3259 1026 3326 
Q 1253 3394 1513 3394 
Q 1903 3394 2198 3281 
Q 2494 3169 2634 2976 
Q 2775 2784 2828 2463 
L 2278 2388 
Q 2241 2644 2061 2787 
Q 1881 2931 1553 2931 
Q 1166 2931 1000 2803 
Q 834 2675 834 2503 
Q 834 2394 903 2306 
Q 972 2216 1119 2156 
Q 1203 2125 1616 2013 
Q 2213 1853 2448 1751 
Q 2684 1650 2818 1456 
Q 2953 1263 2953 975 
Q 2953 694 2789 445 
Q 2625 197 2315 61 
Q 2006 -75 1616 -75 
Q 969 -75 630 194 
Q 291 463 197 991 
z
" transform="scale(0.015625)"/>
       </defs>
       <use xlink:href="#ArialMT-59"/>
       <use xlink:href="#ArialMT-65" transform="translate(57.574219 0)"/>
       <use xlink:href="#ArialMT-73" transform="translate(113.189453 0)"/>
      </g>
     </g>
    </g>
    <g id="text_3">
     <!-- Adaptive sampling during sequencing (Chicken Excluded) -->
     <g style="fill: #262626" transform="translate(141.7875 416.775469) scale(0.12 -0.12)">
      <defs>
       <path id="ArialMT-41" d="M -9 0 
L 1750 4581 
L 2403 4581 
L 4278 0 
L 3588 0 
L 3053 1388 
L 1138 1388 
L 634 0 
L -9 0 
z
M 1313 1881 
L 2866 1881 
L 2388 3150 
Q 2169 3728 2063 4100 
Q 1975 3659 1816 3225 
L 1313 1881 
z
" transform="scale(0.015625)"/>
       <path id="ArialMT-64" d="M 2575 0 
L 2575 419 
Q 2259 -75 1647 -75 
Q 1250 -75 917 144 
Q 584 363 401 755 
Q 219 1147 219 1656 
Q 219 2153 384 2558 
Q 550 2963 881 3178 
Q 1213 3394 1622 3394 
Q 1922 3394 2156 3267 
Q 2391 3141 2538 2938 
L 2538 4581 
L 3097 4581 
L 3097 0 
L 2575 0 
z
M 797 1656 
Q 797 1019 1065 703 
Q 1334 388 1700 388 
Q 2069 388 2326 689 
Q 2584 991 2584 1609 
Q 2584 2291 2321 2609 
Q 2059 2928 1675 2928 
Q 1300 2928 1048 2622 
Q 797 2316 797 1656 
z
" transform="scale(0.015625)"/>
       <path id="ArialMT-61" d="M 2588 409 
Q 2275 144 1986 34 
Q 1697 -75 1366 -75 
Q 819 -75 525 192 
Q 231 459 231 875 
Q 231 1119 342 1320 
Q 453 1522 633 1644 
Q 813 1766 1038 1828 
Q 1203 1872 1538 1913 
Q 2219 1994 2541 2106 
Q 2544 2222 2544 2253 
Q 2544 2597 2384 2738 
Q 2169 2928 1744 2928 
Q 1347 2928 1158 2789 
Q 969 2650 878 2297 
L 328 2372 
Q 403 2725 575 2942 
Q 747 3159 1072 3276 
Q 1397 3394 1825 3394 
Q 2250 3394 2515 3294 
Q 2781 3194 2906 3042 
Q 3031 2891 3081 2659 
Q 3109 2516 3109 2141 
L 3109 1391 
Q 3109 606 3145 398 
Q 3181 191 3288 0 
L 2700 0 
Q 2613 175 2588 409 
z
M 2541 1666 
Q 2234 1541 1622 1453 
Q 1275 1403 1131 1340 
Q 988 1278 909 1158 
Q 831 1038 831 891 
Q 831 666 1001 516 
Q 1172 366 1500 366 
Q 1825 366 2078 508 
Q 2331 650 2450 897 
Q 2541 1088 2541 1459 
L 2541 1666 
z
" transform="scale(0.015625)"/>
       <path id="ArialMT-70" d="M 422 -1272 
L 422 3319 
L 934 3319 
L 934 2888 
Q 1116 3141 1344 3267 
Q 1572 3394 1897 3394 
Q 2322 3394 2647 3175 
Q 2972 2956 3137 2557 
Q 3303 2159 3303 1684 
Q 3303 1175 3120 767 
Q 2938 359 2589 142 
Q 2241 -75 1856 -75 
Q 1575 -75 1351 44 
Q 1128 163 984 344 
L 984 -1272 
L 422 -1272 
z
M 931 1641 
Q 931 1000 1190 694 
Q 1450 388 1819 388 
Q 2194 388 2461 705 
Q 2728 1022 2728 1688 
Q 2728 2322 2467 2637 
Q 2206 2953 1844 2953 
Q 1484 2953 1207 2617 
Q 931 2281 931 1641 
z
" transform="scale(0.015625)"/>
       <path id="ArialMT-74" d="M 1650 503 
L 1731 6 
Q 1494 -44 1306 -44 
Q 1000 -44 831 53 
Q 663 150 594 308 
Q 525 466 525 972 
L 525 2881 
L 113 2881 
L 113 3319 
L 525 3319 
L 525 4141 
L 1084 4478 
L 1084 3319 
L 1650 3319 
L 1650 2881 
L 1084 2881 
L 1084 941 
Q 1084 700 1114 631 
Q 1144 563 1211 522 
Q 1278 481 1403 481 
Q 1497 481 1650 503 
z
" transform="scale(0.015625)"/>
       <path id="ArialMT-69" d="M 425 3934 
L 425 4581 
L 988 4581 
L 988 3934 
L 425 3934 
z
M 425 0 
L 425 3319 
L 988 3319 
L 988 0 
L 425 0 
z
" transform="scale(0.015625)"/>
       <path id="ArialMT-76" d="M 1344 0 
L 81 3319 
L 675 3319 
L 1388 1331 
Q 1503 1009 1600 663 
Q 1675 925 1809 1294 
L 2547 3319 
L 3125 3319 
L 1869 0 
L 1344 0 
z
" transform="scale(0.015625)"/>
       <path id="ArialMT-20" transform="scale(0.015625)"/>
       <path id="ArialMT-6d" d="M 422 0 
L 422 3319 
L 925 3319 
L 925 2853 
Q 1081 3097 1340 3245 
Q 1600 3394 1931 3394 
Q 2300 3394 2536 3241 
Q 2772 3088 2869 2813 
Q 3263 3394 3894 3394 
Q 4388 3394 4653 3120 
Q 4919 2847 4919 2278 
L 4919 0 
L 4359 0 
L 4359 2091 
Q 4359 2428 4304 2576 
Q 4250 2725 4106 2815 
Q 3963 2906 3769 2906 
Q 3419 2906 3187 2673 
Q 2956 2441 2956 1928 
L 2956 0 
L 2394 0 
L 2394 2156 
Q 2394 2531 2256 2718 
Q 2119 2906 1806 2906 
Q 1569 2906 1367 2781 
Q 1166 2656 1075 2415 
Q 984 2175 984 1722 
L 984 0 
L 422 0 
z
" transform="scale(0.015625)"/>
       <path id="ArialMT-6c" d="M 409 0 
L 409 4581 
L 972 4581 
L 972 0 
L 409 0 
z
" transform="scale(0.015625)"/>
       <path id="ArialMT-6e" d="M 422 0 
L 422 3319 
L 928 3319 
L 928 2847 
Q 1294 3394 1984 3394 
Q 2284 3394 2536 3286 
Q 2788 3178 2913 3003 
Q 3038 2828 3088 2588 
Q 3119 2431 3119 2041 
L 3119 0 
L 2556 0 
L 2556 2019 
Q 2556 2363 2490 2533 
Q 2425 2703 2258 2804 
Q 2091 2906 1866 2906 
Q 1506 2906 1245 2678 
Q 984 2450 984 1813 
L 984 0 
L 422 0 
z
" transform="scale(0.015625)"/>
       <path id="ArialMT-67" d="M 319 -275 
L 866 -356 
Q 900 -609 1056 -725 
Q 1266 -881 1628 -881 
Q 2019 -881 2231 -725 
Q 2444 -569 2519 -288 
Q 2563 -116 2559 434 
Q 2191 0 1641 0 
Q 956 0 581 494 
Q 206 988 206 1678 
Q 206 2153 378 2554 
Q 550 2956 876 3175 
Q 1203 3394 1644 3394 
Q 2231 3394 2613 2919 
L 2613 3319 
L 3131 3319 
L 3131 450 
Q 3131 -325 2973 -648 
Q 2816 -972 2473 -1159 
Q 2131 -1347 1631 -1347 
Q 1038 -1347 672 -1080 
Q 306 -813 319 -275 
z
M 784 1719 
Q 784 1066 1043 766 
Q 1303 466 1694 466 
Q 2081 466 2343 764 
Q 2606 1063 2606 1700 
Q 2606 2309 2336 2618 
Q 2066 2928 1684 2928 
Q 1309 2928 1046 2623 
Q 784 2319 784 1719 
z
" transform="scale(0.015625)"/>
       <path id="ArialMT-75" d="M 2597 0 
L 2597 488 
Q 2209 -75 1544 -75 
Q 1250 -75 995 37 
Q 741 150 617 320 
Q 494 491 444 738 
Q 409 903 409 1263 
L 409 3319 
L 972 3319 
L 972 1478 
Q 972 1038 1006 884 
Q 1059 663 1231 536 
Q 1403 409 1656 409 
Q 1909 409 2131 539 
Q 2353 669 2445 892 
Q 2538 1116 2538 1541 
L 2538 3319 
L 3100 3319 
L 3100 0 
L 2597 0 
z
" transform="scale(0.015625)"/>
       <path id="ArialMT-72" d="M 416 0 
L 416 3319 
L 922 3319 
L 922 2816 
Q 1116 3169 1280 3281 
Q 1444 3394 1641 3394 
Q 1925 3394 2219 3213 
L 2025 2691 
Q 1819 2813 1613 2813 
Q 1428 2813 1281 2702 
Q 1134 2591 1072 2394 
Q 978 2094 978 1738 
L 978 0 
L 416 0 
z
" transform="scale(0.015625)"/>
       <path id="ArialMT-71" d="M 2538 -1272 
L 2538 353 
Q 2406 169 2170 47 
Q 1934 -75 1669 -75 
Q 1078 -75 651 397 
Q 225 869 225 1691 
Q 225 2191 398 2587 
Q 572 2984 901 3189 
Q 1231 3394 1625 3394 
Q 2241 3394 2594 2875 
L 2594 3319 
L 3100 3319 
L 3100 -1272 
L 2538 -1272 
z
M 803 1669 
Q 803 1028 1072 708 
Q 1341 388 1716 388 
Q 2075 388 2334 692 
Q 2594 997 2594 1619 
Q 2594 2281 2320 2615 
Q 2047 2950 1678 2950 
Q 1313 2950 1058 2639 
Q 803 2328 803 1669 
z
" transform="scale(0.015625)"/>
       <path id="ArialMT-63" d="M 2588 1216 
L 3141 1144 
Q 3050 572 2676 248 
Q 2303 -75 1759 -75 
Q 1078 -75 664 370 
Q 250 816 250 1647 
Q 250 2184 428 2587 
Q 606 2991 970 3192 
Q 1334 3394 1763 3394 
Q 2303 3394 2647 3120 
Q 2991 2847 3088 2344 
L 2541 2259 
Q 2463 2594 2264 2762 
Q 2066 2931 1784 2931 
Q 1359 2931 1093 2626 
Q 828 2322 828 1663 
Q 828 994 1084 691 
Q 1341 388 1753 388 
Q 2084 388 2306 591 
Q 2528 794 2588 1216 
z
" transform="scale(0.015625)"/>
       <path id="ArialMT-28" d="M 1497 -1347 
Q 1031 -759 709 28 
Q 388 816 388 1659 
Q 388 2403 628 3084 
Q 909 3875 1497 4659 
L 1900 4659 
Q 1522 4009 1400 3731 
Q 1209 3300 1100 2831 
Q 966 2247 966 1656 
Q 966 153 1900 -1347 
L 1497 -1347 
z
" transform="scale(0.015625)"/>
       <path id="ArialMT-43" d="M 3763 1606 
L 4369 1453 
Q 4178 706 3683 314 
Q 3188 -78 2472 -78 
Q 1731 -78 1267 223 
Q 803 525 561 1097 
Q 319 1669 319 2325 
Q 319 3041 592 3573 
Q 866 4106 1370 4382 
Q 1875 4659 2481 4659 
Q 3169 4659 3637 4309 
Q 4106 3959 4291 3325 
L 3694 3184 
Q 3534 3684 3231 3912 
Q 2928 4141 2469 4141 
Q 1941 4141 1586 3887 
Q 1231 3634 1087 3207 
Q 944 2781 944 2328 
Q 944 1744 1114 1308 
Q 1284 872 1643 656 
Q 2003 441 2422 441 
Q 2931 441 3284 734 
Q 3638 1028 3763 1606 
z
" transform="scale(0.015625)"/>
       <path id="ArialMT-68" d="M 422 0 
L 422 4581 
L 984 4581 
L 984 2938 
Q 1378 3394 1978 3394 
Q 2347 3394 2619 3248 
Q 2891 3103 3008 2847 
Q 3125 2591 3125 2103 
L 3125 0 
L 2563 0 
L 2563 2103 
Q 2563 2525 2380 2717 
Q 2197 2909 1863 2909 
Q 1613 2909 1392 2779 
Q 1172 2650 1078 2428 
Q 984 2206 984 1816 
L 984 0 
L 422 0 
z
" transform="scale(0.015625)"/>
       <path id="ArialMT-6b" d="M 425 0 
L 425 4581 
L 988 4581 
L 988 1969 
L 2319 3319 
L 3047 3319 
L 1778 2088 
L 3175 0 
L 2481 0 
L 1384 1697 
L 988 1316 
L 988 0 
L 425 0 
z
" transform="scale(0.015625)"/>
       <path id="ArialMT-45" d="M 506 0 
L 506 4581 
L 3819 4581 
L 3819 4041 
L 1113 4041 
L 1113 2638 
L 3647 2638 
L 3647 2100 
L 1113 2100 
L 1113 541 
L 3925 541 
L 3925 0 
L 506 0 
z
" transform="scale(0.015625)"/>
       <path id="ArialMT-78" d="M 47 0 
L 1259 1725 
L 138 3319 
L 841 3319 
L 1350 2541 
Q 1494 2319 1581 2169 
Q 1719 2375 1834 2534 
L 2394 3319 
L 3066 3319 
L 1919 1756 
L 3153 0 
L 2463 0 
L 1781 1031 
L 1600 1309 
L 728 0 
L 47 0 
z
" transform="scale(0.015625)"/>
       <path id="ArialMT-29" d="M 791 -1347 
L 388 -1347 
Q 1322 153 1322 1656 
Q 1322 2244 1188 2822 
Q 1081 3291 891 3722 
Q 769 4003 388 4659 
L 791 4659 
Q 1378 3875 1659 3084 
Q 1900 2403 1900 1659 
Q 1900 816 1576 28 
Q 1253 -759 791 -1347 
z
" transform="scale(0.015625)"/>
      </defs>
      <use xlink:href="#ArialMT-41"/>
      <use xlink:href="#ArialMT-64" transform="translate(66.699219 0)"/>
      <use xlink:href="#ArialMT-61" transform="translate(122.314453 0)"/>
      <use xlink:href="#ArialMT-70" transform="translate(177.929688 0)"/>
      <use xlink:href="#ArialMT-74" transform="translate(233.544922 0)"/>
      <use xlink:href="#ArialMT-69" transform="translate(261.328125 0)"/>
      <use xlink:href="#ArialMT-76" transform="translate(283.544922 0)"/>
      <use xlink:href="#ArialMT-65" transform="translate(333.544922 0)"/>
      <use xlink:href="#ArialMT-20" transform="translate(389.160156 0)"/>
      <use xlink:href="#ArialMT-73" transform="translate(416.943359 0)"/>
      <use xlink:href="#ArialMT-61" transform="translate(466.943359 0)"/>
      <use xlink:href="#ArialMT-6d" transform="translate(522.558594 0)"/>
      <use xlink:href="#ArialMT-70" transform="translate(605.859375 0)"/>
      <use xlink:href="#ArialMT-6c" transform="translate(661.474609 0)"/>
      <use xlink:href="#ArialMT-69" transform="translate(683.691406 0)"/>
      <use xlink:href="#ArialMT-6e" transform="translate(705.908203 0)"/>
      <use xlink:href="#ArialMT-67" transform="translate(761.523438 0)"/>
      <use xlink:href="#ArialMT-20" transform="translate(817.138672 0)"/>
      <use xlink:href="#ArialMT-64" transform="translate(844.921875 0)"/>
      <use xlink:href="#ArialMT-75" transform="translate(900.537109 0)"/>
      <use xlink:href="#ArialMT-72" transform="translate(956.152344 0)"/>
      <use xlink:href="#ArialMT-69" transform="translate(989.453125 0)"/>
      <use xlink:href="#ArialMT-6e" transform="translate(1011.669922 0)"/>
      <use xlink:href="#ArialMT-67" transform="translate(1067.285156 0)"/>
      <use xlink:href="#ArialMT-20" transform="translate(1122.900391 0)"/>
      <use xlink:href="#ArialMT-73" transform="translate(1150.683594 0)"/>
      <use xlink:href="#ArialMT-65" transform="translate(1200.683594 0)"/>
      <use xlink:href="#ArialMT-71" transform="translate(1256.298828 0)"/>
      <use xlink:href="#ArialMT-75" transform="translate(1311.914062 0)"/>
      <use xlink:href="#ArialMT-65" transform="translate(1367.529297 0)"/>
      <use xlink:href="#ArialMT-6e" transform="translate(1423.144531 0)"/>
      <use xlink:href="#ArialMT-63" transform="translate(1478.759766 0)"/>
      <use xlink:href="#ArialMT-69" transform="translate(1528.759766 0)"/>
      <use xlink:href="#ArialMT-6e" transform="translate(1550.976562 0)"/>
      <use xlink:href="#ArialMT-67" transform="translate(1606.591797 0)"/>
      <use xlink:href="#ArialMT-20" transform="translate(1662.207031 0)"/>
      <use xlink:href="#ArialMT-28" transform="translate(1689.990234 0)"/>
      <use xlink:href="#ArialMT-43" transform="translate(1723.291016 0)"/>
      <use xlink:href="#ArialMT-68" transform="translate(1795.507812 0)"/>
      <use xlink:href="#ArialMT-69" transform="translate(1851.123047 0)"/>
      <use xlink:href="#ArialMT-63" transform="translate(1873.339844 0)"/>
      <use xlink:href="#ArialMT-6b" transform="translate(1923.339844 0)"/>
      <use xlink:href="#ArialMT-65" transform="translate(1973.339844 0)"/>
      <use xlink:href="#ArialMT-6e" transform="translate(2028.955078 0)"/>
      <use xlink:href="#ArialMT-20" transform="translate(2084.570312 0)"/>
      <use xlink:href="#ArialMT-45" transform="translate(2112.353516 0)"/>
      <use xlink:href="#ArialMT-78" transform="translate(2179.052734 0)"/>
      <use xlink:href="#ArialMT-63" transform="translate(2229.052734 0)"/>
      <use xlink:href="#ArialMT-6c" transform="translate(2279.052734 0)"/>
      <use xlink:href="#ArialMT-75" transform="translate(2301.269531 0)"/>
      <use xlink:href="#ArialMT-64" transform="translate(2356.884766 0)"/>
      <use xlink:href="#ArialMT-65" transform="translate(2412.5 0)"/>
      <use xlink:href="#ArialMT-64" transform="translate(2468.115234 0)"/>
      <use xlink:href="#ArialMT-29" transform="translate(2523.730469 0)"/>
     </g>
    </g>
   </g>
   <g id="matplotlib.axis_2">
    <g id="ytick_1">
     <g id="line2d_1">
      <path d="M 72 335.323039 
L 518.4 335.323039 
" clip-path="url(#pbc2817a700)" style="fill: none; stroke: #ffffff; stroke-linecap: round"/>
     </g>
     <g id="text_4">
      <!-- 0 -->
      <g style="fill: #262626" transform="translate(56.382969 339.259835) scale(0.11 -0.11)">
       <defs>
        <path id="ArialMT-30" d="M 266 2259 
Q 266 3072 433 3567 
Q 600 4063 929 4331 
Q 1259 4600 1759 4600 
Q 2128 4600 2406 4451 
Q 2684 4303 2865 4023 
Q 3047 3744 3150 3342 
Q 3253 2941 3253 2259 
Q 3253 1453 3087 958 
Q 2922 463 2592 192 
Q 2263 -78 1759 -78 
Q 1097 -78 719 397 
Q 266 969 266 2259 
z
M 844 2259 
Q 844 1131 1108 757 
Q 1372 384 1759 384 
Q 2147 384 2411 759 
Q 2675 1134 2675 2259 
Q 2675 3391 2411 3762 
Q 2147 4134 1753 4134 
Q 1366 4134 1134 3806 
Q 844 3388 844 2259 
z
" transform="scale(0.015625)"/>
       </defs>
       <use xlink:href="#ArialMT-30"/>
      </g>
     </g>
    </g>
    <g id="ytick_2">
     <g id="line2d_2">
      <path d="M 72 283.15087 
L 518.4 283.15087 
" clip-path="url(#pbc2817a700)" style="fill: none; stroke: #ffffff; stroke-linecap: round"/>
     </g>
     <g id="text_5">
      <!-- 50000 -->
      <g style="fill: #262626" transform="translate(31.914844 287.087667) scale(0.11 -0.11)">
       <defs>
        <path id="ArialMT-35" d="M 266 1200 
L 856 1250 
Q 922 819 1161 601 
Q 1400 384 1738 384 
Q 2144 384 2425 690 
Q 2706 997 2706 1503 
Q 2706 1984 2436 2262 
Q 2166 2541 1728 2541 
Q 1456 2541 1237 2417 
Q 1019 2294 894 2097 
L 366 2166 
L 809 4519 
L 3088 4519 
L 3088 3981 
L 1259 3981 
L 1013 2750 
Q 1425 3038 1878 3038 
Q 2478 3038 2890 2622 
Q 3303 2206 3303 1553 
Q 3303 931 2941 478 
Q 2500 -78 1738 -78 
Q 1113 -78 717 272 
Q 322 622 266 1200 
z
" transform="scale(0.015625)"/>
       </defs>
       <use xlink:href="#ArialMT-35"/>
       <use xlink:href="#ArialMT-30" transform="translate(55.615234 0)"/>
       <use xlink:href="#ArialMT-30" transform="translate(111.230469 0)"/>
       <use xlink:href="#ArialMT-30" transform="translate(166.845703 0)"/>
       <use xlink:href="#ArialMT-30" transform="translate(222.460938 0)"/>
      </g>
     </g>
    </g>
    <g id="ytick_3">
     <g id="line2d_3">
      <path d="M 72 230.978702 
L 518.4 230.978702 
" clip-path="url(#pbc2817a700)" style="fill: none; stroke: #ffffff; stroke-linecap: round"/>
     </g>
     <g id="text_6">
      <!-- 100000 -->
      <g style="fill: #262626" transform="translate(25.797812 234.915499) scale(0.11 -0.11)">
       <defs>
        <path id="ArialMT-31" d="M 2384 0 
L 1822 0 
L 1822 3584 
Q 1619 3391 1289 3197 
Q 959 3003 697 2906 
L 697 3450 
Q 1169 3672 1522 3987 
Q 1875 4303 2022 4600 
L 2384 4600 
L 2384 0 
z
" transform="scale(0.015625)"/>
       </defs>
       <use xlink:href="#ArialMT-31"/>
       <use xlink:href="#ArialMT-30" transform="translate(55.615234 0)"/>
       <use xlink:href="#ArialMT-30" transform="translate(111.230469 0)"/>
       <use xlink:href="#ArialMT-30" transform="translate(166.845703 0)"/>
       <use xlink:href="#ArialMT-30" transform="translate(222.460938 0)"/>
       <use xlink:href="#ArialMT-30" transform="translate(278.076172 0)"/>
      </g>
     </g>
    </g>
    <g id="ytick_4">
     <g id="line2d_4">
      <path d="M 72 178.806533 
L 518.4 178.806533 
" clip-path="url(#pbc2817a700)" style="fill: none; stroke: #ffffff; stroke-linecap: round"/>
     </g>
     <g id="text_7">
      <!-- 150000 -->
      <g style="fill: #262626" transform="translate(25.797812 182.74333) scale(0.11 -0.11)">
       <use xlink:href="#ArialMT-31"/>
       <use xlink:href="#ArialMT-35" transform="translate(55.615234 0)"/>
       <use xlink:href="#ArialMT-30" transform="translate(111.230469 0)"/>
       <use xlink:href="#ArialMT-30" transform="translate(166.845703 0)"/>
       <use xlink:href="#ArialMT-30" transform="translate(222.460938 0)"/>
       <use xlink:href="#ArialMT-30" transform="translate(278.076172 0)"/>
      </g>
     </g>
    </g>
    <g id="ytick_5">
     <g id="line2d_5">
      <path d="M 72 126.634365 
L 518.4 126.634365 
" clip-path="url(#pbc2817a700)" style="fill: none; stroke: #ffffff; stroke-linecap: round"/>
     </g>
     <g id="text_8">
      <!-- 200000 -->
      <g style="fill: #262626" transform="translate(25.797812 130.571162) scale(0.11 -0.11)">
       <defs>
        <path id="ArialMT-32" d="M 3222 541 
L 3222 0 
L 194 0 
Q 188 203 259 391 
Q 375 700 629 1000 
Q 884 1300 1366 1694 
Q 2113 2306 2375 2664 
Q 2638 3022 2638 3341 
Q 2638 3675 2398 3904 
Q 2159 4134 1775 4134 
Q 1369 4134 1125 3890 
Q 881 3647 878 3216 
L 300 3275 
Q 359 3922 746 4261 
Q 1134 4600 1788 4600 
Q 2447 4600 2831 4234 
Q 3216 3869 3216 3328 
Q 3216 3053 3103 2787 
Q 2991 2522 2730 2228 
Q 2469 1934 1863 1422 
Q 1356 997 1212 845 
Q 1069 694 975 541 
L 3222 541 
z
" transform="scale(0.015625)"/>
       </defs>
       <use xlink:href="#ArialMT-32"/>
       <use xlink:href="#ArialMT-30" transform="translate(55.615234 0)"/>
       <use xlink:href="#ArialMT-30" transform="translate(111.230469 0)"/>
       <use xlink:href="#ArialMT-30" transform="translate(166.845703 0)"/>
       <use xlink:href="#ArialMT-30" transform="translate(222.460938 0)"/>
       <use xlink:href="#ArialMT-30" transform="translate(278.076172 0)"/>
      </g>
     </g>
    </g>
    <g id="ytick_6">
     <g id="line2d_6">
      <path d="M 72 74.462197 
L 518.4 74.462197 
" clip-path="url(#pbc2817a700)" style="fill: none; stroke: #ffffff; stroke-linecap: round"/>
     </g>
     <g id="text_9">
      <!-- 250000 -->
      <g style="fill: #262626" transform="translate(25.797812 78.398994) scale(0.11 -0.11)">
       <use xlink:href="#ArialMT-32"/>
       <use xlink:href="#ArialMT-35" transform="translate(55.615234 0)"/>
       <use xlink:href="#ArialMT-30" transform="translate(111.230469 0)"/>
       <use xlink:href="#ArialMT-30" transform="translate(166.845703 0)"/>
       <use xlink:href="#ArialMT-30" transform="translate(222.460938 0)"/>
       <use xlink:href="#ArialMT-30" transform="translate(278.076172 0)"/>
      </g>
     </g>
    </g>
    <g id="text_10">
     <!-- Number of QC Total Reads -->
     <g style="fill: #262626" transform="translate(19.412812 290.0775) rotate(-90) scale(0.12 -0.12)">
      <defs>
       <path id="ArialMT-62" d="M 941 0 
L 419 0 
L 419 4581 
L 981 4581 
L 981 2947 
Q 1338 3394 1891 3394 
Q 2197 3394 2470 3270 
Q 2744 3147 2920 2923 
Q 3097 2700 3197 2384 
Q 3297 2069 3297 1709 
Q 3297 856 2875 390 
Q 2453 -75 1863 -75 
Q 1275 -75 941 416 
L 941 0 
z
M 934 1684 
Q 934 1088 1097 822 
Q 1363 388 1816 388 
Q 2184 388 2453 708 
Q 2722 1028 2722 1663 
Q 2722 2313 2464 2622 
Q 2206 2931 1841 2931 
Q 1472 2931 1203 2611 
Q 934 2291 934 1684 
z
" transform="scale(0.015625)"/>
       <path id="ArialMT-66" d="M 556 0 
L 556 2881 
L 59 2881 
L 59 3319 
L 556 3319 
L 556 3672 
Q 556 4006 616 4169 
Q 697 4388 901 4523 
Q 1106 4659 1475 4659 
Q 1713 4659 2000 4603 
L 1916 4113 
Q 1741 4144 1584 4144 
Q 1328 4144 1222 4034 
Q 1116 3925 1116 3625 
L 1116 3319 
L 1763 3319 
L 1763 2881 
L 1116 2881 
L 1116 0 
L 556 0 
z
" transform="scale(0.015625)"/>
       <path id="ArialMT-51" d="M 3966 491 
Q 4388 200 4744 66 
L 4566 -356 
Q 4072 -178 3581 206 
Q 3072 -78 2456 -78 
Q 1834 -78 1328 222 
Q 822 522 548 1065 
Q 275 1609 275 2291 
Q 275 2969 550 3525 
Q 825 4081 1333 4372 
Q 1841 4663 2469 4663 
Q 3103 4663 3612 4361 
Q 4122 4059 4389 3517 
Q 4656 2975 4656 2294 
Q 4656 1728 4484 1276 
Q 4313 825 3966 491 
z
M 2631 1266 
Q 3156 1119 3497 828 
Q 4031 1316 4031 2294 
Q 4031 2850 3842 3265 
Q 3653 3681 3289 3911 
Q 2925 4141 2472 4141 
Q 1794 4141 1347 3677 
Q 900 3213 900 2291 
Q 900 1397 1342 919 
Q 1784 441 2472 441 
Q 2797 441 3084 563 
Q 2800 747 2484 825 
L 2631 1266 
z
" transform="scale(0.015625)"/>
       <path id="ArialMT-54" d="M 1659 0 
L 1659 4041 
L 150 4041 
L 150 4581 
L 3781 4581 
L 3781 4041 
L 2266 4041 
L 2266 0 
L 1659 0 
z
" transform="scale(0.015625)"/>
       <path id="ArialMT-52" d="M 503 0 
L 503 4581 
L 2534 4581 
Q 3147 4581 3465 4457 
Q 3784 4334 3975 4021 
Q 4166 3709 4166 3331 
Q 4166 2844 3850 2509 
Q 3534 2175 2875 2084 
Q 3116 1969 3241 1856 
Q 3506 1613 3744 1247 
L 4541 0 
L 3778 0 
L 3172 953 
Q 2906 1366 2734 1584 
Q 2563 1803 2427 1890 
Q 2291 1978 2150 2013 
Q 2047 2034 1813 2034 
L 1109 2034 
L 1109 0 
L 503 0 
z
M 1109 2559 
L 2413 2559 
Q 2828 2559 3062 2645 
Q 3297 2731 3419 2920 
Q 3541 3109 3541 3331 
Q 3541 3656 3305 3865 
Q 3069 4075 2559 4075 
L 1109 4075 
L 1109 2559 
z
" transform="scale(0.015625)"/>
      </defs>
      <use xlink:href="#ArialMT-4e"/>
      <use xlink:href="#ArialMT-75" transform="translate(72.216797 0)"/>
      <use xlink:href="#ArialMT-6d" transform="translate(127.832031 0)"/>
      <use xlink:href="#ArialMT-62" transform="translate(211.132812 0)"/>
      <use xlink:href="#ArialMT-65" transform="translate(266.748047 0)"/>
      <use xlink:href="#ArialMT-72" transform="translate(322.363281 0)"/>
      <use xlink:href="#ArialMT-20" transform="translate(355.664062 0)"/>
      <use xlink:href="#ArialMT-6f" transform="translate(383.447266 0)"/>
      <use xlink:href="#ArialMT-66" transform="translate(439.0625 0)"/>
      <use xlink:href="#ArialMT-20" transform="translate(466.845703 0)"/>
      <use xlink:href="#ArialMT-51" transform="translate(494.628906 0)"/>
      <use xlink:href="#ArialMT-43" transform="translate(572.412109 0)"/>
      <use xlink:href="#ArialMT-20" transform="translate(644.628906 0)"/>
      <use xlink:href="#ArialMT-54" transform="translate(670.662109 0)"/>
      <use xlink:href="#ArialMT-6f" transform="translate(720.621094 0)"/>
      <use xlink:href="#ArialMT-74" transform="translate(776.236328 0)"/>
      <use xlink:href="#ArialMT-61" transform="translate(804.019531 0)"/>
      <use xlink:href="#ArialMT-6c" transform="translate(859.634766 0)"/>
      <use xlink:href="#ArialMT-20" transform="translate(881.851562 0)"/>
      <use xlink:href="#ArialMT-52" transform="translate(909.634766 0)"/>
      <use xlink:href="#ArialMT-65" transform="translate(981.851562 0)"/>
      <use xlink:href="#ArialMT-61" transform="translate(1037.466797 0)"/>
      <use xlink:href="#ArialMT-64" transform="translate(1093.082031 0)"/>
      <use xlink:href="#ArialMT-73" transform="translate(1148.697266 0)"/>
     </g>
    </g>
   </g>
   <g id="FillBetweenPolyCollection_1">
    <defs>
     <path id="m8aea1e6712" d="M 183.996541 -62.64 
L 183.203459 -62.64 
L 183.072823 -65.694545 
L 182.910094 -68.749091 
L 182.711131 -71.803636 
L 182.472399 -74.858182 
L 182.191329 -77.912727 
L 181.866678 -80.967273 
L 181.498847 -84.021818 
L 181.090104 -87.076364 
L 180.644679 -90.130909 
L 180.168691 -93.185455 
L 179.669893 -96.24 
L 179.157239 -99.294545 
L 178.640294 -102.349091 
L 178.128558 -105.403636 
L 177.630753 -108.458182 
L 177.154177 -111.512727 
L 176.704194 -114.567273 
L 176.283942 -117.621818 
L 175.894293 -120.676364 
L 175.534089 -123.730909 
L 175.200623 -126.785455 
L 174.890301 -129.84 
L 174.599409 -132.894545 
L 174.324864 -135.949091 
L 174.064863 -139.003636 
L 173.819329 -142.058182 
L 173.590105 -145.112727 
L 173.380867 -148.167273 
L 173.196782 -151.221818 
L 173.043967 -154.276364 
L 172.92881 -157.330909 
L 172.857284 -160.385455 
L 172.8343 -163.44 
L 172.863217 -166.494545 
L 172.945531 -169.549091 
L 173.080774 -172.603636 
L 173.266615 -175.658182 
L 173.499124 -178.712727 
L 173.773142 -181.767273 
L 174.082708 -184.821818 
L 174.42147 -187.876364 
L 174.783047 -190.930909 
L 175.161305 -193.985455 
L 175.550537 -197.04 
L 175.945546 -200.094545 
L 176.341657 -203.149091 
L 176.734677 -206.203636 
L 177.120839 -209.258182 
L 177.496746 -212.312727 
L 177.859338 -215.367273 
L 178.205898 -218.421818 
L 178.534087 -221.476364 
L 178.84202 -224.530909 
L 179.128345 -227.585455 
L 179.392331 -230.64 
L 179.633941 -233.694545 
L 179.853863 -236.749091 
L 180.053508 -239.803636 
L 180.234941 -242.858182 
L 180.400772 -245.912727 
L 180.553981 -248.967273 
L 180.697722 -252.021818 
L 180.835085 -255.076364 
L 180.968873 -258.130909 
L 181.101388 -261.185455 
L 181.234265 -264.24 
L 181.368363 -267.294545 
L 181.503732 -270.349091 
L 181.639652 -273.403636 
L 181.774755 -276.458182 
L 181.907201 -279.512727 
L 182.034907 -282.567273 
L 182.155787 -285.621818 
L 182.267989 -288.676364 
L 182.3701 -291.730909 
L 182.461297 -294.785455 
L 182.541425 -297.84 
L 182.611009 -300.894545 
L 182.671182 -303.949091 
L 182.72356 -307.003636 
L 182.770069 -310.058182 
L 182.812746 -313.112727 
L 182.853548 -316.167273 
L 182.894178 -319.221818 
L 182.935947 -322.276364 
L 182.979699 -325.330909 
L 183.025776 -328.385455 
L 183.074051 -331.44 
L 183.123992 -334.494545 
L 183.174769 -337.549091 
L 183.225373 -340.603636 
L 183.274731 -343.658182 
L 183.321823 -346.712727 
L 183.365763 -349.767273 
L 183.405865 -352.821818 
L 183.441671 -355.876364 
L 183.472961 -358.930909 
L 183.499729 -361.985455 
L 183.522157 -365.04 
L 183.677843 -365.04 
L 183.677843 -365.04 
L 183.700271 -361.985455 
L 183.727039 -358.930909 
L 183.758329 -355.876364 
L 183.794135 -352.821818 
L 183.834237 -349.767273 
L 183.878177 -346.712727 
L 183.925269 -343.658182 
L 183.974627 -340.603636 
L 184.025231 -337.549091 
L 184.076008 -334.494545 
L 184.125949 -331.44 
L 184.174224 -328.385455 
L 184.220301 -325.330909 
L 184.264053 -322.276364 
L 184.305822 -319.221818 
L 184.346452 -316.167273 
L 184.387254 -313.112727 
L 184.429931 -310.058182 
L 184.47644 -307.003636 
L 184.528818 -303.949091 
L 184.588991 -300.894545 
L 184.658575 -297.84 
L 184.738703 -294.785455 
L 184.8299 -291.730909 
L 184.932011 -288.676364 
L 185.044213 -285.621818 
L 185.165093 -282.567273 
L 185.292799 -279.512727 
L 185.425245 -276.458182 
L 185.560348 -273.403636 
L 185.696268 -270.349091 
L 185.831637 -267.294545 
L 185.965735 -264.24 
L 186.098612 -261.185455 
L 186.231127 -258.130909 
L 186.364915 -255.076364 
L 186.502278 -252.021818 
L 186.646019 -248.967273 
L 186.799228 -245.912727 
L 186.965059 -242.858182 
L 187.146492 -239.803636 
L 187.346137 -236.749091 
L 187.566059 -233.694545 
L 187.807669 -230.64 
L 188.071655 -227.585455 
L 188.35798 -224.530909 
L 188.665913 -221.476364 
L 188.994102 -218.421818 
L 189.340662 -215.367273 
L 189.703254 -212.312727 
L 190.079161 -209.258182 
L 190.465323 -206.203636 
L 190.858343 -203.149091 
L 191.254454 -200.094545 
L 191.649463 -197.04 
L 192.038695 -193.985455 
L 192.416953 -190.930909 
L 192.77853 -187.876364 
L 193.117292 -184.821818 
L 193.426858 -181.767273 
L 193.700876 -178.712727 
L 193.933385 -175.658182 
L 194.119226 -172.603636 
L 194.254469 -169.549091 
L 194.336783 -166.494545 
L 194.3657 -163.44 
L 194.342716 -160.385455 
L 194.27119 -157.330909 
L 194.156033 -154.276364 
L 194.003218 -151.221818 
L 193.819133 -148.167273 
L 193.609895 -145.112727 
L 193.380671 -142.058182 
L 193.135137 -139.003636 
L 192.875136 -135.949091 
L 192.600591 -132.894545 
L 192.309699 -129.84 
L 191.999377 -126.785455 
L 191.665911 -123.730909 
L 191.305707 -120.676364 
L 190.916058 -117.621818 
L 190.495806 -114.567273 
L 190.045823 -111.512727 
L 189.569247 -108.458182 
L 189.071442 -105.403636 
L 188.559706 -102.349091 
L 188.042761 -99.294545 
L 187.530107 -96.24 
L 187.031309 -93.185455 
L 186.555321 -90.130909 
L 186.109896 -87.076364 
L 185.701153 -84.021818 
L 185.333322 -80.967273 
L 185.008671 -77.912727 
L 184.727601 -74.858182 
L 184.488869 -71.803636 
L 184.289906 -68.749091 
L 184.127177 -65.694545 
L 183.996541 -62.64 
z
" style="stroke: #4c4c4c; stroke-width: 1.25"/>
    </defs>
    <g clip-path="url(#pbc2817a700)">
     <use xlink:href="#m8aea1e6712" x="0" y="432" style="fill: #5875a4; stroke: #4c4c4c; stroke-width: 1.25"/>
    </g>
   </g>
   <g id="FillBetweenPolyCollection_2">
    <defs>
     <path id="mafc457ee68" d="M 414.449454 -91.532597 
L 399.150546 -91.532597 
L 397.766709 -91.915028 
L 396.194756 -92.297459 
L 394.421844 -92.67989 
L 392.436733 -93.062321 
L 390.23033 -93.444752 
L 387.796257 -93.827183 
L 385.131422 -94.209615 
L 382.236576 -94.592046 
L 379.116827 -94.974477 
L 375.782095 -95.356908 
L 372.24747 -95.739339 
L 368.533465 -96.12177 
L 364.666126 -96.504201 
L 360.676992 -96.886632 
L 356.602876 -97.269063 
L 352.485475 -97.651494 
L 348.370792 -98.033925 
L 344.308381 -98.416356 
L 340.350425 -98.798787 
L 336.550671 -99.181219 
L 332.963243 -99.56365 
L 329.641383 -99.946081 
L 326.63613 -100.328512 
L 323.995019 -100.710943 
L 321.760816 -101.093374 
L 319.970346 -101.475805 
L 318.653458 -101.858236 
L 317.832167 -102.240667 
L 317.52 -102.623098 
L 317.721581 -103.005529 
L 318.432462 -103.38796 
L 319.639207 -103.770391 
L 321.319742 -104.152822 
L 323.443924 -104.535254 
L 325.974345 -104.917685 
L 328.867307 -105.300116 
L 332.073954 -105.682547 
L 335.541502 -106.064978 
L 339.214539 -106.447409 
L 343.036337 -106.82984 
L 346.950138 -107.212271 
L 350.900378 -107.594702 
L 354.833813 -107.977133 
L 358.700512 -108.359564 
L 362.454707 -108.741995 
L 366.055479 -109.124426 
L 369.467277 -109.506858 
L 372.660267 -109.889289 
L 375.610522 -110.27172 
L 378.300061 -110.654151 
L 380.716749 -111.036582 
L 382.854092 -111.419013 
L 384.71092 -111.801444 
L 386.290999 -112.183875 
L 387.602587 -112.566306 
L 388.657937 -112.948737 
L 389.472786 -113.331168 
L 390.065816 -113.713599 
L 390.458123 -114.09603 
L 390.67268 -114.478462 
L 390.73382 -114.860893 
L 390.666725 -115.243324 
L 390.496942 -115.625755 
L 390.249913 -116.008186 
L 389.950541 -116.390617 
L 389.622769 -116.773048 
L 389.289207 -117.155479 
L 388.970786 -117.53791 
L 388.686448 -117.920341 
L 388.452896 -118.302772 
L 388.284378 -118.685203 
L 388.192535 -119.067634 
L 388.186303 -119.450066 
L 388.271882 -119.832497 
L 388.452752 -120.214928 
L 388.72977 -120.597359 
L 389.101307 -120.97979 
L 389.563449 -121.362221 
L 390.110246 -121.744652 
L 390.733992 -122.127083 
L 391.425544 -122.509514 
L 392.174653 -122.891945 
L 392.97031 -123.274376 
L 393.801084 -123.656807 
L 394.65545 -124.039238 
L 395.522093 -124.421669 
L 396.390183 -124.804101 
L 397.24961 -125.186532 
L 398.091179 -125.568963 
L 398.906756 -125.951394 
L 399.689376 -126.333825 
L 400.4333 -126.716256 
L 401.134027 -127.098687 
L 401.788276 -127.481118 
L 402.393927 -127.863549 
L 402.949939 -128.24598 
L 403.456245 -128.628411 
L 403.91363 -129.010842 
L 404.323605 -129.393273 
L 409.276395 -129.393273 
L 409.276395 -129.393273 
L 409.68637 -129.010842 
L 410.143755 -128.628411 
L 410.650061 -128.24598 
L 411.206073 -127.863549 
L 411.811724 -127.481118 
L 412.465973 -127.098687 
L 413.1667 -126.716256 
L 413.910624 -126.333825 
L 414.693244 -125.951394 
L 415.508821 -125.568963 
L 416.35039 -125.186532 
L 417.209817 -124.804101 
L 418.077907 -124.421669 
L 418.94455 -124.039238 
L 419.798916 -123.656807 
L 420.62969 -123.274376 
L 421.425347 -122.891945 
L 422.174456 -122.509514 
L 422.866008 -122.127083 
L 423.489754 -121.744652 
L 424.036551 -121.362221 
L 424.498693 -120.97979 
L 424.87023 -120.597359 
L 425.147248 -120.214928 
L 425.328118 -119.832497 
L 425.413697 -119.450066 
L 425.407465 -119.067634 
L 425.315622 -118.685203 
L 425.147104 -118.302772 
L 424.913552 -117.920341 
L 424.629214 -117.53791 
L 424.310793 -117.155479 
L 423.977231 -116.773048 
L 423.649459 -116.390617 
L 423.350087 -116.008186 
L 423.103058 -115.625755 
L 422.933275 -115.243324 
L 422.86618 -114.860893 
L 422.92732 -114.478462 
L 423.141877 -114.09603 
L 423.534184 -113.713599 
L 424.127214 -113.331168 
L 424.942063 -112.948737 
L 425.997413 -112.566306 
L 427.309001 -112.183875 
L 428.88908 -111.801444 
L 430.745908 -111.419013 
L 432.883251 -111.036582 
L 435.299939 -110.654151 
L 437.989478 -110.27172 
L 440.939733 -109.889289 
L 444.132723 -109.506858 
L 447.544521 -109.124426 
L 451.145293 -108.741995 
L 454.899488 -108.359564 
L 458.766187 -107.977133 
L 462.699622 -107.594702 
L 466.649862 -107.212271 
L 470.563663 -106.82984 
L 474.385461 -106.447409 
L 478.058498 -106.064978 
L 481.526046 -105.682547 
L 484.732693 -105.300116 
L 487.625655 -104.917685 
L 490.156076 -104.535254 
L 492.280258 -104.152822 
L 493.960793 -103.770391 
L 495.167538 -103.38796 
L 495.878419 -103.005529 
L 496.08 -102.623098 
L 495.767833 -102.240667 
L 494.946542 -101.858236 
L 493.629654 -101.475805 
L 491.839184 -101.093374 
L 489.604981 -100.710943 
L 486.96387 -100.328512 
L 483.958617 -99.946081 
L 480.636757 -99.56365 
L 477.049329 -99.181219 
L 473.249575 -98.798787 
L 469.291619 -98.416356 
L 465.229208 -98.033925 
L 461.114525 -97.651494 
L 456.997124 -97.269063 
L 452.923008 -96.886632 
L 448.933874 -96.504201 
L 445.066535 -96.12177 
L 441.35253 -95.739339 
L 437.817905 -95.356908 
L 434.483173 -94.974477 
L 431.363424 -94.592046 
L 428.468578 -94.209615 
L 425.803743 -93.827183 
L 423.36967 -93.444752 
L 421.163267 -93.062321 
L 419.178156 -92.67989 
L 417.405244 -92.297459 
L 415.833291 -91.915028 
L 414.449454 -91.532597 
z
" style="stroke: #4c4c4c; stroke-width: 1.25"/>
    </defs>
    <g clip-path="url(#pbc2817a700)">
     <use xlink:href="#mafc457ee68" x="0" y="432" style="fill: #5875a4; stroke: #4c4c4c; stroke-width: 1.25"/>
    </g>
   </g>
   <g id="line2d_7">
    <path d="M 183.6 322.428165 
L 183.6 157.991925 
" clip-path="url(#pbc2817a700)" style="fill: none; stroke: #4c4c4c; stroke-width: 1.875; stroke-linecap: round"/>
   </g>
   <g id="line2d_8">
    <path d="M 183.6 288.553037 
L 183.6 227.86298 
" clip-path="url(#pbc2817a700)" style="fill: none; stroke: #4c4c4c; stroke-width: 5.625; stroke-linecap: round"/>
   </g>
   <g id="line2d_9">
    <path d="M 183.6 265.925707 
" clip-path="url(#pbc2817a700)" style="fill: none; stroke: #4c4c4c; stroke-width: 1.5; stroke-linecap: round"/>
    <defs>
     <path id="md4ec836f52" d="M 2.34375 0 
L -2.34375 -0 
" style="stroke: #ffffff; stroke-width: 1.125"/>
    </defs>
    <g clip-path="url(#pbc2817a700)">
     <use xlink:href="#md4ec836f52" x="183.6" y="265.925707" style="fill: #ffffff; stroke: #ffffff; stroke-width: 1.125"/>
    </g>
   </g>
   <g id="line2d_10">
    <path d="M 406.8 330.676585 
L 406.8 328.041891 
" clip-path="url(#pbc2817a700)" style="fill: none; stroke: #4c4c4c; stroke-width: 1.875; stroke-linecap: round"/>
   </g>
   <g id="line2d_11">
    <path d="M 406.8 330.182515 
L 406.8 328.088585 
" clip-path="url(#pbc2817a700)" style="fill: none; stroke: #4c4c4c; stroke-width: 5.625; stroke-linecap: round"/>
   </g>
   <g id="line2d_12">
    <path d="M 406.8 328.768127 
" clip-path="url(#pbc2817a700)" style="fill: none; stroke: #4c4c4c; stroke-width: 1.5; stroke-linecap: round"/>
    <g clip-path="url(#pbc2817a700)">
     <use xlink:href="#md4ec836f52" x="406.8" y="328.768127" style="fill: #ffffff; stroke: #ffffff; stroke-width: 1.125"/>
    </g>
   </g>
   <g id="patch_3">
    <path d="M 72 384.48 
L 72 51.84 
" style="fill: none; stroke: #ffffff; stroke-width: 1.25; stroke-linejoin: miter; stroke-linecap: square"/>
   </g>
   <g id="patch_4">
    <path d="M 518.4 384.48 
L 518.4 51.84 
" style="fill: none; stroke: #ffffff; stroke-width: 1.25; stroke-linejoin: miter; stroke-linecap: square"/>
   </g>
   <g id="patch_5">
    <path d="M 72 384.48 
L 518.4 384.48 
" style="fill: none; stroke: #ffffff; stroke-width: 1.25; stroke-linejoin: miter; stroke-linecap: square"/>
   </g>
   <g id="patch_6">
    <path d="M 72 51.84 
L 518.4 51.84 
" style="fill: none; stroke: #ffffff; stroke-width: 1.25; stroke-linejoin: miter; stroke-linecap: square"/>
   </g>
   <g id="text_11">
    <!-- Number of QC Total Reads vs Adaptive sampling during sequencing (Host Excluded) -->
    <g style="fill: #262626" transform="translate(70.205625 45.84) scale(0.12 -0.12)">
     <defs>
      <path id="ArialMT-48" d="M 513 0 
L 513 4581 
L 1119 4581 
L 1119 2700 
L 3500 2700 
L 3500 4581 
L 4106 4581 
L 4106 0 
L 3500 0 
L 3500 2159 
L 1119 2159 
L 1119 0 
L 513 0 
z
" transform="scale(0.015625)"/>
     </defs>
     <use xlink:href="#ArialMT-4e"/>
     <use xlink:href="#ArialMT-75" transform="translate(72.216797 0)"/>
     <use xlink:href="#ArialMT-6d" transform="translate(127.832031 0)"/>
     <use xlink:href="#ArialMT-62" transform="translate(211.132812 0)"/>
     <use xlink:href="#ArialMT-65" transform="translate(266.748047 0)"/>
     <use xlink:href="#ArialMT-72" transform="translate(322.363281 0)"/>
     <use xlink:href="#ArialMT-20" transform="translate(355.664062 0)"/>
     <use xlink:href="#ArialMT-6f" transform="translate(383.447266 0)"/>
     <use xlink:href="#ArialMT-66" transform="translate(439.0625 0)"/>
     <use xlink:href="#ArialMT-20" transform="translate(466.845703 0)"/>
     <use xlink:href="#ArialMT-51" transform="translate(494.628906 0)"/>
     <use xlink:href="#ArialMT-43" transform="translate(572.412109 0)"/>
     <use xlink:href="#ArialMT-20" transform="translate(644.628906 0)"/>
     <use xlink:href="#ArialMT-54" transform="translate(670.662109 0)"/>
     <use xlink:href="#ArialMT-6f" transform="translate(720.621094 0)"/>
     <use xlink:href="#ArialMT-74" transform="translate(776.236328 0)"/>
     <use xlink:href="#ArialMT-61" transform="translate(804.019531 0)"/>
     <use xlink:href="#ArialMT-6c" transform="translate(859.634766 0)"/>
     <use xlink:href="#ArialMT-20" transform="translate(881.851562 0)"/>
     <use xlink:href="#ArialMT-52" transform="translate(909.634766 0)"/>
     <use xlink:href="#ArialMT-65" transform="translate(981.851562 0)"/>
     <use xlink:href="#ArialMT-61" transform="translate(1037.466797 0)"/>
     <use xlink:href="#ArialMT-64" transform="translate(1093.082031 0)"/>
     <use xlink:href="#ArialMT-73" transform="translate(1148.697266 0)"/>
     <use xlink:href="#ArialMT-20" transform="translate(1198.697266 0)"/>
     <use xlink:href="#ArialMT-76" transform="translate(1226.480469 0)"/>
     <use xlink:href="#ArialMT-73" transform="translate(1276.480469 0)"/>
     <use xlink:href="#ArialMT-20" transform="translate(1326.480469 0)"/>
     <use xlink:href="#ArialMT-41" transform="translate(1348.763672 0)"/>
     <use xlink:href="#ArialMT-64" transform="translate(1415.462891 0)"/>
     <use xlink:href="#ArialMT-61" transform="translate(1471.078125 0)"/>
     <use xlink:href="#ArialMT-70" transform="translate(1526.693359 0)"/>
     <use xlink:href="#ArialMT-74" transform="translate(1582.308594 0)"/>
     <use xlink:href="#ArialMT-69" transform="translate(1610.091797 0)"/>
     <use xlink:href="#ArialMT-76" transform="translate(1632.308594 0)"/>
     <use xlink:href="#ArialMT-65" transform="translate(1682.308594 0)"/>
     <use xlink:href="#ArialMT-20" transform="translate(1737.923828 0)"/>
     <use xlink:href="#ArialMT-73" transform="translate(1765.707031 0)"/>
     <use xlink:href="#ArialMT-61" transform="translate(1815.707031 0)"/>
     <use xlink:href="#ArialMT-6d" transform="translate(1871.322266 0)"/>
     <use xlink:href="#ArialMT-70" transform="translate(1954.623047 0)"/>
     <use xlink:href="#ArialMT-6c" transform="translate(2010.238281 0)"/>
     <use xlink:href="#ArialMT-69" transform="translate(2032.455078 0)"/>
     <use xlink:href="#ArialMT-6e" transform="translate(2054.671875 0)"/>
     <use xlink:href="#ArialMT-67" transform="translate(2110.287109 0)"/>
     <use xlink:href="#ArialMT-20" transform="translate(2165.902344 0)"/>
     <use xlink:href="#ArialMT-64" transform="translate(2193.685547 0)"/>
     <use xlink:href="#ArialMT-75" transform="translate(2249.300781 0)"/>
     <use xlink:href="#ArialMT-72" transform="translate(2304.916016 0)"/>
     <use xlink:href="#ArialMT-69" transform="translate(2338.216797 0)"/>
     <use xlink:href="#ArialMT-6e" transform="translate(2360.433594 0)"/>
     <use xlink:href="#ArialMT-67" transform="translate(2416.048828 0)"/>
     <use xlink:href="#ArialMT-20" transform="translate(2471.664062 0)"/>
     <use xlink:href="#ArialMT-73" transform="translate(2499.447266 0)"/>
     <use xlink:href="#ArialMT-65" transform="translate(2549.447266 0)"/>
     <use xlink:href="#ArialMT-71" transform="translate(2605.0625 0)"/>
     <use xlink:href="#ArialMT-75" transform="translate(2660.677734 0)"/>
     <use xlink:href="#ArialMT-65" transform="translate(2716.292969 0)"/>
     <use xlink:href="#ArialMT-6e" transform="translate(2771.908203 0)"/>
     <use xlink:href="#ArialMT-63" transform="translate(2827.523438 0)"/>
     <use xlink:href="#ArialMT-69" transform="translate(2877.523438 0)"/>
     <use xlink:href="#ArialMT-6e" transform="translate(2899.740234 0)"/>
     <use xlink:href="#ArialMT-67" transform="translate(2955.355469 0)"/>
     <use xlink:href="#ArialMT-20" transform="translate(3010.970703 0)"/>
     <use xlink:href="#ArialMT-28" transform="translate(3038.753906 0)"/>
     <use xlink:href="#ArialMT-48" transform="translate(3072.054688 0)"/>
     <use xlink:href="#ArialMT-6f" transform="translate(3144.271484 0)"/>
     <use xlink:href="#ArialMT-73" transform="translate(3199.886719 0)"/>
     <use xlink:href="#ArialMT-74" transform="translate(3249.886719 0)"/>
     <use xlink:href="#ArialMT-20" transform="translate(3277.669922 0)"/>
     <use xlink:href="#ArialMT-45" transform="translate(3305.453125 0)"/>
     <use xlink:href="#ArialMT-78" transform="translate(3372.152344 0)"/>
     <use xlink:href="#ArialMT-63" transform="translate(3422.152344 0)"/>
     <use xlink:href="#ArialMT-6c" transform="translate(3472.152344 0)"/>
     <use xlink:href="#ArialMT-75" transform="translate(3494.369141 0)"/>
     <use xlink:href="#ArialMT-64" transform="translate(3549.984375 0)"/>
     <use xlink:href="#ArialMT-65" transform="translate(3605.599609 0)"/>
     <use xlink:href="#ArialMT-64" transform="translate(3661.214844 0)"/>
     <use xlink:href="#ArialMT-29" transform="translate(3716.830078 0)"/>
    </g>
   </g>
  </g>
 </g>
 <defs>
  <clipPath id="pbc2817a700">
   <rect x="72" y="51.84" width="446.4" height="332.64"/>
  </clipPath>
 </defs>
</svg>
