<?xml version="1.0" encoding="utf-8" standalone="no"?>
<!DOCTYPE svg PUBLIC "-//W3C//DTD SVG 1.1//EN"
  "http://www.w3.org/Graphics/SVG/1.1/DTD/svg11.dtd">
<svg xmlns:xlink="http://www.w3.org/1999/xlink" width="576pt" height="432pt" viewBox="0 0 576 432" xmlns="http://www.w3.org/2000/svg" version="1.1">
 <metadata>
  <rdf:RDF xmlns:dc="http://purl.org/dc/elements/1.1/" xmlns:cc="http://creativecommons.org/ns#" xmlns:rdf="http://www.w3.org/1999/02/22-rdf-syntax-ns#">
   <cc:Work>
    <dc:type rdf:resource="http://purl.org/dc/dcmitype/StillImage"/>
    <dc:date>2025-01-16T14:55:26.532136</dc:date>
    <dc:format>image/svg+xml</dc:format>
    <dc:creator>
     <cc:Agent>
      <dc:title>Matplotlib v3.10.0, https://matplotlib.org/</dc:title>
     </cc:Agent>
    </dc:creator>
   </cc:Work>
  </rdf:RDF>
 </metadata>
 <defs>
  <style type="text/css">*{stroke-linejoin: round; stroke-linecap: butt}</style>
 </defs>
 <g id="figure_1">
  <g id="patch_1">
   <path d="M 0 432 
L 576 432 
L 576 0 
L 0 0 
z
" style="fill: #ffffff"/>
  </g>
  <g id="axes_1">
   <g id="patch_2">
    <path d="M 72 384.48 
L 518.4 384.48 
L 518.4 51.84 
L 72 51.84 
z
" style="fill: #eaeaf2"/>
   </g>
   <g id="matplotlib.axis_1">
    <g id="xtick_1">
     <g id="text_1">
      <!-- 1 hour -->
      <g style="fill: #262626" transform="translate(168.006641 401.853594) scale(0.11 -0.11)">
       <defs>
        <path id="ArialMT-31" d="M 2384 0 
L 1822 0 
L 1822 3584 
Q 1619 3391 1289 3197 
Q 959 3003 697 2906 
L 697 3450 
Q 1169 3672 1522 3987 
Q 1875 4303 2022 4600 
L 2384 4600 
L 2384 0 
z
" transform="scale(0.015625)"/>
        <path id="ArialMT-20" transform="scale(0.015625)"/>
        <path id="ArialMT-68" d="M 422 0 
L 422 4581 
L 984 4581 
L 984 2938 
Q 1378 3394 1978 3394 
Q 2347 3394 2619 3248 
Q 2891 3103 3008 2847 
Q 3125 2591 3125 2103 
L 3125 0 
L 2563 0 
L 2563 2103 
Q 2563 2525 2380 2717 
Q 2197 2909 1863 2909 
Q 1613 2909 1392 2779 
Q 1172 2650 1078 2428 
Q 984 2206 984 1816 
L 984 0 
L 422 0 
z
" transform="scale(0.015625)"/>
        <path id="ArialMT-6f" d="M 213 1659 
Q 213 2581 725 3025 
Q 1153 3394 1769 3394 
Q 2453 3394 2887 2945 
Q 3322 2497 3322 1706 
Q 3322 1066 3130 698 
Q 2938 331 2570 128 
Q 2203 -75 1769 -75 
Q 1072 -75 642 372 
Q 213 819 213 1659 
z
M 791 1659 
Q 791 1022 1069 705 
Q 1347 388 1769 388 
Q 2188 388 2466 706 
Q 2744 1025 2744 1678 
Q 2744 2294 2464 2611 
Q 2184 2928 1769 2928 
Q 1347 2928 1069 2612 
Q 791 2297 791 1659 
z
" transform="scale(0.015625)"/>
        <path id="ArialMT-75" d="M 2597 0 
L 2597 488 
Q 2209 -75 1544 -75 
Q 1250 -75 995 37 
Q 741 150 617 320 
Q 494 491 444 738 
Q 409 903 409 1263 
L 409 3319 
L 972 3319 
L 972 1478 
Q 972 1038 1006 884 
Q 1059 663 1231 536 
Q 1403 409 1656 409 
Q 1909 409 2131 539 
Q 2353 669 2445 892 
Q 2538 1116 2538 1541 
L 2538 3319 
L 3100 3319 
L 3100 0 
L 2597 0 
z
" transform="scale(0.015625)"/>
        <path id="ArialMT-72" d="M 416 0 
L 416 3319 
L 922 3319 
L 922 2816 
Q 1116 3169 1280 3281 
Q 1444 3394 1641 3394 
Q 1925 3394 2219 3213 
L 2025 2691 
Q 1819 2813 1613 2813 
Q 1428 2813 1281 2702 
Q 1134 2591 1072 2394 
Q 978 2094 978 1738 
L 978 0 
L 416 0 
z
" transform="scale(0.015625)"/>
       </defs>
       <use xlink:href="#ArialMT-31"/>
       <use xlink:href="#ArialMT-20" transform="translate(55.615234 0)"/>
       <use xlink:href="#ArialMT-68" transform="translate(83.398438 0)"/>
       <use xlink:href="#ArialMT-6f" transform="translate(139.013672 0)"/>
       <use xlink:href="#ArialMT-75" transform="translate(194.628906 0)"/>
       <use xlink:href="#ArialMT-72" transform="translate(250.244141 0)"/>
      </g>
     </g>
    </g>
    <g id="xtick_2">
     <g id="text_2">
      <!-- 24 hours -->
      <g style="fill: #262626" transform="translate(385.398125 401.853594) scale(0.11 -0.11)">
       <defs>
        <path id="ArialMT-32" d="M 3222 541 
L 3222 0 
L 194 0 
Q 188 203 259 391 
Q 375 700 629 1000 
Q 884 1300 1366 1694 
Q 2113 2306 2375 2664 
Q 2638 3022 2638 3341 
Q 2638 3675 2398 3904 
Q 2159 4134 1775 4134 
Q 1369 4134 1125 3890 
Q 881 3647 878 3216 
L 300 3275 
Q 359 3922 746 4261 
Q 1134 4600 1788 4600 
Q 2447 4600 2831 4234 
Q 3216 3869 3216 3328 
Q 3216 3053 3103 2787 
Q 2991 2522 2730 2228 
Q 2469 1934 1863 1422 
Q 1356 997 1212 845 
Q 1069 694 975 541 
L 3222 541 
z
" transform="scale(0.015625)"/>
        <path id="ArialMT-34" d="M 2069 0 
L 2069 1097 
L 81 1097 
L 81 1613 
L 2172 4581 
L 2631 4581 
L 2631 1613 
L 3250 1613 
L 3250 1097 
L 2631 1097 
L 2631 0 
L 2069 0 
z
M 2069 1613 
L 2069 3678 
L 634 1613 
L 2069 1613 
z
" transform="scale(0.015625)"/>
        <path id="ArialMT-73" d="M 197 991 
L 753 1078 
Q 800 744 1014 566 
Q 1228 388 1613 388 
Q 2000 388 2187 545 
Q 2375 703 2375 916 
Q 2375 1106 2209 1216 
Q 2094 1291 1634 1406 
Q 1016 1563 777 1677 
Q 538 1791 414 1992 
Q 291 2194 291 2438 
Q 291 2659 392 2848 
Q 494 3038 669 3163 
Q 800 3259 1026 3326 
Q 1253 3394 1513 3394 
Q 1903 3394 2198 3281 
Q 2494 3169 2634 2976 
Q 2775 2784 2828 2463 
L 2278 2388 
Q 2241 2644 2061 2787 
Q 1881 2931 1553 2931 
Q 1166 2931 1000 2803 
Q 834 2675 834 2503 
Q 834 2394 903 2306 
Q 972 2216 1119 2156 
Q 1203 2125 1616 2013 
Q 2213 1853 2448 1751 
Q 2684 1650 2818 1456 
Q 2953 1263 2953 975 
Q 2953 694 2789 445 
Q 2625 197 2315 61 
Q 2006 -75 1616 -75 
Q 969 -75 630 194 
Q 291 463 197 991 
z
" transform="scale(0.015625)"/>
       </defs>
       <use xlink:href="#ArialMT-32"/>
       <use xlink:href="#ArialMT-34" transform="translate(55.615234 0)"/>
       <use xlink:href="#ArialMT-20" transform="translate(111.230469 0)"/>
       <use xlink:href="#ArialMT-68" transform="translate(139.013672 0)"/>
       <use xlink:href="#ArialMT-6f" transform="translate(194.628906 0)"/>
       <use xlink:href="#ArialMT-75" transform="translate(250.244141 0)"/>
       <use xlink:href="#ArialMT-72" transform="translate(305.859375 0)"/>
       <use xlink:href="#ArialMT-73" transform="translate(339.160156 0)"/>
      </g>
     </g>
    </g>
    <g id="text_3">
     <!-- Incubation before DNA isolation -->
     <g style="fill: #262626" transform="translate(211.15125 416.629219) scale(0.12 -0.12)">
      <defs>
       <path id="ArialMT-49" d="M 597 0 
L 597 4581 
L 1203 4581 
L 1203 0 
L 597 0 
z
" transform="scale(0.015625)"/>
       <path id="ArialMT-6e" d="M 422 0 
L 422 3319 
L 928 3319 
L 928 2847 
Q 1294 3394 1984 3394 
Q 2284 3394 2536 3286 
Q 2788 3178 2913 3003 
Q 3038 2828 3088 2588 
Q 3119 2431 3119 2041 
L 3119 0 
L 2556 0 
L 2556 2019 
Q 2556 2363 2490 2533 
Q 2425 2703 2258 2804 
Q 2091 2906 1866 2906 
Q 1506 2906 1245 2678 
Q 984 2450 984 1813 
L 984 0 
L 422 0 
z
" transform="scale(0.015625)"/>
       <path id="ArialMT-63" d="M 2588 1216 
L 3141 1144 
Q 3050 572 2676 248 
Q 2303 -75 1759 -75 
Q 1078 -75 664 370 
Q 250 816 250 1647 
Q 250 2184 428 2587 
Q 606 2991 970 3192 
Q 1334 3394 1763 3394 
Q 2303 3394 2647 3120 
Q 2991 2847 3088 2344 
L 2541 2259 
Q 2463 2594 2264 2762 
Q 2066 2931 1784 2931 
Q 1359 2931 1093 2626 
Q 828 2322 828 1663 
Q 828 994 1084 691 
Q 1341 388 1753 388 
Q 2084 388 2306 591 
Q 2528 794 2588 1216 
z
" transform="scale(0.015625)"/>
       <path id="ArialMT-62" d="M 941 0 
L 419 0 
L 419 4581 
L 981 4581 
L 981 2947 
Q 1338 3394 1891 3394 
Q 2197 3394 2470 3270 
Q 2744 3147 2920 2923 
Q 3097 2700 3197 2384 
Q 3297 2069 3297 1709 
Q 3297 856 2875 390 
Q 2453 -75 1863 -75 
Q 1275 -75 941 416 
L 941 0 
z
M 934 1684 
Q 934 1088 1097 822 
Q 1363 388 1816 388 
Q 2184 388 2453 708 
Q 2722 1028 2722 1663 
Q 2722 2313 2464 2622 
Q 2206 2931 1841 2931 
Q 1472 2931 1203 2611 
Q 934 2291 934 1684 
z
" transform="scale(0.015625)"/>
       <path id="ArialMT-61" d="M 2588 409 
Q 2275 144 1986 34 
Q 1697 -75 1366 -75 
Q 819 -75 525 192 
Q 231 459 231 875 
Q 231 1119 342 1320 
Q 453 1522 633 1644 
Q 813 1766 1038 1828 
Q 1203 1872 1538 1913 
Q 2219 1994 2541 2106 
Q 2544 2222 2544 2253 
Q 2544 2597 2384 2738 
Q 2169 2928 1744 2928 
Q 1347 2928 1158 2789 
Q 969 2650 878 2297 
L 328 2372 
Q 403 2725 575 2942 
Q 747 3159 1072 3276 
Q 1397 3394 1825 3394 
Q 2250 3394 2515 3294 
Q 2781 3194 2906 3042 
Q 3031 2891 3081 2659 
Q 3109 2516 3109 2141 
L 3109 1391 
Q 3109 606 3145 398 
Q 3181 191 3288 0 
L 2700 0 
Q 2613 175 2588 409 
z
M 2541 1666 
Q 2234 1541 1622 1453 
Q 1275 1403 1131 1340 
Q 988 1278 909 1158 
Q 831 1038 831 891 
Q 831 666 1001 516 
Q 1172 366 1500 366 
Q 1825 366 2078 508 
Q 2331 650 2450 897 
Q 2541 1088 2541 1459 
L 2541 1666 
z
" transform="scale(0.015625)"/>
       <path id="ArialMT-74" d="M 1650 503 
L 1731 6 
Q 1494 -44 1306 -44 
Q 1000 -44 831 53 
Q 663 150 594 308 
Q 525 466 525 972 
L 525 2881 
L 113 2881 
L 113 3319 
L 525 3319 
L 525 4141 
L 1084 4478 
L 1084 3319 
L 1650 3319 
L 1650 2881 
L 1084 2881 
L 1084 941 
Q 1084 700 1114 631 
Q 1144 563 1211 522 
Q 1278 481 1403 481 
Q 1497 481 1650 503 
z
" transform="scale(0.015625)"/>
       <path id="ArialMT-69" d="M 425 3934 
L 425 4581 
L 988 4581 
L 988 3934 
L 425 3934 
z
M 425 0 
L 425 3319 
L 988 3319 
L 988 0 
L 425 0 
z
" transform="scale(0.015625)"/>
       <path id="ArialMT-65" d="M 2694 1069 
L 3275 997 
Q 3138 488 2766 206 
Q 2394 -75 1816 -75 
Q 1088 -75 661 373 
Q 234 822 234 1631 
Q 234 2469 665 2931 
Q 1097 3394 1784 3394 
Q 2450 3394 2872 2941 
Q 3294 2488 3294 1666 
Q 3294 1616 3291 1516 
L 816 1516 
Q 847 969 1125 678 
Q 1403 388 1819 388 
Q 2128 388 2347 550 
Q 2566 713 2694 1069 
z
M 847 1978 
L 2700 1978 
Q 2663 2397 2488 2606 
Q 2219 2931 1791 2931 
Q 1403 2931 1139 2672 
Q 875 2413 847 1978 
z
" transform="scale(0.015625)"/>
       <path id="ArialMT-66" d="M 556 0 
L 556 2881 
L 59 2881 
L 59 3319 
L 556 3319 
L 556 3672 
Q 556 4006 616 4169 
Q 697 4388 901 4523 
Q 1106 4659 1475 4659 
Q 1713 4659 2000 4603 
L 1916 4113 
Q 1741 4144 1584 4144 
Q 1328 4144 1222 4034 
Q 1116 3925 1116 3625 
L 1116 3319 
L 1763 3319 
L 1763 2881 
L 1116 2881 
L 1116 0 
L 556 0 
z
" transform="scale(0.015625)"/>
       <path id="ArialMT-44" d="M 494 0 
L 494 4581 
L 2072 4581 
Q 2606 4581 2888 4516 
Q 3281 4425 3559 4188 
Q 3922 3881 4101 3404 
Q 4281 2928 4281 2316 
Q 4281 1794 4159 1391 
Q 4038 988 3847 723 
Q 3656 459 3429 307 
Q 3203 156 2883 78 
Q 2563 0 2147 0 
L 494 0 
z
M 1100 541 
L 2078 541 
Q 2531 541 2789 625 
Q 3047 709 3200 863 
Q 3416 1078 3536 1442 
Q 3656 1806 3656 2325 
Q 3656 3044 3420 3430 
Q 3184 3816 2847 3947 
Q 2603 4041 2063 4041 
L 1100 4041 
L 1100 541 
z
" transform="scale(0.015625)"/>
       <path id="ArialMT-4e" d="M 488 0 
L 488 4581 
L 1109 4581 
L 3516 984 
L 3516 4581 
L 4097 4581 
L 4097 0 
L 3475 0 
L 1069 3600 
L 1069 0 
L 488 0 
z
" transform="scale(0.015625)"/>
       <path id="ArialMT-41" d="M -9 0 
L 1750 4581 
L 2403 4581 
L 4278 0 
L 3588 0 
L 3053 1388 
L 1138 1388 
L 634 0 
L -9 0 
z
M 1313 1881 
L 2866 1881 
L 2388 3150 
Q 2169 3728 2063 4100 
Q 1975 3659 1816 3225 
L 1313 1881 
z
" transform="scale(0.015625)"/>
       <path id="ArialMT-6c" d="M 409 0 
L 409 4581 
L 972 4581 
L 972 0 
L 409 0 
z
" transform="scale(0.015625)"/>
      </defs>
      <use xlink:href="#ArialMT-49"/>
      <use xlink:href="#ArialMT-6e" transform="translate(27.783203 0)"/>
      <use xlink:href="#ArialMT-63" transform="translate(83.398438 0)"/>
      <use xlink:href="#ArialMT-75" transform="translate(133.398438 0)"/>
      <use xlink:href="#ArialMT-62" transform="translate(189.013672 0)"/>
      <use xlink:href="#ArialMT-61" transform="translate(244.628906 0)"/>
      <use xlink:href="#ArialMT-74" transform="translate(300.244141 0)"/>
      <use xlink:href="#ArialMT-69" transform="translate(328.027344 0)"/>
      <use xlink:href="#ArialMT-6f" transform="translate(350.244141 0)"/>
      <use xlink:href="#ArialMT-6e" transform="translate(405.859375 0)"/>
      <use xlink:href="#ArialMT-20" transform="translate(461.474609 0)"/>
      <use xlink:href="#ArialMT-62" transform="translate(489.257812 0)"/>
      <use xlink:href="#ArialMT-65" transform="translate(544.873047 0)"/>
      <use xlink:href="#ArialMT-66" transform="translate(600.488281 0)"/>
      <use xlink:href="#ArialMT-6f" transform="translate(628.271484 0)"/>
      <use xlink:href="#ArialMT-72" transform="translate(683.886719 0)"/>
      <use xlink:href="#ArialMT-65" transform="translate(717.1875 0)"/>
      <use xlink:href="#ArialMT-20" transform="translate(772.802734 0)"/>
      <use xlink:href="#ArialMT-44" transform="translate(800.585938 0)"/>
      <use xlink:href="#ArialMT-4e" transform="translate(872.802734 0)"/>
      <use xlink:href="#ArialMT-41" transform="translate(945.019531 0)"/>
      <use xlink:href="#ArialMT-20" transform="translate(1006.21875 0)"/>
      <use xlink:href="#ArialMT-69" transform="translate(1034.001953 0)"/>
      <use xlink:href="#ArialMT-73" transform="translate(1056.21875 0)"/>
      <use xlink:href="#ArialMT-6f" transform="translate(1106.21875 0)"/>
      <use xlink:href="#ArialMT-6c" transform="translate(1161.833984 0)"/>
      <use xlink:href="#ArialMT-61" transform="translate(1184.050781 0)"/>
      <use xlink:href="#ArialMT-74" transform="translate(1239.666016 0)"/>
      <use xlink:href="#ArialMT-69" transform="translate(1267.449219 0)"/>
      <use xlink:href="#ArialMT-6f" transform="translate(1289.666016 0)"/>
      <use xlink:href="#ArialMT-6e" transform="translate(1345.28125 0)"/>
     </g>
    </g>
   </g>
   <g id="matplotlib.axis_2">
    <g id="ytick_1">
     <g id="line2d_1">
      <path d="M 72 356.536367 
L 518.4 356.536367 
" clip-path="url(#paa7b25cb4f)" style="fill: none; stroke: #ffffff; stroke-linecap: round"/>
     </g>
     <g id="text_4">
      <!-- −100 -->
      <g style="fill: #262626" transform="translate(37.724219 360.473164) scale(0.11 -0.11)">
       <defs>
        <path id="ArialMT-2212" d="M 3381 1997 
L 356 1997 
L 356 2522 
L 3381 2522 
L 3381 1997 
z
" transform="scale(0.015625)"/>
        <path id="ArialMT-30" d="M 266 2259 
Q 266 3072 433 3567 
Q 600 4063 929 4331 
Q 1259 4600 1759 4600 
Q 2128 4600 2406 4451 
Q 2684 4303 2865 4023 
Q 3047 3744 3150 3342 
Q 3253 2941 3253 2259 
Q 3253 1453 3087 958 
Q 2922 463 2592 192 
Q 2263 -78 1759 -78 
Q 1097 -78 719 397 
Q 266 969 266 2259 
z
M 844 2259 
Q 844 1131 1108 757 
Q 1372 384 1759 384 
Q 2147 384 2411 759 
Q 2675 1134 2675 2259 
Q 2675 3391 2411 3762 
Q 2147 4134 1753 4134 
Q 1366 4134 1134 3806 
Q 844 3388 844 2259 
z
" transform="scale(0.015625)"/>
       </defs>
       <use xlink:href="#ArialMT-2212"/>
       <use xlink:href="#ArialMT-31" transform="translate(58.398438 0)"/>
       <use xlink:href="#ArialMT-30" transform="translate(114.013672 0)"/>
       <use xlink:href="#ArialMT-30" transform="translate(169.628906 0)"/>
      </g>
     </g>
    </g>
    <g id="ytick_2">
     <g id="line2d_2">
      <path d="M 72 299.824741 
L 518.4 299.824741 
" clip-path="url(#paa7b25cb4f)" style="fill: none; stroke: #ffffff; stroke-linecap: round"/>
     </g>
     <g id="text_5">
      <!-- 0 -->
      <g style="fill: #262626" transform="translate(56.382969 303.761538) scale(0.11 -0.11)">
       <use xlink:href="#ArialMT-30"/>
      </g>
     </g>
    </g>
    <g id="ytick_3">
     <g id="line2d_3">
      <path d="M 72 243.113115 
L 518.4 243.113115 
" clip-path="url(#paa7b25cb4f)" style="fill: none; stroke: #ffffff; stroke-linecap: round"/>
     </g>
     <g id="text_6">
      <!-- 100 -->
      <g style="fill: #262626" transform="translate(44.148906 247.049912) scale(0.11 -0.11)">
       <use xlink:href="#ArialMT-31"/>
       <use xlink:href="#ArialMT-30" transform="translate(55.615234 0)"/>
       <use xlink:href="#ArialMT-30" transform="translate(111.230469 0)"/>
      </g>
     </g>
    </g>
    <g id="ytick_4">
     <g id="line2d_4">
      <path d="M 72 186.40149 
L 518.4 186.40149 
" clip-path="url(#paa7b25cb4f)" style="fill: none; stroke: #ffffff; stroke-linecap: round"/>
     </g>
     <g id="text_7">
      <!-- 200 -->
      <g style="fill: #262626" transform="translate(44.148906 190.338286) scale(0.11 -0.11)">
       <use xlink:href="#ArialMT-32"/>
       <use xlink:href="#ArialMT-30" transform="translate(55.615234 0)"/>
       <use xlink:href="#ArialMT-30" transform="translate(111.230469 0)"/>
      </g>
     </g>
    </g>
    <g id="ytick_5">
     <g id="line2d_5">
      <path d="M 72 129.689864 
L 518.4 129.689864 
" clip-path="url(#paa7b25cb4f)" style="fill: none; stroke: #ffffff; stroke-linecap: round"/>
     </g>
     <g id="text_8">
      <!-- 300 -->
      <g style="fill: #262626" transform="translate(44.148906 133.626661) scale(0.11 -0.11)">
       <defs>
        <path id="ArialMT-33" d="M 269 1209 
L 831 1284 
Q 928 806 1161 595 
Q 1394 384 1728 384 
Q 2125 384 2398 659 
Q 2672 934 2672 1341 
Q 2672 1728 2419 1979 
Q 2166 2231 1775 2231 
Q 1616 2231 1378 2169 
L 1441 2663 
Q 1497 2656 1531 2656 
Q 1891 2656 2178 2843 
Q 2466 3031 2466 3422 
Q 2466 3731 2256 3934 
Q 2047 4138 1716 4138 
Q 1388 4138 1169 3931 
Q 950 3725 888 3313 
L 325 3413 
Q 428 3978 793 4289 
Q 1159 4600 1703 4600 
Q 2078 4600 2393 4439 
Q 2709 4278 2876 4000 
Q 3044 3722 3044 3409 
Q 3044 3113 2884 2869 
Q 2725 2625 2413 2481 
Q 2819 2388 3044 2092 
Q 3269 1797 3269 1353 
Q 3269 753 2831 336 
Q 2394 -81 1725 -81 
Q 1122 -81 723 278 
Q 325 638 269 1209 
z
" transform="scale(0.015625)"/>
       </defs>
       <use xlink:href="#ArialMT-33"/>
       <use xlink:href="#ArialMT-30" transform="translate(55.615234 0)"/>
       <use xlink:href="#ArialMT-30" transform="translate(111.230469 0)"/>
      </g>
     </g>
    </g>
    <g id="ytick_6">
     <g id="line2d_6">
      <path d="M 72 72.978238 
L 518.4 72.978238 
" clip-path="url(#paa7b25cb4f)" style="fill: none; stroke: #ffffff; stroke-linecap: round"/>
     </g>
     <g id="text_9">
      <!-- 400 -->
      <g style="fill: #262626" transform="translate(44.148906 76.915035) scale(0.11 -0.11)">
       <use xlink:href="#ArialMT-34"/>
       <use xlink:href="#ArialMT-30" transform="translate(55.615234 0)"/>
       <use xlink:href="#ArialMT-30" transform="translate(111.230469 0)"/>
      </g>
     </g>
    </g>
    <g id="text_10">
     <!-- VFs Count -->
     <g style="fill: #262626" transform="translate(31.339219 246.503437) rotate(-90) scale(0.12 -0.12)">
      <defs>
       <path id="ArialMT-56" d="M 1803 0 
L 28 4581 
L 684 4581 
L 1875 1253 
Q 2019 853 2116 503 
Q 2222 878 2363 1253 
L 3600 4581 
L 4219 4581 
L 2425 0 
L 1803 0 
z
" transform="scale(0.015625)"/>
       <path id="ArialMT-46" d="M 525 0 
L 525 4581 
L 3616 4581 
L 3616 4041 
L 1131 4041 
L 1131 2622 
L 3281 2622 
L 3281 2081 
L 1131 2081 
L 1131 0 
L 525 0 
z
" transform="scale(0.015625)"/>
       <path id="ArialMT-43" d="M 3763 1606 
L 4369 1453 
Q 4178 706 3683 314 
Q 3188 -78 2472 -78 
Q 1731 -78 1267 223 
Q 803 525 561 1097 
Q 319 1669 319 2325 
Q 319 3041 592 3573 
Q 866 4106 1370 4382 
Q 1875 4659 2481 4659 
Q 3169 4659 3637 4309 
Q 4106 3959 4291 3325 
L 3694 3184 
Q 3534 3684 3231 3912 
Q 2928 4141 2469 4141 
Q 1941 4141 1586 3887 
Q 1231 3634 1087 3207 
Q 944 2781 944 2328 
Q 944 1744 1114 1308 
Q 1284 872 1643 656 
Q 2003 441 2422 441 
Q 2931 441 3284 734 
Q 3638 1028 3763 1606 
z
" transform="scale(0.015625)"/>
      </defs>
      <use xlink:href="#ArialMT-56"/>
      <use xlink:href="#ArialMT-46" transform="translate(66.699219 0)"/>
      <use xlink:href="#ArialMT-73" transform="translate(127.783203 0)"/>
      <use xlink:href="#ArialMT-20" transform="translate(177.783203 0)"/>
      <use xlink:href="#ArialMT-43" transform="translate(205.566406 0)"/>
      <use xlink:href="#ArialMT-6f" transform="translate(277.783203 0)"/>
      <use xlink:href="#ArialMT-75" transform="translate(333.398438 0)"/>
      <use xlink:href="#ArialMT-6e" transform="translate(389.013672 0)"/>
      <use xlink:href="#ArialMT-74" transform="translate(444.628906 0)"/>
     </g>
    </g>
   </g>
   <g id="FillBetweenPolyCollection_1">
    <defs>
     <path id="md35fbcb2e7" d="M 195.277706 -122.321466 
L 171.922294 -122.321466 
L 168.533299 -122.967351 
L 164.490306 -123.613237 
L 159.773036 -124.259122 
L 154.394268 -124.905007 
L 148.406904 -125.550893 
L 141.908921 -126.196778 
L 135.045205 -126.842664 
L 128.005434 -127.488549 
L 121.01754 -128.134434 
L 114.336745 -128.78032 
L 108.230744 -129.426205 
L 102.962138 -130.072091 
L 98.769689 -130.717976 
L 95.850263 -131.363861 
L 94.343369 -132.009747 
L 94.32 -132.655632 
L 95.777026 -133.301517 
L 98.637767 -133.947403 
L 102.758646 -134.593288 
L 107.941123 -135.239174 
L 113.947526 -135.885059 
L 120.519034 -136.530944 
L 127.393915 -137.17683 
L 134.324268 -137.822715 
L 141.089846 -138.468601 
L 147.508003 -139.114486 
L 153.439382 -139.760371 
L 158.789428 -140.406257 
L 163.506286 -141.052142 
L 167.575907 -141.698028 
L 171.015313 -142.343913 
L 173.865011 -142.989798 
L 176.181386 -143.635684 
L 178.029739 -144.281569 
L 179.478406 -144.927455 
L 180.594186 -145.57334 
L 181.4391 -146.219225 
L 182.068392 -146.865111 
L 182.529563 -147.510996 
L 182.862216 -148.156882 
L 183.098468 -148.802767 
L 183.263715 -149.448652 
L 183.377573 -150.094538 
L 183.454869 -150.740423 
L 183.506579 -151.386309 
L 183.540668 -152.032194 
L 183.562812 -152.678079 
L 183.576977 -153.323965 
L 183.585885 -153.96985 
L 183.591362 -154.615736 
L 183.594607 -155.261621 
L 183.596373 -155.907506 
L 183.597097 -156.553392 
L 183.596985 -157.199277 
L 183.596058 -157.845163 
L 183.594166 -158.491048 
L 183.590992 -159.136933 
L 183.586024 -159.782819 
L 183.578519 -160.428704 
L 183.567461 -161.074589 
L 183.551507 -161.720475 
L 183.52894 -162.36636 
L 183.497634 -163.012246 
L 183.455043 -163.658131 
L 183.398227 -164.304016 
L 183.323925 -164.949902 
L 183.228698 -165.595787 
L 183.109133 -166.241673 
L 182.962123 -166.887558 
L 182.785208 -167.533443 
L 182.57696 -168.179329 
L 182.337373 -168.825214 
L 182.068229 -169.4711 
L 181.773376 -170.116985 
L 181.458882 -170.76287 
L 181.133003 -171.408756 
L 180.805957 -172.054641 
L 180.489473 -172.700527 
L 180.196144 -173.346412 
L 179.938621 -173.992297 
L 179.728719 -174.638183 
L 179.576526 -175.284068 
L 179.489601 -175.929954 
L 179.472347 -176.575839 
L 179.525646 -177.221724 
L 179.646782 -177.86761 
L 179.829672 -178.513495 
L 180.06537 -179.159381 
L 180.342794 -179.805266 
L 180.649587 -180.451151 
L 180.97302 -181.097037 
L 181.30085 -181.742922 
L 181.622056 -182.388808 
L 181.92738 -183.034693 
L 182.209673 -183.680578 
L 182.464014 -184.326464 
L 182.687642 -184.972349 
L 182.879732 -185.618235 
L 183.041068 -186.26412 
L 184.158932 -186.26412 
L 184.158932 -186.26412 
L 184.320268 -185.618235 
L 184.512358 -184.972349 
L 184.735986 -184.326464 
L 184.990327 -183.680578 
L 185.27262 -183.034693 
L 185.577944 -182.388808 
L 185.89915 -181.742922 
L 186.22698 -181.097037 
L 186.550413 -180.451151 
L 186.857206 -179.805266 
L 187.13463 -179.159381 
L 187.370328 -178.513495 
L 187.553218 -177.86761 
L 187.674354 -177.221724 
L 187.727653 -176.575839 
L 187.710399 -175.929954 
L 187.623474 -175.284068 
L 187.471281 -174.638183 
L 187.261379 -173.992297 
L 187.003856 -173.346412 
L 186.710527 -172.700527 
L 186.394043 -172.054641 
L 186.066997 -171.408756 
L 185.741118 -170.76287 
L 185.426624 -170.116985 
L 185.131771 -169.4711 
L 184.862627 -168.825214 
L 184.62304 -168.179329 
L 184.414792 -167.533443 
L 184.237877 -166.887558 
L 184.090867 -166.241673 
L 183.971302 -165.595787 
L 183.876075 -164.949902 
L 183.801773 -164.304016 
L 183.744957 -163.658131 
L 183.702366 -163.012246 
L 183.67106 -162.36636 
L 183.648493 -161.720475 
L 183.632539 -161.074589 
L 183.621481 -160.428704 
L 183.613976 -159.782819 
L 183.609008 -159.136933 
L 183.605834 -158.491048 
L 183.603942 -157.845163 
L 183.603015 -157.199277 
L 183.602903 -156.553392 
L 183.603627 -155.907506 
L 183.605393 -155.261621 
L 183.608638 -154.615736 
L 183.614115 -153.96985 
L 183.623023 -153.323965 
L 183.637188 -152.678079 
L 183.659332 -152.032194 
L 183.693421 -151.386309 
L 183.745131 -150.740423 
L 183.822427 -150.094538 
L 183.936285 -149.448652 
L 184.101532 -148.802767 
L 184.337784 -148.156882 
L 184.670437 -147.510996 
L 185.131608 -146.865111 
L 185.7609 -146.219225 
L 186.605814 -145.57334 
L 187.721594 -144.927455 
L 189.170261 -144.281569 
L 191.018614 -143.635684 
L 193.334989 -142.989798 
L 196.184687 -142.343913 
L 199.624093 -141.698028 
L 203.693714 -141.052142 
L 208.410572 -140.406257 
L 213.760618 -139.760371 
L 219.691997 -139.114486 
L 226.110154 -138.468601 
L 232.875732 -137.822715 
L 239.806085 -137.17683 
L 246.680966 -136.530944 
L 253.252474 -135.885059 
L 259.258877 -135.239174 
L 264.441354 -134.593288 
L 268.562233 -133.947403 
L 271.422974 -133.301517 
L 272.88 -132.655632 
L 272.856631 -132.009747 
L 271.349737 -131.363861 
L 268.430311 -130.717976 
L 264.237862 -130.072091 
L 258.969256 -129.426205 
L 252.863255 -128.78032 
L 246.18246 -128.134434 
L 239.194566 -127.488549 
L 232.154795 -126.842664 
L 225.291079 -126.196778 
L 218.793096 -125.550893 
L 212.805732 -124.905007 
L 207.426964 -124.259122 
L 202.709694 -123.613237 
L 198.666701 -122.967351 
L 195.277706 -122.321466 
z
" style="stroke: #4c4c4c; stroke-width: 1.25"/>
    </defs>
    <g clip-path="url(#paa7b25cb4f)">
     <use xlink:href="#md35fbcb2e7" x="0" y="432" style="fill: #5875a4; stroke: #4c4c4c; stroke-width: 1.25"/>
    </g>
   </g>
   <g id="FillBetweenPolyCollection_2">
    <defs>
     <path id="m6eaa3ad702" d="M 407.16931 -62.64 
L 406.43069 -62.64 
L 406.359153 -65.694545 
L 406.277747 -68.749091 
L 406.185987 -71.803636 
L 406.083555 -74.858182 
L 405.970331 -77.912727 
L 405.84643 -80.967273 
L 405.71223 -84.021818 
L 405.568397 -87.076364 
L 405.415893 -90.130909 
L 405.255984 -93.185455 
L 405.090221 -96.24 
L 404.920423 -99.294545 
L 404.748629 -102.349091 
L 404.577047 -105.403636 
L 404.407988 -108.458182 
L 404.243783 -111.512727 
L 404.0867 -114.567273 
L 403.938851 -117.621818 
L 403.8021 -120.676364 
L 403.677982 -123.730909 
L 403.567616 -126.785455 
L 403.47165 -129.84 
L 403.390209 -132.894545 
L 403.322872 -135.949091 
L 403.268665 -139.003636 
L 403.226088 -142.058182 
L 403.193152 -145.112727 
L 403.167451 -148.167273 
L 403.146247 -151.221818 
L 403.126567 -154.276364 
L 403.105323 -157.330909 
L 403.079424 -160.385455 
L 403.045898 -163.44 
L 403.002009 -166.494545 
L 402.945357 -169.549091 
L 402.873975 -172.603636 
L 402.786399 -175.658182 
L 402.681723 -178.712727 
L 402.559631 -181.767273 
L 402.420406 -184.821818 
L 402.264921 -187.876364 
L 402.094604 -190.930909 
L 401.91139 -193.985455 
L 401.717652 -197.04 
L 401.516128 -200.094545 
L 401.309828 -203.149091 
L 401.101944 -206.203636 
L 400.895757 -209.258182 
L 400.694544 -212.312727 
L 400.501485 -215.367273 
L 400.319589 -218.421818 
L 400.151618 -221.476364 
L 400.000032 -224.530909 
L 399.866938 -227.585455 
L 399.754068 -230.64 
L 399.662754 -233.694545 
L 399.593931 -236.749091 
L 399.548151 -239.803636 
L 399.525605 -242.858182 
L 399.526161 -245.912727 
L 399.549404 -248.967273 
L 399.594691 -252.021818 
L 399.661197 -255.076364 
L 399.747967 -258.130909 
L 399.853965 -261.185455 
L 399.978109 -264.24 
L 400.119311 -267.294545 
L 400.276491 -270.349091 
L 400.448595 -273.403636 
L 400.634592 -276.458182 
L 400.83347 -279.512727 
L 401.04422 -282.567273 
L 401.265812 -285.621818 
L 401.497178 -288.676364 
L 401.737181 -291.730909 
L 401.984602 -294.785455 
L 402.238122 -297.84 
L 402.496313 -300.894545 
L 402.757641 -303.949091 
L 403.020478 -307.003636 
L 403.283118 -310.058182 
L 403.543808 -313.112727 
L 403.80078 -316.167273 
L 404.052295 -319.221818 
L 404.296677 -322.276364 
L 404.532362 -325.330909 
L 404.757933 -328.385455 
L 404.972153 -331.44 
L 405.173998 -334.494545 
L 405.362668 -337.549091 
L 405.537607 -340.603636 
L 405.698498 -343.658182 
L 405.845262 -346.712727 
L 405.978041 -349.767273 
L 406.097176 -352.821818 
L 406.203185 -355.876364 
L 406.296734 -358.930909 
L 406.378602 -361.985455 
L 406.449652 -365.04 
L 407.150348 -365.04 
L 407.150348 -365.04 
L 407.221398 -361.985455 
L 407.303266 -358.930909 
L 407.396815 -355.876364 
L 407.502824 -352.821818 
L 407.621959 -349.767273 
L 407.754738 -346.712727 
L 407.901502 -343.658182 
L 408.062393 -340.603636 
L 408.237332 -337.549091 
L 408.426002 -334.494545 
L 408.627847 -331.44 
L 408.842067 -328.385455 
L 409.067638 -325.330909 
L 409.303323 -322.276364 
L 409.547705 -319.221818 
L 409.79922 -316.167273 
L 410.056192 -313.112727 
L 410.316882 -310.058182 
L 410.579522 -307.003636 
L 410.842359 -303.949091 
L 411.103687 -300.894545 
L 411.361878 -297.84 
L 411.615398 -294.785455 
L 411.862819 -291.730909 
L 412.102822 -288.676364 
L 412.334188 -285.621818 
L 412.55578 -282.567273 
L 412.76653 -279.512727 
L 412.965408 -276.458182 
L 413.151405 -273.403636 
L 413.323509 -270.349091 
L 413.480689 -267.294545 
L 413.621891 -264.24 
L 413.746035 -261.185455 
L 413.852033 -258.130909 
L 413.938803 -255.076364 
L 414.005309 -252.021818 
L 414.050596 -248.967273 
L 414.073839 -245.912727 
L 414.074395 -242.858182 
L 414.051849 -239.803636 
L 414.006069 -236.749091 
L 413.937246 -233.694545 
L 413.845932 -230.64 
L 413.733062 -227.585455 
L 413.599968 -224.530909 
L 413.448382 -221.476364 
L 413.280411 -218.421818 
L 413.098515 -215.367273 
L 412.905456 -212.312727 
L 412.704243 -209.258182 
L 412.498056 -206.203636 
L 412.290172 -203.149091 
L 412.083872 -200.094545 
L 411.882348 -197.04 
L 411.68861 -193.985455 
L 411.505396 -190.930909 
L 411.335079 -187.876364 
L 411.179594 -184.821818 
L 411.040369 -181.767273 
L 410.918277 -178.712727 
L 410.813601 -175.658182 
L 410.726025 -172.603636 
L 410.654643 -169.549091 
L 410.597991 -166.494545 
L 410.554102 -163.44 
L 410.520576 -160.385455 
L 410.494677 -157.330909 
L 410.473433 -154.276364 
L 410.453753 -151.221818 
L 410.432549 -148.167273 
L 410.406848 -145.112727 
L 410.373912 -142.058182 
L 410.331335 -139.003636 
L 410.277128 -135.949091 
L 410.209791 -132.894545 
L 410.12835 -129.84 
L 410.032384 -126.785455 
L 409.922018 -123.730909 
L 409.7979 -120.676364 
L 409.661149 -117.621818 
L 409.5133 -114.567273 
L 409.356217 -111.512727 
L 409.192012 -108.458182 
L 409.022953 -105.403636 
L 408.851371 -102.349091 
L 408.679577 -99.294545 
L 408.509779 -96.24 
L 408.344016 -93.185455 
L 408.184107 -90.130909 
L 408.031603 -87.076364 
L 407.88777 -84.021818 
L 407.75357 -80.967273 
L 407.629669 -77.912727 
L 407.516445 -74.858182 
L 407.414013 -71.803636 
L 407.322253 -68.749091 
L 407.240847 -65.694545 
L 407.16931 -62.64 
z
" style="stroke: #4c4c4c; stroke-width: 1.25"/>
    </defs>
    <g clip-path="url(#paa7b25cb4f)">
     <use xlink:href="#m6eaa3ad702" x="0" y="432" style="fill: #5875a4; stroke: #4c4c4c; stroke-width: 1.25"/>
    </g>
   </g>
   <g id="line2d_7">
    <path d="M 183.6 299.824741 
L 183.6 299.824741 
" clip-path="url(#paa7b25cb4f)" style="fill: none; stroke: #4c4c4c; stroke-width: 1.875; stroke-linecap: round"/>
   </g>
   <g id="line2d_8">
    <path d="M 183.6 299.824741 
L 183.6 299.824741 
" clip-path="url(#paa7b25cb4f)" style="fill: none; stroke: #4c4c4c; stroke-width: 5.625; stroke-linecap: round"/>
   </g>
   <g id="line2d_9">
    <path d="M 183.6 299.824741 
" clip-path="url(#paa7b25cb4f)" style="fill: none; stroke: #4c4c4c; stroke-width: 1.5; stroke-linecap: round"/>
    <defs>
     <path id="m454260a1d4" d="M 2.34375 0 
L -2.34375 -0 
" style="stroke: #ffffff; stroke-width: 1.125"/>
    </defs>
    <g clip-path="url(#paa7b25cb4f)">
     <use xlink:href="#m454260a1d4" x="183.6" y="299.824741" style="fill: #ffffff; stroke: #ffffff; stroke-width: 1.125"/>
    </g>
   </g>
   <g id="line2d_10">
    <path d="M 406.8 299.824741 
L 406.8 136.495259 
" clip-path="url(#paa7b25cb4f)" style="fill: none; stroke: #4c4c4c; stroke-width: 1.875; stroke-linecap: round"/>
   </g>
   <g id="line2d_11">
    <path d="M 406.8 231.77079 
L 406.8 177.327629 
" clip-path="url(#paa7b25cb4f)" style="fill: none; stroke: #4c4c4c; stroke-width: 5.625; stroke-linecap: round"/>
   </g>
   <g id="line2d_12">
    <path d="M 406.8 201.146512 
" clip-path="url(#paa7b25cb4f)" style="fill: none; stroke: #4c4c4c; stroke-width: 1.5; stroke-linecap: round"/>
    <g clip-path="url(#paa7b25cb4f)">
     <use xlink:href="#m454260a1d4" x="406.8" y="201.146512" style="fill: #ffffff; stroke: #ffffff; stroke-width: 1.125"/>
    </g>
   </g>
   <g id="patch_3">
    <path d="M 72 384.48 
L 72 51.84 
" style="fill: none; stroke: #ffffff; stroke-width: 1.25; stroke-linejoin: miter; stroke-linecap: square"/>
   </g>
   <g id="patch_4">
    <path d="M 518.4 384.48 
L 518.4 51.84 
" style="fill: none; stroke: #ffffff; stroke-width: 1.25; stroke-linejoin: miter; stroke-linecap: square"/>
   </g>
   <g id="patch_5">
    <path d="M 72 384.48 
L 518.4 384.48 
" style="fill: none; stroke: #ffffff; stroke-width: 1.25; stroke-linejoin: miter; stroke-linecap: square"/>
   </g>
   <g id="patch_6">
    <path d="M 72 51.84 
L 518.4 51.84 
" style="fill: none; stroke: #ffffff; stroke-width: 1.25; stroke-linejoin: miter; stroke-linecap: square"/>
   </g>
   <g id="text_11">
    <!-- VFs count vs Pathogen incubation before DNA isolation duration -->
    <g style="fill: #262626" transform="translate(124.438125 45.84) scale(0.12 -0.12)">
     <defs>
      <path id="ArialMT-76" d="M 1344 0 
L 81 3319 
L 675 3319 
L 1388 1331 
Q 1503 1009 1600 663 
Q 1675 925 1809 1294 
L 2547 3319 
L 3125 3319 
L 1869 0 
L 1344 0 
z
" transform="scale(0.015625)"/>
      <path id="ArialMT-50" d="M 494 0 
L 494 4581 
L 2222 4581 
Q 2678 4581 2919 4538 
Q 3256 4481 3484 4323 
Q 3713 4166 3852 3881 
Q 3991 3597 3991 3256 
Q 3991 2672 3619 2267 
Q 3247 1863 2275 1863 
L 1100 1863 
L 1100 0 
L 494 0 
z
M 1100 2403 
L 2284 2403 
Q 2872 2403 3119 2622 
Q 3366 2841 3366 3238 
Q 3366 3525 3220 3729 
Q 3075 3934 2838 4000 
Q 2684 4041 2272 4041 
L 1100 4041 
L 1100 2403 
z
" transform="scale(0.015625)"/>
      <path id="ArialMT-67" d="M 319 -275 
L 866 -356 
Q 900 -609 1056 -725 
Q 1266 -881 1628 -881 
Q 2019 -881 2231 -725 
Q 2444 -569 2519 -288 
Q 2563 -116 2559 434 
Q 2191 0 1641 0 
Q 956 0 581 494 
Q 206 988 206 1678 
Q 206 2153 378 2554 
Q 550 2956 876 3175 
Q 1203 3394 1644 3394 
Q 2231 3394 2613 2919 
L 2613 3319 
L 3131 3319 
L 3131 450 
Q 3131 -325 2973 -648 
Q 2816 -972 2473 -1159 
Q 2131 -1347 1631 -1347 
Q 1038 -1347 672 -1080 
Q 306 -813 319 -275 
z
M 784 1719 
Q 784 1066 1043 766 
Q 1303 466 1694 466 
Q 2081 466 2343 764 
Q 2606 1063 2606 1700 
Q 2606 2309 2336 2618 
Q 2066 2928 1684 2928 
Q 1309 2928 1046 2623 
Q 784 2319 784 1719 
z
" transform="scale(0.015625)"/>
      <path id="ArialMT-64" d="M 2575 0 
L 2575 419 
Q 2259 -75 1647 -75 
Q 1250 -75 917 144 
Q 584 363 401 755 
Q 219 1147 219 1656 
Q 219 2153 384 2558 
Q 550 2963 881 3178 
Q 1213 3394 1622 3394 
Q 1922 3394 2156 3267 
Q 2391 3141 2538 2938 
L 2538 4581 
L 3097 4581 
L 3097 0 
L 2575 0 
z
M 797 1656 
Q 797 1019 1065 703 
Q 1334 388 1700 388 
Q 2069 388 2326 689 
Q 2584 991 2584 1609 
Q 2584 2291 2321 2609 
Q 2059 2928 1675 2928 
Q 1300 2928 1048 2622 
Q 797 2316 797 1656 
z
" transform="scale(0.015625)"/>
     </defs>
     <use xlink:href="#ArialMT-56"/>
     <use xlink:href="#ArialMT-46" transform="translate(66.699219 0)"/>
     <use xlink:href="#ArialMT-73" transform="translate(127.783203 0)"/>
     <use xlink:href="#ArialMT-20" transform="translate(177.783203 0)"/>
     <use xlink:href="#ArialMT-63" transform="translate(205.566406 0)"/>
     <use xlink:href="#ArialMT-6f" transform="translate(255.566406 0)"/>
     <use xlink:href="#ArialMT-75" transform="translate(311.181641 0)"/>
     <use xlink:href="#ArialMT-6e" transform="translate(366.796875 0)"/>
     <use xlink:href="#ArialMT-74" transform="translate(422.412109 0)"/>
     <use xlink:href="#ArialMT-20" transform="translate(450.195312 0)"/>
     <use xlink:href="#ArialMT-76" transform="translate(477.978516 0)"/>
     <use xlink:href="#ArialMT-73" transform="translate(527.978516 0)"/>
     <use xlink:href="#ArialMT-20" transform="translate(577.978516 0)"/>
     <use xlink:href="#ArialMT-50" transform="translate(605.761719 0)"/>
     <use xlink:href="#ArialMT-61" transform="translate(672.460938 0)"/>
     <use xlink:href="#ArialMT-74" transform="translate(728.076172 0)"/>
     <use xlink:href="#ArialMT-68" transform="translate(755.859375 0)"/>
     <use xlink:href="#ArialMT-6f" transform="translate(811.474609 0)"/>
     <use xlink:href="#ArialMT-67" transform="translate(867.089844 0)"/>
     <use xlink:href="#ArialMT-65" transform="translate(922.705078 0)"/>
     <use xlink:href="#ArialMT-6e" transform="translate(978.320312 0)"/>
     <use xlink:href="#ArialMT-20" transform="translate(1033.935547 0)"/>
     <use xlink:href="#ArialMT-69" transform="translate(1061.71875 0)"/>
     <use xlink:href="#ArialMT-6e" transform="translate(1083.935547 0)"/>
     <use xlink:href="#ArialMT-63" transform="translate(1139.550781 0)"/>
     <use xlink:href="#ArialMT-75" transform="translate(1189.550781 0)"/>
     <use xlink:href="#ArialMT-62" transform="translate(1245.166016 0)"/>
     <use xlink:href="#ArialMT-61" transform="translate(1300.78125 0)"/>
     <use xlink:href="#ArialMT-74" transform="translate(1356.396484 0)"/>
     <use xlink:href="#ArialMT-69" transform="translate(1384.179688 0)"/>
     <use xlink:href="#ArialMT-6f" transform="translate(1406.396484 0)"/>
     <use xlink:href="#ArialMT-6e" transform="translate(1462.011719 0)"/>
     <use xlink:href="#ArialMT-20" transform="translate(1517.626953 0)"/>
     <use xlink:href="#ArialMT-62" transform="translate(1545.410156 0)"/>
     <use xlink:href="#ArialMT-65" transform="translate(1601.025391 0)"/>
     <use xlink:href="#ArialMT-66" transform="translate(1656.640625 0)"/>
     <use xlink:href="#ArialMT-6f" transform="translate(1684.423828 0)"/>
     <use xlink:href="#ArialMT-72" transform="translate(1740.039062 0)"/>
     <use xlink:href="#ArialMT-65" transform="translate(1773.339844 0)"/>
     <use xlink:href="#ArialMT-20" transform="translate(1828.955078 0)"/>
     <use xlink:href="#ArialMT-44" transform="translate(1856.738281 0)"/>
     <use xlink:href="#ArialMT-4e" transform="translate(1928.955078 0)"/>
     <use xlink:href="#ArialMT-41" transform="translate(2001.171875 0)"/>
     <use xlink:href="#ArialMT-20" transform="translate(2062.371094 0)"/>
     <use xlink:href="#ArialMT-69" transform="translate(2090.154297 0)"/>
     <use xlink:href="#ArialMT-73" transform="translate(2112.371094 0)"/>
     <use xlink:href="#ArialMT-6f" transform="translate(2162.371094 0)"/>
     <use xlink:href="#ArialMT-6c" transform="translate(2217.986328 0)"/>
     <use xlink:href="#ArialMT-61" transform="translate(2240.203125 0)"/>
     <use xlink:href="#ArialMT-74" transform="translate(2295.818359 0)"/>
     <use xlink:href="#ArialMT-69" transform="translate(2323.601562 0)"/>
     <use xlink:href="#ArialMT-6f" transform="translate(2345.818359 0)"/>
     <use xlink:href="#ArialMT-6e" transform="translate(2401.433594 0)"/>
     <use xlink:href="#ArialMT-20" transform="translate(2457.048828 0)"/>
     <use xlink:href="#ArialMT-64" transform="translate(2484.832031 0)"/>
     <use xlink:href="#ArialMT-75" transform="translate(2540.447266 0)"/>
     <use xlink:href="#ArialMT-72" transform="translate(2596.0625 0)"/>
     <use xlink:href="#ArialMT-61" transform="translate(2629.363281 0)"/>
     <use xlink:href="#ArialMT-74" transform="translate(2684.978516 0)"/>
     <use xlink:href="#ArialMT-69" transform="translate(2712.761719 0)"/>
     <use xlink:href="#ArialMT-6f" transform="translate(2734.978516 0)"/>
     <use xlink:href="#ArialMT-6e" transform="translate(2790.59375 0)"/>
    </g>
   </g>
  </g>
 </g>
 <defs>
  <clipPath id="paa7b25cb4f">
   <rect x="72" y="51.84" width="446.4" height="332.64"/>
  </clipPath>
 </defs>
</svg>
