<?xml version="1.0" encoding="utf-8" standalone="no"?>
<!DOCTYPE svg PUBLIC "-//W3C//DTD SVG 1.1//EN"
  "http://www.w3.org/Graphics/SVG/1.1/DTD/svg11.dtd">
<svg xmlns:xlink="http://www.w3.org/1999/xlink" width="576pt" height="432pt" viewBox="0 0 576 432" xmlns="http://www.w3.org/2000/svg" version="1.1">
 <metadata>
  <rdf:RDF xmlns:dc="http://purl.org/dc/elements/1.1/" xmlns:cc="http://creativecommons.org/ns#" xmlns:rdf="http://www.w3.org/1999/02/22-rdf-syntax-ns#">
   <cc:Work>
    <dc:type rdf:resource="http://purl.org/dc/dcmitype/StillImage"/>
    <dc:date>2025-01-20T14:46:17.008026</dc:date>
    <dc:format>image/svg+xml</dc:format>
    <dc:creator>
     <cc:Agent>
      <dc:title>Matplotlib v3.10.0, https://matplotlib.org/</dc:title>
     </cc:Agent>
    </dc:creator>
   </cc:Work>
  </rdf:RDF>
 </metadata>
 <defs>
  <style type="text/css">*{stroke-linejoin: round; stroke-linecap: butt}</style>
 </defs>
 <g id="figure_1">
  <g id="patch_1">
   <path d="M 0 432 
L 576 432 
L 576 0 
L 0 0 
z
" style="fill: #ffffff"/>
  </g>
  <g id="axes_1">
   <g id="patch_2">
    <path d="M 72 384.48 
L 518.4 384.48 
L 518.4 51.84 
L 72 51.84 
z
" style="fill: #eaeaf2"/>
   </g>
   <g id="matplotlib.axis_1">
    <g id="xtick_1">
     <g id="text_1">
      <!-- No -->
      <g style="fill: #262626" transform="translate(176.569453 401.853594) scale(0.11 -0.11)">
       <defs>
        <path id="ArialMT-4e" d="M 488 0 
L 488 4581 
L 1109 4581 
L 3516 984 
L 3516 4581 
L 4097 4581 
L 4097 0 
L 3475 0 
L 1069 3600 
L 1069 0 
L 488 0 
z
" transform="scale(0.015625)"/>
        <path id="ArialMT-6f" d="M 213 1659 
Q 213 2581 725 3025 
Q 1153 3394 1769 3394 
Q 2453 3394 2887 2945 
Q 3322 2497 3322 1706 
Q 3322 1066 3130 698 
Q 2938 331 2570 128 
Q 2203 -75 1769 -75 
Q 1072 -75 642 372 
Q 213 819 213 1659 
z
M 791 1659 
Q 791 1022 1069 705 
Q 1347 388 1769 388 
Q 2188 388 2466 706 
Q 2744 1025 2744 1678 
Q 2744 2294 2464 2611 
Q 2184 2928 1769 2928 
Q 1347 2928 1069 2612 
Q 791 2297 791 1659 
z
" transform="scale(0.015625)"/>
       </defs>
       <use xlink:href="#ArialMT-4e"/>
       <use xlink:href="#ArialMT-6f" transform="translate(72.216797 0)"/>
      </g>
     </g>
    </g>
    <g id="xtick_2">
     <g id="text_2">
      <!-- Yes -->
      <g style="fill: #262626" transform="translate(397.824687 401.853594) scale(0.11 -0.11)">
       <defs>
        <path id="ArialMT-59" d="M 1784 0 
L 1784 1941 
L 19 4581 
L 756 4581 
L 1659 3200 
Q 1909 2813 2125 2425 
Q 2331 2784 2625 3234 
L 3513 4581 
L 4219 4581 
L 2391 1941 
L 2391 0 
L 1784 0 
z
" transform="scale(0.015625)"/>
        <path id="ArialMT-65" d="M 2694 1069 
L 3275 997 
Q 3138 488 2766 206 
Q 2394 -75 1816 -75 
Q 1088 -75 661 373 
Q 234 822 234 1631 
Q 234 2469 665 2931 
Q 1097 3394 1784 3394 
Q 2450 3394 2872 2941 
Q 3294 2488 3294 1666 
Q 3294 1616 3291 1516 
L 816 1516 
Q 847 969 1125 678 
Q 1403 388 1819 388 
Q 2128 388 2347 550 
Q 2566 713 2694 1069 
z
M 847 1978 
L 2700 1978 
Q 2663 2397 2488 2606 
Q 2219 2931 1791 2931 
Q 1403 2931 1139 2672 
Q 875 2413 847 1978 
z
" transform="scale(0.015625)"/>
        <path id="ArialMT-73" d="M 197 991 
L 753 1078 
Q 800 744 1014 566 
Q 1228 388 1613 388 
Q 2000 388 2187 545 
Q 2375 703 2375 916 
Q 2375 1106 2209 1216 
Q 2094 1291 1634 1406 
Q 1016 1563 777 1677 
Q 538 1791 414 1992 
Q 291 2194 291 2438 
Q 291 2659 392 2848 
Q 494 3038 669 3163 
Q 800 3259 1026 3326 
Q 1253 3394 1513 3394 
Q 1903 3394 2198 3281 
Q 2494 3169 2634 2976 
Q 2775 2784 2828 2463 
L 2278 2388 
Q 2241 2644 2061 2787 
Q 1881 2931 1553 2931 
Q 1166 2931 1000 2803 
Q 834 2675 834 2503 
Q 834 2394 903 2306 
Q 972 2216 1119 2156 
Q 1203 2125 1616 2013 
Q 2213 1853 2448 1751 
Q 2684 1650 2818 1456 
Q 2953 1263 2953 975 
Q 2953 694 2789 445 
Q 2625 197 2315 61 
Q 2006 -75 1616 -75 
Q 969 -75 630 194 
Q 291 463 197 991 
z
" transform="scale(0.015625)"/>
       </defs>
       <use xlink:href="#ArialMT-59"/>
       <use xlink:href="#ArialMT-65" transform="translate(57.574219 0)"/>
       <use xlink:href="#ArialMT-73" transform="translate(113.189453 0)"/>
      </g>
     </g>
    </g>
    <g id="text_3">
     <!-- Adaptive sampling during sequencing (Chicken Excluded) -->
     <g style="fill: #262626" transform="translate(141.7875 416.775469) scale(0.12 -0.12)">
      <defs>
       <path id="ArialMT-41" d="M -9 0 
L 1750 4581 
L 2403 4581 
L 4278 0 
L 3588 0 
L 3053 1388 
L 1138 1388 
L 634 0 
L -9 0 
z
M 1313 1881 
L 2866 1881 
L 2388 3150 
Q 2169 3728 2063 4100 
Q 1975 3659 1816 3225 
L 1313 1881 
z
" transform="scale(0.015625)"/>
       <path id="ArialMT-64" d="M 2575 0 
L 2575 419 
Q 2259 -75 1647 -75 
Q 1250 -75 917 144 
Q 584 363 401 755 
Q 219 1147 219 1656 
Q 219 2153 384 2558 
Q 550 2963 881 3178 
Q 1213 3394 1622 3394 
Q 1922 3394 2156 3267 
Q 2391 3141 2538 2938 
L 2538 4581 
L 3097 4581 
L 3097 0 
L 2575 0 
z
M 797 1656 
Q 797 1019 1065 703 
Q 1334 388 1700 388 
Q 2069 388 2326 689 
Q 2584 991 2584 1609 
Q 2584 2291 2321 2609 
Q 2059 2928 1675 2928 
Q 1300 2928 1048 2622 
Q 797 2316 797 1656 
z
" transform="scale(0.015625)"/>
       <path id="ArialMT-61" d="M 2588 409 
Q 2275 144 1986 34 
Q 1697 -75 1366 -75 
Q 819 -75 525 192 
Q 231 459 231 875 
Q 231 1119 342 1320 
Q 453 1522 633 1644 
Q 813 1766 1038 1828 
Q 1203 1872 1538 1913 
Q 2219 1994 2541 2106 
Q 2544 2222 2544 2253 
Q 2544 2597 2384 2738 
Q 2169 2928 1744 2928 
Q 1347 2928 1158 2789 
Q 969 2650 878 2297 
L 328 2372 
Q 403 2725 575 2942 
Q 747 3159 1072 3276 
Q 1397 3394 1825 3394 
Q 2250 3394 2515 3294 
Q 2781 3194 2906 3042 
Q 3031 2891 3081 2659 
Q 3109 2516 3109 2141 
L 3109 1391 
Q 3109 606 3145 398 
Q 3181 191 3288 0 
L 2700 0 
Q 2613 175 2588 409 
z
M 2541 1666 
Q 2234 1541 1622 1453 
Q 1275 1403 1131 1340 
Q 988 1278 909 1158 
Q 831 1038 831 891 
Q 831 666 1001 516 
Q 1172 366 1500 366 
Q 1825 366 2078 508 
Q 2331 650 2450 897 
Q 2541 1088 2541 1459 
L 2541 1666 
z
" transform="scale(0.015625)"/>
       <path id="ArialMT-70" d="M 422 -1272 
L 422 3319 
L 934 3319 
L 934 2888 
Q 1116 3141 1344 3267 
Q 1572 3394 1897 3394 
Q 2322 3394 2647 3175 
Q 2972 2956 3137 2557 
Q 3303 2159 3303 1684 
Q 3303 1175 3120 767 
Q 2938 359 2589 142 
Q 2241 -75 1856 -75 
Q 1575 -75 1351 44 
Q 1128 163 984 344 
L 984 -1272 
L 422 -1272 
z
M 931 1641 
Q 931 1000 1190 694 
Q 1450 388 1819 388 
Q 2194 388 2461 705 
Q 2728 1022 2728 1688 
Q 2728 2322 2467 2637 
Q 2206 2953 1844 2953 
Q 1484 2953 1207 2617 
Q 931 2281 931 1641 
z
" transform="scale(0.015625)"/>
       <path id="ArialMT-74" d="M 1650 503 
L 1731 6 
Q 1494 -44 1306 -44 
Q 1000 -44 831 53 
Q 663 150 594 308 
Q 525 466 525 972 
L 525 2881 
L 113 2881 
L 113 3319 
L 525 3319 
L 525 4141 
L 1084 4478 
L 1084 3319 
L 1650 3319 
L 1650 2881 
L 1084 2881 
L 1084 941 
Q 1084 700 1114 631 
Q 1144 563 1211 522 
Q 1278 481 1403 481 
Q 1497 481 1650 503 
z
" transform="scale(0.015625)"/>
       <path id="ArialMT-69" d="M 425 3934 
L 425 4581 
L 988 4581 
L 988 3934 
L 425 3934 
z
M 425 0 
L 425 3319 
L 988 3319 
L 988 0 
L 425 0 
z
" transform="scale(0.015625)"/>
       <path id="ArialMT-76" d="M 1344 0 
L 81 3319 
L 675 3319 
L 1388 1331 
Q 1503 1009 1600 663 
Q 1675 925 1809 1294 
L 2547 3319 
L 3125 3319 
L 1869 0 
L 1344 0 
z
" transform="scale(0.015625)"/>
       <path id="ArialMT-20" transform="scale(0.015625)"/>
       <path id="ArialMT-6d" d="M 422 0 
L 422 3319 
L 925 3319 
L 925 2853 
Q 1081 3097 1340 3245 
Q 1600 3394 1931 3394 
Q 2300 3394 2536 3241 
Q 2772 3088 2869 2813 
Q 3263 3394 3894 3394 
Q 4388 3394 4653 3120 
Q 4919 2847 4919 2278 
L 4919 0 
L 4359 0 
L 4359 2091 
Q 4359 2428 4304 2576 
Q 4250 2725 4106 2815 
Q 3963 2906 3769 2906 
Q 3419 2906 3187 2673 
Q 2956 2441 2956 1928 
L 2956 0 
L 2394 0 
L 2394 2156 
Q 2394 2531 2256 2718 
Q 2119 2906 1806 2906 
Q 1569 2906 1367 2781 
Q 1166 2656 1075 2415 
Q 984 2175 984 1722 
L 984 0 
L 422 0 
z
" transform="scale(0.015625)"/>
       <path id="ArialMT-6c" d="M 409 0 
L 409 4581 
L 972 4581 
L 972 0 
L 409 0 
z
" transform="scale(0.015625)"/>
       <path id="ArialMT-6e" d="M 422 0 
L 422 3319 
L 928 3319 
L 928 2847 
Q 1294 3394 1984 3394 
Q 2284 3394 2536 3286 
Q 2788 3178 2913 3003 
Q 3038 2828 3088 2588 
Q 3119 2431 3119 2041 
L 3119 0 
L 2556 0 
L 2556 2019 
Q 2556 2363 2490 2533 
Q 2425 2703 2258 2804 
Q 2091 2906 1866 2906 
Q 1506 2906 1245 2678 
Q 984 2450 984 1813 
L 984 0 
L 422 0 
z
" transform="scale(0.015625)"/>
       <path id="ArialMT-67" d="M 319 -275 
L 866 -356 
Q 900 -609 1056 -725 
Q 1266 -881 1628 -881 
Q 2019 -881 2231 -725 
Q 2444 -569 2519 -288 
Q 2563 -116 2559 434 
Q 2191 0 1641 0 
Q 956 0 581 494 
Q 206 988 206 1678 
Q 206 2153 378 2554 
Q 550 2956 876 3175 
Q 1203 3394 1644 3394 
Q 2231 3394 2613 2919 
L 2613 3319 
L 3131 3319 
L 3131 450 
Q 3131 -325 2973 -648 
Q 2816 -972 2473 -1159 
Q 2131 -1347 1631 -1347 
Q 1038 -1347 672 -1080 
Q 306 -813 319 -275 
z
M 784 1719 
Q 784 1066 1043 766 
Q 1303 466 1694 466 
Q 2081 466 2343 764 
Q 2606 1063 2606 1700 
Q 2606 2309 2336 2618 
Q 2066 2928 1684 2928 
Q 1309 2928 1046 2623 
Q 784 2319 784 1719 
z
" transform="scale(0.015625)"/>
       <path id="ArialMT-75" d="M 2597 0 
L 2597 488 
Q 2209 -75 1544 -75 
Q 1250 -75 995 37 
Q 741 150 617 320 
Q 494 491 444 738 
Q 409 903 409 1263 
L 409 3319 
L 972 3319 
L 972 1478 
Q 972 1038 1006 884 
Q 1059 663 1231 536 
Q 1403 409 1656 409 
Q 1909 409 2131 539 
Q 2353 669 2445 892 
Q 2538 1116 2538 1541 
L 2538 3319 
L 3100 3319 
L 3100 0 
L 2597 0 
z
" transform="scale(0.015625)"/>
       <path id="ArialMT-72" d="M 416 0 
L 416 3319 
L 922 3319 
L 922 2816 
Q 1116 3169 1280 3281 
Q 1444 3394 1641 3394 
Q 1925 3394 2219 3213 
L 2025 2691 
Q 1819 2813 1613 2813 
Q 1428 2813 1281 2702 
Q 1134 2591 1072 2394 
Q 978 2094 978 1738 
L 978 0 
L 416 0 
z
" transform="scale(0.015625)"/>
       <path id="ArialMT-71" d="M 2538 -1272 
L 2538 353 
Q 2406 169 2170 47 
Q 1934 -75 1669 -75 
Q 1078 -75 651 397 
Q 225 869 225 1691 
Q 225 2191 398 2587 
Q 572 2984 901 3189 
Q 1231 3394 1625 3394 
Q 2241 3394 2594 2875 
L 2594 3319 
L 3100 3319 
L 3100 -1272 
L 2538 -1272 
z
M 803 1669 
Q 803 1028 1072 708 
Q 1341 388 1716 388 
Q 2075 388 2334 692 
Q 2594 997 2594 1619 
Q 2594 2281 2320 2615 
Q 2047 2950 1678 2950 
Q 1313 2950 1058 2639 
Q 803 2328 803 1669 
z
" transform="scale(0.015625)"/>
       <path id="ArialMT-63" d="M 2588 1216 
L 3141 1144 
Q 3050 572 2676 248 
Q 2303 -75 1759 -75 
Q 1078 -75 664 370 
Q 250 816 250 1647 
Q 250 2184 428 2587 
Q 606 2991 970 3192 
Q 1334 3394 1763 3394 
Q 2303 3394 2647 3120 
Q 2991 2847 3088 2344 
L 2541 2259 
Q 2463 2594 2264 2762 
Q 2066 2931 1784 2931 
Q 1359 2931 1093 2626 
Q 828 2322 828 1663 
Q 828 994 1084 691 
Q 1341 388 1753 388 
Q 2084 388 2306 591 
Q 2528 794 2588 1216 
z
" transform="scale(0.015625)"/>
       <path id="ArialMT-28" d="M 1497 -1347 
Q 1031 -759 709 28 
Q 388 816 388 1659 
Q 388 2403 628 3084 
Q 909 3875 1497 4659 
L 1900 4659 
Q 1522 4009 1400 3731 
Q 1209 3300 1100 2831 
Q 966 2247 966 1656 
Q 966 153 1900 -1347 
L 1497 -1347 
z
" transform="scale(0.015625)"/>
       <path id="ArialMT-43" d="M 3763 1606 
L 4369 1453 
Q 4178 706 3683 314 
Q 3188 -78 2472 -78 
Q 1731 -78 1267 223 
Q 803 525 561 1097 
Q 319 1669 319 2325 
Q 319 3041 592 3573 
Q 866 4106 1370 4382 
Q 1875 4659 2481 4659 
Q 3169 4659 3637 4309 
Q 4106 3959 4291 3325 
L 3694 3184 
Q 3534 3684 3231 3912 
Q 2928 4141 2469 4141 
Q 1941 4141 1586 3887 
Q 1231 3634 1087 3207 
Q 944 2781 944 2328 
Q 944 1744 1114 1308 
Q 1284 872 1643 656 
Q 2003 441 2422 441 
Q 2931 441 3284 734 
Q 3638 1028 3763 1606 
z
" transform="scale(0.015625)"/>
       <path id="ArialMT-68" d="M 422 0 
L 422 4581 
L 984 4581 
L 984 2938 
Q 1378 3394 1978 3394 
Q 2347 3394 2619 3248 
Q 2891 3103 3008 2847 
Q 3125 2591 3125 2103 
L 3125 0 
L 2563 0 
L 2563 2103 
Q 2563 2525 2380 2717 
Q 2197 2909 1863 2909 
Q 1613 2909 1392 2779 
Q 1172 2650 1078 2428 
Q 984 2206 984 1816 
L 984 0 
L 422 0 
z
" transform="scale(0.015625)"/>
       <path id="ArialMT-6b" d="M 425 0 
L 425 4581 
L 988 4581 
L 988 1969 
L 2319 3319 
L 3047 3319 
L 1778 2088 
L 3175 0 
L 2481 0 
L 1384 1697 
L 988 1316 
L 988 0 
L 425 0 
z
" transform="scale(0.015625)"/>
       <path id="ArialMT-45" d="M 506 0 
L 506 4581 
L 3819 4581 
L 3819 4041 
L 1113 4041 
L 1113 2638 
L 3647 2638 
L 3647 2100 
L 1113 2100 
L 1113 541 
L 3925 541 
L 3925 0 
L 506 0 
z
" transform="scale(0.015625)"/>
       <path id="ArialMT-78" d="M 47 0 
L 1259 1725 
L 138 3319 
L 841 3319 
L 1350 2541 
Q 1494 2319 1581 2169 
Q 1719 2375 1834 2534 
L 2394 3319 
L 3066 3319 
L 1919 1756 
L 3153 0 
L 2463 0 
L 1781 1031 
L 1600 1309 
L 728 0 
L 47 0 
z
" transform="scale(0.015625)"/>
       <path id="ArialMT-29" d="M 791 -1347 
L 388 -1347 
Q 1322 153 1322 1656 
Q 1322 2244 1188 2822 
Q 1081 3291 891 3722 
Q 769 4003 388 4659 
L 791 4659 
Q 1378 3875 1659 3084 
Q 1900 2403 1900 1659 
Q 1900 816 1576 28 
Q 1253 -759 791 -1347 
z
" transform="scale(0.015625)"/>
      </defs>
      <use xlink:href="#ArialMT-41"/>
      <use xlink:href="#ArialMT-64" transform="translate(66.699219 0)"/>
      <use xlink:href="#ArialMT-61" transform="translate(122.314453 0)"/>
      <use xlink:href="#ArialMT-70" transform="translate(177.929688 0)"/>
      <use xlink:href="#ArialMT-74" transform="translate(233.544922 0)"/>
      <use xlink:href="#ArialMT-69" transform="translate(261.328125 0)"/>
      <use xlink:href="#ArialMT-76" transform="translate(283.544922 0)"/>
      <use xlink:href="#ArialMT-65" transform="translate(333.544922 0)"/>
      <use xlink:href="#ArialMT-20" transform="translate(389.160156 0)"/>
      <use xlink:href="#ArialMT-73" transform="translate(416.943359 0)"/>
      <use xlink:href="#ArialMT-61" transform="translate(466.943359 0)"/>
      <use xlink:href="#ArialMT-6d" transform="translate(522.558594 0)"/>
      <use xlink:href="#ArialMT-70" transform="translate(605.859375 0)"/>
      <use xlink:href="#ArialMT-6c" transform="translate(661.474609 0)"/>
      <use xlink:href="#ArialMT-69" transform="translate(683.691406 0)"/>
      <use xlink:href="#ArialMT-6e" transform="translate(705.908203 0)"/>
      <use xlink:href="#ArialMT-67" transform="translate(761.523438 0)"/>
      <use xlink:href="#ArialMT-20" transform="translate(817.138672 0)"/>
      <use xlink:href="#ArialMT-64" transform="translate(844.921875 0)"/>
      <use xlink:href="#ArialMT-75" transform="translate(900.537109 0)"/>
      <use xlink:href="#ArialMT-72" transform="translate(956.152344 0)"/>
      <use xlink:href="#ArialMT-69" transform="translate(989.453125 0)"/>
      <use xlink:href="#ArialMT-6e" transform="translate(1011.669922 0)"/>
      <use xlink:href="#ArialMT-67" transform="translate(1067.285156 0)"/>
      <use xlink:href="#ArialMT-20" transform="translate(1122.900391 0)"/>
      <use xlink:href="#ArialMT-73" transform="translate(1150.683594 0)"/>
      <use xlink:href="#ArialMT-65" transform="translate(1200.683594 0)"/>
      <use xlink:href="#ArialMT-71" transform="translate(1256.298828 0)"/>
      <use xlink:href="#ArialMT-75" transform="translate(1311.914062 0)"/>
      <use xlink:href="#ArialMT-65" transform="translate(1367.529297 0)"/>
      <use xlink:href="#ArialMT-6e" transform="translate(1423.144531 0)"/>
      <use xlink:href="#ArialMT-63" transform="translate(1478.759766 0)"/>
      <use xlink:href="#ArialMT-69" transform="translate(1528.759766 0)"/>
      <use xlink:href="#ArialMT-6e" transform="translate(1550.976562 0)"/>
      <use xlink:href="#ArialMT-67" transform="translate(1606.591797 0)"/>
      <use xlink:href="#ArialMT-20" transform="translate(1662.207031 0)"/>
      <use xlink:href="#ArialMT-28" transform="translate(1689.990234 0)"/>
      <use xlink:href="#ArialMT-43" transform="translate(1723.291016 0)"/>
      <use xlink:href="#ArialMT-68" transform="translate(1795.507812 0)"/>
      <use xlink:href="#ArialMT-69" transform="translate(1851.123047 0)"/>
      <use xlink:href="#ArialMT-63" transform="translate(1873.339844 0)"/>
      <use xlink:href="#ArialMT-6b" transform="translate(1923.339844 0)"/>
      <use xlink:href="#ArialMT-65" transform="translate(1973.339844 0)"/>
      <use xlink:href="#ArialMT-6e" transform="translate(2028.955078 0)"/>
      <use xlink:href="#ArialMT-20" transform="translate(2084.570312 0)"/>
      <use xlink:href="#ArialMT-45" transform="translate(2112.353516 0)"/>
      <use xlink:href="#ArialMT-78" transform="translate(2179.052734 0)"/>
      <use xlink:href="#ArialMT-63" transform="translate(2229.052734 0)"/>
      <use xlink:href="#ArialMT-6c" transform="translate(2279.052734 0)"/>
      <use xlink:href="#ArialMT-75" transform="translate(2301.269531 0)"/>
      <use xlink:href="#ArialMT-64" transform="translate(2356.884766 0)"/>
      <use xlink:href="#ArialMT-65" transform="translate(2412.5 0)"/>
      <use xlink:href="#ArialMT-64" transform="translate(2468.115234 0)"/>
      <use xlink:href="#ArialMT-29" transform="translate(2523.730469 0)"/>
     </g>
    </g>
   </g>
   <g id="matplotlib.axis_2">
    <g id="ytick_1">
     <g id="line2d_1">
      <path d="M 72 338.743611 
L 518.4 338.743611 
" clip-path="url(#p4740b5d98e)" style="fill: none; stroke: #ffffff; stroke-linecap: round"/>
     </g>
     <g id="text_4">
      <!-- 0 -->
      <g style="fill: #262626" transform="translate(56.382969 342.680408) scale(0.11 -0.11)">
       <defs>
        <path id="ArialMT-30" d="M 266 2259 
Q 266 3072 433 3567 
Q 600 4063 929 4331 
Q 1259 4600 1759 4600 
Q 2128 4600 2406 4451 
Q 2684 4303 2865 4023 
Q 3047 3744 3150 3342 
Q 3253 2941 3253 2259 
Q 3253 1453 3087 958 
Q 2922 463 2592 192 
Q 2263 -78 1759 -78 
Q 1097 -78 719 397 
Q 266 969 266 2259 
z
M 844 2259 
Q 844 1131 1108 757 
Q 1372 384 1759 384 
Q 2147 384 2411 759 
Q 2675 1134 2675 2259 
Q 2675 3391 2411 3762 
Q 2147 4134 1753 4134 
Q 1366 4134 1134 3806 
Q 844 3388 844 2259 
z
" transform="scale(0.015625)"/>
       </defs>
       <use xlink:href="#ArialMT-30"/>
      </g>
     </g>
    </g>
    <g id="ytick_2">
     <g id="line2d_2">
      <path d="M 72 280.755109 
L 518.4 280.755109 
" clip-path="url(#p4740b5d98e)" style="fill: none; stroke: #ffffff; stroke-linecap: round"/>
     </g>
     <g id="text_5">
      <!-- 50000 -->
      <g style="fill: #262626" transform="translate(31.914844 284.691906) scale(0.11 -0.11)">
       <defs>
        <path id="ArialMT-35" d="M 266 1200 
L 856 1250 
Q 922 819 1161 601 
Q 1400 384 1738 384 
Q 2144 384 2425 690 
Q 2706 997 2706 1503 
Q 2706 1984 2436 2262 
Q 2166 2541 1728 2541 
Q 1456 2541 1237 2417 
Q 1019 2294 894 2097 
L 366 2166 
L 809 4519 
L 3088 4519 
L 3088 3981 
L 1259 3981 
L 1013 2750 
Q 1425 3038 1878 3038 
Q 2478 3038 2890 2622 
Q 3303 2206 3303 1553 
Q 3303 931 2941 478 
Q 2500 -78 1738 -78 
Q 1113 -78 717 272 
Q 322 622 266 1200 
z
" transform="scale(0.015625)"/>
       </defs>
       <use xlink:href="#ArialMT-35"/>
       <use xlink:href="#ArialMT-30" transform="translate(55.615234 0)"/>
       <use xlink:href="#ArialMT-30" transform="translate(111.230469 0)"/>
       <use xlink:href="#ArialMT-30" transform="translate(166.845703 0)"/>
       <use xlink:href="#ArialMT-30" transform="translate(222.460938 0)"/>
      </g>
     </g>
    </g>
    <g id="ytick_3">
     <g id="line2d_3">
      <path d="M 72 222.766607 
L 518.4 222.766607 
" clip-path="url(#p4740b5d98e)" style="fill: none; stroke: #ffffff; stroke-linecap: round"/>
     </g>
     <g id="text_6">
      <!-- 100000 -->
      <g style="fill: #262626" transform="translate(25.797812 226.703403) scale(0.11 -0.11)">
       <defs>
        <path id="ArialMT-31" d="M 2384 0 
L 1822 0 
L 1822 3584 
Q 1619 3391 1289 3197 
Q 959 3003 697 2906 
L 697 3450 
Q 1169 3672 1522 3987 
Q 1875 4303 2022 4600 
L 2384 4600 
L 2384 0 
z
" transform="scale(0.015625)"/>
       </defs>
       <use xlink:href="#ArialMT-31"/>
       <use xlink:href="#ArialMT-30" transform="translate(55.615234 0)"/>
       <use xlink:href="#ArialMT-30" transform="translate(111.230469 0)"/>
       <use xlink:href="#ArialMT-30" transform="translate(166.845703 0)"/>
       <use xlink:href="#ArialMT-30" transform="translate(222.460938 0)"/>
       <use xlink:href="#ArialMT-30" transform="translate(278.076172 0)"/>
      </g>
     </g>
    </g>
    <g id="ytick_4">
     <g id="line2d_4">
      <path d="M 72 164.778104 
L 518.4 164.778104 
" clip-path="url(#p4740b5d98e)" style="fill: none; stroke: #ffffff; stroke-linecap: round"/>
     </g>
     <g id="text_7">
      <!-- 150000 -->
      <g style="fill: #262626" transform="translate(25.797812 168.714901) scale(0.11 -0.11)">
       <use xlink:href="#ArialMT-31"/>
       <use xlink:href="#ArialMT-35" transform="translate(55.615234 0)"/>
       <use xlink:href="#ArialMT-30" transform="translate(111.230469 0)"/>
       <use xlink:href="#ArialMT-30" transform="translate(166.845703 0)"/>
       <use xlink:href="#ArialMT-30" transform="translate(222.460938 0)"/>
       <use xlink:href="#ArialMT-30" transform="translate(278.076172 0)"/>
      </g>
     </g>
    </g>
    <g id="ytick_5">
     <g id="line2d_5">
      <path d="M 72 106.789602 
L 518.4 106.789602 
" clip-path="url(#p4740b5d98e)" style="fill: none; stroke: #ffffff; stroke-linecap: round"/>
     </g>
     <g id="text_8">
      <!-- 200000 -->
      <g style="fill: #262626" transform="translate(25.797812 110.726399) scale(0.11 -0.11)">
       <defs>
        <path id="ArialMT-32" d="M 3222 541 
L 3222 0 
L 194 0 
Q 188 203 259 391 
Q 375 700 629 1000 
Q 884 1300 1366 1694 
Q 2113 2306 2375 2664 
Q 2638 3022 2638 3341 
Q 2638 3675 2398 3904 
Q 2159 4134 1775 4134 
Q 1369 4134 1125 3890 
Q 881 3647 878 3216 
L 300 3275 
Q 359 3922 746 4261 
Q 1134 4600 1788 4600 
Q 2447 4600 2831 4234 
Q 3216 3869 3216 3328 
Q 3216 3053 3103 2787 
Q 2991 2522 2730 2228 
Q 2469 1934 1863 1422 
Q 1356 997 1212 845 
Q 1069 694 975 541 
L 3222 541 
z
" transform="scale(0.015625)"/>
       </defs>
       <use xlink:href="#ArialMT-32"/>
       <use xlink:href="#ArialMT-30" transform="translate(55.615234 0)"/>
       <use xlink:href="#ArialMT-30" transform="translate(111.230469 0)"/>
       <use xlink:href="#ArialMT-30" transform="translate(166.845703 0)"/>
       <use xlink:href="#ArialMT-30" transform="translate(222.460938 0)"/>
       <use xlink:href="#ArialMT-30" transform="translate(278.076172 0)"/>
      </g>
     </g>
    </g>
    <g id="text_9">
     <!-- Number of QC Hosts Reads -->
     <g style="fill: #262626" transform="translate(19.412812 292.84875) rotate(-90) scale(0.12 -0.12)">
      <defs>
       <path id="ArialMT-62" d="M 941 0 
L 419 0 
L 419 4581 
L 981 4581 
L 981 2947 
Q 1338 3394 1891 3394 
Q 2197 3394 2470 3270 
Q 2744 3147 2920 2923 
Q 3097 2700 3197 2384 
Q 3297 2069 3297 1709 
Q 3297 856 2875 390 
Q 2453 -75 1863 -75 
Q 1275 -75 941 416 
L 941 0 
z
M 934 1684 
Q 934 1088 1097 822 
Q 1363 388 1816 388 
Q 2184 388 2453 708 
Q 2722 1028 2722 1663 
Q 2722 2313 2464 2622 
Q 2206 2931 1841 2931 
Q 1472 2931 1203 2611 
Q 934 2291 934 1684 
z
" transform="scale(0.015625)"/>
       <path id="ArialMT-66" d="M 556 0 
L 556 2881 
L 59 2881 
L 59 3319 
L 556 3319 
L 556 3672 
Q 556 4006 616 4169 
Q 697 4388 901 4523 
Q 1106 4659 1475 4659 
Q 1713 4659 2000 4603 
L 1916 4113 
Q 1741 4144 1584 4144 
Q 1328 4144 1222 4034 
Q 1116 3925 1116 3625 
L 1116 3319 
L 1763 3319 
L 1763 2881 
L 1116 2881 
L 1116 0 
L 556 0 
z
" transform="scale(0.015625)"/>
       <path id="ArialMT-51" d="M 3966 491 
Q 4388 200 4744 66 
L 4566 -356 
Q 4072 -178 3581 206 
Q 3072 -78 2456 -78 
Q 1834 -78 1328 222 
Q 822 522 548 1065 
Q 275 1609 275 2291 
Q 275 2969 550 3525 
Q 825 4081 1333 4372 
Q 1841 4663 2469 4663 
Q 3103 4663 3612 4361 
Q 4122 4059 4389 3517 
Q 4656 2975 4656 2294 
Q 4656 1728 4484 1276 
Q 4313 825 3966 491 
z
M 2631 1266 
Q 3156 1119 3497 828 
Q 4031 1316 4031 2294 
Q 4031 2850 3842 3265 
Q 3653 3681 3289 3911 
Q 2925 4141 2472 4141 
Q 1794 4141 1347 3677 
Q 900 3213 900 2291 
Q 900 1397 1342 919 
Q 1784 441 2472 441 
Q 2797 441 3084 563 
Q 2800 747 2484 825 
L 2631 1266 
z
" transform="scale(0.015625)"/>
       <path id="ArialMT-48" d="M 513 0 
L 513 4581 
L 1119 4581 
L 1119 2700 
L 3500 2700 
L 3500 4581 
L 4106 4581 
L 4106 0 
L 3500 0 
L 3500 2159 
L 1119 2159 
L 1119 0 
L 513 0 
z
" transform="scale(0.015625)"/>
       <path id="ArialMT-52" d="M 503 0 
L 503 4581 
L 2534 4581 
Q 3147 4581 3465 4457 
Q 3784 4334 3975 4021 
Q 4166 3709 4166 3331 
Q 4166 2844 3850 2509 
Q 3534 2175 2875 2084 
Q 3116 1969 3241 1856 
Q 3506 1613 3744 1247 
L 4541 0 
L 3778 0 
L 3172 953 
Q 2906 1366 2734 1584 
Q 2563 1803 2427 1890 
Q 2291 1978 2150 2013 
Q 2047 2034 1813 2034 
L 1109 2034 
L 1109 0 
L 503 0 
z
M 1109 2559 
L 2413 2559 
Q 2828 2559 3062 2645 
Q 3297 2731 3419 2920 
Q 3541 3109 3541 3331 
Q 3541 3656 3305 3865 
Q 3069 4075 2559 4075 
L 1109 4075 
L 1109 2559 
z
" transform="scale(0.015625)"/>
      </defs>
      <use xlink:href="#ArialMT-4e"/>
      <use xlink:href="#ArialMT-75" transform="translate(72.216797 0)"/>
      <use xlink:href="#ArialMT-6d" transform="translate(127.832031 0)"/>
      <use xlink:href="#ArialMT-62" transform="translate(211.132812 0)"/>
      <use xlink:href="#ArialMT-65" transform="translate(266.748047 0)"/>
      <use xlink:href="#ArialMT-72" transform="translate(322.363281 0)"/>
      <use xlink:href="#ArialMT-20" transform="translate(355.664062 0)"/>
      <use xlink:href="#ArialMT-6f" transform="translate(383.447266 0)"/>
      <use xlink:href="#ArialMT-66" transform="translate(439.0625 0)"/>
      <use xlink:href="#ArialMT-20" transform="translate(466.845703 0)"/>
      <use xlink:href="#ArialMT-51" transform="translate(494.628906 0)"/>
      <use xlink:href="#ArialMT-43" transform="translate(572.412109 0)"/>
      <use xlink:href="#ArialMT-20" transform="translate(644.628906 0)"/>
      <use xlink:href="#ArialMT-48" transform="translate(672.412109 0)"/>
      <use xlink:href="#ArialMT-6f" transform="translate(744.628906 0)"/>
      <use xlink:href="#ArialMT-73" transform="translate(800.244141 0)"/>
      <use xlink:href="#ArialMT-74" transform="translate(850.244141 0)"/>
      <use xlink:href="#ArialMT-73" transform="translate(878.027344 0)"/>
      <use xlink:href="#ArialMT-20" transform="translate(928.027344 0)"/>
      <use xlink:href="#ArialMT-52" transform="translate(955.810547 0)"/>
      <use xlink:href="#ArialMT-65" transform="translate(1028.027344 0)"/>
      <use xlink:href="#ArialMT-61" transform="translate(1083.642578 0)"/>
      <use xlink:href="#ArialMT-64" transform="translate(1139.257812 0)"/>
      <use xlink:href="#ArialMT-73" transform="translate(1194.873047 0)"/>
     </g>
    </g>
   </g>
   <g id="FillBetweenPolyCollection_1">
    <defs>
     <path id="m64a0c9bd76" d="M 187.423217 -62.64 
L 179.776783 -62.64 
L 178.501584 -65.694545 
L 176.920396 -68.749091 
L 175.001349 -71.803636 
L 172.722234 -74.858182 
L 170.074363 -77.912727 
L 167.065932 -80.967273 
L 163.724344 -84.021818 
L 160.096954 -87.076364 
L 156.249825 -90.130909 
L 152.264284 -93.185455 
L 148.231332 -96.24 
L 144.244328 -99.294545 
L 140.390641 -102.349091 
L 136.743259 -105.403636 
L 133.35345 -108.458182 
L 130.245573 -111.512727 
L 127.414918 -114.567273 
L 124.829109 -117.621818 
L 122.433113 -120.676364 
L 120.157386 -123.730909 
L 117.928202 -126.785455 
L 115.678839 -129.84 
L 113.360124 -132.894545 
L 110.948888 -135.949091 
L 108.453143 -139.003636 
L 105.913256 -142.058182 
L 103.398947 -145.112727 
L 101.002531 -148.167273 
L 98.829341 -151.221818 
L 96.986644 -154.276364 
L 95.572496 -157.330909 
L 94.665987 -160.385455 
L 94.32 -163.44 
L 94.55727 -166.494545 
L 95.369983 -169.549091 
L 96.722699 -172.603636 
L 98.557951 -175.658182 
L 100.803559 -178.712727 
L 103.380593 -181.767273 
L 106.210907 -184.821818 
L 109.223381 -187.876364 
L 112.358245 -190.930909 
L 115.569235 -193.985455 
L 118.823623 -197.04 
L 122.100475 -200.094545 
L 125.387682 -203.149091 
L 128.67839 -206.203636 
L 131.967449 -209.258182 
L 135.248412 -212.312727 
L 138.511408 -215.367273 
L 141.742079 -218.421818 
L 144.921541 -221.476364 
L 148.027223 -224.530909 
L 151.03432 -227.585455 
L 153.917578 -230.64 
L 156.65315 -233.694545 
L 159.220275 -236.749091 
L 161.602652 -239.803636 
L 163.789388 -242.858182 
L 165.775482 -245.912727 
L 167.561847 -248.967273 
L 169.154886 -252.021818 
L 170.565672 -255.076364 
L 171.808799 -258.130909 
L 172.90101 -261.185455 
L 173.859712 -264.24 
L 174.701545 -267.294545 
L 175.441144 -270.349091 
L 176.090244 -273.403636 
L 176.657256 -276.458182 
L 177.14735 -279.512727 
L 177.563046 -282.567273 
L 177.905238 -285.621818 
L 178.174466 -288.676364 
L 178.372285 -291.730909 
L 178.50248 -294.785455 
L 178.57196 -297.84 
L 178.59117 -300.894545 
L 178.573946 -303.949091 
L 178.536831 -307.003636 
L 178.497917 -310.058182 
L 178.475388 -313.112727 
L 178.485947 -316.167273 
L 178.543344 -319.221818 
L 178.657196 -322.276364 
L 178.832238 -325.330909 
L 179.068092 -328.385455 
L 179.359565 -331.44 
L 179.697399 -334.494545 
L 180.069369 -337.549091 
L 180.461574 -340.603636 
L 180.859749 -343.658182 
L 181.250459 -346.712727 
L 181.62206 -349.767273 
L 181.965353 -352.821818 
L 182.273905 -355.876364 
L 182.544071 -358.930909 
L 182.774756 -361.985455 
L 182.967004 -365.04 
L 184.232996 -365.04 
L 184.232996 -365.04 
L 184.425244 -361.985455 
L 184.655929 -358.930909 
L 184.926095 -355.876364 
L 185.234647 -352.821818 
L 185.57794 -349.767273 
L 185.949541 -346.712727 
L 186.340251 -343.658182 
L 186.738426 -340.603636 
L 187.130631 -337.549091 
L 187.502601 -334.494545 
L 187.840435 -331.44 
L 188.131908 -328.385455 
L 188.367762 -325.330909 
L 188.542804 -322.276364 
L 188.656656 -319.221818 
L 188.714053 -316.167273 
L 188.724612 -313.112727 
L 188.702083 -310.058182 
L 188.663169 -307.003636 
L 188.626054 -303.949091 
L 188.60883 -300.894545 
L 188.62804 -297.84 
L 188.69752 -294.785455 
L 188.827715 -291.730909 
L 189.025534 -288.676364 
L 189.294762 -285.621818 
L 189.636954 -282.567273 
L 190.05265 -279.512727 
L 190.542744 -276.458182 
L 191.109756 -273.403636 
L 191.758856 -270.349091 
L 192.498455 -267.294545 
L 193.340288 -264.24 
L 194.29899 -261.185455 
L 195.391201 -258.130909 
L 196.634328 -255.076364 
L 198.045114 -252.021818 
L 199.638153 -248.967273 
L 201.424518 -245.912727 
L 203.410612 -242.858182 
L 205.597348 -239.803636 
L 207.979725 -236.749091 
L 210.54685 -233.694545 
L 213.282422 -230.64 
L 216.16568 -227.585455 
L 219.172777 -224.530909 
L 222.278459 -221.476364 
L 225.457921 -218.421818 
L 228.688592 -215.367273 
L 231.951588 -212.312727 
L 235.232551 -209.258182 
L 238.52161 -206.203636 
L 241.812318 -203.149091 
L 245.099525 -200.094545 
L 248.376377 -197.04 
L 251.630765 -193.985455 
L 254.841755 -190.930909 
L 257.976619 -187.876364 
L 260.989093 -184.821818 
L 263.819407 -181.767273 
L 266.396441 -178.712727 
L 268.642049 -175.658182 
L 270.477301 -172.603636 
L 271.830017 -169.549091 
L 272.64273 -166.494545 
L 272.88 -163.44 
L 272.534013 -160.385455 
L 271.627504 -157.330909 
L 270.213356 -154.276364 
L 268.370659 -151.221818 
L 266.197469 -148.167273 
L 263.801053 -145.112727 
L 261.286744 -142.058182 
L 258.746857 -139.003636 
L 256.251112 -135.949091 
L 253.839876 -132.894545 
L 251.521161 -129.84 
L 249.271798 -126.785455 
L 247.042614 -123.730909 
L 244.766887 -120.676364 
L 242.370891 -117.621818 
L 239.785082 -114.567273 
L 236.954427 -111.512727 
L 233.84655 -108.458182 
L 230.456741 -105.403636 
L 226.809359 -102.349091 
L 222.955672 -99.294545 
L 218.968668 -96.24 
L 214.935716 -93.185455 
L 210.950175 -90.130909 
L 207.103046 -87.076364 
L 203.475656 -84.021818 
L 200.134068 -80.967273 
L 197.125637 -77.912727 
L 194.477766 -74.858182 
L 192.198651 -71.803636 
L 190.279604 -68.749091 
L 188.698416 -65.694545 
L 187.423217 -62.64 
z
" style="stroke: #4c4c4c; stroke-width: 1.25"/>
    </defs>
    <g clip-path="url(#p4740b5d98e)">
     <use xlink:href="#m64a0c9bd76" x="0" y="432" style="fill: #5875a4; stroke: #4c4c4c; stroke-width: 1.25"/>
    </g>
   </g>
   <g id="FillBetweenPolyCollection_2">
    <defs>
     <path id="mec84e90be1" d="M 413.988943 -90.946439 
L 399.611057 -90.946439 
L 398.308371 -91.21072 
L 396.828099 -91.475 
L 395.157897 -91.739281 
L 393.286832 -92.003562 
L 391.205867 -92.267842 
L 388.908375 -92.532123 
L 386.390642 -92.796404 
L 383.652368 -93.060684 
L 380.697121 -93.324965 
L 377.532742 -93.589246 
L 374.171669 -93.853527 
L 370.631166 -94.117807 
L 366.933429 -94.382088 
L 363.105571 -94.646369 
L 359.179452 -94.910649 
L 355.191363 -95.17493 
L 351.181556 -95.439211 
L 347.193629 -95.703491 
L 343.273769 -95.967772 
L 339.469875 -96.232053 
L 335.830585 -96.496333 
L 332.404232 -96.760614 
L 329.237754 -97.024895 
L 326.375606 -97.289175 
L 323.858697 -97.553456 
L 321.723393 -97.817737 
L 320.000621 -98.082018 
L 318.71509 -98.346298 
L 317.884682 -98.610579 
L 317.52 -98.87486 
L 317.624117 -99.13914 
L 318.192509 -99.403421 
L 319.213184 -99.667702 
L 320.667003 -99.931982 
L 322.52816 -100.196263 
L 324.764833 -100.460544 
L 327.33995 -100.724824 
L 330.212065 -100.989105 
L 333.33631 -101.253386 
L 336.665385 -101.517666 
L 340.150568 -101.781947 
L 343.742711 -102.046228 
L 347.393196 -102.310509 
L 351.054835 -102.574789 
L 354.682686 -102.83907 
L 358.234778 -103.103351 
L 361.672734 -103.367631 
L 364.962283 -103.631912 
L 368.073661 -103.896193 
L 370.981892 -104.160473 
L 373.666975 -104.424754 
L 376.113953 -104.689035 
L 378.312894 -104.953315 
L 380.258779 -105.217596 
L 381.951314 -105.481877 
L 383.394664 -105.746157 
L 384.597135 -106.010438 
L 385.570788 -106.274719 
L 386.331019 -106.539 
L 386.896096 -106.80328 
L 387.286666 -107.067561 
L 387.525236 -107.331842 
L 387.63565 -107.596122 
L 387.642552 -107.860403 
L 387.57085 -108.124684 
L 387.445204 -108.388964 
L 387.289517 -108.653245 
L 387.126478 -108.917526 
L 386.977127 -109.181806 
L 386.860484 -109.446087 
L 386.793227 -109.710368 
L 386.789438 -109.974648 
L 386.860427 -110.238929 
L 387.014617 -110.50321 
L 387.25752 -110.767491 
L 387.591783 -111.031771 
L 388.017304 -111.296052 
L 388.531421 -111.560333 
L 389.129157 -111.824613 
L 389.803515 -112.088894 
L 390.545814 -112.353175 
L 391.346047 -112.617455 
L 392.193257 -112.881736 
L 393.075905 -113.146017 
L 393.982236 -113.410297 
L 394.900619 -113.674578 
L 395.819847 -113.938859 
L 396.729407 -114.20314 
L 397.619699 -114.46742 
L 398.482208 -114.731701 
L 399.309622 -114.995982 
L 400.095905 -115.260262 
L 400.83632 -115.524543 
L 401.527412 -115.788824 
L 402.166953 -116.053104 
L 402.753855 -116.317385 
L 403.288062 -116.581666 
L 403.770424 -116.845946 
L 404.202558 -117.110227 
L 409.397442 -117.110227 
L 409.397442 -117.110227 
L 409.829576 -116.845946 
L 410.311938 -116.581666 
L 410.846145 -116.317385 
L 411.433047 -116.053104 
L 412.072588 -115.788824 
L 412.76368 -115.524543 
L 413.504095 -115.260262 
L 414.290378 -114.995982 
L 415.117792 -114.731701 
L 415.980301 -114.46742 
L 416.870593 -114.20314 
L 417.780153 -113.938859 
L 418.699381 -113.674578 
L 419.617764 -113.410297 
L 420.524095 -113.146017 
L 421.406743 -112.881736 
L 422.253953 -112.617455 
L 423.054186 -112.353175 
L 423.796485 -112.088894 
L 424.470843 -111.824613 
L 425.068579 -111.560333 
L 425.582696 -111.296052 
L 426.008217 -111.031771 
L 426.34248 -110.767491 
L 426.585383 -110.50321 
L 426.739573 -110.238929 
L 426.810562 -109.974648 
L 426.806773 -109.710368 
L 426.739516 -109.446087 
L 426.622873 -109.181806 
L 426.473522 -108.917526 
L 426.310483 -108.653245 
L 426.154796 -108.388964 
L 426.02915 -108.124684 
L 425.957448 -107.860403 
L 425.96435 -107.596122 
L 426.074764 -107.331842 
L 426.313334 -107.067561 
L 426.703904 -106.80328 
L 427.268981 -106.539 
L 428.029212 -106.274719 
L 429.002865 -106.010438 
L 430.205336 -105.746157 
L 431.648686 -105.481877 
L 433.341221 -105.217596 
L 435.287106 -104.953315 
L 437.486047 -104.689035 
L 439.933025 -104.424754 
L 442.618108 -104.160473 
L 445.526339 -103.896193 
L 448.637717 -103.631912 
L 451.927266 -103.367631 
L 455.365222 -103.103351 
L 458.917314 -102.83907 
L 462.545165 -102.574789 
L 466.206804 -102.310509 
L 469.857289 -102.046228 
L 473.449432 -101.781947 
L 476.934615 -101.517666 
L 480.26369 -101.253386 
L 483.387935 -100.989105 
L 486.26005 -100.724824 
L 488.835167 -100.460544 
L 491.07184 -100.196263 
L 492.932997 -99.931982 
L 494.386816 -99.667702 
L 495.407491 -99.403421 
L 495.975883 -99.13914 
L 496.08 -98.87486 
L 495.715318 -98.610579 
L 494.88491 -98.346298 
L 493.599379 -98.082018 
L 491.876607 -97.817737 
L 489.741303 -97.553456 
L 487.224394 -97.289175 
L 484.362246 -97.024895 
L 481.195768 -96.760614 
L 477.769415 -96.496333 
L 474.130125 -96.232053 
L 470.326231 -95.967772 
L 466.406371 -95.703491 
L 462.418444 -95.439211 
L 458.408637 -95.17493 
L 454.420548 -94.910649 
L 450.494429 -94.646369 
L 446.666571 -94.382088 
L 442.968834 -94.117807 
L 439.428331 -93.853527 
L 436.067258 -93.589246 
L 432.902879 -93.324965 
L 429.947632 -93.060684 
L 427.209358 -92.796404 
L 424.691625 -92.532123 
L 422.394133 -92.267842 
L 420.313168 -92.003562 
L 418.442103 -91.739281 
L 416.771901 -91.475 
L 415.291629 -91.21072 
L 413.988943 -90.946439 
z
" style="stroke: #4c4c4c; stroke-width: 1.25"/>
    </defs>
    <g clip-path="url(#p4740b5d98e)">
     <use xlink:href="#mec84e90be1" x="0" y="432" style="fill: #cc8963; stroke: #4c4c4c; stroke-width: 1.25"/>
    </g>
   </g>
   <g id="line2d_6">
    <path d="M 183.6 324.825211 
L 183.6 196.074499 
" clip-path="url(#p4740b5d98e)" style="fill: none; stroke: #4c4c4c; stroke-width: 1.875; stroke-linecap: round"/>
   </g>
   <g id="line2d_7">
    <path d="M 183.6 288.236496 
L 183.6 239.195039 
" clip-path="url(#p4740b5d98e)" style="fill: none; stroke: #4c4c4c; stroke-width: 5.625; stroke-linecap: round"/>
   </g>
   <g id="line2d_8">
    <path d="M 183.6 267.065183 
" clip-path="url(#p4740b5d98e)" style="fill: none; stroke: #4c4c4c; stroke-width: 1.5; stroke-linecap: round"/>
    <defs>
     <path id="m8f28d3b86d" d="M 2.34375 0 
L -2.34375 -0 
" style="stroke: #ffffff; stroke-width: 1.125"/>
    </defs>
    <g clip-path="url(#p4740b5d98e)">
     <use xlink:href="#m8f28d3b86d" x="183.6" y="267.065183" style="fill: #ffffff; stroke: #ffffff; stroke-width: 1.125"/>
    </g>
   </g>
   <g id="line2d_9">
    <path d="M 406.8 334.317929 
L 406.8 330.786429 
" clip-path="url(#p4740b5d98e)" style="fill: none; stroke: #4c4c4c; stroke-width: 1.875; stroke-linecap: round"/>
   </g>
   <g id="line2d_10">
    <path d="M 406.8 333.869098 
L 406.8 331.148857 
" clip-path="url(#p4740b5d98e)" style="fill: none; stroke: #4c4c4c; stroke-width: 5.625; stroke-linecap: round"/>
   </g>
   <g id="line2d_11">
    <path d="M 406.8 332.94824 
" clip-path="url(#p4740b5d98e)" style="fill: none; stroke: #4c4c4c; stroke-width: 1.5; stroke-linecap: round"/>
    <g clip-path="url(#p4740b5d98e)">
     <use xlink:href="#m8f28d3b86d" x="406.8" y="332.94824" style="fill: #ffffff; stroke: #ffffff; stroke-width: 1.125"/>
    </g>
   </g>
   <g id="patch_3">
    <path d="M 72 384.48 
L 72 51.84 
" style="fill: none; stroke: #ffffff; stroke-width: 1.25; stroke-linejoin: miter; stroke-linecap: square"/>
   </g>
   <g id="patch_4">
    <path d="M 518.4 384.48 
L 518.4 51.84 
" style="fill: none; stroke: #ffffff; stroke-width: 1.25; stroke-linejoin: miter; stroke-linecap: square"/>
   </g>
   <g id="patch_5">
    <path d="M 72 384.48 
L 518.4 384.48 
" style="fill: none; stroke: #ffffff; stroke-width: 1.25; stroke-linejoin: miter; stroke-linecap: square"/>
   </g>
   <g id="patch_6">
    <path d="M 72 51.84 
L 518.4 51.84 
" style="fill: none; stroke: #ffffff; stroke-width: 1.25; stroke-linejoin: miter; stroke-linecap: square"/>
   </g>
   <g id="text_10">
    <!-- Number of QC Hosts Reads vs Adaptive sampling during sequencing (Host Excluded) -->
    <g style="fill: #262626" transform="translate(67.434375 45.84) scale(0.12 -0.12)">
     <use xlink:href="#ArialMT-4e"/>
     <use xlink:href="#ArialMT-75" transform="translate(72.216797 0)"/>
     <use xlink:href="#ArialMT-6d" transform="translate(127.832031 0)"/>
     <use xlink:href="#ArialMT-62" transform="translate(211.132812 0)"/>
     <use xlink:href="#ArialMT-65" transform="translate(266.748047 0)"/>
     <use xlink:href="#ArialMT-72" transform="translate(322.363281 0)"/>
     <use xlink:href="#ArialMT-20" transform="translate(355.664062 0)"/>
     <use xlink:href="#ArialMT-6f" transform="translate(383.447266 0)"/>
     <use xlink:href="#ArialMT-66" transform="translate(439.0625 0)"/>
     <use xlink:href="#ArialMT-20" transform="translate(466.845703 0)"/>
     <use xlink:href="#ArialMT-51" transform="translate(494.628906 0)"/>
     <use xlink:href="#ArialMT-43" transform="translate(572.412109 0)"/>
     <use xlink:href="#ArialMT-20" transform="translate(644.628906 0)"/>
     <use xlink:href="#ArialMT-48" transform="translate(672.412109 0)"/>
     <use xlink:href="#ArialMT-6f" transform="translate(744.628906 0)"/>
     <use xlink:href="#ArialMT-73" transform="translate(800.244141 0)"/>
     <use xlink:href="#ArialMT-74" transform="translate(850.244141 0)"/>
     <use xlink:href="#ArialMT-73" transform="translate(878.027344 0)"/>
     <use xlink:href="#ArialMT-20" transform="translate(928.027344 0)"/>
     <use xlink:href="#ArialMT-52" transform="translate(955.810547 0)"/>
     <use xlink:href="#ArialMT-65" transform="translate(1028.027344 0)"/>
     <use xlink:href="#ArialMT-61" transform="translate(1083.642578 0)"/>
     <use xlink:href="#ArialMT-64" transform="translate(1139.257812 0)"/>
     <use xlink:href="#ArialMT-73" transform="translate(1194.873047 0)"/>
     <use xlink:href="#ArialMT-20" transform="translate(1244.873047 0)"/>
     <use xlink:href="#ArialMT-76" transform="translate(1272.65625 0)"/>
     <use xlink:href="#ArialMT-73" transform="translate(1322.65625 0)"/>
     <use xlink:href="#ArialMT-20" transform="translate(1372.65625 0)"/>
     <use xlink:href="#ArialMT-41" transform="translate(1394.939453 0)"/>
     <use xlink:href="#ArialMT-64" transform="translate(1461.638672 0)"/>
     <use xlink:href="#ArialMT-61" transform="translate(1517.253906 0)"/>
     <use xlink:href="#ArialMT-70" transform="translate(1572.869141 0)"/>
     <use xlink:href="#ArialMT-74" transform="translate(1628.484375 0)"/>
     <use xlink:href="#ArialMT-69" transform="translate(1656.267578 0)"/>
     <use xlink:href="#ArialMT-76" transform="translate(1678.484375 0)"/>
     <use xlink:href="#ArialMT-65" transform="translate(1728.484375 0)"/>
     <use xlink:href="#ArialMT-20" transform="translate(1784.099609 0)"/>
     <use xlink:href="#ArialMT-73" transform="translate(1811.882812 0)"/>
     <use xlink:href="#ArialMT-61" transform="translate(1861.882812 0)"/>
     <use xlink:href="#ArialMT-6d" transform="translate(1917.498047 0)"/>
     <use xlink:href="#ArialMT-70" transform="translate(2000.798828 0)"/>
     <use xlink:href="#ArialMT-6c" transform="translate(2056.414062 0)"/>
     <use xlink:href="#ArialMT-69" transform="translate(2078.630859 0)"/>
     <use xlink:href="#ArialMT-6e" transform="translate(2100.847656 0)"/>
     <use xlink:href="#ArialMT-67" transform="translate(2156.462891 0)"/>
     <use xlink:href="#ArialMT-20" transform="translate(2212.078125 0)"/>
     <use xlink:href="#ArialMT-64" transform="translate(2239.861328 0)"/>
     <use xlink:href="#ArialMT-75" transform="translate(2295.476562 0)"/>
     <use xlink:href="#ArialMT-72" transform="translate(2351.091797 0)"/>
     <use xlink:href="#ArialMT-69" transform="translate(2384.392578 0)"/>
     <use xlink:href="#ArialMT-6e" transform="translate(2406.609375 0)"/>
     <use xlink:href="#ArialMT-67" transform="translate(2462.224609 0)"/>
     <use xlink:href="#ArialMT-20" transform="translate(2517.839844 0)"/>
     <use xlink:href="#ArialMT-73" transform="translate(2545.623047 0)"/>
     <use xlink:href="#ArialMT-65" transform="translate(2595.623047 0)"/>
     <use xlink:href="#ArialMT-71" transform="translate(2651.238281 0)"/>
     <use xlink:href="#ArialMT-75" transform="translate(2706.853516 0)"/>
     <use xlink:href="#ArialMT-65" transform="translate(2762.46875 0)"/>
     <use xlink:href="#ArialMT-6e" transform="translate(2818.083984 0)"/>
     <use xlink:href="#ArialMT-63" transform="translate(2873.699219 0)"/>
     <use xlink:href="#ArialMT-69" transform="translate(2923.699219 0)"/>
     <use xlink:href="#ArialMT-6e" transform="translate(2945.916016 0)"/>
     <use xlink:href="#ArialMT-67" transform="translate(3001.53125 0)"/>
     <use xlink:href="#ArialMT-20" transform="translate(3057.146484 0)"/>
     <use xlink:href="#ArialMT-28" transform="translate(3084.929688 0)"/>
     <use xlink:href="#ArialMT-48" transform="translate(3118.230469 0)"/>
     <use xlink:href="#ArialMT-6f" transform="translate(3190.447266 0)"/>
     <use xlink:href="#ArialMT-73" transform="translate(3246.0625 0)"/>
     <use xlink:href="#ArialMT-74" transform="translate(3296.0625 0)"/>
     <use xlink:href="#ArialMT-20" transform="translate(3323.845703 0)"/>
     <use xlink:href="#ArialMT-45" transform="translate(3351.628906 0)"/>
     <use xlink:href="#ArialMT-78" transform="translate(3418.328125 0)"/>
     <use xlink:href="#ArialMT-63" transform="translate(3468.328125 0)"/>
     <use xlink:href="#ArialMT-6c" transform="translate(3518.328125 0)"/>
     <use xlink:href="#ArialMT-75" transform="translate(3540.544922 0)"/>
     <use xlink:href="#ArialMT-64" transform="translate(3596.160156 0)"/>
     <use xlink:href="#ArialMT-65" transform="translate(3651.775391 0)"/>
     <use xlink:href="#ArialMT-64" transform="translate(3707.390625 0)"/>
     <use xlink:href="#ArialMT-29" transform="translate(3763.005859 0)"/>
    </g>
   </g>
  </g>
 </g>
 <defs>
  <clipPath id="p4740b5d98e">
   <rect x="72" y="51.84" width="446.4" height="332.64"/>
  </clipPath>
 </defs>
</svg>
