<?xml version="1.0" encoding="utf-8" standalone="no"?>
<!DOCTYPE svg PUBLIC "-//W3C//DTD SVG 1.1//EN"
  "http://www.w3.org/Graphics/SVG/1.1/DTD/svg11.dtd">
<svg xmlns:xlink="http://www.w3.org/1999/xlink" width="576pt" height="432pt" viewBox="0 0 576 432" xmlns="http://www.w3.org/2000/svg" version="1.1">
 <metadata>
  <rdf:RDF xmlns:dc="http://purl.org/dc/elements/1.1/" xmlns:cc="http://creativecommons.org/ns#" xmlns:rdf="http://www.w3.org/1999/02/22-rdf-syntax-ns#">
   <cc:Work>
    <dc:type rdf:resource="http://purl.org/dc/dcmitype/StillImage"/>
    <dc:date>2025-01-20T14:46:17.256852</dc:date>
    <dc:format>image/svg+xml</dc:format>
    <dc:creator>
     <cc:Agent>
      <dc:title>Matplotlib v3.10.0, https://matplotlib.org/</dc:title>
     </cc:Agent>
    </dc:creator>
   </cc:Work>
  </rdf:RDF>
 </metadata>
 <defs>
  <style type="text/css">*{stroke-linejoin: round; stroke-linecap: butt}</style>
 </defs>
 <g id="figure_1">
  <g id="patch_1">
   <path d="M 0 432 
L 576 432 
L 576 0 
L 0 0 
z
" style="fill: #ffffff"/>
  </g>
  <g id="axes_1">
   <g id="patch_2">
    <path d="M 72 384.48 
L 518.4 384.48 
L 518.4 51.84 
L 72 51.84 
z
" style="fill: #eaeaf2"/>
   </g>
   <g id="matplotlib.axis_1">
    <g id="xtick_1">
     <g id="text_1">
      <!-- No -->
      <g style="fill: #262626" transform="translate(176.569453 401.853594) scale(0.11 -0.11)">
       <defs>
        <path id="ArialMT-4e" d="M 488 0 
L 488 4581 
L 1109 4581 
L 3516 984 
L 3516 4581 
L 4097 4581 
L 4097 0 
L 3475 0 
L 1069 3600 
L 1069 0 
L 488 0 
z
" transform="scale(0.015625)"/>
        <path id="ArialMT-6f" d="M 213 1659 
Q 213 2581 725 3025 
Q 1153 3394 1769 3394 
Q 2453 3394 2887 2945 
Q 3322 2497 3322 1706 
Q 3322 1066 3130 698 
Q 2938 331 2570 128 
Q 2203 -75 1769 -75 
Q 1072 -75 642 372 
Q 213 819 213 1659 
z
M 791 1659 
Q 791 1022 1069 705 
Q 1347 388 1769 388 
Q 2188 388 2466 706 
Q 2744 1025 2744 1678 
Q 2744 2294 2464 2611 
Q 2184 2928 1769 2928 
Q 1347 2928 1069 2612 
Q 791 2297 791 1659 
z
" transform="scale(0.015625)"/>
       </defs>
       <use xlink:href="#ArialMT-4e"/>
       <use xlink:href="#ArialMT-6f" transform="translate(72.216797 0)"/>
      </g>
     </g>
    </g>
    <g id="xtick_2">
     <g id="text_2">
      <!-- Yes -->
      <g style="fill: #262626" transform="translate(397.824687 401.853594) scale(0.11 -0.11)">
       <defs>
        <path id="ArialMT-59" d="M 1784 0 
L 1784 1941 
L 19 4581 
L 756 4581 
L 1659 3200 
Q 1909 2813 2125 2425 
Q 2331 2784 2625 3234 
L 3513 4581 
L 4219 4581 
L 2391 1941 
L 2391 0 
L 1784 0 
z
" transform="scale(0.015625)"/>
        <path id="ArialMT-65" d="M 2694 1069 
L 3275 997 
Q 3138 488 2766 206 
Q 2394 -75 1816 -75 
Q 1088 -75 661 373 
Q 234 822 234 1631 
Q 234 2469 665 2931 
Q 1097 3394 1784 3394 
Q 2450 3394 2872 2941 
Q 3294 2488 3294 1666 
Q 3294 1616 3291 1516 
L 816 1516 
Q 847 969 1125 678 
Q 1403 388 1819 388 
Q 2128 388 2347 550 
Q 2566 713 2694 1069 
z
M 847 1978 
L 2700 1978 
Q 2663 2397 2488 2606 
Q 2219 2931 1791 2931 
Q 1403 2931 1139 2672 
Q 875 2413 847 1978 
z
" transform="scale(0.015625)"/>
        <path id="ArialMT-73" d="M 197 991 
L 753 1078 
Q 800 744 1014 566 
Q 1228 388 1613 388 
Q 2000 388 2187 545 
Q 2375 703 2375 916 
Q 2375 1106 2209 1216 
Q 2094 1291 1634 1406 
Q 1016 1563 777 1677 
Q 538 1791 414 1992 
Q 291 2194 291 2438 
Q 291 2659 392 2848 
Q 494 3038 669 3163 
Q 800 3259 1026 3326 
Q 1253 3394 1513 3394 
Q 1903 3394 2198 3281 
Q 2494 3169 2634 2976 
Q 2775 2784 2828 2463 
L 2278 2388 
Q 2241 2644 2061 2787 
Q 1881 2931 1553 2931 
Q 1166 2931 1000 2803 
Q 834 2675 834 2503 
Q 834 2394 903 2306 
Q 972 2216 1119 2156 
Q 1203 2125 1616 2013 
Q 2213 1853 2448 1751 
Q 2684 1650 2818 1456 
Q 2953 1263 2953 975 
Q 2953 694 2789 445 
Q 2625 197 2315 61 
Q 2006 -75 1616 -75 
Q 969 -75 630 194 
Q 291 463 197 991 
z
" transform="scale(0.015625)"/>
       </defs>
       <use xlink:href="#ArialMT-59"/>
       <use xlink:href="#ArialMT-65" transform="translate(57.574219 0)"/>
       <use xlink:href="#ArialMT-73" transform="translate(113.189453 0)"/>
      </g>
     </g>
    </g>
    <g id="text_3">
     <!-- Adaptive sampling during sequencing (Chicken Excluded) -->
     <g style="fill: #262626" transform="translate(141.7875 416.775469) scale(0.12 -0.12)">
      <defs>
       <path id="ArialMT-41" d="M -9 0 
L 1750 4581 
L 2403 4581 
L 4278 0 
L 3588 0 
L 3053 1388 
L 1138 1388 
L 634 0 
L -9 0 
z
M 1313 1881 
L 2866 1881 
L 2388 3150 
Q 2169 3728 2063 4100 
Q 1975 3659 1816 3225 
L 1313 1881 
z
" transform="scale(0.015625)"/>
       <path id="ArialMT-64" d="M 2575 0 
L 2575 419 
Q 2259 -75 1647 -75 
Q 1250 -75 917 144 
Q 584 363 401 755 
Q 219 1147 219 1656 
Q 219 2153 384 2558 
Q 550 2963 881 3178 
Q 1213 3394 1622 3394 
Q 1922 3394 2156 3267 
Q 2391 3141 2538 2938 
L 2538 4581 
L 3097 4581 
L 3097 0 
L 2575 0 
z
M 797 1656 
Q 797 1019 1065 703 
Q 1334 388 1700 388 
Q 2069 388 2326 689 
Q 2584 991 2584 1609 
Q 2584 2291 2321 2609 
Q 2059 2928 1675 2928 
Q 1300 2928 1048 2622 
Q 797 2316 797 1656 
z
" transform="scale(0.015625)"/>
       <path id="ArialMT-61" d="M 2588 409 
Q 2275 144 1986 34 
Q 1697 -75 1366 -75 
Q 819 -75 525 192 
Q 231 459 231 875 
Q 231 1119 342 1320 
Q 453 1522 633 1644 
Q 813 1766 1038 1828 
Q 1203 1872 1538 1913 
Q 2219 1994 2541 2106 
Q 2544 2222 2544 2253 
Q 2544 2597 2384 2738 
Q 2169 2928 1744 2928 
Q 1347 2928 1158 2789 
Q 969 2650 878 2297 
L 328 2372 
Q 403 2725 575 2942 
Q 747 3159 1072 3276 
Q 1397 3394 1825 3394 
Q 2250 3394 2515 3294 
Q 2781 3194 2906 3042 
Q 3031 2891 3081 2659 
Q 3109 2516 3109 2141 
L 3109 1391 
Q 3109 606 3145 398 
Q 3181 191 3288 0 
L 2700 0 
Q 2613 175 2588 409 
z
M 2541 1666 
Q 2234 1541 1622 1453 
Q 1275 1403 1131 1340 
Q 988 1278 909 1158 
Q 831 1038 831 891 
Q 831 666 1001 516 
Q 1172 366 1500 366 
Q 1825 366 2078 508 
Q 2331 650 2450 897 
Q 2541 1088 2541 1459 
L 2541 1666 
z
" transform="scale(0.015625)"/>
       <path id="ArialMT-70" d="M 422 -1272 
L 422 3319 
L 934 3319 
L 934 2888 
Q 1116 3141 1344 3267 
Q 1572 3394 1897 3394 
Q 2322 3394 2647 3175 
Q 2972 2956 3137 2557 
Q 3303 2159 3303 1684 
Q 3303 1175 3120 767 
Q 2938 359 2589 142 
Q 2241 -75 1856 -75 
Q 1575 -75 1351 44 
Q 1128 163 984 344 
L 984 -1272 
L 422 -1272 
z
M 931 1641 
Q 931 1000 1190 694 
Q 1450 388 1819 388 
Q 2194 388 2461 705 
Q 2728 1022 2728 1688 
Q 2728 2322 2467 2637 
Q 2206 2953 1844 2953 
Q 1484 2953 1207 2617 
Q 931 2281 931 1641 
z
" transform="scale(0.015625)"/>
       <path id="ArialMT-74" d="M 1650 503 
L 1731 6 
Q 1494 -44 1306 -44 
Q 1000 -44 831 53 
Q 663 150 594 308 
Q 525 466 525 972 
L 525 2881 
L 113 2881 
L 113 3319 
L 525 3319 
L 525 4141 
L 1084 4478 
L 1084 3319 
L 1650 3319 
L 1650 2881 
L 1084 2881 
L 1084 941 
Q 1084 700 1114 631 
Q 1144 563 1211 522 
Q 1278 481 1403 481 
Q 1497 481 1650 503 
z
" transform="scale(0.015625)"/>
       <path id="ArialMT-69" d="M 425 3934 
L 425 4581 
L 988 4581 
L 988 3934 
L 425 3934 
z
M 425 0 
L 425 3319 
L 988 3319 
L 988 0 
L 425 0 
z
" transform="scale(0.015625)"/>
       <path id="ArialMT-76" d="M 1344 0 
L 81 3319 
L 675 3319 
L 1388 1331 
Q 1503 1009 1600 663 
Q 1675 925 1809 1294 
L 2547 3319 
L 3125 3319 
L 1869 0 
L 1344 0 
z
" transform="scale(0.015625)"/>
       <path id="ArialMT-20" transform="scale(0.015625)"/>
       <path id="ArialMT-6d" d="M 422 0 
L 422 3319 
L 925 3319 
L 925 2853 
Q 1081 3097 1340 3245 
Q 1600 3394 1931 3394 
Q 2300 3394 2536 3241 
Q 2772 3088 2869 2813 
Q 3263 3394 3894 3394 
Q 4388 3394 4653 3120 
Q 4919 2847 4919 2278 
L 4919 0 
L 4359 0 
L 4359 2091 
Q 4359 2428 4304 2576 
Q 4250 2725 4106 2815 
Q 3963 2906 3769 2906 
Q 3419 2906 3187 2673 
Q 2956 2441 2956 1928 
L 2956 0 
L 2394 0 
L 2394 2156 
Q 2394 2531 2256 2718 
Q 2119 2906 1806 2906 
Q 1569 2906 1367 2781 
Q 1166 2656 1075 2415 
Q 984 2175 984 1722 
L 984 0 
L 422 0 
z
" transform="scale(0.015625)"/>
       <path id="ArialMT-6c" d="M 409 0 
L 409 4581 
L 972 4581 
L 972 0 
L 409 0 
z
" transform="scale(0.015625)"/>
       <path id="ArialMT-6e" d="M 422 0 
L 422 3319 
L 928 3319 
L 928 2847 
Q 1294 3394 1984 3394 
Q 2284 3394 2536 3286 
Q 2788 3178 2913 3003 
Q 3038 2828 3088 2588 
Q 3119 2431 3119 2041 
L 3119 0 
L 2556 0 
L 2556 2019 
Q 2556 2363 2490 2533 
Q 2425 2703 2258 2804 
Q 2091 2906 1866 2906 
Q 1506 2906 1245 2678 
Q 984 2450 984 1813 
L 984 0 
L 422 0 
z
" transform="scale(0.015625)"/>
       <path id="ArialMT-67" d="M 319 -275 
L 866 -356 
Q 900 -609 1056 -725 
Q 1266 -881 1628 -881 
Q 2019 -881 2231 -725 
Q 2444 -569 2519 -288 
Q 2563 -116 2559 434 
Q 2191 0 1641 0 
Q 956 0 581 494 
Q 206 988 206 1678 
Q 206 2153 378 2554 
Q 550 2956 876 3175 
Q 1203 3394 1644 3394 
Q 2231 3394 2613 2919 
L 2613 3319 
L 3131 3319 
L 3131 450 
Q 3131 -325 2973 -648 
Q 2816 -972 2473 -1159 
Q 2131 -1347 1631 -1347 
Q 1038 -1347 672 -1080 
Q 306 -813 319 -275 
z
M 784 1719 
Q 784 1066 1043 766 
Q 1303 466 1694 466 
Q 2081 466 2343 764 
Q 2606 1063 2606 1700 
Q 2606 2309 2336 2618 
Q 2066 2928 1684 2928 
Q 1309 2928 1046 2623 
Q 784 2319 784 1719 
z
" transform="scale(0.015625)"/>
       <path id="ArialMT-75" d="M 2597 0 
L 2597 488 
Q 2209 -75 1544 -75 
Q 1250 -75 995 37 
Q 741 150 617 320 
Q 494 491 444 738 
Q 409 903 409 1263 
L 409 3319 
L 972 3319 
L 972 1478 
Q 972 1038 1006 884 
Q 1059 663 1231 536 
Q 1403 409 1656 409 
Q 1909 409 2131 539 
Q 2353 669 2445 892 
Q 2538 1116 2538 1541 
L 2538 3319 
L 3100 3319 
L 3100 0 
L 2597 0 
z
" transform="scale(0.015625)"/>
       <path id="ArialMT-72" d="M 416 0 
L 416 3319 
L 922 3319 
L 922 2816 
Q 1116 3169 1280 3281 
Q 1444 3394 1641 3394 
Q 1925 3394 2219 3213 
L 2025 2691 
Q 1819 2813 1613 2813 
Q 1428 2813 1281 2702 
Q 1134 2591 1072 2394 
Q 978 2094 978 1738 
L 978 0 
L 416 0 
z
" transform="scale(0.015625)"/>
       <path id="ArialMT-71" d="M 2538 -1272 
L 2538 353 
Q 2406 169 2170 47 
Q 1934 -75 1669 -75 
Q 1078 -75 651 397 
Q 225 869 225 1691 
Q 225 2191 398 2587 
Q 572 2984 901 3189 
Q 1231 3394 1625 3394 
Q 2241 3394 2594 2875 
L 2594 3319 
L 3100 3319 
L 3100 -1272 
L 2538 -1272 
z
M 803 1669 
Q 803 1028 1072 708 
Q 1341 388 1716 388 
Q 2075 388 2334 692 
Q 2594 997 2594 1619 
Q 2594 2281 2320 2615 
Q 2047 2950 1678 2950 
Q 1313 2950 1058 2639 
Q 803 2328 803 1669 
z
" transform="scale(0.015625)"/>
       <path id="ArialMT-63" d="M 2588 1216 
L 3141 1144 
Q 3050 572 2676 248 
Q 2303 -75 1759 -75 
Q 1078 -75 664 370 
Q 250 816 250 1647 
Q 250 2184 428 2587 
Q 606 2991 970 3192 
Q 1334 3394 1763 3394 
Q 2303 3394 2647 3120 
Q 2991 2847 3088 2344 
L 2541 2259 
Q 2463 2594 2264 2762 
Q 2066 2931 1784 2931 
Q 1359 2931 1093 2626 
Q 828 2322 828 1663 
Q 828 994 1084 691 
Q 1341 388 1753 388 
Q 2084 388 2306 591 
Q 2528 794 2588 1216 
z
" transform="scale(0.015625)"/>
       <path id="ArialMT-28" d="M 1497 -1347 
Q 1031 -759 709 28 
Q 388 816 388 1659 
Q 388 2403 628 3084 
Q 909 3875 1497 4659 
L 1900 4659 
Q 1522 4009 1400 3731 
Q 1209 3300 1100 2831 
Q 966 2247 966 1656 
Q 966 153 1900 -1347 
L 1497 -1347 
z
" transform="scale(0.015625)"/>
       <path id="ArialMT-43" d="M 3763 1606 
L 4369 1453 
Q 4178 706 3683 314 
Q 3188 -78 2472 -78 
Q 1731 -78 1267 223 
Q 803 525 561 1097 
Q 319 1669 319 2325 
Q 319 3041 592 3573 
Q 866 4106 1370 4382 
Q 1875 4659 2481 4659 
Q 3169 4659 3637 4309 
Q 4106 3959 4291 3325 
L 3694 3184 
Q 3534 3684 3231 3912 
Q 2928 4141 2469 4141 
Q 1941 4141 1586 3887 
Q 1231 3634 1087 3207 
Q 944 2781 944 2328 
Q 944 1744 1114 1308 
Q 1284 872 1643 656 
Q 2003 441 2422 441 
Q 2931 441 3284 734 
Q 3638 1028 3763 1606 
z
" transform="scale(0.015625)"/>
       <path id="ArialMT-68" d="M 422 0 
L 422 4581 
L 984 4581 
L 984 2938 
Q 1378 3394 1978 3394 
Q 2347 3394 2619 3248 
Q 2891 3103 3008 2847 
Q 3125 2591 3125 2103 
L 3125 0 
L 2563 0 
L 2563 2103 
Q 2563 2525 2380 2717 
Q 2197 2909 1863 2909 
Q 1613 2909 1392 2779 
Q 1172 2650 1078 2428 
Q 984 2206 984 1816 
L 984 0 
L 422 0 
z
" transform="scale(0.015625)"/>
       <path id="ArialMT-6b" d="M 425 0 
L 425 4581 
L 988 4581 
L 988 1969 
L 2319 3319 
L 3047 3319 
L 1778 2088 
L 3175 0 
L 2481 0 
L 1384 1697 
L 988 1316 
L 988 0 
L 425 0 
z
" transform="scale(0.015625)"/>
       <path id="ArialMT-45" d="M 506 0 
L 506 4581 
L 3819 4581 
L 3819 4041 
L 1113 4041 
L 1113 2638 
L 3647 2638 
L 3647 2100 
L 1113 2100 
L 1113 541 
L 3925 541 
L 3925 0 
L 506 0 
z
" transform="scale(0.015625)"/>
       <path id="ArialMT-78" d="M 47 0 
L 1259 1725 
L 138 3319 
L 841 3319 
L 1350 2541 
Q 1494 2319 1581 2169 
Q 1719 2375 1834 2534 
L 2394 3319 
L 3066 3319 
L 1919 1756 
L 3153 0 
L 2463 0 
L 1781 1031 
L 1600 1309 
L 728 0 
L 47 0 
z
" transform="scale(0.015625)"/>
       <path id="ArialMT-29" d="M 791 -1347 
L 388 -1347 
Q 1322 153 1322 1656 
Q 1322 2244 1188 2822 
Q 1081 3291 891 3722 
Q 769 4003 388 4659 
L 791 4659 
Q 1378 3875 1659 3084 
Q 1900 2403 1900 1659 
Q 1900 816 1576 28 
Q 1253 -759 791 -1347 
z
" transform="scale(0.015625)"/>
      </defs>
      <use xlink:href="#ArialMT-41"/>
      <use xlink:href="#ArialMT-64" transform="translate(66.699219 0)"/>
      <use xlink:href="#ArialMT-61" transform="translate(122.314453 0)"/>
      <use xlink:href="#ArialMT-70" transform="translate(177.929688 0)"/>
      <use xlink:href="#ArialMT-74" transform="translate(233.544922 0)"/>
      <use xlink:href="#ArialMT-69" transform="translate(261.328125 0)"/>
      <use xlink:href="#ArialMT-76" transform="translate(283.544922 0)"/>
      <use xlink:href="#ArialMT-65" transform="translate(333.544922 0)"/>
      <use xlink:href="#ArialMT-20" transform="translate(389.160156 0)"/>
      <use xlink:href="#ArialMT-73" transform="translate(416.943359 0)"/>
      <use xlink:href="#ArialMT-61" transform="translate(466.943359 0)"/>
      <use xlink:href="#ArialMT-6d" transform="translate(522.558594 0)"/>
      <use xlink:href="#ArialMT-70" transform="translate(605.859375 0)"/>
      <use xlink:href="#ArialMT-6c" transform="translate(661.474609 0)"/>
      <use xlink:href="#ArialMT-69" transform="translate(683.691406 0)"/>
      <use xlink:href="#ArialMT-6e" transform="translate(705.908203 0)"/>
      <use xlink:href="#ArialMT-67" transform="translate(761.523438 0)"/>
      <use xlink:href="#ArialMT-20" transform="translate(817.138672 0)"/>
      <use xlink:href="#ArialMT-64" transform="translate(844.921875 0)"/>
      <use xlink:href="#ArialMT-75" transform="translate(900.537109 0)"/>
      <use xlink:href="#ArialMT-72" transform="translate(956.152344 0)"/>
      <use xlink:href="#ArialMT-69" transform="translate(989.453125 0)"/>
      <use xlink:href="#ArialMT-6e" transform="translate(1011.669922 0)"/>
      <use xlink:href="#ArialMT-67" transform="translate(1067.285156 0)"/>
      <use xlink:href="#ArialMT-20" transform="translate(1122.900391 0)"/>
      <use xlink:href="#ArialMT-73" transform="translate(1150.683594 0)"/>
      <use xlink:href="#ArialMT-65" transform="translate(1200.683594 0)"/>
      <use xlink:href="#ArialMT-71" transform="translate(1256.298828 0)"/>
      <use xlink:href="#ArialMT-75" transform="translate(1311.914062 0)"/>
      <use xlink:href="#ArialMT-65" transform="translate(1367.529297 0)"/>
      <use xlink:href="#ArialMT-6e" transform="translate(1423.144531 0)"/>
      <use xlink:href="#ArialMT-63" transform="translate(1478.759766 0)"/>
      <use xlink:href="#ArialMT-69" transform="translate(1528.759766 0)"/>
      <use xlink:href="#ArialMT-6e" transform="translate(1550.976562 0)"/>
      <use xlink:href="#ArialMT-67" transform="translate(1606.591797 0)"/>
      <use xlink:href="#ArialMT-20" transform="translate(1662.207031 0)"/>
      <use xlink:href="#ArialMT-28" transform="translate(1689.990234 0)"/>
      <use xlink:href="#ArialMT-43" transform="translate(1723.291016 0)"/>
      <use xlink:href="#ArialMT-68" transform="translate(1795.507812 0)"/>
      <use xlink:href="#ArialMT-69" transform="translate(1851.123047 0)"/>
      <use xlink:href="#ArialMT-63" transform="translate(1873.339844 0)"/>
      <use xlink:href="#ArialMT-6b" transform="translate(1923.339844 0)"/>
      <use xlink:href="#ArialMT-65" transform="translate(1973.339844 0)"/>
      <use xlink:href="#ArialMT-6e" transform="translate(2028.955078 0)"/>
      <use xlink:href="#ArialMT-20" transform="translate(2084.570312 0)"/>
      <use xlink:href="#ArialMT-45" transform="translate(2112.353516 0)"/>
      <use xlink:href="#ArialMT-78" transform="translate(2179.052734 0)"/>
      <use xlink:href="#ArialMT-63" transform="translate(2229.052734 0)"/>
      <use xlink:href="#ArialMT-6c" transform="translate(2279.052734 0)"/>
      <use xlink:href="#ArialMT-75" transform="translate(2301.269531 0)"/>
      <use xlink:href="#ArialMT-64" transform="translate(2356.884766 0)"/>
      <use xlink:href="#ArialMT-65" transform="translate(2412.5 0)"/>
      <use xlink:href="#ArialMT-64" transform="translate(2468.115234 0)"/>
      <use xlink:href="#ArialMT-29" transform="translate(2523.730469 0)"/>
     </g>
    </g>
   </g>
   <g id="matplotlib.axis_2">
    <g id="ytick_1">
     <g id="line2d_1">
      <path d="M 72 360.296752 
L 518.4 360.296752 
" clip-path="url(#p57f23cbbc2)" style="fill: none; stroke: #ffffff; stroke-linecap: round"/>
     </g>
     <g id="text_4">
      <!-- 40 -->
      <g style="fill: #262626" transform="translate(50.265937 364.233549) scale(0.11 -0.11)">
       <defs>
        <path id="ArialMT-34" d="M 2069 0 
L 2069 1097 
L 81 1097 
L 81 1613 
L 2172 4581 
L 2631 4581 
L 2631 1613 
L 3250 1613 
L 3250 1097 
L 2631 1097 
L 2631 0 
L 2069 0 
z
M 2069 1613 
L 2069 3678 
L 634 1613 
L 2069 1613 
z
" transform="scale(0.015625)"/>
        <path id="ArialMT-30" d="M 266 2259 
Q 266 3072 433 3567 
Q 600 4063 929 4331 
Q 1259 4600 1759 4600 
Q 2128 4600 2406 4451 
Q 2684 4303 2865 4023 
Q 3047 3744 3150 3342 
Q 3253 2941 3253 2259 
Q 3253 1453 3087 958 
Q 2922 463 2592 192 
Q 2263 -78 1759 -78 
Q 1097 -78 719 397 
Q 266 969 266 2259 
z
M 844 2259 
Q 844 1131 1108 757 
Q 1372 384 1759 384 
Q 2147 384 2411 759 
Q 2675 1134 2675 2259 
Q 2675 3391 2411 3762 
Q 2147 4134 1753 4134 
Q 1366 4134 1134 3806 
Q 844 3388 844 2259 
z
" transform="scale(0.015625)"/>
       </defs>
       <use xlink:href="#ArialMT-34"/>
       <use xlink:href="#ArialMT-30" transform="translate(55.615234 0)"/>
      </g>
     </g>
    </g>
    <g id="ytick_2">
     <g id="line2d_2">
      <path d="M 72 288.658365 
L 518.4 288.658365 
" clip-path="url(#p57f23cbbc2)" style="fill: none; stroke: #ffffff; stroke-linecap: round"/>
     </g>
     <g id="text_5">
      <!-- 60 -->
      <g style="fill: #262626" transform="translate(50.265937 292.595162) scale(0.11 -0.11)">
       <defs>
        <path id="ArialMT-36" d="M 3184 3459 
L 2625 3416 
Q 2550 3747 2413 3897 
Q 2184 4138 1850 4138 
Q 1581 4138 1378 3988 
Q 1113 3794 959 3422 
Q 806 3050 800 2363 
Q 1003 2672 1297 2822 
Q 1591 2972 1913 2972 
Q 2475 2972 2870 2558 
Q 3266 2144 3266 1488 
Q 3266 1056 3080 686 
Q 2894 316 2569 119 
Q 2244 -78 1831 -78 
Q 1128 -78 684 439 
Q 241 956 241 2144 
Q 241 3472 731 4075 
Q 1159 4600 1884 4600 
Q 2425 4600 2770 4297 
Q 3116 3994 3184 3459 
z
M 888 1484 
Q 888 1194 1011 928 
Q 1134 663 1356 523 
Q 1578 384 1822 384 
Q 2178 384 2434 671 
Q 2691 959 2691 1453 
Q 2691 1928 2437 2201 
Q 2184 2475 1800 2475 
Q 1419 2475 1153 2201 
Q 888 1928 888 1484 
z
" transform="scale(0.015625)"/>
       </defs>
       <use xlink:href="#ArialMT-36"/>
       <use xlink:href="#ArialMT-30" transform="translate(55.615234 0)"/>
      </g>
     </g>
    </g>
    <g id="ytick_3">
     <g id="line2d_3">
      <path d="M 72 217.019978 
L 518.4 217.019978 
" clip-path="url(#p57f23cbbc2)" style="fill: none; stroke: #ffffff; stroke-linecap: round"/>
     </g>
     <g id="text_6">
      <!-- 80 -->
      <g style="fill: #262626" transform="translate(50.265937 220.956775) scale(0.11 -0.11)">
       <defs>
        <path id="ArialMT-38" d="M 1131 2484 
Q 781 2613 612 2850 
Q 444 3088 444 3419 
Q 444 3919 803 4259 
Q 1163 4600 1759 4600 
Q 2359 4600 2725 4251 
Q 3091 3903 3091 3403 
Q 3091 3084 2923 2848 
Q 2756 2613 2416 2484 
Q 2838 2347 3058 2040 
Q 3278 1734 3278 1309 
Q 3278 722 2862 322 
Q 2447 -78 1769 -78 
Q 1091 -78 675 323 
Q 259 725 259 1325 
Q 259 1772 486 2073 
Q 713 2375 1131 2484 
z
M 1019 3438 
Q 1019 3113 1228 2906 
Q 1438 2700 1772 2700 
Q 2097 2700 2305 2904 
Q 2513 3109 2513 3406 
Q 2513 3716 2298 3927 
Q 2084 4138 1766 4138 
Q 1444 4138 1231 3931 
Q 1019 3725 1019 3438 
z
M 838 1322 
Q 838 1081 952 856 
Q 1066 631 1291 507 
Q 1516 384 1775 384 
Q 2178 384 2440 643 
Q 2703 903 2703 1303 
Q 2703 1709 2433 1975 
Q 2163 2241 1756 2241 
Q 1359 2241 1098 1978 
Q 838 1716 838 1322 
z
" transform="scale(0.015625)"/>
       </defs>
       <use xlink:href="#ArialMT-38"/>
       <use xlink:href="#ArialMT-30" transform="translate(55.615234 0)"/>
      </g>
     </g>
    </g>
    <g id="ytick_4">
     <g id="line2d_4">
      <path d="M 72 145.381592 
L 518.4 145.381592 
" clip-path="url(#p57f23cbbc2)" style="fill: none; stroke: #ffffff; stroke-linecap: round"/>
     </g>
     <g id="text_7">
      <!-- 100 -->
      <g style="fill: #262626" transform="translate(44.148906 149.318389) scale(0.11 -0.11)">
       <defs>
        <path id="ArialMT-31" d="M 2384 0 
L 1822 0 
L 1822 3584 
Q 1619 3391 1289 3197 
Q 959 3003 697 2906 
L 697 3450 
Q 1169 3672 1522 3987 
Q 1875 4303 2022 4600 
L 2384 4600 
L 2384 0 
z
" transform="scale(0.015625)"/>
       </defs>
       <use xlink:href="#ArialMT-31"/>
       <use xlink:href="#ArialMT-30" transform="translate(55.615234 0)"/>
       <use xlink:href="#ArialMT-30" transform="translate(111.230469 0)"/>
      </g>
     </g>
    </g>
    <g id="ytick_5">
     <g id="line2d_5">
      <path d="M 72 73.743205 
L 518.4 73.743205 
" clip-path="url(#p57f23cbbc2)" style="fill: none; stroke: #ffffff; stroke-linecap: round"/>
     </g>
     <g id="text_8">
      <!-- 120 -->
      <g style="fill: #262626" transform="translate(44.148906 77.680002) scale(0.11 -0.11)">
       <defs>
        <path id="ArialMT-32" d="M 3222 541 
L 3222 0 
L 194 0 
Q 188 203 259 391 
Q 375 700 629 1000 
Q 884 1300 1366 1694 
Q 2113 2306 2375 2664 
Q 2638 3022 2638 3341 
Q 2638 3675 2398 3904 
Q 2159 4134 1775 4134 
Q 1369 4134 1125 3890 
Q 881 3647 878 3216 
L 300 3275 
Q 359 3922 746 4261 
Q 1134 4600 1788 4600 
Q 2447 4600 2831 4234 
Q 3216 3869 3216 3328 
Q 3216 3053 3103 2787 
Q 2991 2522 2730 2228 
Q 2469 1934 1863 1422 
Q 1356 997 1212 845 
Q 1069 694 975 541 
L 3222 541 
z
" transform="scale(0.015625)"/>
       </defs>
       <use xlink:href="#ArialMT-31"/>
       <use xlink:href="#ArialMT-32" transform="translate(55.615234 0)"/>
       <use xlink:href="#ArialMT-30" transform="translate(111.230469 0)"/>
      </g>
     </g>
    </g>
    <g id="text_9">
     <!-- Percentage of QC Hosts Reads -->
     <g style="fill: #262626" transform="translate(37.623281 302.196562) rotate(-90) scale(0.12 -0.12)">
      <defs>
       <path id="ArialMT-50" d="M 494 0 
L 494 4581 
L 2222 4581 
Q 2678 4581 2919 4538 
Q 3256 4481 3484 4323 
Q 3713 4166 3852 3881 
Q 3991 3597 3991 3256 
Q 3991 2672 3619 2267 
Q 3247 1863 2275 1863 
L 1100 1863 
L 1100 0 
L 494 0 
z
M 1100 2403 
L 2284 2403 
Q 2872 2403 3119 2622 
Q 3366 2841 3366 3238 
Q 3366 3525 3220 3729 
Q 3075 3934 2838 4000 
Q 2684 4041 2272 4041 
L 1100 4041 
L 1100 2403 
z
" transform="scale(0.015625)"/>
       <path id="ArialMT-66" d="M 556 0 
L 556 2881 
L 59 2881 
L 59 3319 
L 556 3319 
L 556 3672 
Q 556 4006 616 4169 
Q 697 4388 901 4523 
Q 1106 4659 1475 4659 
Q 1713 4659 2000 4603 
L 1916 4113 
Q 1741 4144 1584 4144 
Q 1328 4144 1222 4034 
Q 1116 3925 1116 3625 
L 1116 3319 
L 1763 3319 
L 1763 2881 
L 1116 2881 
L 1116 0 
L 556 0 
z
" transform="scale(0.015625)"/>
       <path id="ArialMT-51" d="M 3966 491 
Q 4388 200 4744 66 
L 4566 -356 
Q 4072 -178 3581 206 
Q 3072 -78 2456 -78 
Q 1834 -78 1328 222 
Q 822 522 548 1065 
Q 275 1609 275 2291 
Q 275 2969 550 3525 
Q 825 4081 1333 4372 
Q 1841 4663 2469 4663 
Q 3103 4663 3612 4361 
Q 4122 4059 4389 3517 
Q 4656 2975 4656 2294 
Q 4656 1728 4484 1276 
Q 4313 825 3966 491 
z
M 2631 1266 
Q 3156 1119 3497 828 
Q 4031 1316 4031 2294 
Q 4031 2850 3842 3265 
Q 3653 3681 3289 3911 
Q 2925 4141 2472 4141 
Q 1794 4141 1347 3677 
Q 900 3213 900 2291 
Q 900 1397 1342 919 
Q 1784 441 2472 441 
Q 2797 441 3084 563 
Q 2800 747 2484 825 
L 2631 1266 
z
" transform="scale(0.015625)"/>
       <path id="ArialMT-48" d="M 513 0 
L 513 4581 
L 1119 4581 
L 1119 2700 
L 3500 2700 
L 3500 4581 
L 4106 4581 
L 4106 0 
L 3500 0 
L 3500 2159 
L 1119 2159 
L 1119 0 
L 513 0 
z
" transform="scale(0.015625)"/>
       <path id="ArialMT-52" d="M 503 0 
L 503 4581 
L 2534 4581 
Q 3147 4581 3465 4457 
Q 3784 4334 3975 4021 
Q 4166 3709 4166 3331 
Q 4166 2844 3850 2509 
Q 3534 2175 2875 2084 
Q 3116 1969 3241 1856 
Q 3506 1613 3744 1247 
L 4541 0 
L 3778 0 
L 3172 953 
Q 2906 1366 2734 1584 
Q 2563 1803 2427 1890 
Q 2291 1978 2150 2013 
Q 2047 2034 1813 2034 
L 1109 2034 
L 1109 0 
L 503 0 
z
M 1109 2559 
L 2413 2559 
Q 2828 2559 3062 2645 
Q 3297 2731 3419 2920 
Q 3541 3109 3541 3331 
Q 3541 3656 3305 3865 
Q 3069 4075 2559 4075 
L 1109 4075 
L 1109 2559 
z
" transform="scale(0.015625)"/>
      </defs>
      <use xlink:href="#ArialMT-50"/>
      <use xlink:href="#ArialMT-65" transform="translate(66.699219 0)"/>
      <use xlink:href="#ArialMT-72" transform="translate(122.314453 0)"/>
      <use xlink:href="#ArialMT-63" transform="translate(155.615234 0)"/>
      <use xlink:href="#ArialMT-65" transform="translate(205.615234 0)"/>
      <use xlink:href="#ArialMT-6e" transform="translate(261.230469 0)"/>
      <use xlink:href="#ArialMT-74" transform="translate(316.845703 0)"/>
      <use xlink:href="#ArialMT-61" transform="translate(344.628906 0)"/>
      <use xlink:href="#ArialMT-67" transform="translate(400.244141 0)"/>
      <use xlink:href="#ArialMT-65" transform="translate(455.859375 0)"/>
      <use xlink:href="#ArialMT-20" transform="translate(511.474609 0)"/>
      <use xlink:href="#ArialMT-6f" transform="translate(539.257812 0)"/>
      <use xlink:href="#ArialMT-66" transform="translate(594.873047 0)"/>
      <use xlink:href="#ArialMT-20" transform="translate(622.65625 0)"/>
      <use xlink:href="#ArialMT-51" transform="translate(650.439453 0)"/>
      <use xlink:href="#ArialMT-43" transform="translate(728.222656 0)"/>
      <use xlink:href="#ArialMT-20" transform="translate(800.439453 0)"/>
      <use xlink:href="#ArialMT-48" transform="translate(828.222656 0)"/>
      <use xlink:href="#ArialMT-6f" transform="translate(900.439453 0)"/>
      <use xlink:href="#ArialMT-73" transform="translate(956.054688 0)"/>
      <use xlink:href="#ArialMT-74" transform="translate(1006.054688 0)"/>
      <use xlink:href="#ArialMT-73" transform="translate(1033.837891 0)"/>
      <use xlink:href="#ArialMT-20" transform="translate(1083.837891 0)"/>
      <use xlink:href="#ArialMT-52" transform="translate(1111.621094 0)"/>
      <use xlink:href="#ArialMT-65" transform="translate(1183.837891 0)"/>
      <use xlink:href="#ArialMT-61" transform="translate(1239.453125 0)"/>
      <use xlink:href="#ArialMT-64" transform="translate(1295.068359 0)"/>
      <use xlink:href="#ArialMT-73" transform="translate(1350.683594 0)"/>
     </g>
    </g>
   </g>
   <g id="FillBetweenPolyCollection_1">
    <defs>
     <path id="m8ab8104457" d="M 184.473235 -77.237919 
L 182.726765 -77.237919 
L 182.490252 -79.814135 
L 182.203331 -82.390351 
L 181.859196 -84.966566 
L 181.451154 -87.542782 
L 180.972936 -90.118997 
L 180.41905 -92.695213 
L 179.785177 -95.271429 
L 179.068588 -97.847644 
L 178.268561 -100.42386 
L 177.386773 -103.000075 
L 176.427643 -105.576291 
L 175.398584 -108.152506 
L 174.310155 -110.728722 
L 173.17606 -113.304938 
L 172.013009 -115.881153 
L 170.840392 -118.457369 
L 169.679801 -121.033584 
L 168.554379 -123.6098 
L 167.488044 -126.186016 
L 166.504604 -128.762231 
L 165.626812 -131.338447 
L 164.875409 -133.914662 
L 164.268213 -136.490878 
L 163.819295 -139.067093 
L 163.538295 -141.643309 
L 163.429925 -144.219525 
L 163.493666 -146.79574 
L 163.723704 -149.371956 
L 164.109075 -151.948171 
L 164.63403 -154.524387 
L 165.278585 -157.100603 
L 166.019231 -159.676818 
L 166.829755 -162.253034 
L 167.68214 -164.829249 
L 168.547495 -167.405465 
L 169.396975 -169.98168 
L 170.202661 -172.557896 
L 170.938365 -175.134112 
L 171.580326 -177.710327 
L 172.107796 -180.286543 
L 172.503475 -182.862758 
L 172.753794 -185.438974 
L 172.849038 -188.01519 
L 172.78328 -190.591405 
L 172.554141 -193.167621 
L 172.162361 -195.743836 
L 171.611188 -198.320052 
L 170.90561 -200.896268 
L 170.051442 -203.472483 
L 169.05432 -206.048699 
L 167.918657 -208.624914 
L 166.646634 -211.20113 
L 165.237305 -213.777345 
L 163.685918 -216.353561 
L 161.983544 -218.929777 
L 160.117092 -221.505992 
L 158.069804 -224.082208 
L 155.822252 -226.658423 
L 153.353869 -229.234639 
L 150.644958 -231.810855 
L 147.679121 -234.38707 
L 144.445958 -236.963286 
L 140.943865 -239.539501 
L 137.182726 -242.115717 
L 133.186242 -244.691932 
L 128.993686 -247.268148 
L 124.660826 -249.844364 
L 120.259867 -252.420579 
L 115.878267 -254.996795 
L 111.61639 -257.57301 
L 107.584049 -260.149226 
L 103.89608 -262.725442 
L 100.667178 -265.301657 
L 98.006314 -267.877873 
L 96.011091 -270.454088 
L 94.762436 -273.030304 
L 94.32 -275.606519 
L 94.718621 -278.182735 
L 95.9661 -280.758951 
L 98.042469 -283.335166 
L 100.900802 -285.911382 
L 104.469511 -288.487597 
L 108.655942 -291.063813 
L 113.35102 -293.640029 
L 118.434588 -296.216244 
L 123.781072 -298.79246 
L 129.265101 -301.368675 
L 134.766717 -303.944891 
L 140.175889 -306.521106 
L 145.396109 -309.097322 
L 150.346925 -311.673538 
L 154.965388 -314.249753 
L 159.206432 -316.825969 
L 163.042301 -319.402184 
L 166.461196 -321.9784 
L 169.465319 -324.554616 
L 172.068533 -327.130831 
L 174.293845 -329.707047 
L 176.17087 -332.283262 
L 191.02913 -332.283262 
L 191.02913 -332.283262 
L 192.906155 -329.707047 
L 195.131467 -327.130831 
L 197.734681 -324.554616 
L 200.738804 -321.9784 
L 204.157699 -319.402184 
L 207.993568 -316.825969 
L 212.234612 -314.249753 
L 216.853075 -311.673538 
L 221.803891 -309.097322 
L 227.024111 -306.521106 
L 232.433283 -303.944891 
L 237.934899 -301.368675 
L 243.418928 -298.79246 
L 248.765412 -296.216244 
L 253.84898 -293.640029 
L 258.544058 -291.063813 
L 262.730489 -288.487597 
L 266.299198 -285.911382 
L 269.157531 -283.335166 
L 271.2339 -280.758951 
L 272.481379 -278.182735 
L 272.88 -275.606519 
L 272.437564 -273.030304 
L 271.188909 -270.454088 
L 269.193686 -267.877873 
L 266.532822 -265.301657 
L 263.30392 -262.725442 
L 259.615951 -260.149226 
L 255.58361 -257.57301 
L 251.321733 -254.996795 
L 246.940133 -252.420579 
L 242.539174 -249.844364 
L 238.206314 -247.268148 
L 234.013758 -244.691932 
L 230.017274 -242.115717 
L 226.256135 -239.539501 
L 222.754042 -236.963286 
L 219.520879 -234.38707 
L 216.555042 -231.810855 
L 213.846131 -229.234639 
L 211.377748 -226.658423 
L 209.130196 -224.082208 
L 207.082908 -221.505992 
L 205.216456 -218.929777 
L 203.514082 -216.353561 
L 201.962695 -213.777345 
L 200.553366 -211.20113 
L 199.281343 -208.624914 
L 198.14568 -206.048699 
L 197.148558 -203.472483 
L 196.29439 -200.896268 
L 195.588812 -198.320052 
L 195.037639 -195.743836 
L 194.645859 -193.167621 
L 194.41672 -190.591405 
L 194.350962 -188.01519 
L 194.446206 -185.438974 
L 194.696525 -182.862758 
L 195.092204 -180.286543 
L 195.619674 -177.710327 
L 196.261635 -175.134112 
L 196.997339 -172.557896 
L 197.803025 -169.98168 
L 198.652505 -167.405465 
L 199.51786 -164.829249 
L 200.370245 -162.253034 
L 201.180769 -159.676818 
L 201.921415 -157.100603 
L 202.56597 -154.524387 
L 203.090925 -151.948171 
L 203.476296 -149.371956 
L 203.706334 -146.79574 
L 203.770075 -144.219525 
L 203.661705 -141.643309 
L 203.380705 -139.067093 
L 202.931787 -136.490878 
L 202.324591 -133.914662 
L 201.573188 -131.338447 
L 200.695396 -128.762231 
L 199.711956 -126.186016 
L 198.645621 -123.6098 
L 197.520199 -121.033584 
L 196.359608 -118.457369 
L 195.186991 -115.881153 
L 194.02394 -113.304938 
L 192.889845 -110.728722 
L 191.801416 -108.152506 
L 190.772357 -105.576291 
L 189.813227 -103.000075 
L 188.931439 -100.42386 
L 188.131412 -97.847644 
L 187.414823 -95.271429 
L 186.78095 -92.695213 
L 186.227064 -90.118997 
L 185.748846 -87.542782 
L 185.340804 -84.966566 
L 184.996669 -82.390351 
L 184.709748 -79.814135 
L 184.473235 -77.237919 
z
" style="stroke: #4c4c4c; stroke-width: 1.25"/>
    </defs>
    <g clip-path="url(#p57f23cbbc2)">
     <use xlink:href="#m8ab8104457" x="0" y="432" style="fill: #5875a4; stroke: #4c4c4c; stroke-width: 1.25"/>
    </g>
   </g>
   <g id="FillBetweenPolyCollection_2">
    <defs>
     <path id="m9ff4617508" d="M 411.276483 -62.64 
L 402.323517 -62.64 
L 401.587075 -65.694545 
L 400.759414 -68.749091 
L 399.834762 -71.803636 
L 398.807941 -74.858182 
L 397.674551 -77.912727 
L 396.431157 -80.967273 
L 395.075481 -84.021818 
L 393.606581 -87.076364 
L 392.025019 -90.130909 
L 390.333007 -93.185455 
L 388.534525 -96.24 
L 386.635406 -99.294545 
L 384.643372 -102.349091 
L 382.568035 -105.403636 
L 380.420833 -108.458182 
L 378.214924 -111.512727 
L 375.965014 -114.567273 
L 373.687141 -117.621818 
L 371.398394 -120.676364 
L 369.116602 -123.730909 
L 366.859967 -126.785455 
L 364.646677 -129.84 
L 362.494492 -132.894545 
L 360.420329 -135.949091 
L 358.439841 -139.003636 
L 356.567021 -142.058182 
L 354.813831 -145.112727 
L 353.189874 -148.167273 
L 351.702122 -151.221818 
L 350.3547 -154.276364 
L 349.148745 -157.330909 
L 348.08234 -160.385455 
L 347.150524 -163.44 
L 346.345383 -166.494545 
L 345.656219 -169.549091 
L 345.069791 -172.603636 
L 344.570622 -175.658182 
L 344.14137 -178.712727 
L 343.763242 -181.767273 
L 343.416458 -184.821818 
L 343.080735 -187.876364 
L 342.735796 -190.930909 
L 342.361886 -193.985455 
L 341.940278 -197.04 
L 341.453777 -200.094545 
L 340.88719 -203.149091 
L 340.227766 -206.203636 
L 339.4656 -209.258182 
L 338.593976 -212.312727 
L 337.609661 -215.367273 
L 336.513126 -218.421818 
L 335.308702 -221.476364 
L 334.004649 -224.530909 
L 332.613147 -227.585455 
L 331.150195 -230.64 
L 329.635415 -233.694545 
L 328.091775 -236.749091 
L 326.545204 -239.803636 
L 325.024134 -242.858182 
L 323.558947 -245.912727 
L 322.181356 -248.967273 
L 320.923726 -252.021818 
L 319.818343 -255.076364 
L 318.896662 -258.130909 
L 318.188544 -261.185455 
L 317.721503 -264.24 
L 317.52 -267.294545 
L 317.604785 -270.349091 
L 317.992325 -273.403636 
L 318.694336 -276.458182 
L 319.717424 -279.512727 
L 321.062865 -282.567273 
L 322.726518 -285.621818 
L 324.698887 -288.676364 
L 326.965322 -291.730909 
L 329.506356 -294.785455 
L 332.298169 -297.84 
L 335.313153 -300.894545 
L 338.52058 -303.949091 
L 341.887321 -307.003636 
L 345.378618 -310.058182 
L 348.958864 -313.112727 
L 352.592385 -316.167273 
L 356.244179 -319.221818 
L 359.880608 -322.276364 
L 363.470016 -325.330909 
L 366.983256 -328.385455 
L 370.394127 -331.44 
L 373.679696 -334.494545 
L 376.82052 -337.549091 
L 379.800761 -340.603636 
L 382.608197 -343.658182 
L 385.234147 -346.712727 
L 387.673306 -349.767273 
L 389.923521 -352.821818 
L 391.985505 -355.876364 
L 393.862516 -358.930909 
L 395.560003 -361.985455 
L 397.085245 -365.04 
L 416.514755 -365.04 
L 416.514755 -365.04 
L 418.039997 -361.985455 
L 419.737484 -358.930909 
L 421.614495 -355.876364 
L 423.676479 -352.821818 
L 425.926694 -349.767273 
L 428.365853 -346.712727 
L 430.991803 -343.658182 
L 433.799239 -340.603636 
L 436.77948 -337.549091 
L 439.920304 -334.494545 
L 443.205873 -331.44 
L 446.616744 -328.385455 
L 450.129984 -325.330909 
L 453.719392 -322.276364 
L 457.355821 -319.221818 
L 461.007615 -316.167273 
L 464.641136 -313.112727 
L 468.221382 -310.058182 
L 471.712679 -307.003636 
L 475.07942 -303.949091 
L 478.286847 -300.894545 
L 481.301831 -297.84 
L 484.093644 -294.785455 
L 486.634678 -291.730909 
L 488.901113 -288.676364 
L 490.873482 -285.621818 
L 492.537135 -282.567273 
L 493.882576 -279.512727 
L 494.905664 -276.458182 
L 495.607675 -273.403636 
L 495.995215 -270.349091 
L 496.08 -267.294545 
L 495.878497 -264.24 
L 495.411456 -261.185455 
L 494.703338 -258.130909 
L 493.781657 -255.076364 
L 492.676274 -252.021818 
L 491.418644 -248.967273 
L 490.041053 -245.912727 
L 488.575866 -242.858182 
L 487.054796 -239.803636 
L 485.508225 -236.749091 
L 483.964585 -233.694545 
L 482.449805 -230.64 
L 480.986853 -227.585455 
L 479.595351 -224.530909 
L 478.291298 -221.476364 
L 477.086874 -218.421818 
L 475.990339 -215.367273 
L 475.006024 -212.312727 
L 474.1344 -209.258182 
L 473.372234 -206.203636 
L 472.71281 -203.149091 
L 472.146223 -200.094545 
L 471.659722 -197.04 
L 471.238114 -193.985455 
L 470.864204 -190.930909 
L 470.519265 -187.876364 
L 470.183542 -184.821818 
L 469.836758 -181.767273 
L 469.45863 -178.712727 
L 469.029378 -175.658182 
L 468.530209 -172.603636 
L 467.943781 -169.549091 
L 467.254617 -166.494545 
L 466.449476 -163.44 
L 465.51766 -160.385455 
L 464.451255 -157.330909 
L 463.2453 -154.276364 
L 461.897878 -151.221818 
L 460.410126 -148.167273 
L 458.786169 -145.112727 
L 457.032979 -142.058182 
L 455.160159 -139.003636 
L 453.179671 -135.949091 
L 451.105508 -132.894545 
L 448.953323 -129.84 
L 446.740033 -126.785455 
L 444.483398 -123.730909 
L 442.201606 -120.676364 
L 439.912859 -117.621818 
L 437.634986 -114.567273 
L 435.385076 -111.512727 
L 433.179167 -108.458182 
L 431.031965 -105.403636 
L 428.956628 -102.349091 
L 426.964594 -99.294545 
L 425.065475 -96.24 
L 423.266993 -93.185455 
L 421.574981 -90.130909 
L 419.993419 -87.076364 
L 418.524519 -84.021818 
L 417.168843 -80.967273 
L 415.925449 -77.912727 
L 414.792059 -74.858182 
L 413.765238 -71.803636 
L 412.840586 -68.749091 
L 412.012925 -65.694545 
L 411.276483 -62.64 
z
" style="stroke: #4c4c4c; stroke-width: 1.25"/>
    </defs>
    <g clip-path="url(#p57f23cbbc2)">
     <use xlink:href="#m9ff4617508" x="0" y="432" style="fill: #cc8963; stroke: #4c4c4c; stroke-width: 1.25"/>
    </g>
   </g>
   <g id="line2d_6">
    <path d="M 183.6 264.174522 
L 183.6 148.63575 
" clip-path="url(#p57f23cbbc2)" style="fill: none; stroke: #4c4c4c; stroke-width: 1.875; stroke-linecap: round"/>
   </g>
   <g id="line2d_7">
    <path d="M 183.6 199.883715 
L 183.6 152.494624 
" clip-path="url(#p57f23cbbc2)" style="fill: none; stroke: #4c4c4c; stroke-width: 5.625; stroke-linecap: round"/>
   </g>
   <g id="line2d_8">
    <path d="M 183.6 155.867439 
" clip-path="url(#p57f23cbbc2)" style="fill: none; stroke: #4c4c4c; stroke-width: 1.5; stroke-linecap: round"/>
    <defs>
     <path id="mdee757b6bb" d="M 2.34375 0 
L -2.34375 -0 
" style="stroke: #ffffff; stroke-width: 1.125"/>
    </defs>
    <g clip-path="url(#p57f23cbbc2)">
     <use xlink:href="#mdee757b6bb" x="183.6" y="155.867439" style="fill: #ffffff; stroke: #ffffff; stroke-width: 1.125"/>
    </g>
   </g>
   <g id="line2d_9">
    <path d="M 406.8 285.307724 
L 406.8 151.012276 
" clip-path="url(#p57f23cbbc2)" style="fill: none; stroke: #4c4c4c; stroke-width: 1.875; stroke-linecap: round"/>
   </g>
   <g id="line2d_10">
    <path d="M 406.8 249.565399 
L 406.8 152.278028 
" clip-path="url(#p57f23cbbc2)" style="fill: none; stroke: #4c4c4c; stroke-width: 5.625; stroke-linecap: round"/>
   </g>
   <g id="line2d_11">
    <path d="M 406.8 182.192613 
" clip-path="url(#p57f23cbbc2)" style="fill: none; stroke: #4c4c4c; stroke-width: 1.5; stroke-linecap: round"/>
    <g clip-path="url(#p57f23cbbc2)">
     <use xlink:href="#mdee757b6bb" x="406.8" y="182.192613" style="fill: #ffffff; stroke: #ffffff; stroke-width: 1.125"/>
    </g>
   </g>
   <g id="patch_3">
    <path d="M 72 384.48 
L 72 51.84 
" style="fill: none; stroke: #ffffff; stroke-width: 1.25; stroke-linejoin: miter; stroke-linecap: square"/>
   </g>
   <g id="patch_4">
    <path d="M 518.4 384.48 
L 518.4 51.84 
" style="fill: none; stroke: #ffffff; stroke-width: 1.25; stroke-linejoin: miter; stroke-linecap: square"/>
   </g>
   <g id="patch_5">
    <path d="M 72 384.48 
L 518.4 384.48 
" style="fill: none; stroke: #ffffff; stroke-width: 1.25; stroke-linejoin: miter; stroke-linecap: square"/>
   </g>
   <g id="patch_6">
    <path d="M 72 51.84 
L 518.4 51.84 
" style="fill: none; stroke: #ffffff; stroke-width: 1.25; stroke-linejoin: miter; stroke-linecap: square"/>
   </g>
   <g id="text_10">
    <!-- Percentage of QC Hosts Reads vs Adaptive sampling during sequencing (Host Excluded) -->
    <g style="fill: #262626" transform="translate(58.086562 45.84) scale(0.12 -0.12)">
     <use xlink:href="#ArialMT-50"/>
     <use xlink:href="#ArialMT-65" transform="translate(66.699219 0)"/>
     <use xlink:href="#ArialMT-72" transform="translate(122.314453 0)"/>
     <use xlink:href="#ArialMT-63" transform="translate(155.615234 0)"/>
     <use xlink:href="#ArialMT-65" transform="translate(205.615234 0)"/>
     <use xlink:href="#ArialMT-6e" transform="translate(261.230469 0)"/>
     <use xlink:href="#ArialMT-74" transform="translate(316.845703 0)"/>
     <use xlink:href="#ArialMT-61" transform="translate(344.628906 0)"/>
     <use xlink:href="#ArialMT-67" transform="translate(400.244141 0)"/>
     <use xlink:href="#ArialMT-65" transform="translate(455.859375 0)"/>
     <use xlink:href="#ArialMT-20" transform="translate(511.474609 0)"/>
     <use xlink:href="#ArialMT-6f" transform="translate(539.257812 0)"/>
     <use xlink:href="#ArialMT-66" transform="translate(594.873047 0)"/>
     <use xlink:href="#ArialMT-20" transform="translate(622.65625 0)"/>
     <use xlink:href="#ArialMT-51" transform="translate(650.439453 0)"/>
     <use xlink:href="#ArialMT-43" transform="translate(728.222656 0)"/>
     <use xlink:href="#ArialMT-20" transform="translate(800.439453 0)"/>
     <use xlink:href="#ArialMT-48" transform="translate(828.222656 0)"/>
     <use xlink:href="#ArialMT-6f" transform="translate(900.439453 0)"/>
     <use xlink:href="#ArialMT-73" transform="translate(956.054688 0)"/>
     <use xlink:href="#ArialMT-74" transform="translate(1006.054688 0)"/>
     <use xlink:href="#ArialMT-73" transform="translate(1033.837891 0)"/>
     <use xlink:href="#ArialMT-20" transform="translate(1083.837891 0)"/>
     <use xlink:href="#ArialMT-52" transform="translate(1111.621094 0)"/>
     <use xlink:href="#ArialMT-65" transform="translate(1183.837891 0)"/>
     <use xlink:href="#ArialMT-61" transform="translate(1239.453125 0)"/>
     <use xlink:href="#ArialMT-64" transform="translate(1295.068359 0)"/>
     <use xlink:href="#ArialMT-73" transform="translate(1350.683594 0)"/>
     <use xlink:href="#ArialMT-20" transform="translate(1400.683594 0)"/>
     <use xlink:href="#ArialMT-76" transform="translate(1428.466797 0)"/>
     <use xlink:href="#ArialMT-73" transform="translate(1478.466797 0)"/>
     <use xlink:href="#ArialMT-20" transform="translate(1528.466797 0)"/>
     <use xlink:href="#ArialMT-41" transform="translate(1550.75 0)"/>
     <use xlink:href="#ArialMT-64" transform="translate(1617.449219 0)"/>
     <use xlink:href="#ArialMT-61" transform="translate(1673.064453 0)"/>
     <use xlink:href="#ArialMT-70" transform="translate(1728.679688 0)"/>
     <use xlink:href="#ArialMT-74" transform="translate(1784.294922 0)"/>
     <use xlink:href="#ArialMT-69" transform="translate(1812.078125 0)"/>
     <use xlink:href="#ArialMT-76" transform="translate(1834.294922 0)"/>
     <use xlink:href="#ArialMT-65" transform="translate(1884.294922 0)"/>
     <use xlink:href="#ArialMT-20" transform="translate(1939.910156 0)"/>
     <use xlink:href="#ArialMT-73" transform="translate(1967.693359 0)"/>
     <use xlink:href="#ArialMT-61" transform="translate(2017.693359 0)"/>
     <use xlink:href="#ArialMT-6d" transform="translate(2073.308594 0)"/>
     <use xlink:href="#ArialMT-70" transform="translate(2156.609375 0)"/>
     <use xlink:href="#ArialMT-6c" transform="translate(2212.224609 0)"/>
     <use xlink:href="#ArialMT-69" transform="translate(2234.441406 0)"/>
     <use xlink:href="#ArialMT-6e" transform="translate(2256.658203 0)"/>
     <use xlink:href="#ArialMT-67" transform="translate(2312.273438 0)"/>
     <use xlink:href="#ArialMT-20" transform="translate(2367.888672 0)"/>
     <use xlink:href="#ArialMT-64" transform="translate(2395.671875 0)"/>
     <use xlink:href="#ArialMT-75" transform="translate(2451.287109 0)"/>
     <use xlink:href="#ArialMT-72" transform="translate(2506.902344 0)"/>
     <use xlink:href="#ArialMT-69" transform="translate(2540.203125 0)"/>
     <use xlink:href="#ArialMT-6e" transform="translate(2562.419922 0)"/>
     <use xlink:href="#ArialMT-67" transform="translate(2618.035156 0)"/>
     <use xlink:href="#ArialMT-20" transform="translate(2673.650391 0)"/>
     <use xlink:href="#ArialMT-73" transform="translate(2701.433594 0)"/>
     <use xlink:href="#ArialMT-65" transform="translate(2751.433594 0)"/>
     <use xlink:href="#ArialMT-71" transform="translate(2807.048828 0)"/>
     <use xlink:href="#ArialMT-75" transform="translate(2862.664062 0)"/>
     <use xlink:href="#ArialMT-65" transform="translate(2918.279297 0)"/>
     <use xlink:href="#ArialMT-6e" transform="translate(2973.894531 0)"/>
     <use xlink:href="#ArialMT-63" transform="translate(3029.509766 0)"/>
     <use xlink:href="#ArialMT-69" transform="translate(3079.509766 0)"/>
     <use xlink:href="#ArialMT-6e" transform="translate(3101.726562 0)"/>
     <use xlink:href="#ArialMT-67" transform="translate(3157.341797 0)"/>
     <use xlink:href="#ArialMT-20" transform="translate(3212.957031 0)"/>
     <use xlink:href="#ArialMT-28" transform="translate(3240.740234 0)"/>
     <use xlink:href="#ArialMT-48" transform="translate(3274.041016 0)"/>
     <use xlink:href="#ArialMT-6f" transform="translate(3346.257812 0)"/>
     <use xlink:href="#ArialMT-73" transform="translate(3401.873047 0)"/>
     <use xlink:href="#ArialMT-74" transform="translate(3451.873047 0)"/>
     <use xlink:href="#ArialMT-20" transform="translate(3479.65625 0)"/>
     <use xlink:href="#ArialMT-45" transform="translate(3507.439453 0)"/>
     <use xlink:href="#ArialMT-78" transform="translate(3574.138672 0)"/>
     <use xlink:href="#ArialMT-63" transform="translate(3624.138672 0)"/>
     <use xlink:href="#ArialMT-6c" transform="translate(3674.138672 0)"/>
     <use xlink:href="#ArialMT-75" transform="translate(3696.355469 0)"/>
     <use xlink:href="#ArialMT-64" transform="translate(3751.970703 0)"/>
     <use xlink:href="#ArialMT-65" transform="translate(3807.585938 0)"/>
     <use xlink:href="#ArialMT-64" transform="translate(3863.201172 0)"/>
     <use xlink:href="#ArialMT-29" transform="translate(3918.816406 0)"/>
    </g>
   </g>
  </g>
 </g>
 <defs>
  <clipPath id="p57f23cbbc2">
   <rect x="72" y="51.84" width="446.4" height="332.64"/>
  </clipPath>
 </defs>
</svg>
