<?xml version="1.0" encoding="utf-8" standalone="no"?>
<!DOCTYPE svg PUBLIC "-//W3C//DTD SVG 1.1//EN"
  "http://www.w3.org/Graphics/SVG/1.1/DTD/svg11.dtd">
<svg xmlns:xlink="http://www.w3.org/1999/xlink" width="460.8pt" height="345.6pt" viewBox="0 0 460.8 345.6" xmlns="http://www.w3.org/2000/svg" version="1.1">
 <metadata>
  <rdf:RDF xmlns:dc="http://purl.org/dc/elements/1.1/" xmlns:cc="http://creativecommons.org/ns#" xmlns:rdf="http://www.w3.org/1999/02/22-rdf-syntax-ns#">
   <cc:Work>
    <dc:type rdf:resource="http://purl.org/dc/dcmitype/StillImage"/>
    <dc:date>2023-10-11T16:43:07.849351</dc:date>
    <dc:format>image/svg+xml</dc:format>
    <dc:creator>
     <cc:Agent>
      <dc:title>Matplotlib v3.7.1, https://matplotlib.org/</dc:title>
     </cc:Agent>
    </dc:creator>
   </cc:Work>
  </rdf:RDF>
 </metadata>
 <defs>
  <style type="text/css">*{stroke-linejoin: round; stroke-linecap: butt}</style>
 </defs>
 <g id="figure_1">
  <g id="patch_1">
   <path d="M 0 345.6 
L 460.8 345.6 
L 460.8 0 
L 0 0 
z
" style="fill: #ffffff"/>
  </g>
  <g id="axes_1">
   <g id="patch_2">
    <path d="M 57.6 307.584 
L 414.72 307.584 
L 414.72 41.472 
L 57.6 41.472 
z
" style="fill: #ffffff"/>
   </g>
   <g id="PolyCollection_1">
    <defs>
     <path id="me3ff4ddf32" d="M 147.164904 -50.112 
L 146.595096 -50.112 
L 146.500068 -52.555636 
L 146.382239 -54.999273 
L 146.239233 -57.442909 
L 146.069394 -59.886545 
L 145.872076 -62.330182 
L 145.647889 -64.773818 
L 145.398875 -67.217455 
L 145.128564 -69.661091 
L 144.841878 -72.104727 
L 144.544877 -74.548364 
L 144.244343 -76.992 
L 143.947234 -79.435636 
L 143.660059 -81.879273 
L 143.388257 -84.322909 
L 143.13565 -86.766545 
L 142.904053 -89.210182 
L 142.693114 -91.653818 
L 142.500421 -94.097455 
L 142.321872 -96.541091 
L 142.152286 -98.984727 
L 141.986168 -101.428364 
L 141.818547 -103.872 
L 141.645757 -106.315636 
L 141.466073 -108.759273 
L 141.280091 -111.202909 
L 141.09082 -113.646545 
L 140.903455 -116.090182 
L 140.724875 -118.533818 
L 140.56293 -120.977455 
L 140.425613 -123.421091 
L 140.320231 -125.864727 
L 140.252679 -128.308364 
L 140.226896 -130.752 
L 140.244577 -133.195636 
L 140.30514 -135.639273 
L 140.405944 -138.082909 
L 140.542706 -140.526545 
L 140.710048 -142.970182 
L 140.902087 -145.413818 
L 141.113001 -147.857455 
L 141.337489 -150.301091 
L 141.571097 -152.744727 
L 141.810379 -155.188364 
L 142.052894 -157.632 
L 142.297084 -160.075636 
L 142.542045 -162.519273 
L 142.787267 -164.962909 
L 143.032366 -167.406545 
L 143.276862 -169.850182 
L 143.520019 -172.293818 
L 143.760767 -174.737455 
L 143.997699 -177.181091 
L 144.229133 -179.624727 
L 144.453221 -182.068364 
L 144.66808 -184.512 
L 144.871933 -186.955636 
L 145.063234 -189.399273 
L 145.240768 -191.842909 
L 145.403722 -194.286545 
L 145.551725 -196.730182 
L 145.684844 -199.173818 
L 145.803557 -201.617455 
L 145.908688 -204.061091 
L 146.001325 -206.504727 
L 146.082716 -208.948364 
L 146.154158 -211.392 
L 146.216891 -213.835636 
L 146.272006 -216.279273 
L 146.320376 -218.722909 
L 146.36263 -221.166545 
L 146.399151 -223.610182 
L 146.430129 -226.053818 
L 146.455629 -228.497455 
L 146.475692 -230.941091 
L 146.490433 -233.384727 
L 146.500135 -235.828364 
L 146.505313 -238.272 
L 146.506744 -240.715636 
L 146.505461 -243.159273 
L 146.502695 -245.602909 
L 146.499795 -248.046545 
L 146.498116 -250.490182 
L 146.498903 -252.933818 
L 146.50318 -255.377455 
L 146.511665 -257.821091 
L 146.524709 -260.264727 
L 146.542284 -262.708364 
L 146.564005 -265.152 
L 146.58918 -267.595636 
L 146.616899 -270.039273 
L 146.646126 -272.482909 
L 146.675798 -274.926545 
L 146.704913 -277.370182 
L 146.732605 -279.813818 
L 146.758187 -282.257455 
L 146.78118 -284.701091 
L 146.801313 -287.144727 
L 146.818503 -289.588364 
L 146.832829 -292.032 
L 146.927171 -292.032 
L 146.927171 -292.032 
L 146.941497 -289.588364 
L 146.958687 -287.144727 
L 146.97882 -284.701091 
L 147.001813 -282.257455 
L 147.027395 -279.813818 
L 147.055087 -277.370182 
L 147.084202 -274.926545 
L 147.113874 -272.482909 
L 147.143101 -270.039273 
L 147.17082 -267.595636 
L 147.195995 -265.152 
L 147.217716 -262.708364 
L 147.235291 -260.264727 
L 147.248335 -257.821091 
L 147.25682 -255.377455 
L 147.261097 -252.933818 
L 147.261884 -250.490182 
L 147.260205 -248.046545 
L 147.257305 -245.602909 
L 147.254539 -243.159273 
L 147.253256 -240.715636 
L 147.254687 -238.272 
L 147.259865 -235.828364 
L 147.269567 -233.384727 
L 147.284308 -230.941091 
L 147.304371 -228.497455 
L 147.329871 -226.053818 
L 147.360849 -223.610182 
L 147.39737 -221.166545 
L 147.439624 -218.722909 
L 147.487994 -216.279273 
L 147.543109 -213.835636 
L 147.605842 -211.392 
L 147.677284 -208.948364 
L 147.758675 -206.504727 
L 147.851312 -204.061091 
L 147.956443 -201.617455 
L 148.075156 -199.173818 
L 148.208275 -196.730182 
L 148.356278 -194.286545 
L 148.519232 -191.842909 
L 148.696766 -189.399273 
L 148.888067 -186.955636 
L 149.09192 -184.512 
L 149.306779 -182.068364 
L 149.530867 -179.624727 
L 149.762301 -177.181091 
L 149.999233 -174.737455 
L 150.239981 -172.293818 
L 150.483138 -169.850182 
L 150.727634 -167.406545 
L 150.972733 -164.962909 
L 151.217955 -162.519273 
L 151.462916 -160.075636 
L 151.707106 -157.632 
L 151.949621 -155.188364 
L 152.188903 -152.744727 
L 152.422511 -150.301091 
L 152.646999 -147.857455 
L 152.857913 -145.413818 
L 153.049952 -142.970182 
L 153.217294 -140.526545 
L 153.354056 -138.082909 
L 153.45486 -135.639273 
L 153.515423 -133.195636 
L 153.533104 -130.752 
L 153.507321 -128.308364 
L 153.439769 -125.864727 
L 153.334387 -123.421091 
L 153.19707 -120.977455 
L 153.035125 -118.533818 
L 152.856545 -116.090182 
L 152.66918 -113.646545 
L 152.479909 -111.202909 
L 152.293927 -108.759273 
L 152.114243 -106.315636 
L 151.941453 -103.872 
L 151.773832 -101.428364 
L 151.607714 -98.984727 
L 151.438128 -96.541091 
L 151.259579 -94.097455 
L 151.066886 -91.653818 
L 150.855947 -89.210182 
L 150.62435 -86.766545 
L 150.371743 -84.322909 
L 150.099941 -81.879273 
L 149.812766 -79.435636 
L 149.515657 -76.992 
L 149.215123 -74.548364 
L 148.918122 -72.104727 
L 148.631436 -69.661091 
L 148.361125 -67.217455 
L 148.112111 -64.773818 
L 147.887924 -62.330182 
L 147.690606 -59.886545 
L 147.520767 -57.442909 
L 147.377761 -54.999273 
L 147.259932 -52.555636 
L 147.164904 -50.112 
z
" style="stroke: #3f3f3f; stroke-width: 1.5"/>
    </defs>
    <g clip-path="url(#p5661b37ec6)">
     <use xlink:href="#me3ff4ddf32" x="0" y="345.6" style="fill: #3274a1; stroke: #3f3f3f; stroke-width: 1.5"/>
    </g>
   </g>
   <g id="PolyCollection_2">
    <defs>
     <path id="mde0080be18" d="M 331.191155 -72.757151 
L 319.688845 -72.757151 
L 318.646696 -72.968576 
L 317.462479 -73.18 
L 316.126318 -73.391425 
L 314.629465 -73.602849 
L 312.964694 -73.814274 
L 311.1267 -74.025698 
L 309.112514 -74.237123 
L 306.921895 -74.448548 
L 304.557697 -74.659972 
L 302.026194 -74.871397 
L 299.337336 -75.082821 
L 296.504933 -75.294246 
L 293.546743 -75.50567 
L 290.484457 -75.717095 
L 287.343562 -75.928519 
L 284.15309 -76.139944 
L 280.945245 -76.351369 
L 277.754903 -76.562793 
L 274.619015 -76.774218 
L 271.5759 -76.985642 
L 268.664468 -77.197067 
L 265.923386 -77.408491 
L 263.390203 -77.619916 
L 261.100485 -77.83134 
L 259.086957 -78.042765 
L 257.378715 -78.254189 
L 256.000497 -78.465614 
L 254.972072 -78.677039 
L 254.307745 -78.888463 
L 254.016 -79.099888 
L 254.099294 -79.311312 
L 254.554007 -79.522737 
L 255.370548 -79.734161 
L 256.533602 -79.945586 
L 258.022528 -80.15701 
L 259.811866 -80.368435 
L 261.87196 -80.57986 
L 264.169652 -80.791284 
L 266.669048 -81.002709 
L 269.332308 -81.214133 
L 272.120454 -81.425558 
L 274.994168 -81.636982 
L 277.914557 -81.848407 
L 280.843868 -82.059831 
L 283.746149 -82.271256 
L 286.587822 -82.48268 
L 289.338187 -82.694105 
L 291.969827 -82.90553 
L 294.458928 -83.116954 
L 296.785514 -83.328379 
L 298.93358 -83.539803 
L 300.891163 -83.751228 
L 302.650315 -83.962652 
L 304.207023 -84.174077 
L 305.561051 -84.385501 
L 306.715731 -84.596926 
L 307.677708 -84.808351 
L 308.45663 -85.019775 
L 309.064815 -85.2312 
L 309.516877 -85.442624 
L 309.829332 -85.654049 
L 310.020188 -85.865473 
L 310.10852 -86.076898 
L 310.114041 -86.288322 
L 310.05668 -86.499747 
L 309.956163 -86.711171 
L 309.831614 -86.922596 
L 309.701182 -87.134021 
L 309.581702 -87.345445 
L 309.488387 -87.55687 
L 309.434581 -87.768294 
L 309.431551 -87.979719 
L 309.488342 -88.191143 
L 309.611694 -88.402568 
L 309.806016 -88.613992 
L 310.073427 -88.825417 
L 310.413843 -89.036842 
L 310.825137 -89.248266 
L 311.303325 -89.459691 
L 311.842812 -89.671115 
L 312.436651 -89.88254 
L 313.076838 -90.093964 
L 313.754605 -90.305389 
L 314.460724 -90.516813 
L 315.185789 -90.728238 
L 315.920495 -90.939663 
L 316.655877 -91.151087 
L 317.383525 -91.362512 
L 318.095759 -91.573936 
L 318.785767 -91.785361 
L 319.447698 -91.996785 
L 320.076724 -92.20821 
L 320.669056 -92.419634 
L 321.22193 -92.631059 
L 321.733562 -92.842483 
L 322.203084 -93.053908 
L 322.630449 -93.265333 
L 323.016339 -93.476757 
L 323.362047 -93.688182 
L 327.517953 -93.688182 
L 327.517953 -93.688182 
L 327.863661 -93.476757 
L 328.249551 -93.265333 
L 328.676916 -93.053908 
L 329.146438 -92.842483 
L 329.65807 -92.631059 
L 330.210944 -92.419634 
L 330.803276 -92.20821 
L 331.432302 -91.996785 
L 332.094233 -91.785361 
L 332.784241 -91.573936 
L 333.496475 -91.362512 
L 334.224123 -91.151087 
L 334.959505 -90.939663 
L 335.694211 -90.728238 
L 336.419276 -90.516813 
L 337.125395 -90.305389 
L 337.803162 -90.093964 
L 338.443349 -89.88254 
L 339.037188 -89.671115 
L 339.576675 -89.459691 
L 340.054863 -89.248266 
L 340.466157 -89.036842 
L 340.806573 -88.825417 
L 341.073984 -88.613992 
L 341.268306 -88.402568 
L 341.391658 -88.191143 
L 341.448449 -87.979719 
L 341.445419 -87.768294 
L 341.391613 -87.55687 
L 341.298298 -87.345445 
L 341.178818 -87.134021 
L 341.048386 -86.922596 
L 340.923837 -86.711171 
L 340.82332 -86.499747 
L 340.765959 -86.288322 
L 340.77148 -86.076898 
L 340.859812 -85.865473 
L 341.050668 -85.654049 
L 341.363123 -85.442624 
L 341.815185 -85.2312 
L 342.42337 -85.019775 
L 343.202292 -84.808351 
L 344.164269 -84.596926 
L 345.318949 -84.385501 
L 346.672977 -84.174077 
L 348.229685 -83.962652 
L 349.988837 -83.751228 
L 351.94642 -83.539803 
L 354.094486 -83.328379 
L 356.421072 -83.116954 
L 358.910173 -82.90553 
L 361.541813 -82.694105 
L 364.292178 -82.48268 
L 367.133851 -82.271256 
L 370.036132 -82.059831 
L 372.965443 -81.848407 
L 375.885832 -81.636982 
L 378.759546 -81.425558 
L 381.547692 -81.214133 
L 384.210952 -81.002709 
L 386.710348 -80.791284 
L 389.00804 -80.57986 
L 391.068134 -80.368435 
L 392.857472 -80.15701 
L 394.346398 -79.945586 
L 395.509452 -79.734161 
L 396.325993 -79.522737 
L 396.780706 -79.311312 
L 396.864 -79.099888 
L 396.572255 -78.888463 
L 395.907928 -78.677039 
L 394.879503 -78.465614 
L 393.501285 -78.254189 
L 391.793043 -78.042765 
L 389.779515 -77.83134 
L 387.489797 -77.619916 
L 384.956614 -77.408491 
L 382.215532 -77.197067 
L 379.3041 -76.985642 
L 376.260985 -76.774218 
L 373.125097 -76.562793 
L 369.934755 -76.351369 
L 366.72691 -76.139944 
L 363.536438 -75.928519 
L 360.395543 -75.717095 
L 357.333257 -75.50567 
L 354.375067 -75.294246 
L 351.542664 -75.082821 
L 348.853806 -74.871397 
L 346.322303 -74.659972 
L 343.958105 -74.448548 
L 341.767486 -74.237123 
L 339.7533 -74.025698 
L 337.915306 -73.814274 
L 336.250535 -73.602849 
L 334.753682 -73.391425 
L 333.417521 -73.18 
L 332.233304 -72.968576 
L 331.191155 -72.757151 
z
" style="stroke: #3f3f3f; stroke-width: 1.5"/>
    </defs>
    <g clip-path="url(#p5661b37ec6)">
     <use xlink:href="#mde0080be18" x="0" y="345.6" style="fill: #e1812c; stroke: #3f3f3f; stroke-width: 1.5"/>
    </g>
   </g>
   <g id="matplotlib.axis_1">
    <g id="xtick_1">
     <g id="line2d_1">
      <defs>
       <path id="mf3943e06e7" d="M 0 0 
L 0 3.5 
" style="stroke: #000000; stroke-width: 0.8"/>
      </defs>
      <g>
       <use xlink:href="#mf3943e06e7" x="146.88" y="307.584" style="stroke: #000000; stroke-width: 0.8"/>
      </g>
     </g>
     <g id="text_1">
      <!-- No -->
      <g transform="translate(140.08 322.182437) scale(0.1 -0.1)">
       <defs>
        <path id="DejaVuSans-4e" d="M 628 4666 
L 1478 4666 
L 3547 763 
L 3547 4666 
L 4159 4666 
L 4159 0 
L 3309 0 
L 1241 3903 
L 1241 0 
L 628 0 
L 628 4666 
z
" transform="scale(0.015625)"/>
        <path id="DejaVuSans-6f" d="M 1959 3097 
Q 1497 3097 1228 2736 
Q 959 2375 959 1747 
Q 959 1119 1226 758 
Q 1494 397 1959 397 
Q 2419 397 2687 759 
Q 2956 1122 2956 1747 
Q 2956 2369 2687 2733 
Q 2419 3097 1959 3097 
z
M 1959 3584 
Q 2709 3584 3137 3096 
Q 3566 2609 3566 1747 
Q 3566 888 3137 398 
Q 2709 -91 1959 -91 
Q 1206 -91 779 398 
Q 353 888 353 1747 
Q 353 2609 779 3096 
Q 1206 3584 1959 3584 
z
" transform="scale(0.015625)"/>
       </defs>
       <use xlink:href="#DejaVuSans-4e"/>
       <use xlink:href="#DejaVuSans-6f" x="74.804688"/>
      </g>
     </g>
    </g>
    <g id="xtick_2">
     <g id="line2d_2">
      <g>
       <use xlink:href="#mf3943e06e7" x="325.44" y="307.584" style="stroke: #000000; stroke-width: 0.8"/>
      </g>
     </g>
     <g id="text_2">
      <!-- Yes -->
      <g transform="translate(317.367344 322.182437) scale(0.1 -0.1)">
       <defs>
        <path id="DejaVuSans-59" d="M -13 4666 
L 666 4666 
L 1959 2747 
L 3244 4666 
L 3922 4666 
L 2272 2222 
L 2272 0 
L 1638 0 
L 1638 2222 
L -13 4666 
z
" transform="scale(0.015625)"/>
        <path id="DejaVuSans-65" d="M 3597 1894 
L 3597 1613 
L 953 1613 
Q 991 1019 1311 708 
Q 1631 397 2203 397 
Q 2534 397 2845 478 
Q 3156 559 3463 722 
L 3463 178 
Q 3153 47 2828 -22 
Q 2503 -91 2169 -91 
Q 1331 -91 842 396 
Q 353 884 353 1716 
Q 353 2575 817 3079 
Q 1281 3584 2069 3584 
Q 2775 3584 3186 3129 
Q 3597 2675 3597 1894 
z
M 3022 2063 
Q 3016 2534 2758 2815 
Q 2500 3097 2075 3097 
Q 1594 3097 1305 2825 
Q 1016 2553 972 2059 
L 3022 2063 
z
" transform="scale(0.015625)"/>
        <path id="DejaVuSans-73" d="M 2834 3397 
L 2834 2853 
Q 2591 2978 2328 3040 
Q 2066 3103 1784 3103 
Q 1356 3103 1142 2972 
Q 928 2841 928 2578 
Q 928 2378 1081 2264 
Q 1234 2150 1697 2047 
L 1894 2003 
Q 2506 1872 2764 1633 
Q 3022 1394 3022 966 
Q 3022 478 2636 193 
Q 2250 -91 1575 -91 
Q 1294 -91 989 -36 
Q 684 19 347 128 
L 347 722 
Q 666 556 975 473 
Q 1284 391 1588 391 
Q 1994 391 2212 530 
Q 2431 669 2431 922 
Q 2431 1156 2273 1281 
Q 2116 1406 1581 1522 
L 1381 1569 
Q 847 1681 609 1914 
Q 372 2147 372 2553 
Q 372 3047 722 3315 
Q 1072 3584 1716 3584 
Q 2034 3584 2315 3537 
Q 2597 3491 2834 3397 
z
" transform="scale(0.015625)"/>
       </defs>
       <use xlink:href="#DejaVuSans-59"/>
       <use xlink:href="#DejaVuSans-65" x="47.833984"/>
       <use xlink:href="#DejaVuSans-73" x="109.357422"/>
      </g>
     </g>
    </g>
    <g id="text_3">
     <!-- Depletion -->
     <g transform="translate(212.01625 335.860562) scale(0.1 -0.1)">
      <defs>
       <path id="DejaVuSans-44" d="M 1259 4147 
L 1259 519 
L 2022 519 
Q 2988 519 3436 956 
Q 3884 1394 3884 2338 
Q 3884 3275 3436 3711 
Q 2988 4147 2022 4147 
L 1259 4147 
z
M 628 4666 
L 1925 4666 
Q 3281 4666 3915 4102 
Q 4550 3538 4550 2338 
Q 4550 1131 3912 565 
Q 3275 0 1925 0 
L 628 0 
L 628 4666 
z
" transform="scale(0.015625)"/>
       <path id="DejaVuSans-70" d="M 1159 525 
L 1159 -1331 
L 581 -1331 
L 581 3500 
L 1159 3500 
L 1159 2969 
Q 1341 3281 1617 3432 
Q 1894 3584 2278 3584 
Q 2916 3584 3314 3078 
Q 3713 2572 3713 1747 
Q 3713 922 3314 415 
Q 2916 -91 2278 -91 
Q 1894 -91 1617 61 
Q 1341 213 1159 525 
z
M 3116 1747 
Q 3116 2381 2855 2742 
Q 2594 3103 2138 3103 
Q 1681 3103 1420 2742 
Q 1159 2381 1159 1747 
Q 1159 1113 1420 752 
Q 1681 391 2138 391 
Q 2594 391 2855 752 
Q 3116 1113 3116 1747 
z
" transform="scale(0.015625)"/>
       <path id="DejaVuSans-6c" d="M 603 4863 
L 1178 4863 
L 1178 0 
L 603 0 
L 603 4863 
z
" transform="scale(0.015625)"/>
       <path id="DejaVuSans-74" d="M 1172 4494 
L 1172 3500 
L 2356 3500 
L 2356 3053 
L 1172 3053 
L 1172 1153 
Q 1172 725 1289 603 
Q 1406 481 1766 481 
L 2356 481 
L 2356 0 
L 1766 0 
Q 1100 0 847 248 
Q 594 497 594 1153 
L 594 3053 
L 172 3053 
L 172 3500 
L 594 3500 
L 594 4494 
L 1172 4494 
z
" transform="scale(0.015625)"/>
       <path id="DejaVuSans-69" d="M 603 3500 
L 1178 3500 
L 1178 0 
L 603 0 
L 603 3500 
z
M 603 4863 
L 1178 4863 
L 1178 4134 
L 603 4134 
L 603 4863 
z
" transform="scale(0.015625)"/>
       <path id="DejaVuSans-6e" d="M 3513 2113 
L 3513 0 
L 2938 0 
L 2938 2094 
Q 2938 2591 2744 2837 
Q 2550 3084 2163 3084 
Q 1697 3084 1428 2787 
Q 1159 2491 1159 1978 
L 1159 0 
L 581 0 
L 581 3500 
L 1159 3500 
L 1159 2956 
Q 1366 3272 1645 3428 
Q 1925 3584 2291 3584 
Q 2894 3584 3203 3211 
Q 3513 2838 3513 2113 
z
" transform="scale(0.015625)"/>
      </defs>
      <use xlink:href="#DejaVuSans-44"/>
      <use xlink:href="#DejaVuSans-65" x="77.001953"/>
      <use xlink:href="#DejaVuSans-70" x="138.525391"/>
      <use xlink:href="#DejaVuSans-6c" x="202.001953"/>
      <use xlink:href="#DejaVuSans-65" x="229.785156"/>
      <use xlink:href="#DejaVuSans-74" x="291.308594"/>
      <use xlink:href="#DejaVuSans-69" x="330.517578"/>
      <use xlink:href="#DejaVuSans-6f" x="358.300781"/>
      <use xlink:href="#DejaVuSans-6e" x="419.482422"/>
     </g>
    </g>
   </g>
   <g id="matplotlib.axis_2">
    <g id="ytick_1">
     <g id="line2d_3">
      <defs>
       <path id="md1017fca52" d="M 0 0 
L -3.5 0 
" style="stroke: #000000; stroke-width: 0.8"/>
      </defs>
      <g>
       <use xlink:href="#md1017fca52" x="57.6" y="270.994889" style="stroke: #000000; stroke-width: 0.8"/>
      </g>
     </g>
     <g id="text_4">
      <!-- 0 -->
      <g transform="translate(44.2375 274.794108) scale(0.1 -0.1)">
       <defs>
        <path id="DejaVuSans-30" d="M 2034 4250 
Q 1547 4250 1301 3770 
Q 1056 3291 1056 2328 
Q 1056 1369 1301 889 
Q 1547 409 2034 409 
Q 2525 409 2770 889 
Q 3016 1369 3016 2328 
Q 3016 3291 2770 3770 
Q 2525 4250 2034 4250 
z
M 2034 4750 
Q 2819 4750 3233 4129 
Q 3647 3509 3647 2328 
Q 3647 1150 3233 529 
Q 2819 -91 2034 -91 
Q 1250 -91 836 529 
Q 422 1150 422 2328 
Q 422 3509 836 4129 
Q 1250 4750 2034 4750 
z
" transform="scale(0.015625)"/>
       </defs>
       <use xlink:href="#DejaVuSans-30"/>
      </g>
     </g>
    </g>
    <g id="ytick_2">
     <g id="line2d_4">
      <g>
       <use xlink:href="#md1017fca52" x="57.6" y="224.604087" style="stroke: #000000; stroke-width: 0.8"/>
      </g>
     </g>
     <g id="text_5">
      <!-- 50000 -->
      <g transform="translate(18.7875 228.403306) scale(0.1 -0.1)">
       <defs>
        <path id="DejaVuSans-35" d="M 691 4666 
L 3169 4666 
L 3169 4134 
L 1269 4134 
L 1269 2991 
Q 1406 3038 1543 3061 
Q 1681 3084 1819 3084 
Q 2600 3084 3056 2656 
Q 3513 2228 3513 1497 
Q 3513 744 3044 326 
Q 2575 -91 1722 -91 
Q 1428 -91 1123 -41 
Q 819 9 494 109 
L 494 744 
Q 775 591 1075 516 
Q 1375 441 1709 441 
Q 2250 441 2565 725 
Q 2881 1009 2881 1497 
Q 2881 1984 2565 2268 
Q 2250 2553 1709 2553 
Q 1456 2553 1204 2497 
Q 953 2441 691 2322 
L 691 4666 
z
" transform="scale(0.015625)"/>
       </defs>
       <use xlink:href="#DejaVuSans-35"/>
       <use xlink:href="#DejaVuSans-30" x="63.623047"/>
       <use xlink:href="#DejaVuSans-30" x="127.246094"/>
       <use xlink:href="#DejaVuSans-30" x="190.869141"/>
       <use xlink:href="#DejaVuSans-30" x="254.492188"/>
      </g>
     </g>
    </g>
    <g id="ytick_3">
     <g id="line2d_5">
      <g>
       <use xlink:href="#md1017fca52" x="57.6" y="178.213285" style="stroke: #000000; stroke-width: 0.8"/>
      </g>
     </g>
     <g id="text_6">
      <!-- 100000 -->
      <g transform="translate(12.425 182.012504) scale(0.1 -0.1)">
       <defs>
        <path id="DejaVuSans-31" d="M 794 531 
L 1825 531 
L 1825 4091 
L 703 3866 
L 703 4441 
L 1819 4666 
L 2450 4666 
L 2450 531 
L 3481 531 
L 3481 0 
L 794 0 
L 794 531 
z
" transform="scale(0.015625)"/>
       </defs>
       <use xlink:href="#DejaVuSans-31"/>
       <use xlink:href="#DejaVuSans-30" x="63.623047"/>
       <use xlink:href="#DejaVuSans-30" x="127.246094"/>
       <use xlink:href="#DejaVuSans-30" x="190.869141"/>
       <use xlink:href="#DejaVuSans-30" x="254.492188"/>
       <use xlink:href="#DejaVuSans-30" x="318.115234"/>
      </g>
     </g>
    </g>
    <g id="ytick_4">
     <g id="line2d_6">
      <g>
       <use xlink:href="#md1017fca52" x="57.6" y="131.822483" style="stroke: #000000; stroke-width: 0.8"/>
      </g>
     </g>
     <g id="text_7">
      <!-- 150000 -->
      <g transform="translate(12.425 135.621702) scale(0.1 -0.1)">
       <use xlink:href="#DejaVuSans-31"/>
       <use xlink:href="#DejaVuSans-35" x="63.623047"/>
       <use xlink:href="#DejaVuSans-30" x="127.246094"/>
       <use xlink:href="#DejaVuSans-30" x="190.869141"/>
       <use xlink:href="#DejaVuSans-30" x="254.492188"/>
       <use xlink:href="#DejaVuSans-30" x="318.115234"/>
      </g>
     </g>
    </g>
    <g id="ytick_5">
     <g id="line2d_7">
      <g>
       <use xlink:href="#md1017fca52" x="57.6" y="85.431682" style="stroke: #000000; stroke-width: 0.8"/>
      </g>
     </g>
     <g id="text_8">
      <!-- 200000 -->
      <g transform="translate(12.425 89.2309) scale(0.1 -0.1)">
       <defs>
        <path id="DejaVuSans-32" d="M 1228 531 
L 3431 531 
L 3431 0 
L 469 0 
L 469 531 
Q 828 903 1448 1529 
Q 2069 2156 2228 2338 
Q 2531 2678 2651 2914 
Q 2772 3150 2772 3378 
Q 2772 3750 2511 3984 
Q 2250 4219 1831 4219 
Q 1534 4219 1204 4116 
Q 875 4013 500 3803 
L 500 4441 
Q 881 4594 1212 4672 
Q 1544 4750 1819 4750 
Q 2544 4750 2975 4387 
Q 3406 4025 3406 3419 
Q 3406 3131 3298 2873 
Q 3191 2616 2906 2266 
Q 2828 2175 2409 1742 
Q 1991 1309 1228 531 
z
" transform="scale(0.015625)"/>
       </defs>
       <use xlink:href="#DejaVuSans-32"/>
       <use xlink:href="#DejaVuSans-30" x="63.623047"/>
       <use xlink:href="#DejaVuSans-30" x="127.246094"/>
       <use xlink:href="#DejaVuSans-30" x="190.869141"/>
       <use xlink:href="#DejaVuSans-30" x="254.492188"/>
       <use xlink:href="#DejaVuSans-30" x="318.115234"/>
      </g>
     </g>
    </g>
    <g id="text_9">
     <!-- Number of QC Hosts Reads -->
     <g transform="translate(6.345312 242.374875) rotate(-90) scale(0.1 -0.1)">
      <defs>
       <path id="DejaVuSans-75" d="M 544 1381 
L 544 3500 
L 1119 3500 
L 1119 1403 
Q 1119 906 1312 657 
Q 1506 409 1894 409 
Q 2359 409 2629 706 
Q 2900 1003 2900 1516 
L 2900 3500 
L 3475 3500 
L 3475 0 
L 2900 0 
L 2900 538 
Q 2691 219 2414 64 
Q 2138 -91 1772 -91 
Q 1169 -91 856 284 
Q 544 659 544 1381 
z
M 1991 3584 
L 1991 3584 
z
" transform="scale(0.015625)"/>
       <path id="DejaVuSans-6d" d="M 3328 2828 
Q 3544 3216 3844 3400 
Q 4144 3584 4550 3584 
Q 5097 3584 5394 3201 
Q 5691 2819 5691 2113 
L 5691 0 
L 5113 0 
L 5113 2094 
Q 5113 2597 4934 2840 
Q 4756 3084 4391 3084 
Q 3944 3084 3684 2787 
Q 3425 2491 3425 1978 
L 3425 0 
L 2847 0 
L 2847 2094 
Q 2847 2600 2669 2842 
Q 2491 3084 2119 3084 
Q 1678 3084 1418 2786 
Q 1159 2488 1159 1978 
L 1159 0 
L 581 0 
L 581 3500 
L 1159 3500 
L 1159 2956 
Q 1356 3278 1631 3431 
Q 1906 3584 2284 3584 
Q 2666 3584 2933 3390 
Q 3200 3197 3328 2828 
z
" transform="scale(0.015625)"/>
       <path id="DejaVuSans-62" d="M 3116 1747 
Q 3116 2381 2855 2742 
Q 2594 3103 2138 3103 
Q 1681 3103 1420 2742 
Q 1159 2381 1159 1747 
Q 1159 1113 1420 752 
Q 1681 391 2138 391 
Q 2594 391 2855 752 
Q 3116 1113 3116 1747 
z
M 1159 2969 
Q 1341 3281 1617 3432 
Q 1894 3584 2278 3584 
Q 2916 3584 3314 3078 
Q 3713 2572 3713 1747 
Q 3713 922 3314 415 
Q 2916 -91 2278 -91 
Q 1894 -91 1617 61 
Q 1341 213 1159 525 
L 1159 0 
L 581 0 
L 581 4863 
L 1159 4863 
L 1159 2969 
z
" transform="scale(0.015625)"/>
       <path id="DejaVuSans-72" d="M 2631 2963 
Q 2534 3019 2420 3045 
Q 2306 3072 2169 3072 
Q 1681 3072 1420 2755 
Q 1159 2438 1159 1844 
L 1159 0 
L 581 0 
L 581 3500 
L 1159 3500 
L 1159 2956 
Q 1341 3275 1631 3429 
Q 1922 3584 2338 3584 
Q 2397 3584 2469 3576 
Q 2541 3569 2628 3553 
L 2631 2963 
z
" transform="scale(0.015625)"/>
       <path id="DejaVuSans-20" transform="scale(0.015625)"/>
       <path id="DejaVuSans-66" d="M 2375 4863 
L 2375 4384 
L 1825 4384 
Q 1516 4384 1395 4259 
Q 1275 4134 1275 3809 
L 1275 3500 
L 2222 3500 
L 2222 3053 
L 1275 3053 
L 1275 0 
L 697 0 
L 697 3053 
L 147 3053 
L 147 3500 
L 697 3500 
L 697 3744 
Q 697 4328 969 4595 
Q 1241 4863 1831 4863 
L 2375 4863 
z
" transform="scale(0.015625)"/>
       <path id="DejaVuSans-51" d="M 2522 4238 
Q 1834 4238 1429 3725 
Q 1025 3213 1025 2328 
Q 1025 1447 1429 934 
Q 1834 422 2522 422 
Q 3209 422 3611 934 
Q 4013 1447 4013 2328 
Q 4013 3213 3611 3725 
Q 3209 4238 2522 4238 
z
M 3406 84 
L 4238 -825 
L 3475 -825 
L 2784 -78 
Q 2681 -84 2626 -87 
Q 2572 -91 2522 -91 
Q 1538 -91 948 567 
Q 359 1225 359 2328 
Q 359 3434 948 4092 
Q 1538 4750 2522 4750 
Q 3503 4750 4090 4092 
Q 4678 3434 4678 2328 
Q 4678 1516 4351 937 
Q 4025 359 3406 84 
z
" transform="scale(0.015625)"/>
       <path id="DejaVuSans-43" d="M 4122 4306 
L 4122 3641 
Q 3803 3938 3442 4084 
Q 3081 4231 2675 4231 
Q 1875 4231 1450 3742 
Q 1025 3253 1025 2328 
Q 1025 1406 1450 917 
Q 1875 428 2675 428 
Q 3081 428 3442 575 
Q 3803 722 4122 1019 
L 4122 359 
Q 3791 134 3420 21 
Q 3050 -91 2638 -91 
Q 1578 -91 968 557 
Q 359 1206 359 2328 
Q 359 3453 968 4101 
Q 1578 4750 2638 4750 
Q 3056 4750 3426 4639 
Q 3797 4528 4122 4306 
z
" transform="scale(0.015625)"/>
       <path id="DejaVuSans-48" d="M 628 4666 
L 1259 4666 
L 1259 2753 
L 3553 2753 
L 3553 4666 
L 4184 4666 
L 4184 0 
L 3553 0 
L 3553 2222 
L 1259 2222 
L 1259 0 
L 628 0 
L 628 4666 
z
" transform="scale(0.015625)"/>
       <path id="DejaVuSans-52" d="M 2841 2188 
Q 3044 2119 3236 1894 
Q 3428 1669 3622 1275 
L 4263 0 
L 3584 0 
L 2988 1197 
Q 2756 1666 2539 1819 
Q 2322 1972 1947 1972 
L 1259 1972 
L 1259 0 
L 628 0 
L 628 4666 
L 2053 4666 
Q 2853 4666 3247 4331 
Q 3641 3997 3641 3322 
Q 3641 2881 3436 2590 
Q 3231 2300 2841 2188 
z
M 1259 4147 
L 1259 2491 
L 2053 2491 
Q 2509 2491 2742 2702 
Q 2975 2913 2975 3322 
Q 2975 3731 2742 3939 
Q 2509 4147 2053 4147 
L 1259 4147 
z
" transform="scale(0.015625)"/>
       <path id="DejaVuSans-61" d="M 2194 1759 
Q 1497 1759 1228 1600 
Q 959 1441 959 1056 
Q 959 750 1161 570 
Q 1363 391 1709 391 
Q 2188 391 2477 730 
Q 2766 1069 2766 1631 
L 2766 1759 
L 2194 1759 
z
M 3341 1997 
L 3341 0 
L 2766 0 
L 2766 531 
Q 2569 213 2275 61 
Q 1981 -91 1556 -91 
Q 1019 -91 701 211 
Q 384 513 384 1019 
Q 384 1609 779 1909 
Q 1175 2209 1959 2209 
L 2766 2209 
L 2766 2266 
Q 2766 2663 2505 2880 
Q 2244 3097 1772 3097 
Q 1472 3097 1187 3025 
Q 903 2953 641 2809 
L 641 3341 
Q 956 3463 1253 3523 
Q 1550 3584 1831 3584 
Q 2591 3584 2966 3190 
Q 3341 2797 3341 1997 
z
" transform="scale(0.015625)"/>
       <path id="DejaVuSans-64" d="M 2906 2969 
L 2906 4863 
L 3481 4863 
L 3481 0 
L 2906 0 
L 2906 525 
Q 2725 213 2448 61 
Q 2172 -91 1784 -91 
Q 1150 -91 751 415 
Q 353 922 353 1747 
Q 353 2572 751 3078 
Q 1150 3584 1784 3584 
Q 2172 3584 2448 3432 
Q 2725 3281 2906 2969 
z
M 947 1747 
Q 947 1113 1208 752 
Q 1469 391 1925 391 
Q 2381 391 2643 752 
Q 2906 1113 2906 1747 
Q 2906 2381 2643 2742 
Q 2381 3103 1925 3103 
Q 1469 3103 1208 2742 
Q 947 2381 947 1747 
z
" transform="scale(0.015625)"/>
      </defs>
      <use xlink:href="#DejaVuSans-4e"/>
      <use xlink:href="#DejaVuSans-75" x="74.804688"/>
      <use xlink:href="#DejaVuSans-6d" x="138.183594"/>
      <use xlink:href="#DejaVuSans-62" x="235.595703"/>
      <use xlink:href="#DejaVuSans-65" x="299.072266"/>
      <use xlink:href="#DejaVuSans-72" x="360.595703"/>
      <use xlink:href="#DejaVuSans-20" x="401.708984"/>
      <use xlink:href="#DejaVuSans-6f" x="433.496094"/>
      <use xlink:href="#DejaVuSans-66" x="494.677734"/>
      <use xlink:href="#DejaVuSans-20" x="529.882812"/>
      <use xlink:href="#DejaVuSans-51" x="561.669922"/>
      <use xlink:href="#DejaVuSans-43" x="640.380859"/>
      <use xlink:href="#DejaVuSans-20" x="710.205078"/>
      <use xlink:href="#DejaVuSans-48" x="741.992188"/>
      <use xlink:href="#DejaVuSans-6f" x="817.1875"/>
      <use xlink:href="#DejaVuSans-73" x="878.369141"/>
      <use xlink:href="#DejaVuSans-74" x="930.46875"/>
      <use xlink:href="#DejaVuSans-73" x="969.677734"/>
      <use xlink:href="#DejaVuSans-20" x="1021.777344"/>
      <use xlink:href="#DejaVuSans-52" x="1053.564453"/>
      <use xlink:href="#DejaVuSans-65" x="1118.546875"/>
      <use xlink:href="#DejaVuSans-61" x="1180.070312"/>
      <use xlink:href="#DejaVuSans-64" x="1241.349609"/>
      <use xlink:href="#DejaVuSans-73" x="1304.826172"/>
     </g>
    </g>
   </g>
   <g id="line2d_8">
    <path d="M 146.88 259.860169 
L 146.88 156.859599 
" clip-path="url(#p5661b37ec6)" style="fill: none; stroke: #3f3f3f; stroke-width: 1.5; stroke-linecap: square"/>
   </g>
   <g id="line2d_9">
    <path d="M 146.88 230.589196 
L 146.88 191.356031 
" clip-path="url(#p5661b37ec6)" style="fill: none; stroke: #3f3f3f; stroke-width: 4.5; stroke-linecap: square"/>
   </g>
   <g id="line2d_10">
    <path d="M 325.44 267.454343 
L 325.44 264.629143 
" clip-path="url(#p5661b37ec6)" style="fill: none; stroke: #3f3f3f; stroke-width: 1.5; stroke-linecap: square"/>
   </g>
   <g id="line2d_11">
    <path d="M 325.44 267.095278 
L 325.44 264.919086 
" clip-path="url(#p5661b37ec6)" style="fill: none; stroke: #3f3f3f; stroke-width: 4.5; stroke-linecap: square"/>
   </g>
   <g id="patch_3">
    <path d="M 57.6 307.584 
L 57.6 41.472 
" style="fill: none; stroke: #000000; stroke-width: 0.8; stroke-linejoin: miter; stroke-linecap: square"/>
   </g>
   <g id="patch_4">
    <path d="M 414.72 307.584 
L 414.72 41.472 
" style="fill: none; stroke: #000000; stroke-width: 0.8; stroke-linejoin: miter; stroke-linecap: square"/>
   </g>
   <g id="patch_5">
    <path d="M 57.6 307.584 
L 414.72 307.584 
" style="fill: none; stroke: #000000; stroke-width: 0.8; stroke-linejoin: miter; stroke-linecap: square"/>
   </g>
   <g id="patch_6">
    <path d="M 57.6 41.472 
L 414.72 41.472 
" style="fill: none; stroke: #000000; stroke-width: 0.8; stroke-linejoin: miter; stroke-linecap: square"/>
   </g>
   <g id="PathCollection_1">
    <defs>
     <path id="m331b23083b" d="M 0 1.5 
C 0.397805 1.5 0.77937 1.341951 1.06066 1.06066 
C 1.341951 0.77937 1.5 0.397805 1.5 0 
C 1.5 -0.397805 1.341951 -0.77937 1.06066 -1.06066 
C 0.77937 -1.341951 0.397805 -1.5 0 -1.5 
C -0.397805 -1.5 -0.77937 -1.341951 -1.06066 -1.06066 
C -1.341951 -0.77937 -1.5 -0.397805 -1.5 0 
C -1.5 0.397805 -1.341951 0.77937 -1.06066 1.06066 
C -0.77937 1.341951 -0.397805 1.5 0 1.5 
z
" style="stroke: #3f3f3f"/>
    </defs>
    <g clip-path="url(#p5661b37ec6)">
     <use xlink:href="#m331b23083b" x="146.88" y="213.652147" style="fill: #ffffff; stroke: #3f3f3f"/>
    </g>
   </g>
   <g id="PathCollection_2">
    <g clip-path="url(#p5661b37ec6)">
     <use xlink:href="#m331b23083b" x="325.44" y="266.358592" style="fill: #ffffff; stroke: #3f3f3f"/>
    </g>
   </g>
   <g id="text_10">
    <!-- Number of QC Hosts Reads vs Chicken Deplition -->
    <g transform="translate(91.689375 35.472) scale(0.12 -0.12)">
     <defs>
      <path id="DejaVuSans-76" d="M 191 3500 
L 800 3500 
L 1894 563 
L 2988 3500 
L 3597 3500 
L 2284 0 
L 1503 0 
L 191 3500 
z
" transform="scale(0.015625)"/>
      <path id="DejaVuSans-68" d="M 3513 2113 
L 3513 0 
L 2938 0 
L 2938 2094 
Q 2938 2591 2744 2837 
Q 2550 3084 2163 3084 
Q 1697 3084 1428 2787 
Q 1159 2491 1159 1978 
L 1159 0 
L 581 0 
L 581 4863 
L 1159 4863 
L 1159 2956 
Q 1366 3272 1645 3428 
Q 1925 3584 2291 3584 
Q 2894 3584 3203 3211 
Q 3513 2838 3513 2113 
z
" transform="scale(0.015625)"/>
      <path id="DejaVuSans-63" d="M 3122 3366 
L 3122 2828 
Q 2878 2963 2633 3030 
Q 2388 3097 2138 3097 
Q 1578 3097 1268 2742 
Q 959 2388 959 1747 
Q 959 1106 1268 751 
Q 1578 397 2138 397 
Q 2388 397 2633 464 
Q 2878 531 3122 666 
L 3122 134 
Q 2881 22 2623 -34 
Q 2366 -91 2075 -91 
Q 1284 -91 818 406 
Q 353 903 353 1747 
Q 353 2603 823 3093 
Q 1294 3584 2113 3584 
Q 2378 3584 2631 3529 
Q 2884 3475 3122 3366 
z
" transform="scale(0.015625)"/>
      <path id="DejaVuSans-6b" d="M 581 4863 
L 1159 4863 
L 1159 1991 
L 2875 3500 
L 3609 3500 
L 1753 1863 
L 3688 0 
L 2938 0 
L 1159 1709 
L 1159 0 
L 581 0 
L 581 4863 
z
" transform="scale(0.015625)"/>
     </defs>
     <use xlink:href="#DejaVuSans-4e"/>
     <use xlink:href="#DejaVuSans-75" x="74.804688"/>
     <use xlink:href="#DejaVuSans-6d" x="138.183594"/>
     <use xlink:href="#DejaVuSans-62" x="235.595703"/>
     <use xlink:href="#DejaVuSans-65" x="299.072266"/>
     <use xlink:href="#DejaVuSans-72" x="360.595703"/>
     <use xlink:href="#DejaVuSans-20" x="401.708984"/>
     <use xlink:href="#DejaVuSans-6f" x="433.496094"/>
     <use xlink:href="#DejaVuSans-66" x="494.677734"/>
     <use xlink:href="#DejaVuSans-20" x="529.882812"/>
     <use xlink:href="#DejaVuSans-51" x="561.669922"/>
     <use xlink:href="#DejaVuSans-43" x="640.380859"/>
     <use xlink:href="#DejaVuSans-20" x="710.205078"/>
     <use xlink:href="#DejaVuSans-48" x="741.992188"/>
     <use xlink:href="#DejaVuSans-6f" x="817.1875"/>
     <use xlink:href="#DejaVuSans-73" x="878.369141"/>
     <use xlink:href="#DejaVuSans-74" x="930.46875"/>
     <use xlink:href="#DejaVuSans-73" x="969.677734"/>
     <use xlink:href="#DejaVuSans-20" x="1021.777344"/>
     <use xlink:href="#DejaVuSans-52" x="1053.564453"/>
     <use xlink:href="#DejaVuSans-65" x="1118.546875"/>
     <use xlink:href="#DejaVuSans-61" x="1180.070312"/>
     <use xlink:href="#DejaVuSans-64" x="1241.349609"/>
     <use xlink:href="#DejaVuSans-73" x="1304.826172"/>
     <use xlink:href="#DejaVuSans-20" x="1356.925781"/>
     <use xlink:href="#DejaVuSans-76" x="1388.712891"/>
     <use xlink:href="#DejaVuSans-73" x="1447.892578"/>
     <use xlink:href="#DejaVuSans-20" x="1499.992188"/>
     <use xlink:href="#DejaVuSans-43" x="1531.779297"/>
     <use xlink:href="#DejaVuSans-68" x="1601.603516"/>
     <use xlink:href="#DejaVuSans-69" x="1664.982422"/>
     <use xlink:href="#DejaVuSans-63" x="1692.765625"/>
     <use xlink:href="#DejaVuSans-6b" x="1747.746094"/>
     <use xlink:href="#DejaVuSans-65" x="1802.03125"/>
     <use xlink:href="#DejaVuSans-6e" x="1863.554688"/>
     <use xlink:href="#DejaVuSans-20" x="1926.933594"/>
     <use xlink:href="#DejaVuSans-44" x="1958.720703"/>
     <use xlink:href="#DejaVuSans-65" x="2035.722656"/>
     <use xlink:href="#DejaVuSans-70" x="2097.246094"/>
     <use xlink:href="#DejaVuSans-6c" x="2160.722656"/>
     <use xlink:href="#DejaVuSans-69" x="2188.505859"/>
     <use xlink:href="#DejaVuSans-74" x="2216.289062"/>
     <use xlink:href="#DejaVuSans-69" x="2255.498047"/>
     <use xlink:href="#DejaVuSans-6f" x="2283.28125"/>
     <use xlink:href="#DejaVuSans-6e" x="2344.462891"/>
    </g>
   </g>
  </g>
 </g>
 <defs>
  <clipPath id="p5661b37ec6">
   <rect x="57.6" y="41.472" width="357.12" height="266.112"/>
  </clipPath>
 </defs>
</svg>
