<?xml version="1.0" encoding="utf-8" standalone="no"?>
<!DOCTYPE svg PUBLIC "-//W3C//DTD SVG 1.1//EN"
  "http://www.w3.org/Graphics/SVG/1.1/DTD/svg11.dtd">
<svg xmlns:xlink="http://www.w3.org/1999/xlink" width="460.8pt" height="345.6pt" viewBox="0 0 460.8 345.6" xmlns="http://www.w3.org/2000/svg" version="1.1">
 <metadata>
  <rdf:RDF xmlns:dc="http://purl.org/dc/elements/1.1/" xmlns:cc="http://creativecommons.org/ns#" xmlns:rdf="http://www.w3.org/1999/02/22-rdf-syntax-ns#">
   <cc:Work>
    <dc:type rdf:resource="http://purl.org/dc/dcmitype/StillImage"/>
    <dc:date>2024-03-07T14:21:48.143685</dc:date>
    <dc:format>image/svg+xml</dc:format>
    <dc:creator>
     <cc:Agent>
      <dc:title>Matplotlib v3.7.1, https://matplotlib.org/</dc:title>
     </cc:Agent>
    </dc:creator>
   </cc:Work>
  </rdf:RDF>
 </metadata>
 <defs>
  <style type="text/css">*{stroke-linejoin: round; stroke-linecap: butt}</style>
 </defs>
 <g id="figure_1">
  <g id="patch_1">
   <path d="M 0 345.6 
L 460.8 345.6 
L 460.8 0 
L 0 0 
z
" style="fill: #ffffff"/>
  </g>
  <g id="axes_1">
   <g id="patch_2">
    <path d="M 57.6 307.584 
L 414.72 307.584 
L 414.72 41.472 
L 57.6 41.472 
z
" style="fill: #ffffff"/>
   </g>
   <g id="PolyCollection_1">
    <defs>
     <path id="m2bdcd93ec5" d="M 147.197232 -50.112 
L 146.562768 -50.112 
L 146.458259 -52.555636 
L 146.328075 -54.999273 
L 146.168905 -57.442909 
L 145.97792 -59.886545 
L 145.753063 -62.330182 
L 145.493343 -64.773818 
L 145.199078 -67.217455 
L 144.872083 -69.661091 
L 144.515743 -72.104727 
L 144.134953 -74.548364 
L 143.735915 -76.992 
L 143.325791 -79.435636 
L 142.912235 -81.879273 
L 142.502846 -84.322909 
L 142.104602 -86.766545 
L 141.723341 -89.210182 
L 141.363355 -91.653818 
L 141.027154 -94.097455 
L 140.715434 -96.541091 
L 140.427271 -98.984727 
L 140.160498 -101.428364 
L 139.912241 -103.872 
L 139.679527 -106.315636 
L 139.459891 -108.759273 
L 139.251891 -111.202909 
L 139.055464 -113.646545 
L 138.872084 -116.090182 
L 138.704693 -118.533818 
L 138.557426 -120.977455 
L 138.435173 -123.421091 
L 138.343048 -125.864727 
L 138.285827 -128.308364 
L 138.26744 -130.752 
L 138.290574 -133.195636 
L 138.356425 -135.639273 
L 138.464619 -138.082909 
L 138.613292 -140.526545 
L 138.799299 -142.970182 
L 139.018514 -145.413818 
L 139.266167 -147.857455 
L 139.537176 -150.301091 
L 139.826437 -152.744727 
L 140.129044 -155.188364 
L 140.44043 -157.632 
L 140.756437 -160.075636 
L 141.073325 -162.519273 
L 141.387741 -164.962909 
L 141.696671 -167.406545 
L 141.997397 -169.850182 
L 142.287471 -172.293818 
L 142.564718 -174.737455 
L 142.82727 -177.181091 
L 143.073616 -179.624727 
L 143.302676 -182.068364 
L 143.513865 -184.512 
L 143.707153 -186.955636 
L 143.883091 -189.399273 
L 144.042806 -191.842909 
L 144.187953 -194.286545 
L 144.320617 -196.730182 
L 144.443185 -199.173818 
L 144.558178 -201.617455 
L 144.668068 -204.061091 
L 144.775098 -206.504727 
L 144.88111 -208.948364 
L 144.987412 -211.392 
L 145.09469 -213.835636 
L 145.202986 -216.279273 
L 145.311722 -218.722909 
L 145.419804 -221.166545 
L 145.525761 -223.610182 
L 145.627926 -226.053818 
L 145.72463 -228.497455 
L 145.814391 -230.941091 
L 145.89608 -233.384727 
L 145.969038 -235.828364 
L 146.03314 -238.272 
L 146.088807 -240.715636 
L 146.136946 -243.159273 
L 146.178848 -245.602909 
L 146.216055 -248.046545 
L 146.250197 -250.490182 
L 146.282839 -252.933818 
L 146.315342 -255.377455 
L 146.348758 -257.821091 
L 146.383759 -260.264727 
L 146.420621 -262.708364 
L 146.45924 -265.152 
L 146.499193 -267.595636 
L 146.539816 -270.039273 
L 146.580298 -272.482909 
L 146.619785 -274.926545 
L 146.657458 -277.370182 
L 146.69261 -279.813818 
L 146.724692 -282.257455 
L 146.753337 -284.701091 
L 146.778368 -287.144727 
L 146.799783 -289.588364 
L 146.817725 -292.032 
L 146.942275 -292.032 
L 146.942275 -292.032 
L 146.960217 -289.588364 
L 146.981632 -287.144727 
L 147.006663 -284.701091 
L 147.035308 -282.257455 
L 147.06739 -279.813818 
L 147.102542 -277.370182 
L 147.140215 -274.926545 
L 147.179702 -272.482909 
L 147.220184 -270.039273 
L 147.260807 -267.595636 
L 147.30076 -265.152 
L 147.339379 -262.708364 
L 147.376241 -260.264727 
L 147.411242 -257.821091 
L 147.444658 -255.377455 
L 147.477161 -252.933818 
L 147.509803 -250.490182 
L 147.543945 -248.046545 
L 147.581152 -245.602909 
L 147.623054 -243.159273 
L 147.671193 -240.715636 
L 147.72686 -238.272 
L 147.790962 -235.828364 
L 147.86392 -233.384727 
L 147.945609 -230.941091 
L 148.03537 -228.497455 
L 148.132074 -226.053818 
L 148.234239 -223.610182 
L 148.340196 -221.166545 
L 148.448278 -218.722909 
L 148.557014 -216.279273 
L 148.66531 -213.835636 
L 148.772588 -211.392 
L 148.87889 -208.948364 
L 148.984902 -206.504727 
L 149.091932 -204.061091 
L 149.201822 -201.617455 
L 149.316815 -199.173818 
L 149.439383 -196.730182 
L 149.572047 -194.286545 
L 149.717194 -191.842909 
L 149.876909 -189.399273 
L 150.052847 -186.955636 
L 150.246135 -184.512 
L 150.457324 -182.068364 
L 150.686384 -179.624727 
L 150.93273 -177.181091 
L 151.195282 -174.737455 
L 151.472529 -172.293818 
L 151.762603 -169.850182 
L 152.063329 -167.406545 
L 152.372259 -164.962909 
L 152.686675 -162.519273 
L 153.003563 -160.075636 
L 153.31957 -157.632 
L 153.630956 -155.188364 
L 153.933563 -152.744727 
L 154.222824 -150.301091 
L 154.493833 -147.857455 
L 154.741486 -145.413818 
L 154.960701 -142.970182 
L 155.146708 -140.526545 
L 155.295381 -138.082909 
L 155.403575 -135.639273 
L 155.469426 -133.195636 
L 155.49256 -130.752 
L 155.474173 -128.308364 
L 155.416952 -125.864727 
L 155.324827 -123.421091 
L 155.202574 -120.977455 
L 155.055307 -118.533818 
L 154.887916 -116.090182 
L 154.704536 -113.646545 
L 154.508109 -111.202909 
L 154.300109 -108.759273 
L 154.080473 -106.315636 
L 153.847759 -103.872 
L 153.599502 -101.428364 
L 153.332729 -98.984727 
L 153.044566 -96.541091 
L 152.732846 -94.097455 
L 152.396645 -91.653818 
L 152.036659 -89.210182 
L 151.655398 -86.766545 
L 151.257154 -84.322909 
L 150.847765 -81.879273 
L 150.434209 -79.435636 
L 150.024085 -76.992 
L 149.625047 -74.548364 
L 149.244257 -72.104727 
L 148.887917 -69.661091 
L 148.560922 -67.217455 
L 148.266657 -64.773818 
L 148.006937 -62.330182 
L 147.78208 -59.886545 
L 147.591095 -57.442909 
L 147.431925 -54.999273 
L 147.301741 -52.555636 
L 147.197232 -50.112 
z
" style="stroke: #3f3f3f; stroke-width: 1.5"/>
    </defs>
    <g clip-path="url(#p2dbf8d8c23)">
     <use xlink:href="#m2bdcd93ec5" x="0" y="345.6" style="fill: #3274a1; stroke: #3f3f3f; stroke-width: 1.5"/>
    </g>
   </g>
   <g id="PolyCollection_2">
    <defs>
     <path id="m7a75918f06" d="M 331.559563 -73.226078 
L 319.320437 -73.226078 
L 318.213367 -73.532022 
L 316.955805 -73.837967 
L 315.537475 -74.143912 
L 313.949386 -74.449857 
L 312.184264 -74.755802 
L 310.237006 -75.061747 
L 308.105138 -75.367692 
L 305.789261 -75.673636 
L 303.293462 -75.979581 
L 300.625676 -76.285526 
L 297.797976 -76.591471 
L 294.826772 -76.897416 
L 291.732901 -77.203361 
L 288.541593 -77.509306 
L 285.2823 -77.815251 
L 281.98838 -78.121195 
L 278.696634 -78.42714 
L 275.446705 -78.733085 
L 272.28034 -79.03903 
L 269.240536 -79.344975 
L 266.370595 -79.65092 
L 263.713106 -79.956865 
L 261.308904 -80.262809 
L 259.196015 -80.568754 
L 257.408653 -80.874699 
L 255.976277 -81.180644 
L 254.922766 -81.486589 
L 254.265733 -81.792534 
L 254.016 -82.098479 
L 254.177265 -82.404423 
L 254.745969 -82.710368 
L 255.711366 -83.016313 
L 257.055793 -83.322258 
L 258.755139 -83.628203 
L 260.779476 -83.934148 
L 263.093846 -84.240093 
L 265.659163 -84.546037 
L 268.433202 -84.851982 
L 271.371631 -85.157927 
L 274.42907 -85.463872 
L 277.56011 -85.769817 
L 280.720303 -86.075762 
L 283.867051 -86.381707 
L 286.96041 -86.687651 
L 289.963766 -86.993596 
L 292.844383 -87.299541 
L 295.573822 -87.605486 
L 298.128214 -87.911431 
L 300.488418 -88.217376 
L 302.640048 -88.523321 
L 304.573399 -88.829265 
L 306.283274 -89.13521 
L 307.768736 -89.441155 
L 309.032799 -89.7471 
L 310.082069 -90.053045 
L 310.92635 -90.35899 
L 311.578229 -90.664935 
L 312.052653 -90.97088 
L 312.366498 -91.276824 
L 312.538144 -91.582769 
L 312.587056 -91.888714 
L 312.53338 -92.194659 
L 312.397553 -92.500604 
L 312.199931 -92.806549 
L 311.960432 -93.112494 
L 311.698215 -93.418438 
L 311.431366 -93.724383 
L 311.176629 -94.030328 
L 310.949159 -94.336273 
L 310.762317 -94.642218 
L 310.627502 -94.948163 
L 310.554028 -95.254108 
L 310.549043 -95.560052 
L 310.617505 -95.865997 
L 310.762202 -96.171942 
L 310.983816 -96.477887 
L 311.281045 -96.783832 
L 311.650759 -97.089777 
L 312.088197 -97.395722 
L 312.587194 -97.701666 
L 313.140435 -98.007611 
L 313.739722 -98.313556 
L 314.376248 -98.619501 
L 315.040867 -98.925446 
L 315.72436 -99.231391 
L 316.417675 -99.537336 
L 317.112147 -99.84328 
L 317.799688 -100.149225 
L 318.472943 -100.45517 
L 319.125404 -100.761115 
L 319.751501 -101.06706 
L 320.34664 -101.373005 
L 320.907222 -101.67895 
L 321.430621 -101.984894 
L 321.915142 -102.290839 
L 322.359951 -102.596784 
L 322.764996 -102.902729 
L 323.130904 -103.208674 
L 323.458884 -103.514619 
L 327.421116 -103.514619 
L 327.421116 -103.514619 
L 327.749096 -103.208674 
L 328.115004 -102.902729 
L 328.520049 -102.596784 
L 328.964858 -102.290839 
L 329.449379 -101.984894 
L 329.972778 -101.67895 
L 330.53336 -101.373005 
L 331.128499 -101.06706 
L 331.754596 -100.761115 
L 332.407057 -100.45517 
L 333.080312 -100.149225 
L 333.767853 -99.84328 
L 334.462325 -99.537336 
L 335.15564 -99.231391 
L 335.839133 -98.925446 
L 336.503752 -98.619501 
L 337.140278 -98.313556 
L 337.739565 -98.007611 
L 338.292806 -97.701666 
L 338.791803 -97.395722 
L 339.229241 -97.089777 
L 339.598955 -96.783832 
L 339.896184 -96.477887 
L 340.117798 -96.171942 
L 340.262495 -95.865997 
L 340.330957 -95.560052 
L 340.325972 -95.254108 
L 340.252498 -94.948163 
L 340.117683 -94.642218 
L 339.930841 -94.336273 
L 339.703371 -94.030328 
L 339.448634 -93.724383 
L 339.181785 -93.418438 
L 338.919568 -93.112494 
L 338.680069 -92.806549 
L 338.482447 -92.500604 
L 338.34662 -92.194659 
L 338.292944 -91.888714 
L 338.341856 -91.582769 
L 338.513502 -91.276824 
L 338.827347 -90.97088 
L 339.301771 -90.664935 
L 339.95365 -90.35899 
L 340.797931 -90.053045 
L 341.847201 -89.7471 
L 343.111264 -89.441155 
L 344.596726 -89.13521 
L 346.306601 -88.829265 
L 348.239952 -88.523321 
L 350.391582 -88.217376 
L 352.751786 -87.911431 
L 355.306178 -87.605486 
L 358.035617 -87.299541 
L 360.916234 -86.993596 
L 363.91959 -86.687651 
L 367.012949 -86.381707 
L 370.159697 -86.075762 
L 373.31989 -85.769817 
L 376.45093 -85.463872 
L 379.508369 -85.157927 
L 382.446798 -84.851982 
L 385.220837 -84.546037 
L 387.786154 -84.240093 
L 390.100524 -83.934148 
L 392.124861 -83.628203 
L 393.824207 -83.322258 
L 395.168634 -83.016313 
L 396.134031 -82.710368 
L 396.702735 -82.404423 
L 396.864 -82.098479 
L 396.614267 -81.792534 
L 395.957234 -81.486589 
L 394.903723 -81.180644 
L 393.471347 -80.874699 
L 391.683985 -80.568754 
L 389.571096 -80.262809 
L 387.166894 -79.956865 
L 384.509405 -79.65092 
L 381.639464 -79.344975 
L 378.59966 -79.03903 
L 375.433295 -78.733085 
L 372.183366 -78.42714 
L 368.89162 -78.121195 
L 365.5977 -77.815251 
L 362.338407 -77.509306 
L 359.147099 -77.203361 
L 356.053228 -76.897416 
L 353.082024 -76.591471 
L 350.254324 -76.285526 
L 347.586538 -75.979581 
L 345.090739 -75.673636 
L 342.774862 -75.367692 
L 340.642994 -75.061747 
L 338.695736 -74.755802 
L 336.930614 -74.449857 
L 335.342525 -74.143912 
L 333.924195 -73.837967 
L 332.666633 -73.532022 
L 331.559563 -73.226078 
z
" style="stroke: #3f3f3f; stroke-width: 1.5"/>
    </defs>
    <g clip-path="url(#p2dbf8d8c23)">
     <use xlink:href="#m7a75918f06" x="0" y="345.6" style="fill: #e1812c; stroke: #3f3f3f; stroke-width: 1.5"/>
    </g>
   </g>
   <g id="matplotlib.axis_1">
    <g id="xtick_1">
     <g id="line2d_1">
      <defs>
       <path id="ma8e42fb248" d="M 0 0 
L 0 3.5 
" style="stroke: #000000; stroke-width: 0.8"/>
      </defs>
      <g>
       <use xlink:href="#ma8e42fb248" x="146.88" y="307.584" style="stroke: #000000; stroke-width: 0.8"/>
      </g>
     </g>
     <g id="text_1">
      <!-- No -->
      <g transform="translate(140.08 322.182437) scale(0.1 -0.1)">
       <defs>
        <path id="DejaVuSans-4e" d="M 628 4666 
L 1478 4666 
L 3547 763 
L 3547 4666 
L 4159 4666 
L 4159 0 
L 3309 0 
L 1241 3903 
L 1241 0 
L 628 0 
L 628 4666 
z
" transform="scale(0.015625)"/>
        <path id="DejaVuSans-6f" d="M 1959 3097 
Q 1497 3097 1228 2736 
Q 959 2375 959 1747 
Q 959 1119 1226 758 
Q 1494 397 1959 397 
Q 2419 397 2687 759 
Q 2956 1122 2956 1747 
Q 2956 2369 2687 2733 
Q 2419 3097 1959 3097 
z
M 1959 3584 
Q 2709 3584 3137 3096 
Q 3566 2609 3566 1747 
Q 3566 888 3137 398 
Q 2709 -91 1959 -91 
Q 1206 -91 779 398 
Q 353 888 353 1747 
Q 353 2609 779 3096 
Q 1206 3584 1959 3584 
z
" transform="scale(0.015625)"/>
       </defs>
       <use xlink:href="#DejaVuSans-4e"/>
       <use xlink:href="#DejaVuSans-6f" x="74.804688"/>
      </g>
     </g>
    </g>
    <g id="xtick_2">
     <g id="line2d_2">
      <g>
       <use xlink:href="#ma8e42fb248" x="325.44" y="307.584" style="stroke: #000000; stroke-width: 0.8"/>
      </g>
     </g>
     <g id="text_2">
      <!-- Yes -->
      <g transform="translate(317.367344 322.182437) scale(0.1 -0.1)">
       <defs>
        <path id="DejaVuSans-59" d="M -13 4666 
L 666 4666 
L 1959 2747 
L 3244 4666 
L 3922 4666 
L 2272 2222 
L 2272 0 
L 1638 0 
L 1638 2222 
L -13 4666 
z
" transform="scale(0.015625)"/>
        <path id="DejaVuSans-65" d="M 3597 1894 
L 3597 1613 
L 953 1613 
Q 991 1019 1311 708 
Q 1631 397 2203 397 
Q 2534 397 2845 478 
Q 3156 559 3463 722 
L 3463 178 
Q 3153 47 2828 -22 
Q 2503 -91 2169 -91 
Q 1331 -91 842 396 
Q 353 884 353 1716 
Q 353 2575 817 3079 
Q 1281 3584 2069 3584 
Q 2775 3584 3186 3129 
Q 3597 2675 3597 1894 
z
M 3022 2063 
Q 3016 2534 2758 2815 
Q 2500 3097 2075 3097 
Q 1594 3097 1305 2825 
Q 1016 2553 972 2059 
L 3022 2063 
z
" transform="scale(0.015625)"/>
        <path id="DejaVuSans-73" d="M 2834 3397 
L 2834 2853 
Q 2591 2978 2328 3040 
Q 2066 3103 1784 3103 
Q 1356 3103 1142 2972 
Q 928 2841 928 2578 
Q 928 2378 1081 2264 
Q 1234 2150 1697 2047 
L 1894 2003 
Q 2506 1872 2764 1633 
Q 3022 1394 3022 966 
Q 3022 478 2636 193 
Q 2250 -91 1575 -91 
Q 1294 -91 989 -36 
Q 684 19 347 128 
L 347 722 
Q 666 556 975 473 
Q 1284 391 1588 391 
Q 1994 391 2212 530 
Q 2431 669 2431 922 
Q 2431 1156 2273 1281 
Q 2116 1406 1581 1522 
L 1381 1569 
Q 847 1681 609 1914 
Q 372 2147 372 2553 
Q 372 3047 722 3315 
Q 1072 3584 1716 3584 
Q 2034 3584 2315 3537 
Q 2597 3491 2834 3397 
z
" transform="scale(0.015625)"/>
       </defs>
       <use xlink:href="#DejaVuSans-59"/>
       <use xlink:href="#DejaVuSans-65" x="47.833984"/>
       <use xlink:href="#DejaVuSans-73" x="109.357422"/>
      </g>
     </g>
    </g>
    <g id="text_3">
     <!-- Adaptive sampling during sequencing (Chicken Excluded) -->
     <g transform="translate(91.945937 335.860562) scale(0.1 -0.1)">
      <defs>
       <path id="DejaVuSans-41" d="M 2188 4044 
L 1331 1722 
L 3047 1722 
L 2188 4044 
z
M 1831 4666 
L 2547 4666 
L 4325 0 
L 3669 0 
L 3244 1197 
L 1141 1197 
L 716 0 
L 50 0 
L 1831 4666 
z
" transform="scale(0.015625)"/>
       <path id="DejaVuSans-64" d="M 2906 2969 
L 2906 4863 
L 3481 4863 
L 3481 0 
L 2906 0 
L 2906 525 
Q 2725 213 2448 61 
Q 2172 -91 1784 -91 
Q 1150 -91 751 415 
Q 353 922 353 1747 
Q 353 2572 751 3078 
Q 1150 3584 1784 3584 
Q 2172 3584 2448 3432 
Q 2725 3281 2906 2969 
z
M 947 1747 
Q 947 1113 1208 752 
Q 1469 391 1925 391 
Q 2381 391 2643 752 
Q 2906 1113 2906 1747 
Q 2906 2381 2643 2742 
Q 2381 3103 1925 3103 
Q 1469 3103 1208 2742 
Q 947 2381 947 1747 
z
" transform="scale(0.015625)"/>
       <path id="DejaVuSans-61" d="M 2194 1759 
Q 1497 1759 1228 1600 
Q 959 1441 959 1056 
Q 959 750 1161 570 
Q 1363 391 1709 391 
Q 2188 391 2477 730 
Q 2766 1069 2766 1631 
L 2766 1759 
L 2194 1759 
z
M 3341 1997 
L 3341 0 
L 2766 0 
L 2766 531 
Q 2569 213 2275 61 
Q 1981 -91 1556 -91 
Q 1019 -91 701 211 
Q 384 513 384 1019 
Q 384 1609 779 1909 
Q 1175 2209 1959 2209 
L 2766 2209 
L 2766 2266 
Q 2766 2663 2505 2880 
Q 2244 3097 1772 3097 
Q 1472 3097 1187 3025 
Q 903 2953 641 2809 
L 641 3341 
Q 956 3463 1253 3523 
Q 1550 3584 1831 3584 
Q 2591 3584 2966 3190 
Q 3341 2797 3341 1997 
z
" transform="scale(0.015625)"/>
       <path id="DejaVuSans-70" d="M 1159 525 
L 1159 -1331 
L 581 -1331 
L 581 3500 
L 1159 3500 
L 1159 2969 
Q 1341 3281 1617 3432 
Q 1894 3584 2278 3584 
Q 2916 3584 3314 3078 
Q 3713 2572 3713 1747 
Q 3713 922 3314 415 
Q 2916 -91 2278 -91 
Q 1894 -91 1617 61 
Q 1341 213 1159 525 
z
M 3116 1747 
Q 3116 2381 2855 2742 
Q 2594 3103 2138 3103 
Q 1681 3103 1420 2742 
Q 1159 2381 1159 1747 
Q 1159 1113 1420 752 
Q 1681 391 2138 391 
Q 2594 391 2855 752 
Q 3116 1113 3116 1747 
z
" transform="scale(0.015625)"/>
       <path id="DejaVuSans-74" d="M 1172 4494 
L 1172 3500 
L 2356 3500 
L 2356 3053 
L 1172 3053 
L 1172 1153 
Q 1172 725 1289 603 
Q 1406 481 1766 481 
L 2356 481 
L 2356 0 
L 1766 0 
Q 1100 0 847 248 
Q 594 497 594 1153 
L 594 3053 
L 172 3053 
L 172 3500 
L 594 3500 
L 594 4494 
L 1172 4494 
z
" transform="scale(0.015625)"/>
       <path id="DejaVuSans-69" d="M 603 3500 
L 1178 3500 
L 1178 0 
L 603 0 
L 603 3500 
z
M 603 4863 
L 1178 4863 
L 1178 4134 
L 603 4134 
L 603 4863 
z
" transform="scale(0.015625)"/>
       <path id="DejaVuSans-76" d="M 191 3500 
L 800 3500 
L 1894 563 
L 2988 3500 
L 3597 3500 
L 2284 0 
L 1503 0 
L 191 3500 
z
" transform="scale(0.015625)"/>
       <path id="DejaVuSans-20" transform="scale(0.015625)"/>
       <path id="DejaVuSans-6d" d="M 3328 2828 
Q 3544 3216 3844 3400 
Q 4144 3584 4550 3584 
Q 5097 3584 5394 3201 
Q 5691 2819 5691 2113 
L 5691 0 
L 5113 0 
L 5113 2094 
Q 5113 2597 4934 2840 
Q 4756 3084 4391 3084 
Q 3944 3084 3684 2787 
Q 3425 2491 3425 1978 
L 3425 0 
L 2847 0 
L 2847 2094 
Q 2847 2600 2669 2842 
Q 2491 3084 2119 3084 
Q 1678 3084 1418 2786 
Q 1159 2488 1159 1978 
L 1159 0 
L 581 0 
L 581 3500 
L 1159 3500 
L 1159 2956 
Q 1356 3278 1631 3431 
Q 1906 3584 2284 3584 
Q 2666 3584 2933 3390 
Q 3200 3197 3328 2828 
z
" transform="scale(0.015625)"/>
       <path id="DejaVuSans-6c" d="M 603 4863 
L 1178 4863 
L 1178 0 
L 603 0 
L 603 4863 
z
" transform="scale(0.015625)"/>
       <path id="DejaVuSans-6e" d="M 3513 2113 
L 3513 0 
L 2938 0 
L 2938 2094 
Q 2938 2591 2744 2837 
Q 2550 3084 2163 3084 
Q 1697 3084 1428 2787 
Q 1159 2491 1159 1978 
L 1159 0 
L 581 0 
L 581 3500 
L 1159 3500 
L 1159 2956 
Q 1366 3272 1645 3428 
Q 1925 3584 2291 3584 
Q 2894 3584 3203 3211 
Q 3513 2838 3513 2113 
z
" transform="scale(0.015625)"/>
       <path id="DejaVuSans-67" d="M 2906 1791 
Q 2906 2416 2648 2759 
Q 2391 3103 1925 3103 
Q 1463 3103 1205 2759 
Q 947 2416 947 1791 
Q 947 1169 1205 825 
Q 1463 481 1925 481 
Q 2391 481 2648 825 
Q 2906 1169 2906 1791 
z
M 3481 434 
Q 3481 -459 3084 -895 
Q 2688 -1331 1869 -1331 
Q 1566 -1331 1297 -1286 
Q 1028 -1241 775 -1147 
L 775 -588 
Q 1028 -725 1275 -790 
Q 1522 -856 1778 -856 
Q 2344 -856 2625 -561 
Q 2906 -266 2906 331 
L 2906 616 
Q 2728 306 2450 153 
Q 2172 0 1784 0 
Q 1141 0 747 490 
Q 353 981 353 1791 
Q 353 2603 747 3093 
Q 1141 3584 1784 3584 
Q 2172 3584 2450 3431 
Q 2728 3278 2906 2969 
L 2906 3500 
L 3481 3500 
L 3481 434 
z
" transform="scale(0.015625)"/>
       <path id="DejaVuSans-75" d="M 544 1381 
L 544 3500 
L 1119 3500 
L 1119 1403 
Q 1119 906 1312 657 
Q 1506 409 1894 409 
Q 2359 409 2629 706 
Q 2900 1003 2900 1516 
L 2900 3500 
L 3475 3500 
L 3475 0 
L 2900 0 
L 2900 538 
Q 2691 219 2414 64 
Q 2138 -91 1772 -91 
Q 1169 -91 856 284 
Q 544 659 544 1381 
z
M 1991 3584 
L 1991 3584 
z
" transform="scale(0.015625)"/>
       <path id="DejaVuSans-72" d="M 2631 2963 
Q 2534 3019 2420 3045 
Q 2306 3072 2169 3072 
Q 1681 3072 1420 2755 
Q 1159 2438 1159 1844 
L 1159 0 
L 581 0 
L 581 3500 
L 1159 3500 
L 1159 2956 
Q 1341 3275 1631 3429 
Q 1922 3584 2338 3584 
Q 2397 3584 2469 3576 
Q 2541 3569 2628 3553 
L 2631 2963 
z
" transform="scale(0.015625)"/>
       <path id="DejaVuSans-71" d="M 947 1747 
Q 947 1113 1208 752 
Q 1469 391 1925 391 
Q 2381 391 2643 752 
Q 2906 1113 2906 1747 
Q 2906 2381 2643 2742 
Q 2381 3103 1925 3103 
Q 1469 3103 1208 2742 
Q 947 2381 947 1747 
z
M 2906 525 
Q 2725 213 2448 61 
Q 2172 -91 1784 -91 
Q 1150 -91 751 415 
Q 353 922 353 1747 
Q 353 2572 751 3078 
Q 1150 3584 1784 3584 
Q 2172 3584 2448 3432 
Q 2725 3281 2906 2969 
L 2906 3500 
L 3481 3500 
L 3481 -1331 
L 2906 -1331 
L 2906 525 
z
" transform="scale(0.015625)"/>
       <path id="DejaVuSans-63" d="M 3122 3366 
L 3122 2828 
Q 2878 2963 2633 3030 
Q 2388 3097 2138 3097 
Q 1578 3097 1268 2742 
Q 959 2388 959 1747 
Q 959 1106 1268 751 
Q 1578 397 2138 397 
Q 2388 397 2633 464 
Q 2878 531 3122 666 
L 3122 134 
Q 2881 22 2623 -34 
Q 2366 -91 2075 -91 
Q 1284 -91 818 406 
Q 353 903 353 1747 
Q 353 2603 823 3093 
Q 1294 3584 2113 3584 
Q 2378 3584 2631 3529 
Q 2884 3475 3122 3366 
z
" transform="scale(0.015625)"/>
       <path id="DejaVuSans-28" d="M 1984 4856 
Q 1566 4138 1362 3434 
Q 1159 2731 1159 2009 
Q 1159 1288 1364 580 
Q 1569 -128 1984 -844 
L 1484 -844 
Q 1016 -109 783 600 
Q 550 1309 550 2009 
Q 550 2706 781 3412 
Q 1013 4119 1484 4856 
L 1984 4856 
z
" transform="scale(0.015625)"/>
       <path id="DejaVuSans-43" d="M 4122 4306 
L 4122 3641 
Q 3803 3938 3442 4084 
Q 3081 4231 2675 4231 
Q 1875 4231 1450 3742 
Q 1025 3253 1025 2328 
Q 1025 1406 1450 917 
Q 1875 428 2675 428 
Q 3081 428 3442 575 
Q 3803 722 4122 1019 
L 4122 359 
Q 3791 134 3420 21 
Q 3050 -91 2638 -91 
Q 1578 -91 968 557 
Q 359 1206 359 2328 
Q 359 3453 968 4101 
Q 1578 4750 2638 4750 
Q 3056 4750 3426 4639 
Q 3797 4528 4122 4306 
z
" transform="scale(0.015625)"/>
       <path id="DejaVuSans-68" d="M 3513 2113 
L 3513 0 
L 2938 0 
L 2938 2094 
Q 2938 2591 2744 2837 
Q 2550 3084 2163 3084 
Q 1697 3084 1428 2787 
Q 1159 2491 1159 1978 
L 1159 0 
L 581 0 
L 581 4863 
L 1159 4863 
L 1159 2956 
Q 1366 3272 1645 3428 
Q 1925 3584 2291 3584 
Q 2894 3584 3203 3211 
Q 3513 2838 3513 2113 
z
" transform="scale(0.015625)"/>
       <path id="DejaVuSans-6b" d="M 581 4863 
L 1159 4863 
L 1159 1991 
L 2875 3500 
L 3609 3500 
L 1753 1863 
L 3688 0 
L 2938 0 
L 1159 1709 
L 1159 0 
L 581 0 
L 581 4863 
z
" transform="scale(0.015625)"/>
       <path id="DejaVuSans-45" d="M 628 4666 
L 3578 4666 
L 3578 4134 
L 1259 4134 
L 1259 2753 
L 3481 2753 
L 3481 2222 
L 1259 2222 
L 1259 531 
L 3634 531 
L 3634 0 
L 628 0 
L 628 4666 
z
" transform="scale(0.015625)"/>
       <path id="DejaVuSans-78" d="M 3513 3500 
L 2247 1797 
L 3578 0 
L 2900 0 
L 1881 1375 
L 863 0 
L 184 0 
L 1544 1831 
L 300 3500 
L 978 3500 
L 1906 2253 
L 2834 3500 
L 3513 3500 
z
" transform="scale(0.015625)"/>
       <path id="DejaVuSans-29" d="M 513 4856 
L 1013 4856 
Q 1481 4119 1714 3412 
Q 1947 2706 1947 2009 
Q 1947 1309 1714 600 
Q 1481 -109 1013 -844 
L 513 -844 
Q 928 -128 1133 580 
Q 1338 1288 1338 2009 
Q 1338 2731 1133 3434 
Q 928 4138 513 4856 
z
" transform="scale(0.015625)"/>
      </defs>
      <use xlink:href="#DejaVuSans-41"/>
      <use xlink:href="#DejaVuSans-64" x="66.658203"/>
      <use xlink:href="#DejaVuSans-61" x="130.134766"/>
      <use xlink:href="#DejaVuSans-70" x="191.414062"/>
      <use xlink:href="#DejaVuSans-74" x="254.890625"/>
      <use xlink:href="#DejaVuSans-69" x="294.099609"/>
      <use xlink:href="#DejaVuSans-76" x="321.882812"/>
      <use xlink:href="#DejaVuSans-65" x="381.0625"/>
      <use xlink:href="#DejaVuSans-20" x="442.585938"/>
      <use xlink:href="#DejaVuSans-73" x="474.373047"/>
      <use xlink:href="#DejaVuSans-61" x="526.472656"/>
      <use xlink:href="#DejaVuSans-6d" x="587.751953"/>
      <use xlink:href="#DejaVuSans-70" x="685.164062"/>
      <use xlink:href="#DejaVuSans-6c" x="748.640625"/>
      <use xlink:href="#DejaVuSans-69" x="776.423828"/>
      <use xlink:href="#DejaVuSans-6e" x="804.207031"/>
      <use xlink:href="#DejaVuSans-67" x="867.585938"/>
      <use xlink:href="#DejaVuSans-20" x="931.0625"/>
      <use xlink:href="#DejaVuSans-64" x="962.849609"/>
      <use xlink:href="#DejaVuSans-75" x="1026.326172"/>
      <use xlink:href="#DejaVuSans-72" x="1089.705078"/>
      <use xlink:href="#DejaVuSans-69" x="1130.818359"/>
      <use xlink:href="#DejaVuSans-6e" x="1158.601562"/>
      <use xlink:href="#DejaVuSans-67" x="1221.980469"/>
      <use xlink:href="#DejaVuSans-20" x="1285.457031"/>
      <use xlink:href="#DejaVuSans-73" x="1317.244141"/>
      <use xlink:href="#DejaVuSans-65" x="1369.34375"/>
      <use xlink:href="#DejaVuSans-71" x="1430.867188"/>
      <use xlink:href="#DejaVuSans-75" x="1494.34375"/>
      <use xlink:href="#DejaVuSans-65" x="1557.722656"/>
      <use xlink:href="#DejaVuSans-6e" x="1619.246094"/>
      <use xlink:href="#DejaVuSans-63" x="1682.625"/>
      <use xlink:href="#DejaVuSans-69" x="1737.605469"/>
      <use xlink:href="#DejaVuSans-6e" x="1765.388672"/>
      <use xlink:href="#DejaVuSans-67" x="1828.767578"/>
      <use xlink:href="#DejaVuSans-20" x="1892.244141"/>
      <use xlink:href="#DejaVuSans-28" x="1924.03125"/>
      <use xlink:href="#DejaVuSans-43" x="1963.044922"/>
      <use xlink:href="#DejaVuSans-68" x="2032.869141"/>
      <use xlink:href="#DejaVuSans-69" x="2096.248047"/>
      <use xlink:href="#DejaVuSans-63" x="2124.03125"/>
      <use xlink:href="#DejaVuSans-6b" x="2179.011719"/>
      <use xlink:href="#DejaVuSans-65" x="2233.296875"/>
      <use xlink:href="#DejaVuSans-6e" x="2294.820312"/>
      <use xlink:href="#DejaVuSans-20" x="2358.199219"/>
      <use xlink:href="#DejaVuSans-45" x="2389.986328"/>
      <use xlink:href="#DejaVuSans-78" x="2453.169922"/>
      <use xlink:href="#DejaVuSans-63" x="2510.599609"/>
      <use xlink:href="#DejaVuSans-6c" x="2565.580078"/>
      <use xlink:href="#DejaVuSans-75" x="2593.363281"/>
      <use xlink:href="#DejaVuSans-64" x="2656.742188"/>
      <use xlink:href="#DejaVuSans-65" x="2720.21875"/>
      <use xlink:href="#DejaVuSans-64" x="2781.742188"/>
      <use xlink:href="#DejaVuSans-29" x="2845.21875"/>
     </g>
    </g>
   </g>
   <g id="matplotlib.axis_2">
    <g id="ytick_1">
     <g id="line2d_3">
      <defs>
       <path id="m1724e0dc6f" d="M 0 0 
L -3.5 0 
" style="stroke: #000000; stroke-width: 0.8"/>
      </defs>
      <g>
       <use xlink:href="#m1724e0dc6f" x="57.6" y="268.258431" style="stroke: #000000; stroke-width: 0.8"/>
      </g>
     </g>
     <g id="text_4">
      <!-- 0 -->
      <g transform="translate(44.2375 272.05765) scale(0.1 -0.1)">
       <defs>
        <path id="DejaVuSans-30" d="M 2034 4250 
Q 1547 4250 1301 3770 
Q 1056 3291 1056 2328 
Q 1056 1369 1301 889 
Q 1547 409 2034 409 
Q 2525 409 2770 889 
Q 3016 1369 3016 2328 
Q 3016 3291 2770 3770 
Q 2525 4250 2034 4250 
z
M 2034 4750 
Q 2819 4750 3233 4129 
Q 3647 3509 3647 2328 
Q 3647 1150 3233 529 
Q 2819 -91 2034 -91 
Q 1250 -91 836 529 
Q 422 1150 422 2328 
Q 422 3509 836 4129 
Q 1250 4750 2034 4750 
z
" transform="scale(0.015625)"/>
       </defs>
       <use xlink:href="#DejaVuSans-30"/>
      </g>
     </g>
    </g>
    <g id="ytick_2">
     <g id="line2d_4">
      <g>
       <use xlink:href="#m1724e0dc6f" x="57.6" y="226.520696" style="stroke: #000000; stroke-width: 0.8"/>
      </g>
     </g>
     <g id="text_5">
      <!-- 50000 -->
      <g transform="translate(18.7875 230.319915) scale(0.1 -0.1)">
       <defs>
        <path id="DejaVuSans-35" d="M 691 4666 
L 3169 4666 
L 3169 4134 
L 1269 4134 
L 1269 2991 
Q 1406 3038 1543 3061 
Q 1681 3084 1819 3084 
Q 2600 3084 3056 2656 
Q 3513 2228 3513 1497 
Q 3513 744 3044 326 
Q 2575 -91 1722 -91 
Q 1428 -91 1123 -41 
Q 819 9 494 109 
L 494 744 
Q 775 591 1075 516 
Q 1375 441 1709 441 
Q 2250 441 2565 725 
Q 2881 1009 2881 1497 
Q 2881 1984 2565 2268 
Q 2250 2553 1709 2553 
Q 1456 2553 1204 2497 
Q 953 2441 691 2322 
L 691 4666 
z
" transform="scale(0.015625)"/>
       </defs>
       <use xlink:href="#DejaVuSans-35"/>
       <use xlink:href="#DejaVuSans-30" x="63.623047"/>
       <use xlink:href="#DejaVuSans-30" x="127.246094"/>
       <use xlink:href="#DejaVuSans-30" x="190.869141"/>
       <use xlink:href="#DejaVuSans-30" x="254.492188"/>
      </g>
     </g>
    </g>
    <g id="ytick_3">
     <g id="line2d_5">
      <g>
       <use xlink:href="#m1724e0dc6f" x="57.6" y="184.782961" style="stroke: #000000; stroke-width: 0.8"/>
      </g>
     </g>
     <g id="text_6">
      <!-- 100000 -->
      <g transform="translate(12.425 188.58218) scale(0.1 -0.1)">
       <defs>
        <path id="DejaVuSans-31" d="M 794 531 
L 1825 531 
L 1825 4091 
L 703 3866 
L 703 4441 
L 1819 4666 
L 2450 4666 
L 2450 531 
L 3481 531 
L 3481 0 
L 794 0 
L 794 531 
z
" transform="scale(0.015625)"/>
       </defs>
       <use xlink:href="#DejaVuSans-31"/>
       <use xlink:href="#DejaVuSans-30" x="63.623047"/>
       <use xlink:href="#DejaVuSans-30" x="127.246094"/>
       <use xlink:href="#DejaVuSans-30" x="190.869141"/>
       <use xlink:href="#DejaVuSans-30" x="254.492188"/>
       <use xlink:href="#DejaVuSans-30" x="318.115234"/>
      </g>
     </g>
    </g>
    <g id="ytick_4">
     <g id="line2d_6">
      <g>
       <use xlink:href="#m1724e0dc6f" x="57.6" y="143.045227" style="stroke: #000000; stroke-width: 0.8"/>
      </g>
     </g>
     <g id="text_7">
      <!-- 150000 -->
      <g transform="translate(12.425 146.844445) scale(0.1 -0.1)">
       <use xlink:href="#DejaVuSans-31"/>
       <use xlink:href="#DejaVuSans-35" x="63.623047"/>
       <use xlink:href="#DejaVuSans-30" x="127.246094"/>
       <use xlink:href="#DejaVuSans-30" x="190.869141"/>
       <use xlink:href="#DejaVuSans-30" x="254.492188"/>
       <use xlink:href="#DejaVuSans-30" x="318.115234"/>
      </g>
     </g>
    </g>
    <g id="ytick_5">
     <g id="line2d_7">
      <g>
       <use xlink:href="#m1724e0dc6f" x="57.6" y="101.307492" style="stroke: #000000; stroke-width: 0.8"/>
      </g>
     </g>
     <g id="text_8">
      <!-- 200000 -->
      <g transform="translate(12.425 105.106711) scale(0.1 -0.1)">
       <defs>
        <path id="DejaVuSans-32" d="M 1228 531 
L 3431 531 
L 3431 0 
L 469 0 
L 469 531 
Q 828 903 1448 1529 
Q 2069 2156 2228 2338 
Q 2531 2678 2651 2914 
Q 2772 3150 2772 3378 
Q 2772 3750 2511 3984 
Q 2250 4219 1831 4219 
Q 1534 4219 1204 4116 
Q 875 4013 500 3803 
L 500 4441 
Q 881 4594 1212 4672 
Q 1544 4750 1819 4750 
Q 2544 4750 2975 4387 
Q 3406 4025 3406 3419 
Q 3406 3131 3298 2873 
Q 3191 2616 2906 2266 
Q 2828 2175 2409 1742 
Q 1991 1309 1228 531 
z
" transform="scale(0.015625)"/>
       </defs>
       <use xlink:href="#DejaVuSans-32"/>
       <use xlink:href="#DejaVuSans-30" x="63.623047"/>
       <use xlink:href="#DejaVuSans-30" x="127.246094"/>
       <use xlink:href="#DejaVuSans-30" x="190.869141"/>
       <use xlink:href="#DejaVuSans-30" x="254.492188"/>
       <use xlink:href="#DejaVuSans-30" x="318.115234"/>
      </g>
     </g>
    </g>
    <g id="ytick_6">
     <g id="line2d_8">
      <g>
       <use xlink:href="#m1724e0dc6f" x="57.6" y="59.569757" style="stroke: #000000; stroke-width: 0.8"/>
      </g>
     </g>
     <g id="text_9">
      <!-- 250000 -->
      <g transform="translate(12.425 63.368976) scale(0.1 -0.1)">
       <use xlink:href="#DejaVuSans-32"/>
       <use xlink:href="#DejaVuSans-35" x="63.623047"/>
       <use xlink:href="#DejaVuSans-30" x="127.246094"/>
       <use xlink:href="#DejaVuSans-30" x="190.869141"/>
       <use xlink:href="#DejaVuSans-30" x="254.492188"/>
       <use xlink:href="#DejaVuSans-30" x="318.115234"/>
      </g>
     </g>
    </g>
    <g id="text_10">
     <!-- Number of QC Total Reads -->
     <g transform="translate(6.345312 240.062375) rotate(-90) scale(0.1 -0.1)">
      <defs>
       <path id="DejaVuSans-62" d="M 3116 1747 
Q 3116 2381 2855 2742 
Q 2594 3103 2138 3103 
Q 1681 3103 1420 2742 
Q 1159 2381 1159 1747 
Q 1159 1113 1420 752 
Q 1681 391 2138 391 
Q 2594 391 2855 752 
Q 3116 1113 3116 1747 
z
M 1159 2969 
Q 1341 3281 1617 3432 
Q 1894 3584 2278 3584 
Q 2916 3584 3314 3078 
Q 3713 2572 3713 1747 
Q 3713 922 3314 415 
Q 2916 -91 2278 -91 
Q 1894 -91 1617 61 
Q 1341 213 1159 525 
L 1159 0 
L 581 0 
L 581 4863 
L 1159 4863 
L 1159 2969 
z
" transform="scale(0.015625)"/>
       <path id="DejaVuSans-66" d="M 2375 4863 
L 2375 4384 
L 1825 4384 
Q 1516 4384 1395 4259 
Q 1275 4134 1275 3809 
L 1275 3500 
L 2222 3500 
L 2222 3053 
L 1275 3053 
L 1275 0 
L 697 0 
L 697 3053 
L 147 3053 
L 147 3500 
L 697 3500 
L 697 3744 
Q 697 4328 969 4595 
Q 1241 4863 1831 4863 
L 2375 4863 
z
" transform="scale(0.015625)"/>
       <path id="DejaVuSans-51" d="M 2522 4238 
Q 1834 4238 1429 3725 
Q 1025 3213 1025 2328 
Q 1025 1447 1429 934 
Q 1834 422 2522 422 
Q 3209 422 3611 934 
Q 4013 1447 4013 2328 
Q 4013 3213 3611 3725 
Q 3209 4238 2522 4238 
z
M 3406 84 
L 4238 -825 
L 3475 -825 
L 2784 -78 
Q 2681 -84 2626 -87 
Q 2572 -91 2522 -91 
Q 1538 -91 948 567 
Q 359 1225 359 2328 
Q 359 3434 948 4092 
Q 1538 4750 2522 4750 
Q 3503 4750 4090 4092 
Q 4678 3434 4678 2328 
Q 4678 1516 4351 937 
Q 4025 359 3406 84 
z
" transform="scale(0.015625)"/>
       <path id="DejaVuSans-54" d="M -19 4666 
L 3928 4666 
L 3928 4134 
L 2272 4134 
L 2272 0 
L 1638 0 
L 1638 4134 
L -19 4134 
L -19 4666 
z
" transform="scale(0.015625)"/>
       <path id="DejaVuSans-52" d="M 2841 2188 
Q 3044 2119 3236 1894 
Q 3428 1669 3622 1275 
L 4263 0 
L 3584 0 
L 2988 1197 
Q 2756 1666 2539 1819 
Q 2322 1972 1947 1972 
L 1259 1972 
L 1259 0 
L 628 0 
L 628 4666 
L 2053 4666 
Q 2853 4666 3247 4331 
Q 3641 3997 3641 3322 
Q 3641 2881 3436 2590 
Q 3231 2300 2841 2188 
z
M 1259 4147 
L 1259 2491 
L 2053 2491 
Q 2509 2491 2742 2702 
Q 2975 2913 2975 3322 
Q 2975 3731 2742 3939 
Q 2509 4147 2053 4147 
L 1259 4147 
z
" transform="scale(0.015625)"/>
      </defs>
      <use xlink:href="#DejaVuSans-4e"/>
      <use xlink:href="#DejaVuSans-75" x="74.804688"/>
      <use xlink:href="#DejaVuSans-6d" x="138.183594"/>
      <use xlink:href="#DejaVuSans-62" x="235.595703"/>
      <use xlink:href="#DejaVuSans-65" x="299.072266"/>
      <use xlink:href="#DejaVuSans-72" x="360.595703"/>
      <use xlink:href="#DejaVuSans-20" x="401.708984"/>
      <use xlink:href="#DejaVuSans-6f" x="433.496094"/>
      <use xlink:href="#DejaVuSans-66" x="494.677734"/>
      <use xlink:href="#DejaVuSans-20" x="529.882812"/>
      <use xlink:href="#DejaVuSans-51" x="561.669922"/>
      <use xlink:href="#DejaVuSans-43" x="640.380859"/>
      <use xlink:href="#DejaVuSans-20" x="710.205078"/>
      <use xlink:href="#DejaVuSans-54" x="741.992188"/>
      <use xlink:href="#DejaVuSans-6f" x="786.076172"/>
      <use xlink:href="#DejaVuSans-74" x="847.257812"/>
      <use xlink:href="#DejaVuSans-61" x="886.466797"/>
      <use xlink:href="#DejaVuSans-6c" x="947.746094"/>
      <use xlink:href="#DejaVuSans-20" x="975.529297"/>
      <use xlink:href="#DejaVuSans-52" x="1007.316406"/>
      <use xlink:href="#DejaVuSans-65" x="1072.298828"/>
      <use xlink:href="#DejaVuSans-61" x="1133.822266"/>
      <use xlink:href="#DejaVuSans-64" x="1195.101562"/>
      <use xlink:href="#DejaVuSans-73" x="1258.578125"/>
     </g>
    </g>
   </g>
   <g id="line2d_9">
    <path d="M 146.88 257.942532 
L 146.88 126.39354 
" clip-path="url(#p2dbf8d8c23)" style="fill: none; stroke: #3f3f3f; stroke-width: 1.5; stroke-linecap: square"/>
   </g>
   <g id="line2d_10">
    <path d="M 146.88 230.84243 
L 146.88 182.290384 
" clip-path="url(#p2dbf8d8c23)" style="fill: none; stroke: #3f3f3f; stroke-width: 4.5; stroke-linecap: square"/>
   </g>
   <g id="line2d_11">
    <path d="M 325.44 264.541268 
L 325.44 262.433513 
" clip-path="url(#p2dbf8d8c23)" style="fill: none; stroke: #3f3f3f; stroke-width: 1.5; stroke-linecap: square"/>
   </g>
   <g id="line2d_12">
    <path d="M 325.44 264.146012 
L 325.44 262.470868 
" clip-path="url(#p2dbf8d8c23)" style="fill: none; stroke: #3f3f3f; stroke-width: 4.5; stroke-linecap: square"/>
   </g>
   <g id="patch_3">
    <path d="M 57.6 307.584 
L 57.6 41.472 
" style="fill: none; stroke: #000000; stroke-width: 0.8; stroke-linejoin: miter; stroke-linecap: square"/>
   </g>
   <g id="patch_4">
    <path d="M 414.72 307.584 
L 414.72 41.472 
" style="fill: none; stroke: #000000; stroke-width: 0.8; stroke-linejoin: miter; stroke-linecap: square"/>
   </g>
   <g id="patch_5">
    <path d="M 57.6 307.584 
L 414.72 307.584 
" style="fill: none; stroke: #000000; stroke-width: 0.8; stroke-linejoin: miter; stroke-linecap: square"/>
   </g>
   <g id="patch_6">
    <path d="M 57.6 41.472 
L 414.72 41.472 
" style="fill: none; stroke: #000000; stroke-width: 0.8; stroke-linejoin: miter; stroke-linecap: square"/>
   </g>
   <g id="PathCollection_1">
    <defs>
     <path id="m9e347ba7ac" d="M 0 1.5 
C 0.397805 1.5 0.77937 1.341951 1.06066 1.06066 
C 1.341951 0.77937 1.5 0.397805 1.5 0 
C 1.5 -0.397805 1.341951 -0.77937 1.06066 -1.06066 
C 0.77937 -1.341951 0.397805 -1.5 0 -1.5 
C -0.397805 -1.5 -0.77937 -1.341951 -1.06066 -1.06066 
C -1.341951 -0.77937 -1.5 -0.397805 -1.5 0 
C -1.5 0.397805 -1.341951 0.77937 -1.06066 1.06066 
C -0.77937 1.341951 -0.397805 1.5 0 1.5 
z
" style="stroke: #3f3f3f"/>
    </defs>
    <g clip-path="url(#p2dbf8d8c23)">
     <use xlink:href="#m9e347ba7ac" x="146.88" y="212.740566" style="fill: #ffffff; stroke: #3f3f3f"/>
    </g>
   </g>
   <g id="PathCollection_2">
    <g clip-path="url(#p2dbf8d8c23)">
     <use xlink:href="#m9e347ba7ac" x="325.44" y="263.014502" style="fill: #ffffff; stroke: #3f3f3f"/>
    </g>
   </g>
   <g id="text_11">
    <!-- Number of QC Total Reads vs Adaptive sampling during sequencing (Host Excluded) -->
    <g transform="translate(-15.980625 35.472) scale(0.12 -0.12)">
     <defs>
      <path id="DejaVuSans-48" d="M 628 4666 
L 1259 4666 
L 1259 2753 
L 3553 2753 
L 3553 4666 
L 4184 4666 
L 4184 0 
L 3553 0 
L 3553 2222 
L 1259 2222 
L 1259 0 
L 628 0 
L 628 4666 
z
" transform="scale(0.015625)"/>
     </defs>
     <use xlink:href="#DejaVuSans-4e"/>
     <use xlink:href="#DejaVuSans-75" x="74.804688"/>
     <use xlink:href="#DejaVuSans-6d" x="138.183594"/>
     <use xlink:href="#DejaVuSans-62" x="235.595703"/>
     <use xlink:href="#DejaVuSans-65" x="299.072266"/>
     <use xlink:href="#DejaVuSans-72" x="360.595703"/>
     <use xlink:href="#DejaVuSans-20" x="401.708984"/>
     <use xlink:href="#DejaVuSans-6f" x="433.496094"/>
     <use xlink:href="#DejaVuSans-66" x="494.677734"/>
     <use xlink:href="#DejaVuSans-20" x="529.882812"/>
     <use xlink:href="#DejaVuSans-51" x="561.669922"/>
     <use xlink:href="#DejaVuSans-43" x="640.380859"/>
     <use xlink:href="#DejaVuSans-20" x="710.205078"/>
     <use xlink:href="#DejaVuSans-54" x="741.992188"/>
     <use xlink:href="#DejaVuSans-6f" x="786.076172"/>
     <use xlink:href="#DejaVuSans-74" x="847.257812"/>
     <use xlink:href="#DejaVuSans-61" x="886.466797"/>
     <use xlink:href="#DejaVuSans-6c" x="947.746094"/>
     <use xlink:href="#DejaVuSans-20" x="975.529297"/>
     <use xlink:href="#DejaVuSans-52" x="1007.316406"/>
     <use xlink:href="#DejaVuSans-65" x="1072.298828"/>
     <use xlink:href="#DejaVuSans-61" x="1133.822266"/>
     <use xlink:href="#DejaVuSans-64" x="1195.101562"/>
     <use xlink:href="#DejaVuSans-73" x="1258.578125"/>
     <use xlink:href="#DejaVuSans-20" x="1310.677734"/>
     <use xlink:href="#DejaVuSans-76" x="1342.464844"/>
     <use xlink:href="#DejaVuSans-73" x="1401.644531"/>
     <use xlink:href="#DejaVuSans-20" x="1453.744141"/>
     <use xlink:href="#DejaVuSans-41" x="1485.53125"/>
     <use xlink:href="#DejaVuSans-64" x="1552.189453"/>
     <use xlink:href="#DejaVuSans-61" x="1615.666016"/>
     <use xlink:href="#DejaVuSans-70" x="1676.945312"/>
     <use xlink:href="#DejaVuSans-74" x="1740.421875"/>
     <use xlink:href="#DejaVuSans-69" x="1779.630859"/>
     <use xlink:href="#DejaVuSans-76" x="1807.414062"/>
     <use xlink:href="#DejaVuSans-65" x="1866.59375"/>
     <use xlink:href="#DejaVuSans-20" x="1928.117188"/>
     <use xlink:href="#DejaVuSans-73" x="1959.904297"/>
     <use xlink:href="#DejaVuSans-61" x="2012.003906"/>
     <use xlink:href="#DejaVuSans-6d" x="2073.283203"/>
     <use xlink:href="#DejaVuSans-70" x="2170.695312"/>
     <use xlink:href="#DejaVuSans-6c" x="2234.171875"/>
     <use xlink:href="#DejaVuSans-69" x="2261.955078"/>
     <use xlink:href="#DejaVuSans-6e" x="2289.738281"/>
     <use xlink:href="#DejaVuSans-67" x="2353.117188"/>
     <use xlink:href="#DejaVuSans-20" x="2416.59375"/>
     <use xlink:href="#DejaVuSans-64" x="2448.380859"/>
     <use xlink:href="#DejaVuSans-75" x="2511.857422"/>
     <use xlink:href="#DejaVuSans-72" x="2575.236328"/>
     <use xlink:href="#DejaVuSans-69" x="2616.349609"/>
     <use xlink:href="#DejaVuSans-6e" x="2644.132812"/>
     <use xlink:href="#DejaVuSans-67" x="2707.511719"/>
     <use xlink:href="#DejaVuSans-20" x="2770.988281"/>
     <use xlink:href="#DejaVuSans-73" x="2802.775391"/>
     <use xlink:href="#DejaVuSans-65" x="2854.875"/>
     <use xlink:href="#DejaVuSans-71" x="2916.398438"/>
     <use xlink:href="#DejaVuSans-75" x="2979.875"/>
     <use xlink:href="#DejaVuSans-65" x="3043.253906"/>
     <use xlink:href="#DejaVuSans-6e" x="3104.777344"/>
     <use xlink:href="#DejaVuSans-63" x="3168.15625"/>
     <use xlink:href="#DejaVuSans-69" x="3223.136719"/>
     <use xlink:href="#DejaVuSans-6e" x="3250.919922"/>
     <use xlink:href="#DejaVuSans-67" x="3314.298828"/>
     <use xlink:href="#DejaVuSans-20" x="3377.775391"/>
     <use xlink:href="#DejaVuSans-28" x="3409.5625"/>
     <use xlink:href="#DejaVuSans-48" x="3448.576172"/>
     <use xlink:href="#DejaVuSans-6f" x="3523.771484"/>
     <use xlink:href="#DejaVuSans-73" x="3584.953125"/>
     <use xlink:href="#DejaVuSans-74" x="3637.052734"/>
     <use xlink:href="#DejaVuSans-20" x="3676.261719"/>
     <use xlink:href="#DejaVuSans-45" x="3708.048828"/>
     <use xlink:href="#DejaVuSans-78" x="3771.232422"/>
     <use xlink:href="#DejaVuSans-63" x="3828.662109"/>
     <use xlink:href="#DejaVuSans-6c" x="3883.642578"/>
     <use xlink:href="#DejaVuSans-75" x="3911.425781"/>
     <use xlink:href="#DejaVuSans-64" x="3974.804688"/>
     <use xlink:href="#DejaVuSans-65" x="4038.28125"/>
     <use xlink:href="#DejaVuSans-64" x="4099.804688"/>
     <use xlink:href="#DejaVuSans-29" x="4163.28125"/>
    </g>
   </g>
  </g>
 </g>
 <defs>
  <clipPath id="p2dbf8d8c23">
   <rect x="57.6" y="41.472" width="357.12" height="266.112"/>
  </clipPath>
 </defs>
</svg>
