<?xml version="1.0" encoding="utf-8" standalone="no"?>
<!DOCTYPE svg PUBLIC "-//W3C//DTD SVG 1.1//EN"
  "http://www.w3.org/Graphics/SVG/1.1/DTD/svg11.dtd">
<svg xmlns:xlink="http://www.w3.org/1999/xlink" width="460.8pt" height="345.6pt" viewBox="0 0 460.8 345.6" xmlns="http://www.w3.org/2000/svg" version="1.1">
 <metadata>
  <rdf:RDF xmlns:dc="http://purl.org/dc/elements/1.1/" xmlns:cc="http://creativecommons.org/ns#" xmlns:rdf="http://www.w3.org/1999/02/22-rdf-syntax-ns#">
   <cc:Work>
    <dc:type rdf:resource="http://purl.org/dc/dcmitype/StillImage"/>
    <dc:date>2023-10-11T20:51:25.775350</dc:date>
    <dc:format>image/svg+xml</dc:format>
    <dc:creator>
     <cc:Agent>
      <dc:title>Matplotlib v3.7.1, https://matplotlib.org/</dc:title>
     </cc:Agent>
    </dc:creator>
   </cc:Work>
  </rdf:RDF>
 </metadata>
 <defs>
  <style type="text/css">*{stroke-linejoin: round; stroke-linecap: butt}</style>
 </defs>
 <g id="figure_1">
  <g id="patch_1">
   <path d="M 0 345.6 
L 460.8 345.6 
L 460.8 0 
L 0 0 
z
" style="fill: #ffffff"/>
  </g>
  <g id="axes_1">
   <g id="patch_2">
    <path d="M 57.6 307.584 
L 414.72 307.584 
L 414.72 41.472 
L 57.6 41.472 
z
" style="fill: #ffffff"/>
   </g>
   <g id="PolyCollection_1">
    <defs>
     <path id="mbfd913e43b" d="M 147.578588 -148.572681 
L 146.181412 -148.572681 
L 145.992201 -150.486632 
L 145.762665 -152.400583 
L 145.487356 -154.314534 
L 145.160923 -156.228485 
L 144.778349 -158.142437 
L 144.33524 -160.056388 
L 143.828141 -161.970339 
L 143.25487 -163.88429 
L 142.614848 -165.798241 
L 141.909418 -167.712193 
L 141.142114 -169.626144 
L 140.318867 -171.540095 
L 139.448124 -173.454046 
L 138.540848 -175.367997 
L 137.610407 -177.281949 
L 136.672314 -179.1959 
L 135.743841 -181.109851 
L 134.843503 -183.023802 
L 133.990435 -184.937753 
L 133.203683 -186.851705 
L 132.501449 -188.765656 
L 131.900327 -190.679607 
L 131.414571 -192.593558 
L 131.055436 -194.507509 
L 130.830636 -196.421461 
L 130.74394 -198.335412 
L 130.794933 -200.249363 
L 130.978963 -202.163314 
L 131.28726 -204.077265 
L 131.707224 -205.991217 
L 132.222868 -207.905168 
L 132.815385 -209.819119 
L 133.463804 -211.73307 
L 134.145712 -213.647021 
L 134.837996 -215.560973 
L 135.51758 -217.474924 
L 136.162129 -219.388875 
L 136.750692 -221.302826 
L 137.264261 -223.216777 
L 137.686237 -225.130729 
L 138.00278 -227.04468 
L 138.203035 -228.958631 
L 138.279231 -230.872582 
L 138.226624 -232.786533 
L 138.043313 -234.700485 
L 137.729889 -236.614436 
L 137.28895 -238.528387 
L 136.724488 -240.442338 
L 136.041153 -242.356289 
L 135.243456 -244.270241 
L 134.334926 -246.184192 
L 133.317307 -248.098143 
L 132.189844 -250.012094 
L 130.948735 -251.926045 
L 129.586835 -253.839997 
L 128.093674 -255.753948 
L 126.455843 -257.667899 
L 124.657802 -259.58185 
L 122.683095 -261.495801 
L 120.515966 -263.409753 
L 118.143297 -265.323704 
L 115.556766 -267.237655 
L 112.755092 -269.151606 
L 109.746181 -271.065557 
L 106.548994 -272.979509 
L 103.194949 -274.89346 
L 99.72866 -276.807411 
L 96.207894 -278.721362 
L 92.702614 -280.635313 
L 89.293112 -282.549265 
L 86.06724 -284.463216 
L 83.116864 -286.377167 
L 80.533743 -288.291118 
L 78.405051 -290.205069 
L 76.808873 -292.119021 
L 75.809949 -294.032972 
L 75.456 -295.946923 
L 75.774897 -297.860874 
L 76.77288 -299.774825 
L 78.433975 -301.688777 
L 80.720642 -303.602728 
L 83.575608 -305.516679 
L 86.924753 -307.43063 
L 90.680816 -309.344581 
L 94.74767 -311.258533 
L 99.024857 -313.172484 
L 103.41208 -315.086435 
L 107.813373 -317.000386 
L 112.140711 -318.914337 
L 116.316887 -320.828289 
L 120.27754 -322.74224 
L 123.97231 -324.656191 
L 127.365145 -326.570142 
L 130.433841 -328.484093 
L 133.168957 -330.398045 
L 135.572255 -332.311996 
L 137.654827 -334.225947 
L 139.435076 -336.139898 
L 140.936696 -338.053849 
L 152.823304 -338.053849 
L 152.823304 -338.053849 
L 154.324924 -336.139898 
L 156.105173 -334.225947 
L 158.187745 -332.311996 
L 160.591043 -330.398045 
L 163.326159 -328.484093 
L 166.394855 -326.570142 
L 169.78769 -324.656191 
L 173.48246 -322.74224 
L 177.443113 -320.828289 
L 181.619289 -318.914337 
L 185.946627 -317.000386 
L 190.34792 -315.086435 
L 194.735143 -313.172484 
L 199.01233 -311.258533 
L 203.079184 -309.344581 
L 206.835247 -307.43063 
L 210.184392 -305.516679 
L 213.039358 -303.602728 
L 215.326025 -301.688777 
L 216.98712 -299.774825 
L 217.985103 -297.860874 
L 218.304 -295.946923 
L 217.950051 -294.032972 
L 216.951127 -292.119021 
L 215.354949 -290.205069 
L 213.226257 -288.291118 
L 210.643136 -286.377167 
L 207.69276 -284.463216 
L 204.466888 -282.549265 
L 201.057386 -280.635313 
L 197.552106 -278.721362 
L 194.03134 -276.807411 
L 190.565051 -274.89346 
L 187.211006 -272.979509 
L 184.013819 -271.065557 
L 181.004908 -269.151606 
L 178.203234 -267.237655 
L 175.616703 -265.323704 
L 173.244034 -263.409753 
L 171.076905 -261.495801 
L 169.102198 -259.58185 
L 167.304157 -257.667899 
L 165.666326 -255.753948 
L 164.173165 -253.839997 
L 162.811265 -251.926045 
L 161.570156 -250.012094 
L 160.442693 -248.098143 
L 159.425074 -246.184192 
L 158.516544 -244.270241 
L 157.718847 -242.356289 
L 157.035512 -240.442338 
L 156.47105 -238.528387 
L 156.030111 -236.614436 
L 155.716687 -234.700485 
L 155.533376 -232.786533 
L 155.480769 -230.872582 
L 155.556965 -228.958631 
L 155.75722 -227.04468 
L 156.073763 -225.130729 
L 156.495739 -223.216777 
L 157.009308 -221.302826 
L 157.597871 -219.388875 
L 158.24242 -217.474924 
L 158.922004 -215.560973 
L 159.614288 -213.647021 
L 160.296196 -211.73307 
L 160.944615 -209.819119 
L 161.537132 -207.905168 
L 162.052776 -205.991217 
L 162.47274 -204.077265 
L 162.781037 -202.163314 
L 162.965067 -200.249363 
L 163.01606 -198.335412 
L 162.929364 -196.421461 
L 162.704564 -194.507509 
L 162.345429 -192.593558 
L 161.859673 -190.679607 
L 161.258551 -188.765656 
L 160.556317 -186.851705 
L 159.769565 -184.937753 
L 158.916497 -183.023802 
L 158.016159 -181.109851 
L 157.087686 -179.1959 
L 156.149593 -177.281949 
L 155.219152 -175.367997 
L 154.311876 -173.454046 
L 153.441133 -171.540095 
L 152.617886 -169.626144 
L 151.850582 -167.712193 
L 151.145152 -165.798241 
L 150.50513 -163.88429 
L 149.931859 -161.970339 
L 149.42476 -160.056388 
L 148.981651 -158.142437 
L 148.599077 -156.228485 
L 148.272644 -154.314534 
L 147.997335 -152.400583 
L 147.767799 -150.486632 
L 147.578588 -148.572681 
z
" style="stroke: #3f3f3f; stroke-width: 1.5"/>
    </defs>
    <g clip-path="url(#p24f9bc2e3d)">
     <use xlink:href="#mbfd913e43b" x="0" y="345.6" style="fill: #3274a1; stroke: #3f3f3f; stroke-width: 1.5"/>
    </g>
   </g>
   <g id="PolyCollection_2">
    <defs>
     <path id="m9438cdf9cf" d="M 327.190948 -137.727429 
L 323.689052 -137.727429 
L 323.400998 -139.996747 
L 323.077263 -142.266064 
L 322.715591 -144.535382 
L 322.313957 -146.804699 
L 321.870639 -149.074017 
L 321.384293 -151.343334 
L 320.854029 -153.612651 
L 320.279478 -155.881969 
L 319.66086 -158.151286 
L 318.99904 -160.420604 
L 318.295576 -162.689921 
L 317.552747 -164.959239 
L 316.773576 -167.228556 
L 315.961821 -169.497873 
L 315.121957 -171.767191 
L 314.259129 -174.036508 
L 313.379092 -176.305826 
L 312.488116 -178.575143 
L 311.592887 -180.844461 
L 310.700379 -183.113778 
L 309.817711 -185.383095 
L 308.951996 -187.652413 
L 308.110183 -189.92173 
L 307.298887 -192.191048 
L 306.524232 -194.460365 
L 305.79169 -196.729683 
L 305.105941 -198.999 
L 304.470741 -201.268317 
L 303.888816 -203.537635 
L 303.361781 -205.806952 
L 302.890079 -208.07627 
L 302.472961 -210.345587 
L 302.108487 -212.614905 
L 301.793561 -214.884222 
L 301.523999 -217.15354 
L 301.294622 -219.422857 
L 301.099375 -221.692174 
L 300.931476 -223.961492 
L 300.783574 -226.230809 
L 300.647931 -228.500127 
L 300.516615 -230.769444 
L 300.381695 -233.038762 
L 300.235442 -235.308079 
L 300.070533 -237.577396 
L 299.880241 -239.846714 
L 299.658624 -242.116031 
L 299.400695 -244.385349 
L 299.102578 -246.654666 
L 298.761648 -248.923984 
L 298.376639 -251.193301 
L 297.947737 -253.462618 
L 297.476634 -255.731936 
L 296.966562 -258.001253 
L 296.422285 -260.270571 
L 295.85006 -262.539888 
L 295.257564 -264.809206 
L 294.653779 -267.078523 
L 294.048848 -269.347841 
L 293.453891 -271.617158 
L 292.880792 -273.886475 
L 292.341956 -276.155793 
L 291.850042 -278.42511 
L 291.417679 -280.694428 
L 291.057169 -282.963745 
L 290.780193 -285.233063 
L 290.597513 -287.50238 
L 290.518697 -289.771697 
L 290.55186 -292.041015 
L 290.703444 -294.310332 
L 290.978031 -296.57965 
L 291.378205 -298.848967 
L 291.904466 -301.118285 
L 292.555193 -303.387602 
L 293.326672 -305.656919 
L 294.213174 -307.926237 
L 295.207084 -310.195554 
L 296.299083 -312.464872 
L 297.478375 -314.734189 
L 298.73294 -317.003507 
L 300.049819 -319.272824 
L 301.415417 -321.542141 
L 302.815808 -323.811459 
L 304.237036 -326.080776 
L 305.665412 -328.350094 
L 307.087779 -330.619411 
L 308.491753 -332.888729 
L 309.865934 -335.158046 
L 311.200075 -337.427364 
L 312.485204 -339.696681 
L 313.713717 -341.965998 
L 314.879419 -344.235316 
L 315.97753 -346.504633 
L 317.004654 -348.773951 
L 317.958715 -351.043268 
L 318.838873 -353.312586 
L 319.645405 -355.581903 
L 320.379586 -357.85122 
L 321.043547 -360.120538 
L 321.640135 -362.389855 
L 329.239865 -362.389855 
L 329.239865 -362.389855 
L 329.836453 -360.120538 
L 330.500414 -357.85122 
L 331.234595 -355.581903 
L 332.041127 -353.312586 
L 332.921285 -351.043268 
L 333.875346 -348.773951 
L 334.90247 -346.504633 
L 336.000581 -344.235316 
L 337.166283 -341.965998 
L 338.394796 -339.696681 
L 339.679925 -337.427364 
L 341.014066 -335.158046 
L 342.388247 -332.888729 
L 343.792221 -330.619411 
L 345.214588 -328.350094 
L 346.642964 -326.080776 
L 348.064192 -323.811459 
L 349.464583 -321.542141 
L 350.830181 -319.272824 
L 352.14706 -317.003507 
L 353.401625 -314.734189 
L 354.580917 -312.464872 
L 355.672916 -310.195554 
L 356.666826 -307.926237 
L 357.553328 -305.656919 
L 358.324807 -303.387602 
L 358.975534 -301.118285 
L 359.501795 -298.848967 
L 359.901969 -296.57965 
L 360.176556 -294.310332 
L 360.32814 -292.041015 
L 360.361303 -289.771697 
L 360.282487 -287.50238 
L 360.099807 -285.233063 
L 359.822831 -282.963745 
L 359.462321 -280.694428 
L 359.029958 -278.42511 
L 358.538044 -276.155793 
L 357.999208 -273.886475 
L 357.426109 -271.617158 
L 356.831152 -269.347841 
L 356.226221 -267.078523 
L 355.622436 -264.809206 
L 355.02994 -262.539888 
L 354.457715 -260.270571 
L 353.913438 -258.001253 
L 353.403366 -255.731936 
L 352.932263 -253.462618 
L 352.503361 -251.193301 
L 352.118352 -248.923984 
L 351.777422 -246.654666 
L 351.479305 -244.385349 
L 351.221376 -242.116031 
L 350.999759 -239.846714 
L 350.809467 -237.577396 
L 350.644558 -235.308079 
L 350.498305 -233.038762 
L 350.363385 -230.769444 
L 350.232069 -228.500127 
L 350.096426 -226.230809 
L 349.948524 -223.961492 
L 349.780625 -221.692174 
L 349.585378 -219.422857 
L 349.356001 -217.15354 
L 349.086439 -214.884222 
L 348.771513 -212.614905 
L 348.407039 -210.345587 
L 347.989921 -208.07627 
L 347.518219 -205.806952 
L 346.991184 -203.537635 
L 346.409259 -201.268317 
L 345.774059 -198.999 
L 345.08831 -196.729683 
L 344.355768 -194.460365 
L 343.581113 -192.191048 
L 342.769817 -189.92173 
L 341.928004 -187.652413 
L 341.062289 -185.383095 
L 340.179621 -183.113778 
L 339.287113 -180.844461 
L 338.391884 -178.575143 
L 337.500908 -176.305826 
L 336.620871 -174.036508 
L 335.758043 -171.767191 
L 334.918179 -169.497873 
L 334.106424 -167.228556 
L 333.327253 -164.959239 
L 332.584424 -162.689921 
L 331.88096 -160.420604 
L 331.21914 -158.151286 
L 330.600522 -155.881969 
L 330.025971 -153.612651 
L 329.495707 -151.343334 
L 329.009361 -149.074017 
L 328.566043 -146.804699 
L 328.164409 -144.535382 
L 327.802737 -142.266064 
L 327.479002 -139.996747 
L 327.190948 -137.727429 
z
" style="stroke: #3f3f3f; stroke-width: 1.5"/>
    </defs>
    <g clip-path="url(#p24f9bc2e3d)">
     <use xlink:href="#m9438cdf9cf" x="0" y="345.6" style="fill: #e1812c; stroke: #3f3f3f; stroke-width: 1.5"/>
    </g>
   </g>
   <g id="matplotlib.axis_1">
    <g id="xtick_1">
     <g id="line2d_1">
      <defs>
       <path id="m79f6dc5263" d="M 0 0 
L 0 3.5 
" style="stroke: #000000; stroke-width: 0.8"/>
      </defs>
      <g>
       <use xlink:href="#m79f6dc5263" x="146.88" y="307.584" style="stroke: #000000; stroke-width: 0.8"/>
      </g>
     </g>
     <g id="text_1">
      <!-- No -->
      <g transform="translate(140.08 322.182437) scale(0.1 -0.1)">
       <defs>
        <path id="DejaVuSans-4e" d="M 628 4666 
L 1478 4666 
L 3547 763 
L 3547 4666 
L 4159 4666 
L 4159 0 
L 3309 0 
L 1241 3903 
L 1241 0 
L 628 0 
L 628 4666 
z
" transform="scale(0.015625)"/>
        <path id="DejaVuSans-6f" d="M 1959 3097 
Q 1497 3097 1228 2736 
Q 959 2375 959 1747 
Q 959 1119 1226 758 
Q 1494 397 1959 397 
Q 2419 397 2687 759 
Q 2956 1122 2956 1747 
Q 2956 2369 2687 2733 
Q 2419 3097 1959 3097 
z
M 1959 3584 
Q 2709 3584 3137 3096 
Q 3566 2609 3566 1747 
Q 3566 888 3137 398 
Q 2709 -91 1959 -91 
Q 1206 -91 779 398 
Q 353 888 353 1747 
Q 353 2609 779 3096 
Q 1206 3584 1959 3584 
z
" transform="scale(0.015625)"/>
       </defs>
       <use xlink:href="#DejaVuSans-4e"/>
       <use xlink:href="#DejaVuSans-6f" x="74.804688"/>
      </g>
     </g>
    </g>
    <g id="xtick_2">
     <g id="line2d_2">
      <g>
       <use xlink:href="#m79f6dc5263" x="325.44" y="307.584" style="stroke: #000000; stroke-width: 0.8"/>
      </g>
     </g>
     <g id="text_2">
      <!-- Yes -->
      <g transform="translate(317.367344 322.182437) scale(0.1 -0.1)">
       <defs>
        <path id="DejaVuSans-59" d="M -13 4666 
L 666 4666 
L 1959 2747 
L 3244 4666 
L 3922 4666 
L 2272 2222 
L 2272 0 
L 1638 0 
L 1638 2222 
L -13 4666 
z
" transform="scale(0.015625)"/>
        <path id="DejaVuSans-65" d="M 3597 1894 
L 3597 1613 
L 953 1613 
Q 991 1019 1311 708 
Q 1631 397 2203 397 
Q 2534 397 2845 478 
Q 3156 559 3463 722 
L 3463 178 
Q 3153 47 2828 -22 
Q 2503 -91 2169 -91 
Q 1331 -91 842 396 
Q 353 884 353 1716 
Q 353 2575 817 3079 
Q 1281 3584 2069 3584 
Q 2775 3584 3186 3129 
Q 3597 2675 3597 1894 
z
M 3022 2063 
Q 3016 2534 2758 2815 
Q 2500 3097 2075 3097 
Q 1594 3097 1305 2825 
Q 1016 2553 972 2059 
L 3022 2063 
z
" transform="scale(0.015625)"/>
        <path id="DejaVuSans-73" d="M 2834 3397 
L 2834 2853 
Q 2591 2978 2328 3040 
Q 2066 3103 1784 3103 
Q 1356 3103 1142 2972 
Q 928 2841 928 2578 
Q 928 2378 1081 2264 
Q 1234 2150 1697 2047 
L 1894 2003 
Q 2506 1872 2764 1633 
Q 3022 1394 3022 966 
Q 3022 478 2636 193 
Q 2250 -91 1575 -91 
Q 1294 -91 989 -36 
Q 684 19 347 128 
L 347 722 
Q 666 556 975 473 
Q 1284 391 1588 391 
Q 1994 391 2212 530 
Q 2431 669 2431 922 
Q 2431 1156 2273 1281 
Q 2116 1406 1581 1522 
L 1381 1569 
Q 847 1681 609 1914 
Q 372 2147 372 2553 
Q 372 3047 722 3315 
Q 1072 3584 1716 3584 
Q 2034 3584 2315 3537 
Q 2597 3491 2834 3397 
z
" transform="scale(0.015625)"/>
       </defs>
       <use xlink:href="#DejaVuSans-59"/>
       <use xlink:href="#DejaVuSans-65" x="47.833984"/>
       <use xlink:href="#DejaVuSans-73" x="109.357422"/>
      </g>
     </g>
    </g>
    <g id="text_3">
     <!-- Host Depletion -->
     <g transform="translate(199.042812 335.860562) scale(0.1 -0.1)">
      <defs>
       <path id="DejaVuSans-48" d="M 628 4666 
L 1259 4666 
L 1259 2753 
L 3553 2753 
L 3553 4666 
L 4184 4666 
L 4184 0 
L 3553 0 
L 3553 2222 
L 1259 2222 
L 1259 0 
L 628 0 
L 628 4666 
z
" transform="scale(0.015625)"/>
       <path id="DejaVuSans-74" d="M 1172 4494 
L 1172 3500 
L 2356 3500 
L 2356 3053 
L 1172 3053 
L 1172 1153 
Q 1172 725 1289 603 
Q 1406 481 1766 481 
L 2356 481 
L 2356 0 
L 1766 0 
Q 1100 0 847 248 
Q 594 497 594 1153 
L 594 3053 
L 172 3053 
L 172 3500 
L 594 3500 
L 594 4494 
L 1172 4494 
z
" transform="scale(0.015625)"/>
       <path id="DejaVuSans-20" transform="scale(0.015625)"/>
       <path id="DejaVuSans-44" d="M 1259 4147 
L 1259 519 
L 2022 519 
Q 2988 519 3436 956 
Q 3884 1394 3884 2338 
Q 3884 3275 3436 3711 
Q 2988 4147 2022 4147 
L 1259 4147 
z
M 628 4666 
L 1925 4666 
Q 3281 4666 3915 4102 
Q 4550 3538 4550 2338 
Q 4550 1131 3912 565 
Q 3275 0 1925 0 
L 628 0 
L 628 4666 
z
" transform="scale(0.015625)"/>
       <path id="DejaVuSans-70" d="M 1159 525 
L 1159 -1331 
L 581 -1331 
L 581 3500 
L 1159 3500 
L 1159 2969 
Q 1341 3281 1617 3432 
Q 1894 3584 2278 3584 
Q 2916 3584 3314 3078 
Q 3713 2572 3713 1747 
Q 3713 922 3314 415 
Q 2916 -91 2278 -91 
Q 1894 -91 1617 61 
Q 1341 213 1159 525 
z
M 3116 1747 
Q 3116 2381 2855 2742 
Q 2594 3103 2138 3103 
Q 1681 3103 1420 2742 
Q 1159 2381 1159 1747 
Q 1159 1113 1420 752 
Q 1681 391 2138 391 
Q 2594 391 2855 752 
Q 3116 1113 3116 1747 
z
" transform="scale(0.015625)"/>
       <path id="DejaVuSans-6c" d="M 603 4863 
L 1178 4863 
L 1178 0 
L 603 0 
L 603 4863 
z
" transform="scale(0.015625)"/>
       <path id="DejaVuSans-69" d="M 603 3500 
L 1178 3500 
L 1178 0 
L 603 0 
L 603 3500 
z
M 603 4863 
L 1178 4863 
L 1178 4134 
L 603 4134 
L 603 4863 
z
" transform="scale(0.015625)"/>
       <path id="DejaVuSans-6e" d="M 3513 2113 
L 3513 0 
L 2938 0 
L 2938 2094 
Q 2938 2591 2744 2837 
Q 2550 3084 2163 3084 
Q 1697 3084 1428 2787 
Q 1159 2491 1159 1978 
L 1159 0 
L 581 0 
L 581 3500 
L 1159 3500 
L 1159 2956 
Q 1366 3272 1645 3428 
Q 1925 3584 2291 3584 
Q 2894 3584 3203 3211 
Q 3513 2838 3513 2113 
z
" transform="scale(0.015625)"/>
      </defs>
      <use xlink:href="#DejaVuSans-48"/>
      <use xlink:href="#DejaVuSans-6f" x="75.195312"/>
      <use xlink:href="#DejaVuSans-73" x="136.376953"/>
      <use xlink:href="#DejaVuSans-74" x="188.476562"/>
      <use xlink:href="#DejaVuSans-20" x="227.685547"/>
      <use xlink:href="#DejaVuSans-44" x="259.472656"/>
      <use xlink:href="#DejaVuSans-65" x="336.474609"/>
      <use xlink:href="#DejaVuSans-70" x="397.998047"/>
      <use xlink:href="#DejaVuSans-6c" x="461.474609"/>
      <use xlink:href="#DejaVuSans-65" x="489.257812"/>
      <use xlink:href="#DejaVuSans-74" x="550.78125"/>
      <use xlink:href="#DejaVuSans-69" x="589.990234"/>
      <use xlink:href="#DejaVuSans-6f" x="617.773438"/>
      <use xlink:href="#DejaVuSans-6e" x="678.955078"/>
     </g>
    </g>
   </g>
   <g id="matplotlib.axis_2">
    <g id="ytick_1">
     <g id="line2d_3">
      <defs>
       <path id="m35ec0b1924" d="M 0 0 
L -3.5 0 
" style="stroke: #000000; stroke-width: 0.8"/>
      </defs>
      <g>
       <use xlink:href="#m35ec0b1924" x="57.6" y="307.584" style="stroke: #000000; stroke-width: 0.8"/>
      </g>
     </g>
     <g id="text_4">
      <!-- 0 -->
      <g transform="translate(44.2375 311.383219) scale(0.1 -0.1)">
       <defs>
        <path id="DejaVuSans-30" d="M 2034 4250 
Q 1547 4250 1301 3770 
Q 1056 3291 1056 2328 
Q 1056 1369 1301 889 
Q 1547 409 2034 409 
Q 2525 409 2770 889 
Q 3016 1369 3016 2328 
Q 3016 3291 2770 3770 
Q 2525 4250 2034 4250 
z
M 2034 4750 
Q 2819 4750 3233 4129 
Q 3647 3509 3647 2328 
Q 3647 1150 3233 529 
Q 2819 -91 2034 -91 
Q 1250 -91 836 529 
Q 422 1150 422 2328 
Q 422 3509 836 4129 
Q 1250 4750 2034 4750 
z
" transform="scale(0.015625)"/>
       </defs>
       <use xlink:href="#DejaVuSans-30"/>
      </g>
     </g>
    </g>
    <g id="ytick_2">
     <g id="line2d_4">
      <g>
       <use xlink:href="#m35ec0b1924" x="57.6" y="254.3616" style="stroke: #000000; stroke-width: 0.8"/>
      </g>
     </g>
     <g id="text_5">
      <!-- 20 -->
      <g transform="translate(37.875 258.160819) scale(0.1 -0.1)">
       <defs>
        <path id="DejaVuSans-32" d="M 1228 531 
L 3431 531 
L 3431 0 
L 469 0 
L 469 531 
Q 828 903 1448 1529 
Q 2069 2156 2228 2338 
Q 2531 2678 2651 2914 
Q 2772 3150 2772 3378 
Q 2772 3750 2511 3984 
Q 2250 4219 1831 4219 
Q 1534 4219 1204 4116 
Q 875 4013 500 3803 
L 500 4441 
Q 881 4594 1212 4672 
Q 1544 4750 1819 4750 
Q 2544 4750 2975 4387 
Q 3406 4025 3406 3419 
Q 3406 3131 3298 2873 
Q 3191 2616 2906 2266 
Q 2828 2175 2409 1742 
Q 1991 1309 1228 531 
z
" transform="scale(0.015625)"/>
       </defs>
       <use xlink:href="#DejaVuSans-32"/>
       <use xlink:href="#DejaVuSans-30" x="63.623047"/>
      </g>
     </g>
    </g>
    <g id="ytick_3">
     <g id="line2d_5">
      <g>
       <use xlink:href="#m35ec0b1924" x="57.6" y="201.1392" style="stroke: #000000; stroke-width: 0.8"/>
      </g>
     </g>
     <g id="text_6">
      <!-- 40 -->
      <g transform="translate(37.875 204.938419) scale(0.1 -0.1)">
       <defs>
        <path id="DejaVuSans-34" d="M 2419 4116 
L 825 1625 
L 2419 1625 
L 2419 4116 
z
M 2253 4666 
L 3047 4666 
L 3047 1625 
L 3713 1625 
L 3713 1100 
L 3047 1100 
L 3047 0 
L 2419 0 
L 2419 1100 
L 313 1100 
L 313 1709 
L 2253 4666 
z
" transform="scale(0.015625)"/>
       </defs>
       <use xlink:href="#DejaVuSans-34"/>
       <use xlink:href="#DejaVuSans-30" x="63.623047"/>
      </g>
     </g>
    </g>
    <g id="ytick_4">
     <g id="line2d_6">
      <g>
       <use xlink:href="#m35ec0b1924" x="57.6" y="147.9168" style="stroke: #000000; stroke-width: 0.8"/>
      </g>
     </g>
     <g id="text_7">
      <!-- 60 -->
      <g transform="translate(37.875 151.716019) scale(0.1 -0.1)">
       <defs>
        <path id="DejaVuSans-36" d="M 2113 2584 
Q 1688 2584 1439 2293 
Q 1191 2003 1191 1497 
Q 1191 994 1439 701 
Q 1688 409 2113 409 
Q 2538 409 2786 701 
Q 3034 994 3034 1497 
Q 3034 2003 2786 2293 
Q 2538 2584 2113 2584 
z
M 3366 4563 
L 3366 3988 
Q 3128 4100 2886 4159 
Q 2644 4219 2406 4219 
Q 1781 4219 1451 3797 
Q 1122 3375 1075 2522 
Q 1259 2794 1537 2939 
Q 1816 3084 2150 3084 
Q 2853 3084 3261 2657 
Q 3669 2231 3669 1497 
Q 3669 778 3244 343 
Q 2819 -91 2113 -91 
Q 1303 -91 875 529 
Q 447 1150 447 2328 
Q 447 3434 972 4092 
Q 1497 4750 2381 4750 
Q 2619 4750 2861 4703 
Q 3103 4656 3366 4563 
z
" transform="scale(0.015625)"/>
       </defs>
       <use xlink:href="#DejaVuSans-36"/>
       <use xlink:href="#DejaVuSans-30" x="63.623047"/>
      </g>
     </g>
    </g>
    <g id="ytick_5">
     <g id="line2d_7">
      <g>
       <use xlink:href="#m35ec0b1924" x="57.6" y="94.6944" style="stroke: #000000; stroke-width: 0.8"/>
      </g>
     </g>
     <g id="text_8">
      <!-- 80 -->
      <g transform="translate(37.875 98.493619) scale(0.1 -0.1)">
       <defs>
        <path id="DejaVuSans-38" d="M 2034 2216 
Q 1584 2216 1326 1975 
Q 1069 1734 1069 1313 
Q 1069 891 1326 650 
Q 1584 409 2034 409 
Q 2484 409 2743 651 
Q 3003 894 3003 1313 
Q 3003 1734 2745 1975 
Q 2488 2216 2034 2216 
z
M 1403 2484 
Q 997 2584 770 2862 
Q 544 3141 544 3541 
Q 544 4100 942 4425 
Q 1341 4750 2034 4750 
Q 2731 4750 3128 4425 
Q 3525 4100 3525 3541 
Q 3525 3141 3298 2862 
Q 3072 2584 2669 2484 
Q 3125 2378 3379 2068 
Q 3634 1759 3634 1313 
Q 3634 634 3220 271 
Q 2806 -91 2034 -91 
Q 1263 -91 848 271 
Q 434 634 434 1313 
Q 434 1759 690 2068 
Q 947 2378 1403 2484 
z
M 1172 3481 
Q 1172 3119 1398 2916 
Q 1625 2713 2034 2713 
Q 2441 2713 2670 2916 
Q 2900 3119 2900 3481 
Q 2900 3844 2670 4047 
Q 2441 4250 2034 4250 
Q 1625 4250 1398 4047 
Q 1172 3844 1172 3481 
z
" transform="scale(0.015625)"/>
       </defs>
       <use xlink:href="#DejaVuSans-38"/>
       <use xlink:href="#DejaVuSans-30" x="63.623047"/>
      </g>
     </g>
    </g>
    <g id="ytick_6">
     <g id="line2d_8">
      <g>
       <use xlink:href="#m35ec0b1924" x="57.6" y="41.472" style="stroke: #000000; stroke-width: 0.8"/>
      </g>
     </g>
     <g id="text_9">
      <!-- 100 -->
      <g transform="translate(31.5125 45.271219) scale(0.1 -0.1)">
       <defs>
        <path id="DejaVuSans-31" d="M 794 531 
L 1825 531 
L 1825 4091 
L 703 3866 
L 703 4441 
L 1819 4666 
L 2450 4666 
L 2450 531 
L 3481 531 
L 3481 0 
L 794 0 
L 794 531 
z
" transform="scale(0.015625)"/>
       </defs>
       <use xlink:href="#DejaVuSans-31"/>
       <use xlink:href="#DejaVuSans-30" x="63.623047"/>
       <use xlink:href="#DejaVuSans-30" x="127.246094"/>
      </g>
     </g>
    </g>
    <g id="text_10">
     <!-- Detected and Removed Host Reads % -->
     <g transform="translate(25.432812 269.573312) rotate(-90) scale(0.1 -0.1)">
      <defs>
       <path id="DejaVuSans-63" d="M 3122 3366 
L 3122 2828 
Q 2878 2963 2633 3030 
Q 2388 3097 2138 3097 
Q 1578 3097 1268 2742 
Q 959 2388 959 1747 
Q 959 1106 1268 751 
Q 1578 397 2138 397 
Q 2388 397 2633 464 
Q 2878 531 3122 666 
L 3122 134 
Q 2881 22 2623 -34 
Q 2366 -91 2075 -91 
Q 1284 -91 818 406 
Q 353 903 353 1747 
Q 353 2603 823 3093 
Q 1294 3584 2113 3584 
Q 2378 3584 2631 3529 
Q 2884 3475 3122 3366 
z
" transform="scale(0.015625)"/>
       <path id="DejaVuSans-64" d="M 2906 2969 
L 2906 4863 
L 3481 4863 
L 3481 0 
L 2906 0 
L 2906 525 
Q 2725 213 2448 61 
Q 2172 -91 1784 -91 
Q 1150 -91 751 415 
Q 353 922 353 1747 
Q 353 2572 751 3078 
Q 1150 3584 1784 3584 
Q 2172 3584 2448 3432 
Q 2725 3281 2906 2969 
z
M 947 1747 
Q 947 1113 1208 752 
Q 1469 391 1925 391 
Q 2381 391 2643 752 
Q 2906 1113 2906 1747 
Q 2906 2381 2643 2742 
Q 2381 3103 1925 3103 
Q 1469 3103 1208 2742 
Q 947 2381 947 1747 
z
" transform="scale(0.015625)"/>
       <path id="DejaVuSans-61" d="M 2194 1759 
Q 1497 1759 1228 1600 
Q 959 1441 959 1056 
Q 959 750 1161 570 
Q 1363 391 1709 391 
Q 2188 391 2477 730 
Q 2766 1069 2766 1631 
L 2766 1759 
L 2194 1759 
z
M 3341 1997 
L 3341 0 
L 2766 0 
L 2766 531 
Q 2569 213 2275 61 
Q 1981 -91 1556 -91 
Q 1019 -91 701 211 
Q 384 513 384 1019 
Q 384 1609 779 1909 
Q 1175 2209 1959 2209 
L 2766 2209 
L 2766 2266 
Q 2766 2663 2505 2880 
Q 2244 3097 1772 3097 
Q 1472 3097 1187 3025 
Q 903 2953 641 2809 
L 641 3341 
Q 956 3463 1253 3523 
Q 1550 3584 1831 3584 
Q 2591 3584 2966 3190 
Q 3341 2797 3341 1997 
z
" transform="scale(0.015625)"/>
       <path id="DejaVuSans-52" d="M 2841 2188 
Q 3044 2119 3236 1894 
Q 3428 1669 3622 1275 
L 4263 0 
L 3584 0 
L 2988 1197 
Q 2756 1666 2539 1819 
Q 2322 1972 1947 1972 
L 1259 1972 
L 1259 0 
L 628 0 
L 628 4666 
L 2053 4666 
Q 2853 4666 3247 4331 
Q 3641 3997 3641 3322 
Q 3641 2881 3436 2590 
Q 3231 2300 2841 2188 
z
M 1259 4147 
L 1259 2491 
L 2053 2491 
Q 2509 2491 2742 2702 
Q 2975 2913 2975 3322 
Q 2975 3731 2742 3939 
Q 2509 4147 2053 4147 
L 1259 4147 
z
" transform="scale(0.015625)"/>
       <path id="DejaVuSans-6d" d="M 3328 2828 
Q 3544 3216 3844 3400 
Q 4144 3584 4550 3584 
Q 5097 3584 5394 3201 
Q 5691 2819 5691 2113 
L 5691 0 
L 5113 0 
L 5113 2094 
Q 5113 2597 4934 2840 
Q 4756 3084 4391 3084 
Q 3944 3084 3684 2787 
Q 3425 2491 3425 1978 
L 3425 0 
L 2847 0 
L 2847 2094 
Q 2847 2600 2669 2842 
Q 2491 3084 2119 3084 
Q 1678 3084 1418 2786 
Q 1159 2488 1159 1978 
L 1159 0 
L 581 0 
L 581 3500 
L 1159 3500 
L 1159 2956 
Q 1356 3278 1631 3431 
Q 1906 3584 2284 3584 
Q 2666 3584 2933 3390 
Q 3200 3197 3328 2828 
z
" transform="scale(0.015625)"/>
       <path id="DejaVuSans-76" d="M 191 3500 
L 800 3500 
L 1894 563 
L 2988 3500 
L 3597 3500 
L 2284 0 
L 1503 0 
L 191 3500 
z
" transform="scale(0.015625)"/>
       <path id="DejaVuSans-25" d="M 4653 2053 
Q 4381 2053 4226 1822 
Q 4072 1591 4072 1178 
Q 4072 772 4226 539 
Q 4381 306 4653 306 
Q 4919 306 5073 539 
Q 5228 772 5228 1178 
Q 5228 1588 5073 1820 
Q 4919 2053 4653 2053 
z
M 4653 2450 
Q 5147 2450 5437 2106 
Q 5728 1763 5728 1178 
Q 5728 594 5436 251 
Q 5144 -91 4653 -91 
Q 4153 -91 3862 251 
Q 3572 594 3572 1178 
Q 3572 1766 3864 2108 
Q 4156 2450 4653 2450 
z
M 1428 4353 
Q 1159 4353 1004 4120 
Q 850 3888 850 3481 
Q 850 3069 1003 2837 
Q 1156 2606 1428 2606 
Q 1700 2606 1854 2837 
Q 2009 3069 2009 3481 
Q 2009 3884 1853 4118 
Q 1697 4353 1428 4353 
z
M 4250 4750 
L 4750 4750 
L 1831 -91 
L 1331 -91 
L 4250 4750 
z
M 1428 4750 
Q 1922 4750 2215 4408 
Q 2509 4066 2509 3481 
Q 2509 2891 2217 2550 
Q 1925 2209 1428 2209 
Q 931 2209 642 2551 
Q 353 2894 353 3481 
Q 353 4063 643 4406 
Q 934 4750 1428 4750 
z
" transform="scale(0.015625)"/>
      </defs>
      <use xlink:href="#DejaVuSans-44"/>
      <use xlink:href="#DejaVuSans-65" x="77.001953"/>
      <use xlink:href="#DejaVuSans-74" x="138.525391"/>
      <use xlink:href="#DejaVuSans-65" x="177.734375"/>
      <use xlink:href="#DejaVuSans-63" x="239.257812"/>
      <use xlink:href="#DejaVuSans-74" x="294.238281"/>
      <use xlink:href="#DejaVuSans-65" x="333.447266"/>
      <use xlink:href="#DejaVuSans-64" x="394.970703"/>
      <use xlink:href="#DejaVuSans-20" x="458.447266"/>
      <use xlink:href="#DejaVuSans-61" x="490.234375"/>
      <use xlink:href="#DejaVuSans-6e" x="551.513672"/>
      <use xlink:href="#DejaVuSans-64" x="614.892578"/>
      <use xlink:href="#DejaVuSans-20" x="678.369141"/>
      <use xlink:href="#DejaVuSans-52" x="710.15625"/>
      <use xlink:href="#DejaVuSans-65" x="775.138672"/>
      <use xlink:href="#DejaVuSans-6d" x="836.662109"/>
      <use xlink:href="#DejaVuSans-6f" x="934.074219"/>
      <use xlink:href="#DejaVuSans-76" x="995.255859"/>
      <use xlink:href="#DejaVuSans-65" x="1054.435547"/>
      <use xlink:href="#DejaVuSans-64" x="1115.958984"/>
      <use xlink:href="#DejaVuSans-20" x="1179.435547"/>
      <use xlink:href="#DejaVuSans-48" x="1211.222656"/>
      <use xlink:href="#DejaVuSans-6f" x="1286.417969"/>
      <use xlink:href="#DejaVuSans-73" x="1347.599609"/>
      <use xlink:href="#DejaVuSans-74" x="1399.699219"/>
      <use xlink:href="#DejaVuSans-20" x="1438.908203"/>
      <use xlink:href="#DejaVuSans-52" x="1470.695312"/>
      <use xlink:href="#DejaVuSans-65" x="1535.677734"/>
      <use xlink:href="#DejaVuSans-61" x="1597.201172"/>
      <use xlink:href="#DejaVuSans-64" x="1658.480469"/>
      <use xlink:href="#DejaVuSans-73" x="1721.957031"/>
      <use xlink:href="#DejaVuSans-20" x="1774.056641"/>
      <use xlink:href="#DejaVuSans-25" x="1805.84375"/>
     </g>
    </g>
   </g>
   <g id="line2d_9">
    <path d="M 146.88 129.726987 
L 146.88 43.889616 
" clip-path="url(#p24f9bc2e3d)" style="fill: none; stroke: #3f3f3f; stroke-width: 1.5; stroke-linecap: square"/>
   </g>
   <g id="line2d_10">
    <path d="M 146.88 81.963333 
L 146.88 46.756494 
" clip-path="url(#p24f9bc2e3d)" style="fill: none; stroke: #3f3f3f; stroke-width: 4.5; stroke-linecap: square"/>
   </g>
   <g id="line2d_11">
    <path d="M 325.44 145.427504 
L 325.44 45.655211 
" clip-path="url(#p24f9bc2e3d)" style="fill: none; stroke: #3f3f3f; stroke-width: 1.5; stroke-linecap: square"/>
   </g>
   <g id="line2d_12">
    <path d="M 325.44 118.873412 
L 325.44 46.595579 
" clip-path="url(#p24f9bc2e3d)" style="fill: none; stroke: #3f3f3f; stroke-width: 4.5; stroke-linecap: square"/>
   </g>
   <g id="patch_3">
    <path d="M 57.6 307.584 
L 57.6 41.472 
" style="fill: none; stroke: #000000; stroke-width: 0.8; stroke-linejoin: miter; stroke-linecap: square"/>
   </g>
   <g id="patch_4">
    <path d="M 414.72 307.584 
L 414.72 41.472 
" style="fill: none; stroke: #000000; stroke-width: 0.8; stroke-linejoin: miter; stroke-linecap: square"/>
   </g>
   <g id="patch_5">
    <path d="M 57.6 307.584 
L 414.72 307.584 
" style="fill: none; stroke: #000000; stroke-width: 0.8; stroke-linejoin: miter; stroke-linecap: square"/>
   </g>
   <g id="patch_6">
    <path d="M 57.6 41.472 
L 414.72 41.472 
" style="fill: none; stroke: #000000; stroke-width: 0.8; stroke-linejoin: miter; stroke-linecap: square"/>
   </g>
   <g id="PathCollection_1">
    <defs>
     <path id="mb2aeaae3d8" d="M 0 1.5 
C 0.397805 1.5 0.77937 1.341951 1.06066 1.06066 
C 1.341951 0.77937 1.5 0.397805 1.5 0 
C 1.5 -0.397805 1.341951 -0.77937 1.06066 -1.06066 
C 0.77937 -1.341951 0.397805 -1.5 0 -1.5 
C -0.397805 -1.5 -0.77937 -1.341951 -1.06066 -1.06066 
C -1.341951 -0.77937 -1.5 -0.397805 -1.5 0 
C -1.5 0.397805 -1.341951 0.77937 -1.06066 1.06066 
C -0.77937 1.341951 -0.397805 1.5 0 1.5 
z
" style="stroke: #3f3f3f"/>
    </defs>
    <g clip-path="url(#p24f9bc2e3d)">
     <use xlink:href="#mb2aeaae3d8" x="146.88" y="49.262264" style="fill: #ffffff; stroke: #3f3f3f"/>
    </g>
   </g>
   <g id="PathCollection_2">
    <g clip-path="url(#p24f9bc2e3d)">
     <use xlink:href="#mb2aeaae3d8" x="325.44" y="68.82006" style="fill: #ffffff; stroke: #3f3f3f"/>
    </g>
   </g>
   <g id="PathCollection_3">
    <defs>
     <path id="me8b4387b77" d="M 0 2.5 
C 0.663008 2.5 1.29895 2.236584 1.767767 1.767767 
C 2.236584 1.29895 2.5 0.663008 2.5 0 
C 2.5 -0.663008 2.236584 -1.29895 1.767767 -1.767767 
C 1.29895 -2.236584 0.663008 -2.5 0 -2.5 
C -0.663008 -2.5 -1.29895 -2.236584 -1.767767 -1.767767 
C -2.236584 -1.29895 -2.5 -0.663008 -2.5 0 
C -2.5 0.663008 -2.236584 1.29895 -1.767767 1.767767 
C -1.29895 2.236584 -0.663008 2.5 0 2.5 
z
"/>
    </defs>
    <g clip-path="url(#p24f9bc2e3d)">
     <use xlink:href="#me8b4387b77" x="146.88" y="63.341907" style="fill: #ffffff"/>
     <use xlink:href="#me8b4387b77" x="146.88" y="50.671727" style="fill: #ffffff"/>
     <use xlink:href="#me8b4387b77" x="141.662342" y="50.117588" style="fill: #ffffff"/>
     <use xlink:href="#me8b4387b77" x="146.88" y="56.113311" style="fill: #ffffff"/>
     <use xlink:href="#me8b4387b77" x="183.164764" y="46.880313" style="fill: #ffffff"/>
     <use xlink:href="#me8b4387b77" x="193.637046" y="46.181522" style="fill: #ffffff"/>
     <use xlink:href="#me8b4387b77" x="167.777637" y="49.148382" style="fill: #ffffff"/>
     <use xlink:href="#me8b4387b77" x="145.432669" y="45.865483" style="fill: #ffffff"/>
     <use xlink:href="#me8b4387b77" x="146.88" y="80.256632" style="fill: #ffffff"/>
     <use xlink:href="#me8b4387b77" x="177.914764" y="46.881527" style="fill: #ffffff"/>
     <use xlink:href="#me8b4387b77" x="152.089699" y="50.053383" style="fill: #ffffff"/>
     <use xlink:href="#me8b4387b77" x="198.870591" y="45.785955" style="fill: #ffffff"/>
     <use xlink:href="#me8b4387b77" x="150.618665" y="45.087126" style="fill: #ffffff"/>
     <use xlink:href="#me8b4387b77" x="120.983988" y="47.536532" style="fill: #ffffff"/>
     <use xlink:href="#me8b4387b77" x="157.278767" y="49.293822" style="fill: #ffffff"/>
     <use xlink:href="#me8b4387b77" x="115.734057" y="47.510791" style="fill: #ffffff"/>
     <use xlink:href="#me8b4387b77" x="162.528349" y="49.230706" style="fill: #ffffff"/>
     <use xlink:href="#me8b4387b77" x="136.460348" y="49.44297" style="fill: #ffffff"/>
     <use xlink:href="#me8b4387b77" x="125.969108" y="49.104659" style="fill: #ffffff"/>
     <use xlink:href="#me8b4387b77" x="131.218793" y="49.159489" style="fill: #ffffff"/>
     <use xlink:href="#me8b4387b77" x="140.609984" y="43.889616" style="fill: #ffffff"/>
     <use xlink:href="#me8b4387b77" x="105.314365" y="46.27782" style="fill: #ffffff"/>
     <use xlink:href="#me8b4387b77" x="173.000529" y="48.640931" style="fill: #ffffff"/>
     <use xlink:href="#me8b4387b77" x="188.393663" y="46.432476" style="fill: #ffffff"/>
     <use xlink:href="#me8b4387b77" x="100.088677" y="45.797189" style="fill: #ffffff"/>
     <use xlink:href="#me8b4387b77" x="204.117503" y="45.61449" style="fill: #ffffff"/>
     <use xlink:href="#me8b4387b77" x="110.5281" y="46.864501" style="fill: #ffffff"/>
     <use xlink:href="#me8b4387b77" x="94.840717" y="45.657839" style="fill: #ffffff"/>
     <use xlink:href="#me8b4387b77" x="141.861609" y="61.873184" style="fill: #ffffff"/>
     <use xlink:href="#me8b4387b77" x="141.643502" y="151.23003" style="fill: #ffffff"/>
     <use xlink:href="#me8b4387b77" x="145.998763" y="144.650112" style="fill: #ffffff"/>
     <use xlink:href="#me8b4387b77" x="150.167185" y="147.689798" style="fill: #ffffff"/>
     <use xlink:href="#me8b4387b77" x="141.630518" y="80.186376" style="fill: #ffffff"/>
     <use xlink:href="#me8b4387b77" x="146.88" y="160.683853" style="fill: #ffffff"/>
     <use xlink:href="#me8b4387b77" x="146.88" y="151.58839" style="fill: #ffffff"/>
     <use xlink:href="#me8b4387b77" x="146.88" y="129.726987" style="fill: #ffffff"/>
     <use xlink:href="#me8b4387b77" x="150.5739" y="142.197732" style="fill: #ffffff"/>
     <use xlink:href="#me8b4387b77" x="146.88" y="93.653558" style="fill: #ffffff"/>
     <use xlink:href="#me8b4387b77" x="150.518158" y="87.083438" style="fill: #ffffff"/>
     <use xlink:href="#me8b4387b77" x="145.58989" y="88.806873" style="fill: #ffffff"/>
    </g>
   </g>
   <g id="PathCollection_4">
    <g clip-path="url(#p24f9bc2e3d)">
     <use xlink:href="#me8b4387b77" x="320.985871" y="45.933895" style="fill: #ffffff"/>
     <use xlink:href="#me8b4387b77" x="325.44" y="48.580629" style="fill: #ffffff"/>
     <use xlink:href="#me8b4387b77" x="329.697608" y="45.655211" style="fill: #ffffff"/>
     <use xlink:href="#me8b4387b77" x="325.44" y="145.427504" style="fill: #ffffff"/>
     <use xlink:href="#me8b4387b77" x="325.44" y="128.811385" style="fill: #ffffff"/>
     <use xlink:href="#me8b4387b77" x="325.44" y="89.059491" style="fill: #ffffff"/>
    </g>
   </g>
  </g>
 </g>
 <defs>
  <clipPath id="p24f9bc2e3d">
   <rect x="57.6" y="41.472" width="357.12" height="266.112"/>
  </clipPath>
 </defs>
</svg>
