<?xml version="1.0" encoding="utf-8" standalone="no"?>
<!DOCTYPE svg PUBLIC "-//W3C//DTD SVG 1.1//EN"
  "http://www.w3.org/Graphics/SVG/1.1/DTD/svg11.dtd">
<svg xmlns:xlink="http://www.w3.org/1999/xlink" width="460.8pt" height="345.6pt" viewBox="0 0 460.8 345.6" xmlns="http://www.w3.org/2000/svg" version="1.1">
 <metadata>
  <rdf:RDF xmlns:dc="http://purl.org/dc/elements/1.1/" xmlns:cc="http://creativecommons.org/ns#" xmlns:rdf="http://www.w3.org/1999/02/22-rdf-syntax-ns#">
   <cc:Work>
    <dc:type rdf:resource="http://purl.org/dc/dcmitype/StillImage"/>
    <dc:date>2023-10-10T11:09:43.447069</dc:date>
    <dc:format>image/svg+xml</dc:format>
    <dc:creator>
     <cc:Agent>
      <dc:title>Matplotlib v3.7.1, https://matplotlib.org/</dc:title>
     </cc:Agent>
    </dc:creator>
   </cc:Work>
  </rdf:RDF>
 </metadata>
 <defs>
  <style type="text/css">*{stroke-linejoin: round; stroke-linecap: butt}</style>
 </defs>
 <g id="figure_1">
  <g id="patch_1">
   <path d="M 0 345.6 
L 460.8 345.6 
L 460.8 0 
L 0 0 
z
" style="fill: #ffffff"/>
  </g>
  <g id="axes_1">
   <g id="patch_2">
    <path d="M 57.6 307.584 
L 414.72 307.584 
L 414.72 41.472 
L 57.6 41.472 
z
" style="fill: #eaeaf2"/>
   </g>
   <g id="matplotlib.axis_1">
    <g id="xtick_1">
     <g id="text_1">
      <!-- Salmonella enterica -->
      <g style="fill: #262626" transform="translate(92.129219 325.442281) scale(0.11 -0.11)">
       <defs>
        <path id="DejaVuSans-53" d="M 3425 4513 
L 3425 3897 
Q 3066 4069 2747 4153 
Q 2428 4238 2131 4238 
Q 1616 4238 1336 4038 
Q 1056 3838 1056 3469 
Q 1056 3159 1242 3001 
Q 1428 2844 1947 2747 
L 2328 2669 
Q 3034 2534 3370 2195 
Q 3706 1856 3706 1288 
Q 3706 609 3251 259 
Q 2797 -91 1919 -91 
Q 1588 -91 1214 -16 
Q 841 59 441 206 
L 441 856 
Q 825 641 1194 531 
Q 1563 422 1919 422 
Q 2459 422 2753 634 
Q 3047 847 3047 1241 
Q 3047 1584 2836 1778 
Q 2625 1972 2144 2069 
L 1759 2144 
Q 1053 2284 737 2584 
Q 422 2884 422 3419 
Q 422 4038 858 4394 
Q 1294 4750 2059 4750 
Q 2388 4750 2728 4690 
Q 3069 4631 3425 4513 
z
" transform="scale(0.015625)"/>
        <path id="DejaVuSans-61" d="M 2194 1759 
Q 1497 1759 1228 1600 
Q 959 1441 959 1056 
Q 959 750 1161 570 
Q 1363 391 1709 391 
Q 2188 391 2477 730 
Q 2766 1069 2766 1631 
L 2766 1759 
L 2194 1759 
z
M 3341 1997 
L 3341 0 
L 2766 0 
L 2766 531 
Q 2569 213 2275 61 
Q 1981 -91 1556 -91 
Q 1019 -91 701 211 
Q 384 513 384 1019 
Q 384 1609 779 1909 
Q 1175 2209 1959 2209 
L 2766 2209 
L 2766 2266 
Q 2766 2663 2505 2880 
Q 2244 3097 1772 3097 
Q 1472 3097 1187 3025 
Q 903 2953 641 2809 
L 641 3341 
Q 956 3463 1253 3523 
Q 1550 3584 1831 3584 
Q 2591 3584 2966 3190 
Q 3341 2797 3341 1997 
z
" transform="scale(0.015625)"/>
        <path id="DejaVuSans-6c" d="M 603 4863 
L 1178 4863 
L 1178 0 
L 603 0 
L 603 4863 
z
" transform="scale(0.015625)"/>
        <path id="DejaVuSans-6d" d="M 3328 2828 
Q 3544 3216 3844 3400 
Q 4144 3584 4550 3584 
Q 5097 3584 5394 3201 
Q 5691 2819 5691 2113 
L 5691 0 
L 5113 0 
L 5113 2094 
Q 5113 2597 4934 2840 
Q 4756 3084 4391 3084 
Q 3944 3084 3684 2787 
Q 3425 2491 3425 1978 
L 3425 0 
L 2847 0 
L 2847 2094 
Q 2847 2600 2669 2842 
Q 2491 3084 2119 3084 
Q 1678 3084 1418 2786 
Q 1159 2488 1159 1978 
L 1159 0 
L 581 0 
L 581 3500 
L 1159 3500 
L 1159 2956 
Q 1356 3278 1631 3431 
Q 1906 3584 2284 3584 
Q 2666 3584 2933 3390 
Q 3200 3197 3328 2828 
z
" transform="scale(0.015625)"/>
        <path id="DejaVuSans-6f" d="M 1959 3097 
Q 1497 3097 1228 2736 
Q 959 2375 959 1747 
Q 959 1119 1226 758 
Q 1494 397 1959 397 
Q 2419 397 2687 759 
Q 2956 1122 2956 1747 
Q 2956 2369 2687 2733 
Q 2419 3097 1959 3097 
z
M 1959 3584 
Q 2709 3584 3137 3096 
Q 3566 2609 3566 1747 
Q 3566 888 3137 398 
Q 2709 -91 1959 -91 
Q 1206 -91 779 398 
Q 353 888 353 1747 
Q 353 2609 779 3096 
Q 1206 3584 1959 3584 
z
" transform="scale(0.015625)"/>
        <path id="DejaVuSans-6e" d="M 3513 2113 
L 3513 0 
L 2938 0 
L 2938 2094 
Q 2938 2591 2744 2837 
Q 2550 3084 2163 3084 
Q 1697 3084 1428 2787 
Q 1159 2491 1159 1978 
L 1159 0 
L 581 0 
L 581 3500 
L 1159 3500 
L 1159 2956 
Q 1366 3272 1645 3428 
Q 1925 3584 2291 3584 
Q 2894 3584 3203 3211 
Q 3513 2838 3513 2113 
z
" transform="scale(0.015625)"/>
        <path id="DejaVuSans-65" d="M 3597 1894 
L 3597 1613 
L 953 1613 
Q 991 1019 1311 708 
Q 1631 397 2203 397 
Q 2534 397 2845 478 
Q 3156 559 3463 722 
L 3463 178 
Q 3153 47 2828 -22 
Q 2503 -91 2169 -91 
Q 1331 -91 842 396 
Q 353 884 353 1716 
Q 353 2575 817 3079 
Q 1281 3584 2069 3584 
Q 2775 3584 3186 3129 
Q 3597 2675 3597 1894 
z
M 3022 2063 
Q 3016 2534 2758 2815 
Q 2500 3097 2075 3097 
Q 1594 3097 1305 2825 
Q 1016 2553 972 2059 
L 3022 2063 
z
" transform="scale(0.015625)"/>
        <path id="DejaVuSans-20" transform="scale(0.015625)"/>
        <path id="DejaVuSans-74" d="M 1172 4494 
L 1172 3500 
L 2356 3500 
L 2356 3053 
L 1172 3053 
L 1172 1153 
Q 1172 725 1289 603 
Q 1406 481 1766 481 
L 2356 481 
L 2356 0 
L 1766 0 
Q 1100 0 847 248 
Q 594 497 594 1153 
L 594 3053 
L 172 3053 
L 172 3500 
L 594 3500 
L 594 4494 
L 1172 4494 
z
" transform="scale(0.015625)"/>
        <path id="DejaVuSans-72" d="M 2631 2963 
Q 2534 3019 2420 3045 
Q 2306 3072 2169 3072 
Q 1681 3072 1420 2755 
Q 1159 2438 1159 1844 
L 1159 0 
L 581 0 
L 581 3500 
L 1159 3500 
L 1159 2956 
Q 1341 3275 1631 3429 
Q 1922 3584 2338 3584 
Q 2397 3584 2469 3576 
Q 2541 3569 2628 3553 
L 2631 2963 
z
" transform="scale(0.015625)"/>
        <path id="DejaVuSans-69" d="M 603 3500 
L 1178 3500 
L 1178 0 
L 603 0 
L 603 3500 
z
M 603 4863 
L 1178 4863 
L 1178 4134 
L 603 4134 
L 603 4863 
z
" transform="scale(0.015625)"/>
        <path id="DejaVuSans-63" d="M 3122 3366 
L 3122 2828 
Q 2878 2963 2633 3030 
Q 2388 3097 2138 3097 
Q 1578 3097 1268 2742 
Q 959 2388 959 1747 
Q 959 1106 1268 751 
Q 1578 397 2138 397 
Q 2388 397 2633 464 
Q 2878 531 3122 666 
L 3122 134 
Q 2881 22 2623 -34 
Q 2366 -91 2075 -91 
Q 1284 -91 818 406 
Q 353 903 353 1747 
Q 353 2603 823 3093 
Q 1294 3584 2113 3584 
Q 2378 3584 2631 3529 
Q 2884 3475 3122 3366 
z
" transform="scale(0.015625)"/>
       </defs>
       <use xlink:href="#DejaVuSans-53"/>
       <use xlink:href="#DejaVuSans-61" x="63.476562"/>
       <use xlink:href="#DejaVuSans-6c" x="124.755859"/>
       <use xlink:href="#DejaVuSans-6d" x="152.539062"/>
       <use xlink:href="#DejaVuSans-6f" x="249.951172"/>
       <use xlink:href="#DejaVuSans-6e" x="311.132812"/>
       <use xlink:href="#DejaVuSans-65" x="374.511719"/>
       <use xlink:href="#DejaVuSans-6c" x="436.035156"/>
       <use xlink:href="#DejaVuSans-6c" x="463.818359"/>
       <use xlink:href="#DejaVuSans-61" x="491.601562"/>
       <use xlink:href="#DejaVuSans-20" x="552.880859"/>
       <use xlink:href="#DejaVuSans-65" x="584.667969"/>
       <use xlink:href="#DejaVuSans-6e" x="646.191406"/>
       <use xlink:href="#DejaVuSans-74" x="709.570312"/>
       <use xlink:href="#DejaVuSans-65" x="748.779297"/>
       <use xlink:href="#DejaVuSans-72" x="810.302734"/>
       <use xlink:href="#DejaVuSans-69" x="851.416016"/>
       <use xlink:href="#DejaVuSans-63" x="879.199219"/>
       <use xlink:href="#DejaVuSans-61" x="934.179688"/>
      </g>
     </g>
    </g>
    <g id="xtick_2">
     <g id="text_2">
      <!-- Campylobacter jejuni -->
      <g style="fill: #262626" transform="translate(266.856406 325.442281) scale(0.11 -0.11)">
       <defs>
        <path id="DejaVuSans-43" d="M 4122 4306 
L 4122 3641 
Q 3803 3938 3442 4084 
Q 3081 4231 2675 4231 
Q 1875 4231 1450 3742 
Q 1025 3253 1025 2328 
Q 1025 1406 1450 917 
Q 1875 428 2675 428 
Q 3081 428 3442 575 
Q 3803 722 4122 1019 
L 4122 359 
Q 3791 134 3420 21 
Q 3050 -91 2638 -91 
Q 1578 -91 968 557 
Q 359 1206 359 2328 
Q 359 3453 968 4101 
Q 1578 4750 2638 4750 
Q 3056 4750 3426 4639 
Q 3797 4528 4122 4306 
z
" transform="scale(0.015625)"/>
        <path id="DejaVuSans-70" d="M 1159 525 
L 1159 -1331 
L 581 -1331 
L 581 3500 
L 1159 3500 
L 1159 2969 
Q 1341 3281 1617 3432 
Q 1894 3584 2278 3584 
Q 2916 3584 3314 3078 
Q 3713 2572 3713 1747 
Q 3713 922 3314 415 
Q 2916 -91 2278 -91 
Q 1894 -91 1617 61 
Q 1341 213 1159 525 
z
M 3116 1747 
Q 3116 2381 2855 2742 
Q 2594 3103 2138 3103 
Q 1681 3103 1420 2742 
Q 1159 2381 1159 1747 
Q 1159 1113 1420 752 
Q 1681 391 2138 391 
Q 2594 391 2855 752 
Q 3116 1113 3116 1747 
z
" transform="scale(0.015625)"/>
        <path id="DejaVuSans-79" d="M 2059 -325 
Q 1816 -950 1584 -1140 
Q 1353 -1331 966 -1331 
L 506 -1331 
L 506 -850 
L 844 -850 
Q 1081 -850 1212 -737 
Q 1344 -625 1503 -206 
L 1606 56 
L 191 3500 
L 800 3500 
L 1894 763 
L 2988 3500 
L 3597 3500 
L 2059 -325 
z
" transform="scale(0.015625)"/>
        <path id="DejaVuSans-62" d="M 3116 1747 
Q 3116 2381 2855 2742 
Q 2594 3103 2138 3103 
Q 1681 3103 1420 2742 
Q 1159 2381 1159 1747 
Q 1159 1113 1420 752 
Q 1681 391 2138 391 
Q 2594 391 2855 752 
Q 3116 1113 3116 1747 
z
M 1159 2969 
Q 1341 3281 1617 3432 
Q 1894 3584 2278 3584 
Q 2916 3584 3314 3078 
Q 3713 2572 3713 1747 
Q 3713 922 3314 415 
Q 2916 -91 2278 -91 
Q 1894 -91 1617 61 
Q 1341 213 1159 525 
L 1159 0 
L 581 0 
L 581 4863 
L 1159 4863 
L 1159 2969 
z
" transform="scale(0.015625)"/>
        <path id="DejaVuSans-6a" d="M 603 3500 
L 1178 3500 
L 1178 -63 
Q 1178 -731 923 -1031 
Q 669 -1331 103 -1331 
L -116 -1331 
L -116 -844 
L 38 -844 
Q 366 -844 484 -692 
Q 603 -541 603 -63 
L 603 3500 
z
M 603 4863 
L 1178 4863 
L 1178 4134 
L 603 4134 
L 603 4863 
z
" transform="scale(0.015625)"/>
        <path id="DejaVuSans-75" d="M 544 1381 
L 544 3500 
L 1119 3500 
L 1119 1403 
Q 1119 906 1312 657 
Q 1506 409 1894 409 
Q 2359 409 2629 706 
Q 2900 1003 2900 1516 
L 2900 3500 
L 3475 3500 
L 3475 0 
L 2900 0 
L 2900 538 
Q 2691 219 2414 64 
Q 2138 -91 1772 -91 
Q 1169 -91 856 284 
Q 544 659 544 1381 
z
M 1991 3584 
L 1991 3584 
z
" transform="scale(0.015625)"/>
       </defs>
       <use xlink:href="#DejaVuSans-43"/>
       <use xlink:href="#DejaVuSans-61" x="69.824219"/>
       <use xlink:href="#DejaVuSans-6d" x="131.103516"/>
       <use xlink:href="#DejaVuSans-70" x="228.515625"/>
       <use xlink:href="#DejaVuSans-79" x="291.992188"/>
       <use xlink:href="#DejaVuSans-6c" x="351.171875"/>
       <use xlink:href="#DejaVuSans-6f" x="378.955078"/>
       <use xlink:href="#DejaVuSans-62" x="440.136719"/>
       <use xlink:href="#DejaVuSans-61" x="503.613281"/>
       <use xlink:href="#DejaVuSans-63" x="564.892578"/>
       <use xlink:href="#DejaVuSans-74" x="619.873047"/>
       <use xlink:href="#DejaVuSans-65" x="659.082031"/>
       <use xlink:href="#DejaVuSans-72" x="720.605469"/>
       <use xlink:href="#DejaVuSans-20" x="761.71875"/>
       <use xlink:href="#DejaVuSans-6a" x="793.505859"/>
       <use xlink:href="#DejaVuSans-65" x="821.289062"/>
       <use xlink:href="#DejaVuSans-6a" x="882.8125"/>
       <use xlink:href="#DejaVuSans-75" x="910.595703"/>
       <use xlink:href="#DejaVuSans-6e" x="973.974609"/>
       <use xlink:href="#DejaVuSans-69" x="1037.353516"/>
      </g>
     </g>
    </g>
   </g>
   <g id="matplotlib.axis_2">
    <g id="ytick_1">
     <g id="line2d_1">
      <path d="M 57.6 286.770162 
L 414.72 286.770162 
" clip-path="url(#pd30e59b9fb)" style="fill: none; stroke: #ffffff; stroke-linecap: round"/>
     </g>
     <g id="text_3">
      <!-- 100 -->
      <g style="fill: #262626" transform="translate(27.10375 290.949303) scale(0.11 -0.11)">
       <defs>
        <path id="DejaVuSans-31" d="M 794 531 
L 1825 531 
L 1825 4091 
L 703 3866 
L 703 4441 
L 1819 4666 
L 2450 4666 
L 2450 531 
L 3481 531 
L 3481 0 
L 794 0 
L 794 531 
z
" transform="scale(0.015625)"/>
        <path id="DejaVuSans-30" d="M 2034 4250 
Q 1547 4250 1301 3770 
Q 1056 3291 1056 2328 
Q 1056 1369 1301 889 
Q 1547 409 2034 409 
Q 2525 409 2770 889 
Q 3016 1369 3016 2328 
Q 3016 3291 2770 3770 
Q 2525 4250 2034 4250 
z
M 2034 4750 
Q 2819 4750 3233 4129 
Q 3647 3509 3647 2328 
Q 3647 1150 3233 529 
Q 2819 -91 2034 -91 
Q 1250 -91 836 529 
Q 422 1150 422 2328 
Q 422 3509 836 4129 
Q 1250 4750 2034 4750 
z
" transform="scale(0.015625)"/>
       </defs>
       <use xlink:href="#DejaVuSans-31"/>
       <use xlink:href="#DejaVuSans-30" x="63.623047"/>
       <use xlink:href="#DejaVuSans-30" x="127.246094"/>
      </g>
     </g>
    </g>
    <g id="ytick_2">
     <g id="line2d_2">
      <path d="M 57.6 243.180973 
L 414.72 243.180973 
" clip-path="url(#pd30e59b9fb)" style="fill: none; stroke: #ffffff; stroke-linecap: round"/>
     </g>
     <g id="text_4">
      <!-- 120 -->
      <g style="fill: #262626" transform="translate(27.10375 247.360114) scale(0.11 -0.11)">
       <defs>
        <path id="DejaVuSans-32" d="M 1228 531 
L 3431 531 
L 3431 0 
L 469 0 
L 469 531 
Q 828 903 1448 1529 
Q 2069 2156 2228 2338 
Q 2531 2678 2651 2914 
Q 2772 3150 2772 3378 
Q 2772 3750 2511 3984 
Q 2250 4219 1831 4219 
Q 1534 4219 1204 4116 
Q 875 4013 500 3803 
L 500 4441 
Q 881 4594 1212 4672 
Q 1544 4750 1819 4750 
Q 2544 4750 2975 4387 
Q 3406 4025 3406 3419 
Q 3406 3131 3298 2873 
Q 3191 2616 2906 2266 
Q 2828 2175 2409 1742 
Q 1991 1309 1228 531 
z
" transform="scale(0.015625)"/>
       </defs>
       <use xlink:href="#DejaVuSans-31"/>
       <use xlink:href="#DejaVuSans-32" x="63.623047"/>
       <use xlink:href="#DejaVuSans-30" x="127.246094"/>
      </g>
     </g>
    </g>
    <g id="ytick_3">
     <g id="line2d_3">
      <path d="M 57.6 199.591784 
L 414.72 199.591784 
" clip-path="url(#pd30e59b9fb)" style="fill: none; stroke: #ffffff; stroke-linecap: round"/>
     </g>
     <g id="text_5">
      <!-- 140 -->
      <g style="fill: #262626" transform="translate(27.10375 203.770924) scale(0.11 -0.11)">
       <defs>
        <path id="DejaVuSans-34" d="M 2419 4116 
L 825 1625 
L 2419 1625 
L 2419 4116 
z
M 2253 4666 
L 3047 4666 
L 3047 1625 
L 3713 1625 
L 3713 1100 
L 3047 1100 
L 3047 0 
L 2419 0 
L 2419 1100 
L 313 1100 
L 313 1709 
L 2253 4666 
z
" transform="scale(0.015625)"/>
       </defs>
       <use xlink:href="#DejaVuSans-31"/>
       <use xlink:href="#DejaVuSans-34" x="63.623047"/>
       <use xlink:href="#DejaVuSans-30" x="127.246094"/>
      </g>
     </g>
    </g>
    <g id="ytick_4">
     <g id="line2d_4">
      <path d="M 57.6 156.002595 
L 414.72 156.002595 
" clip-path="url(#pd30e59b9fb)" style="fill: none; stroke: #ffffff; stroke-linecap: round"/>
     </g>
     <g id="text_6">
      <!-- 160 -->
      <g style="fill: #262626" transform="translate(27.10375 160.181735) scale(0.11 -0.11)">
       <defs>
        <path id="DejaVuSans-36" d="M 2113 2584 
Q 1688 2584 1439 2293 
Q 1191 2003 1191 1497 
Q 1191 994 1439 701 
Q 1688 409 2113 409 
Q 2538 409 2786 701 
Q 3034 994 3034 1497 
Q 3034 2003 2786 2293 
Q 2538 2584 2113 2584 
z
M 3366 4563 
L 3366 3988 
Q 3128 4100 2886 4159 
Q 2644 4219 2406 4219 
Q 1781 4219 1451 3797 
Q 1122 3375 1075 2522 
Q 1259 2794 1537 2939 
Q 1816 3084 2150 3084 
Q 2853 3084 3261 2657 
Q 3669 2231 3669 1497 
Q 3669 778 3244 343 
Q 2819 -91 2113 -91 
Q 1303 -91 875 529 
Q 447 1150 447 2328 
Q 447 3434 972 4092 
Q 1497 4750 2381 4750 
Q 2619 4750 2861 4703 
Q 3103 4656 3366 4563 
z
" transform="scale(0.015625)"/>
       </defs>
       <use xlink:href="#DejaVuSans-31"/>
       <use xlink:href="#DejaVuSans-36" x="63.623047"/>
       <use xlink:href="#DejaVuSans-30" x="127.246094"/>
      </g>
     </g>
    </g>
    <g id="ytick_5">
     <g id="line2d_5">
      <path d="M 57.6 112.413405 
L 414.72 112.413405 
" clip-path="url(#pd30e59b9fb)" style="fill: none; stroke: #ffffff; stroke-linecap: round"/>
     </g>
     <g id="text_7">
      <!-- 180 -->
      <g style="fill: #262626" transform="translate(27.10375 116.592546) scale(0.11 -0.11)">
       <defs>
        <path id="DejaVuSans-38" d="M 2034 2216 
Q 1584 2216 1326 1975 
Q 1069 1734 1069 1313 
Q 1069 891 1326 650 
Q 1584 409 2034 409 
Q 2484 409 2743 651 
Q 3003 894 3003 1313 
Q 3003 1734 2745 1975 
Q 2488 2216 2034 2216 
z
M 1403 2484 
Q 997 2584 770 2862 
Q 544 3141 544 3541 
Q 544 4100 942 4425 
Q 1341 4750 2034 4750 
Q 2731 4750 3128 4425 
Q 3525 4100 3525 3541 
Q 3525 3141 3298 2862 
Q 3072 2584 2669 2484 
Q 3125 2378 3379 2068 
Q 3634 1759 3634 1313 
Q 3634 634 3220 271 
Q 2806 -91 2034 -91 
Q 1263 -91 848 271 
Q 434 634 434 1313 
Q 434 1759 690 2068 
Q 947 2378 1403 2484 
z
M 1172 3481 
Q 1172 3119 1398 2916 
Q 1625 2713 2034 2713 
Q 2441 2713 2670 2916 
Q 2900 3119 2900 3481 
Q 2900 3844 2670 4047 
Q 2441 4250 2034 4250 
Q 1625 4250 1398 4047 
Q 1172 3844 1172 3481 
z
" transform="scale(0.015625)"/>
       </defs>
       <use xlink:href="#DejaVuSans-31"/>
       <use xlink:href="#DejaVuSans-38" x="63.623047"/>
       <use xlink:href="#DejaVuSans-30" x="127.246094"/>
      </g>
     </g>
    </g>
    <g id="ytick_6">
     <g id="line2d_6">
      <path d="M 57.6 68.824216 
L 414.72 68.824216 
" clip-path="url(#pd30e59b9fb)" style="fill: none; stroke: #ffffff; stroke-linecap: round"/>
     </g>
     <g id="text_8">
      <!-- 200 -->
      <g style="fill: #262626" transform="translate(27.10375 73.003357) scale(0.11 -0.11)">
       <use xlink:href="#DejaVuSans-32"/>
       <use xlink:href="#DejaVuSans-30" x="63.623047"/>
       <use xlink:href="#DejaVuSans-30" x="127.246094"/>
      </g>
     </g>
    </g>
    <g id="text_9">
     <!-- Number of Identified VF Genes -->
     <g style="fill: #262626" transform="translate(20.608125 266.930813) rotate(-90) scale(0.12 -0.12)">
      <defs>
       <path id="DejaVuSans-4e" d="M 628 4666 
L 1478 4666 
L 3547 763 
L 3547 4666 
L 4159 4666 
L 4159 0 
L 3309 0 
L 1241 3903 
L 1241 0 
L 628 0 
L 628 4666 
z
" transform="scale(0.015625)"/>
       <path id="DejaVuSans-66" d="M 2375 4863 
L 2375 4384 
L 1825 4384 
Q 1516 4384 1395 4259 
Q 1275 4134 1275 3809 
L 1275 3500 
L 2222 3500 
L 2222 3053 
L 1275 3053 
L 1275 0 
L 697 0 
L 697 3053 
L 147 3053 
L 147 3500 
L 697 3500 
L 697 3744 
Q 697 4328 969 4595 
Q 1241 4863 1831 4863 
L 2375 4863 
z
" transform="scale(0.015625)"/>
       <path id="DejaVuSans-49" d="M 628 4666 
L 1259 4666 
L 1259 0 
L 628 0 
L 628 4666 
z
" transform="scale(0.015625)"/>
       <path id="DejaVuSans-64" d="M 2906 2969 
L 2906 4863 
L 3481 4863 
L 3481 0 
L 2906 0 
L 2906 525 
Q 2725 213 2448 61 
Q 2172 -91 1784 -91 
Q 1150 -91 751 415 
Q 353 922 353 1747 
Q 353 2572 751 3078 
Q 1150 3584 1784 3584 
Q 2172 3584 2448 3432 
Q 2725 3281 2906 2969 
z
M 947 1747 
Q 947 1113 1208 752 
Q 1469 391 1925 391 
Q 2381 391 2643 752 
Q 2906 1113 2906 1747 
Q 2906 2381 2643 2742 
Q 2381 3103 1925 3103 
Q 1469 3103 1208 2742 
Q 947 2381 947 1747 
z
" transform="scale(0.015625)"/>
       <path id="DejaVuSans-56" d="M 1831 0 
L 50 4666 
L 709 4666 
L 2188 738 
L 3669 4666 
L 4325 4666 
L 2547 0 
L 1831 0 
z
" transform="scale(0.015625)"/>
       <path id="DejaVuSans-46" d="M 628 4666 
L 3309 4666 
L 3309 4134 
L 1259 4134 
L 1259 2759 
L 3109 2759 
L 3109 2228 
L 1259 2228 
L 1259 0 
L 628 0 
L 628 4666 
z
" transform="scale(0.015625)"/>
       <path id="DejaVuSans-47" d="M 3809 666 
L 3809 1919 
L 2778 1919 
L 2778 2438 
L 4434 2438 
L 4434 434 
Q 4069 175 3628 42 
Q 3188 -91 2688 -91 
Q 1594 -91 976 548 
Q 359 1188 359 2328 
Q 359 3472 976 4111 
Q 1594 4750 2688 4750 
Q 3144 4750 3555 4637 
Q 3966 4525 4313 4306 
L 4313 3634 
Q 3963 3931 3569 4081 
Q 3175 4231 2741 4231 
Q 1884 4231 1454 3753 
Q 1025 3275 1025 2328 
Q 1025 1384 1454 906 
Q 1884 428 2741 428 
Q 3075 428 3337 486 
Q 3600 544 3809 666 
z
" transform="scale(0.015625)"/>
       <path id="DejaVuSans-73" d="M 2834 3397 
L 2834 2853 
Q 2591 2978 2328 3040 
Q 2066 3103 1784 3103 
Q 1356 3103 1142 2972 
Q 928 2841 928 2578 
Q 928 2378 1081 2264 
Q 1234 2150 1697 2047 
L 1894 2003 
Q 2506 1872 2764 1633 
Q 3022 1394 3022 966 
Q 3022 478 2636 193 
Q 2250 -91 1575 -91 
Q 1294 -91 989 -36 
Q 684 19 347 128 
L 347 722 
Q 666 556 975 473 
Q 1284 391 1588 391 
Q 1994 391 2212 530 
Q 2431 669 2431 922 
Q 2431 1156 2273 1281 
Q 2116 1406 1581 1522 
L 1381 1569 
Q 847 1681 609 1914 
Q 372 2147 372 2553 
Q 372 3047 722 3315 
Q 1072 3584 1716 3584 
Q 2034 3584 2315 3537 
Q 2597 3491 2834 3397 
z
" transform="scale(0.015625)"/>
      </defs>
      <use xlink:href="#DejaVuSans-4e"/>
      <use xlink:href="#DejaVuSans-75" x="74.804688"/>
      <use xlink:href="#DejaVuSans-6d" x="138.183594"/>
      <use xlink:href="#DejaVuSans-62" x="235.595703"/>
      <use xlink:href="#DejaVuSans-65" x="299.072266"/>
      <use xlink:href="#DejaVuSans-72" x="360.595703"/>
      <use xlink:href="#DejaVuSans-20" x="401.708984"/>
      <use xlink:href="#DejaVuSans-6f" x="433.496094"/>
      <use xlink:href="#DejaVuSans-66" x="494.677734"/>
      <use xlink:href="#DejaVuSans-20" x="529.882812"/>
      <use xlink:href="#DejaVuSans-49" x="561.669922"/>
      <use xlink:href="#DejaVuSans-64" x="591.162109"/>
      <use xlink:href="#DejaVuSans-65" x="654.638672"/>
      <use xlink:href="#DejaVuSans-6e" x="716.162109"/>
      <use xlink:href="#DejaVuSans-74" x="779.541016"/>
      <use xlink:href="#DejaVuSans-69" x="818.75"/>
      <use xlink:href="#DejaVuSans-66" x="846.533203"/>
      <use xlink:href="#DejaVuSans-69" x="881.738281"/>
      <use xlink:href="#DejaVuSans-65" x="909.521484"/>
      <use xlink:href="#DejaVuSans-64" x="971.044922"/>
      <use xlink:href="#DejaVuSans-20" x="1034.521484"/>
      <use xlink:href="#DejaVuSans-56" x="1066.308594"/>
      <use xlink:href="#DejaVuSans-46" x="1134.716797"/>
      <use xlink:href="#DejaVuSans-20" x="1192.236328"/>
      <use xlink:href="#DejaVuSans-47" x="1224.023438"/>
      <use xlink:href="#DejaVuSans-65" x="1301.513672"/>
      <use xlink:href="#DejaVuSans-6e" x="1363.037109"/>
      <use xlink:href="#DejaVuSans-65" x="1426.416016"/>
      <use xlink:href="#DejaVuSans-73" x="1487.939453"/>
     </g>
    </g>
   </g>
   <g id="PolyCollection_1">
    <defs>
     <path id="m6831df8a7c" d="M 147.443804 -191.123954 
L 146.316196 -191.123954 
L 146.190915 -192.391985 
L 146.046681 -193.660015 
L 145.882886 -194.928046 
L 145.699481 -196.196076 
L 145.497083 -197.464106 
L 145.277069 -198.732137 
L 145.041648 -200.000167 
L 144.793883 -201.268198 
L 144.537686 -202.536228 
L 144.277749 -203.804258 
L 144.019432 -205.072289 
L 143.7686 -206.340319 
L 143.531402 -207.60835 
L 143.314033 -208.87638 
L 143.122454 -210.14441 
L 142.962114 -211.412441 
L 142.837679 -212.680471 
L 142.752785 -213.948502 
L 142.709834 -215.216532 
L 142.709849 -216.484562 
L 142.752392 -217.752593 
L 142.835554 -219.020623 
L 142.95602 -220.288654 
L 143.109189 -221.556684 
L 143.289364 -222.824714 
L 143.48998 -224.092745 
L 143.703852 -225.360775 
L 143.923453 -226.628806 
L 144.141171 -227.896836 
L 144.349558 -229.164867 
L 144.541551 -230.432897 
L 144.710653 -231.700927 
L 144.851073 -232.968958 
L 144.957828 -234.236988 
L 145.026799 -235.505019 
L 145.054748 -236.773049 
L 145.039299 -238.041079 
L 144.978887 -239.30911 
L 144.872676 -240.57714 
L 144.720446 -241.845171 
L 144.522459 -243.113201 
L 144.279293 -244.381231 
L 143.991661 -245.649262 
L 143.660205 -246.917292 
L 143.285283 -248.185323 
L 142.866751 -249.453353 
L 142.403763 -250.721383 
L 141.894591 -251.989414 
L 141.33651 -253.257444 
L 140.725748 -254.525475 
L 140.05753 -255.793505 
L 139.326249 -257.061535 
L 138.525754 -258.329566 
L 137.649777 -259.597596 
L 136.692499 -260.865627 
L 135.649213 -262.133657 
L 134.517075 -263.401688 
L 133.295896 -264.669718 
L 131.988898 -265.937748 
L 130.603408 -267.205779 
L 129.151379 -268.473809 
L 127.649714 -269.74184 
L 126.120309 -271.00987 
L 124.589793 -272.2779 
L 123.088929 -273.545931 
L 121.651692 -274.813961 
L 120.314055 -276.081992 
L 119.112527 -277.350022 
L 118.082535 -278.618052 
L 117.256746 -279.886083 
L 116.663431 -281.154113 
L 116.324987 -282.422144 
L 116.256721 -283.690174 
L 116.465977 -284.958204 
L 116.951669 -286.226235 
L 117.704264 -287.494265 
L 118.706201 -288.762296 
L 119.932718 -290.030326 
L 121.353041 -291.298356 
L 122.931831 -292.566387 
L 124.630804 -293.834417 
L 126.410407 -295.102448 
L 128.231463 -296.370478 
L 130.056665 -297.638508 
L 131.851867 -298.906539 
L 133.587099 -300.174569 
L 135.237274 -301.4426 
L 136.782595 -302.71063 
L 138.20865 -303.978661 
L 139.506251 -305.246691 
L 140.671042 -306.514721 
L 141.702945 -307.782752 
L 142.605489 -309.050782 
L 143.38509 -310.318813 
L 144.050313 -311.586843 
L 144.611174 -312.854873 
L 145.078509 -314.122904 
L 145.463427 -315.390934 
L 145.776862 -316.658965 
L 147.983138 -316.658965 
L 147.983138 -316.658965 
L 148.296573 -315.390934 
L 148.681491 -314.122904 
L 149.148826 -312.854873 
L 149.709687 -311.586843 
L 150.37491 -310.318813 
L 151.154511 -309.050782 
L 152.057055 -307.782752 
L 153.088958 -306.514721 
L 154.253749 -305.246691 
L 155.55135 -303.978661 
L 156.977405 -302.71063 
L 158.522726 -301.4426 
L 160.172901 -300.174569 
L 161.908133 -298.906539 
L 163.703335 -297.638508 
L 165.528537 -296.370478 
L 167.349593 -295.102448 
L 169.129196 -293.834417 
L 170.828169 -292.566387 
L 172.406959 -291.298356 
L 173.827282 -290.030326 
L 175.053799 -288.762296 
L 176.055736 -287.494265 
L 176.808331 -286.226235 
L 177.294023 -284.958204 
L 177.503279 -283.690174 
L 177.435013 -282.422144 
L 177.096569 -281.154113 
L 176.503254 -279.886083 
L 175.677465 -278.618052 
L 174.647473 -277.350022 
L 173.445945 -276.081992 
L 172.108308 -274.813961 
L 170.671071 -273.545931 
L 169.170207 -272.2779 
L 167.639691 -271.00987 
L 166.110286 -269.74184 
L 164.608621 -268.473809 
L 163.156592 -267.205779 
L 161.771102 -265.937748 
L 160.464104 -264.669718 
L 159.242925 -263.401688 
L 158.110787 -262.133657 
L 157.067501 -260.865627 
L 156.110223 -259.597596 
L 155.234246 -258.329566 
L 154.433751 -257.061535 
L 153.70247 -255.793505 
L 153.034252 -254.525475 
L 152.42349 -253.257444 
L 151.865409 -251.989414 
L 151.356237 -250.721383 
L 150.893249 -249.453353 
L 150.474717 -248.185323 
L 150.099795 -246.917292 
L 149.768339 -245.649262 
L 149.480707 -244.381231 
L 149.237541 -243.113201 
L 149.039554 -241.845171 
L 148.887324 -240.57714 
L 148.781113 -239.30911 
L 148.720701 -238.041079 
L 148.705252 -236.773049 
L 148.733201 -235.505019 
L 148.802172 -234.236988 
L 148.908927 -232.968958 
L 149.049347 -231.700927 
L 149.218449 -230.432897 
L 149.410442 -229.164867 
L 149.618829 -227.896836 
L 149.836547 -226.628806 
L 150.056148 -225.360775 
L 150.27002 -224.092745 
L 150.470636 -222.824714 
L 150.650811 -221.556684 
L 150.80398 -220.288654 
L 150.924446 -219.020623 
L 151.007608 -217.752593 
L 151.050151 -216.484562 
L 151.050166 -215.216532 
L 151.007215 -213.948502 
L 150.922321 -212.680471 
L 150.797886 -211.412441 
L 150.637546 -210.14441 
L 150.445967 -208.87638 
L 150.228598 -207.60835 
L 149.9914 -206.340319 
L 149.740568 -205.072289 
L 149.482251 -203.804258 
L 149.222314 -202.536228 
L 148.966117 -201.268198 
L 148.718352 -200.000167 
L 148.482931 -198.732137 
L 148.262917 -197.464106 
L 148.060519 -196.196076 
L 147.877114 -194.928046 
L 147.713319 -193.660015 
L 147.569085 -192.391985 
L 147.443804 -191.123954 
z
" style="stroke: #4c4c4c; stroke-width: 1.5"/>
    </defs>
    <g clip-path="url(#pd30e59b9fb)">
     <use xlink:href="#m6831df8a7c" x="0" y="345.6" style="fill: #5875a4; stroke: #4c4c4c; stroke-width: 1.5"/>
    </g>
   </g>
   <g id="PolyCollection_2">
    <defs>
     <path id="m39ba12f3a1" d="M 335.007401 -39.84798 
L 315.872599 -39.84798 
L 313.510724 -40.429584 
L 310.755308 -41.011189 
L 307.593764 -41.592793 
L 304.027869 -42.174398 
L 300.07674 -42.756003 
L 295.779216 -43.337607 
L 291.195325 -43.919212 
L 286.406556 -44.500816 
L 281.514711 -45.082421 
L 276.639207 -45.664025 
L 271.912838 -46.24563 
L 267.476145 -46.827234 
L 263.470689 -47.408839 
L 260.031662 -47.990444 
L 257.280356 -48.572048 
L 255.317075 -49.153653 
L 254.215071 -49.735257 
L 254.016 -50.316862 
L 254.727312 -50.898466 
L 256.321781 -51.480071 
L 258.739234 -52.061676 
L 261.890307 -52.64328 
L 265.661922 -53.224885 
L 269.92399 -53.806489 
L 274.536805 -54.388094 
L 279.358533 -54.969698 
L 284.252232 -55.551303 
L 289.091951 -56.132907 
L 293.767518 -56.714512 
L 298.187839 -57.296117 
L 302.282616 -57.877721 
L 306.002567 -58.459326 
L 309.318337 -59.04093 
L 312.218359 -59.622535 
L 314.705968 -60.204139 
L 316.796115 -60.785744 
L 318.511953 -61.367348 
L 319.881573 -61.948953 
L 320.935099 -62.530558 
L 321.702277 -63.112162 
L 322.210653 -63.693767 
L 322.48437 -64.275371 
L 322.543576 -64.856976 
L 322.404397 -65.43858 
L 322.079396 -66.020185 
L 321.578442 -66.601789 
L 320.909872 -67.183394 
L 320.081831 -67.764999 
L 319.103685 -68.346603 
L 317.987373 -68.928208 
L 316.748577 -69.509812 
L 315.407617 -70.091417 
L 313.989946 -70.673021 
L 312.5262 -71.254626 
L 311.051747 -71.83623 
L 309.605735 -72.417835 
L 308.22968 -72.99944 
L 306.965681 -73.581044 
L 305.854375 -74.162649 
L 304.932795 -74.744253 
L 304.232299 -75.325858 
L 303.776745 -75.907462 
L 303.581061 -76.489067 
L 303.650358 -77.070671 
L 303.979638 -77.652276 
L 304.554161 -78.233881 
L 305.350404 -78.815485 
L 306.337565 -79.39709 
L 307.479454 -79.978694 
L 308.73664 -80.560299 
L 310.068658 -81.141903 
L 311.436121 -81.723508 
L 312.802589 -82.305113 
L 314.136066 -82.886717 
L 315.410064 -83.468322 
L 316.604186 -84.049926 
L 317.704265 -84.631531 
L 318.702081 -85.213135 
L 319.594754 -85.79474 
L 320.383899 -86.376344 
L 321.07465 -86.957949 
L 321.674636 -87.539554 
L 322.193013 -88.121158 
L 322.639594 -88.702763 
L 323.024144 -89.284367 
L 323.355843 -89.865972 
L 323.642925 -90.447576 
L 323.89249 -91.029181 
L 324.110445 -91.610785 
L 324.301561 -92.19239 
L 324.4696 -92.773995 
L 324.617481 -93.355599 
L 324.747472 -93.937204 
L 324.86136 -94.518808 
L 324.960611 -95.100413 
L 325.046493 -95.682017 
L 325.120164 -96.263622 
L 325.182736 -96.845226 
L 325.235304 -97.426831 
L 325.644696 -97.426831 
L 325.644696 -97.426831 
L 325.697264 -96.845226 
L 325.759836 -96.263622 
L 325.833507 -95.682017 
L 325.919389 -95.100413 
L 326.01864 -94.518808 
L 326.132528 -93.937204 
L 326.262519 -93.355599 
L 326.4104 -92.773995 
L 326.578439 -92.19239 
L 326.769555 -91.610785 
L 326.98751 -91.029181 
L 327.237075 -90.447576 
L 327.524157 -89.865972 
L 327.855856 -89.284367 
L 328.240406 -88.702763 
L 328.686987 -88.121158 
L 329.205364 -87.539554 
L 329.80535 -86.957949 
L 330.496101 -86.376344 
L 331.285246 -85.79474 
L 332.177919 -85.213135 
L 333.175735 -84.631531 
L 334.275814 -84.049926 
L 335.469936 -83.468322 
L 336.743934 -82.886717 
L 338.077411 -82.305113 
L 339.443879 -81.723508 
L 340.811342 -81.141903 
L 342.14336 -80.560299 
L 343.400546 -79.978694 
L 344.542435 -79.39709 
L 345.529596 -78.815485 
L 346.325839 -78.233881 
L 346.900362 -77.652276 
L 347.229642 -77.070671 
L 347.298939 -76.489067 
L 347.103255 -75.907462 
L 346.647701 -75.325858 
L 345.947205 -74.744253 
L 345.025625 -74.162649 
L 343.914319 -73.581044 
L 342.65032 -72.99944 
L 341.274265 -72.417835 
L 339.828253 -71.83623 
L 338.3538 -71.254626 
L 336.890054 -70.673021 
L 335.472383 -70.091417 
L 334.131423 -69.509812 
L 332.892627 -68.928208 
L 331.776315 -68.346603 
L 330.798169 -67.764999 
L 329.970128 -67.183394 
L 329.301558 -66.601789 
L 328.800604 -66.020185 
L 328.475603 -65.43858 
L 328.336424 -64.856976 
L 328.39563 -64.275371 
L 328.669347 -63.693767 
L 329.177723 -63.112162 
L 329.944901 -62.530558 
L 330.998427 -61.948953 
L 332.368047 -61.367348 
L 334.083885 -60.785744 
L 336.174032 -60.204139 
L 338.661641 -59.622535 
L 341.561663 -59.04093 
L 344.877433 -58.459326 
L 348.597384 -57.877721 
L 352.692161 -57.296117 
L 357.112482 -56.714512 
L 361.788049 -56.132907 
L 366.627768 -55.551303 
L 371.521467 -54.969698 
L 376.343195 -54.388094 
L 380.95601 -53.806489 
L 385.218078 -53.224885 
L 388.989693 -52.64328 
L 392.140766 -52.061676 
L 394.558219 -51.480071 
L 396.152688 -50.898466 
L 396.864 -50.316862 
L 396.664929 -49.735257 
L 395.562925 -49.153653 
L 393.599644 -48.572048 
L 390.848338 -47.990444 
L 387.409311 -47.408839 
L 383.403855 -46.827234 
L 378.967162 -46.24563 
L 374.240793 -45.664025 
L 369.365289 -45.082421 
L 364.473444 -44.500816 
L 359.684675 -43.919212 
L 355.100784 -43.337607 
L 350.80326 -42.756003 
L 346.852131 -42.174398 
L 343.286236 -41.592793 
L 340.124692 -41.011189 
L 337.369276 -40.429584 
L 335.007401 -39.84798 
z
" style="stroke: #4c4c4c; stroke-width: 1.5"/>
    </defs>
    <g clip-path="url(#pd30e59b9fb)">
     <use xlink:href="#m39ba12f3a1" x="0" y="345.6" style="fill: #cc8963; stroke: #4c4c4c; stroke-width: 1.5"/>
    </g>
   </g>
   <g id="line2d_7">
    <path d="M 146.88 73.183135 
L 146.88 53.568 
" clip-path="url(#pd30e59b9fb)" style="fill: none; stroke: #4c4c4c; stroke-width: 1.5; stroke-linecap: round"/>
   </g>
   <g id="line2d_8">
    <path d="M 146.88 67.734486 
L 146.88 61.196108 
" clip-path="url(#pd30e59b9fb)" style="fill: none; stroke: #4c4c4c; stroke-width: 4.5; stroke-linecap: round"/>
   </g>
   <g id="line2d_9">
    <path d="M 325.44 295.488 
L 325.44 293.308541 
" clip-path="url(#pd30e59b9fb)" style="fill: none; stroke: #4c4c4c; stroke-width: 1.5; stroke-linecap: round"/>
   </g>
   <g id="line2d_10">
    <path d="M 325.44 295.488 
L 325.44 293.308541 
" clip-path="url(#pd30e59b9fb)" style="fill: none; stroke: #4c4c4c; stroke-width: 4.5; stroke-linecap: round"/>
   </g>
   <g id="patch_3">
    <path d="M 57.6 307.584 
L 57.6 41.472 
" style="fill: none; stroke: #ffffff; stroke-width: 1.25; stroke-linejoin: miter; stroke-linecap: square"/>
   </g>
   <g id="patch_4">
    <path d="M 414.72 307.584 
L 414.72 41.472 
" style="fill: none; stroke: #ffffff; stroke-width: 1.25; stroke-linejoin: miter; stroke-linecap: square"/>
   </g>
   <g id="patch_5">
    <path d="M 57.6 307.584 
L 414.72 307.584 
" style="fill: none; stroke: #ffffff; stroke-width: 1.25; stroke-linejoin: miter; stroke-linecap: square"/>
   </g>
   <g id="patch_6">
    <path d="M 57.6 41.472 
L 414.72 41.472 
" style="fill: none; stroke: #ffffff; stroke-width: 1.25; stroke-linejoin: miter; stroke-linecap: square"/>
   </g>
   <g id="PathCollection_1">
    <defs>
     <path id="m09d52074cd" d="M 0 1.5 
C 0.397805 1.5 0.77937 1.341951 1.06066 1.06066 
C 1.341951 0.77937 1.5 0.397805 1.5 0 
C 1.5 -0.397805 1.341951 -0.77937 1.06066 -1.06066 
C 0.77937 -1.341951 0.397805 -1.5 0 -1.5 
C -0.397805 -1.5 -0.77937 -1.341951 -1.06066 -1.06066 
C -1.341951 -0.77937 -1.5 -0.397805 -1.5 0 
C -1.5 0.397805 -1.341951 0.77937 -1.06066 1.06066 
C -0.77937 1.341951 -0.397805 1.5 0 1.5 
z
" style="stroke: #4c4c4c"/>
    </defs>
    <g clip-path="url(#pd30e59b9fb)">
     <use xlink:href="#m09d52074cd" x="146.88" y="62.285838" style="fill: #ffffff; stroke: #4c4c4c"/>
    </g>
   </g>
   <g id="PathCollection_2">
    <g clip-path="url(#pd30e59b9fb)">
     <use xlink:href="#m09d52074cd" x="325.44" y="295.488" style="fill: #ffffff; stroke: #4c4c4c"/>
    </g>
   </g>
   <g id="PathCollection_3">
    <defs>
     <path id="m2c13ba7731" d="M 0 2.5 
C 0.663008 2.5 1.29895 2.236584 1.767767 1.767767 
C 2.236584 1.29895 2.5 0.663008 2.5 0 
C 2.5 -0.663008 2.236584 -1.29895 1.767767 -1.767767 
C 1.29895 -2.236584 0.663008 -2.5 0 -2.5 
C -0.663008 -2.5 -1.29895 -2.236584 -1.767767 -1.767767 
C -2.236584 -1.29895 -2.5 -0.663008 -2.5 0 
C -2.5 0.663008 -2.236584 1.29895 -1.767767 1.767767 
C -1.29895 2.236584 -0.663008 2.5 0 2.5 
z
"/>
    </defs>
    <g clip-path="url(#pd30e59b9fb)">
     <use xlink:href="#m2c13ba7731" x="136.38" y="62.285838" style="fill: #ffffff"/>
     <use xlink:href="#m2c13ba7731" x="115.905005" y="60.106378" style="fill: #ffffff"/>
     <use xlink:href="#m2c13ba7731" x="146.88" y="53.568" style="fill: #ffffff"/>
     <use xlink:href="#m2c13ba7731" x="162.63" y="62.285838" style="fill: #ffffff"/>
     <use xlink:href="#m2c13ba7731" x="131.13" y="62.285838" style="fill: #ffffff"/>
     <use xlink:href="#m2c13ba7731" x="172.604995" y="60.106378" style="fill: #ffffff"/>
     <use xlink:href="#m2c13ba7731" x="157.38" y="62.285838" style="fill: #ffffff"/>
     <use xlink:href="#m2c13ba7731" x="125.88" y="62.285838" style="fill: #ffffff"/>
     <use xlink:href="#m2c13ba7731" x="141.63" y="129.849081" style="fill: #ffffff"/>
     <use xlink:href="#m2c13ba7731" x="167.88" y="62.285838" style="fill: #ffffff"/>
     <use xlink:href="#m2c13ba7731" x="146.88" y="129.849081" style="fill: #ffffff"/>
     <use xlink:href="#m2c13ba7731" x="152.13" y="62.285838" style="fill: #ffffff"/>
     <use xlink:href="#m2c13ba7731" x="121.155005" y="60.106378" style="fill: #ffffff"/>
     <use xlink:href="#m2c13ba7731" x="141.63" y="62.285838" style="fill: #ffffff"/>
     <use xlink:href="#m2c13ba7731" x="177.854995" y="60.106378" style="fill: #ffffff"/>
     <use xlink:href="#m2c13ba7731" x="146.88" y="62.285838" style="fill: #ffffff"/>
     <use xlink:href="#m2c13ba7731" x="146.88" y="88.439351" style="fill: #ffffff"/>
     <use xlink:href="#m2c13ba7731" x="144.308073" y="84.080432" style="fill: #ffffff"/>
     <use xlink:href="#m2c13ba7731" x="146.88" y="73.183135" style="fill: #ffffff"/>
    </g>
   </g>
   <g id="PathCollection_4">
    <g clip-path="url(#pd30e59b9fb)">
     <use xlink:href="#m2c13ba7731" x="325.44" y="295.488" style="fill: #ffffff"/>
     <use xlink:href="#m2c13ba7731" x="393.69" y="295.488" style="fill: #ffffff"/>
     <use xlink:href="#m2c13ba7731" x="254.016" y="295.488" style="fill: #ffffff"/>
     <use xlink:href="#m2c13ba7731" x="396.864" y="295.488" style="fill: #ffffff"/>
     <use xlink:href="#m2c13ba7731" x="254.016" y="295.488" style="fill: #ffffff"/>
     <use xlink:href="#m2c13ba7731" x="396.864" y="295.488" style="fill: #ffffff"/>
     <use xlink:href="#m2c13ba7731" x="254.016" y="295.488" style="fill: #ffffff"/>
     <use xlink:href="#m2c13ba7731" x="396.864" y="295.488" style="fill: #ffffff"/>
     <use xlink:href="#m2c13ba7731" x="254.016" y="295.488" style="fill: #ffffff"/>
     <use xlink:href="#m2c13ba7731" x="396.864" y="295.488" style="fill: #ffffff"/>
     <use xlink:href="#m2c13ba7731" x="254.016" y="295.488" style="fill: #ffffff"/>
     <use xlink:href="#m2c13ba7731" x="396.864" y="295.488" style="fill: #ffffff"/>
     <use xlink:href="#m2c13ba7731" x="254.016" y="295.488" style="fill: #ffffff"/>
     <use xlink:href="#m2c13ba7731" x="396.864" y="295.488" style="fill: #ffffff"/>
     <use xlink:href="#m2c13ba7731" x="396.864" y="295.488" style="fill: #ffffff"/>
     <use xlink:href="#m2c13ba7731" x="254.016" y="295.488" style="fill: #ffffff"/>
     <use xlink:href="#m2c13ba7731" x="396.864" y="295.488" style="fill: #ffffff"/>
     <use xlink:href="#m2c13ba7731" x="254.016" y="295.488" style="fill: #ffffff"/>
     <use xlink:href="#m2c13ba7731" x="396.864" y="295.488" style="fill: #ffffff"/>
     <use xlink:href="#m2c13ba7731" x="254.016" y="295.488" style="fill: #ffffff"/>
     <use xlink:href="#m2c13ba7731" x="254.016" y="295.488" style="fill: #ffffff"/>
     <use xlink:href="#m2c13ba7731" x="396.864" y="295.488" style="fill: #ffffff"/>
     <use xlink:href="#m2c13ba7731" x="257.19" y="295.488" style="fill: #ffffff"/>
     <use xlink:href="#m2c13ba7731" x="254.016" y="295.488" style="fill: #ffffff"/>
     <use xlink:href="#m2c13ba7731" x="262.44" y="295.488" style="fill: #ffffff"/>
     <use xlink:href="#m2c13ba7731" x="383.19" y="295.488" style="fill: #ffffff"/>
     <use xlink:href="#m2c13ba7731" x="320.19" y="295.488" style="fill: #ffffff"/>
     <use xlink:href="#m2c13ba7731" x="330.69" y="295.488" style="fill: #ffffff"/>
     <use xlink:href="#m2c13ba7731" x="314.94" y="295.488" style="fill: #ffffff"/>
     <use xlink:href="#m2c13ba7731" x="335.94" y="295.488" style="fill: #ffffff"/>
     <use xlink:href="#m2c13ba7731" x="309.69" y="295.488" style="fill: #ffffff"/>
     <use xlink:href="#m2c13ba7731" x="341.19" y="295.488" style="fill: #ffffff"/>
     <use xlink:href="#m2c13ba7731" x="388.44" y="295.488" style="fill: #ffffff"/>
     <use xlink:href="#m2c13ba7731" x="304.44" y="295.488" style="fill: #ffffff"/>
     <use xlink:href="#m2c13ba7731" x="346.44" y="295.488" style="fill: #ffffff"/>
     <use xlink:href="#m2c13ba7731" x="299.19" y="295.488" style="fill: #ffffff"/>
     <use xlink:href="#m2c13ba7731" x="351.69" y="295.488" style="fill: #ffffff"/>
     <use xlink:href="#m2c13ba7731" x="293.94" y="295.488" style="fill: #ffffff"/>
     <use xlink:href="#m2c13ba7731" x="356.94" y="295.488" style="fill: #ffffff"/>
     <use xlink:href="#m2c13ba7731" x="288.69" y="295.488" style="fill: #ffffff"/>
     <use xlink:href="#m2c13ba7731" x="362.19" y="295.488" style="fill: #ffffff"/>
     <use xlink:href="#m2c13ba7731" x="283.44" y="295.488" style="fill: #ffffff"/>
     <use xlink:href="#m2c13ba7731" x="367.44" y="295.488" style="fill: #ffffff"/>
     <use xlink:href="#m2c13ba7731" x="278.19" y="295.488" style="fill: #ffffff"/>
     <use xlink:href="#m2c13ba7731" x="372.69" y="295.488" style="fill: #ffffff"/>
     <use xlink:href="#m2c13ba7731" x="272.94" y="295.488" style="fill: #ffffff"/>
     <use xlink:href="#m2c13ba7731" x="377.94" y="295.488" style="fill: #ffffff"/>
     <use xlink:href="#m2c13ba7731" x="267.69" y="295.488" style="fill: #ffffff"/>
     <use xlink:href="#m2c13ba7731" x="396.864" y="293.308541" style="fill: #ffffff"/>
     <use xlink:href="#m2c13ba7731" x="351.69" y="269.334486" style="fill: #ffffff"/>
     <use xlink:href="#m2c13ba7731" x="299.19" y="269.334486" style="fill: #ffffff"/>
     <use xlink:href="#m2c13ba7731" x="341.19" y="269.334486" style="fill: #ffffff"/>
     <use xlink:href="#m2c13ba7731" x="346.44" y="269.334486" style="fill: #ffffff"/>
     <use xlink:href="#m2c13ba7731" x="304.44" y="269.334486" style="fill: #ffffff"/>
     <use xlink:href="#m2c13ba7731" x="293.94" y="269.334486" style="fill: #ffffff"/>
     <use xlink:href="#m2c13ba7731" x="309.69" y="269.334486" style="fill: #ffffff"/>
     <use xlink:href="#m2c13ba7731" x="289.215005" y="267.155027" style="fill: #ffffff"/>
     <use xlink:href="#m2c13ba7731" x="320.19" y="269.334486" style="fill: #ffffff"/>
     <use xlink:href="#m2c13ba7731" x="335.94" y="269.334486" style="fill: #ffffff"/>
     <use xlink:href="#m2c13ba7731" x="325.44" y="258.437189" style="fill: #ffffff"/>
     <use xlink:href="#m2c13ba7731" x="314.94" y="269.334486" style="fill: #ffffff"/>
     <use xlink:href="#m2c13ba7731" x="330.69" y="269.334486" style="fill: #ffffff"/>
     <use xlink:href="#m2c13ba7731" x="325.44" y="269.334486" style="fill: #ffffff"/>
     <use xlink:href="#m2c13ba7731" x="361.664995" y="267.155027" style="fill: #ffffff"/>
     <use xlink:href="#m2c13ba7731" x="356.94" y="269.334486" style="fill: #ffffff"/>
    </g>
   </g>
   <g id="text_10">
    <!-- Identified VF Gene counts per Samples' species -->
    <g style="fill: #262626" transform="translate(93.252187 35.472) scale(0.12 -0.12)">
     <defs>
      <path id="DejaVuSans-27" d="M 1147 4666 
L 1147 2931 
L 616 2931 
L 616 4666 
L 1147 4666 
z
" transform="scale(0.015625)"/>
     </defs>
     <use xlink:href="#DejaVuSans-49"/>
     <use xlink:href="#DejaVuSans-64" x="29.492188"/>
     <use xlink:href="#DejaVuSans-65" x="92.96875"/>
     <use xlink:href="#DejaVuSans-6e" x="154.492188"/>
     <use xlink:href="#DejaVuSans-74" x="217.871094"/>
     <use xlink:href="#DejaVuSans-69" x="257.080078"/>
     <use xlink:href="#DejaVuSans-66" x="284.863281"/>
     <use xlink:href="#DejaVuSans-69" x="320.068359"/>
     <use xlink:href="#DejaVuSans-65" x="347.851562"/>
     <use xlink:href="#DejaVuSans-64" x="409.375"/>
     <use xlink:href="#DejaVuSans-20" x="472.851562"/>
     <use xlink:href="#DejaVuSans-56" x="504.638672"/>
     <use xlink:href="#DejaVuSans-46" x="573.046875"/>
     <use xlink:href="#DejaVuSans-20" x="630.566406"/>
     <use xlink:href="#DejaVuSans-47" x="662.353516"/>
     <use xlink:href="#DejaVuSans-65" x="739.84375"/>
     <use xlink:href="#DejaVuSans-6e" x="801.367188"/>
     <use xlink:href="#DejaVuSans-65" x="864.746094"/>
     <use xlink:href="#DejaVuSans-20" x="926.269531"/>
     <use xlink:href="#DejaVuSans-63" x="958.056641"/>
     <use xlink:href="#DejaVuSans-6f" x="1013.037109"/>
     <use xlink:href="#DejaVuSans-75" x="1074.21875"/>
     <use xlink:href="#DejaVuSans-6e" x="1137.597656"/>
     <use xlink:href="#DejaVuSans-74" x="1200.976562"/>
     <use xlink:href="#DejaVuSans-73" x="1240.185547"/>
     <use xlink:href="#DejaVuSans-20" x="1292.285156"/>
     <use xlink:href="#DejaVuSans-70" x="1324.072266"/>
     <use xlink:href="#DejaVuSans-65" x="1387.548828"/>
     <use xlink:href="#DejaVuSans-72" x="1449.072266"/>
     <use xlink:href="#DejaVuSans-20" x="1490.185547"/>
     <use xlink:href="#DejaVuSans-53" x="1521.972656"/>
     <use xlink:href="#DejaVuSans-61" x="1585.449219"/>
     <use xlink:href="#DejaVuSans-6d" x="1646.728516"/>
     <use xlink:href="#DejaVuSans-70" x="1744.140625"/>
     <use xlink:href="#DejaVuSans-6c" x="1807.617188"/>
     <use xlink:href="#DejaVuSans-65" x="1835.400391"/>
     <use xlink:href="#DejaVuSans-73" x="1896.923828"/>
     <use xlink:href="#DejaVuSans-27" x="1949.023438"/>
     <use xlink:href="#DejaVuSans-20" x="1976.513672"/>
     <use xlink:href="#DejaVuSans-73" x="2008.300781"/>
     <use xlink:href="#DejaVuSans-70" x="2060.400391"/>
     <use xlink:href="#DejaVuSans-65" x="2123.876953"/>
     <use xlink:href="#DejaVuSans-63" x="2185.400391"/>
     <use xlink:href="#DejaVuSans-69" x="2240.380859"/>
     <use xlink:href="#DejaVuSans-65" x="2268.164062"/>
     <use xlink:href="#DejaVuSans-73" x="2329.6875"/>
    </g>
   </g>
  </g>
 </g>
 <defs>
  <clipPath id="pd30e59b9fb">
   <rect x="57.6" y="41.472" width="357.12" height="266.112"/>
  </clipPath>
 </defs>
</svg>
